<svg width="333" height="56" viewBox="0 0 333 56" fill="none" xmlns="http://www.w3.org/2000/svg">
<path d="M14.1689 19.085V22H2.8457V19.085H14.1689ZM3.88574 0.671875V22H0.208984V0.671875H3.88574ZM12.6895 9.57812V12.4492H2.8457V9.57812H12.6895ZM14.0957 0.671875V3.60156H2.8457V0.671875H14.0957ZM19.9697 0.671875L24.4961 8.4502L29.0225 0.671875H33.2559L26.8105 11.2334L33.417 22H29.1396L24.4961 14.0752L19.8525 22H15.5605L22.1816 11.2334L15.7217 0.671875H19.9697ZM44.2275 14.0459H38.6758V11.1309H44.2275C45.1943 11.1309 45.9756 10.9746 46.5713 10.6621C47.167 10.3496 47.6016 9.91992 47.875 9.37305C48.1582 8.81641 48.2998 8.18164 48.2998 7.46875C48.2998 6.79492 48.1582 6.16504 47.875 5.5791C47.6016 4.9834 47.167 4.50488 46.5713 4.14355C45.9756 3.78223 45.1943 3.60156 44.2275 3.60156H39.8037V22H36.127V0.671875H44.2275C45.8779 0.671875 47.2793 0.964844 48.4316 1.55078C49.5938 2.12695 50.4775 2.92773 51.083 3.95312C51.6885 4.96875 51.9912 6.13086 51.9912 7.43945C51.9912 8.81641 51.6885 9.99805 51.083 10.9844C50.4775 11.9707 49.5938 12.7275 48.4316 13.2549C47.2793 13.7822 45.8779 14.0459 44.2275 14.0459ZM55.2871 0.671875H62.8311C64.4521 0.671875 65.834 0.916016 66.9766 1.4043C68.1191 1.89258 68.9932 2.61523 69.5986 3.57227C70.2139 4.51953 70.5215 5.69141 70.5215 7.08789C70.5215 8.15234 70.3262 9.08984 69.9355 9.90039C69.5449 10.7109 68.9932 11.3945 68.2803 11.9512C67.5674 12.498 66.7178 12.9229 65.7314 13.2256L64.6182 13.7676H57.8359L57.8066 10.8525H62.8896C63.7686 10.8525 64.501 10.6963 65.0869 10.3838C65.6729 10.0713 66.1123 9.64648 66.4053 9.10938C66.708 8.5625 66.8594 7.94727 66.8594 7.26367C66.8594 6.52148 66.7129 5.87695 66.4199 5.33008C66.1367 4.77344 65.6973 4.34863 65.1016 4.05566C64.5059 3.75293 63.749 3.60156 62.8311 3.60156H58.9639V22H55.2871V0.671875ZM67.46 22L62.4502 12.4199L66.3027 12.4053L71.3857 21.8096V22H67.46ZM88.1436 19.085V22H76.8203V19.085H88.1436ZM77.8604 0.671875V22H74.1836V0.671875H77.8604ZM86.6641 9.57812V12.4492H76.8203V9.57812H86.6641ZM88.0703 0.671875V3.60156H76.8203V0.671875H88.0703ZM102.367 16.5068C102.367 16.0674 102.299 15.6768 102.162 15.335C102.035 14.9932 101.806 14.6807 101.474 14.3975C101.142 14.1143 100.673 13.8408 100.067 13.5771C99.4717 13.3037 98.71 13.0254 97.7822 12.7422C96.7666 12.4297 95.8291 12.083 94.9697 11.7021C94.1201 11.3115 93.3779 10.8623 92.7432 10.3545C92.1084 9.83691 91.6152 9.24609 91.2637 8.58203C90.9121 7.9082 90.7363 7.13184 90.7363 6.25293C90.7363 5.38379 90.917 4.59277 91.2783 3.87988C91.6494 3.16699 92.1719 2.55176 92.8457 2.03418C93.5293 1.50684 94.335 1.10156 95.2627 0.818359C96.1904 0.525391 97.2158 0.378906 98.3389 0.378906C99.9209 0.378906 101.283 0.671875 102.426 1.25781C103.578 1.84375 104.462 2.62988 105.077 3.61621C105.702 4.60254 106.015 5.69141 106.015 6.88281H102.367C102.367 6.17969 102.216 5.55957 101.913 5.02246C101.62 4.47559 101.171 4.0459 100.565 3.7334C99.9697 3.4209 99.2129 3.26465 98.2949 3.26465C97.4258 3.26465 96.7031 3.39648 96.127 3.66016C95.5508 3.92383 95.1211 4.28027 94.8379 4.72949C94.5547 5.17871 94.4131 5.68652 94.4131 6.25293C94.4131 6.65332 94.5059 7.01953 94.6914 7.35156C94.877 7.67383 95.1602 7.97656 95.541 8.25977C95.9219 8.5332 96.4004 8.79199 96.9766 9.03613C97.5527 9.28027 98.2314 9.51465 99.0127 9.73926C100.194 10.0908 101.225 10.4814 102.104 10.9111C102.982 11.3311 103.715 11.8096 104.301 12.3467C104.887 12.8838 105.326 13.4941 105.619 14.1777C105.912 14.8516 106.059 15.6182 106.059 16.4775C106.059 17.376 105.878 18.1865 105.517 18.9092C105.155 19.6221 104.638 20.2324 103.964 20.7402C103.3 21.2383 102.499 21.624 101.562 21.8975C100.634 22.1611 99.5986 22.293 98.4561 22.293C97.4307 22.293 96.4199 22.1562 95.4238 21.8828C94.4375 21.6094 93.5391 21.1943 92.7285 20.6377C91.918 20.0713 91.2734 19.3682 90.7949 18.5283C90.3164 17.6787 90.0771 16.6875 90.0771 15.5547H93.7539C93.7539 16.248 93.8711 16.8389 94.1055 17.3271C94.3496 17.8154 94.6865 18.2158 95.1162 18.5283C95.5459 18.8311 96.0439 19.0557 96.6104 19.2021C97.1865 19.3486 97.8018 19.4219 98.4561 19.4219C99.3154 19.4219 100.033 19.2998 100.609 19.0557C101.195 18.8115 101.635 18.4697 101.928 18.0303C102.221 17.5908 102.367 17.083 102.367 16.5068ZM120.531 16.5068C120.531 16.0674 120.463 15.6768 120.326 15.335C120.199 14.9932 119.97 14.6807 119.638 14.3975C119.306 14.1143 118.837 13.8408 118.231 13.5771C117.636 13.3037 116.874 13.0254 115.946 12.7422C114.931 12.4297 113.993 12.083 113.134 11.7021C112.284 11.3115 111.542 10.8623 110.907 10.3545C110.272 9.83691 109.779 9.24609 109.428 8.58203C109.076 7.9082 108.9 7.13184 108.9 6.25293C108.9 5.38379 109.081 4.59277 109.442 3.87988C109.813 3.16699 110.336 2.55176 111.01 2.03418C111.693 1.50684 112.499 1.10156 113.427 0.818359C114.354 0.525391 115.38 0.378906 116.503 0.378906C118.085 0.378906 119.447 0.671875 120.59 1.25781C121.742 1.84375 122.626 2.62988 123.241 3.61621C123.866 4.60254 124.179 5.69141 124.179 6.88281H120.531C120.531 6.17969 120.38 5.55957 120.077 5.02246C119.784 4.47559 119.335 4.0459 118.729 3.7334C118.134 3.4209 117.377 3.26465 116.459 3.26465C115.59 3.26465 114.867 3.39648 114.291 3.66016C113.715 3.92383 113.285 4.28027 113.002 4.72949C112.719 5.17871 112.577 5.68652 112.577 6.25293C112.577 6.65332 112.67 7.01953 112.855 7.35156C113.041 7.67383 113.324 7.97656 113.705 8.25977C114.086 8.5332 114.564 8.79199 115.141 9.03613C115.717 9.28027 116.396 9.51465 117.177 9.73926C118.358 10.0908 119.389 10.4814 120.268 10.9111C121.146 11.3311 121.879 11.8096 122.465 12.3467C123.051 12.8838 123.49 13.4941 123.783 14.1777C124.076 14.8516 124.223 15.6182 124.223 16.4775C124.223 17.376 124.042 18.1865 123.681 18.9092C123.319 19.6221 122.802 20.2324 122.128 20.7402C121.464 21.2383 120.663 21.624 119.726 21.8975C118.798 22.1611 117.763 22.293 116.62 22.293C115.595 22.293 114.584 22.1562 113.588 21.8828C112.602 21.6094 111.703 21.1943 110.893 20.6377C110.082 20.0713 109.438 19.3682 108.959 18.5283C108.48 17.6787 108.241 16.6875 108.241 15.5547H111.918C111.918 16.248 112.035 16.8389 112.27 17.3271C112.514 17.8154 112.851 18.2158 113.28 18.5283C113.71 18.8311 114.208 19.0557 114.774 19.2021C115.351 19.3486 115.966 19.4219 116.62 19.4219C117.479 19.4219 118.197 19.2998 118.773 19.0557C119.359 18.8115 119.799 18.4697 120.092 18.0303C120.385 17.5908 120.531 17.083 120.531 16.5068ZM19.2666 33.6719V55H15.5898V33.6719H19.2666ZM27.9678 43.0029V45.918H18.3291V43.0029H27.9678ZM29.1836 33.6719V36.6016H18.3291V33.6719H29.1836ZM46.0732 52.085V55H34.75V52.085H46.0732ZM35.79 33.6719V55H32.1133V33.6719H35.79ZM44.5938 42.5781V45.4492H34.75V42.5781H44.5938ZM46 33.6719V36.6016H34.75V33.6719H46ZM63.0361 52.085V55H51.7129V52.085H63.0361ZM52.7529 33.6719V55H49.0762V33.6719H52.7529ZM61.5566 42.5781V45.4492H51.7129V42.5781H61.5566ZM62.9629 33.6719V36.6016H51.7129V33.6719H62.9629ZM79.3984 52.085V55H68.6904V52.085H79.3984ZM69.7158 33.6719V55H66.0391V33.6719H69.7158ZM86.166 33.6719V55H82.4893V33.6719H86.166ZM107.655 33.6719V55H103.979L94.4131 39.7217V55H90.7363V33.6719H94.4131L104.008 48.9795V33.6719H107.655ZM128.412 44.1016V52.2461C128.109 52.6465 127.636 53.0859 126.991 53.5645C126.356 54.0332 125.512 54.4385 124.457 54.7803C123.402 55.1221 122.089 55.293 120.517 55.293C119.179 55.293 117.953 55.0684 116.84 54.6191C115.727 54.1602 114.765 53.4912 113.954 52.6123C113.153 51.7334 112.533 50.6641 112.094 49.4043C111.654 48.1348 111.435 46.6895 111.435 45.0684V43.5889C111.435 41.9775 111.635 40.542 112.035 39.2822C112.445 38.0127 113.031 36.9385 113.793 36.0596C114.555 35.1807 115.473 34.5166 116.547 34.0674C117.631 33.6084 118.856 33.3789 120.224 33.3789C121.972 33.3789 123.417 33.6719 124.56 34.2578C125.712 34.834 126.601 35.6348 127.226 36.6602C127.851 37.6855 128.246 38.8574 128.412 40.1758H124.809C124.691 39.4336 124.462 38.7695 124.12 38.1836C123.788 37.5977 123.31 37.1387 122.685 36.8066C122.069 36.4648 121.269 36.2939 120.282 36.2939C119.433 36.2939 118.686 36.4551 118.041 36.7773C117.396 37.0996 116.859 37.5732 116.43 38.1982C116.01 38.8232 115.692 39.585 115.478 40.4834C115.263 41.3818 115.155 42.4072 115.155 43.5596V45.0684C115.155 46.2402 115.277 47.2803 115.521 48.1885C115.775 49.0967 116.137 49.8633 116.605 50.4883C117.084 51.1133 117.665 51.5869 118.349 51.9092C119.032 52.2217 119.804 52.3779 120.663 52.3779C121.503 52.3779 122.191 52.3096 122.729 52.1729C123.266 52.0264 123.69 51.8555 124.003 51.6602C124.325 51.4551 124.574 51.2598 124.75 51.0742V46.8408H120.312V44.1016H128.412ZM143.705 49.5068C143.705 49.0674 143.637 48.6768 143.5 48.335C143.373 47.9932 143.144 47.6807 142.812 47.3975C142.479 47.1143 142.011 46.8408 141.405 46.5771C140.81 46.3037 140.048 46.0254 139.12 45.7422C138.104 45.4297 137.167 45.083 136.308 44.7021C135.458 44.3115 134.716 43.8623 134.081 43.3545C133.446 42.8369 132.953 42.2461 132.602 41.582C132.25 40.9082 132.074 40.1318 132.074 39.2529C132.074 38.3838 132.255 37.5928 132.616 36.8799C132.987 36.167 133.51 35.5518 134.184 35.0342C134.867 34.5068 135.673 34.1016 136.601 33.8184C137.528 33.5254 138.554 33.3789 139.677 33.3789C141.259 33.3789 142.621 33.6719 143.764 34.2578C144.916 34.8438 145.8 35.6299 146.415 36.6162C147.04 37.6025 147.353 38.6914 147.353 39.8828H143.705C143.705 39.1797 143.554 38.5596 143.251 38.0225C142.958 37.4756 142.509 37.0459 141.903 36.7334C141.308 36.4209 140.551 36.2646 139.633 36.2646C138.764 36.2646 138.041 36.3965 137.465 36.6602C136.889 36.9238 136.459 37.2803 136.176 37.7295C135.893 38.1787 135.751 38.6865 135.751 39.2529C135.751 39.6533 135.844 40.0195 136.029 40.3516C136.215 40.6738 136.498 40.9766 136.879 41.2598C137.26 41.5332 137.738 41.792 138.314 42.0361C138.891 42.2803 139.569 42.5146 140.351 42.7393C141.532 43.0908 142.562 43.4814 143.441 43.9111C144.32 44.3311 145.053 44.8096 145.639 45.3467C146.225 45.8838 146.664 46.4941 146.957 47.1777C147.25 47.8516 147.396 48.6182 147.396 49.4775C147.396 50.376 147.216 51.1865 146.854 51.9092C146.493 52.6221 145.976 53.2324 145.302 53.7402C144.638 54.2383 143.837 54.624 142.899 54.8975C141.972 55.1611 140.937 55.293 139.794 55.293C138.769 55.293 137.758 55.1562 136.762 54.8828C135.775 54.6094 134.877 54.1943 134.066 53.6377C133.256 53.0713 132.611 52.3682 132.133 51.5283C131.654 50.6787 131.415 49.6875 131.415 48.5547H135.092C135.092 49.248 135.209 49.8389 135.443 50.3271C135.688 50.8154 136.024 51.2158 136.454 51.5283C136.884 51.8311 137.382 52.0557 137.948 52.2021C138.524 52.3486 139.14 52.4219 139.794 52.4219C140.653 52.4219 141.371 52.2998 141.947 52.0557C142.533 51.8115 142.973 51.4697 143.266 51.0303C143.559 50.5908 143.705 50.083 143.705 49.5068ZM162.045 33.6719V55H158.368V33.6719H162.045ZM183.534 33.6719V55H179.857L170.292 39.7217V55H166.615V33.6719H170.292L179.887 48.9795V33.6719H183.534ZM199.135 49.5068C199.135 49.0674 199.066 48.6768 198.93 48.335C198.803 47.9932 198.573 47.6807 198.241 47.3975C197.909 47.1143 197.44 46.8408 196.835 46.5771C196.239 46.3037 195.478 46.0254 194.55 45.7422C193.534 45.4297 192.597 45.083 191.737 44.7021C190.888 44.3115 190.146 43.8623 189.511 43.3545C188.876 42.8369 188.383 42.2461 188.031 41.582C187.68 40.9082 187.504 40.1318 187.504 39.2529C187.504 38.3838 187.685 37.5928 188.046 36.8799C188.417 36.167 188.939 35.5518 189.613 35.0342C190.297 34.5068 191.103 34.1016 192.03 33.8184C192.958 33.5254 193.983 33.3789 195.106 33.3789C196.688 33.3789 198.051 33.6719 199.193 34.2578C200.346 34.8438 201.229 35.6299 201.845 36.6162C202.47 37.6025 202.782 38.6914 202.782 39.8828H199.135C199.135 39.1797 198.983 38.5596 198.681 38.0225C198.388 37.4756 197.938 37.0459 197.333 36.7334C196.737 36.4209 195.98 36.2646 195.062 36.2646C194.193 36.2646 193.471 36.3965 192.895 36.6602C192.318 36.9238 191.889 37.2803 191.605 37.7295C191.322 38.1787 191.181 38.6865 191.181 39.2529C191.181 39.6533 191.273 40.0195 191.459 40.3516C191.645 40.6738 191.928 40.9766 192.309 41.2598C192.689 41.5332 193.168 41.792 193.744 42.0361C194.32 42.2803 194.999 42.5146 195.78 42.7393C196.962 43.0908 197.992 43.4814 198.871 43.9111C199.75 44.3311 200.482 44.8096 201.068 45.3467C201.654 45.8838 202.094 46.4941 202.387 47.1777C202.68 47.8516 202.826 48.6182 202.826 49.4775C202.826 50.376 202.646 51.1865 202.284 51.9092C201.923 52.6221 201.405 53.2324 200.731 53.7402C200.067 54.2383 199.267 54.624 198.329 54.8975C197.401 55.1611 196.366 55.293 195.224 55.293C194.198 55.293 193.188 55.1562 192.191 54.8828C191.205 54.6094 190.307 54.1943 189.496 53.6377C188.686 53.0713 188.041 52.3682 187.562 51.5283C187.084 50.6787 186.845 49.6875 186.845 48.5547H190.521C190.521 49.248 190.639 49.8389 190.873 50.3271C191.117 50.8154 191.454 51.2158 191.884 51.5283C192.313 51.8311 192.812 52.0557 193.378 52.2021C193.954 52.3486 194.569 52.4219 195.224 52.4219C196.083 52.4219 196.801 52.2998 197.377 52.0557C197.963 51.8115 198.402 51.4697 198.695 51.0303C198.988 50.5908 199.135 50.083 199.135 49.5068ZM214.853 33.6719V55H211.205V33.6719H214.853ZM221.547 33.6719V36.6016H204.569V33.6719H221.547ZM231.259 36.5137L224.887 55H221.034L229.062 33.6719H231.522L231.259 36.5137ZM236.591 55L230.204 36.5137L229.926 33.6719H232.401L240.458 55H236.591ZM236.283 47.0898V50.0049H224.682V47.0898H236.283ZM259.765 33.6719V55H256.088L246.522 39.7217V55H242.846V33.6719H246.522L256.117 48.9795V33.6719H259.765ZM272.479 33.6719V55H268.832V33.6719H272.479ZM279.174 33.6719V36.6016H262.196V33.6719H279.174ZM295.346 52.085V55H284.638V52.085H295.346ZM285.663 33.6719V55H281.986V33.6719H285.663ZM296.503 33.6719L301.454 43.8525L306.405 33.6719H310.478L303.3 47.1484V55H299.594V47.1484L292.416 33.6719H296.503ZM316.527 33.6719L316.176 48.7158H313.158L312.792 33.6719H316.527ZM312.689 53.3301C312.689 52.793 312.865 52.3438 313.217 51.9824C313.578 51.6113 314.076 51.4258 314.711 51.4258C315.336 51.4258 315.829 51.6113 316.19 51.9824C316.552 52.3438 316.732 52.793 316.732 53.3301C316.732 53.8477 316.552 54.292 316.19 54.6631C315.829 55.0244 315.336 55.2051 314.711 55.2051C314.076 55.2051 313.578 55.0244 313.217 54.6631C312.865 54.292 312.689 53.8477 312.689 53.3301Z" fill="white"/>
<path d="M136.981 0.671875L141.933 10.8525L146.884 0.671875H150.956L143.778 14.1484V22H140.072V14.1484L132.895 0.671875H136.981ZM169.853 10.75V11.9219C169.853 13.5332 169.643 14.9785 169.223 16.2578C168.803 17.5371 168.202 18.626 167.421 19.5244C166.649 20.4229 165.722 21.1113 164.638 21.5898C163.554 22.0586 162.353 22.293 161.034 22.293C159.726 22.293 158.529 22.0586 157.445 21.5898C156.371 21.1113 155.438 20.4229 154.647 19.5244C153.856 18.626 153.241 17.5371 152.802 16.2578C152.372 14.9785 152.157 13.5332 152.157 11.9219V10.75C152.157 9.13867 152.372 7.69824 152.802 6.42871C153.231 5.14941 153.837 4.06055 154.618 3.16211C155.409 2.25391 156.342 1.56543 157.416 1.09668C158.5 0.618164 159.696 0.378906 161.005 0.378906C162.323 0.378906 163.524 0.618164 164.608 1.09668C165.692 1.56543 166.625 2.25391 167.406 3.16211C168.188 4.06055 168.788 5.14941 169.208 6.42871C169.638 7.69824 169.853 9.13867 169.853 10.75ZM166.176 11.9219V10.7207C166.176 9.5293 166.059 8.47949 165.824 7.57129C165.6 6.65332 165.263 5.88672 164.813 5.27148C164.374 4.64648 163.832 4.17773 163.188 3.86523C162.543 3.54297 161.815 3.38184 161.005 3.38184C160.194 3.38184 159.472 3.54297 158.837 3.86523C158.202 4.17773 157.66 4.64648 157.211 5.27148C156.771 5.88672 156.435 6.65332 156.2 7.57129C155.966 8.47949 155.849 9.5293 155.849 10.7207V11.9219C155.849 13.1133 155.966 14.168 156.2 15.0859C156.435 16.0039 156.776 16.7803 157.226 17.415C157.685 18.04 158.231 18.5137 158.866 18.8359C159.501 19.1484 160.224 19.3047 161.034 19.3047C161.854 19.3047 162.582 19.1484 163.217 18.8359C163.852 18.5137 164.389 18.04 164.828 17.415C165.268 16.7803 165.6 16.0039 165.824 15.0859C166.059 14.168 166.176 13.1133 166.176 11.9219ZM185.497 0.671875H189.159V14.9248C189.159 16.5459 188.808 17.9033 188.104 18.9971C187.401 20.0908 186.444 20.916 185.233 21.4727C184.032 22.0195 182.689 22.293 181.205 22.293C179.672 22.293 178.305 22.0195 177.104 21.4727C175.902 20.916 174.955 20.0908 174.262 18.9971C173.578 17.9033 173.236 16.5459 173.236 14.9248V0.671875H176.898V14.9248C176.898 15.9502 177.074 16.7949 177.426 17.459C177.777 18.1133 178.275 18.5967 178.92 18.9092C179.564 19.2217 180.326 19.3779 181.205 19.3779C182.084 19.3779 182.841 19.2217 183.476 18.9092C184.12 18.5967 184.618 18.1133 184.97 17.459C185.321 16.7949 185.497 15.9502 185.497 14.9248V0.671875ZM193.158 0.671875H200.702C202.323 0.671875 203.705 0.916016 204.848 1.4043C205.99 1.89258 206.864 2.61523 207.47 3.57227C208.085 4.51953 208.393 5.69141 208.393 7.08789C208.393 8.15234 208.197 9.08984 207.807 9.90039C207.416 10.7109 206.864 11.3945 206.151 11.9512C205.438 12.498 204.589 12.9229 203.603 13.2256L202.489 13.7676H195.707L195.678 10.8525H200.761C201.64 10.8525 202.372 10.6963 202.958 10.3838C203.544 10.0713 203.983 9.64648 204.276 9.10938C204.579 8.5625 204.73 7.94727 204.73 7.26367C204.73 6.52148 204.584 5.87695 204.291 5.33008C204.008 4.77344 203.568 4.34863 202.973 4.05566C202.377 3.75293 201.62 3.60156 200.702 3.60156H196.835V22H193.158V0.671875ZM205.331 22L200.321 12.4199L204.174 12.4053L209.257 21.8096V22H205.331ZM225.722 22H221.166L221.195 19.085H225.722C227.04 19.085 228.144 18.7969 229.032 18.2207C229.931 17.6445 230.604 16.8193 231.054 15.7451C231.513 14.6709 231.742 13.3916 231.742 11.9072V10.75C231.742 9.59766 231.61 8.57715 231.347 7.68848C231.093 6.7998 230.712 6.05273 230.204 5.44727C229.706 4.8418 229.091 4.38281 228.358 4.07031C227.636 3.75781 226.801 3.60156 225.854 3.60156H221.078V0.671875H225.854C227.27 0.671875 228.563 0.911133 229.735 1.38965C230.907 1.8584 231.918 2.53711 232.768 3.42578C233.627 4.31445 234.286 5.37891 234.745 6.61914C235.204 7.85938 235.434 9.24609 235.434 10.7793V11.9072C235.434 13.4404 235.204 14.8271 234.745 16.0674C234.286 17.3076 233.627 18.3721 232.768 19.2607C231.908 20.1396 230.883 20.8184 229.691 21.2969C228.51 21.7656 227.187 22 225.722 22ZM223.202 0.671875V22H219.525V0.671875H223.202ZM239.125 0.671875H246.669C248.29 0.671875 249.672 0.916016 250.814 1.4043C251.957 1.89258 252.831 2.61523 253.437 3.57227C254.052 4.51953 254.359 5.69141 254.359 7.08789C254.359 8.15234 254.164 9.08984 253.773 9.90039C253.383 10.7109 252.831 11.3945 252.118 11.9512C251.405 12.498 250.556 12.9229 249.569 13.2256L248.456 13.7676H241.674L241.645 10.8525H246.728C247.606 10.8525 248.339 10.6963 248.925 10.3838C249.511 10.0713 249.95 9.64648 250.243 9.10938C250.546 8.5625 250.697 7.94727 250.697 7.26367C250.697 6.52148 250.551 5.87695 250.258 5.33008C249.975 4.77344 249.535 4.34863 248.939 4.05566C248.344 3.75293 247.587 3.60156 246.669 3.60156H242.802V22H239.125V0.671875ZM251.298 22L246.288 12.4199L250.141 12.4053L255.224 21.8096V22H251.298ZM261.947 0.671875V22H258.271V0.671875H261.947ZM273.827 18.1035L279.438 0.671875H283.495L275.849 22H273.109L273.827 18.1035ZM268.642 0.671875L274.208 18.1035L274.97 22H272.216L264.599 0.671875H268.642ZM289.809 0.671875V22H286.132V0.671875H289.809ZM311.298 0.671875V22H307.621L298.056 6.72168V22H294.379V0.671875H298.056L307.65 15.9795V0.671875H311.298ZM332.055 11.1016V19.2461C331.752 19.6465 331.278 20.0859 330.634 20.5645C329.999 21.0332 329.154 21.4385 328.1 21.7803C327.045 22.1221 325.731 22.293 324.159 22.293C322.821 22.293 321.596 22.0684 320.482 21.6191C319.369 21.1602 318.407 20.4912 317.597 19.6123C316.796 18.7334 316.176 17.6641 315.736 16.4043C315.297 15.1348 315.077 13.6895 315.077 12.0684V10.5889C315.077 8.97754 315.277 7.54199 315.678 6.28223C316.088 5.0127 316.674 3.93848 317.436 3.05957C318.197 2.18066 319.115 1.5166 320.189 1.06738C321.273 0.608398 322.499 0.378906 323.866 0.378906C325.614 0.378906 327.06 0.671875 328.202 1.25781C329.354 1.83398 330.243 2.63477 330.868 3.66016C331.493 4.68555 331.889 5.85742 332.055 7.17578H328.451C328.334 6.43359 328.104 5.76953 327.763 5.18359C327.431 4.59766 326.952 4.13867 326.327 3.80664C325.712 3.46484 324.911 3.29395 323.925 3.29395C323.075 3.29395 322.328 3.45508 321.684 3.77734C321.039 4.09961 320.502 4.57324 320.072 5.19824C319.652 5.82324 319.335 6.58496 319.12 7.4834C318.905 8.38184 318.798 9.40723 318.798 10.5596V12.0684C318.798 13.2402 318.92 14.2803 319.164 15.1885C319.418 16.0967 319.779 16.8633 320.248 17.4883C320.727 18.1133 321.308 18.5869 321.991 18.9092C322.675 19.2217 323.446 19.3779 324.306 19.3779C325.146 19.3779 325.834 19.3096 326.371 19.1729C326.908 19.0264 327.333 18.8555 327.646 18.6602C327.968 18.4551 328.217 18.2598 328.393 18.0742V13.8408H323.954V11.1016H332.055Z" fill="url(#paint0_linear_670_4919)"/>
<defs>
<linearGradient id="paint0_linear_670_4919" x1="345.782" y1="28.0002" x2="-15.0989" y2="20.4784" gradientUnits="userSpaceOnUse">
<stop stop-color="#FF7A00"/>
<stop offset="1" stop-color="#FF9F29"/>
</linearGradient>
</defs>
</svg>
