<svg width="24" height="24" viewBox="0 0 24 24" fill="none" xmlns="http://www.w3.org/2000/svg">
<path d="M3.1864 17.8941C3.9524 18.6887 4.87109 19.3203 5.88731 19.7509C6.90353 20.1816 7.9963 20.4024 9.1 20.4001H10.3892C10.7127 20.3972 11.0219 20.2662 11.2489 20.0357C11.4758 19.8052 11.6021 19.494 11.6 19.1705V4.8297C11.6021 4.50619 11.4758 4.19504 11.2489 3.96453C11.0219 3.73401 10.7127 3.60295 10.3892 3.6001H9.28C7.08636 3.60288 4.97886 4.45428 3.39884 5.97599C1.81882 7.4977 0.888824 9.57171 0.803597 11.7637C0.767237 12.8934 0.959567 14.0187 1.36904 15.0722C1.77851 16.1257 2.39667 17.0855 3.1864 17.8941Z" fill="#0B0B0B"/>
<path d="M22.4 16H16C15.7878 16 15.5843 16.0843 15.4343 16.2343C15.2843 16.3843 15.2 16.5878 15.2 16.8C15.2 17.0122 15.2843 17.2157 15.4343 17.3657C15.5843 17.5157 15.7878 17.6 16 17.6H22.4C22.6122 17.6 22.8157 17.5157 22.9657 17.3657C23.1157 17.2157 23.2 17.0122 23.2 16.8C23.2 16.5878 23.1157 16.3843 22.9657 16.2343C22.8157 16.0843 22.6122 16 22.4 16Z" fill="#0B0B0B"/>
<path d="M22.4 6.3999H16C15.7878 6.3999 15.5843 6.48419 15.4343 6.63422C15.2843 6.78425 15.2 6.98773 15.2 7.1999C15.2 7.41208 15.2843 7.61556 15.4343 7.76559C15.5843 7.91562 15.7878 7.9999 16 7.9999H22.4C22.6122 7.9999 22.8157 7.91562 22.9657 7.76559C23.1157 7.61556 23.2 7.41208 23.2 7.1999C23.2 6.98773 23.1157 6.78425 22.9657 6.63422C22.8157 6.48419 22.6122 6.3999 22.4 6.3999Z" fill="#0B0B0B"/>
<path d="M22.4 11.2H16C15.7878 11.2 15.5843 11.2842 15.4343 11.4343C15.2843 11.5843 15.2 11.7878 15.2 12C15.2 12.2121 15.2843 12.4156 15.4343 12.5656C15.5843 12.7157 15.7878 12.8 16 12.8H22.4C22.6122 12.8 22.8157 12.7157 22.9657 12.5656C23.1157 12.4156 23.2 12.2121 23.2 12C23.2 11.7878 23.1157 11.5843 22.9657 11.4343C22.8157 11.2842 22.6122 11.2 22.4 11.2Z" fill="#0B0B0B"/>
</svg>
