<svg width="24" height="24" viewBox="0 0 24 24" fill="none" xmlns="http://www.w3.org/2000/svg">
<path d="M15.396 4.6962C15.8396 4.39936 16.3894 4.46942 16.6647 4.70882C16.7839 4.81274 16.9004 4.98972 16.7776 5.24339C16.5196 5.77863 15.9701 6.12427 15.3784 6.12427H13.6844C13.7641 6.33013 13.8082 6.55359 13.8082 6.78734C13.8082 6.99553 13.773 7.19574 13.7093 7.38268H17.6933C17.959 6.87799 17.9782 6.29859 17.7415 5.76767L17.256 4.67794C17.1993 4.55177 17.1123 4.43423 16.9941 4.3313C16.5817 3.97337 15.7848 3.83391 15.1174 4.28016L13.2879 5.50503C13.4041 5.62523 13.5044 5.7607 13.5848 5.90845L15.396 4.6962Z" fill="#0B0B0B"/>
<path d="M10.2157 7.38234C10.1519 7.19541 10.1167 6.99519 10.1167 6.78701C10.1167 6.55326 10.1609 6.3298 10.2406 6.12394H8.54753C7.95585 6.12394 7.40634 5.77796 7.14702 5.24273C7.02417 4.98939 7.14071 4.81241 7.26024 4.70882C7.40833 4.57999 7.63577 4.5003 7.88347 4.5003C8.0963 4.5003 8.32374 4.55907 8.52861 4.6962L10.3395 5.90845C10.4199 5.76036 10.5205 5.6249 10.6364 5.50503L8.80685 4.28016C8.13947 3.83391 7.34259 3.97337 6.9312 4.3313C6.79938 4.44585 6.70575 4.57833 6.65063 4.7211L6.18346 5.76734C5.94639 6.29826 5.96565 6.87765 6.23161 7.38234H10.2157Z" fill="#0B0B0B"/>
<path d="M10.7559 7.38222H13.1681C13.2571 7.2026 13.3075 7.00039 13.3075 6.78689C13.3075 6.04546 12.7032 5.44116 11.9618 5.44116C11.2204 5.44116 10.6161 6.04546 10.6161 6.78689C10.6164 7.00072 10.6669 7.2026 10.7559 7.38222Z" fill="#0B0B0B"/>
<path d="M4 8.93553V10.5808C4 11.0751 4.34266 11.4909 4.80252 11.6034H11.0344V7.88232H5.05288C4.47248 7.88232 4 8.35481 4 8.93553Z" fill="#0B0B0B"/>
<path d="M4.80284 19.6026C4.80284 20.3732 5.42972 21.0001 6.20037 21.0001H11.0348V12.1033H4.80284V19.6026Z" fill="#0B0B0B"/>
<path d="M18.8714 7.88232H12.8905V11.6031H19.1214C19.5816 11.4905 19.924 11.0748 19.924 10.5804V8.9352C19.9243 8.35481 19.4518 7.88232 18.8714 7.88232Z" fill="#0B0B0B"/>
<path d="M12.8905 21.0001H17.7239C18.4946 21.0001 19.1214 20.3732 19.1214 19.6026V12.1033H12.8905V21.0001Z" fill="#0B0B0B"/>
</svg>
