<svg width="22" height="22" viewBox="0 0 22 22" fill="none" xmlns="http://www.w3.org/2000/svg">
<path d="M8.24821 13.5206C8.14303 13.3965 8.04554 13.2649 7.95638 13.1265C7.74154 12.8014 7.53923 12.4626 7.34408 12.1217L6.3737 10.4214C6.00488 9.83034 5.81152 9.2905 5.81152 8.86296C5.81152 8.43542 6.03174 7.87785 6.47038 7.75373C6.40913 6.72998 6.39658 5.70341 6.43278 4.67822C6.45172 4.43966 6.49067 4.20354 6.54915 3.97288C6.81886 3.00539 7.40683 2.18342 8.19808 1.66772C8.47867 1.4727 8.77913 1.31465 9.09326 1.19684C9.65723 0.962384 9.38509 0.0147083 10.0063 0.000916747C11.4583 -0.0404578 13.8449 1.32687 14.7759 2.43611C15.3691 3.1575 15.7066 4.08975 15.7266 5.06241L15.6675 7.86012C15.7943 7.8943 15.9101 7.96596 16.0026 8.06736C16.095 8.16875 16.1606 8.29603 16.1921 8.43542C16.269 8.77824 16.1921 9.24715 15.9199 9.90915C15.9199 9.93082 15.9002 9.93082 15.9002 9.95249L14.7938 11.9601C14.5431 12.4133 14.2835 12.8763 13.9917 13.3019C13.6462 13.8102 13.3615 13.7195 13.6569 14.2062C15.6554 17.2289 21.3104 15.5999 21.9424 20.7589C22.0095 21.3071 21.5523 21.76 21 21.76H1C0.447716 21.76 -0.00950712 21.307 0.0575843 20.7588C0.689416 15.5962 6.34626 17.2291 8.3431 14.2062C8.58659 13.8121 8.52214 13.8417 8.24821 13.5206Z" fill="white"/>
</svg>
