<svg width="18" height="12" viewBox="0 0 18 12" fill="none" xmlns="http://www.w3.org/2000/svg">
<path d="M14.023 1.54834C15.5654 2.56386 16.894 4.03629 17.9019 5.82526L18 6L17.9019 6.17331C16.894 7.96228 15.564 9.43471 14.023 10.4502C12.5186 11.4414 10.8105 12 9 12C7.18945 12 5.48145 11.4414 3.97852 10.4517C2.43457 9.43471 1.10596 7.96228 0.0981445 6.17331L0 6L0.0981445 5.82526C1.10596 4.03629 2.43457 2.56386 3.97705 1.54834C5.48145 0.558606 7.18945 0 9 0C10.8105 0 12.5171 0.558606 14.023 1.54834ZM8.90479 3.17546L9.50244 3.23132C9.29004 3.54357 9.16406 3.9217 9.16406 4.32991C9.16406 5.40129 10.0225 6.26928 11.083 6.26928C11.4229 6.26928 11.7422 6.18047 12.019 6.02292C12.0234 6.09024 12.0264 6.15756 12.0264 6.22631C12.0264 7.91215 10.6289 9.27859 8.90479 9.27859C7.18066 9.27859 5.7832 7.91215 5.7832 6.22631C5.7832 4.5419 7.18066 3.17546 8.90479 3.17546ZM15.9668 6C15.1611 4.61638 14.1196 3.47911 12.9214 2.6899C11.7422 1.91358 10.4092 1.47529 9 1.47529C7.59229 1.47529 6.25928 1.91358 5.08008 2.6899C3.88184 3.47911 2.84033 4.61638 2.0332 6C2.83887 7.38362 3.88184 8.52089 5.08008 9.30867C6.25928 10.085 7.59229 10.5233 9 10.5233C10.4092 10.5233 11.7407 10.085 12.9214 9.30867C14.1196 8.52089 15.1611 7.38362 15.9668 6Z" fill="#B8BFD7"/>
</svg>
