<svg width="18" height="15" viewBox="0 0 18 15" fill="none" xmlns="http://www.w3.org/2000/svg">
<path d="M9 3.12733C11.243 3.12733 13.0922 4.87864 13.0922 7.03565C13.0922 7.54955 12.9797 8.03301 12.8109 8.46577L15.1945 10.758C16.4285 9.76065 17.4094 8.49282 18 7.03565C16.5691 3.58713 13.0922 1.15965 9 1.15965C7.85039 1.15965 6.75703 1.34898 5.74805 1.70059L7.51289 3.3978C7.96289 3.23552 8.46562 3.12733 9 3.12733ZM0.812109 0.997365L2.68945 2.77572L3.05508 3.12733C1.68398 4.1247 0.615234 5.47367 0 7.0086C1.43086 10.4605 4.90781 12.888 9 12.888C10.2621 12.888 11.468 12.6446 12.5895 12.2422L12.927 12.5398L15.3387 14.832L16.3758 13.8346L1.84922 0L0.812109 0.997365ZM5.3543 5.31139L6.61641 6.52513C6.58828 6.68742 6.56016 6.8497 6.56016 7.03903C6.56016 8.33391 7.65352 9.38537 9.02812 9.38537C9.19687 9.38537 9.39375 9.35833 9.5625 9.33128L10.8246 10.545C10.2902 10.8155 9.675 10.9507 9.03164 10.9507C6.78867 10.9507 4.93945 9.19942 4.93945 7.04241C4.90781 6.41694 5.07305 5.82191 5.3543 5.31139ZM8.85938 4.69269L11.4398 7.14722L11.468 7.01198C11.468 5.7171 10.3746 4.66564 9 4.66564L8.85938 4.69269Z" fill="#B8BFD7"/>
</svg>
