<svg width="19" height="19" viewBox="0 0 19 19" fill="none" xmlns="http://www.w3.org/2000/svg">
    <path d="M18.4372 0.145752H14.56C14.1885 0.145752 14.0025 0.594755 14.2652 0.857505L15.4698 2.06212L8.43961 9.09235L5.97779 6.63052L5.318 5.97074C5.09475 5.74748 4.73284 5.74748 4.50959 5.97074L0.313071 10.167C0.0898163 10.3903 0.0898163 10.7522 0.313071 10.9755L0.972856 11.6352C1.19611 11.8585 1.55802 11.8585 1.78127 11.6352L4.91369 8.50282L8.03052 11.6197C8.25378 11.8429 8.61568 11.8429 8.83894 11.6197L9.17444 11.2842C9.19169 11.2704 9.20978 11.2582 9.22579 11.2422L16.9378 3.53011L18.1425 4.73473C18.4052 4.99748 18.8542 4.81144 18.8542 4.43997V0.562743C18.8542 0.332421 18.6675 0.145752 18.4372 0.145752Z" fill="white"/>
    <path d="M13.7876 8.00331V18.2826C13.7876 18.5983 14.0435 18.8542 14.3592 18.8542H16.1848C16.5005 18.8542 16.7564 18.5983 16.7564 18.2826V5.03448L13.7876 8.00331Z" fill="white"/>
    <path d="M9.93964 11.8514V18.2826C9.93964 18.5983 10.1955 18.8542 10.5113 18.8542H12.3368C12.6526 18.8542 12.9085 18.5983 12.9085 18.2826V8.8826L9.93964 11.8514Z" fill="white"/>
    <path d="M8.43489 12.7226C8.03224 12.7226 7.65392 12.5659 7.36913 12.2811L6.09155 11.0038V18.2826C6.09155 18.5984 6.34744 18.8542 6.6632 18.8542H8.48873C8.80449 18.8542 9.06038 18.5984 9.06038 18.2826V12.5857C8.86643 12.6744 8.65461 12.7226 8.43489 12.7226Z" fill="white"/>
    <path d="M4.91371 9.82571L2.44294 12.2965C2.38099 12.3584 2.31385 12.4133 2.24359 12.4628V18.2826C2.24359 18.5983 2.49948 18.8542 2.81524 18.8542H4.64077C4.95653 18.8542 5.21242 18.5983 5.21242 18.2826V10.1244L4.91371 9.82571Z" fill="white"/>
</svg>