<svg width="20" height="20" viewBox="0 0 20 20" fill="none" xmlns="http://www.w3.org/2000/svg">
<g clip-path="url(#clip0_228_1340)">
<path d="M7.5 18.3334C7.96023 18.3334 8.33333 17.9603 8.33333 17.5001C8.33333 17.0398 7.96023 16.6667 7.5 16.6667C7.03976 16.6667 6.66666 17.0398 6.66666 17.5001C6.66666 17.9603 7.03976 18.3334 7.5 18.3334Z" stroke="#006272" stroke-width="2" stroke-linecap="round" stroke-linejoin="round"/>
<path d="M16.6667 18.3334C17.1269 18.3334 17.5 17.9603 17.5 17.5001C17.5 17.0398 17.1269 16.6667 16.6667 16.6667C16.2064 16.6667 15.8333 17.0398 15.8333 17.5001C15.8333 17.9603 16.2064 18.3334 16.6667 18.3334Z" stroke="#006272" stroke-width="2" stroke-linecap="round" stroke-linejoin="round"/>
<path d="M0.833332 0.833252H4.16667L6.4 11.9916C6.4762 12.3752 6.68492 12.7199 6.98962 12.9652C7.29432 13.2104 7.67558 13.3407 8.06667 13.3333H16.1667C16.5578 13.3407 16.939 13.2104 17.2437 12.9652C17.5484 12.7199 17.7571 12.3752 17.8333 11.9916L19.1667 4.99992H5" stroke="#006272" stroke-width="2" stroke-linecap="round" stroke-linejoin="round"/>
</g>
<defs>
<clipPath id="clip0_228_1340">
<rect width="20" height="20" fill="white"/>
</clipPath>
</defs>
</svg>
