<svg width="23" height="23" viewBox="0 0 23 23" fill="none" xmlns="http://www.w3.org/2000/svg">
<rect x="0.5" y="0.5" width="22" height="22" rx="11" fill="white"/>
<path d="M13.8687 6.06401C13.2949 6.73576 12.3769 7.26559 11.4589 7.1899C11.3442 6.28162 11.7936 5.31657 12.3196 4.72051C12.8933 4.02983 13.8974 3.53785 14.7102 3.5C14.8058 4.44613 14.4329 5.37333 13.8687 6.06401ZM14.7006 7.36967C13.3714 7.29398 12.2335 8.11711 11.6024 8.11711C10.9617 8.11711 9.99588 7.40751 8.94401 7.42643C7.57658 7.44536 6.30477 8.21172 5.60672 9.43223C4.17235 11.8732 5.23378 15.4874 6.62034 17.4743C7.29927 18.4583 8.11208 19.5369 9.18307 19.499C10.1967 19.4612 10.5983 18.8462 11.8223 18.8462C13.0559 18.8462 13.4097 19.499 14.4807 19.4801C15.5899 19.4612 16.288 18.4961 16.9669 17.5122C17.7415 16.3957 18.057 15.3077 18.0762 15.2509C18.057 15.232 15.9342 14.4278 15.915 12.0057C15.8959 9.98098 17.5885 9.01593 17.665 8.95916C16.7087 7.55889 15.217 7.40751 14.7006 7.36967Z" fill="#0B0B0B"/>
</svg>
