<svg width="40" height="50" viewBox="0 0 40 50" fill="none" xmlns="http://www.w3.org/2000/svg">
<path d="M26.6423 4.66465C26.6423 4.26016 26.3176 3.93223 25.917 3.93223H5.34402V0.732422C5.34402 0.32793 5.01931 0 4.6188 0C4.21828 0 3.89358 0.32793 3.89358 0.732422V3.93223H0.725223C0.324706 3.93223 0 4.26016 0 4.66465C0 5.06914 0.324706 5.39707 0.725223 5.39707H3.89358V44.603H0.725223C0.324706 44.603 0 44.931 0 45.3354C0 45.7399 0.324706 46.0679 0.725223 46.0679H3.89358V49.2676C3.89358 49.6721 4.21828 50 4.6188 50C5.01931 50 5.34402 49.6721 5.34402 49.2676V5.39707H25.917C26.3176 5.39707 26.6423 5.06914 26.6423 4.66465Z" fill="#DCDCDC"/>
<path d="M35.3812 5.39707H39.2748C39.6753 5.39707 40 5.06914 40 4.66465C40 4.26016 39.6753 3.93223 39.2748 3.93223H36.1064V0.732422C36.1064 0.32793 35.7817 0 35.3812 0C34.9807 0 34.656 0.32793 34.656 0.732422V4.66465C34.656 5.06914 34.9807 5.39707 35.3812 5.39707Z" fill="#DCDCDC"/>
<path d="M39.2748 44.6029H36.1064V10.7041C36.094 10.5487 36.0788 10.3809 35.894 10.1862L29.9139 4.14668C29.5483 3.73066 28.641 3.98262 28.6759 4.66484V9.41221C28.6759 10.5284 29.5751 11.4365 30.6803 11.4365H34.656V44.6029H7.89913C7.49861 44.6029 7.1739 44.9309 7.1739 45.3353C7.1739 45.7398 7.49861 46.0678 7.89913 46.0678H34.6559V49.2676C34.6559 49.6721 34.9806 50 35.3811 50C35.7816 50 36.1063 49.6721 36.1063 49.2676V46.0678H39.2747C39.6752 46.0678 39.9999 45.7398 39.9999 45.3353C39.9999 44.9309 39.6753 44.6029 39.2748 44.6029ZM30.6803 9.97168C30.3748 9.97168 30.1263 9.7207 30.1263 9.41221V6.43291L33.6304 9.97178L30.6803 9.97168Z" fill="#DCDCDC"/>
<path d="M17.4631 28.1564H12.7724L11.9083 30.5664H10.4271L14.3154 19.7912H15.9355L19.8085 30.5664H18.3272L17.4631 28.1564ZM17.0619 27.0058L15.1178 21.5327L13.1736 27.0058H17.0619Z" fill="#DCDCDC"/>
<path d="M20.9322 28.0631V26.9902L26.3481 19.4336H28.0299V26.8347H29.5729V28.0631H28.0299V30.5664H26.6413V28.0631H20.9322ZM26.703 20.9107L22.5523 26.8347H26.703V20.9107Z" fill="#DCDCDC"/>
</svg>
