<svg width="48" height="60" viewBox="0 0 48 60" fill="none" xmlns="http://www.w3.org/2000/svg">
<path d="M31.9707 5.59758C31.9707 5.11219 31.5811 4.71867 31.1005 4.71867H6.41283V0.878906C6.41283 0.393516 6.02318 0 5.54256 0C5.06194 0 4.67229 0.393516 4.67229 0.878906V4.71867H0.870267C0.389648 4.71867 0 5.11219 0 5.59758C0 6.08297 0.389648 6.47648 0.870267 6.47648H4.67229V53.5236H0.870267C0.389648 53.5236 0 53.9171 0 54.4025C0 54.8879 0.389648 55.2814 0.870267 55.2814H4.67229V59.1211C4.67229 59.6065 5.06194 60 5.54256 60C6.02318 60 6.41283 59.6065 6.41283 59.1211V6.47648H31.1005C31.5811 6.47648 31.9707 6.08297 31.9707 5.59758Z" fill="#96C140"/>
<path d="M42.4574 6.47648H47.1297C47.6104 6.47648 48 6.08297 48 5.59758C48 5.11219 47.6104 4.71867 47.1297 4.71867H43.3277V0.878906C43.3277 0.393516 42.9381 0 42.4574 0C41.9768 0 41.5872 0.393516 41.5872 0.878906V5.59758C41.5872 6.08297 41.9768 6.47648 42.4574 6.47648Z" fill="#96C140"/>
<path d="M47.1297 53.5235H43.3277V12.8449C43.3129 12.6585 43.2945 12.457 43.0728 12.2235L35.8967 4.97602C35.4579 4.4768 34.3692 4.77914 34.4111 5.59781V11.2946C34.4111 12.6341 35.4901 13.7238 36.8164 13.7238H41.5872V53.5235H9.47895C8.99833 53.5235 8.60868 53.917 8.60868 54.4024C8.60868 54.8878 8.99833 55.2813 9.47895 55.2813H41.5871V59.1211C41.5871 59.6065 41.9767 60 42.4573 60C42.9379 60 43.3276 59.6065 43.3276 59.1211V55.2813H47.1296C47.6102 55.2813 47.9999 54.8878 47.9999 54.4024C47.9999 53.917 47.6104 53.5235 47.1297 53.5235ZM36.8164 11.966C36.4498 11.966 36.1516 11.6648 36.1516 11.2946V7.71949L40.3565 11.9661L36.8164 11.966Z" fill="#96C140"/>
<path d="M21.1767 34.5399H14.3922L13.1425 37.9559H11L16.6239 22.6832H18.9672L24.5689 37.9559H22.4264L21.1767 34.5399ZM20.5964 32.9091L17.7844 25.1515L14.9725 32.9091H20.5964Z" fill="#96C140"/>
<path d="M36.9734 23.7631H29.1401V28.7879C29.4823 28.3177 29.9881 27.9357 30.6576 27.6419C31.3272 27.3333 32.0487 27.1791 32.8224 27.1791C34.0573 27.1791 35.0616 27.4362 35.8352 27.9504C36.6089 28.45 37.1594 29.1038 37.4867 29.9118C37.8289 30.7052 38 31.55 38 32.4463C38 33.5041 37.7991 34.4518 37.3974 35.2893C36.9957 36.1267 36.3783 36.7879 35.5451 37.2727C34.7268 37.7576 33.7077 38 32.4876 38C30.9254 38 29.6608 37.6033 28.6937 36.8099C27.7266 36.0165 27.139 34.9587 26.9307 33.6364H28.9169C29.1103 34.4738 29.5195 35.1276 30.1443 35.5978C30.7692 36.068 31.5578 36.303 32.51 36.303C33.6853 36.303 34.5706 35.9578 35.1657 35.2672C35.7608 34.562 36.0584 33.6364 36.0584 32.4904C36.0584 31.3444 35.7608 30.4628 35.1657 29.8457C34.5706 29.214 33.6928 28.8981 32.5323 28.8981C31.7437 28.8981 31.0519 29.0891 30.4568 29.4711C29.8765 29.8384 29.4525 30.3453 29.1847 30.9917H27.2654V22H36.9734V23.7631Z" fill="#96C140"/>
</svg>
