<svg width="244" height="35" viewBox="0 0 244 35" fill="none" xmlns="http://www.w3.org/2000/svg">
<path d="M61.1173 7.27679C57.6372 8.02279 55.0941 10.549 54.1404 14.1434C53.7556 15.6184 53.7723 18.5855 54.1572 20.0436C54.5085 21.383 55.2614 22.9089 55.9307 23.6718C56.1984 23.994 56.3824 24.2991 56.3155 24.367C56.2653 24.4178 56.2987 24.4687 56.4326 24.4687C56.5497 24.4687 56.9011 24.7061 57.219 24.9773C58.0053 25.6894 59.5781 26.4524 60.8162 26.7576C62.1881 27.0797 64.9487 27.0797 66.2203 26.7576C69.6167 25.8759 72.0093 23.4345 72.896 19.9588C73.2474 18.6024 73.2474 15.5845 72.9128 14.1434C72.2937 11.5324 70.5035 9.15874 68.3117 8.07365C66.2872 7.07334 63.4597 6.7512 61.1173 7.27679ZM66.3374 9.87083C67.5588 10.3456 68.9308 11.6002 69.5331 12.804C71.1727 16.0762 70.5537 21.0269 68.2448 23.0615C65.6347 25.3503 61.0337 25.2486 58.6411 22.8241C55.9307 20.0775 55.9139 13.9738 58.6076 11.2442C59.3104 10.5321 60.5652 9.80302 61.5691 9.5487C62.6399 9.27743 65.2666 9.46393 66.3374 9.87083Z" fill="black"/>
<path d="M189.111 7.27679C185.647 8.02279 183.071 10.5999 182.167 14.2112C181.833 15.5337 181.833 18.6533 182.167 19.9757C183.02 23.3836 185.564 25.9776 188.793 26.7576C190.198 27.0797 192.942 27.0797 194.214 26.7576C196.941 26.0455 199.166 24.2483 200.22 21.8916C201.023 20.0944 201.241 19.0602 201.224 16.8391C201.19 14.5333 200.722 12.787 199.685 11.1424C197.593 7.8702 193.41 6.32734 189.111 7.27679ZM194.331 9.87083C195.519 10.3286 196.907 11.5832 197.526 12.7192C198.112 13.8382 198.48 15.4489 198.48 17.0426C198.48 21.3151 196.355 24.1126 192.708 24.6213C189.964 25.0112 187.371 24.0109 186.032 22.0442C185.195 20.8235 184.744 19.4162 184.643 17.7038C184.392 13.6347 186.216 10.549 189.412 9.61652C190.6 9.27743 193.143 9.39611 194.331 9.87083Z" fill="black"/>
<path d="M212.752 7.19202C210.309 7.59893 207.916 9.22656 206.611 11.3628C205.373 13.3974 204.855 16.9239 205.407 19.5519C206.176 23.248 208.636 25.859 212.2 26.7745C213.722 27.1645 216.884 27.0288 218.39 26.5202C222.088 25.2486 224.313 22.0442 224.53 17.6699C224.714 14.0586 223.577 11.1085 221.234 9.12484C219.21 7.39547 215.931 6.64947 212.752 7.19202ZM218.122 10.1252C220.599 11.3459 221.736 13.533 221.753 17.0087C221.77 19.6197 221.101 21.5525 219.695 22.875C218.507 24.0109 217.721 24.3839 215.964 24.6382C213.187 25.0621 210.326 23.8075 209.071 21.6373C207.665 19.1958 207.565 15.3132 208.87 12.7192C210.025 10.4303 212.166 9.32829 215.245 9.44697C216.734 9.49784 217.001 9.5487 218.122 10.1252Z" fill="black"/>
<path d="M86.3144 7.42938C81.8974 8.56534 79.2539 12.5836 79.5885 17.6869C79.7224 19.6875 79.7725 20.0266 79.9064 20.1622C79.9733 20.2301 80.0235 20.4166 80.0235 20.5691C80.0235 21.2473 81.2783 23.3666 82.2655 24.367C84.1896 26.2998 86.4148 27.0966 89.5603 26.978C91.6349 26.8932 93.0236 26.5202 94.2617 25.7403C95.2154 25.113 95.4998 24.6213 95.2489 23.8922C94.9477 22.9428 94.3621 22.875 92.8898 23.621C90.4805 24.8586 88.2385 24.9434 86.1136 23.8922C83.4367 22.5528 82.2488 20.1453 82.3993 16.4153C82.5164 13.906 82.9013 12.8718 84.2732 11.4815C86.4483 9.27743 89.4431 8.97224 92.689 10.5999C94.2952 11.4137 94.7804 11.3798 95.1987 10.4812C95.55 9.7352 95.3492 9.22656 94.429 8.59925C93.0236 7.66675 91.6684 7.29375 89.393 7.24288C87.9373 7.20897 87.0004 7.25984 86.3144 7.42938Z" fill="black"/>
<path d="M36.5225 7.53111C36.121 7.61589 35.6358 7.83629 35.435 8.02279C35.1004 8.36188 35.1004 8.56534 35.0502 17.1782L35 25.9946L35.4183 26.4185C35.9035 26.9101 36.7568 26.978 37.3256 26.5711L37.6937 26.3167V9.68434L39.5007 9.75216C41.0232 9.80302 41.408 9.87084 42.0103 10.2269C43.0644 10.8203 43.466 11.5832 43.466 12.9396C43.466 14.4316 43.0979 15.042 41.6757 15.9067C40.4544 16.6357 40.2034 17.0087 40.2034 18.0938C40.2034 18.755 40.4209 19.145 42.4956 22.1968C45.206 26.215 45.3231 26.3676 45.7749 26.6219C46.6616 27.1306 48.067 26.7067 48.067 25.9437C48.067 25.7403 46.9126 23.9431 45.4068 21.8407L42.7465 18.1107L43.5663 17.636C44.6204 17.0087 45.6243 15.8388 45.9589 14.8555C46.3772 13.6178 46.3103 11.5154 45.8251 10.4812C45.4235 9.59957 44.4364 8.58229 43.5663 8.12452C42.2446 7.42939 38.5972 7.1242 36.5225 7.53111Z" fill="black"/>
<path d="M103.983 7.61588L103.614 7.8702V17.0935C103.614 25.2486 103.648 26.3337 103.882 26.5711C104.217 26.9101 105.438 26.9271 105.89 26.605C106.191 26.3676 106.208 26.0455 106.258 17.28L106.308 8.19234L105.89 7.76847C105.405 7.27679 104.551 7.20897 103.983 7.61588Z" fill="black"/>
<path d="M114.406 7.58197C113.988 7.76847 109.052 13.3296 107.496 15.3811C106.827 16.2627 106.977 16.9409 108.165 18.382C111.846 22.8411 114.557 26.0285 115.008 26.4015C115.56 26.8762 116.715 27.0119 117.351 26.6728C118.12 26.2489 117.819 25.7572 113.82 21.0439C111.696 18.5516 109.972 16.4492 109.972 16.3644C109.972 16.2797 111.478 14.5164 113.318 12.414C116.799 8.44666 117.116 7.93802 116.347 7.51416C115.895 7.27679 115.008 7.3107 114.406 7.58197Z" fill="black"/>
<path d="M165.603 7.51415C165.034 7.61588 164.65 7.80238 164.399 8.10756L164.014 8.54838V16.9748C164.014 21.6034 164.064 25.5707 164.114 25.7911C164.315 26.5202 165.068 26.7406 167.494 26.8084C171.928 26.9441 174.186 26.0285 175.341 23.6549C175.742 22.8241 175.809 22.485 175.809 21.2473C175.809 20.0944 175.726 19.6536 175.424 19.0093C174.939 18.009 173.567 16.7374 172.697 16.4831C171.995 16.2627 171.877 16.0762 172.346 15.9236C172.814 15.771 173.868 14.6351 174.27 13.8891C174.772 12.9057 174.772 10.939 174.253 9.93865C173.4 8.27711 171.66 7.51415 168.448 7.41243C167.343 7.39547 166.072 7.42938 165.603 7.51415ZM170.288 10.0404C170.656 10.2099 171.125 10.549 171.342 10.7864C171.76 11.2442 171.995 12.3123 171.811 13.0074C171.627 13.7704 170.74 14.6011 169.736 14.9741C168.648 15.398 168.531 15.5167 168.531 16.3644C168.531 17.1782 168.782 17.3986 170.087 17.7547C171.342 18.0938 172.463 18.9415 172.814 19.8401C172.948 20.1453 173.049 20.7896 173.049 21.2812C173.049 22.5867 172.53 23.4006 171.325 24.0279C170.472 24.4687 170.137 24.5365 168.531 24.6043L166.691 24.6891V9.7352L167.243 9.66738C168.113 9.5487 169.569 9.71824 170.288 10.0404Z" fill="black"/>
<path d="M230.303 7.61588L229.935 7.8702V17.0765C229.935 25.7742 229.951 26.2998 230.236 26.5541C230.687 26.961 231.859 26.9271 232.277 26.5032C232.595 26.1811 232.612 25.9437 232.612 17.2969C232.612 12.431 232.561 8.27711 232.511 8.09061C232.327 7.39547 231.005 7.10725 230.303 7.61588Z" fill="black"/>
<path d="M240.776 7.54807C240.408 7.6837 236.56 12.0071 233.9 15.2793C233.415 15.8897 233.314 16.6187 233.649 17.2291C233.933 17.7886 240.877 26.0624 241.412 26.4863C241.914 26.8932 243.437 26.9949 243.788 26.6389C244.34 26.0794 244.039 25.6216 240.124 21.01C237.999 18.5177 236.309 16.3814 236.343 16.2797C236.393 16.161 237.899 14.3977 239.706 12.3462C243.119 8.44666 243.437 7.93802 242.667 7.51416C242.265 7.3107 241.379 7.3107 240.776 7.54807Z" fill="black"/>
<path d="M125.867 7.63284C125.198 7.8702 125.198 7.95497 125.198 17.1952C125.198 25.096 125.231 26.1641 125.465 26.4015C125.683 26.6389 126.369 26.6728 130.384 26.6728H135.069L135.337 26.2489C135.671 25.7233 135.521 24.723 135.069 24.4687C134.885 24.367 133.312 24.2991 131.321 24.2991H127.875V17.6869H130.267C133.245 17.6869 133.48 17.5852 133.48 16.4153C133.48 15.2454 133.245 15.1437 130.267 15.1437H127.875V10.0743L130.987 10.0234C134.015 9.97256 134.099 9.95561 134.416 9.56565C134.851 9.02311 134.818 8.4297 134.316 7.93802L133.915 7.51416L130.016 7.53111C127.875 7.53111 126.001 7.58197 125.867 7.63284Z" fill="black"/>
<path d="M142.431 7.85325C142.029 8.26016 141.996 8.9892 142.364 9.51479C142.615 9.87084 142.715 9.88779 145.543 9.88779H148.454V18.026C148.454 25.9437 148.471 26.1811 148.789 26.5032C149.006 26.7236 149.341 26.8423 149.792 26.8423C150.244 26.8423 150.579 26.7236 150.796 26.5032C151.114 26.1811 151.131 25.9437 151.131 18.026V9.88779H154.025C156.635 9.88779 156.97 9.85388 157.204 9.58261C157.589 9.15875 157.556 8.26016 157.154 7.85325C156.836 7.53111 156.602 7.51416 149.792 7.51416C142.983 7.51416 142.749 7.53111 142.431 7.85325Z" fill="black"/>
<path d="M9.20821 0.196135C8.88153 0.457735 8.92414 0.356001 4.30803 11.1252C-0.109238 21.4729 -0.322289 22.0833 0.203238 22.6792C0.54412 23.0716 1.32531 23.0571 1.7088 22.6647C2.07809 22.2868 2.22012 21.9671 6.52376 11.8955C8.42702 7.43373 10.0036 3.81493 10.0178 3.82947C10.032 3.844 11.7222 7.78253 13.7675 12.564C17.9149 22.3013 18.0569 22.6065 18.4404 22.8245C19.3495 23.3187 20.1022 22.7228 19.9886 21.6183C19.8892 20.8625 11.3529 0.821068 10.8984 0.341469C10.5575 -0.0363979 9.60591 -0.123598 9.20821 0.196135Z" fill="#96C140"/>
<path d="M5.224 21.26C5.048 21.4501 5 22.4007 5 25.9984C5 31 5 31 6.056 31C6.984 31 7 30.9269 7 26.013C7 23.2343 6.936 21.4648 6.84 21.2893C6.616 20.9237 5.544 20.8944 5.224 21.26Z" fill="#96C140"/>
<path d="M9.24798 21.236C9.031 21.4425 9 22.2536 9 27.9462C9 34.2287 9.0155 34.4351 9.30998 34.7154C9.66645 35.0545 10.2089 35.0988 10.6429 34.8038C10.9219 34.5974 10.9374 34.3319 10.9839 28.1526C11.0304 20.9263 11.0458 21 10.0074 21C9.72845 21 9.37197 21.1033 9.24798 21.236Z" fill="#96C140"/>
<path d="M13.1638 21.204C13.0273 21.3352 12.9761 22.7341 13.0102 26.0419L13.0614 30.6903L13.5392 30.8798C13.9147 31.0401 14.0853 31.0401 14.4778 30.8798L14.9386 30.6903L14.9898 26.0419C15.0239 22.7341 14.9727 21.3352 14.8362 21.204C14.7338 21.0874 14.3584 21 14 21C13.6416 21 13.2662 21.0874 13.1638 21.204Z" fill="#96C140"/>
</svg>
