<svg width="28" height="28" viewBox="0 0 28 28" fill="none" xmlns="http://www.w3.org/2000/svg">
<g style="mix-blend-mode:difference" clip-path="url(#clip0_158_435)">
<path d="M24.7238 28H3.27683C2.40805 27.9991 1.57512 27.6535 0.9608 27.0392C0.34648 26.4249 0.000941088 25.5921 0 24.7233L0 3.27669C0.000941088 2.40795 0.34648 1.57505 0.9608 0.96076C1.57512 0.346465 2.40805 0.000941048 3.27683 0L24.7238 0C25.5926 0.000784462 26.4256 0.346258 27.04 0.960587C27.6543 1.57492 27.9998 2.4079 28.0006 3.27669V24.7233C27.9998 25.5921 27.6543 26.4251 27.04 27.0394C26.4256 27.6537 25.5926 27.9992 24.7238 28ZM3.27683 1.43985C2.78965 1.43985 2.32242 1.63337 1.97793 1.97785C1.63344 2.32232 1.43991 2.78953 1.43991 3.27669V24.7233C1.43991 24.9645 1.48742 25.2034 1.57974 25.4262C1.67205 25.6491 1.80736 25.8516 1.97793 26.0222C2.1485 26.1927 2.351 26.328 2.57387 26.4203C2.79674 26.5126 3.0356 26.5602 3.27683 26.5602H24.7238C24.965 26.5602 25.2039 26.5126 25.4267 26.4203C25.6496 26.328 25.8521 26.1927 26.0227 26.0222C26.1932 25.8516 26.3285 25.6491 26.4209 25.4262C26.5132 25.2034 26.5607 24.9645 26.5607 24.7233V3.27669C26.5607 2.78953 26.3672 2.32232 26.0227 1.97785C25.6782 1.63337 25.2109 1.43985 24.7238 1.43985H3.27683Z" fill="white"/>
<path d="M20 10.0424V8.95763H21.9192V7H23.0814V8.95763H25V10.0424H23.0814V12H21.9192V10.0424H20Z" fill="white"/>
<path d="M4 17.997V16.4017H5.61335V12.5924H4.2246V11.6086L5.09885 11H7.56359V16.4047H9V18L4 17.997Z" fill="white"/>
<path d="M10 17.3713V16.3902H13.1251C13.1401 16.3924 13.1555 16.3911 13.1699 16.3863C13.1844 16.3816 13.1975 16.3735 13.2083 16.3628C13.2191 16.352 13.2272 16.3389 13.2321 16.3244C13.237 16.3099 13.2385 16.2945 13.2364 16.2794V15.2275C13.2385 15.2124 13.237 15.1969 13.2321 15.1825C13.2272 15.168 13.2191 15.1549 13.2083 15.1441C13.1975 15.1334 13.1844 15.1253 13.1699 15.1205C13.1555 15.1158 13.1401 15.1145 13.1251 15.1167H10.1001V11H14.6821V12.5911H11.8492V13.5339H13.2153C13.4556 13.4993 13.7006 13.5215 13.9309 13.5988C14.1612 13.676 14.3704 13.8062 14.5421 13.9789C14.7137 14.1516 14.843 14.3622 14.9198 14.594C14.9965 14.8257 15.0186 15.0723 14.9843 15.3141V16.2039C15.0186 16.4458 14.9965 16.6923 14.9198 16.9241C14.843 17.1558 14.7137 17.3664 14.5421 17.5392C14.3704 17.7119 14.1612 17.842 13.9309 17.9193C13.7006 17.9965 13.4556 18.0187 13.2153 17.9842H10.7835L10 17.3713Z" fill="white"/>
<path d="M16.016 16.2065V12.7935C15.9811 12.552 16.0035 12.3058 16.0816 12.0744C16.1596 11.843 16.2911 11.6327 16.4657 11.4602C16.6402 11.2877 16.853 11.1577 17.0872 11.0806C17.3214 11.0035 17.5706 10.9813 17.8149 11.0158H19.1846C19.4289 10.9813 19.6781 11.0035 19.9123 11.0806C20.1465 11.1578 20.3594 11.2877 20.534 11.4602C20.7086 11.6327 20.8401 11.8429 20.9183 12.0744C20.9964 12.3058 21.0189 12.552 20.9841 12.7935V16.2065C21.0189 16.448 20.9964 16.6942 20.9183 16.9256C20.8401 17.1571 20.7086 17.3673 20.534 17.5398C20.3594 17.7123 20.1465 17.8422 19.9123 17.9194C19.6781 17.9965 19.4289 18.0187 19.1846 17.9842H17.8149C17.5706 18.0187 17.3214 17.9965 17.0872 17.9194C16.853 17.8423 16.6402 17.7123 16.4657 17.5398C16.2911 17.3673 16.1596 17.157 16.0816 16.9256C16.0035 16.6942 15.9811 16.448 16.016 16.2065ZM17.7947 16.2871C17.7925 16.3021 17.7939 16.3175 17.7987 16.3319C17.8036 16.3463 17.8118 16.3594 17.8226 16.3701C17.8335 16.3809 17.8468 16.389 17.8613 16.3937C17.8759 16.3985 17.8914 16.3999 17.9067 16.3977H19.0928C19.1081 16.3999 19.1236 16.3985 19.1382 16.3937C19.1527 16.389 19.166 16.3809 19.1769 16.3701C19.1877 16.3594 19.1959 16.3463 19.2008 16.3319C19.2056 16.3175 19.207 16.3021 19.2048 16.2871V12.7117C19.2069 12.6967 19.2054 12.6814 19.2005 12.6671C19.1956 12.6527 19.1874 12.6397 19.1766 12.629C19.1657 12.6183 19.1525 12.6102 19.138 12.6053C19.1235 12.6005 19.108 12.599 19.0928 12.6011H17.9061C17.8909 12.599 17.8754 12.6005 17.8609 12.6053C17.8464 12.6102 17.8332 12.6183 17.8223 12.629C17.8115 12.6397 17.8033 12.6527 17.7984 12.6671C17.7935 12.6814 17.792 12.6967 17.7941 12.7117L17.7947 16.2871Z" fill="white"/>
</g>
<defs>
<clipPath id="clip0_158_435">
<rect width="28" height="28" fill="white"/>
</clipPath>
</defs>
</svg>
