<svg width="32" height="31" viewBox="0 0 32 31" fill="none" xmlns="http://www.w3.org/2000/svg">
<path d="M0 0H32V16.7347L30.4161 19.1322L32 21.2661V31H0V15.2243L0.989946 14.1214L0 13.0665V0Z" fill="white"/>
<path d="M6 22V17H11.3632L11.9386 17.7405L12.533 17H32V21.6552C32 21.6552 31.4909 21.995 30.9021 22H20.1228L19.4741 21.2118V22H17.3482V20.6546C17.3482 20.6546 17.0578 20.8424 16.4299 20.8424H15.7063V22H12.4875L11.9129 21.2437L11.3295 22H6Z" fill="#282828"/>
<path d="M0 12.7832L1.20471 10H3.28814L3.97183 11.5591V10H6.56172L6.96872 11.1268L7.3633 10H18.9892V10.5665C18.9892 10.5665 19.6004 10 20.6048 10L24.377 10.0131L25.0489 11.5517V10H27.2162L27.8128 10.8838V10H30V15H27.8128L27.2411 14.1133V15H24.0568L23.7365 14.2118H22.8805L22.5655 15H20.406C19.5417 15 18.9892 14.4451 18.9892 14.4451V15H15.7332L15.087 14.2118V15H2.97949L2.65949 14.2118H1.80616L1.48841 15H0V12.7832Z" fill="#282828"/>
<path d="M1.45076 11L0 15H0.944522L1.21221 14.199H2.76838L3.03467 15H4L2.55062 11H1.45076ZM1.98752 11.9309L2.46186 13.3306H1.51179L1.98752 11.9309Z" fill="white"/>
<path d="M5 15V11L6.59168 11.0059L7.51745 13.5849L8.42105 11H10V15H9V12.0526L7.93998 15H7.06298L6 12.0526V15H5Z" fill="white"/>
<path d="M10 15V11H13V11.8947H10.929V12.5789H12.9516V13.4211H10.929V14.1316H13V15H10Z" fill="white"/>
<path d="M14 11V15H15.0411V13.5789H15.4795L16.7277 15H18L16.6301 13.5263C17.1923 13.4807 17.7723 13.0173 17.7723 12.2977C17.7723 11.456 17.0844 11 16.3168 11H14ZM15.0411 11.8947H16.2312C16.5166 11.8947 16.7243 12.1092 16.7243 12.3158C16.7243 12.5815 16.4552 12.7368 16.2466 12.7368H15.0411V11.8947Z" fill="white"/>
<path d="M18 15H17V11H18V15Z" fill="white"/>
<path d="M20.8766 15H20.6628C19.6282 15 19 14.1599 19 13.0164C19 11.8448 19.6211 11 20.9277 11H22V11.9474H20.8885C20.3581 11.9474 19.983 12.374 19.983 13.0263C19.983 13.801 20.4119 14.1263 21.0298 14.1263H21.2851L20.8766 15Z" fill="white"/>
<path d="M22.4508 11L21 15H21.9445L22.2122 14.199H23.7684L24.0347 15H25L23.5506 11H22.4508ZM22.9875 11.9309L23.4619 13.3306H22.5118L22.9875 11.9309Z" fill="white"/>
<path d="M26 15V11H27.3057L28.973 13.5132V11H30V15H28.7365L27.027 12.4211V15H26Z" fill="white"/>
<path d="M7 21V17H10V17.8947H7.92903V18.579H9.95161V19.4211H7.92903V20.1316H10V21H7Z" fill="white"/>
<path d="M22 21V17H25V17.8947H22.929V18.579H24.9419V19.4211H22.929V20.1316H25V21H22Z" fill="white"/>
<path d="M10.0343 21L11.475 19.0247L10 17H11.1424L12.0209 18.2516L12.9023 17H14L12.5444 19L13.9877 21H12.8455L11.9925 19.7681L11.1603 21H10.0343Z" fill="white"/>
<path d="M14 17V21H14.8448V19.7368H15.7112C16.4443 19.7368 17 19.2643 17 18.3454C17 17.5842 16.5642 17 15.8181 17H14ZM14.8448 17.9046H15.7572C15.9941 17.9046 16.1634 18.081 16.1634 18.3651C16.1634 18.6321 15.9949 18.8257 15.7545 18.8257H14.8448V17.9046Z" fill="white"/>
<path d="M18 17V21H19.0411V19.5789H19.4795L20.7277 21H22L20.6301 19.5263C21.1923 19.4807 21.7723 19.0173 21.7723 18.2977C21.7723 17.456 21.0844 17 20.3168 17H18ZM19.0411 17.8947H20.2312C20.5166 17.8947 20.7243 18.1092 20.7243 18.3158C20.7243 18.5815 20.4552 18.7368 20.2466 18.7368H19.0411V17.8947Z" fill="white"/>
<path d="M25.1069 21V20.1316H26.7922C27.0416 20.1316 27.1496 19.9716 27.1496 19.7961C27.1496 19.6279 27.042 19.4579 26.7922 19.4579H26.0307C25.3687 19.4579 25 18.9789 25 18.2599C25 17.6185 25.3376 17 26.3213 17H27.9612L27.6066 17.9H26.1884C25.9173 17.9 25.8338 18.0689 25.8338 18.2303C25.8338 18.3961 25.9369 18.579 26.144 18.579H26.9418C27.6798 18.579 28 19.076 28 19.727C28 20.4268 27.6432 21 26.9017 21H25.1069Z" fill="white"/>
<path d="M29.1069 21V20.1316H30.7922C31.0416 20.1316 31.1496 19.9716 31.1496 19.7961C31.1496 19.6279 31.0419 19.4579 30.7922 19.4579H30.0307C29.3687 19.4579 29 18.9789 29 18.2599C29 17.6185 29.3376 17 30.3213 17H31.9612L31.6066 17.9H30.1884C29.9173 17.9 29.8338 18.0689 29.8338 18.2303C29.8338 18.3961 29.9369 18.579 30.144 18.579H30.9418C31.6798 18.579 32 19.076 32 19.727C32 20.4268 31.6432 21 30.9017 21H29.1069Z" fill="white"/>
</svg>
