<svg width="64" height="25" viewBox="0 0 64 25" fill="none" xmlns="http://www.w3.org/2000/svg">
<path d="M11.694 3.22312C10.9439 4.06755 9.74378 4.73359 8.54365 4.63844C8.39363 3.49667 8.9812 2.28354 9.66878 1.53425C10.4189 0.666032 11.7315 0.0475737 12.7941 0C12.9191 1.18934 12.4316 2.3549 11.694 3.22312ZM12.7816 4.86441C11.0439 4.76927 9.55626 5.804 8.73117 5.804C7.89357 5.804 6.63093 4.91199 5.25577 4.93578C3.46807 4.95956 1.80538 5.92293 0.892771 7.45718C-0.982444 10.5257 0.405215 15.069 2.21792 17.5666C3.10552 18.8035 4.16815 20.1594 5.56831 20.1118C6.89346 20.0642 7.41852 19.2912 9.0187 19.2912C10.6314 19.2912 11.0939 20.1118 12.4941 20.088C13.9443 20.0642 14.8569 18.8511 15.7445 17.6142C16.7571 16.2108 17.1696 14.843 17.1946 14.7716C17.1696 14.7479 14.3943 13.7369 14.3693 10.6922C14.3443 8.147 16.5571 6.93387 16.6571 6.86251C15.4069 5.10228 13.4567 4.91199 12.7816 4.86441ZM22.8203 1.41532V19.9572H25.8456V13.618H30.0336C33.859 13.618 36.5469 11.1204 36.5469 7.50476C36.5469 3.88915 33.9091 1.41532 30.1336 1.41532H22.8203ZM25.8456 3.84158H29.3335C31.9588 3.84158 33.459 5.17364 33.459 7.51665C33.459 9.85966 31.9588 11.2036 29.321 11.2036H25.8456V3.84158ZM42.0725 20.0999C43.9727 20.0999 45.7354 19.1841 46.5355 17.7331H46.598V19.9572H49.3983V10.7279C49.3983 8.05186 47.1481 6.32731 43.6852 6.32731C40.4723 6.32731 38.097 8.07564 38.0095 10.4781H40.7348C40.9599 9.33635 42.0725 8.58706 43.5977 8.58706C45.4479 8.58706 46.4855 9.40771 46.4855 10.9182V11.941L42.7101 12.1551C39.1972 12.3573 37.2969 13.725 37.2969 16.1037C37.2969 18.5062 39.2597 20.0999 42.0725 20.0999ZM42.8851 17.8996C41.2724 17.8996 40.2473 17.1622 40.2473 16.0324C40.2473 14.8668 41.2349 14.1889 43.1226 14.0818L46.4855 13.8796V14.9263C46.4855 16.6627 44.9353 17.8996 42.8851 17.8996ZM53.1363 25C56.0866 25 57.4743 23.9296 58.6869 20.6827L64 6.50571H60.9246L57.3617 17.4596H57.2992L53.7363 6.50571H50.5735L55.6991 20.0048L55.424 20.8254C54.9615 22.2169 54.2114 22.7521 52.8737 22.7521C52.6362 22.7521 52.1736 22.7284 51.9861 22.7046V24.9286C52.1611 24.9762 52.9112 25 53.1363 25Z" fill="white"/>
</svg>
