<svg width="69" height="27" viewBox="0 0 69 27" fill="none" xmlns="http://www.w3.org/2000/svg">
<path d="M32.5992 13.913V22H30V2H36.7601C38.4057 2 39.9647 2.60754 41.1796 3.73836C42.3932 4.78084 43 6.34659 43 7.99932C43 9.65206 42.3946 11.1295 41.1796 12.2603C39.966 13.3911 38.4937 13.9986 36.7601 13.9986L32.5992 13.913ZM32.5992 4.43425V11.3918H36.9334C37.887 11.3918 38.8405 11.0425 39.4473 10.3493C40.8342 9.04587 40.8342 6.87122 39.5326 5.56643L39.4473 5.47808C38.7538 4.78219 37.887 4.34726 36.9334 4.43561H32.5992V4.43425Z" fill="white"/>
<path d="M48.9142 7C50.8008 7 52.2573 7.50178 53.372 8.50926C54.4868 9.51413 55 10.8557 55 12.5327V20.5808H52.6003V18.7361H52.5159C51.4882 20.2454 50.029 21 48.3153 21C46.8589 21 45.5712 20.5808 44.5435 19.7436C43.6003 18.9051 43 17.7312 43 16.4748C43 15.1333 43.5145 14.0459 44.5435 13.2061C45.5712 12.3676 47.0277 12.0322 48.7441 12.0322C50.2876 12.0322 51.4882 12.2837 52.4301 12.8707V12.285C52.4301 11.4466 52.0884 10.6094 51.4024 10.105C50.7164 9.51937 49.8589 9.18267 48.9156 9.18267C47.4591 9.18267 46.3443 9.76829 45.5726 10.9435L43.343 9.60191C44.7137 7.83717 46.5145 7 48.9142 7ZM45.657 16.5547C45.657 17.2255 45.9987 17.8112 46.5145 18.1465C47.1134 18.5658 47.7995 18.8173 48.4855 18.8173C49.5132 18.8173 50.5435 18.3981 51.314 17.6448C52.1715 16.8888 52.5989 15.9691 52.5989 14.9616C51.8285 14.376 50.7124 14.0393 49.2559 14.0393C48.2282 14.0393 47.3694 14.2908 46.6847 14.7926C45.9987 15.2132 45.657 15.8001 45.657 16.5547Z" fill="white"/>
<path d="M69 8L60.1735 27H57.4962L60.7965 20.3876L55 8.08243H57.8544L62.0439 17.5406H62.1331L66.2348 8.08243H69V8Z" fill="white"/>
<path d="M22 11.3961C22 10.596 21.912 9.79869 21.8267 9H11V13.5245H17.1492C16.8892 14.9444 16.1108 16.2742 14.8964 17.0729V20H18.6208C20.7856 17.9603 22 14.943 22 11.3961Z" fill="#626262"/>
<path d="M11.3097 22C14.4549 22 17.0757 20.9917 19 19.3076L15.2429 16.5324C14.1954 17.2055 12.883 17.6262 11.3124 17.6262C8.34067 17.6262 5.71988 15.6924 4.84719 13H1V15.8606C3.00895 19.6455 6.94218 22 11.3097 22Z" fill="#626262"/>
<path d="M5 13.1434C4.48484 11.7985 4.48484 10.2855 5 8.85789V6H1.2235C-0.407835 9.11006 -0.407835 12.8072 1.2235 16L5 13.1434Z" fill="#626262"/>
<path d="M11.2223 4.378C12.883 4.378 14.4563 4.96545 15.6786 6.05885L19 2.86406C16.9023 1.015 14.1067 -0.0784043 11.3097 0.00438947C6.93945 0.00438947 2.92291 2.3581 1 6.14296L4.84446 9C5.63111 6.31249 8.2519 4.378 11.2223 4.378Z" fill="#626262"/>
</svg>
