<svg width="28" height="28" viewBox="0 0 28 28" fill="none" xmlns="http://www.w3.org/2000/svg">
<g style="mix-blend-mode:difference" clip-path="url(#clip0_158_517)">
<path d="M27.9684 20.2412C27.959 20.209 27.9458 20.1779 27.929 20.1483C26.7414 17.7466 25.7817 15.256 25.0605 12.7042L24.9864 12.4847C25.1871 12.2183 25.3242 11.9163 25.3888 11.5983C25.4132 11.4677 25.4259 11.3354 25.4266 11.2029C25.4428 10.8084 25.309 10.421 25.0481 10.1064C24.8896 9.93888 24.69 9.80794 24.4656 9.72432L24.3456 9.08169C23.7123 4.27282 23.4662 2.4082 23.4413 2.10518C23.4165 1.80215 23.3754 1.35775 23.3381 1.04038C23.3126 0.877404 23.2765 0.715963 23.2299 0.556927C23.2029 0.457658 23.1538 0.36456 23.0856 0.283486C23.0174 0.202412 22.9315 0.135116 22.8335 0.0858283C22.7346 0.0376843 22.6257 0.00906675 22.5139 0.00182857C22.4021 -0.00540962 22.2899 0.00889288 22.1845 0.0438101C22.1597 0.0523423 22.1355 0.0622473 22.112 0.07347C19.2105 1.45396 16.2141 2.66101 13.1417 3.68704C10.8833 4.58126 8.53281 5.26701 6.12526 5.73407C3.54994 6.18441 1.72851 6.47112 1.70092 6.47557L0.690698 6.64068C0.67231 6.64611 0.590108 6.66935 0.57172 6.67627C0.44697 6.72257 0.334639 6.79297 0.242417 6.88264C0.150196 6.97231 0.0802618 7.07914 0.0374036 7.19581C0.0114086 7.27194 -0.00118697 7.35137 8.79324e-05 7.43111C0.00280302 7.56191 0.0453118 7.68943 0.122851 7.79939C0.13643 7.81834 0.15105 7.83666 0.166656 7.85426C0.174768 7.86365 1.00166 8.82414 2.39316 12.4698C2.22878 12.5821 2.09462 12.7273 2.0009 12.8941C1.90718 13.061 1.85637 13.2453 1.85235 13.4328C1.85243 13.5295 1.86477 13.6259 1.88913 13.72C1.99251 13.9781 2.18435 14.1988 2.43606 14.3491C2.68778 14.4995 2.98591 14.5715 3.28603 14.5544C3.29864 14.555 3.31127 14.555 3.32388 14.5544C3.37202 14.5544 3.42069 14.5485 3.46936 14.545L3.68568 14.9588C3.80791 15.6321 3.92094 16.3108 4.02585 16.9554C4.49694 19.5159 4.80392 22.0994 4.94522 24.6927C4.96145 25.4026 4.82354 27.1436 4.82084 27.1945C4.81115 27.2804 4.81333 27.3671 4.82733 27.4526C4.8554 27.5528 4.90647 27.6465 4.97714 27.7274C5.04781 27.8083 5.13647 27.8745 5.23726 27.9217C5.34074 27.9688 5.45395 27.9952 5.56945 27.9994C5.68494 28.0036 5.80009 27.9854 5.90732 27.9459C5.93547 27.9357 5.96276 27.9237 5.98898 27.9098C8.98925 26.4357 12.0945 25.1475 15.2838 24.054C15.3325 24.0367 18.8472 22.6837 20.362 22.3145C22.1968 21.8232 24.0858 21.5205 25.994 21.4118C26.1227 21.4004 26.8371 21.356 27.0172 21.3288C27.1383 21.3088 27.2572 21.2789 27.3725 21.2393C27.3963 21.2329 27.4265 21.2235 27.4509 21.2151C27.6514 21.1374 27.8143 20.9959 27.9095 20.8169C28.0047 20.6378 28.0256 20.4333 27.9684 20.2412ZM13.5316 4.53284C16.5585 3.68011 19.5252 2.65805 22.4149 1.47243C22.4435 1.4634 22.4738 1.45994 22.504 1.46228C22.5341 1.46463 22.5633 1.47273 22.5898 1.48605C22.6163 1.49937 22.6395 1.51762 22.6578 1.53963C22.6761 1.56164 22.6892 1.58691 22.6961 1.61381C22.6961 1.61381 22.7242 1.75914 22.7821 2.05228C19.944 3.00042 17.0506 3.80396 14.1151 4.45919C13.6284 4.56893 13.152 4.67422 12.6815 4.77408C12.9611 4.69597 13.2444 4.6154 13.5316 4.53284ZM14.9804 22.9166C11.8392 23.8174 8.77018 24.9163 5.79537 26.2054C5.76713 26.2153 5.7369 26.2195 5.70671 26.2178C5.67652 26.2161 5.64707 26.2085 5.62037 26.1956C5.59366 26.1826 5.57031 26.1645 5.55189 26.1426C5.53348 26.1207 5.52042 26.0954 5.51361 26.0684C5.53627 25.9083 5.54008 25.7464 5.52497 25.5855C8.42727 24.5673 11.3937 23.7089 14.4083 23.0149C14.7868 22.925 15.1556 22.8399 15.5169 22.7584C15.3395 22.8093 15.1611 22.8622 14.9804 22.9166ZM25.3845 20.8112C22.0136 21.1208 18.6683 21.6294 15.3693 22.3337C12.1505 22.957 8.98307 23.7844 5.89001 24.8099C5.86077 24.8166 5.83031 24.8176 5.80059 24.813C5.77087 24.8083 5.74255 24.798 5.71745 24.7827C5.69234 24.7675 5.67101 24.7476 5.65481 24.7243C5.63861 24.7011 5.62791 24.675 5.62339 24.6477C5.62339 24.6477 6.02305 23.5938 4.99281 16.2614C4.86194 15.331 4.74891 14.5604 4.61966 13.7991C4.40333 13.852 4.2465 13.8891 4.2465 13.8891C4.23677 13.892 4.22703 13.894 4.21567 13.8965L4.15132 13.9113C3.87269 13.9778 3.58757 14.019 3.30009 14.0344H3.28927C3.1081 14.0344 2.53863 13.9637 2.44507 13.5994C2.40799 13.4148 2.44471 13.2241 2.54854 13.0621C2.65238 12.9002 2.81641 12.7777 3.01076 12.717C3.23662 12.612 3.46841 12.5179 3.70515 12.4352C2.27959 8.3046 1.4143 7.34065 1.4143 7.34065C1.3375 7.22596 1.45107 7.10139 1.57654 7.06036C1.57654 7.06036 1.71769 7.02724 1.97349 6.96496C2.1525 7.31099 2.90746 8.73813 3.86631 12.3819C4.02856 12.3265 4.19512 12.2736 4.35304 12.2251C3.56238 8.13702 2.88691 7.1182 2.88691 7.1182C2.87961 7.05995 2.8961 7.00128 2.93324 6.95347C2.97037 6.90566 3.02552 6.87208 3.08809 6.85917C3.08809 6.85917 7.93696 6.34556 13.4543 5.217C16.5475 4.60309 19.5965 3.81612 22.5842 2.86052C22.6134 2.85388 22.6439 2.8529 22.6735 2.85764C22.7032 2.86238 22.7315 2.87274 22.7566 2.88805C22.7816 2.90336 22.8029 2.92329 22.819 2.94655C22.8351 2.96982 22.8458 2.99591 22.8502 3.02315C22.8502 3.02315 23.0666 5.1646 23.6074 10.1415H23.6166C23.7992 10.1053 23.9891 10.1151 24.1661 10.1699C24.343 10.2246 24.5004 10.3223 24.6214 10.4525C24.7316 10.6087 24.8065 10.7836 24.8416 10.9667C24.8767 11.1498 24.8713 11.3375 24.8258 11.5187C24.7007 11.9996 24.4176 12.4339 24.0146 12.7635L24.0043 12.7724C23.9713 12.802 23.9383 12.8292 23.9059 12.8569C24.1999 15.465 24.7612 18.042 25.5824 20.5542C25.5894 20.6117 25.5731 20.6696 25.5367 20.7169C25.5002 20.7643 25.4461 20.7978 25.3845 20.8112ZM26.6683 20.7899C26.6683 20.7899 26.5434 20.8142 26.3082 20.8626C25.3751 18.376 24.6643 15.8243 24.1828 13.2326C24.8312 15.7249 25.7179 18.1603 26.8327 20.5107C26.848 20.5676 26.8397 20.6277 26.8093 20.6794C26.7789 20.7311 26.7287 20.7701 26.6683 20.7899Z" fill="white"/>
<path d="M13.7498 13.2976C13.9855 13.3661 14.225 13.4194 14.4671 13.457C14.4671 13.457 15.3174 13.5373 14.8127 14.2592C14.5807 14.5849 14.3067 14.8768 13.9984 15.1268C13.8823 15.2234 13.7416 15.2835 13.5931 15.2999C13.4445 15.3163 13.2946 15.2883 13.1611 15.2193C13.0926 15.1885 12.9611 15.1494 13.0111 15.3124C13.1437 15.5652 13.3384 15.778 13.5758 15.9295C13.6473 15.9624 13.8694 16.1506 14.6041 15.7315C15.1433 15.3705 15.5885 14.8796 15.9011 14.3014C15.9456 14.1734 16.2082 13.5522 15.6375 13.3419C15.4649 13.2693 15.0053 13.1675 14.8832 13.1362C14.6592 13.0719 13.9969 12.9536 14.4201 12.3427C14.7717 11.9716 15.2407 11.7419 15.7425 11.6948C15.7425 11.6948 15.8051 11.7153 15.7926 11.6202C15.7926 11.5088 15.7659 11.3991 15.7148 11.3008C15.6637 11.2026 15.5897 11.1189 15.4995 11.0571C15.4299 11.0205 15.3531 11.0009 15.275 11C15.1968 10.9991 15.1196 11.0169 15.0493 11.052C14.4062 11.2925 13.8602 11.7479 13.4988 12.3453C13.4657 12.4188 13.1516 13.1094 13.7498 13.2976Z" fill="white"/>
<path d="M23.1176 10.0157C22.592 10.1048 22.1054 10.3694 21.726 10.7724C21.3466 11.1754 21.0933 11.6966 21.0016 12.263C21.0016 12.263 20.9285 13.0617 21.7738 12.9962C22.3488 12.9469 22.8893 12.6803 23.3004 12.2431C23.6178 11.9294 23.8447 11.5234 23.9539 11.0738C23.9996 10.9408 24.0116 10.797 23.9886 10.6573C23.9657 10.5176 23.9086 10.387 23.8234 10.2792C23.7381 10.1713 23.6277 10.09 23.5036 10.0436C23.3795 9.99732 23.2463 9.98766 23.1176 10.0157ZM22.9576 11.3585C22.8444 11.7888 22.6109 12.1707 22.2892 12.4521C21.9373 12.6959 21.9239 12.3844 21.913 12.2909C21.9107 12.1629 21.9174 12.0349 21.9329 11.908C22.0229 11.391 22.2749 10.9232 22.6465 10.5834C22.9332 10.3718 22.9879 10.5447 23.0251 10.6173C23.0663 10.866 23.0429 11.1222 22.9576 11.3574V11.3585Z" fill="white"/>
<path d="M21.5665 10.7496C21.6003 10.7783 21.6393 10.8273 21.7352 10.7543C21.8231 10.6892 21.8928 10.6059 21.9387 10.5112C21.9845 10.4164 22.0052 10.313 21.9989 10.2095C21.9784 10.1393 21.9594 9.96729 21.5696 10.0055C21.4541 10.0234 20.9109 10.0564 20.2276 10.8764C20.1586 10.7576 20.0511 10.6615 19.9199 10.6014C19.7887 10.5414 19.6404 10.5203 19.4956 10.5413C19.3321 10.5696 19.1787 10.6343 19.0488 10.7298C19.0252 10.7519 18.9411 10.8443 19.0699 10.858C19.1473 10.8693 19.5223 10.8947 19.5449 11.2317C19.5506 11.7392 19.4684 12.2442 19.3012 12.7279C19.2786 12.7925 19.1986 13.0131 19.4859 12.9994C19.7563 12.9957 20.0242 12.952 20.2794 12.8698C20.3559 12.8307 20.4672 12.8123 20.4544 12.6172C20.4619 12.1972 20.4376 11.7772 20.3815 11.3603C20.5119 11.0835 20.7394 10.8547 21.0279 10.7105C21.1076 10.656 21.2061 10.6299 21.3052 10.6371C21.4042 10.6443 21.4971 10.6843 21.5665 10.7496Z" fill="white"/>
<path d="M9.54067 14.1959C9.32722 13.5 9.1704 12.789 9.07166 12.0693C9.52452 11.9825 9.98204 11.9205 10.4421 11.8835C10.1538 12.1799 9.93093 12.5305 9.7873 12.9135C9.72435 13.0487 9.70392 13.199 9.72855 13.3455C9.75319 13.4919 9.8218 13.6281 9.9258 13.7369C10.0298 13.8456 10.1646 13.9222 10.3132 13.957C10.4619 13.9918 10.6178 13.9833 10.7614 13.9325C11.1652 13.801 11.5162 13.5499 11.765 13.2145C11.8416 13.4251 11.9979 13.5996 12.2021 13.7026C12.4064 13.8055 12.6434 13.8292 12.865 13.7688C12.9486 13.7467 13.0714 13.7312 12.9471 13.6306C12.8857 13.594 12.5859 13.4428 12.5983 12.8494C12.6289 12.4609 12.6835 12.0744 12.7618 11.6922C12.7706 11.6321 12.7871 11.4183 12.5436 11.4699C12.3247 11.529 12.1181 11.6247 11.9332 11.7528C11.8875 11.7843 11.8494 11.8251 11.8215 11.8723C11.7936 11.9195 11.7766 11.972 11.7717 12.0262C11.6037 12.5855 11.2844 13.0909 10.8471 13.4899C10.7516 13.5469 10.5726 13.6671 10.5612 13.4213C10.5504 13.2881 10.6644 12.5435 11.6221 11.7263C11.7767 11.5989 11.9475 11.4914 12.1303 11.4063C12.2247 11.3913 12.332 11.2756 12.1489 11.229C11.7088 11.1855 11.2645 11.2071 10.8311 11.2931C10.732 11.3066 9.90236 11.4118 9.01851 11.5936C8.95831 10.9021 8.94762 10.2074 8.98652 9.51451C9.00045 9.38532 9.14131 8.93165 8.67075 9.00876C8.39694 9.03689 8.13049 9.11218 7.88391 9.23109C7.82044 9.26714 7.73479 9.29368 7.83231 9.35878C7.87681 9.4065 7.9109 9.46246 7.93254 9.5233C7.95417 9.58414 7.96291 9.6486 7.95821 9.7128C7.96904 9.80594 8.15015 11.7823 8.15015 11.7823L6.94743 12.0828C6.94743 12.0828 6.72092 10.4304 6.70957 9.73283C6.70132 9.61716 6.77252 9.13194 6.23385 9.31421C5.85266 9.40233 5.49169 9.55855 5.16942 9.77489C5.16942 9.77489 4.94962 9.90007 5.17458 9.95115C5.22766 9.97623 5.27296 10.0145 5.30585 10.0621C5.33875 10.1097 5.35808 10.1649 5.36187 10.222C5.38509 10.3342 5.65803 11.8064 5.65803 11.8064C4.89403 12.0082 4.14796 12.2693 3.427 12.587C3.15561 12.7192 2.54986 13.3196 3.57096 13.3196C3.86073 13.3024 4.14781 13.2556 4.42746 13.1799L5.80405 12.8259L6.03314 14.3071C6.03314 14.3071 6.07648 14.5524 6.10125 14.6325C6.10125 14.6325 6.15285 15.0522 6.50112 14.9946C6.74872 14.9873 6.99409 14.9467 7.23018 14.8739C7.28539 14.8509 7.42883 14.8178 7.36227 14.6115C7.35298 14.5089 7.01451 12.5264 7.01451 12.5264L8.21206 12.2375L8.53557 14.233C8.53557 14.233 8.59491 14.6901 8.96485 14.606C9.1561 14.5871 9.3431 14.5391 9.519 14.4638C9.55976 14.4317 9.65625 14.4017 9.54067 14.1959ZM4.07557 12.7383C3.92955 12.7498 3.97702 12.6381 4.05184 12.5945C4.56814 12.3311 5.11544 12.1293 5.68177 11.9937L5.74111 12.3862C5.19843 12.5536 4.64083 12.6715 4.07557 12.7383Z" fill="white"/>
<path d="M15.0804 9.34707C15.2512 9.44347 15.3743 9.59814 15.4233 9.77779C15.6794 10.5223 15.8637 11.2864 15.9741 12.0611C16.0543 12.5879 16.1057 13.1181 16.1282 13.6496C16.1405 13.7342 16.1282 14.1094 16.7198 13.9688C17.5414 13.6314 18.2365 13.0761 18.7174 12.373C18.802 12.2796 19.5982 11.0238 18.0719 11.0393C17.6661 11.0858 17.2807 11.2306 16.9546 11.4592C16.8862 10.7319 16.7638 10.0099 16.5882 9.29829C16.5153 9.16596 16.4615 8.95734 15.9802 9.00768C15.6561 9.04252 15.34 9.12503 15.0439 9.2521C15.0439 9.2521 14.924 9.30503 15.0804 9.34707ZM17.3625 11.6564C18.0377 11.4332 17.8719 12.3715 17.7486 12.5713C17.6396 12.8703 17.4298 13.129 17.1502 13.3092L16.9899 11.851C17.1069 11.775 17.2317 11.7098 17.3625 11.6564Z" fill="white"/>
<path d="M18.5436 14.4109C18.5979 14.6006 18.6356 14.7935 18.6562 14.988C18.7987 15.8231 18.6956 16.6753 18.3561 17.4678C18.1768 17.8601 17.9003 18.2147 17.5458 18.5073C17.1912 18.7999 16.7669 19.0236 16.3018 19.1632C15.0876 19.5456 13.749 19.5217 12.5545 19.0963C12.4807 19.0713 10.6403 18.4519 10.2834 17.4847C11.3577 17.5533 12.4379 17.4754 13.4834 17.2538C14.532 17.0468 15.5198 16.6587 16.3862 16.1135C17.2527 15.5993 17.9711 14.9237 18.4873 14.1377C18.4958 14.1185 18.5036 14.1084 18.5065 14.0978C18.5442 14.0463 18.4738 13.9242 18.364 14.067C17.2075 15.36 15.5675 16.2757 13.7171 16.6618C12.2303 17.0129 10.6611 17.0205 9.16979 16.6839C9.01778 16.6531 8.9947 16.6242 9.00089 16.6973C9.0683 17.1239 9.23506 17.5345 9.4913 17.9051C9.74754 18.2757 10.0881 18.5986 10.4928 18.8549C11.5592 19.5529 12.8531 19.9505 14.1956 19.9928C15.2204 20.0431 16.2391 19.8282 17.1187 19.3763C17.7182 19.0663 18.2008 18.6155 18.5087 18.0777C18.8655 17.4862 19.0331 16.8247 18.9946 16.1601C18.9907 15.5596 18.8901 14.9625 18.6956 14.3854C18.6877 14.3022 18.5217 14.282 18.5436 14.4109Z" fill="white"/>
</g>
<defs>
<clipPath id="clip0_158_517">
<rect width="28" height="28" fill="white"/>
</clipPath>
</defs>
</svg>
