<svg width="10" height="11" viewBox="0 0 10 11" fill="none" xmlns="http://www.w3.org/2000/svg">
<g clip-path="url(#clip0_158_826)">
<path d="M4.5 0.5C2.016 0.5 0 2.516 0 5C0 7.484 2.016 9.5 4.5 9.5C6.984 9.5 9 7.484 9 5C9 2.516 6.984 0.5 4.5 0.5ZM6.75 4.196L4.65 6.596C4.533 6.731 4.368 6.8 4.2 6.8C4.068 6.8 3.936 6.758 3.825 6.668L2.325 5.468C2.04126 5.24033 2.01876 4.80584 2.30145 4.55162C2.52378 4.35167 2.86788 4.36631 3.1014 4.55312L4.01469 5.28374C4.0764 5.33309 4.16601 5.32517 4.21812 5.26577L5.85 3.404C6.066 3.155 6.447 3.131 6.696 3.35C6.945 3.566 6.969 3.947 6.75 4.196Z" fill="white"/>
</g>
<defs>
<clipPath id="clip0_158_826">
<rect width="10" height="10" fill="white" transform="translate(0 0.5)"/>
</clipPath>
</defs>
</svg>
