<svg width="37" height="22" viewBox="0 0 37 22" fill="none" xmlns="http://www.w3.org/2000/svg">
<path d="M23 2H13V19H23V2Z" fill="#DCDCDC"/>
<path d="M14.5032 10.9975C14.5032 7.6379 16.1651 4.43105 18.9674 2.35423C13.8841 -1.40236 6.51979 -0.577745 2.51179 4.21726C-1.49622 8.98172 -0.61641 15.8841 4.4995 19.6407C8.76819 22.7864 14.7313 22.7864 19 19.6407C16.1651 17.5639 14.5032 14.357 14.5032 10.9975Z" fill="white"/>
<path d="M37 11.0013C37 17.0811 32.0206 22 25.866 22C23.3608 22 20.9485 21.1751 19 19.6475C23.8247 15.8896 24.6598 8.98484 20.8557 4.18817C20.299 3.51603 19.6804 2.87443 19 2.35505C23.8247 -1.40285 30.8454 -0.577945 34.6186 4.21872C36.1649 6.1435 37 8.52656 37 11.0013Z" fill="#626262"/>
<path d="M36.2333 17.4276V17.0611H36.4V17H36V17.0611H36.1667V17.4276H36.2333ZM37 17.4276V17H36.8667L36.7333 17.3054L36.6 17H36.4667V17.4276H36.5667V17.0916L36.7 17.3665H36.8L36.9333 17.0916V17.4276H37Z" fill="#F79E1B"/>
</svg>
