<svg width="29" height="29" viewBox="0 0 29 29" fill="none" xmlns="http://www.w3.org/2000/svg">
<path d="M28.7664 10.1647C28.4224 7.48093 27.4591 5.038 25.7735 3.24882C23.9846 1.56285 21.542 0.599442 18.8587 0.255368C16.2786 -0.0887067 14.5241 0.0145156 14.5241 0.0145156C14.5241 0.0145156 12.7696 -0.0542993 10.1894 0.255368C7.5061 0.599442 5.06358 1.56285 3.27468 3.24882C1.589 5.038 0.625746 7.48093 0.281728 10.1647C-0.0622896 12.7453 0.00651395 14.5001 0.00651395 14.5001C0.00651395 14.5001 -0.0622896 16.2548 0.247326 18.8354C0.591344 21.5188 1.55459 23.9621 3.24028 25.7513C5.02917 27.4373 7.4717 28.4003 10.155 28.7444C12.7352 29.0885 14.4897 28.9856 14.4897 28.9856C14.4897 28.9856 16.2442 29.0541 18.8243 28.7444C21.5076 28.4003 23.9502 27.4373 25.739 25.7513C27.4247 23.9624 28.388 21.5188 28.732 18.8354C29.076 16.2548 28.9728 14.5001 28.9728 14.5001C28.9728 14.5001 29.1104 12.7453 28.7664 10.1647Z" fill="white"/>
<path d="M5 10H7.64954C8.06789 10 8.41651 10.0662 8.76514 10.1987C9.11376 10.3311 9.39266 10.5298 9.6367 10.7616C9.88073 10.9934 10.0899 11.2583 10.2294 11.5894C10.3688 11.9205 10.4385 12.2517 10.4385 12.6159C10.4385 12.9801 10.3688 13.3113 10.2294 13.6424C10.0899 13.9735 9.88073 14.2387 9.6367 14.4702C9.39266 14.7017 9.0789 14.901 8.76514 15.0328C8.45138 15.1652 8.06789 15.2321 7.64954 15.2321H6.46422V17.3179H5.03486V10H5ZM6.42936 11.2586V13.9407H7.54495C7.75413 13.9407 7.9633 13.9076 8.13761 13.8414C8.31193 13.7752 8.45138 13.6758 8.59083 13.5434C8.73028 13.4109 8.8 13.2785 8.86972 13.1129C8.93945 12.9474 8.97431 12.7818 8.97431 12.5831C8.97431 12.3844 8.93945 12.2189 8.86972 12.0533C8.8 11.8877 8.69541 11.7553 8.59083 11.6228C8.45138 11.4904 8.31193 11.3911 8.13761 11.3248C7.9633 11.2586 7.75413 11.2255 7.54495 11.2255H6.42936V11.2586ZM13.7505 17.3179C13.367 17.3179 13.0183 17.252 12.6349 17.1192C12.2862 16.9868 11.9376 16.7881 11.6587 16.5566C11.3798 16.2914 11.1358 15.9934 10.9615 15.6291C10.7872 15.2649 10.6826 14.8344 10.6826 14.3709C10.6826 13.9073 10.7523 13.4768 10.9266 13.1126C11.1009 12.7483 11.345 12.4503 11.6239 12.1854C11.9028 11.9205 12.2514 11.755 12.6 11.6225C12.9835 11.4901 13.3321 11.4238 13.7505 11.4238C14.1688 11.4238 14.5523 11.4901 14.8661 11.6225C15.2147 11.755 15.4936 11.9536 15.7376 12.1854V11.4238H17.167V17.3175H15.7376V16.4897C15.5284 16.755 15.2147 16.9533 14.8661 17.1189C14.5174 17.252 14.1688 17.3179 13.7505 17.3179ZM13.9945 16.093C14.2734 16.093 14.5174 16.0599 14.7266 15.9606C14.9358 15.8613 15.145 15.7619 15.3193 15.5964C15.4936 15.4308 15.5982 15.2652 15.7028 15.0666C15.8073 14.8672 15.8422 14.6358 15.8422 14.4043C15.8422 14.1722 15.8073 13.9404 15.7028 13.7421C15.5982 13.5434 15.4936 13.3447 15.3193 13.2123C15.145 13.0467 14.9706 12.9474 14.7266 12.848C14.4826 12.7156 14.2385 12.6825 13.9945 12.6825C13.7505 12.6825 13.5064 12.7156 13.2624 12.8149C13.0183 12.9142 12.844 13.0136 12.6697 13.1791C12.4954 13.3447 12.356 13.5103 12.2862 13.7089C12.1817 13.9076 12.1468 14.1394 12.1468 14.3712C12.1468 14.603 12.1817 14.8344 12.2862 15.0331C12.3908 15.2325 12.5303 15.4308 12.6697 15.5964C12.844 15.7619 13.0532 15.8609 13.2624 15.9606C13.4716 16.0265 13.7156 16.093 13.9945 16.093ZM19.1541 11.457L20.8972 15.4636L22.5009 11.457H24L20.3395 20H18.8752L20.1651 17.0533L17.655 11.457H19.1541Z" fill="#282828"/>
</svg>
