<svg width="94" height="15" viewBox="0 0 94 15" fill="none" xmlns="http://www.w3.org/2000/svg">
<g clip-path="url(#clip0_158_754)">
<path d="M7 11.3871L10.3949 13.3821C11.0166 13.7477 11.7774 13.2073 11.6138 12.5237L10.7139 8.77214L13.7162 6.2446C14.2643 5.7836 13.9698 4.90929 13.2499 4.85365L9.29871 4.52778L7.7526 0.982856C7.47447 0.339048 6.52553 0.339048 6.2474 0.982856L4.70129 4.51983L0.750115 4.84571C0.0302327 4.90134 -0.264264 5.77565 0.283828 6.23665L3.28606 8.76419L2.38621 12.5158C2.2226 13.1993 2.98339 13.7398 3.6051 13.3742L7 11.3871Z" fill="#E6DB6E"/>
</g>
<g clip-path="url(#clip1_158_754)">
<path d="M27 11.3871L30.3949 13.3821C31.0166 13.7477 31.7774 13.2073 31.6138 12.5237L30.7139 8.77214L33.7162 6.2446C34.2643 5.7836 33.9698 4.90929 33.2499 4.85365L29.2987 4.52778L27.7526 0.982856C27.4745 0.339048 26.5255 0.339048 26.2474 0.982856L24.7013 4.51983L20.7501 4.84571C20.0302 4.90134 19.7357 5.77565 20.2838 6.23665L23.2861 8.76419L22.3862 12.5158C22.2226 13.1993 22.9834 13.7398 23.6051 13.3742L27 11.3871Z" fill="#E6DB6E"/>
</g>
<g clip-path="url(#clip2_158_754)">
<path d="M47 11.3871L50.3949 13.3821C51.0166 13.7477 51.7774 13.2073 51.6138 12.5237L50.7139 8.77214L53.7162 6.2446C54.2643 5.7836 53.9698 4.90929 53.2499 4.85365L49.2987 4.52778L47.7526 0.982856C47.4745 0.339048 46.5255 0.339048 46.2474 0.982856L44.7013 4.51983L40.7501 4.84571C40.0302 4.90134 39.7357 5.77565 40.2838 6.23665L43.2861 8.76419L42.3862 12.5158C42.2226 13.1993 42.9834 13.7398 43.6051 13.3742L47 11.3871Z" fill="#E6DB6E"/>
</g>
<g clip-path="url(#clip3_158_754)">
<path d="M67 11.3871L70.3949 13.3821C71.0166 13.7477 71.7774 13.2073 71.6138 12.5237L70.7139 8.77214L73.7162 6.2446C74.2643 5.7836 73.9698 4.90929 73.2499 4.85365L69.2987 4.52778L67.7526 0.982856C67.4745 0.339048 66.5255 0.339048 66.2474 0.982856L64.7013 4.51983L60.7501 4.84571C60.0302 4.90134 59.7357 5.77565 60.2838 6.23665L63.2861 8.76419L62.3862 12.5158C62.2226 13.1993 62.9834 13.7398 63.6051 13.3742L67 11.3871Z" fill="#E6DB6E"/>
</g>
<g clip-path="url(#clip4_158_754)">
<path d="M87 11.3871L90.3949 13.3821C91.0166 13.7477 91.7774 13.2073 91.6138 12.5237L90.7139 8.77214L93.7162 6.2446C94.2643 5.7836 93.9698 4.90929 93.2499 4.85365L89.2987 4.52778L87.7526 0.982856C87.4745 0.339048 86.5255 0.339048 86.2474 0.982856L84.7013 4.51983L80.7501 4.84571C80.0302 4.90134 79.7357 5.77565 80.2838 6.23665L83.2861 8.76419L82.3862 12.5158C82.2226 13.1993 82.9834 13.7398 83.6051 13.3742L87 11.3871Z" fill="#E6DB6E"/>
</g>
<defs>
<clipPath id="clip0_158_754">
<rect width="14" height="14" fill="white" transform="translate(0 0.5)"/>
</clipPath>
<clipPath id="clip1_158_754">
<rect width="14" height="14" fill="white" transform="translate(20 0.5)"/>
</clipPath>
<clipPath id="clip2_158_754">
<rect width="14" height="14" fill="white" transform="translate(40 0.5)"/>
</clipPath>
<clipPath id="clip3_158_754">
<rect width="14" height="14" fill="white" transform="translate(60 0.5)"/>
</clipPath>
<clipPath id="clip4_158_754">
<rect width="14" height="14" fill="white" transform="translate(80 0.5)"/>
</clipPath>
</defs>
</svg>
