<svg width="94" height="14" viewBox="0 0 94 14" fill="none" xmlns="http://www.w3.org/2000/svg">
<g clip-path="url(#clip0_158_536)">
<path d="M7 10.8871L10.3949 12.8821C11.0166 13.2477 11.7774 12.7073 11.6138 12.0237L10.7139 8.27214L13.7162 5.7446C14.2643 5.2836 13.9698 4.40929 13.2499 4.35365L9.29871 4.02778L7.7526 0.482856C7.47447 -0.160952 6.52553 -0.160952 6.2474 0.482856L4.70129 4.01983L0.750115 4.34571C0.0302327 4.40134 -0.264264 5.27565 0.283828 5.73665L3.28606 8.26419L2.38621 12.0158C2.2226 12.6993 2.98339 13.2398 3.6051 12.8742L7 10.8871Z" fill="#F3D869"/>
</g>
<g clip-path="url(#clip1_158_536)">
<path d="M27 10.8871L30.3949 12.8821C31.0166 13.2477 31.7774 12.7073 31.6138 12.0237L30.7139 8.27214L33.7162 5.7446C34.2643 5.2836 33.9698 4.40929 33.2499 4.35365L29.2987 4.02778L27.7526 0.482856C27.4745 -0.160952 26.5255 -0.160952 26.2474 0.482856L24.7013 4.01983L20.7501 4.34571C20.0302 4.40134 19.7357 5.27565 20.2838 5.73665L23.2861 8.26419L22.3862 12.0158C22.2226 12.6993 22.9834 13.2398 23.6051 12.8742L27 10.8871Z" fill="#F3D869"/>
</g>
<g clip-path="url(#clip2_158_536)">
<path d="M47 10.8871L50.3949 12.8821C51.0166 13.2477 51.7774 12.7073 51.6138 12.0237L50.7139 8.27214L53.7162 5.7446C54.2643 5.2836 53.9698 4.40929 53.2499 4.35365L49.2987 4.02778L47.7526 0.482856C47.4745 -0.160952 46.5255 -0.160952 46.2474 0.482856L44.7013 4.01983L40.7501 4.34571C40.0302 4.40134 39.7357 5.27565 40.2838 5.73665L43.2861 8.26419L42.3862 12.0158C42.2226 12.6993 42.9834 13.2398 43.6051 12.8742L47 10.8871Z" fill="#F3D869"/>
</g>
<g clip-path="url(#clip3_158_536)">
<path d="M67 10.8871L70.3949 12.8821C71.0166 13.2477 71.7774 12.7073 71.6138 12.0237L70.7139 8.27214L73.7162 5.7446C74.2643 5.2836 73.9698 4.40929 73.2499 4.35365L69.2987 4.02778L67.7526 0.482856C67.4745 -0.160952 66.5255 -0.160952 66.2474 0.482856L64.7013 4.01983L60.7501 4.34571C60.0302 4.40134 59.7357 5.27565 60.2838 5.73665L63.2861 8.26419L62.3862 12.0158C62.2226 12.6993 62.9834 13.2398 63.6051 12.8742L67 10.8871Z" fill="#F3D869"/>
</g>
<g clip-path="url(#clip4_158_536)">
<path d="M87 10.8871L90.3949 12.8821C91.0166 13.2477 91.7774 12.7073 91.6138 12.0237L90.7139 8.27214L93.7162 5.7446C94.2643 5.2836 93.9698 4.40929 93.2499 4.35365L89.2987 4.02778L87.7526 0.482856C87.4745 -0.160952 86.5255 -0.160952 86.2474 0.482856L84.7013 4.01983L80.7501 4.34571C80.0302 4.40134 79.7357 5.27565 80.2838 5.73665L83.2861 8.26419L82.3862 12.0158C82.2226 12.6993 82.9834 13.2398 83.6051 12.8742L87 10.8871Z" fill="#F3D869"/>
</g>
<defs>
<clipPath id="clip0_158_536">
<rect width="14" height="14" fill="white"/>
</clipPath>
<clipPath id="clip1_158_536">
<rect width="14" height="14" fill="white" transform="translate(20)"/>
</clipPath>
<clipPath id="clip2_158_536">
<rect width="14" height="14" fill="white" transform="translate(40)"/>
</clipPath>
<clipPath id="clip3_158_536">
<rect width="14" height="14" fill="white" transform="translate(60)"/>
</clipPath>
<clipPath id="clip4_158_536">
<rect width="14" height="14" fill="white" transform="translate(80)"/>
</clipPath>
</defs>
</svg>
