<svg width="49" height="15" viewBox="0 0 49 15" fill="none" xmlns="http://www.w3.org/2000/svg">
<path d="M31.9257 0C28.451 0 25.3313 1.71176 25.3313 4.85294C25.3313 8.47059 30.8422 8.71765 30.8422 10.5176C30.8422 11.2765 29.9081 11.9647 28.3389 11.9647C26.0972 11.9647 24.4159 11.0118 24.4159 11.0118L23.7061 14.1882C23.7061 14.1882 25.6302 15 28.2082 15C32.0191 15 35.008 13.2176 35.008 10.0059C35.008 6.19412 29.4785 5.94706 29.4785 4.27059C29.4785 3.67059 30.2444 3.01765 31.8136 3.01765C33.5883 3.01765 35.0454 3.70588 35.0454 3.70588L35.7552 0.635294C35.7366 0.635294 34.1487 0 31.9257 0ZM0.0934045 0.229412L0 0.688235C0 0.688235 1.45711 0.935294 2.78345 1.44706C4.48342 2.02941 4.5955 2.36471 4.8944 3.40588L8.01411 14.7529H12.1986L18.6062 0.229412H14.4403L10.3119 10.1118L8.63058 1.72941C8.48113 0.776471 7.69653 0.229412 6.72512 0.229412H0.0934045ZM20.2875 0.229412L17.0183 14.7529H20.9973L24.2478 0.229412H20.2875ZM42.443 0.229412C41.4903 0.229412 40.9859 0.705882 40.6123 1.55294L34.7838 14.7529H38.9497L39.753 12.5471H44.8342L45.3199 14.7529H49L45.8056 0.229412H42.443ZM42.9848 4.16471L44.2177 9.61765H40.9112L42.9848 4.16471Z" fill="white"/>
</svg>
