<svg width="28" height="28" viewBox="0 0 28 28" fill="none" xmlns="http://www.w3.org/2000/svg">
<g style="mix-blend-mode:difference" clip-path="url(#clip0_158_449)">
<path d="M19.7865 16.3191C19.9706 17.2896 19.7137 18.2811 19.0634 19.1109C18.413 19.9407 17.4129 20.5531 16.2472 20.8351C15.4173 21.0695 15.248 21.3375 15.5088 22.0005C15.9408 23.1412 16.8104 24.1417 17.9924 24.8581C19.1743 25.5745 20.6076 25.9698 22.0859 25.987C23.7087 26.0103 25.3331 25.9954 26.9567 25.9947C27.6188 25.9947 28 25.7357 28 25.2987C28 24.8617 27.6148 24.5962 26.9567 24.5962C25.5674 24.5962 24.1774 24.6066 22.7881 24.5897C22.2267 24.5912 21.6663 24.5493 21.1148 24.4648C20.2894 24.3378 19.5161 24.0475 18.864 23.62C18.212 23.1926 17.7017 22.6412 17.3788 22.0154C17.5024 21.9578 17.5931 21.9131 17.6878 21.873C19.1142 21.3435 20.2691 20.4315 20.9558 19.2923C21.6425 18.1531 21.8187 16.8572 21.4542 15.625C21.3306 15.0941 21.0778 14.9128 20.4109 14.9089C19.0217 14.9024 17.6316 14.9089 16.2424 14.9089C16.0762 14.9089 15.9117 14.8973 15.7103 14.8895C15.7103 13.7623 15.7103 12.6687 15.7103 11.5752C15.7103 10.9322 15.3989 10.6778 14.6083 10.6745C13.7191 10.6707 12.8282 10.6745 11.9382 10.6791C10.8411 10.6791 10.4703 10.2258 10.9189 9.41782C12.4652 6.64583 14.0107 3.87276 15.5554 1.09861C15.6239 1.01299 15.6689 0.916498 15.6872 0.815654C15.7056 0.71481 15.6969 0.611962 15.6617 0.514061C15.6266 0.41616 15.5658 0.325486 15.4835 0.248165C15.4012 0.170844 15.2992 0.108678 15.1846 0.065868C15.0699 0.0230575 14.9452 0.000599609 14.8189 1.18434e-05C14.6925 -0.000575922 14.5675 0.0207201 14.4522 0.0624609C14.337 0.104202 14.2342 0.165415 14.1507 0.241965C14.0673 0.318514 14.0052 0.408617 13.9687 0.506185C12.3732 3.35501 10.7632 6.20383 9.21266 9.07337C9.00211 9.50343 8.94647 9.97274 9.05215 10.4272C9.16535 10.909 9.48976 11.3419 9.96606 11.6466C10.4424 11.9513 11.0387 12.1075 11.6461 12.0866C12.4037 12.0905 13.1621 12.0866 13.9438 12.0866V12.5586C13.9438 13.5538 13.939 14.5489 13.9438 15.5434C13.9283 15.6477 13.9422 15.7534 13.9844 15.8527C14.0266 15.952 14.096 16.0424 14.1875 16.1171C14.279 16.1918 14.3902 16.2488 14.5128 16.284C14.6354 16.3192 14.7663 16.3316 14.8957 16.3204C15.504 16.3262 16.1123 16.3204 16.7223 16.3204L19.7865 16.3191Z" fill="white"/>
<path d="M24.1182 26C23.4194 26 22.7151 26 22.0187 25.9866C20.5301 25.9723 19.0858 25.5732 17.8955 24.8471C16.7052 24.1211 15.8308 23.106 15.3994 21.9491C15.1139 21.2172 15.3205 20.8829 16.229 20.6255C17.3153 20.3638 18.2522 19.7979 18.8731 19.0283C19.494 18.2587 19.7588 17.3353 19.6203 16.4222H16.1904C15.7787 16.4222 15.3678 16.4222 14.9593 16.4222C14.8108 16.4324 14.6613 16.416 14.5215 16.3742C14.3816 16.3323 14.2548 16.2661 14.15 16.1801C14.0451 16.0941 13.9648 15.9905 13.9147 15.8765C13.8645 15.7626 13.8458 15.6411 13.8599 15.5206C13.8551 14.8205 13.8551 14.1208 13.8599 13.4215V12.2349H13.318C12.7959 12.2349 12.2801 12.2349 11.7667 12.2349C11.1316 12.2542 10.509 12.0882 10.0116 11.7671C9.51408 11.446 9.17458 10.9909 9.05447 10.4842C8.94457 10.0082 9.00169 9.51674 9.2193 9.06583C10.4346 6.80474 11.7084 4.51932 12.9387 2.30882L13.893 0.590106C13.9353 0.477097 14.0068 0.3727 14.1027 0.283854C14.1986 0.195008 14.3167 0.123747 14.4491 0.0748065C14.5815 0.0258661 14.7252 0.000367101 14.8707 3.93462e-06C15.0162 -0.000359231 15.1601 0.0244218 15.2929 0.0727002C15.4144 0.113552 15.5247 0.173586 15.6175 0.249323C15.7102 0.32506 15.7835 0.414992 15.8331 0.513904C15.8837 0.640558 15.9027 0.774101 15.8892 0.906781C15.8756 1.03946 15.8298 1.16864 15.7543 1.28681C14.5034 3.5494 13.251 5.81198 11.997 8.07457L11.1997 9.51472C11.1122 9.63337 11.0597 9.76678 11.046 9.90459C11.0323 10.0424 11.0579 10.1809 11.1208 10.3094C11.2393 10.4078 11.3841 10.4827 11.544 10.5283C11.7038 10.574 11.8745 10.5891 12.0428 10.5726H12.0522H12.7802C13.4111 10.5696 14.042 10.5696 14.673 10.5726C15.546 10.5764 15.9199 10.8838 15.9215 11.5972C15.9215 12.338 15.9215 13.0796 15.9215 13.832V14.7464H15.9569C16.0713 14.7522 16.1746 14.7573 16.2779 14.7573H17.767C18.6371 14.7573 19.5065 14.7573 20.3751 14.7573C20.5209 14.7401 20.6696 14.7483 20.8113 14.7813C20.9529 14.8144 21.0843 14.8715 21.1967 14.9489C21.3091 15.0262 21.3999 15.1222 21.4632 15.2302C21.5264 15.3383 21.5607 15.456 21.5636 15.5757C21.9324 16.8227 21.7565 18.1349 21.066 19.2883C20.3756 20.4417 19.2134 21.3648 17.778 21.8998C17.7252 21.9222 17.6723 21.9472 17.6132 21.9754C17.9276 22.5501 18.4097 23.0541 19.0177 23.4437C19.6257 23.8333 20.3415 24.0968 21.103 24.2115C21.6347 24.2919 22.1743 24.332 22.7151 24.3312C23.6678 24.3421 24.6205 24.3421 25.5725 24.3389H26.8099C27.119 24.3268 27.4235 24.4032 27.6703 24.5547C27.7787 24.6303 27.8645 24.7248 27.9215 24.8312C27.9785 24.9375 28.005 25.0529 27.9992 25.1688C27.9992 25.6779 27.5418 25.9936 26.8067 25.9936C26.3572 25.9936 25.9077 25.9936 25.4581 25.9936C25.0086 25.9936 24.5685 26 24.1182 26ZM19.7615 16.152H19.9027L19.9256 16.2653C20.1161 17.2568 19.8577 18.2707 19.1982 19.1193C18.5387 19.968 17.5228 20.5938 16.3387 20.881C15.6115 21.0878 15.4885 21.2819 15.718 21.8678C16.1292 22.9706 16.9625 23.9383 18.0971 24.6305C19.2316 25.3227 20.6083 25.7032 22.0274 25.717C23.1717 25.7336 24.3366 25.7323 25.4621 25.7272C25.9116 25.7272 26.3614 25.7272 26.8115 25.7272C27.1325 25.7272 27.6703 25.6548 27.6711 25.1727C27.6763 25.0965 27.6601 25.0204 27.6237 24.9501C27.5874 24.8798 27.5319 24.817 27.4613 24.7667C27.2735 24.6569 27.0449 24.6028 26.8138 24.6136H25.5788C24.6221 24.6136 23.6678 24.6181 22.7167 24.6059C22.154 24.6065 21.5926 24.5636 21.04 24.4779C20.2046 24.3466 19.422 24.0501 18.7616 23.6144C18.1013 23.1788 17.5835 22.6175 17.2543 21.9805L17.1912 21.8678L17.4381 21.7519C17.5067 21.7192 17.5682 21.6879 17.6305 21.6642C19.001 21.154 20.1109 20.2733 20.7704 19.1726C21.4299 18.0718 21.5983 16.8192 21.2466 15.6288C21.1393 15.162 20.9532 15.0333 20.3838 15.0314C19.5162 15.0314 18.6487 15.0314 17.7772 15.0314H16.2811C16.1707 15.0314 16.0611 15.0256 15.9396 15.0198L15.591 15.0058V13.8275C15.591 13.0751 15.591 12.3342 15.591 11.5927C15.591 11.0298 15.3544 10.8396 14.673 10.8358C14.042 10.8358 13.4111 10.8358 12.7802 10.8358H12.0506H12.0388C11.8152 10.8592 11.5878 10.8363 11.3781 10.7691C11.1683 10.7019 10.9829 10.5927 10.8392 10.4516C10.7378 10.2867 10.6899 10.1035 10.7 9.91945C10.7101 9.73535 10.7778 9.55638 10.8968 9.39946L11.6942 7.95994C12.9476 5.69736 14.2 3.43477 15.4514 1.17219C15.5648 0.999789 15.5903 0.79811 15.5224 0.610598C15.489 0.544726 15.4393 0.485083 15.3766 0.435316C15.3138 0.385549 15.2391 0.346705 15.1572 0.321158C14.7629 0.177718 14.4072 0.321158 14.1966 0.701528L13.2423 2.4196C12.012 4.62882 10.7391 6.91296 9.52609 9.17277C9.33131 9.57332 9.27992 10.0104 9.37782 10.4336C9.47973 10.8802 9.77787 11.2815 10.2168 11.563C10.6558 11.8445 11.2057 11.987 11.7644 11.9641C12.2778 11.9641 12.7896 11.9641 13.3141 11.9641H14.1887V13.4196C14.1887 14.1189 14.1887 14.8181 14.1887 15.5174C14.1739 15.6027 14.1835 15.6896 14.2168 15.7714C14.2502 15.8531 14.3063 15.9275 14.3809 15.9888C14.4555 16.05 14.5465 16.0965 14.6468 16.1244C14.7471 16.1524 14.8541 16.1612 14.9593 16.1501C15.3673 16.1522 15.7761 16.1522 16.1857 16.1501L19.7615 16.152Z" fill="white"/>
<path d="M2.59527 13.0027C2.18853 12.9982 1.93464 13.2184 1.74613 13.517C-0.961803 17.8512 -0.540627 21.9962 3.15316 25.9185C3.8426 26.5776 4.59552 27.1983 5.40595 27.7759C5.54886 27.8997 5.74955 27.9785 5.96741 27.9962C6.18528 28.0139 6.40405 27.9693 6.57947 27.8715C6.75411 27.7963 6.88671 27.6769 6.9531 27.535C7.0195 27.3931 7.01527 27.2382 6.94121 27.0984C6.84325 26.9317 6.6954 26.7839 6.50899 26.6663C4.72354 25.4736 3.3811 23.9579 2.61134 22.2658C1.84158 20.5737 1.67051 18.7623 2.11466 17.0066C2.35882 15.9776 2.81239 14.9824 3.4597 14.0554C3.55127 13.9468 3.60033 13.8213 3.60134 13.693C3.60236 13.5647 3.55529 13.4388 3.46545 13.3294C3.37561 13.22 3.24655 13.1314 3.09281 13.0737C2.93908 13.016 2.76676 12.9914 2.59527 13.0027Z" fill="white"/>
<path d="M5.92034 28C5.78144 27.9982 5.64454 27.9742 5.5184 27.9295C5.39226 27.8847 5.27965 27.8202 5.18777 27.7401C5.00341 27.5902 4.81502 27.4429 4.62662 27.2961C4.04466 26.8655 3.50973 26.3988 3.02726 25.9008C-0.489224 22.0494 -0.944451 17.907 1.67371 13.583C1.91062 13.1919 2.22192 13.001 2.62459 13.001C2.62944 13.001 2.63672 13.001 2.64157 13.001C2.82995 12.994 3.01746 13.0248 3.1858 13.0901C3.35415 13.1555 3.4976 13.2533 3.60216 13.374C3.69953 13.5031 3.75149 13.6494 3.75291 13.7985C3.75433 13.9477 3.70516 14.0946 3.61024 14.2247C3.00144 15.1229 2.57471 16.0875 2.34483 17.0849C1.93197 18.7899 2.09531 20.5478 2.8192 22.1903C3.54309 23.8328 4.80328 25.3048 6.47906 26.4654C6.67766 26.5942 6.83368 26.7575 6.93429 26.9417C7.01775 27.1071 7.02184 27.29 6.94582 27.4575C6.8698 27.625 6.71865 27.7662 6.51949 27.8557C6.34198 27.9472 6.13394 27.9972 5.92034 28ZM2.6254 13.2634C2.36181 13.2634 2.1637 13.3964 1.9842 13.6943C-0.578976 17.9225 -0.13426 21.981 3.30703 25.7497C3.77912 26.2347 4.30155 26.6895 4.86919 27.1096C5.06001 27.2582 5.24922 27.4068 5.43519 27.5567C5.54355 27.6564 5.69814 27.7199 5.86625 27.7336C6.03436 27.7473 6.20281 27.7101 6.33594 27.63C6.47005 27.572 6.57199 27.4783 6.62261 27.3666C6.67323 27.2548 6.66905 27.1327 6.61086 27.0232C6.52627 26.8793 6.40083 26.7518 6.24377 26.6501C4.52848 25.4617 3.23836 23.9548 2.49683 22.2735C1.75529 20.5921 1.58714 18.7926 2.00846 17.047C2.24299 16.0226 2.68068 15.0319 3.30622 14.1096C3.37399 14.0193 3.41013 13.917 3.41112 13.8127C3.41212 13.7084 3.37792 13.6057 3.31188 13.5146C3.23724 13.4323 3.13627 13.3661 3.01872 13.3226C2.90116 13.279 2.77099 13.2595 2.64076 13.2658H2.6254V13.2634Z" fill="white"/>
<path d="M4.00152 17.961C3.95098 20.4625 5.16331 22.8787 7.37537 24.6851C7.84457 25.056 8.34278 25.1008 8.73862 24.8113C8.82838 24.7386 8.89783 24.6521 8.94253 24.5572C8.98722 24.4624 9.00619 24.3613 8.99823 24.2605C8.99027 24.1596 8.95554 24.0611 8.89627 23.9713C8.837 23.8815 8.75448 23.8023 8.65397 23.7388C7.23462 22.6213 6.27901 21.1948 5.91197 19.6457C5.54493 18.0965 5.78353 16.4968 6.5966 15.0554C6.66096 14.9676 6.70054 14.8701 6.71269 14.7694C6.72484 14.6686 6.70927 14.567 6.66703 14.4714C6.62479 14.3758 6.55686 14.2883 6.46781 14.215C6.37876 14.1416 6.27066 14.084 6.15079 14.0461C6.03271 14.0107 5.9064 13.9954 5.7802 14.0012C5.654 14.0069 5.5308 14.0336 5.41875 14.0794C5.30671 14.1252 5.20838 14.1891 5.13028 14.2669C5.05217 14.3447 4.99608 14.4345 4.96571 14.5306C4.37192 15.6165 4.04482 16.7803 4.00152 17.961Z" fill="white"/>
<path d="M8.06505 25C7.90059 24.9918 7.73978 24.9569 7.59198 24.8975C7.44417 24.8381 7.31231 24.7553 7.20408 24.6539C5.11221 22.8613 3.96257 20.472 4.00093 17.9967C4.04312 16.8279 4.35359 15.6758 4.91622 14.6004C4.95267 14.4893 5.01771 14.3858 5.10699 14.2968C5.19628 14.2078 5.30777 14.1353 5.43405 14.0842C5.56033 14.0332 5.69849 14.0046 5.83934 14.0005C5.98018 13.9964 6.12049 14.0168 6.2509 14.0605C6.38132 14.1041 6.49886 14.1698 6.59569 14.2534C6.69253 14.337 6.76643 14.4364 6.8125 14.5452C6.85856 14.6539 6.87572 14.7693 6.86283 14.8839C6.84994 14.9984 6.80731 15.1094 6.73776 15.2094C5.99423 16.5947 5.7774 18.1303 6.11535 19.6173C6.4533 21.1043 7.33045 22.4742 8.63324 23.5497C8.74187 23.6242 8.83043 23.7163 8.89336 23.8201C8.95628 23.9239 8.9922 24.0372 8.99887 24.1529C9.00553 24.2686 8.98279 24.3841 8.93207 24.4923C8.88135 24.6005 8.80376 24.6989 8.70417 24.7814C8.53401 24.9192 8.3048 24.9977 8.06505 25ZM4.31936 17.9973C4.28099 20.404 5.39757 22.7274 7.43045 24.471C7.69455 24.689 8.09221 24.8873 8.48685 24.5886C8.77661 24.3663 8.7419 24.0344 8.39706 23.7265C7.0522 22.6161 6.14673 21.2019 5.79789 19.6668C5.44905 18.1317 5.6729 16.5465 6.44046 15.1165C6.62457 14.7297 6.50158 14.4243 6.11373 14.2999C5.72588 14.1755 5.40292 14.3239 5.20824 14.7026C4.66296 15.746 4.36149 16.8635 4.31936 17.9973Z" fill="white"/>
<path d="M9.44494 16.7673C9.47528 16.5957 9.40731 16.4228 9.25489 16.2838C9.10246 16.1448 8.87703 16.0501 8.6245 16.019C8.3799 15.9783 8.12133 16.0036 7.90417 16.0896C7.68701 16.1756 7.52853 16.3155 7.46268 16.4792C7.26854 16.9279 7.13162 17.387 7.05341 17.8514C6.78257 19.6013 7.54919 21.3524 9.18655 22.7239C9.30482 22.8362 9.47259 22.9205 9.66607 22.9649C9.85955 23.0093 10.0689 23.0116 10.2644 22.9715C10.4663 22.946 10.6492 22.8749 10.7829 22.77C10.9166 22.6651 10.9932 22.5327 11 22.3945C10.9919 22.1775 10.8868 21.9671 10.6982 21.7909C10.0161 21.1846 9.5301 20.4888 9.27138 19.7485C9.01266 19.0082 8.98697 18.2396 9.19598 17.4921C9.2667 17.2262 9.37798 16.9653 9.44494 16.7673Z" fill="white"/>
<path d="M9.88225 23C9.71461 22.9997 9.54947 22.971 9.40044 22.9163C9.2514 22.8616 9.12275 22.7824 9.02507 22.6852C7.51063 21.3377 6.80059 19.6194 7.04843 17.9016C7.12099 17.4466 7.24716 16.9967 7.42559 16.5568C7.49726 16.3684 7.66861 16.2071 7.90361 16.1069C8.1386 16.0067 8.41893 15.9754 8.68563 16.0195C8.95758 16.0539 9.20125 16.1603 9.36772 16.3174C9.53419 16.4746 9.61113 16.6708 9.58309 16.8667L9.57795 16.8955C9.55909 16.9535 9.53766 17.0177 9.51366 17.0843C9.46052 17.2371 9.3988 17.4114 9.35766 17.5874C9.17434 18.2903 9.19818 19.0128 9.42765 19.7088C9.65713 20.4048 10.0872 21.0591 10.6906 21.6302C10.8861 21.8222 10.9941 22.0525 11 22.2897C10.9937 22.451 10.9108 22.6061 10.7649 22.7294C10.619 22.8528 10.4187 22.9372 10.1968 22.9688C10.0943 22.989 9.98856 22.9994 9.88225 23ZM8.46191 16.2659C8.30672 16.2592 8.15316 16.2915 8.02789 16.3571C7.90262 16.4228 7.81356 16.5177 7.77617 16.6253C7.60246 17.0507 7.47972 17.4858 7.4093 17.926C7.17354 19.5781 7.85791 21.2301 9.3148 22.5257C9.40107 22.6132 9.52404 22.679 9.66604 22.7136C9.80803 22.7482 9.96175 22.7498 10.1051 22.7182C10.2502 22.7007 10.3826 22.6483 10.48 22.5696C10.5775 22.491 10.6343 22.3909 10.6408 22.2861C10.6326 22.105 10.5494 21.9297 10.4017 21.7824C9.76946 21.1837 9.31883 20.4978 9.07844 19.7682C8.83805 19.0387 8.81316 18.2814 9.00536 17.5446C9.04907 17.3612 9.1125 17.1779 9.16822 17.0226C9.19051 16.9615 9.21022 16.9058 9.22651 16.8533C9.24833 16.7213 9.19943 16.5883 9.08959 16.481C8.97975 16.3737 8.8171 16.2999 8.6342 16.2744C8.57719 16.2682 8.51957 16.2654 8.46191 16.2659Z" fill="white"/>
<path d="M22.0088 2.00004C21.613 1.99872 21.2255 2.08554 20.8955 2.2495C20.5655 2.41347 20.3077 2.6472 20.155 2.9211C20.0022 3.19499 19.9612 3.49674 20.0372 3.78811C20.1133 4.07948 20.3029 4.34738 20.582 4.55787C20.8612 4.76836 21.2174 4.91198 21.6055 4.97054C21.9936 5.02909 22.3961 4.99995 22.7621 4.88681C23.1281 4.77366 23.441 4.5816 23.6614 4.33494C23.8817 4.08829 23.9995 3.79814 23.9998 3.50124C24.0032 3.30407 23.954 3.10838 23.8553 2.92563C23.7565 2.74288 23.6102 2.57675 23.4248 2.43695C23.2394 2.29715 23.0186 2.1865 22.7755 2.11148C22.5324 2.03646 22.2717 1.99857 22.0088 2.00004Z" fill="white"/>
<path d="M22.0191 4.99999C21.4892 5.0015 20.9799 4.84635 20.6019 4.56826C20.2239 4.29017 20.0076 3.9116 20.0002 3.5148C19.9967 3.31675 20.0461 3.12018 20.1457 2.93668C20.2452 2.75318 20.3928 2.58647 20.5798 2.44637C20.7697 2.3037 20.9956 2.19075 21.2444 2.11412C21.4931 2.03749 21.7598 1.99871 22.0288 2.00003H22.0407C22.5648 2.00837 23.0637 2.17036 23.4301 2.45119C23.7964 2.73203 24.0011 3.10929 24 3.50191C23.9989 3.89452 23.7922 4.27115 23.4243 4.55086C23.0564 4.83057 22.5567 4.99103 22.0325 4.99776L22.0191 4.99999ZM22.0288 2.23771C21.8014 2.23642 21.576 2.26889 21.3655 2.33324C21.1551 2.39759 20.9637 2.49255 20.8025 2.61263C20.6451 2.7309 20.5209 2.87153 20.4371 3.02627C20.3533 3.181 20.3116 3.34672 20.3146 3.51368C20.3214 3.84843 20.5044 4.16763 20.8237 4.40194C21.143 4.63626 21.5728 4.76676 22.0198 4.7651H22.028C22.4756 4.76592 22.9052 4.63356 23.2224 4.39714C23.5396 4.16073 23.7185 3.83963 23.7195 3.50447C23.7206 3.16932 23.5439 2.84757 23.2282 2.61001C22.9125 2.37244 22.4838 2.23852 22.0362 2.23771H22.0288Z" fill="white"/>
<path d="M19.7842 16.318H16.7262C16.117 16.318 15.5078 16.3225 14.8994 16.318C14.77 16.3293 14.6391 16.3168 14.5164 16.2816C14.3938 16.2464 14.2826 16.1894 14.1911 16.1147C14.0996 16.04 14.0302 15.9497 13.988 15.8504C13.9458 15.7511 13.932 15.6453 13.9474 15.5411C13.9394 14.5467 13.9474 13.5516 13.9474 12.5565V12.0845C13.1665 12.0845 12.4072 12.0845 11.6495 12.0845C11.0418 12.1061 10.4448 11.9504 9.96782 11.6459C9.49083 11.3414 9.16577 10.9085 9.05215 10.4265C8.94647 9.97207 9.00211 9.5028 9.21268 9.07276C10.7602 6.20471 12.3703 3.35802 13.9659 0.506151C14.0024 0.40859 14.0645 0.318493 14.148 0.241949C14.2314 0.165404 14.3342 0.104195 14.4495 0.0624568C14.5648 0.0207187 14.6898 -0.000575883 14.8161 1.18426e-05C14.9425 0.000599569 15.0672 0.0230559 15.1819 0.0658636C15.2966 0.108671 15.3985 0.170833 15.4808 0.248148C15.5631 0.325464 15.6239 0.416132 15.6591 0.514027C15.6942 0.611921 15.7029 0.714762 15.6846 0.8156C15.6662 0.916437 15.6213 1.01292 15.5527 1.09854C14.0095 3.87293 12.4644 6.64646 10.9175 9.41913C10.4688 10.2239 10.8372 10.6822 11.9368 10.6803C12.827 10.6803 13.7179 10.6719 14.6072 10.6758C15.3978 10.6758 15.7076 10.9347 15.7092 11.5763C15.7092 12.6698 15.7092 13.7633 15.7092 14.8904C15.9115 14.8982 16.076 14.9099 16.2414 14.9099C17.6307 14.9099 19.0209 14.9099 20.4103 14.9099C21.0773 14.9099 21.3301 15.095 21.4537 15.6259C21.8182 16.858 21.642 18.1539 20.9552 19.293C20.2684 20.4321 19.1135 21.344 17.6869 21.8735C17.5922 21.9136 17.5015 21.9583 17.3779 22.0159C17.7008 22.6416 18.2112 23.1929 18.8633 23.6204C19.5154 24.0479 20.2888 24.3381 21.1142 24.4651C21.6658 24.5496 22.2262 24.5915 22.7877 24.59C24.177 24.6069 25.5672 24.5959 26.9566 24.5965C27.6131 24.5965 28 24.8555 28 25.299C28 25.7424 27.6179 25.9949 26.9566 25.9949C25.3328 25.9949 23.7083 26.0105 22.0854 25.9872C20.6074 25.9703 19.1741 25.5756 17.992 24.8599C16.8098 24.1442 15.9397 23.1443 15.507 22.0043C15.2453 21.3387 15.4155 21.0707 16.2454 20.8389C17.4123 20.5566 18.4133 19.9435 19.0637 19.1126C19.7141 18.2817 19.97 17.2892 19.7842 16.318Z" fill="white"/>
<path d="M24.1182 26C23.4194 26 22.7151 26 22.0187 25.9866C20.5301 25.9723 19.0858 25.5732 17.8955 24.8471C16.7052 24.1211 15.8308 23.106 15.3994 21.9491C15.1139 21.2172 15.3205 20.8829 16.229 20.6255C17.3153 20.3638 18.2522 19.7979 18.8731 19.0283C19.494 18.2587 19.7588 17.3353 19.6203 16.4222H16.1904C15.7787 16.4222 15.3678 16.4222 14.9593 16.4222C14.8108 16.4324 14.6613 16.416 14.5215 16.3742C14.3816 16.3323 14.2548 16.2661 14.15 16.1801C14.0451 16.0941 13.9648 15.9905 13.9147 15.8765C13.8645 15.7626 13.8458 15.6411 13.8599 15.5206C13.8551 14.8205 13.8551 14.1208 13.8599 13.4215V12.2349H13.318C12.7959 12.2349 12.2801 12.2349 11.7667 12.2349C11.1316 12.2542 10.509 12.0882 10.0116 11.7671C9.51408 11.446 9.17458 10.9909 9.05447 10.4842C8.94457 10.0082 9.00169 9.51674 9.2193 9.06583C10.4346 6.80474 11.7084 4.51932 12.9387 2.30882L13.893 0.590106C13.9353 0.477097 14.0068 0.3727 14.1027 0.283854C14.1986 0.195008 14.3167 0.123747 14.4491 0.0748065C14.5815 0.0258661 14.7252 0.000367101 14.8707 3.93462e-06C15.0162 -0.000359231 15.1601 0.0244218 15.2929 0.0727002C15.4144 0.113552 15.5247 0.173586 15.6175 0.249323C15.7102 0.32506 15.7835 0.414992 15.8331 0.513904C15.8837 0.640558 15.9027 0.774101 15.8892 0.906781C15.8756 1.03946 15.8298 1.16864 15.7543 1.28681C14.5034 3.5494 13.251 5.81198 11.997 8.07457L11.1997 9.51472C11.1122 9.63337 11.0597 9.76678 11.046 9.90459C11.0323 10.0424 11.0579 10.1809 11.1208 10.3094C11.2393 10.4078 11.3841 10.4827 11.544 10.5283C11.7038 10.574 11.8745 10.5891 12.0428 10.5726H12.0522H12.7802C13.4111 10.5696 14.042 10.5696 14.673 10.5726C15.546 10.5764 15.9199 10.8838 15.9215 11.5972C15.9215 12.338 15.9215 13.0796 15.9215 13.832V14.7464H15.9569C16.0713 14.7522 16.1746 14.7573 16.2779 14.7573H17.767C18.6371 14.7573 19.5065 14.7573 20.3751 14.7573C20.5209 14.7401 20.6696 14.7483 20.8113 14.7813C20.9529 14.8144 21.0843 14.8715 21.1967 14.9489C21.3091 15.0262 21.3999 15.1222 21.4632 15.2302C21.5264 15.3383 21.5607 15.456 21.5636 15.5757C21.9324 16.8227 21.7565 18.1349 21.066 19.2883C20.3756 20.4417 19.2134 21.3648 17.778 21.8998C17.7252 21.9222 17.6723 21.9472 17.6132 21.9754C17.9276 22.5501 18.4097 23.0541 19.0177 23.4437C19.6257 23.8333 20.3415 24.0968 21.103 24.2115C21.6347 24.2919 22.1743 24.332 22.7151 24.3312C23.6678 24.3421 24.6205 24.3421 25.5725 24.3389H26.8099C27.119 24.3268 27.4235 24.4032 27.6703 24.5547C27.7787 24.6303 27.8645 24.7248 27.9215 24.8312C27.9785 24.9375 28.005 25.0529 27.9992 25.1688C27.9992 25.6779 27.5418 25.9936 26.8067 25.9936C26.3572 25.9936 25.9077 25.9936 25.4581 25.9936C25.0086 25.9936 24.5685 26 24.1182 26ZM19.7615 16.152H19.9027L19.9256 16.2653C20.1161 17.2568 19.8577 18.2707 19.1982 19.1193C18.5387 19.968 17.5228 20.5938 16.3387 20.881C15.6115 21.0878 15.4885 21.2819 15.718 21.8678C16.1292 22.9706 16.9625 23.9383 18.0971 24.6305C19.2316 25.3227 20.6083 25.7032 22.0274 25.717C23.1717 25.7336 24.3366 25.7323 25.4621 25.7272C25.9116 25.7272 26.3614 25.7272 26.8115 25.7272C27.1325 25.7272 27.6703 25.6548 27.6711 25.1727C27.6763 25.0965 27.6601 25.0204 27.6237 24.9501C27.5874 24.8798 27.5319 24.817 27.4613 24.7667C27.2735 24.6569 27.0449 24.6028 26.8138 24.6136H25.5788C24.6221 24.6136 23.6678 24.6181 22.7167 24.6059C22.154 24.6065 21.5926 24.5636 21.04 24.4779C20.2046 24.3466 19.422 24.0501 18.7616 23.6144C18.1013 23.1788 17.5835 22.6175 17.2543 21.9805L17.1912 21.8678L17.4381 21.7519C17.5067 21.7192 17.5682 21.6879 17.6305 21.6642C19.001 21.154 20.1109 20.2733 20.7704 19.1726C21.4299 18.0718 21.5983 16.8192 21.2466 15.6288C21.1393 15.162 20.9532 15.0333 20.3838 15.0314C19.5162 15.0314 18.6487 15.0314 17.7772 15.0314H16.2811C16.1707 15.0314 16.0611 15.0256 15.9396 15.0198L15.591 15.0058V13.8275C15.591 13.0751 15.591 12.3342 15.591 11.5927C15.591 11.0298 15.3544 10.8396 14.673 10.8358C14.042 10.8358 13.4111 10.8358 12.7802 10.8358H12.0506H12.0388C11.8152 10.8592 11.5878 10.8363 11.3781 10.7691C11.1683 10.7019 10.9829 10.5927 10.8392 10.4516C10.7378 10.2867 10.6899 10.1035 10.7 9.91945C10.7101 9.73535 10.7778 9.55638 10.8968 9.39946L11.6942 7.95994C12.9476 5.69736 14.2 3.43477 15.4514 1.17219C15.5648 0.999789 15.5903 0.79811 15.5224 0.610598C15.489 0.544726 15.4393 0.485083 15.3766 0.435316C15.3138 0.385549 15.2391 0.346705 15.1572 0.321158C14.7629 0.177718 14.4072 0.321158 14.1966 0.701528L13.2423 2.4196C12.012 4.62882 10.7391 6.91296 9.52609 9.17277C9.33131 9.57332 9.27992 10.0104 9.37782 10.4336C9.47973 10.8802 9.77787 11.2815 10.2168 11.563C10.6558 11.8445 11.2057 11.987 11.7644 11.9641C12.2778 11.9641 12.7896 11.9641 13.3141 11.9641H14.1887V13.4196C14.1887 14.1189 14.1887 14.8181 14.1887 15.5174C14.1739 15.6027 14.1835 15.6896 14.2168 15.7714C14.2502 15.8531 14.3063 15.9275 14.3809 15.9888C14.4555 16.05 14.5465 16.0965 14.6468 16.1244C14.7471 16.1524 14.8541 16.1612 14.9593 16.1501C15.3673 16.1522 15.7761 16.1522 16.1857 16.1501L19.7615 16.152Z" fill="white"/>
<path d="M2.59507 13.0027C2.7667 12.9913 2.93918 13.0159 3.09306 13.0737C3.24694 13.1314 3.3761 13.2201 3.46598 13.3296C3.55586 13.4392 3.60289 13.5652 3.60175 13.6936C3.60061 13.822 3.55136 13.9476 3.45954 14.0563C2.8122 14.9835 2.35861 15.9789 2.11443 17.0081C1.67119 18.7636 1.84273 20.5746 2.6125 22.2664C3.38227 23.9581 4.72426 25.4734 6.50897 26.666C6.69539 26.7836 6.84324 26.9315 6.9412 27.0982C7.01527 27.238 7.0195 27.393 6.9531 27.5349C6.8867 27.6768 6.7541 27.7963 6.57945 27.8714C6.40402 27.9693 6.18524 28.0139 5.96737 27.9962C5.74949 27.9784 5.5488 27.8997 5.40588 27.7759C4.59557 27.1992 3.84262 26.5793 3.15299 25.9213C-0.540968 21.9981 -0.962164 17.8522 1.74759 13.519C1.93441 13.2185 2.18831 12.9983 2.59507 13.0027Z" fill="white"/>
<path d="M5.92034 28C5.78144 27.9982 5.64454 27.9742 5.5184 27.9295C5.39226 27.8847 5.27965 27.8202 5.18777 27.7401C5.00341 27.5902 4.81502 27.4429 4.62662 27.2961C4.04466 26.8655 3.50973 26.3988 3.02726 25.9008C-0.489224 22.0494 -0.944451 17.907 1.67371 13.583C1.91062 13.1919 2.22192 13.001 2.62459 13.001C2.62944 13.001 2.63672 13.001 2.64157 13.001C2.82995 12.994 3.01746 13.0248 3.1858 13.0901C3.35415 13.1555 3.4976 13.2533 3.60216 13.374C3.69953 13.5031 3.75149 13.6494 3.75291 13.7985C3.75433 13.9477 3.70516 14.0946 3.61024 14.2247C3.00144 15.1229 2.57471 16.0875 2.34483 17.0849C1.93197 18.7899 2.09531 20.5478 2.8192 22.1903C3.54309 23.8328 4.80328 25.3048 6.47906 26.4654C6.67766 26.5942 6.83368 26.7575 6.93429 26.9417C7.01775 27.1071 7.02184 27.29 6.94582 27.4575C6.8698 27.625 6.71865 27.7662 6.51949 27.8557C6.34198 27.9472 6.13394 27.9972 5.92034 28ZM2.6254 13.2634C2.36181 13.2634 2.1637 13.3964 1.9842 13.6943C-0.578976 17.9225 -0.13426 21.981 3.30703 25.7497C3.77912 26.2347 4.30155 26.6895 4.86919 27.1096C5.06001 27.2582 5.24922 27.4068 5.43519 27.5567C5.54355 27.6564 5.69814 27.7199 5.86625 27.7336C6.03436 27.7473 6.20281 27.7101 6.33594 27.63C6.47005 27.572 6.57199 27.4783 6.62261 27.3666C6.67323 27.2548 6.66905 27.1327 6.61086 27.0232C6.52627 26.8793 6.40083 26.7518 6.24377 26.6501C4.52848 25.4617 3.23836 23.9548 2.49683 22.2735C1.75529 20.5921 1.58714 18.7926 2.00846 17.047C2.24299 16.0226 2.68068 15.0319 3.30622 14.1096C3.37399 14.0193 3.41013 13.917 3.41112 13.8127C3.41212 13.7084 3.37792 13.6057 3.31188 13.5146C3.23724 13.4323 3.13627 13.3661 3.01872 13.3226C2.90116 13.279 2.77099 13.2595 2.64076 13.2658H2.6254V13.2634Z" fill="white"/>
<path d="M4.00151 17.96C4.04593 16.7794 4.37409 15.616 4.96883 14.5305C4.9992 14.4345 5.05529 14.3446 5.13339 14.2668C5.21148 14.1891 5.3098 14.1252 5.42184 14.0794C5.53387 14.0336 5.65706 14.0069 5.78325 14.0012C5.90944 13.9954 6.03575 14.0107 6.15381 14.0461C6.27367 14.084 6.38177 14.1416 6.47081 14.2149C6.55985 14.2883 6.62777 14.3757 6.67001 14.4714C6.71224 14.567 6.72781 14.6686 6.71566 14.7693C6.70352 14.87 6.66394 14.9675 6.59959 15.0553C5.78636 16.4962 5.54735 18.0955 5.91378 19.6443C6.2802 21.1931 7.23503 22.6195 8.65355 23.7371C8.75411 23.8005 8.83669 23.8797 8.89602 23.9694C8.95536 24.0592 8.99016 24.1577 8.9982 24.2585C9.00624 24.3594 8.98734 24.4605 8.94271 24.5553C8.89809 24.6502 8.82871 24.7367 8.73899 24.8094C8.34158 25.1015 7.84502 25.0567 7.37587 24.6833C5.16371 22.8772 3.95119 20.4613 4.00151 17.96Z" fill="white"/>
<path d="M8.06505 25C7.90059 24.9918 7.73978 24.9569 7.59198 24.8975C7.44417 24.8381 7.31231 24.7553 7.20408 24.6539C5.11221 22.8613 3.96257 20.472 4.00093 17.9967C4.04312 16.8279 4.35359 15.6758 4.91622 14.6004C4.95267 14.4893 5.01771 14.3858 5.10699 14.2968C5.19628 14.2078 5.30777 14.1353 5.43405 14.0842C5.56033 14.0332 5.69849 14.0046 5.83934 14.0005C5.98018 13.9964 6.12049 14.0168 6.2509 14.0605C6.38132 14.1041 6.49886 14.1698 6.59569 14.2534C6.69253 14.337 6.76643 14.4364 6.8125 14.5452C6.85856 14.6539 6.87572 14.7693 6.86283 14.8839C6.84994 14.9984 6.80731 15.1094 6.73776 15.2094C5.99423 16.5947 5.7774 18.1303 6.11535 19.6173C6.4533 21.1043 7.33045 22.4742 8.63324 23.5497C8.74187 23.6242 8.83043 23.7163 8.89336 23.8201C8.95628 23.9239 8.9922 24.0372 8.99887 24.1529C9.00553 24.2686 8.98279 24.3841 8.93207 24.4923C8.88135 24.6005 8.80376 24.6989 8.70417 24.7814C8.53401 24.9192 8.3048 24.9977 8.06505 25ZM4.31936 17.9973C4.28099 20.404 5.39757 22.7274 7.43045 24.471C7.69455 24.689 8.09221 24.8873 8.48685 24.5886C8.77661 24.3663 8.7419 24.0344 8.39706 23.7265C7.0522 22.6161 6.14673 21.2019 5.79789 19.6668C5.44905 18.1317 5.6729 16.5465 6.44046 15.1165C6.62457 14.7297 6.50158 14.4243 6.11373 14.2999C5.72588 14.1755 5.40292 14.3239 5.20824 14.7026C4.66296 15.746 4.36149 16.8635 4.31936 17.9973Z" fill="white"/>
<path d="M9.44305 16.7673C9.37515 16.9653 9.26388 17.2262 9.19692 17.4921C8.98779 18.2395 9.01332 19.0081 9.27188 19.7484C9.53043 20.4888 10.0163 21.1845 10.6982 21.7909C10.8868 21.9671 10.9919 22.1775 11 22.3945C10.9932 22.5327 10.9166 22.6651 10.7829 22.77C10.6492 22.8749 10.4663 22.946 10.2644 22.9715C10.0689 23.0116 9.85955 23.0093 9.66607 22.9649C9.4726 22.9205 9.30482 22.8362 9.18655 22.7239C7.54919 21.3524 6.78257 19.6013 7.05341 17.8514C7.13161 17.387 7.26854 16.9279 7.46268 16.4792C7.52853 16.3155 7.68701 16.1756 7.90417 16.0896C8.12133 16.0036 8.3799 15.9783 8.6245 16.019C8.87668 16.0504 9.10166 16.1452 9.2537 16.2842C9.40574 16.4232 9.47345 16.5959 9.44305 16.7673Z" fill="white"/>
<path d="M9.88225 23C9.71461 22.9997 9.54947 22.971 9.40044 22.9163C9.2514 22.8616 9.12275 22.7824 9.02507 22.6852C7.51063 21.3377 6.80059 19.6194 7.04843 17.9016C7.12099 17.4466 7.24716 16.9967 7.42559 16.5568C7.49726 16.3684 7.66861 16.2071 7.90361 16.1069C8.1386 16.0067 8.41893 15.9754 8.68563 16.0195C8.95758 16.0539 9.20125 16.1603 9.36772 16.3174C9.53419 16.4746 9.61113 16.6708 9.58309 16.8667L9.57795 16.8955C9.55909 16.9535 9.53766 17.0177 9.51366 17.0843C9.46052 17.2371 9.3988 17.4114 9.35766 17.5874C9.17434 18.2903 9.19818 19.0128 9.42765 19.7088C9.65713 20.4048 10.0872 21.0591 10.6906 21.6302C10.8861 21.8222 10.9941 22.0525 11 22.2897C10.9937 22.451 10.9108 22.6061 10.7649 22.7294C10.619 22.8528 10.4187 22.9372 10.1968 22.9688C10.0943 22.989 9.98856 22.9994 9.88225 23ZM8.46191 16.2659C8.30672 16.2592 8.15316 16.2915 8.02789 16.3571C7.90262 16.4228 7.81356 16.5177 7.77617 16.6253C7.60246 17.0507 7.47972 17.4858 7.4093 17.926C7.17354 19.5781 7.85791 21.2301 9.3148 22.5257C9.40107 22.6132 9.52404 22.679 9.66604 22.7136C9.80803 22.7482 9.96175 22.7498 10.1051 22.7182C10.2502 22.7007 10.3826 22.6483 10.48 22.5696C10.5775 22.491 10.6343 22.3909 10.6408 22.2861C10.6326 22.105 10.5494 21.9297 10.4017 21.7824C9.76946 21.1837 9.31883 20.4978 9.07844 19.7682C8.83805 19.0387 8.81316 18.2814 9.00536 17.5446C9.04907 17.3612 9.1125 17.1779 9.16822 17.0226C9.19051 16.9615 9.21022 16.9058 9.22651 16.8533C9.24833 16.7213 9.19943 16.5883 9.08959 16.481C8.97975 16.3737 8.8171 16.2999 8.6342 16.2744C8.57719 16.2682 8.51957 16.2654 8.46191 16.2659Z" fill="white"/>
<path d="M22.0244 2.00037C22.5495 2.00125 23.0527 2.1601 23.4232 2.44198C23.7937 2.72385 24.0012 3.10565 24 3.5034C23.9988 3.90114 23.7891 4.28224 23.417 4.56287C23.0448 4.84349 22.5407 5.00065 22.0156 4.99976C21.7522 5.0033 21.4906 4.96702 21.246 4.89303C21.0013 4.81904 20.7787 4.70883 20.591 4.56886C20.4033 4.42889 20.2543 4.26197 20.1529 4.07786C20.0514 3.89376 19.9994 3.69617 20 3.49667C20.0006 3.29717 20.0537 3.09976 20.1563 2.91599C20.2588 2.73223 20.4087 2.56581 20.5973 2.42647C20.7858 2.28713 21.0091 2.17768 21.2541 2.10451C21.4992 2.03135 21.761 1.99594 22.0244 2.00037Z" fill="white"/>
<path d="M22.0191 4.99999C21.4892 5.0015 20.9799 4.84635 20.6019 4.56826C20.2239 4.29017 20.0076 3.9116 20.0002 3.5148C19.9967 3.31675 20.0461 3.12018 20.1457 2.93668C20.2452 2.75318 20.3928 2.58647 20.5798 2.44637C20.7697 2.3037 20.9956 2.19075 21.2444 2.11412C21.4931 2.03749 21.7598 1.99871 22.0288 2.00003H22.0407C22.5648 2.00837 23.0637 2.17036 23.4301 2.45119C23.7964 2.73203 24.0011 3.10929 24 3.50191C23.9989 3.89452 23.7922 4.27115 23.4243 4.55086C23.0564 4.83057 22.5567 4.99103 22.0325 4.99776L22.0191 4.99999ZM22.0288 2.23771C21.8014 2.23642 21.576 2.26889 21.3655 2.33324C21.1551 2.39759 20.9637 2.49255 20.8025 2.61263C20.6451 2.7309 20.5209 2.87153 20.4371 3.02627C20.3533 3.181 20.3116 3.34672 20.3146 3.51368C20.3214 3.84843 20.5044 4.16763 20.8237 4.40194C21.143 4.63626 21.5728 4.76676 22.0198 4.7651H22.028C22.4756 4.76592 22.9052 4.63356 23.2224 4.39714C23.5396 4.16073 23.7185 3.83963 23.7195 3.50447C23.7206 3.16932 23.5439 2.84757 23.2282 2.61001C22.9125 2.37244 22.4838 2.23852 22.0362 2.23771H22.0288Z" fill="white"/>
</g>
<defs>
<clipPath id="clip0_158_449">
<rect width="28" height="28" fill="white"/>
</clipPath>
</defs>
</svg>
