<svg width="22" height="22" viewBox="0 0 22 22" fill="none" xmlns="http://www.w3.org/2000/svg">
<mask id="mask0_10_2234" style="mask-type:luminance" maskUnits="userSpaceOnUse" x="2" y="5" width="17" height="13">
<path d="M2.75 5.5H18.3333V17.4167H2.75V5.5Z" fill="white"/>
</mask>
<g mask="url(#mask0_10_2234)">
<path d="M18.3333 15.8193V7.10316C18.3333 6.21766 17.6553 5.5 16.8187 5.5H4.26459C3.42801 5.5 2.75 6.21766 2.75 7.10316V15.8193C2.75 16.699 3.42801 17.4167 4.26459 17.4167H16.8187C17.6553 17.4167 18.3333 16.699 18.3333 15.8193ZM11.1705 15.009L5.68076 11.9879C5.5714 11.9242 5.50032 11.8085 5.50032 11.6754C5.50032 11.6464 5.50579 11.6175 5.51126 11.5886C5.54953 11.4265 5.68076 11.3223 5.83933 11.3223H9.34968C9.38795 11.3223 9.42076 11.2876 9.42076 11.2413V8.22596C9.42076 8.09863 9.48091 7.98867 9.57933 7.91922C9.68322 7.85555 9.80351 7.84977 9.9074 7.90764L15.3971 10.9288C15.5393 11.004 15.6049 11.1661 15.5666 11.3281C15.5338 11.4902 15.4026 11.6001 15.244 11.6001H11.7337C11.6899 11.6001 11.6571 11.6349 11.6571 11.6754V14.6965C11.6571 14.818 11.6024 14.9338 11.4985 14.9974C11.4001 15.0611 11.2744 15.0669 11.1705 15.009Z" fill="#5CCDE6"/>
</g>
<mask id="mask1_10_2234" style="mask-type:luminance" maskUnits="userSpaceOnUse" x="16" y="9" width="4" height="5">
<path d="M16.5 9.16675H19.25V13.7501H16.5V9.16675Z" fill="white"/>
</mask>
<g mask="url(#mask1_10_2234)">
<path d="M18.8912 13.7501C19.0901 13.7501 19.25 13.5139 19.25 13.2203V9.69658C19.25 9.40294 19.0901 9.16675 18.8912 9.16675H18.3334V13.7501H18.8912Z" fill="#5CCDE6"/>
</g>
</svg>
