<svg width="22" height="22" viewBox="0 0 22 22" fill="none" xmlns="http://www.w3.org/2000/svg">
<mask id="mask0_10_2224" style="mask-type:luminance" maskUnits="userSpaceOnUse" x="2" y="4" width="18" height="15">
<path d="M2.75 4.58325H19.25V18.3333H2.75V4.58325Z" fill="white"/>
</mask>
<g mask="url(#mask0_10_2224)">
<path d="M17.3887 6.91982H15.0348C14.9374 6.91982 14.8515 6.86125 14.8 6.77341L14.1528 5.56707C13.8206 4.95804 13.1964 4.58325 12.5148 4.58325H9.48516C8.80363 4.58325 8.17937 4.95804 7.84719 5.56707L7.20002 6.77341C7.14847 6.86125 7.06256 6.91982 6.9652 6.91982H4.61133C3.58044 6.91982 2.75 7.76894 2.75 8.82303V16.43C2.75 17.4783 3.58044 18.3333 4.61133 18.3333H17.3887C18.4138 18.3333 19.25 17.4783 19.25 16.43V8.82303C19.25 7.76894 18.4138 6.91982 17.3887 6.91982ZM10.9971 16.1607C9.09571 16.1607 7.53792 14.5795 7.53792 12.6236C7.53792 10.6735 9.09571 9.08655 10.9971 9.08655C12.9043 9.08655 14.4621 10.6735 14.4621 12.6236C14.4621 14.5795 12.9043 16.1607 10.9971 16.1607Z" fill="#5CCDE6"/>
</g>
<path d="M12.8333 12.8361C12.8333 13.0783 12.7882 13.3093 12.6925 13.5346C12.6024 13.7599 12.4672 13.957 12.2982 14.1316C12.1236 14.3006 11.9265 14.4357 11.7012 14.5259C11.4759 14.6216 11.245 14.6667 10.9971 14.6667C10.755 14.6667 10.524 14.6216 10.2987 14.5259C10.0734 14.4357 9.8763 14.3006 9.7017 14.1316C9.53273 13.957 9.39755 13.7599 9.30743 13.5346C9.21169 13.3093 9.16663 13.0783 9.16663 12.8361C9.16663 12.594 9.21169 12.3574 9.30743 12.1321C9.39755 11.9068 9.53273 11.7097 9.7017 11.5407C9.8763 11.3661 10.0734 11.2366 10.2987 11.1408C10.524 11.0507 10.755 11 10.9971 11C11.245 11 11.4759 11.0507 11.7012 11.1408C11.9265 11.2366 12.1236 11.3661 12.2982 11.5407C12.4672 11.7097 12.6024 11.9068 12.6925 12.1321C12.7882 12.3574 12.8333 12.594 12.8333 12.8361Z" fill="#5CCDE6"/>
</svg>
