<svg width="30" height="31" viewBox="0 0 30 31" fill="none" xmlns="http://www.w3.org/2000/svg">
<path fill-rule="evenodd" clip-rule="evenodd" d="M3 4.28821C3 3.97307 3.11493 3.67084 3.31952 3.448C3.5241 3.22516 3.80158 3.09998 4.09091 3.09998H16.0909C16.3802 3.09998 16.6577 3.22516 16.8623 3.448C17.0669 3.67084 17.1818 3.97307 17.1818 4.28821V10.2294H21.5455C22.2618 10.2294 22.971 10.383 23.6328 10.6816C24.2946 10.9802 24.8959 11.4178 25.4024 11.9695C25.9089 12.5212 26.3107 13.1761 26.5848 13.897C26.8589 14.6178 27 15.3903 27 16.1705V20.9235C27.0001 21.6884 26.7744 22.4331 26.3562 23.0475C25.938 23.6621 25.3494 24.1138 24.6775 24.3361C24.4774 25.055 24.0739 25.6867 23.5247 26.1409C22.9754 26.5952 22.3084 26.8489 21.6189 26.8657C20.9295 26.8827 20.2527 26.6618 19.6853 26.2349C19.1179 25.8079 18.6888 25.1966 18.4593 24.4882H11.5418C11.3123 25.1966 10.8832 25.8079 10.3158 26.2349C9.74838 26.6618 9.07163 26.8827 8.38214 26.8657C7.69266 26.8489 7.02568 26.5952 6.47643 26.1409C5.92717 25.6867 5.52371 25.055 5.32364 24.3361C4.65146 24.114 4.06268 23.6624 3.64425 23.0479C3.22583 22.4333 2.99996 21.6886 3 20.9235V16.1705H9.54545C9.83478 16.1705 10.1123 16.0454 10.3168 15.8225C10.5214 15.5997 10.6364 15.2974 10.6364 14.9823C10.6364 14.6672 10.5214 14.365 10.3168 14.1421C10.1123 13.9193 9.83478 13.794 9.54545 13.794H3V11.4176H7.36364C7.65296 11.4176 7.93044 11.2924 8.13503 11.0696C8.33961 10.8468 8.45455 10.5445 8.45455 10.2294C8.45455 9.91424 8.33961 9.61201 8.13503 9.38917C7.93044 9.16633 7.65296 9.04115 7.36364 9.04115H3V4.28821ZM17.1818 22.1118H18.4593C18.6749 21.4468 19.0668 20.8666 19.5853 20.4443C20.1038 20.022 20.7256 19.7767 21.3721 19.7395C22.0186 19.7022 22.6607 19.8746 23.2172 20.2349C23.7737 20.5952 24.2197 21.1272 24.4985 21.7635C24.6 21.6534 24.6805 21.5224 24.7353 21.3783C24.7902 21.234 24.8183 21.0796 24.8182 20.9235V16.1705C24.8182 15.2251 24.4734 14.3185 23.8596 13.6499C23.2459 12.9814 22.4134 12.6058 21.5455 12.6058H17.1818V22.1118ZM9.54545 23.3C9.54545 22.9848 9.43052 22.6826 9.22593 22.4598C9.02135 22.2369 8.74387 22.1118 8.45455 22.1118C8.16522 22.1118 7.88774 22.2369 7.68316 22.4598C7.47857 22.6826 7.36364 22.9848 7.36364 23.3C7.36364 23.6151 7.47857 23.9173 7.68316 24.1402C7.88774 24.363 8.16522 24.4882 8.45455 24.4882C8.74387 24.4882 9.02135 24.363 9.22593 24.1402C9.43052 23.9173 9.54545 23.6151 9.54545 23.3ZM20.7742 22.4599C20.6726 22.5699 20.592 22.7009 20.5372 22.845C20.4823 22.9893 20.4542 23.1439 20.4545 23.3C20.4545 23.5749 20.542 23.8412 20.702 24.0538C20.8621 24.2664 21.0849 24.4119 21.3324 24.4656C21.5799 24.5192 21.8369 24.4778 22.0595 24.3482C22.2821 24.2187 22.4566 24.0091 22.5532 23.7552C22.6499 23.5012 22.6627 23.2186 22.5894 22.9555C22.5162 22.6924 22.3615 22.4651 22.1517 22.3123C21.9419 22.1596 21.6899 22.0908 21.4387 22.1176C21.1875 22.1446 20.9527 22.2655 20.7742 22.4599Z" fill="#5CCDE6"/>
</svg>
