<svg width="22" height="22" viewBox="0 0 22 22" fill="none" xmlns="http://www.w3.org/2000/svg">
<mask id="mask0_10_2254" style="mask-type:luminance" maskUnits="userSpaceOnUse" x="3" y="5" width="17" height="13">
<path d="M3.33972 5H19.5769V17.4167H3.33972V5Z" fill="white"/>
</mask>
<g mask="url(#mask0_10_2254)">
<path d="M16.6614 9.68189C16.6837 9.50692 16.7115 9.32592 16.7115 9.13889C16.7115 6.85224 15.0018 5 12.891 5C11.6435 5 10.5463 5.65764 9.84462 6.66521C9.594 6.59884 9.33782 6.55661 9.07049 6.55661C7.2215 6.55661 5.72337 8.17355 5.72337 10.1766C5.72337 10.2309 5.74007 10.2852 5.74007 10.3395C4.35333 10.78 3.33972 12.1556 3.33972 13.7966C3.33972 15.7997 4.83228 17.4167 6.68128 17.4167H14.8013C16.912 17.4167 18.6218 15.5644 18.6218 13.2778C18.6218 11.7272 17.8254 10.3938 16.6614 9.68189ZM14.0828 14.3155H10.2623V15.3472L7.8731 13.7966L10.2623 12.2461V13.2778H14.0828V14.3155ZM11.6936 12.2461V11.2083H7.8731V10.1766H11.6936V9.13889L14.0828 10.6955L11.6936 12.2461Z" fill="#5CCDE6"/>
</g>
</svg>
