<svg width="30" height="31" viewBox="0 0 30 31" fill="none" xmlns="http://www.w3.org/2000/svg">
<path d="M26.4672 13.3423L23.7142 12.6427C23.5488 12.1034 23.3359 11.5805 23.0791 11.0803C23.4924 10.3693 24.3611 8.87295 24.3611 8.87295C24.5273 8.58702 24.4833 8.22088 24.2553 7.98533L22.2668 5.93052C22.0388 5.69424 21.6852 5.64885 21.4078 5.82124L19.2682 7.14596C18.7868 6.8827 18.2835 6.66488 17.7652 6.4953L17.0881 3.65061C17.0098 3.32705 16.729 3.09998 16.4062 3.09998H13.5938C13.271 3.09998 12.9895 3.32705 12.9119 3.65056C12.9119 3.65056 12.4429 5.63602 12.2355 6.49457C11.6828 6.67549 11.1486 6.91036 10.6398 7.19701L8.42123 5.82124C8.14383 5.65094 7.79091 5.69497 7.56225 5.93052L5.57372 7.98533C5.34577 8.22088 5.3018 8.58702 5.46797 8.87295L6.83991 11.2407C6.6188 11.6912 6.43341 12.1602 6.2858 12.6406L3.53288 13.3423C3.21975 13.4232 3 13.7134 3 14.0469V16.9531C3 17.2866 3.21975 17.5775 3.53283 17.6577L6.28645 18.3573C6.45333 18.9043 6.67027 19.4358 6.93328 19.9459L5.70558 22.0603C5.53941 22.3462 5.58337 22.7124 5.81133 22.9479L7.79986 25.0027C8.02716 25.2376 8.38144 25.2823 8.65884 25.112C8.65884 25.112 10.0356 24.2592 10.7099 23.8419C11.1981 24.1109 11.7089 24.3329 12.2356 24.5053L12.912 27.3493C12.9895 27.6729 13.271 27.9 13.5938 27.9H16.4062C16.729 27.9 17.0098 27.6729 17.0881 27.3494L17.7645 24.5054C18.3062 24.328 18.828 24.0988 19.3245 23.8207C20.0173 24.2499 21.4078 25.112 21.4078 25.112C21.6845 25.283 22.0388 25.239 22.2668 25.0027L24.2553 22.9479C24.4832 22.7124 24.5272 22.3462 24.361 22.0603L23.0969 19.8841C23.3461 19.3953 23.5529 18.8837 23.7142 18.3573L26.4671 17.6577C26.7803 17.5768 27 17.2866 27 16.9531V14.0469C27 13.7134 26.7803 13.4232 26.4672 13.3423ZM15 20.5859C12.2864 20.5859 10.0781 18.3041 10.0781 15.5C10.0781 12.6959 12.2864 10.414 15 10.414C17.7136 10.414 19.9219 12.6959 19.9219 15.5C19.9219 18.3041 17.7136 20.5859 15 20.5859Z" fill="#5CCDE6"/>
</svg>
