<svg width="22" height="22" viewBox="0 0 22 22" fill="none" xmlns="http://www.w3.org/2000/svg">
<mask id="mask0_10_2244" style="mask-type:luminance" maskUnits="userSpaceOnUse" x="3" y="8" width="8" height="6">
<path d="M3.66663 8.25H11V13.75H3.66663V8.25Z" fill="white"/>
</mask>
<g mask="url(#mask0_10_2244)">
<path d="M9.93565 10.6401L7.72673 8.39974C7.6302 8.29607 7.51095 8.25 7.36899 8.25H4.5184C4.2799 8.25 4.08115 8.33063 3.91648 8.5034C3.74612 8.67042 3.66663 8.87199 3.66663 9.11387V12.8861C3.66663 13.1223 3.74612 13.3296 3.91648 13.4966C4.08115 13.6636 4.2799 13.75 4.5184 13.75H7.36899C7.51095 13.75 7.6302 13.6982 7.72673 13.6003L9.93565 11.3599C10.0379 11.262 10.0833 11.1411 10.0833 10.9971C10.0833 10.8589 10.0379 10.738 9.93565 10.6401Z" fill="#5CCDE6"/>
</g>
<mask id="mask1_10_2244" style="mask-type:luminance" maskUnits="userSpaceOnUse" x="8" y="3" width="6" height="8">
<path d="M8.25 3.66675H13.75V11.0001H8.25V3.66675Z" fill="white"/>
</mask>
<g mask="url(#mask1_10_2244)">
<path d="M11.3599 9.93591L13.6003 7.72894C13.7039 7.63249 13.75 7.51334 13.75 7.37151V4.51776C13.75 4.28515 13.6694 4.08658 13.4966 3.91638C13.3296 3.75185 13.128 3.66675 12.8861 3.66675H9.11387C8.87775 3.66675 8.67042 3.75185 8.5034 3.91638C8.33639 4.08658 8.25 4.28515 8.25 4.51776V7.37151C8.25 7.51334 8.30183 7.63249 8.39974 7.72894L10.6401 9.93591C10.738 10.0324 10.8589 10.0834 11.0029 10.0834C11.1411 10.0834 11.262 10.0324 11.3599 9.93591Z" fill="#5CCDE6"/>
</g>
<mask id="mask2_10_2244" style="mask-type:luminance" maskUnits="userSpaceOnUse" x="8" y="11" width="6" height="8">
<path d="M8.25 11H13.75V18.3333H8.25V11Z" fill="white"/>
</mask>
<g mask="url(#mask2_10_2244)">
<path d="M10.6401 12.0643L8.39974 14.2712C8.30183 14.3677 8.25 14.4868 8.25 14.6287V17.4824C8.25 17.715 8.33639 17.9136 8.5034 18.0838C8.67042 18.2483 8.87775 18.3334 9.11387 18.3334H12.8861C13.128 18.3334 13.3296 18.2483 13.4966 18.0838C13.6694 17.9136 13.75 17.715 13.75 17.4824V14.623C13.75 14.4868 13.7039 14.3677 13.6003 14.2712L11.3599 12.0643C11.262 11.9621 11.1411 11.9167 11.0029 11.9167C10.8589 11.9167 10.738 11.9621 10.6401 12.0643Z" fill="#5CCDE6"/>
</g>
<mask id="mask3_10_2244" style="mask-type:luminance" maskUnits="userSpaceOnUse" x="11" y="8" width="8" height="6">
<path d="M11 8.25H18.3333V13.75H11V8.25Z" fill="white"/>
</mask>
<g mask="url(#mask3_10_2244)">
<path d="M17.4823 8.25H14.6285C14.4867 8.25 14.3676 8.29607 14.2711 8.39974L12.0641 10.6401C11.9677 10.738 11.9166 10.8589 11.9166 10.9971C11.9166 11.1411 11.9677 11.262 12.0641 11.3599L14.2711 13.6003C14.3732 13.6982 14.4924 13.75 14.6285 13.75H17.4823C17.7149 13.75 17.9191 13.6636 18.0837 13.4966C18.2482 13.3296 18.3333 13.1223 18.3333 12.8861V9.11387C18.3333 8.87199 18.2482 8.67042 18.0837 8.49764C17.9135 8.33063 17.7149 8.25 17.4823 8.25Z" fill="#5CCDE6"/>
</g>
</svg>
