<svg width="185" height="56" viewBox="0 0 185 56" fill="none" xmlns="http://www.w3.org/2000/svg">
<g clip-path="url(#clip0_10_1411)">
<path d="M26.2971 52.9966C26.2971 52.9966 26.4069 52.8859 26.6266 52.6646C26.8462 52.4433 27.1051 52.3326 27.4111 52.3326H30V36.7622H27.4111C27.1051 36.7622 26.8462 36.6515 26.6266 36.4302C26.4069 36.2089 26.2971 35.9481 26.2971 35.6399V33.0948L0 33V55.9684L26.2971 56V53.455C26.2971 53.1507 26.2971 52.9966 26.2971 52.9966ZM4.76987 37.1258C4.76987 37.1258 4.91893 37.1258 5.2249 37.1258H24.7751C25.0771 37.1258 25.3321 37.2364 25.5439 37.4577C25.7636 37.6711 25.8734 37.928 25.8734 38.2323V50.7993C25.8734 51.1076 25.7636 51.3684 25.5439 51.5897C25.3321 51.8031 25.0771 51.9058 24.7751 51.9058H5.2249C4.91893 51.9058 4.66004 51.8031 4.44038 51.5897C4.22071 51.3684 4.11088 51.1076 4.11088 50.7993V38.2323C4.11088 37.928 4.22071 37.6632 4.44038 37.4419C4.66004 37.2325 4.76987 37.1258 4.76987 37.1258Z" fill="#5CCDE6"/>
<path d="M66.3013 42.8571C66.3013 42.8571 66.5288 42.8571 66.9916 42.8571H69V33H39V56H43.1109V46.6032H63.3201C63.9869 46.6032 64.4223 46.7262 64.6224 46.9683C64.8303 47.2143 64.9362 47.6349 64.9362 48.2381V56H69V46.1746H66.9916C66.5288 46.1746 66.1444 45.996 65.8305 45.6349C65.5167 45.2778 65.3598 44.8651 65.3598 44.3968C65.3598 43.9444 65.5207 43.5714 65.8462 43.2857C66.1483 43 66.3013 42.8571 66.3013 42.8571ZM64.9362 37.1746V40.7619C64.9362 41.2817 64.8303 41.6905 64.6224 41.9841C64.4223 42.2817 63.9869 42.4286 63.3201 42.4286H43.1109V37.1746H64.9362Z" fill="#5CCDE6"/>
<path d="M103.956 52.3175C103.956 52.3175 104.105 52.3175 104.411 52.3175H107V36.873H104.411C104.105 36.873 103.846 36.7698 103.627 36.5556C103.407 36.3333 103.297 36.0714 103.297 35.7619V33H80.6872V35.7302C80.6872 36.0397 80.5774 36.3016 80.3577 36.5238C80.1459 36.7381 79.891 36.8413 79.5889 36.8413H77V52.3175H79.5889C79.891 52.3175 80.1459 52.4286 80.3577 52.6508C80.5774 52.873 80.6872 53.1389 80.6872 53.4444V56H103.297V53.4444C103.297 53.1389 103.407 52.873 103.627 52.6508C103.846 52.4286 103.956 52.3175 103.956 52.3175ZM101.775 37.2381C102.077 37.2381 102.332 37.3492 102.544 37.5714C102.764 37.7857 102.873 38.0437 102.873 38.3492V50.7778C102.873 51.0873 102.764 51.3492 102.544 51.5714C102.332 51.7857 102.077 51.8889 101.775 51.8889H82.2249C81.9189 51.8889 81.66 51.7857 81.4404 51.5714C81.2207 51.3492 81.1109 51.0873 81.1109 50.7778V38.3492C81.1109 38.0437 81.2207 37.7857 81.4404 37.5714C81.66 37.3492 81.9189 37.2381 82.2249 37.2381H101.775Z" fill="#5CCDE6"/>
<path d="M136.492 52.3175C136.939 52.3175 137.323 52.4841 137.637 52.8095C137.951 53.1389 138.108 53.5357 138.108 54V56H146V33H141.936V51.9206H140.132C139.692 51.9206 139.308 51.7579 138.986 51.4286C138.661 51.1032 138.5 50.7103 138.5 50.254V49.3651L126.324 36.6508H125.446C125.006 36.6508 124.63 36.4881 124.316 36.1587C124.002 35.8333 123.845 35.4365 123.845 34.9683V33H116V56H120.017V37.0794H121.868C122.308 37.0794 122.684 37.246 122.998 37.5714C123.312 37.9008 123.469 38.2937 123.469 38.746V39.5714L135.676 52.3175H136.492Z" fill="#5CCDE6"/>
<path d="M159.111 48.2064C159.111 47.754 159.268 47.3611 159.582 47.0317C159.895 46.7063 160.28 46.5397 160.743 46.5397H181.266V42.3651H160.743C160.28 42.3651 159.895 42.2063 159.582 41.8889C159.268 41.5714 159.111 41.1825 159.111 40.7143V37.1429H185V33H155V42.7937H157.04C157.487 42.7937 157.875 42.9603 158.201 43.2857C158.522 43.6151 158.687 44.0079 158.687 44.4603C158.687 44.9286 158.522 45.3175 158.201 45.6349C157.875 45.9524 157.487 46.1111 157.04 46.1111H155V56H185V51.8571H159.111V48.2064Z" fill="#5CCDE6"/>
<path d="M20.4916 19.3175C20.9388 19.3175 21.3232 19.4841 21.637 19.8095C21.9508 20.1389 22.1077 20.5357 22.1077 21V23H30V0H25.9362V18.9206H24.1318C23.6925 18.9206 23.3081 18.7579 22.9864 18.4286C22.6608 18.1032 22.5 17.7103 22.5 17.254V16.3651L10.3243 3.65079H9.44561C9.00628 3.65079 8.62971 3.4881 8.3159 3.15873C8.00209 2.83333 7.84519 2.43651 7.84519 1.96825V0H0V23H4.01674V4.07937H5.8682C6.30753 4.07937 6.6841 4.24603 6.99791 4.57143C7.31172 4.90079 7.46862 5.29365 7.46862 5.74603V6.57143L19.6757 19.3175H20.4916Z" fill="white"/>
<path d="M42.6872 10.6508V12.0635C42.6872 12.373 42.5774 12.6349 42.3577 12.8571C42.1459 13.0714 41.891 13.1746 41.5889 13.1746H39V23H43.1109V14.7143C43.1109 14.4087 43.2207 14.1508 43.4404 13.9365C43.66 13.7143 43.9189 13.6032 44.2249 13.6032C44.5269 13.6032 44.7819 13.7143 44.9937 13.9365C45.2134 14.1508 45.3232 14.4087 45.3232 14.7143V17.3492H62.6768V14.7143C62.6768 14.4087 62.7788 14.1508 62.9906 13.9365C63.2103 13.7143 63.4691 13.6032 63.7751 13.6032C64.0771 13.6032 64.3321 13.7143 64.5439 13.9365C64.7636 14.1508 64.8734 14.4087 64.8734 14.7143V23H69V13.1746H66.4111C66.1051 13.1746 65.8462 13.0714 65.6266 12.8571C65.4069 12.6349 65.2971 12.373 65.2971 12.0635V10.6825L58.4874 3.77778H57.1538C56.8478 3.77778 56.5889 3.6746 56.3692 3.46032C56.1496 3.2381 56.0397 2.97619 56.0397 2.66667V0H51.9132V2.66667C51.9132 2.97619 51.8073 3.2381 51.5994 3.46032C51.3993 3.6746 51.1483 3.77778 50.8462 3.77778H49.4812L42.6872 10.6508ZM52.3682 6.76191V5.34921C52.3878 5.04365 52.5016 4.78968 52.7134 4.5873C52.9213 4.37698 53.1763 4.26984 53.4822 4.26984H54.4864C54.7884 4.26984 55.0434 4.37698 55.2552 4.5873C55.4749 4.78968 55.5847 5.04365 55.5847 5.34921V6.73016L60.0722 11.2698C60.2369 11.4524 60.3428 11.6508 60.386 11.873C60.437 12.0873 60.4174 12.2937 60.3232 12.4921C60.2369 12.6825 60.1075 12.8492 59.931 12.9841C59.7623 13.1111 59.5465 13.1746 59.2877 13.1746H48.6653C48.4338 13.1746 48.2299 13.1111 48.0533 12.9841C47.8729 12.8492 47.7435 12.6825 47.6611 12.4921C47.5748 12.2937 47.5513 12.0873 47.5826 11.873C47.614 11.6508 47.716 11.4524 47.8964 11.2698L52.3682 6.76191Z" fill="white"/>
<path d="M97.4916 19.3175C97.9388 19.3175 98.3232 19.4841 98.637 19.8095C98.9508 20.1389 99.1077 20.5357 99.1077 21V23H107V0H102.936V18.9206H101.132C100.692 18.9206 100.308 18.7579 99.9864 18.4286C99.6608 18.1032 99.5 17.7103 99.5 17.254V16.3651L87.3243 3.65079H86.4456C86.0063 3.65079 85.6297 3.4881 85.3159 3.15873C85.0021 2.83333 84.8452 2.43651 84.8452 1.96825V0H77V23H81.0167V4.07937H82.8682C83.3075 4.07937 83.6841 4.24603 83.9979 4.57143C84.3117 4.90079 84.4686 5.29365 84.4686 5.74603V6.57143L96.6757 19.3175H97.4916Z" fill="white"/>
<path d="M142.956 19.3175C142.956 19.3175 143.105 19.3175 143.411 19.3175H146V3.87302H143.411C143.105 3.87302 142.846 3.76984 142.627 3.55556C142.407 3.33333 142.297 3.07143 142.297 2.7619V0H119.687V2.73016C119.687 3.03968 119.577 3.30159 119.358 3.52381C119.146 3.7381 118.891 3.84127 118.589 3.84127H116V19.3175H118.589C118.891 19.3175 119.146 19.4286 119.358 19.6508C119.577 19.873 119.687 20.1389 119.687 20.4444V23H142.297V20.4444C142.297 20.1389 142.407 19.873 142.627 19.6508C142.846 19.4286 142.956 19.3175 142.956 19.3175ZM140.775 4.2381C141.077 4.2381 141.332 4.34921 141.544 4.57143C141.764 4.78571 141.873 5.04365 141.873 5.34921V17.7778C141.873 18.0873 141.764 18.3492 141.544 18.5714C141.332 18.7857 141.077 18.8889 140.775 18.8889H121.225C120.919 18.8889 120.66 18.7857 120.44 18.5714C120.221 18.3492 120.111 18.0873 120.111 17.7778V5.34921C120.111 5.04365 120.221 4.78571 120.44 4.57143C120.66 4.34921 120.919 4.2381 121.225 4.2381H140.775Z" fill="white"/>
</g>
<defs>
<clipPath id="clip0_10_1411">
<rect width="185" height="56" fill="white"/>
</clipPath>
</defs>
</svg>
