<svg width="94" height="15" viewBox="0 0 94 15" fill="none" xmlns="http://www.w3.org/2000/svg">
<g clip-path="url(#clip0_11_3553)">
<path d="M7 11.8939L10.3949 13.8889C11.0166 14.2545 11.7774 13.7141 11.6138 13.0305L10.7139 9.27897L13.7162 6.75143C14.2643 6.29043 13.9698 5.41612 13.2499 5.36048L9.29871 5.03461L7.7526 1.48969C7.47447 0.845884 6.52553 0.845884 6.2474 1.48969L4.70129 5.02666L0.750115 5.35254C0.0302327 5.40817 -0.264264 6.28248 0.283828 6.74348L3.28606 9.27102L2.38621 13.0226C2.2226 13.7061 2.98339 14.2466 3.6051 13.881L7 11.8939Z" fill="#E6DB6E"/>
</g>
<g clip-path="url(#clip1_11_3553)">
<path d="M27 11.8939L30.3949 13.8889C31.0166 14.2545 31.7774 13.7141 31.6138 13.0305L30.7139 9.27897L33.7162 6.75143C34.2643 6.29043 33.9698 5.41612 33.2499 5.36048L29.2987 5.03461L27.7526 1.48969C27.4745 0.845884 26.5255 0.845884 26.2474 1.48969L24.7013 5.02666L20.7501 5.35254C20.0302 5.40817 19.7357 6.28248 20.2838 6.74348L23.2861 9.27102L22.3862 13.0226C22.2226 13.7061 22.9834 14.2466 23.6051 13.881L27 11.8939Z" fill="#E6DB6E"/>
</g>
<g clip-path="url(#clip2_11_3553)">
<path d="M47 11.8939L50.3949 13.8889C51.0166 14.2545 51.7774 13.7141 51.6138 13.0305L50.7139 9.27897L53.7162 6.75143C54.2643 6.29043 53.9698 5.41612 53.2499 5.36048L49.2987 5.03461L47.7526 1.48969C47.4745 0.845884 46.5255 0.845884 46.2474 1.48969L44.7013 5.02666L40.7501 5.35254C40.0302 5.40817 39.7357 6.28248 40.2838 6.74348L43.2861 9.27102L42.3862 13.0226C42.2226 13.7061 42.9834 14.2466 43.6051 13.881L47 11.8939Z" fill="#E6DB6E"/>
</g>
<g clip-path="url(#clip3_11_3553)">
<path d="M67 11.8939L70.3949 13.8889C71.0166 14.2545 71.7774 13.7141 71.6138 13.0305L70.7139 9.27897L73.7162 6.75143C74.2643 6.29043 73.9698 5.41612 73.2499 5.36048L69.2987 5.03461L67.7526 1.48969C67.4745 0.845884 66.5255 0.845884 66.2474 1.48969L64.7013 5.02666L60.7501 5.35254C60.0302 5.40817 59.7357 6.28248 60.2838 6.74348L63.2861 9.27102L62.3862 13.0226C62.2226 13.7061 62.9834 14.2466 63.6051 13.881L67 11.8939Z" fill="#E6DB6E"/>
</g>
<g clip-path="url(#clip4_11_3553)">
<path d="M87 11.8939L90.3949 13.8889C91.0166 14.2545 91.7774 13.7141 91.6138 13.0305L90.7139 9.27897L93.7162 6.75143C94.2643 6.29043 93.9698 5.41612 93.2499 5.36048L89.2987 5.03461L87.7526 1.48969C87.4745 0.845884 86.5255 0.845884 86.2474 1.48969L84.7013 5.02666L80.7501 5.35254C80.0302 5.40817 79.7357 6.28248 80.2838 6.74348L83.2861 9.27102L82.3862 13.0226C82.2226 13.7061 82.9834 14.2466 83.6051 13.881L87 11.8939Z" fill="#E6DB6E"/>
</g>
<defs>
<clipPath id="clip0_11_3553">
<rect width="14" height="14" fill="white" transform="translate(0 0.536133)"/>
</clipPath>
<clipPath id="clip1_11_3553">
<rect width="14" height="14" fill="white" transform="translate(20 0.536133)"/>
</clipPath>
<clipPath id="clip2_11_3553">
<rect width="14" height="14" fill="white" transform="translate(40 0.536133)"/>
</clipPath>
<clipPath id="clip3_11_3553">
<rect width="14" height="14" fill="white" transform="translate(60 0.536133)"/>
</clipPath>
<clipPath id="clip4_11_3553">
<rect width="14" height="14" fill="white" transform="translate(80 0.536133)"/>
</clipPath>
</defs>
</svg>
