<svg width="30" height="31" viewBox="0 0 30 31" fill="none" xmlns="http://www.w3.org/2000/svg">
<path fill-rule="evenodd" clip-rule="evenodd" d="M14.142 3.99351C14.6952 3.78862 15.3048 3.78862 15.858 3.99351L24.4136 7.16353C24.8796 7.33614 25.2812 7.6452 25.5647 8.04939C25.8482 8.45359 26.0001 8.93365 26 9.42542V15.9019C26 17.9204 25.4312 19.899 24.3573 21.616C23.2833 23.333 21.7466 24.7206 19.9194 25.6233L15.8201 27.6485C15.5655 27.7743 15.2847 27.8398 15 27.8398C14.7153 27.8398 14.4345 27.7743 14.1799 27.6485L10.0806 25.6233C8.25338 24.7206 6.71672 23.333 5.64275 21.616C4.56879 19.899 3.99996 17.9204 4 15.9019V9.42542C3.99994 8.93365 4.1518 8.45359 4.4353 8.04939C4.71879 7.6452 5.1204 7.33614 5.58644 7.16353L14.142 3.99351ZM15 6.2554L6.44444 9.42542V15.9019C6.44473 17.4717 6.88737 19.0103 7.72278 20.3455C8.5582 21.6808 9.75339 22.7598 11.1744 23.4617L15 25.354V6.2554Z" fill="#5CCDE6"/>
</svg>
