<svg width="28" height="28" viewBox="0 0 28 28" fill="none" xmlns="http://www.w3.org/2000/svg">
<g clip-path="url(#clip0_932_106)">
<path d="M26.4831 11.7802C26.1549 11.5104 25.6589 11.1026 25.6023 10.8909C25.5388 10.6532 25.7619 10.0552 25.9247 9.61859C26.24 8.77264 26.5976 7.81369 26.1255 6.99765C25.6476 6.17178 24.6297 6.00238 23.7314 5.85284C23.3035 5.78149 22.6569 5.67383 22.4915 5.50848C22.3262 5.34314 22.2185 4.6965 22.1472 4.26862C21.9976 3.37033 21.828 2.35242 21.0021 1.87454C20.1865 1.40244 19.2274 1.76004 18.3812 2.07535C17.9448 2.23813 17.3466 2.46072 17.1091 2.39749C16.8974 2.34088 16.4896 1.84485 16.2195 1.51672C15.6351 0.806 14.9724 0 14 0C13.0276 0 12.3649 0.806 11.7802 1.51694C11.5104 1.84506 11.1026 2.34109 10.8909 2.39771C10.653 2.46094 10.0552 2.23813 9.61859 2.07535C8.77264 1.76004 7.81369 1.40244 6.99765 1.87454C6.17178 2.35242 6.00238 3.37033 5.85284 4.26862C5.78149 4.6965 5.67383 5.34314 5.50848 5.50848C5.34314 5.67383 4.6965 5.78149 4.26862 5.85284C3.37033 6.00238 2.35242 6.172 1.87454 6.99786C1.40244 7.81369 1.76004 8.77264 2.07535 9.6188C2.23813 10.0552 2.46094 10.6534 2.39749 10.8909C2.34088 11.1026 1.84485 11.5104 1.51672 11.7805C0.806 12.3649 0 13.0276 0 14C0 14.9724 0.806 15.6351 1.51694 16.2198C1.84506 16.4896 2.34109 16.8974 2.39771 17.1091C2.46115 17.3468 2.23813 17.9448 2.07535 18.3814C1.76004 19.2274 1.40244 20.1863 1.87454 21.0023C2.35242 21.8282 3.37033 21.9976 4.26862 22.1472C4.6965 22.2185 5.34314 22.3262 5.50848 22.4915C5.67383 22.6569 5.78149 23.3035 5.85284 23.7314C6.00238 24.6297 6.172 25.6476 6.99786 26.1255C7.81348 26.5976 8.77264 26.24 9.6188 25.9247C10.0552 25.7619 10.6536 25.5393 10.8909 25.6025C11.1026 25.6591 11.5104 26.1552 11.7805 26.4833C12.3649 27.194 13.0276 28 14 28C14.9724 28 15.6351 27.194 16.2198 26.4831C16.4896 26.1549 16.8974 25.6589 17.1091 25.6023C17.347 25.5393 17.9448 25.7619 18.3814 25.9247C19.2274 26.2397 20.1863 26.5976 21.0023 26.1255C21.8282 25.6476 21.9976 24.6297 22.1472 23.7314C22.2185 23.3035 22.3262 22.6569 22.4915 22.4915C22.6569 22.3262 23.3035 22.2185 23.7314 22.1472C24.6297 21.9976 25.6476 21.828 26.1255 21.0021C26.5976 20.1863 26.24 19.2274 25.9247 18.3812C25.7619 17.9448 25.5391 17.3466 25.6025 17.1091C25.6591 16.8974 26.1552 16.4896 26.4833 16.2195C27.194 15.6351 28 14.9724 28 14C28 13.0276 27.194 12.3649 26.4831 11.7802ZM20.0308 12.0616L15.1845 18.523C14.8098 19.0229 14.2373 19.335 13.6142 19.3792C13.5636 19.3829 13.5123 19.3846 13.4615 19.3846C12.8862 19.3846 12.3453 19.1607 11.9385 18.7538L8.7077 15.5231C7.86795 14.6832 7.86795 13.3168 8.7077 12.4771C9.54767 11.6373 10.914 11.6373 11.7538 12.4771L13.2284 13.9517L16.5846 9.47696C16.9298 9.01682 17.4336 8.71838 18.0031 8.63699C18.5726 8.5556 19.1398 8.70108 19.5999 9.0463C20.0603 9.3913 20.3585 9.89523 20.4399 10.4648C20.5213 11.0343 20.376 11.6012 20.0308 12.0616Z" fill="#0B0B0B"/>
</g>
<defs>
<clipPath id="clip0_932_106">
<rect width="28" height="28" fill="white"/>
</clipPath>
</defs>
</svg>
