<svg width="76" height="12" viewBox="0 0 76 12" fill="none" xmlns="http://www.w3.org/2000/svg">
<g clip-path="url(#clip0_868_6586)">
<path d="M6 9.73512L8.90991 11.4451C9.4428 11.7585 10.0949 11.2953 9.95469 10.7093L9.18334 7.49372L11.7567 5.32726C12.2265 4.93212 11.9741 4.18271 11.3571 4.13502L7.97032 3.8557L6.64509 0.817197C6.40669 0.265361 5.59331 0.265361 5.35491 0.817197L4.02968 3.84889L0.642955 4.12821C0.0259138 4.17589 -0.226512 4.9253 0.243281 5.32045L2.81662 7.48691L2.04532 10.7026C1.90509 11.2884 2.55719 11.7517 3.09009 11.4383L6 9.73512Z" fill="#F3D869"/>
</g>
<g clip-path="url(#clip1_868_6586)">
<path d="M22 9.73512L24.9099 11.4451C25.4428 11.7585 26.0949 11.2953 25.9547 10.7093L25.1833 7.49372L27.7567 5.32726C28.2265 4.93212 27.9741 4.18271 27.3571 4.13502L23.9703 3.8557L22.6451 0.817197C22.4067 0.265361 21.5933 0.265361 21.3549 0.817197L20.0297 3.84889L16.643 4.12821C16.0259 4.17589 15.7735 4.9253 16.2433 5.32045L18.8166 7.48691L18.0453 10.7026C17.9051 11.2884 18.5572 11.7517 19.0901 11.4383L22 9.73512Z" fill="#F3D869"/>
</g>
<g clip-path="url(#clip2_868_6586)">
<path d="M38 9.73512L40.9099 11.4451C41.4428 11.7585 42.0949 11.2953 41.9547 10.7093L41.1833 7.49372L43.7567 5.32726C44.2265 4.93212 43.9741 4.18271 43.3571 4.13502L39.9703 3.8557L38.6451 0.817197C38.4067 0.265361 37.5933 0.265361 37.3549 0.817197L36.0297 3.84889L32.643 4.12821C32.0259 4.17589 31.7735 4.9253 32.2433 5.32045L34.8166 7.48691L34.0453 10.7026C33.9051 11.2884 34.5572 11.7517 35.0901 11.4383L38 9.73512Z" fill="#F3D869"/>
</g>
<g clip-path="url(#clip3_868_6586)">
<path d="M54 9.73512L56.9099 11.4451C57.4428 11.7585 58.0949 11.2953 57.9547 10.7093L57.1833 7.49372L59.7567 5.32726C60.2265 4.93212 59.9741 4.18271 59.3571 4.13502L55.9703 3.8557L54.6451 0.817197C54.4067 0.265361 53.5933 0.265361 53.3549 0.817197L52.0297 3.84889L48.643 4.12821C48.0259 4.17589 47.7735 4.9253 48.2433 5.32045L50.8166 7.48691L50.0453 10.7026C49.9051 11.2884 50.5572 11.7517 51.0901 11.4383L54 9.73512Z" fill="#F3D869"/>
</g>
<g clip-path="url(#clip4_868_6586)">
<path d="M70 9.73512L72.9099 11.4451C73.4428 11.7585 74.0949 11.2953 73.9547 10.7093L73.1833 7.49372L75.7567 5.32726C76.2265 4.93212 75.9741 4.18271 75.3571 4.13502L71.9703 3.8557L70.6451 0.817197C70.4067 0.265361 69.5933 0.265361 69.3549 0.817197L68.0297 3.84889L64.643 4.12821C64.0259 4.17589 63.7735 4.9253 64.2433 5.32045L66.8166 7.48691L66.0453 10.7026C65.9051 11.2884 66.5572 11.7517 67.0901 11.4383L70 9.73512Z" fill="#F3D869"/>
</g>
<defs>
<clipPath id="clip0_868_6586">
<rect width="12" height="12" fill="white"/>
</clipPath>
<clipPath id="clip1_868_6586">
<rect width="12" height="12" fill="white" transform="translate(16)"/>
</clipPath>
<clipPath id="clip2_868_6586">
<rect width="12" height="12" fill="white" transform="translate(32)"/>
</clipPath>
<clipPath id="clip3_868_6586">
<rect width="12" height="12" fill="white" transform="translate(48)"/>
</clipPath>
<clipPath id="clip4_868_6586">
<rect width="12" height="12" fill="white" transform="translate(64)"/>
</clipPath>
</defs>
</svg>
