<svg width="17" height="28" viewBox="0 0 17 28" fill="none" xmlns="http://www.w3.org/2000/svg">
<g clip-path="url(#clip0_1434_7827)">
<path fill-rule="evenodd" clip-rule="evenodd" d="M1.9962 26.1957C1.9962 26.4909 2.19304 26.6878 2.48829 26.6878H14.5117C14.807 26.6878 15.0038 26.4909 15.0038 26.1957V3.98594C15.0038 3.7563 14.807 3.49385 14.5117 3.49385H2.48829C2.19304 3.49385 1.9962 3.7563 1.9962 3.98594V26.1957ZM16.3161 26.1957C16.3161 27.1962 15.5287 28 14.5117 28H2.48829C1.47131 28 0.68396 27.1962 0.68396 26.1957V3.98594C0.68396 3.00176 1.48771 2.18161 2.48829 2.18161H5.60487V0.656122C5.60487 0.295255 5.90013 0 6.261 0H10.6734C11.0343 0 11.3295 0.295255 11.3295 0.656122V2.18161H14.5117C15.5123 2.18161 16.3161 3.00176 16.3161 3.98594V26.1957ZM6.91712 2.18161H10.0173V1.31224H6.91712V2.18161ZM8.72145 21.1107C8.36059 21.1107 8.06533 20.8319 8.06533 20.471L7.86849 14.5823L5.7689 15.3204C5.26041 15.5009 4.76832 15.0416 4.91595 14.5167L7.70446 5.11775C7.9177 4.39602 8.9839 4.56005 8.9839 5.29818V10.8424L11.1163 10.2519C11.592 10.1043 12.0513 10.5472 11.92 11.0392L9.34477 20.6186C9.27916 20.9139 9.01671 21.1107 8.72145 21.1107ZM8.49181 13.0076C8.85268 13.0076 9.14793 13.2865 9.14793 13.6473L9.22995 16.0094L10.3618 11.8266L8.50821 12.3351C8.09814 12.4499 7.68806 12.1383 7.68806 11.6954V9.82542L6.53985 13.6637C6.85151 13.5489 8.27857 13.0076 8.49181 13.0076ZM12.2153 24.3257H4.78472C3.91536 24.3257 3.91536 23.0135 4.78472 23.0135H12.2153C13.0847 23.0135 13.0847 24.3257 12.2153 24.3257Z" fill="#282828"/>
</g>
<defs>
<clipPath id="clip0_1434_7827">
<rect width="16" height="28" fill="white" transform="translate(0.5)"/>
</clipPath>
</defs>
</svg>
