<svg width="31" height="28" viewBox="0 0 31 28" fill="none" xmlns="http://www.w3.org/2000/svg">
<g clip-path="url(#clip0_1434_7839)">
<path d="M6.3983 23.311L5.41898 27.2718H8.43268C8.43268 27.231 8.43773 27.1901 8.44782 27.1493L9.42715 23.1885H6.41345C6.41345 23.2293 6.4084 23.2701 6.3983 23.311Z" fill="#282828"/>
<path d="M14.4752 23.311L13.4959 27.2718H16.5096C16.5096 27.231 16.5147 27.1901 16.5248 27.1493L17.5041 23.1885H14.4904C14.4904 23.2293 14.4853 23.2701 14.4752 23.311Z" fill="#282828"/>
<path d="M1.36539 23.6989V26.7614C1.36539 27.0421 1.59255 27.2718 1.87019 27.2718H4.39423C4.39423 27.231 4.39928 27.1901 4.40938 27.1493L5.3887 23.1885H1.87019C1.59255 23.1885 1.36539 23.4182 1.36539 23.6989Z" fill="#282828"/>
<path d="M10.4368 23.311L9.45746 27.2718H12.4712C12.4712 27.231 12.4762 27.1901 12.4863 27.1493L13.4656 23.1885H10.4519C10.4519 23.2293 10.4469 23.2701 10.4368 23.311Z" fill="#282828"/>
<path d="M18.5137 23.311L17.5344 27.2718H20.5481C20.5481 27.231 20.5531 27.1901 20.5632 27.1493L21.5425 23.1885H18.5288C18.5288 23.2293 18.5238 23.2701 18.5137 23.311Z" fill="#282828"/>
<path d="M29.1298 23.1885H26.6058C26.6058 23.2293 26.6007 23.2701 26.5906 23.311L25.6113 27.2718H29.1298C29.4075 27.2718 29.6346 27.0421 29.6346 26.7614V23.6989C29.6346 23.4182 29.4075 23.1885 29.1298 23.1885Z" fill="#282828"/>
<path d="M22.5522 23.311L21.5728 27.2718H24.5865C24.5865 27.231 24.5916 27.1901 24.6017 27.1493L25.581 23.1885H22.5673C22.5673 23.2293 22.5623 23.2701 22.5522 23.311Z" fill="#282828"/>
<path d="M2.27403 15.6392C2.34976 15.68 2.43053 15.6954 2.50625 15.6954C2.68798 15.6954 2.86466 15.5933 2.95553 15.4197L3.12716 15.088C4.28317 18.8242 9.39182 21.6519 15.5 21.6519C21.6082 21.6519 26.7219 18.8242 27.8728 15.088L28.0445 15.4197C28.1353 15.5933 28.312 15.6954 28.4937 15.6954C28.5745 15.6954 28.6502 15.6749 28.726 15.6392C28.9733 15.5065 29.0692 15.2002 28.938 14.9501L28.0596 13.2505C28.0596 13.2505 28.0344 13.2249 28.0243 13.2096C27.999 13.1688 27.9687 13.128 27.9284 13.0973C27.9082 13.082 27.888 13.0667 27.8627 13.0514C27.8224 13.0259 27.782 13.0106 27.7365 13.0004C27.7214 13.0004 27.7062 12.985 27.6911 12.9799C27.681 12.9799 27.6659 12.9799 27.6558 12.9799C27.6406 12.9799 27.6255 12.9697 27.6103 12.9697C27.58 12.9697 27.5498 12.985 27.5195 12.9901C27.4942 12.9901 27.469 12.9952 27.4437 13.0055C27.3882 13.0259 27.3377 13.0565 27.2923 13.0973C27.2822 13.1024 27.2721 13.1075 27.262 13.1126L25.894 14.4346C25.6921 14.6286 25.687 14.9501 25.8788 15.1543C26.0707 15.3585 26.3937 15.3636 26.5906 15.1696L26.8733 14.894C25.8031 18.1556 21.1084 20.6209 15.4949 20.6209C9.88149 20.6209 5.18677 18.1556 4.11658 14.894L4.39928 15.1696C4.6012 15.3636 4.91923 15.3585 5.11105 15.1543C5.30288 14.9501 5.29783 14.6286 5.09591 14.4346L3.72788 13.1126C3.72788 13.1126 3.70769 13.1024 3.69759 13.0973C3.65216 13.0616 3.60168 13.0259 3.54615 13.0055C3.52091 12.9952 3.49567 12.9952 3.47043 12.9901C3.44014 12.985 3.40985 12.9697 3.37956 12.9697C3.36442 12.9697 3.34928 12.9799 3.33413 12.9799C3.32403 12.9799 3.30889 12.9799 3.29879 12.9799C3.28365 12.9799 3.26851 12.9952 3.25336 13.0004C3.20793 13.0106 3.16754 13.031 3.12716 13.0514C3.10192 13.0667 3.08173 13.0769 3.06153 13.0973C3.02115 13.128 2.99591 13.1688 2.96562 13.2096C2.95553 13.2249 2.94038 13.2351 2.93028 13.2505L2.05192 14.9501C1.92067 15.2002 2.01658 15.5065 2.26394 15.6392H2.27403Z" fill="#282828"/>
<path d="M20.9822 14.1999C22.7793 13.5976 24.0817 11.8877 24.0817 9.86133C24.0817 6.21186 19.5637 0.72998 19.5637 0.72998C19.5637 0.72998 18.1654 2.42456 16.9236 4.55811C18.2209 6.29352 21.0276 10.3973 21.0276 13.5159C21.0276 13.7456 21.0125 13.9753 20.9822 14.1999Z" fill="#282828"/>
<path d="M10.0178 14.1999C9.9875 13.9753 9.97236 13.7456 9.97236 13.5159C9.97236 10.3973 12.7791 6.29352 14.0764 4.55811C12.8346 2.42456 11.4363 0.72998 11.4363 0.72998C11.4363 0.72998 6.91827 6.21186 6.91827 9.86133C6.91827 11.8877 8.22068 13.5976 10.0178 14.1999Z" fill="#282828"/>
<path d="M15.5 18.0843C17.9937 18.0843 20.018 16.0376 20.018 13.5161C20.018 9.86154 15.5 4.38477 15.5 4.38477C15.5 4.38477 10.982 9.86664 10.982 13.5161C10.982 16.0376 13.0062 18.0843 15.5 18.0843ZM15.5 15.5323C16.6005 15.5323 17.494 14.6288 17.494 13.5161C17.494 13.2354 17.7211 13.0057 17.9988 13.0057C18.2764 13.0057 18.5036 13.2354 18.5036 13.5161C18.5036 15.1903 17.1558 16.5531 15.5 16.5531C15.2223 16.5531 14.9952 16.3234 14.9952 16.0427C14.9952 15.762 15.2223 15.5323 15.5 15.5323Z" fill="#282828"/>
</g>
<defs>
<clipPath id="clip0_1434_7839">
<rect width="30" height="28" fill="white" transform="translate(0.5 0.000976562)"/>
</clipPath>
</defs>
</svg>
