<svg width="29" height="28" viewBox="0 0 29 28" fill="none" xmlns="http://www.w3.org/2000/svg">
<g clip-path="url(#clip0_1434_7836)">
<path d="M10.4167 12.98H4.29167C3.47945 12.98 2.70049 12.6573 2.12616 12.083C1.55183 11.5087 1.22917 10.7297 1.22917 9.91748V3.79248C1.22917 2.98026 1.55183 2.2013 2.12616 1.62697C2.70049 1.05264 3.47945 0.72998 4.29167 0.72998H10.4167C11.2289 0.72998 12.0079 1.05264 12.5822 1.62697C13.1565 2.2013 13.4792 2.98026 13.4792 3.79248V9.91748C13.4792 10.7297 13.1565 11.5087 12.5822 12.083C12.0079 12.6573 11.2289 12.98 10.4167 12.98ZM4.29167 2.77165C4.02093 2.77165 3.76128 2.8792 3.56983 3.07064C3.37839 3.26209 3.27084 3.52174 3.27084 3.79248V9.91748C3.27084 10.1882 3.37839 10.4479 3.56983 10.6393C3.76128 10.8308 4.02093 10.9383 4.29167 10.9383H10.4167C10.6874 10.9383 10.9471 10.8308 11.1385 10.6393C11.33 10.4479 11.4375 10.1882 11.4375 9.91748V3.79248C11.4375 3.52174 11.33 3.26209 11.1385 3.07064C10.9471 2.8792 10.6874 2.77165 10.4167 2.77165H4.29167Z" fill="#282828"/>
<path d="M24.7083 12.98H18.5833C17.7711 12.98 16.9921 12.6573 16.4178 12.083C15.8435 11.5087 15.5208 10.7297 15.5208 9.91748V3.79248C15.5208 2.98026 15.8435 2.2013 16.4178 1.62697C16.9921 1.05264 17.7711 0.72998 18.5833 0.72998H24.7083C25.5206 0.72998 26.2995 1.05264 26.8738 1.62697C27.4482 2.2013 27.7708 2.98026 27.7708 3.79248V9.91748C27.7708 10.7297 27.4482 11.5087 26.8738 12.083C26.2995 12.6573 25.5206 12.98 24.7083 12.98ZM18.5833 2.77165C18.3126 2.77165 18.0529 2.8792 17.8615 3.07064C17.67 3.26209 17.5625 3.52174 17.5625 3.79248V9.91748C17.5625 10.1882 17.67 10.4479 17.8615 10.6393C18.0529 10.8308 18.3126 10.9383 18.5833 10.9383H24.7083C24.9791 10.9383 25.2387 10.8308 25.4302 10.6393C25.6216 10.4479 25.7292 10.1882 25.7292 9.91748V3.79248C25.7292 3.52174 25.6216 3.26209 25.4302 3.07064C25.2387 2.8792 24.9791 2.77165 24.7083 2.77165H18.5833Z" fill="#282828"/>
<path d="M10.4167 27.272H4.29167C3.47945 27.272 2.70049 26.9493 2.12616 26.375C1.55183 25.8007 1.22917 25.0217 1.22917 24.2095V18.0845C1.22917 17.2722 1.55183 16.4933 2.12616 15.919C2.70049 15.3446 3.47945 15.022 4.29167 15.022H10.4167C11.2289 15.022 12.0079 15.3446 12.5822 15.919C13.1565 16.4933 13.4792 17.2722 13.4792 18.0845V24.2095C13.4792 25.0217 13.1565 25.8007 12.5822 26.375C12.0079 26.9493 11.2289 27.272 10.4167 27.272ZM4.29167 17.0636C4.02093 17.0636 3.76128 17.1712 3.56983 17.3626C3.37839 17.5541 3.27084 17.8137 3.27084 18.0845V24.2095C3.27084 24.4802 3.37839 24.7399 3.56983 24.9313C3.76128 25.1228 4.02093 25.2303 4.29167 25.2303H10.4167C10.6874 25.2303 10.9471 25.1228 11.1385 24.9313C11.33 24.7399 11.4375 24.4802 11.4375 24.2095V18.0845C11.4375 17.8137 11.33 17.5541 11.1385 17.3626C10.9471 17.1712 10.6874 17.0636 10.4167 17.0636H4.29167Z" fill="#282828"/>
<path d="M21.6458 27.272C20.4344 27.272 19.2502 26.9128 18.243 26.2397C17.2357 25.5667 16.4507 24.6101 15.9871 23.4909C15.5235 22.3717 15.4022 21.1402 15.6385 19.952C15.8749 18.7639 16.4582 17.6725 17.3148 16.8159C18.1714 15.9593 19.2628 15.376 20.4509 15.1397C21.639 14.9033 22.8706 15.0246 23.9898 15.4882C25.109 15.9518 26.0656 16.7369 26.7386 17.7441C27.4116 18.7514 27.7708 19.9356 27.7708 21.147C27.7692 22.7709 27.1234 24.3279 25.9751 25.4762C24.8268 26.6245 23.2698 27.2704 21.6458 27.272ZM21.6458 17.0636C20.8382 17.0636 20.0488 17.3031 19.3773 17.7518C18.7058 18.2005 18.1824 18.8382 17.8733 19.5844C17.5643 20.3305 17.4834 21.1515 17.641 21.9436C17.7985 22.7357 18.1874 23.4633 18.7585 24.0343C19.3295 24.6054 20.0571 24.9943 20.8492 25.1518C21.6413 25.3094 22.4623 25.2285 23.2085 24.9195C23.9546 24.6104 24.5923 24.0871 25.041 23.4156C25.4897 22.7441 25.7292 21.9546 25.7292 21.147C25.7292 20.064 25.299 19.0254 24.5332 18.2596C23.7674 17.4939 22.7288 17.0636 21.6458 17.0636Z" fill="#282828"/>
</g>
<defs>
<clipPath id="clip0_1434_7836">
<rect width="28" height="28" fill="white" transform="translate(0.5 0.000976562)"/>
</clipPath>
</defs>
</svg>
