<svg width="28" height="28" viewBox="0 0 28 28" fill="none" xmlns="http://www.w3.org/2000/svg">
<g clip-path="url(#clip0_1608_93)">
<path fill-rule="evenodd" clip-rule="evenodd" d="M7.37823 0.773193C11.2114 0.773193 14.3189 3.88065 14.3189 7.71386C14.3189 11.5471 11.2114 14.6545 7.37823 14.6545C3.54501 14.6545 0.437561 11.5471 0.437561 7.71386C0.437561 3.88065 3.54501 0.773193 7.37823 0.773193ZM20.8017 20.2339C23.9444 20.2339 26.6032 22.306 27.4865 25.1584C27.6417 25.6596 27.5574 26.1582 27.2461 26.5804C26.9348 27.0027 26.4835 27.2307 25.9588 27.2307H15.6445C15.1199 27.2307 14.6686 27.0027 14.3572 26.5804C14.0459 26.1581 13.9616 25.6595 14.1168 25.1584C15.0001 22.306 17.659 20.2339 20.8017 20.2339ZM20.8017 12.2138C22.7555 12.2138 24.3393 13.7977 24.3393 15.7514C24.3393 17.7052 22.7555 19.2891 20.8017 19.2891C18.8479 19.2891 17.2641 17.7052 17.2641 15.7514C17.2641 13.7977 18.848 12.2138 20.8017 12.2138ZM20.1987 7.98385V9.052C20.1987 9.10691 20.1697 9.15394 20.1208 9.17877C20.0718 9.2036 20.0168 9.19906 19.9725 9.16658L16.7919 6.83306C16.7555 6.80637 16.7354 6.76815 16.7339 6.72303C16.7325 6.67791 16.7501 6.63848 16.7847 6.6095L19.9654 3.94742C20.0087 3.91116 20.0656 3.90372 20.1167 3.92762C20.1679 3.95152 20.1987 3.99987 20.1987 4.05636V5.04866C25.1576 5.04866 26.7841 8.69435 25.3433 11.287C24.5463 8.18373 21.9441 7.98385 20.1987 7.98385ZM8.88322 21.8122V20.7634C8.88322 20.7045 8.91423 20.6541 8.96673 20.6275C9.01929 20.6009 9.07829 20.6057 9.12576 20.6406L12.2819 22.956C12.3209 22.9846 12.3425 23.0256 12.3441 23.074C12.3456 23.1224 12.3267 23.1647 12.2895 23.1958L9.13342 25.8373C9.08699 25.8762 9.02601 25.8842 8.97111 25.8585C8.9162 25.8329 8.88322 25.781 8.88322 25.7204V24.7493C3.92088 24.7493 2.29333 21.1011 3.735 18.5067C4.53256 21.6122 7.13656 21.8122 8.88322 21.8122ZM7.37828 1.97643C5.79398 1.97643 4.35964 2.61862 3.32134 3.65692C2.28305 4.69522 1.64085 6.12956 1.64085 7.71386C1.64085 9.29815 2.28305 10.7325 3.32134 11.7708C4.35964 12.8091 5.79398 13.4513 7.37828 13.4513C8.96258 13.4513 10.3969 12.8091 11.4352 11.7708C12.4735 10.7325 13.1157 9.29815 13.1157 7.71386C13.1157 6.12956 12.4735 4.69522 11.4352 3.65692C10.3969 2.61862 8.96252 1.97643 7.37828 1.97643ZM10.8165 4.27554C9.93667 3.39562 8.72102 2.85143 7.37828 2.85143C6.03554 2.85143 4.81989 3.39568 3.93997 4.27554C3.0601 5.15547 2.51585 6.37106 2.51585 7.71386C2.51585 9.0566 3.0601 10.2722 3.93997 11.1522C4.81989 12.032 6.03548 12.5763 7.37828 12.5763C8.72102 12.5763 9.93667 12.032 10.8165 11.1522C11.6965 10.2722 12.2407 9.05665 12.2407 7.71386C12.2407 6.37106 11.6964 5.15547 10.8165 4.27554ZM9.3484 5.93208C9.06916 5.26703 8.53749 4.88274 7.9531 4.73465C7.90995 4.72371 7.86647 4.71414 7.82278 4.70583V4.36009C7.82278 4.11476 7.62388 3.91592 7.37855 3.91592C7.13322 3.91592 6.93438 4.11482 6.93438 4.36009V4.71244L6.93411 4.7125C6.5968 4.78042 6.28005 4.92272 6.02493 5.1302C5.63309 5.44876 5.38465 5.9113 5.41265 6.48804C5.44076 7.06751 5.72989 7.45617 6.1325 7.719C6.48354 7.94814 6.91469 8.0667 7.31227 8.132C7.63181 8.18444 7.97295 8.2674 8.23212 8.42386C8.4396 8.5491 8.59546 8.73219 8.62871 9.00651C8.63314 9.04304 8.63554 9.06956 8.63593 9.08657C8.64112 9.30477 8.53672 9.47108 8.37999 9.59002C8.18388 9.73883 7.90858 9.82654 7.63323 9.85996C7.55831 9.86904 7.4929 9.87418 7.4374 9.87549C7.1114 9.88331 6.78973 9.80347 6.53844 9.63612C6.33211 9.49869 6.17444 9.29772 6.1086 9.03363C6.05014 8.79596 5.81012 8.65071 5.57244 8.70917C5.33477 8.76763 5.18952 9.00765 5.24798 9.24533C5.37218 9.74342 5.6658 10.12 6.04915 10.3753C6.31122 10.5499 6.61561 10.6652 6.93438 10.7213V11.0676C6.93438 11.313 7.13328 11.5118 7.37855 11.5118C7.62388 11.5118 7.82278 11.3129 7.82278 11.0676V10.7298C8.21002 10.6709 8.60465 10.5296 8.91445 10.2946C9.28638 10.0124 9.53384 9.60818 9.52094 9.06584C9.51946 9.00383 9.5159 8.94914 9.51027 8.90249C9.43814 8.3082 9.11658 7.92134 8.69029 7.66393C8.31573 7.4378 7.86648 7.32514 7.45462 7.25755C7.1574 7.20871 6.84431 7.12613 6.61495 6.9764C6.43711 6.86029 6.30958 6.69224 6.29765 6.44642C6.28475 6.18053 6.4008 5.96604 6.58372 5.81735C6.72695 5.70092 6.90966 5.61998 7.10769 5.58012C7.31101 5.53915 7.52938 5.54238 7.73801 5.59526C8.0692 5.67921 8.37075 5.89752 8.52951 6.27563C8.62439 6.50176 8.88465 6.60824 9.11078 6.51336C9.3368 6.41847 9.44328 6.15822 9.3484 5.93208Z" fill="#282828"/>
</g>
<defs>
<clipPath id="clip0_1608_93">
<rect width="28" height="28" fill="white" transform="translate(0 0.00195312)"/>
</clipPath>
</defs>
</svg>
