<svg width="28" height="28" viewBox="0 0 28 28" fill="none" xmlns="http://www.w3.org/2000/svg">
<g clip-path="url(#clip0_1434_7842)">
<path fill-rule="evenodd" clip-rule="evenodd" d="M2.61519 1.53944C2.02053 1.53944 1.53846 2.02149 1.53846 2.61636V11.1702C1.53846 11.595 1.19407 11.9394 0.769231 11.9394C0.344396 11.9394 0 11.595 0 11.1702V2.61636C0 1.17203 1.17065 0.000976562 2.61519 0.000976562H10.9231C11.3479 0.000976562 11.6923 0.345373 11.6923 0.770207C11.6923 1.19504 11.3479 1.53944 10.9231 1.53944H2.61519Z" fill="#282828"/>
<path fill-rule="evenodd" clip-rule="evenodd" d="M25.3848 1.53944C25.9795 1.53944 26.4615 2.02149 26.4615 2.61636V11.1702C26.4615 11.595 26.8059 11.9394 27.2308 11.9394C27.6556 11.9394 28 11.595 28 11.1702V2.61636C28 1.17203 26.8294 0.000976562 25.3848 0.000976562H17.0769C16.6521 0.000976562 16.3077 0.345373 16.3077 0.770207C16.3077 1.19504 16.6521 1.53944 17.0769 1.53944H25.3848Z" fill="#282828"/>
<path fill-rule="evenodd" clip-rule="evenodd" d="M2.61519 26.4625C2.02053 26.4625 1.53846 25.9805 1.53846 25.3856V16.8317C1.53846 16.4069 1.19407 16.0625 0.769231 16.0625C0.344396 16.0625 0 16.4069 0 16.8317V25.3856C0 26.8299 1.17065 28.001 2.61519 28.001H10.9231C11.3479 28.001 11.6923 27.6566 11.6923 27.2317C11.6923 26.8069 11.3479 26.4625 10.9231 26.4625H2.61519Z" fill="#282828"/>
<path fill-rule="evenodd" clip-rule="evenodd" d="M25.3848 26.4625C25.9795 26.4625 26.4615 25.9805 26.4615 25.3856V16.8317C26.4615 16.4069 26.8059 16.0625 27.2308 16.0625C27.6556 16.0625 28 16.4069 28 16.8317V25.3856C28 26.8299 26.8294 28.001 25.3848 28.001H17.0769C16.6521 28.001 16.3077 27.6566 16.3077 27.2317C16.3077 26.8069 16.6521 26.4625 17.0769 26.4625H25.3848Z" fill="#282828"/>
<path fill-rule="evenodd" clip-rule="evenodd" d="M4.4 12.9241H5.47692V14.001V15.0779H4.4V12.9241ZM5.47692 14.001C5.47692 15.0779 5.47704 15.0779 5.47704 15.0779H23.5692V12.9241H5.47704C5.47704 12.9241 5.47692 12.9241 5.47692 14.001Z" fill="#282828"/>
</g>
<defs>
<clipPath id="clip0_1434_7842">
<rect width="28" height="28" fill="white" transform="translate(0 0.000976562)"/>
</clipPath>
</defs>
</svg>
