<svg width="28" height="28" viewBox="0 0 28 28" fill="none" xmlns="http://www.w3.org/2000/svg">
<g clip-path="url(#clip0_1434_7831)">
<path d="M1.4359 7.40391C1.18598 7.40391 0.946304 7.30463 0.769587 7.12791C0.59287 6.9512 0.493591 6.71152 0.493591 6.4616V1.43596C0.493591 1.18604 0.59287 0.946365 0.769587 0.769648C0.946304 0.592931 1.18598 0.493652 1.4359 0.493652H6.46154C6.71146 0.493652 6.95114 0.592931 7.12785 0.769648C7.30457 0.946365 7.40385 1.18604 7.40385 1.43596C7.40385 1.68588 7.30457 1.92556 7.12785 2.10227C6.95114 2.27899 6.71146 2.37827 6.46154 2.37827H2.37821V6.4616C2.37821 6.71152 2.27893 6.9512 2.10221 7.12791C1.92549 7.30463 1.68581 7.40391 1.4359 7.40391Z" fill="#282828"/>
<path d="M10.2308 9.91666C10.0057 9.91726 9.78792 9.8365 9.61765 9.68925L0.82278 2.15079C0.724266 2.07171 0.642658 1.97363 0.582808 1.86239C0.522957 1.75114 0.486086 1.62899 0.474387 1.50321C0.462687 1.37743 0.476398 1.25058 0.514704 1.1302C0.55301 1.00982 0.61513 0.898377 0.697369 0.802488C0.779608 0.706598 0.880288 0.628223 0.993423 0.572023C1.10656 0.515822 1.22984 0.482943 1.35594 0.475341C1.48203 0.467738 1.60837 0.485568 1.72744 0.527769C1.84651 0.569969 1.95587 0.63568 2.04904 0.720995L10.8439 8.25946C10.9899 8.3848 11.094 8.55182 11.1422 8.73807C11.1905 8.92432 11.1805 9.12088 11.1138 9.30133C11.047 9.48177 10.9266 9.63745 10.7688 9.74746C10.6109 9.85746 10.4232 9.91651 10.2308 9.91666Z" fill="#282828"/>
<path d="M6.46154 27.5064H1.4359C1.18598 27.5064 0.946304 27.4072 0.769587 27.2305C0.59287 27.0537 0.493591 26.8141 0.493591 26.5641V21.5385C0.493591 21.2886 0.59287 21.0489 0.769587 20.8722C0.946304 20.6955 1.18598 20.5962 1.4359 20.5962C1.68581 20.5962 1.92549 20.6955 2.10221 20.8722C2.27893 21.0489 2.37821 21.2886 2.37821 21.5385V25.6218H6.46154C6.71146 25.6218 6.95114 25.7211 7.12785 25.8978C7.30457 26.0745 7.40385 26.3142 7.40385 26.5641C7.40385 26.8141 7.30457 27.0537 7.12785 27.2305C6.95114 27.4072 6.71146 27.5064 6.46154 27.5064Z" fill="#282828"/>
<path d="M1.4359 27.5066C1.2435 27.5065 1.05576 27.4474 0.897908 27.3374C0.740057 27.2274 0.619662 27.0718 0.552901 26.8913C0.486141 26.7109 0.476215 26.5143 0.524459 26.3281C0.572702 26.1418 0.676802 25.9748 0.822769 25.8494L9.61764 18.311C9.8084 18.1579 10.0512 18.0849 10.2948 18.1076C10.5383 18.1302 10.7635 18.2467 10.9228 18.4324C11.082 18.618 11.1628 18.8584 11.1481 19.1025C11.1334 19.3467 11.0243 19.5756 10.8439 19.7408L2.04903 27.2792C1.87846 27.426 1.66091 27.5067 1.4359 27.5066Z" fill="#282828"/>
<path d="M26.5641 27.5064H21.5385C21.2886 27.5064 21.0489 27.4072 20.8722 27.2305C20.6954 27.0537 20.5962 26.8141 20.5962 26.5641C20.5962 26.3142 20.6954 26.0745 20.8722 25.8978C21.0489 25.7211 21.2886 25.6218 21.5385 25.6218H25.6218V21.5385C25.6218 21.2886 25.7211 21.0489 25.8978 20.8722C26.0745 20.6955 26.3142 20.5962 26.5641 20.5962C26.814 20.5962 27.0537 20.6955 27.2304 20.8722C27.4071 21.0489 27.5064 21.2886 27.5064 21.5385V26.5641C27.5064 26.8141 27.4071 27.0537 27.2304 27.2305C27.0537 27.4072 26.814 27.5064 26.5641 27.5064Z" fill="#282828"/>
<path d="M26.5641 27.5063C26.339 27.5069 26.1212 27.4262 25.951 27.2789L20.0572 22.2282C19.9613 22.1482 19.8823 22.0499 19.8248 21.9391C19.7673 21.8283 19.7323 21.7072 19.722 21.5828C19.7117 21.4584 19.7261 21.3332 19.7646 21.2144C19.8031 21.0956 19.8648 20.9857 19.9461 20.891C20.0274 20.7963 20.1267 20.7187 20.2383 20.6627C20.3499 20.6066 20.4715 20.5734 20.596 20.5647C20.7205 20.5561 20.8456 20.5723 20.9638 20.6124C21.082 20.6526 21.1911 20.7157 21.2847 20.7984L27.1772 25.8491C27.3232 25.9745 27.4273 26.1415 27.4755 26.3278C27.5238 26.514 27.5139 26.7106 27.4471 26.891C27.3803 27.0714 27.2599 27.2271 27.1021 27.3371C26.9442 27.4471 26.7565 27.5062 26.5641 27.5063Z" fill="#282828"/>
<path d="M18.9628 20.9858C18.7389 20.9864 18.5222 20.9066 18.3522 20.7609L17.1586 19.7432C16.9745 19.5795 16.8618 19.3502 16.8447 19.1044C16.8276 18.8586 16.9075 18.6159 17.0672 18.4282C17.2269 18.2406 17.4537 18.123 17.6991 18.1006C17.9444 18.0782 18.1888 18.1528 18.3798 18.3084L19.5747 19.3261C19.7215 19.4511 19.8265 19.6182 19.8753 19.8048C19.9242 19.9914 19.9146 20.1885 19.8479 20.3694C19.7812 20.5504 19.6605 20.7065 19.5022 20.8167C19.344 20.927 19.1557 20.986 18.9628 20.9858Z" fill="#282828"/>
<path d="M26.5641 7.40391C26.3142 7.40391 26.0745 7.30463 25.8978 7.12791C25.7211 6.9512 25.6218 6.71152 25.6218 6.4616V2.37827H21.5385C21.2886 2.37827 21.0489 2.27899 20.8722 2.10227C20.6954 1.92556 20.5962 1.68588 20.5962 1.43596C20.5962 1.18604 20.6954 0.946365 20.8722 0.769648C21.0489 0.592931 21.2886 0.493652 21.5385 0.493652H26.5641C26.814 0.493652 27.0537 0.592931 27.2304 0.769648C27.4071 0.946365 27.5064 1.18604 27.5064 1.43596V6.4616C27.5064 6.71152 27.4071 6.9512 27.2304 7.12791C27.0537 7.30463 26.814 7.40391 26.5641 7.40391Z" fill="#282828"/>
<path d="M17.7692 9.91666C17.5768 9.91651 17.3891 9.85746 17.2313 9.74746C17.0734 9.63745 16.953 9.48177 16.8862 9.30133C16.8195 9.12088 16.8096 8.92432 16.8578 8.73807C16.906 8.55182 17.0101 8.3848 17.1561 8.25946L25.951 0.720995C26.0441 0.63568 26.1535 0.569969 26.2726 0.527769C26.3917 0.485568 26.518 0.467738 26.6441 0.475341C26.7702 0.482943 26.8935 0.515822 27.0066 0.572023C27.1197 0.628223 27.2204 0.706598 27.3027 0.802488C27.3849 0.898377 27.447 1.00982 27.4853 1.1302C27.5236 1.25058 27.5373 1.37743 27.5256 1.50321C27.5139 1.62899 27.4771 1.75114 27.4172 1.86239C27.3574 1.97363 27.2758 2.07171 27.1772 2.15079L18.3824 9.68925C18.2118 9.83601 17.9943 9.9167 17.7692 9.91666Z" fill="#282828"/>
</g>
<defs>
<clipPath id="clip0_1434_7831">
<rect width="28" height="28" fill="white"/>
</clipPath>
</defs>
</svg>
