<svg width="21" height="28" viewBox="0 0 21 28" fill="none" xmlns="http://www.w3.org/2000/svg">
<g clip-path="url(#clip0_1434_7824)">
<path d="M2.33401 6.73914C2.14879 6.59933 1.91561 6.53883 1.68578 6.57094C1.45594 6.60305 1.24828 6.72515 1.10847 6.91037C0.968654 7.09559 0.908148 7.32877 0.94026 7.5586C0.972371 7.78844 1.09447 7.9961 1.27969 8.13592L9.04772 14L1.27969 19.8641C1.18798 19.9334 1.11081 20.02 1.05257 20.1191C0.994339 20.2181 0.956187 20.3277 0.940295 20.4415C0.924403 20.5553 0.931082 20.6711 0.959951 20.7823C0.988819 20.8936 1.03931 20.998 1.10855 21.0897C1.17778 21.1814 1.2644 21.2586 1.36346 21.3168C1.46252 21.3751 1.57208 21.4132 1.68589 21.4291C1.79969 21.445 1.91552 21.4383 2.02674 21.4095C2.13796 21.3806 2.24241 21.3301 2.33412 21.2609L9.625 15.7569V27.125C9.625 27.2877 9.67038 27.4472 9.75604 27.5856C9.8417 27.724 9.96425 27.8357 10.1099 27.9082C10.2556 27.9808 10.4186 28.0113 10.5806 27.9963C10.7427 27.9813 10.8973 27.9214 11.0272 27.8234L19.7204 21.2609C19.8285 21.1793 19.9161 21.0738 19.9765 20.9526C20.0368 20.8314 20.0682 20.6979 20.0682 20.5625C20.0682 20.4271 20.0368 20.2936 19.9765 20.1724C19.9161 20.0512 19.8285 19.9457 19.7204 19.8641L11.9523 14L19.7203 8.13586C19.8284 8.0543 19.916 7.94877 19.9764 7.82759C20.0367 7.70641 20.0681 7.57288 20.0681 7.4375C20.0681 7.30212 20.0367 7.16859 19.9764 7.04741C19.916 6.92623 19.8284 6.82071 19.7203 6.73914L11.0272 0.176646C10.8973 0.078601 10.7427 0.0187168 10.5806 0.00372269C10.4186 -0.0112715 10.2556 0.0192185 10.1099 0.0917666C9.96425 0.164315 9.8417 0.276046 9.75604 0.414407C9.67038 0.552768 9.625 0.712274 9.625 0.875005V12.2431L2.33401 6.73914ZM11.375 25.3682V15.7568L17.7409 20.5625L11.375 25.3682ZM11.375 2.63184L17.7409 7.4375L11.375 12.2432V2.63184Z" fill="#282828"/>
</g>
<defs>
<clipPath id="clip0_1434_7824">
<rect width="20" height="28" fill="white" transform="translate(0.5)"/>
</clipPath>
</defs>
</svg>
