<svg width="28" height="28" viewBox="0 0 28 28" fill="none" xmlns="http://www.w3.org/2000/svg">
<path fill-rule="evenodd" clip-rule="evenodd" d="M17.2278 2.92381L16.5484 3.31608H12.1224C11.8807 3.31608 11.6849 3.51197 11.6849 3.75358C11.6849 3.99519 11.8807 4.19108 12.1224 4.19108H15.0328L14.198 4.67305L24.0207 10.3442V14.5465C24.0207 14.7144 23.9374 14.8586 23.792 14.9426L21.515 16.2571C21.4424 16.2991 21.3591 16.2991 21.2864 16.2571C21.2137 16.2151 21.172 16.143 21.172 16.0591V11.9888L11.3495 6.31761L8.56849 7.92323C8.51916 7.90393 8.46552 7.89337 8.40935 7.89337H0.929742C0.688133 7.89337 0.492242 8.08926 0.492242 8.33087C0.492242 8.57248 0.688133 8.76837 0.929742 8.76837H7.86658C7.86384 8.79812 7.86242 8.82836 7.86242 8.85899V13.5645H3.53385C3.29224 13.5645 3.09635 13.7604 3.09635 14.002C3.09635 14.2436 3.29224 14.4395 3.53385 14.4395H7.86242V18.6887H0.929688C0.688078 18.6887 0.492188 18.8846 0.492188 19.1262C0.492188 19.3679 0.688078 19.5637 0.929688 19.5637H7.96009C8.0378 19.7165 8.16003 19.845 8.31977 19.9373L17.2278 25.0803C17.5186 25.2482 17.8516 25.2482 18.1425 25.0803L27.0505 19.9373C27.3413 19.7694 27.5078 19.481 27.5078 19.1451V8.85899C27.5078 8.52315 27.3413 8.23479 27.0505 8.06684L18.1424 2.92381C17.8516 2.75587 17.5186 2.75587 17.2278 2.92381ZM8.83537 3.31603C9.07698 3.31603 9.27287 3.51192 9.27287 3.75353C9.27287 3.99514 9.07698 4.19103 8.83537 4.19103H2.98703C2.74542 4.19103 2.54953 3.99514 2.54953 3.75353C2.54953 3.51192 2.74542 3.31603 2.98703 3.31603H8.83537Z" fill="#282828"/>
</svg>
