<svg width="28" height="28" viewBox="0 0 28 28" fill="none" xmlns="http://www.w3.org/2000/svg">
<path fill-rule="evenodd" clip-rule="evenodd" d="M17.1246 1.08008L22.7829 3.50503C22.9679 3.58428 23.0812 3.75621 23.0812 3.95741V8.60612C23.0812 12.2565 20.4676 15.0743 16.9308 15.6908C13.394 15.0742 10.7804 12.2565 10.7804 8.60612V3.95741C10.7804 3.75621 10.8937 3.58428 11.0787 3.50503L16.737 1.08008C16.8653 1.02506 16.9962 1.02506 17.1246 1.08008ZM2.50069 18.8217C2.22993 18.8613 2.04257 19.1128 2.08211 19.3836C2.12171 19.6544 2.37327 19.8417 2.64403 19.8021C2.91479 19.7625 3.10214 19.511 3.06255 19.2402C3.02301 18.9695 2.77145 18.7822 2.50069 18.8217ZM3.51771 17.8853L7.59735 25.0936C7.79461 25.4422 7.67079 25.8887 7.32227 26.086L5.93463 26.8714C5.58611 27.0686 5.13953 26.9449 4.94227 26.5963L0.862637 19.3879C0.665379 19.0393 0.789192 18.5928 1.13772 18.3956L2.52536 17.6103C2.87388 17.4129 3.32046 17.5367 3.51771 17.8853ZM12.0705 19.8481C11.8373 19.7858 11.6989 19.5464 11.7611 19.3132C11.8234 19.0801 12.0629 18.9416 12.296 19.0039C13.4195 19.3049 14.5272 19.659 15.6687 19.8897C16.2529 19.9611 16.7408 19.7825 16.9036 19.175C17.052 18.6209 16.7029 18.098 16.1791 17.9172C14.27 17.568 12.6387 16.8591 10.8299 16.2726C9.83357 15.9494 8.88442 16.3812 8.03064 16.8758L4.959 18.6554L7.54632 23.2269L7.76343 23.1016C7.86493 23.0321 7.99503 23.0056 8.12317 23.0399L14.943 24.8673C15.8054 25.0984 16.631 24.9941 17.394 24.5244L26.7956 18.7353C27.2828 18.4353 27.3476 17.6199 27.0587 17.1545C26.427 16.1366 24.6933 16.9714 23.9634 17.3965L18.7823 20.4142C17.6927 21.0487 16.7578 20.9943 15.5584 20.7573L12.0705 19.8481ZM14.5211 8.75591L15.8611 10.0959C16.0947 10.3295 16.4737 10.3295 16.7074 10.0959C17.8555 8.94775 18.1994 8.5884 19.3421 7.43428C19.5746 7.2006 19.5735 6.82271 19.3398 6.59028C19.1061 6.35786 18.7282 6.3589 18.4958 6.59264L16.2833 8.82542L15.3673 7.90956C15.1337 7.67589 14.7547 7.67589 14.521 7.90956C14.2873 8.14324 14.2873 8.52217 14.5211 8.75591ZM16.9308 4.01018C14.5374 4.01018 12.5971 5.95049 12.5971 8.34389C12.5971 10.7372 14.5374 12.6776 16.9308 12.6776C19.3241 12.6776 21.2645 10.7373 21.2645 8.34389C21.2645 5.95055 19.3242 4.01018 16.9308 4.01018Z" fill="#282828"/>
</svg>
