<svg width="370" height="32" viewBox="0 0 370 32" fill="none" xmlns="http://www.w3.org/2000/svg">
<path d="M31.9257 8.00195C28.451 8.00195 25.3313 9.82784 25.3313 13.1784C25.3313 17.0372 30.8422 17.3008 30.8422 19.2208C30.8422 20.0302 29.9081 20.7643 28.3389 20.7643C26.0972 20.7643 24.4159 19.7478 24.4159 19.7478L23.7061 23.1361C23.7061 23.1361 25.6302 24.002 28.2082 24.002C32.0191 24.002 35.008 22.1008 35.008 18.6749C35.008 14.609 29.4785 14.3455 29.4785 12.5572C29.4785 11.9172 30.2444 11.2208 31.8136 11.2208C33.5883 11.2208 35.0454 11.9549 35.0454 11.9549L35.7552 8.6796C35.7366 8.6796 34.1487 8.00195 31.9257 8.00195ZM0.0934045 8.24666L0 8.73607C0 8.73607 1.45711 8.9996 2.78345 9.54548C4.48342 10.1667 4.5955 10.5243 4.8944 11.6349L8.01411 23.7384H12.1986L18.6062 8.24666H14.4403L10.3119 18.7878L8.63058 9.84666C8.48113 8.83019 7.69653 8.24666 6.72512 8.24666H0.0934045ZM20.2875 8.24666L17.0183 23.7384H20.9973L24.2478 8.24666H20.2875ZM42.443 8.24666C41.4903 8.24666 40.9859 8.75489 40.6123 9.65842L34.7838 23.7384H38.9497L39.753 21.3855H44.8342L45.3199 23.7384H49L45.8056 8.24666H42.443ZM42.9848 12.4443L44.2177 18.2608H40.9112L42.9848 12.4443Z" fill="#1434CB"/>
<path d="M90 7.00195H80V24.002H90V7.00195Z" fill="#FF5F00"/>
<path d="M81.5032 15.9994C81.5032 12.6399 83.1651 9.433 85.9674 7.35618C80.8841 3.59959 73.5198 4.42421 69.5118 9.21921C65.5038 13.9837 66.3836 20.886 71.4995 24.6426C75.7682 27.7884 81.7313 27.7884 86 24.6426C83.1651 22.5658 81.5032 19.359 81.5032 15.9994Z" fill="#EB001B"/>
<path d="M104 16.0032C104 22.0831 99.0206 27.002 92.866 27.002C90.3608 27.002 87.9485 26.177 86 24.6494C90.8247 20.8915 91.6598 13.9868 87.8557 9.19012C87.299 8.51798 86.6804 7.87639 86 7.357C90.8247 3.5991 97.8454 4.42401 101.619 9.22068C103.165 11.1455 104 13.5285 104 16.0032Z" fill="#F79E1B"/>
<path d="M103.233 22.4295V22.063H103.4V22.002H103V22.063H103.167V22.4295H103.233ZM104 22.4295V22.002H103.867L103.733 22.3074L103.6 22.002H103.467V22.4295H103.567V22.0936L103.7 22.3684H103.8L103.933 22.0936V22.4295H104Z" fill="#F79E1B"/>
<path d="M122 0.00195312H154V17.2765L152.416 19.7514L154 21.954V32.002H122V15.7173L122.99 14.5789L122 13.49V0.00195312Z" fill="#016FD0"/>
<path d="M128 22.002V17.002H133.363L133.939 17.7424L134.533 17.002H154V21.6571C154 21.6571 153.491 21.997 152.902 22.002H142.123L141.474 21.2138V22.002H139.348V20.6565C139.348 20.6565 139.058 20.8443 138.43 20.8443H137.706V22.002H134.488L133.913 21.2456L133.33 22.002H128Z" fill="white"/>
<path d="M122 13.7852L123.205 11.002H125.288L125.972 12.561V11.002H128.562L128.969 12.1288L129.363 11.002H140.989V11.5685C140.989 11.5685 141.6 11.002 142.605 11.002L146.377 11.015L147.049 12.5537V11.002H149.216L149.813 11.8858V11.002H152V16.002H149.813L149.241 15.1153V16.002H146.057L145.737 15.2138H144.88L144.565 16.002H142.406C141.542 16.002 140.989 15.447 140.989 15.447V16.002H137.733L137.087 15.2138V16.002H124.979L124.659 15.2138H123.806L123.488 16.002H122V13.7852Z" fill="white"/>
<path d="M123.451 11.002L122 15.002H122.945L123.212 14.201H124.768L125.035 15.002H126L124.551 11.002H123.451ZM123.988 11.9329L124.462 13.3325H123.512L123.988 11.9329Z" fill="#016FD0"/>
<path d="M127 15.002V11.002L128.592 11.0079L129.517 13.5868L130.421 11.002H132V15.002H131V12.0546L129.94 15.002H129.063L128 12.0546V15.002H127Z" fill="#016FD0"/>
<path d="M132 15.002V11.002H135V11.8967H132.929V12.5809H134.952V13.423H132.929V14.1335H135V15.002H132Z" fill="#016FD0"/>
<path d="M136 11.002V15.002H137.041V13.5809H137.479L138.728 15.002H140L138.63 13.5283C139.192 13.4827 139.772 13.0192 139.772 12.2997C139.772 11.4579 139.084 11.002 138.317 11.002H136ZM137.041 11.8967H138.231C138.517 11.8967 138.724 12.1112 138.724 12.3177C138.724 12.5835 138.455 12.7388 138.247 12.7388H137.041V11.8967Z" fill="#016FD0"/>
<path d="M140 15.002H139V11.002H140V15.002Z" fill="#016FD0"/>
<path d="M142.877 15.002H142.663C141.628 15.002 141 14.1618 141 13.0184C141 11.8467 141.621 11.002 142.928 11.002H144V11.9493H142.888C142.358 11.9493 141.983 12.3759 141.983 13.0283C141.983 13.8029 142.412 14.1283 143.03 14.1283H143.285L142.877 15.002Z" fill="#016FD0"/>
<path d="M144.451 11.002L143 15.002H143.945L144.212 14.201H145.768L146.035 15.002H147L145.551 11.002H144.451ZM144.988 11.9329L145.462 13.3325H144.512L144.988 11.9329Z" fill="#016FD0"/>
<path d="M148 15.002V11.002H149.306L150.973 13.5151V11.002H152V15.002H150.736L149.027 12.423V15.002H148Z" fill="#016FD0"/>
<path d="M129 22.002V18.002H132V18.8967H129.929V19.5809H131.952V20.423H129.929V21.1335H132V22.002H129Z" fill="#016FD0"/>
<path d="M144 22.002V18.002H147V18.8967H144.929V19.5809H146.942V20.423H144.929V21.1335H147V22.002H144Z" fill="#016FD0"/>
<path d="M132.034 22.002L133.475 20.0266L132 18.002H133.142L134.021 19.2536L134.902 18.002H136L134.544 20.002L135.988 22.002H134.845L133.993 20.77L133.16 22.002H132.034Z" fill="#016FD0"/>
<path d="M136 18.002V22.002H136.845V20.7388H137.711C138.444 20.7388 139 20.2663 139 19.3473C139 18.5861 138.564 18.002 137.818 18.002H136ZM136.845 18.9066H137.757C137.994 18.9066 138.163 19.0829 138.163 19.3671C138.163 19.634 137.995 19.8276 137.755 19.8276H136.845V18.9066Z" fill="#016FD0"/>
<path d="M140 18.002V22.002H141.041V20.5809H141.479L142.728 22.002H144L142.63 20.5283C143.192 20.4827 143.772 20.0192 143.772 19.2997C143.772 18.4579 143.084 18.002 142.317 18.002H140ZM141.041 18.8967H142.231C142.517 18.8967 142.724 19.1112 142.724 19.3177C142.724 19.5835 142.455 19.7388 142.247 19.7388H141.041V18.8967Z" fill="#016FD0"/>
<path d="M147.107 22.002V21.1335H148.792C149.042 21.1335 149.15 20.9735 149.15 20.798C149.15 20.6299 149.042 20.4598 148.792 20.4598H148.031C147.369 20.4598 147 19.9809 147 19.2618C147 18.6205 147.338 18.002 148.321 18.002H149.961L149.607 18.902H148.188C147.917 18.902 147.834 19.0709 147.834 19.2322C147.834 19.398 147.937 19.5809 148.144 19.5809H148.942C149.68 19.5809 150 20.078 150 20.7289C150 21.4288 149.643 22.002 148.902 22.002H147.107Z" fill="#016FD0"/>
<path d="M151.107 22.002V21.1335H152.792C153.042 21.1335 153.15 20.9735 153.15 20.798C153.15 20.6299 153.042 20.4598 152.792 20.4598H152.031C151.369 20.4598 151 19.9809 151 19.2618C151 18.6205 151.338 18.002 152.321 18.002H153.961L153.607 18.902H152.188C151.917 18.902 151.834 19.0709 151.834 19.2322C151.834 19.398 151.937 19.5809 152.144 19.5809H152.942C153.68 19.5809 154 20.078 154 20.7289C154 21.4288 153.643 22.002 152.902 22.002H151.107Z" fill="#016FD0"/>
<path d="M200.766 11.6667C200.422 8.98289 199.459 6.53996 197.773 4.75077C195.985 3.0648 193.542 2.1014 190.859 1.75732C188.279 1.41325 186.524 1.51647 186.524 1.51647C186.524 1.51647 184.77 1.44765 182.189 1.75732C179.506 2.1014 177.064 3.0648 175.275 4.75077C173.589 6.53996 172.626 8.98289 172.282 11.6667C171.938 14.2472 172.007 16.002 172.007 16.002C172.007 16.002 171.938 17.7568 172.247 20.3373C172.591 23.0208 173.555 25.4641 175.24 27.2532C177.029 28.9392 179.472 29.9023 182.155 30.2463C184.735 30.5904 186.49 30.4875 186.49 30.4875C186.49 30.4875 188.244 30.556 190.824 30.2463C193.508 29.9023 195.95 28.9392 197.739 27.2532C199.425 25.4644 200.388 23.0208 200.732 20.3373C201.076 17.7568 200.973 16.002 200.973 16.002C200.973 16.002 201.11 14.2472 200.766 11.6667Z" fill="#1E4BC6"/>
<path d="M177 11.502H179.65C180.068 11.502 180.417 11.5682 180.765 11.7006C181.114 11.8331 181.393 12.0318 181.637 12.2635C181.881 12.4953 182.09 12.7602 182.229 13.0914C182.369 13.4225 182.439 13.7536 182.439 14.1178C182.439 14.4821 182.369 14.8132 182.229 15.1443C182.09 15.4755 181.881 15.7407 181.637 15.9722C181.393 16.2036 181.079 16.4029 180.765 16.5347C180.451 16.6672 180.068 16.7341 179.65 16.7341H178.464V18.8198H177.035V11.502H177ZM178.429 12.7606V15.4427H179.545C179.754 15.4427 179.963 15.4096 180.138 15.3433C180.312 15.2771 180.451 15.1778 180.591 15.0453C180.73 14.9129 180.8 14.7804 180.87 14.6149C180.939 14.4493 180.974 14.2837 180.974 14.0851C180.974 13.8864 180.939 13.7208 180.87 13.5553C180.8 13.3897 180.695 13.2573 180.591 13.1248C180.451 12.9924 180.312 12.893 180.138 12.8268C179.963 12.7606 179.754 12.7275 179.545 12.7275H178.429V12.7606ZM185.75 18.8198C185.367 18.8198 185.018 18.7539 184.635 18.6212C184.286 18.4887 183.938 18.29 183.659 18.0586C183.38 17.7933 183.136 17.4953 182.961 17.1311C182.787 16.7669 182.683 16.3364 182.683 15.8728C182.683 15.4092 182.752 14.9788 182.927 14.6145C183.101 14.2503 183.345 13.9523 183.624 13.6874C183.903 13.4225 184.251 13.2569 184.6 13.1245C184.983 12.992 185.332 12.9258 185.75 12.9258C186.169 12.9258 186.552 12.992 186.866 13.1245C187.215 13.2569 187.494 13.4556 187.738 13.6874V12.9258H189.167V18.8195H187.738V17.9917C187.528 18.2569 187.215 18.4553 186.866 18.6208C186.517 18.7539 186.169 18.8198 185.75 18.8198ZM185.994 17.595C186.273 17.595 186.517 17.5619 186.727 17.4625C186.936 17.3632 187.145 17.2639 187.319 17.0983C187.494 16.9327 187.598 16.7672 187.703 16.5685C187.807 16.3692 187.842 16.1377 187.842 15.9063C187.842 15.6741 187.807 15.4424 187.703 15.244C187.598 15.0453 187.494 14.8467 187.319 14.7142C187.145 14.5486 186.971 14.4493 186.727 14.35C186.483 14.2175 186.239 14.1844 185.994 14.1844C185.75 14.1844 185.506 14.2175 185.262 14.3169C185.018 14.4162 184.844 14.5155 184.67 14.6811C184.495 14.8467 184.356 15.0122 184.286 15.2109C184.182 15.4096 184.147 15.6414 184.147 15.8731C184.147 16.1049 184.182 16.3364 184.286 16.5351C184.391 16.7344 184.53 16.9327 184.67 17.0983C184.844 17.2639 185.053 17.3629 185.262 17.4625C185.472 17.5284 185.716 17.595 185.994 17.595ZM191.154 12.9589L192.897 16.9655L194.501 12.9589H196L192.339 21.502H190.875L192.165 18.5553L189.655 12.9589H191.154Z" fill="white"/>
<path d="M230.694 6.354C229.944 7.23221 228.744 7.92488 227.544 7.82593C227.394 6.63849 227.981 5.37683 228.669 4.59758C229.419 3.69463 230.732 3.05143 231.794 3.00195C231.919 4.23887 231.432 5.45105 230.694 6.354ZM231.782 8.06094C230.044 7.96199 228.556 9.03811 227.731 9.03811C226.894 9.03811 225.631 8.11042 224.256 8.13516C222.468 8.1599 220.805 9.1618 219.893 10.7574C218.018 13.9487 219.405 18.6737 221.218 21.2712C222.106 22.5576 223.168 23.9677 224.568 23.9182C225.893 23.8687 226.419 23.0647 228.019 23.0647C229.631 23.0647 230.094 23.9182 231.494 23.8935C232.944 23.8687 233.857 22.6071 234.744 21.3207C235.757 19.8611 236.17 18.4387 236.195 18.3645C236.17 18.3397 233.394 17.2883 233.369 14.1218C233.344 11.4748 235.557 10.2132 235.657 10.139C234.407 8.30833 232.457 8.11042 231.782 8.06094ZM241.82 4.47388V23.7574H244.846V17.1647H249.034C252.859 17.1647 255.547 14.5671 255.547 10.8069C255.547 7.04667 252.909 4.47388 249.134 4.47388H241.82ZM244.846 6.9972H248.334C250.959 6.9972 252.459 8.38254 252.459 10.8193C252.459 13.256 250.959 14.6537 248.321 14.6537H244.846V6.9972ZM261.072 23.9059C262.973 23.9059 264.735 22.9534 265.535 21.4444H265.598V23.7574H268.398V14.1589C268.398 11.3759 266.148 9.58235 262.685 9.58235C259.472 9.58235 257.097 11.4006 257.01 13.8992H259.735C259.96 12.7118 261.072 11.9325 262.598 11.9325C264.448 11.9325 265.485 12.786 265.485 14.3569V15.4206L261.71 15.6432C258.197 15.8535 256.297 17.276 256.297 19.7498C256.297 22.2484 258.26 23.9059 261.072 23.9059ZM261.885 21.6176C260.272 21.6176 259.247 20.8507 259.247 19.6756C259.247 18.4634 260.235 17.7584 262.123 17.6471L265.485 17.4368V18.5253C265.485 20.3312 263.935 21.6176 261.885 21.6176ZM272.136 29.002C275.087 29.002 276.474 27.8887 277.687 24.5119L283 9.76789H279.925L276.362 21.1599H276.299L272.736 9.76789H269.573L274.699 23.8069L274.424 24.6604C273.961 26.1076 273.211 26.6642 271.874 26.6642C271.636 26.6642 271.174 26.6394 270.986 26.6147V28.9277C271.161 28.9772 271.911 29.002 272.136 29.002Z" fill="#0B0B0B"/>
<path d="M333.599 16.415V24.502H331V4.50195H337.76C339.406 4.50195 340.965 5.1095 342.18 6.24032C343.393 7.28279 344 8.84854 344 10.5013C344 12.154 343.395 13.6314 342.18 14.7622C340.966 15.8931 339.494 16.5006 337.76 16.5006L333.599 16.415ZM333.599 6.9362V13.8937H337.933C338.887 13.8937 339.84 13.5444 340.447 12.8513C341.834 11.5478 341.834 9.37317 340.533 8.06838L340.447 7.98004C339.754 7.28415 338.887 6.84922 337.933 6.93756H333.599V6.9362Z" fill="#0B0B0B"/>
<path d="M349.914 9.50195C351.801 9.50195 353.257 10.0037 354.372 11.0112C355.487 12.0161 356 13.3577 356 15.0346V23.0827H353.6V21.2381H353.516C352.488 22.7473 351.029 23.502 349.315 23.502C347.859 23.502 346.571 23.0827 345.544 22.2455C344.6 21.4071 344 20.2332 344 18.9768C344 17.6352 344.515 16.5478 345.544 15.708C346.571 14.8695 348.028 14.5341 349.744 14.5341C351.288 14.5341 352.488 14.7857 353.43 15.3726V14.787C353.43 13.9485 353.088 13.1113 352.402 12.607C351.716 12.0213 350.859 11.6846 349.916 11.6846C348.459 11.6846 347.344 12.2702 346.573 13.4454L344.343 12.1039C345.714 10.3391 347.515 9.50195 349.914 9.50195ZM346.657 19.0567C346.657 19.7275 346.999 20.3131 347.515 20.6485C348.113 21.0677 348.799 21.3193 349.485 21.3193C350.513 21.3193 351.544 20.9 352.314 20.1467C353.172 19.3908 353.599 18.4711 353.599 17.4636C352.828 16.878 351.712 16.5413 350.256 16.5413C349.228 16.5413 348.369 16.7928 347.685 17.2946C346.999 17.7151 346.657 18.3021 346.657 19.0567Z" fill="#0B0B0B"/>
<path d="M370 10.502L361.174 29.502H358.496L361.797 22.8895L356 10.5844H358.854L363.044 20.0425H363.133L367.235 10.5844H370V10.502Z" fill="#0B0B0B"/>
<path d="M323 13.898C323 13.0979 322.912 12.3006 322.827 11.502H312V16.0265H318.149C317.889 17.4464 317.111 18.7761 315.896 19.5748V22.502H319.621C321.786 20.4622 323 17.445 323 13.898Z" fill="#4285F4"/>
<path d="M312.31 24.502C315.455 24.502 318.076 23.4936 320 21.8096L316.243 19.0344C315.195 19.7075 313.883 20.1282 312.312 20.1282C309.341 20.1282 306.72 18.1943 305.847 15.502H302V18.3626C304.009 22.1474 307.942 24.502 312.31 24.502Z" fill="#34A853"/>
<path d="M306 15.6454C305.485 14.3005 305.485 12.7875 306 11.3598V8.50195H302.224C300.592 11.612 300.592 15.3091 302.224 18.502L306 15.6454Z" fill="#FBBC04"/>
<path d="M312.222 6.87996C313.883 6.87996 315.456 7.4674 316.679 8.5608L320 5.36601C317.902 3.51695 315.107 2.42355 312.31 2.50634C307.939 2.50634 303.923 4.86005 302 8.64491L305.844 11.502C306.631 8.81444 309.252 6.87996 312.222 6.87996Z" fill="#EA4335"/>
</svg>
