<svg width="118" height="21" viewBox="0 0 118 21" fill="none" xmlns="http://www.w3.org/2000/svg">
<rect width="22" height="21" transform="translate(0 0.00195312)" fill="#7ECC18"/>
<path d="M18 8.9704H12.654L11.0027 4.00195L9.34558 8.97082L4 8.96542L8.3295 12.0389L6.67321 17.002L11.0027 13.9335L15.3272 17.002L13.6759 12.0389L18 8.9704Z" fill="white"/>
<path d="M14.0472 13.163L13.6759 12.0389L11.0027 13.9335L14.0472 13.163Z" fill="#00B67A"/>
<rect width="22" height="21" transform="translate(24 0.00195312)" fill="#7ECC18"/>
<path d="M42 8.9704H36.654L35.0027 4.00195L33.3456 8.97082L28 8.96542L32.3295 12.0389L30.6732 17.002L35.0027 13.9335L39.3272 17.002L37.6759 12.0389L42 8.9704Z" fill="white"/>
<path d="M38.0472 13.163L37.6759 12.0389L35.0027 13.9335L38.0472 13.163Z" fill="#00B67A"/>
<rect width="22" height="21" transform="translate(48 0.00195312)" fill="#7ECC18"/>
<path d="M66 8.9704H60.654L59.0027 4.00195L57.3456 8.97082L52 8.96542L56.3295 12.0389L54.6732 17.002L59.0027 13.9335L63.3272 17.002L61.6759 12.0389L66 8.9704Z" fill="white"/>
<path d="M62.0472 13.163L61.6759 12.0389L59.0027 13.9335L62.0472 13.163Z" fill="#00B67A"/>
<rect width="22" height="21" transform="translate(72 0.00195312)" fill="#7ECC18"/>
<path d="M90 8.9704H84.654L83.0027 4.00195L81.3456 8.97082L76 8.96542L80.3295 12.0389L78.6732 17.002L83.0027 13.9335L87.3272 17.002L85.6759 12.0389L90 8.9704Z" fill="white"/>
<path d="M86.0472 13.163L85.6759 12.0389L83.0027 13.9335L86.0472 13.163Z" fill="#00B67A"/>
<rect width="22" height="21" transform="translate(96 0.00195312)" fill="#DCDCDC"/>
<path d="M114 8.9704H108.654L107.003 4.00195L105.346 8.97082L100 8.96542L104.33 12.0389L102.673 17.002L107.003 13.9335L111.327 17.002L109.676 12.0389L114 8.9704Z" fill="white"/>
<path d="M110.047 13.163L109.676 12.0389L107.003 13.9335L110.047 13.163Z" fill="#00B67A"/>
</svg>
