<svg width="38" height="38" viewBox="0 0 38 38" fill="none" xmlns="http://www.w3.org/2000/svg">
<path d="M37.5173 13.7794C37.0782 10.354 35.8486 7.23602 33.6967 4.95244C31.4132 2.80061 28.2952 1.57099 24.8698 1.13184C21.5762 0.69269 19.3365 0.824435 19.3365 0.824435C19.3365 0.824435 17.0969 0.736605 13.8033 1.13184C10.3779 1.57099 7.25993 2.80061 4.97635 4.95244C2.82452 7.23602 1.5949 10.354 1.15575 13.7794C0.716597 17.073 0.804427 19.3126 0.804427 19.3126C0.804427 19.3126 0.716597 21.5523 1.11183 24.8459C1.55098 28.2709 2.7806 31.3893 4.93243 33.6728C7.21601 35.8247 10.334 37.0538 13.7593 37.493C17.053 37.9321 19.2926 37.8008 19.2926 37.8008C19.2926 37.8008 21.5323 37.8882 24.8259 37.493C28.2513 37.0538 31.3692 35.8247 33.6528 33.6728C35.8047 31.3897 37.0343 28.2709 37.4734 24.8459C37.9126 21.5523 37.7808 19.3126 37.7808 19.3126C37.7808 19.3126 37.9565 17.073 37.5173 13.7794Z" fill="#1E4BC6"/>
<path d="M7.61124 13.9111H10.9488C11.4758 13.9111 11.9149 13.999 12.3541 14.1746C12.7932 14.3503 13.1445 14.6138 13.4519 14.9212C13.7593 15.2286 14.0228 15.5799 14.1985 16.0191C14.3741 16.4582 14.462 16.8974 14.462 17.3804C14.462 17.8635 14.3741 18.3026 14.1985 18.7418C14.0228 19.1809 13.7593 19.5327 13.4519 19.8397C13.1445 20.1466 12.7493 20.411 12.3541 20.5858C11.9588 20.7614 11.4758 20.8501 10.9488 20.8501H9.45566V23.6163H7.65515V13.9111H7.61124ZM9.41175 15.5803V19.1375H10.817C11.0805 19.1375 11.344 19.0935 11.5636 19.0057C11.7832 18.9179 11.9588 18.7861 12.1345 18.6105C12.3101 18.4348 12.398 18.2592 12.4858 18.0396C12.5736 17.82 12.6175 17.6004 12.6175 17.3369C12.6175 17.0734 12.5736 16.8539 12.4858 16.6343C12.398 16.4147 12.2662 16.2391 12.1345 16.0634C11.9588 15.8877 11.7832 15.756 11.5636 15.6682C11.344 15.5803 11.0805 15.5364 10.817 15.5364H9.41175V15.5803ZM18.6339 23.6163C18.1508 23.6163 17.7117 23.5289 17.2286 23.3529C16.7895 23.1772 16.3503 22.9137 15.999 22.6067C15.6477 22.255 15.3403 21.8597 15.1207 21.3767C14.9011 20.8936 14.7694 20.3227 14.7694 19.7079C14.7694 19.0931 14.8572 18.5222 15.0768 18.0391C15.2964 17.5561 15.6038 17.1608 15.9551 16.8095C16.3064 16.4582 16.7455 16.2386 17.1847 16.063C17.6678 15.8873 18.1069 15.7995 18.6339 15.7995C19.1609 15.7995 19.6439 15.8873 20.0392 16.063C20.4783 16.2386 20.8296 16.5021 21.137 16.8095V15.7995H22.9376V23.6159H21.137V22.518C20.8736 22.8698 20.4783 23.1328 20.0392 23.3524C19.6 23.529 19.1609 23.6163 18.6339 23.6163ZM18.9413 21.9919C19.2926 21.9919 19.6 21.948 19.8635 21.8163C20.127 21.6845 20.3905 21.5528 20.6101 21.3332C20.8296 21.1136 20.9614 20.8941 21.0931 20.6306C21.2249 20.3662 21.2688 20.0592 21.2688 19.7523C21.2688 19.4444 21.2249 19.137 21.0931 18.874C20.9614 18.6105 20.8296 18.347 20.6101 18.1713C20.3905 17.9517 20.1709 17.82 19.8635 17.6883C19.5561 17.5126 19.2487 17.4687 18.9413 17.4687C18.6339 17.4687 18.3265 17.5126 18.0191 17.6443C17.7117 17.7761 17.4921 17.9078 17.2725 18.1274C17.053 18.347 16.8773 18.5666 16.7895 18.83C16.6577 19.0935 16.6138 19.4009 16.6138 19.7083C16.6138 20.0158 16.6577 20.3227 16.7895 20.5862C16.9212 20.8506 17.0969 21.1136 17.2725 21.3332C17.4921 21.5528 17.7556 21.6841 18.0191 21.8163C18.2826 21.9037 18.59 21.9919 18.9413 21.9919ZM25.4407 15.8434L27.6365 21.1571L29.6565 15.8434H31.5449L26.9338 27.1735H25.0894L26.7142 23.2655L23.5524 15.8434H25.4407Z" fill="white"/>
</svg>
