<svg width="53" height="54" viewBox="0 0 53 54" fill="none" xmlns="http://www.w3.org/2000/svg">
<path fill-rule="evenodd" clip-rule="evenodd" d="M22.8608 6.18626C27.2844 5.69814 30.7562 -1.67965 34.7326 0.353583C38.7489 2.40726 34.2729 10.3678 37.423 13.6322C41.1378 17.482 50.7753 13.4501 52.3449 18.6054C53.8411 23.5197 44.0594 25.1398 42.4069 30.0019C41.0124 34.1046 46.0973 38.8837 44.1416 42.7414C42.3124 46.3495 37.2847 46.8182 33.4054 47.7573C29.9422 48.5957 26.32 47.0375 22.8608 47.8932C18.1069 49.0691 14.0599 55.5277 9.52258 53.665C5.14181 51.8665 6.21911 44.8454 4.51194 40.3604C3.2554 37.0593 1.2024 34.1091 0.742986 30.5997C0.301471 27.227 0.335808 23.5856 1.9241 20.5921C3.45393 17.7088 7.67937 17.2789 9.30992 14.4535C11.3201 10.9702 8.76327 4.91995 12.1666 2.84362C15.406 0.867308 19.1066 6.60051 22.8608 6.18626Z" fill="#D8D4EC"/>
</svg>
