<svg width="104" height="54" viewBox="0 0 104 54" fill="none" xmlns="http://www.w3.org/2000/svg">
<rect x="1" y="1" width="102" height="52" fill="#D8D4EC"/>
<rect x="1" y="1" width="102" height="52" stroke="#626262"/>
<path d="M51.0784 36.4998C51.0149 36.4998 50.9521 36.4863 50.8939 36.4601C50.8357 36.434 50.7834 36.3958 50.7403 36.3478L41.6224 26.2177C41.5616 26.1501 41.5213 26.0659 41.5064 25.9752C41.4915 25.8845 41.5027 25.7913 41.5386 25.7071C41.5745 25.6228 41.6335 25.5511 41.7084 25.5008C41.7834 25.4504 41.871 25.4236 41.9605 25.4236H46.3494C46.4153 25.4236 46.4804 25.4381 46.5404 25.4662C46.6003 25.4943 46.6537 25.5352 46.697 25.5863L49.7442 29.187C50.0735 28.4639 50.7111 27.26 51.8298 25.7931C53.4836 23.6243 56.5599 20.4348 61.823 17.5555C61.9247 17.4999 62.0431 17.4854 62.1547 17.515C62.2663 17.5446 62.363 17.6162 62.4257 17.7154C62.4885 17.8147 62.5127 17.9346 62.4936 18.0513C62.4746 18.168 62.4136 18.2732 62.3227 18.346C62.3026 18.3621 60.2733 20.0035 57.9379 23.0098C55.7885 25.7765 52.9313 30.3003 51.5253 36.1405C51.5006 36.2431 51.4432 36.3343 51.3622 36.3994C51.2811 36.4646 51.1812 36.5 51.0783 36.5L51.0784 36.4998Z" fill="#0B0B0B"/>
</svg>
