<svg width="19" height="19" viewBox="0 0 19 19" fill="none" xmlns="http://www.w3.org/2000/svg">
<path d="M14.6489 17.8307C14.5517 17.8307 14.4584 17.7922 14.3894 17.7237L9.49971 12.8338L4.61002 17.7237C4.54122 17.7921 4.44813 17.8305 4.35109 17.8305C4.25406 17.8305 4.16096 17.7921 4.09216 17.7237L1.27596 14.9074C1.20745 14.8389 1.16896 14.7459 1.16896 14.649C1.16896 14.5521 1.20745 14.4592 1.27596 14.3907L6.16623 9.50025L1.27596 4.60979C1.20744 4.54127 1.16895 4.44833 1.16895 4.35143C1.16895 4.25452 1.20744 4.16159 1.27596 4.09307L4.09271 1.27621C4.16123 1.20768 4.25417 1.16919 4.35107 1.16919C4.44798 1.16919 4.54092 1.20768 4.60944 1.27621L9.49971 6.16662L14.3899 1.27621C14.4585 1.20768 14.5514 1.16919 14.6483 1.16919C14.7452 1.16919 14.8381 1.20768 14.9067 1.27621L17.7235 4.09307C17.792 4.16159 17.8305 4.25452 17.8305 4.35143C17.8305 4.44833 17.792 4.54127 17.7235 4.60979L12.8331 9.50025L17.7235 14.3907C17.792 14.4592 17.8305 14.5521 17.8305 14.649C17.8305 14.7459 17.792 14.8389 17.7235 14.9074L14.9074 17.7237C14.8735 17.7577 14.8332 17.7847 14.7888 17.803C14.7444 17.8214 14.6969 17.8308 14.6489 17.8307Z" fill="#626262"/>
</svg>
