<svg width="104" height="41" viewBox="0 0 104 41" fill="none" xmlns="http://www.w3.org/2000/svg">
<rect x="1" y="1" width="102" height="39" stroke="#626262"/>
<path d="M57.1489 28.8307C57.0517 28.8307 56.9584 28.7922 56.8894 28.7237L51.9997 23.8338L47.11 28.7237C47.0412 28.7921 46.9481 28.8305 46.8511 28.8305C46.7541 28.8305 46.661 28.7921 46.5922 28.7237L43.776 25.9074C43.7075 25.8389 43.669 25.7459 43.669 25.649C43.669 25.5521 43.7075 25.4592 43.776 25.3907L48.6662 20.5002L43.776 15.6098C43.7074 15.5413 43.6689 15.4483 43.6689 15.3514C43.6689 15.2545 43.7074 15.1616 43.776 15.0931L46.5927 12.2762C46.6612 12.2077 46.7542 12.1692 46.8511 12.1692C46.948 12.1692 47.0409 12.2077 47.1094 12.2762L51.9997 17.1666L56.8899 12.2762C56.9585 12.2077 57.0514 12.1692 57.1483 12.1692C57.2452 12.1692 57.3381 12.2077 57.4067 12.2762L60.2235 15.0931C60.292 15.1616 60.3305 15.2545 60.3305 15.3514C60.3305 15.4483 60.292 15.5413 60.2235 15.6098L55.3331 20.5002L60.2235 25.3907C60.292 25.4592 60.3305 25.5521 60.3305 25.649C60.3305 25.7459 60.292 25.8389 60.2235 25.9074L57.4074 28.7237C57.3735 28.7577 57.3332 28.7847 57.2888 28.803C57.2444 28.8214 57.1969 28.8308 57.1489 28.8307Z" fill="#626262"/>
</svg>
