<svg width="103" height="54" viewBox="0 0 103 54" fill="none" xmlns="http://www.w3.org/2000/svg">
<rect x="1" y="1" width="101" height="52" stroke="#626262"/>
<path d="M56.6489 35.3307C56.5517 35.3307 56.4584 35.2922 56.3894 35.2237L51.4997 30.3338L46.61 35.2237C46.5412 35.2921 46.4481 35.3305 46.3511 35.3305C46.2541 35.3305 46.161 35.2921 46.0922 35.2237L43.276 32.4074C43.2075 32.3389 43.169 32.2459 43.169 32.149C43.169 32.0521 43.2075 31.9592 43.276 31.8907L48.1662 27.0002L43.276 22.1098C43.2074 22.0413 43.1689 21.9483 43.1689 21.8514C43.1689 21.7545 43.2074 21.6616 43.276 21.5931L46.0927 18.7762C46.1612 18.7077 46.2542 18.6692 46.3511 18.6692C46.448 18.6692 46.5409 18.7077 46.6094 18.7762L51.4997 23.6666L56.3899 18.7762C56.4585 18.7077 56.5514 18.6692 56.6483 18.6692C56.7452 18.6692 56.8381 18.7077 56.9067 18.7762L59.7235 21.5931C59.792 21.6616 59.8305 21.7545 59.8305 21.8514C59.8305 21.9483 59.792 22.0413 59.7235 22.1098L54.8331 27.0002L59.7235 31.8907C59.792 31.9592 59.8305 32.0521 59.8305 32.149C59.8305 32.2459 59.792 32.3389 59.7235 32.4074L56.9074 35.2237C56.8735 35.2577 56.8332 35.2847 56.7888 35.303C56.7444 35.3214 56.6969 35.3308 56.6489 35.3307Z" fill="#626262"/>
</svg>
