<svg width="22" height="19" viewBox="0 0 22 19" fill="none" xmlns="http://www.w3.org/2000/svg">
<path d="M10.0784 18.9998C10.0149 18.9998 9.95206 18.9863 9.89386 18.9601C9.83567 18.934 9.78337 18.8958 9.74025 18.8478L0.622353 8.71768C0.56157 8.65015 0.521275 8.56588 0.5064 8.47519C0.491524 8.38449 0.502713 8.29132 0.538596 8.20705C0.57448 8.12279 0.633502 8.0511 0.708439 8.00076C0.783375 7.95041 0.870976 7.9236 0.96052 7.9236H5.34937C5.41527 7.92361 5.4804 7.93813 5.54036 7.9662C5.60033 7.99426 5.65373 8.0352 5.69698 8.08627L8.74422 11.687C9.07354 10.9639 9.71106 9.76005 10.8298 8.29306C12.4836 6.12433 15.5599 2.93479 20.823 0.0555071C20.9247 -0.000131759 21.0431 -0.0145722 21.1547 0.0150372C21.2663 0.0446466 21.363 0.116154 21.4257 0.215438C21.4885 0.314723 21.5127 0.434568 21.4936 0.551308C21.4746 0.668049 21.4136 0.773199 21.3227 0.845996C21.3026 0.862126 19.2733 2.50346 16.9379 5.50984C14.7885 8.27646 11.9313 12.8003 10.5253 18.6405C10.5006 18.7431 10.4432 18.8343 10.3622 18.8994C10.2811 18.9646 10.1812 19 10.0783 19L10.0784 18.9998Z" fill="#0B0B0B"/>
</svg>
