<svg width="103" height="41" viewBox="0 0 103 41" fill="none" xmlns="http://www.w3.org/2000/svg">
<rect x="1" y="1" width="101" height="39" fill="#D8D4EC"/>
<rect x="1" y="1" width="101" height="39" stroke="#626262"/>
<path d="M50.5784 29.9998C50.5149 29.9998 50.4521 29.9863 50.3939 29.9601C50.3357 29.934 50.2834 29.8958 50.2403 29.8478L41.1224 19.7177C41.0616 19.6501 41.0213 19.5659 41.0064 19.4752C40.9915 19.3845 41.0027 19.2913 41.0386 19.2071C41.0745 19.1228 41.1335 19.0511 41.2084 19.0008C41.2834 18.9504 41.371 18.9236 41.4605 18.9236H45.8494C45.9153 18.9236 45.9804 18.9381 46.0404 18.9662C46.1003 18.9943 46.1537 19.0352 46.197 19.0863L49.2442 22.687C49.5735 21.9639 50.2111 20.76 51.3298 19.2931C52.9836 17.1243 56.0599 13.9348 61.323 11.0555C61.4247 10.9999 61.5431 10.9854 61.6547 11.015C61.7663 11.0446 61.863 11.1162 61.9257 11.2154C61.9885 11.3147 62.0127 11.4346 61.9936 11.5513C61.9746 11.668 61.9136 11.7732 61.8227 11.846C61.8026 11.8621 59.7733 13.5035 57.4379 16.5098C55.2885 19.2765 52.4313 23.8003 51.0253 29.6405C51.0006 29.7431 50.9432 29.8343 50.8622 29.8994C50.7811 29.9646 50.6812 30 50.5783 30L50.5784 29.9998Z" fill="#0B0B0B"/>
</svg>
