<svg width="103" height="41" viewBox="0 0 103 41" fill="none" xmlns="http://www.w3.org/2000/svg">
<path d="M1 1H102V20C102 31.0457 93.0457 40 82 40H1V1Z" stroke="#626262"/>
<path d="M56.6489 28.8307C56.5517 28.8307 56.4584 28.7922 56.3894 28.7237L51.4997 23.8338L46.61 28.7237C46.5412 28.7921 46.4481 28.8305 46.3511 28.8305C46.2541 28.8305 46.161 28.7921 46.0922 28.7237L43.276 25.9074C43.2075 25.8389 43.169 25.7459 43.169 25.649C43.169 25.5521 43.2075 25.4592 43.276 25.3907L48.1662 20.5002L43.276 15.6098C43.2074 15.5413 43.1689 15.4483 43.1689 15.3514C43.1689 15.2545 43.2074 15.1616 43.276 15.0931L46.0927 12.2762C46.1612 12.2077 46.2542 12.1692 46.3511 12.1692C46.448 12.1692 46.5409 12.2077 46.6094 12.2762L51.4997 17.1666L56.3899 12.2762C56.4585 12.2077 56.5514 12.1692 56.6483 12.1692C56.7452 12.1692 56.8381 12.2077 56.9067 12.2762L59.7235 15.0931C59.792 15.1616 59.8305 15.2545 59.8305 15.3514C59.8305 15.4483 59.792 15.5413 59.7235 15.6098L54.8331 20.5002L59.7235 25.3907C59.792 25.4592 59.8305 25.5521 59.8305 25.649C59.8305 25.7459 59.792 25.8389 59.7235 25.9074L56.9074 28.7237C56.8735 28.7577 56.8332 28.7847 56.7888 28.803C56.7444 28.8214 56.6969 28.8308 56.6489 28.8307Z" fill="#626262"/>
</svg>
