<svg width="29" height="28" viewBox="0 0 29 28" fill="none" xmlns="http://www.w3.org/2000/svg">
<g clip-path="url(#clip0_1029_3724)">
<path d="M27.941 5H1.05901C0.750236 5 0.5 5.24775 0.5 5.55339V21.4465C0.5 21.7522 0.750236 22 1.05901 22H27.941C28.2497 22 28.5 21.7523 28.5 21.4465V5.55339C28.4999 5.24775 28.2497 5 27.941 5ZM27.382 20.8931H1.61796V6.10685H27.382V20.8931Z" fill="#0B0B0B"/>
<path d="M9.65827 19H12.245V16.5244H13.5V14.346H12.245V8H8.72114L4.5 14.346V16.522H9.6582L9.65827 19ZM9.65698 11.1291V14.3473L6.87802 14.346L8.96163 11.2516C9.13716 10.9846 9.28523 10.7428 9.40573 10.5262C9.52623 10.3096 9.63604 10.093 9.73501 9.87636C9.70582 10.0451 9.6863 10.2154 9.67663 10.3863C9.66355 10.5853 9.65698 10.8328 9.65698 11.1291Z" fill="#0B0B0B"/>
<path d="M17.3833 14.0629L20.8651 19H24.5L20.2079 13.3643L24.1568 8H20.7628L17.3833 12.9962V8H14.5V19H17.3833V14.0629Z" fill="#0B0B0B"/>
</g>
<defs>
<clipPath id="clip0_1029_3724">
<rect width="28" height="28" fill="white" transform="translate(0.5)"/>
</clipPath>
</defs>
</svg>
