<svg width="28" height="28" viewBox="0 0 28 28" fill="none" xmlns="http://www.w3.org/2000/svg">
<path d="M19.526 17.6269C19.2909 17.6321 19.0586 17.5744 18.8533 17.4598C18.6479 17.3452 18.4769 17.1778 18.3579 16.975L17.811 16.0388L17.2029 16.4675C15.4486 22.8313 6.27454 21.7526 6.0991 15.0937C6.10002 13.6303 6.66957 12.2245 7.6875 11.1731C8.70544 10.1217 10.0921 9.50698 11.5547 9.45875C11.6076 8.34157 11.9016 7.24907 12.4166 6.25625L11.8785 5.32875C11.8432 5.25857 11.7876 5.20061 11.7189 5.16239C11.6503 5.12416 11.5717 5.10744 11.4935 5.11438C9.73331 5.15292 8.01504 5.65874 6.51473 6.58C6.44599 6.62306 6.39044 6.68421 6.35417 6.75675C6.3179 6.8293 6.30231 6.91043 6.3091 6.99125L6.47973 8.9775C6.49117 9.11709 6.47371 9.25754 6.42846 9.39009C6.38321 9.52264 6.31112 9.64444 6.2167 9.74789C6.12228 9.85134 6.00756 9.93422 5.87968 9.99136C5.75181 10.0485 5.61353 10.0787 5.47348 10.08L3.34723 10.0888C3.26917 10.0888 3.19259 10.11 3.12559 10.1501C3.05859 10.1901 3.00365 10.2475 2.9666 10.3163C2.12458 11.8613 1.70647 13.6017 1.75473 15.3606C1.75738 15.442 1.78248 15.521 1.82727 15.5889C1.87206 15.6569 1.93477 15.7111 2.00848 15.7456L3.81098 16.5856C3.93796 16.6456 4.05118 16.7312 4.14355 16.8369C4.23591 16.9427 4.30542 17.0664 4.34773 17.2003C4.39004 17.3343 4.40423 17.4755 4.38941 17.6151C4.37459 17.7548 4.33108 17.8898 4.2616 18.0119L3.20723 19.8538C3.1688 19.9222 3.14935 19.9996 3.15088 20.0781C3.15242 20.1565 3.1749 20.2331 3.21598 20.3C4.13242 21.8002 5.42885 23.0317 6.9741 23.87C7.04508 23.9096 7.12573 23.9286 7.20692 23.9247C7.2881 23.9208 7.36659 23.8943 7.43348 23.8481L9.06973 22.7019C9.18515 22.6227 9.31562 22.5681 9.45304 22.5415C9.59046 22.5149 9.73188 22.5168 9.86852 22.5471C10.0052 22.5775 10.1341 22.6357 10.2473 22.718C10.3605 22.8003 10.4556 22.905 10.5266 23.0256L11.5941 24.8544C11.6334 24.9224 11.6903 24.9786 11.7588 25.0171C11.8273 25.0556 11.9049 25.075 11.9835 25.0731C13.7416 25.0304 15.4574 24.5249 16.9579 23.6075C17.0273 23.5652 17.0834 23.5041 17.1197 23.4314C17.1561 23.3587 17.1713 23.2772 17.1635 23.1963L16.9929 21.21C16.9814 21.0704 16.9988 20.9299 17.044 20.7974C17.0893 20.6648 17.1614 20.543 17.2558 20.4395C17.3502 20.3361 17.465 20.2532 17.5928 20.1961C17.7207 20.1389 17.859 20.1088 17.9991 20.1075L20.1254 20.0987C20.204 20.0987 20.2812 20.0776 20.3489 20.0376C20.4166 19.9976 20.4724 19.9401 20.5104 19.8712C20.9449 19.072 21.2673 18.2166 21.4685 17.3294C20.8365 17.5118 20.1836 17.6118 19.526 17.6269Z" fill="white"/>
<path d="M13.2042 11.6244C12.6193 11.3321 11.7217 11.0845 11.5898 10.3337C5.38054 10.7646 5.50891 19.6147 11.7386 19.8581C12.6931 19.8571 13.6253 19.5691 14.414 19.0316C15.2027 18.494 15.8117 17.7318 16.1617 16.8438C15.9703 16.8342 15.7834 16.7818 15.6148 16.6906C14.5299 16.119 11.8108 13.9441 12.6617 12.5694L13.2042 11.6244Z" fill="white"/>
<path d="M26.2451 9.65562C26.2434 9.57407 26.2186 9.49467 26.1737 9.42656C26.1289 9.35845 26.0656 9.3044 25.9914 9.27063L24.7708 8.6975C24.7022 8.66578 24.6409 8.62016 24.5909 8.56352C24.5408 8.50689 24.5031 8.44048 24.4801 8.36851C24.457 8.29653 24.4492 8.22056 24.4571 8.14539C24.4649 8.07023 24.4883 7.99752 24.5258 7.93187L25.2433 6.68063C25.2817 6.61221 25.3011 6.53477 25.2996 6.45631C25.2981 6.37785 25.2756 6.30123 25.2345 6.23438C24.5995 5.19457 23.7016 4.34047 22.6314 3.75813C22.56 3.71918 22.4791 3.701 22.398 3.70564C22.3168 3.71028 22.2385 3.73755 22.172 3.78437L21.0608 4.55875C20.9987 4.60196 20.9284 4.63191 20.8543 4.64674C20.7802 4.66157 20.7038 4.66096 20.6299 4.64495C20.556 4.62894 20.4862 4.59787 20.4248 4.55368C20.3635 4.5095 20.3119 4.45314 20.2733 4.38812L19.5514 3.14563C19.5134 3.07647 19.4567 3.01933 19.3879 2.98067C19.3191 2.94202 19.2409 2.92338 19.162 2.92688C17.9437 2.95665 16.7546 3.30672 15.7145 3.94188C15.6458 3.98492 15.5902 4.04608 15.554 4.11862C15.5177 4.19117 15.5021 4.2723 15.5089 4.35312L15.627 5.70062C15.6326 5.77615 15.6227 5.85203 15.5978 5.92356C15.5729 5.9951 15.5337 6.06077 15.4824 6.11653C15.4312 6.1723 15.369 6.21696 15.2998 6.24776C15.2306 6.27856 15.1559 6.29485 15.0801 6.29563L13.6408 6.30437C13.5621 6.30442 13.4849 6.32555 13.4172 6.36556C13.3495 6.40557 13.2937 6.463 13.2558 6.53188C12.705 7.54732 12.4162 8.68416 12.4158 9.83938C12.3907 9.95751 12.407 10.0807 12.462 10.1882C12.5169 10.2958 12.6072 10.3811 12.7176 10.43L13.8945 10.9812C13.9628 11.0139 14.0238 11.0602 14.0735 11.1173C14.1232 11.1744 14.1607 11.2411 14.1837 11.3132C14.2066 11.3854 14.2146 11.4615 14.207 11.5368C14.1994 11.6121 14.1764 11.6851 14.1395 11.7513L13.422 13.0025C13.3826 13.0698 13.3625 13.1467 13.3641 13.2247C13.3656 13.3027 13.3887 13.3787 13.4308 13.4444C14.0658 14.4842 14.9637 15.3383 16.0339 15.9206C16.0925 15.9529 16.1579 15.9708 16.2248 15.9731C16.2917 15.9754 16.3582 15.9619 16.4189 15.9337C16.3482 16.0178 17.3948 15.2517 17.3683 15.2819L17.6001 15.12C17.6621 15.0766 17.7324 15.0464 17.8066 15.0314C17.8808 15.0164 17.9573 15.017 18.0312 15.033C18.1052 15.049 18.1751 15.0802 18.2364 15.1245C18.2977 15.1689 18.3492 15.2254 18.3876 15.2907L19.1139 16.5375C19.1542 16.6044 19.2114 16.6594 19.2798 16.697C19.3481 16.7347 19.4252 16.7536 19.5033 16.7519C20.2312 16.7336 20.9517 16.6008 21.6383 16.3581C22.0971 16.1994 22.5372 15.9911 22.9508 15.7368C23.0195 15.6938 23.0751 15.6327 23.1113 15.5601C23.1476 15.4876 23.1632 15.4064 23.1564 15.3256L23.0383 13.9781C23.0319 13.9026 23.0415 13.8266 23.0664 13.755C23.0912 13.6834 23.1308 13.6178 23.1826 13.5625C23.2331 13.5056 23.2951 13.4602 23.3645 13.4293C23.4339 13.3983 23.5091 13.3826 23.5851 13.3831L25.0245 13.3787C25.1028 13.3769 25.1792 13.355 25.2466 13.3151C25.314 13.2753 25.3701 13.2189 25.4095 13.1512C25.99 12.0795 26.2782 10.874 26.2451 9.65562ZM23.3008 9.74313C23.3687 13.8074 18.0112 15.3447 15.9245 11.8649C15.5687 11.2668 15.3768 10.5855 15.3684 9.88955C15.3599 9.19364 15.5352 8.50781 15.8764 7.90125C17.8421 4.40742 23.1791 5.73411 23.3008 9.74313Z" fill="white"/>
<path d="M19.3331 6.74625C15.922 6.78635 15.0635 11.4606 18.2044 12.7137C18.6277 12.8801 19.0824 12.9511 19.5362 12.9215C19.99 12.892 20.4317 12.7627 20.8298 12.5428C21.2278 12.3229 21.5725 12.0179 21.8392 11.6495C22.1058 11.2811 22.2879 10.8584 22.3724 10.4116C22.4569 9.96475 22.4418 9.50476 22.3281 9.06443C22.2144 8.62411 22.005 8.2143 21.7147 7.86422C21.4244 7.51415 21.0604 7.23245 20.6488 7.0392C20.2371 6.84595 19.7879 6.74592 19.3331 6.74625Z" fill="white"/>
</svg>
