<svg width="28" height="28" viewBox="0 0 28 28" fill="none" xmlns="http://www.w3.org/2000/svg">
<path d="M23.5584 17.8426C23.5368 17.7692 23.4967 17.7026 23.4418 17.6493C23.3869 17.5959 23.3192 17.5577 23.2452 17.5382C22.9782 17.5023 19.6777 16.5272 19.5309 16.625C19.5477 16.6123 16.1491 17.5167 16.046 17.5381C15.9713 17.5563 15.9029 17.594 15.8478 17.6476C15.7927 17.7011 15.753 17.7684 15.7327 17.8426C15.5554 18.2088 14.7815 22.6659 17.118 24.8125C17.7876 25.4723 18.6083 25.9585 19.5088 26.2285C19.5962 26.2572 19.6905 26.2572 19.7779 26.2285C25.3274 24.4463 23.5761 17.9087 23.5584 17.8426ZM19.8309 24.4507C19.7732 24.4791 19.7098 24.4939 19.6456 24.4939C19.5813 24.4939 19.5179 24.4791 19.4603 24.4507C16.9899 23.3126 16.937 20.6923 17.1311 19.2321C17.1425 19.1456 17.1791 19.0643 17.2363 18.9984C17.2936 18.9325 17.369 18.8849 17.4532 18.8616L19.5309 18.319C19.5466 18.2086 21.7405 18.858 21.8336 18.8615C21.9187 18.884 21.9951 18.9312 22.0532 18.9972C22.1114 19.0632 22.1485 19.1449 22.16 19.2321C22.3497 20.6923 22.3012 23.3126 19.8309 24.4507Z" fill="white"/>
<path d="M19.6454 19.2012L17.9736 19.6424C17.8633 20.8467 18.0088 22.6818 19.6454 23.5596C21.2821 22.6818 21.4232 20.8467 21.3173 19.6424L19.6454 19.2012Z" fill="white"/>
<path d="M9.91 6.71716H14.3037C14.4978 6.71689 14.6839 6.63965 14.8212 6.50237C14.9585 6.3651 15.0357 6.17899 15.036 5.98486C15.0294 4.51764 15.2764 4.14239 13.5714 3.96011L13.5714 3.21014C13.5707 2.82273 13.4164 2.45143 13.1422 2.17773C12.868 1.90403 12.4964 1.75031 12.109 1.75031C11.7216 1.75031 11.3501 1.90403 11.0759 2.17773C10.8017 2.45143 10.6473 2.82273 10.6467 3.21014V3.96008C10.0496 4.05701 9.18937 4.07404 9.17773 4.83795V5.98486C9.17875 6.17876 9.25622 6.36443 9.39333 6.50154C9.53043 6.63865 9.7161 6.71614 9.91 6.71716ZM12.1069 2.4161C12.3274 2.41785 12.5383 2.50669 12.6937 2.66328C12.849 2.81986 12.9362 3.03149 12.9362 3.25206C12.9362 3.47263 12.849 3.68425 12.6937 3.84083C12.5383 3.99741 12.3274 4.08625 12.1068 4.08799C11.8864 4.08604 11.6757 3.9971 11.5205 3.84054C11.3653 3.68398 11.2783 3.47247 11.2783 3.25204C11.2783 3.03161 11.3653 2.8201 11.5205 2.66354C11.6757 2.50699 11.8864 2.41805 12.1069 2.4161Z" fill="white"/>
<path d="M14.8812 17.6043C14.9436 17.382 15.0632 17.1799 15.2281 17.0181C15.3929 16.8564 15.5973 16.7406 15.8208 16.6824L19.1646 15.8089C19.449 15.7088 19.7578 15.7011 20.0469 15.7869V6.74363C20.0467 6.17934 19.8228 5.63814 19.4242 5.23872C19.0256 4.83929 18.4849 4.61425 17.9206 4.61295H15.9046C15.9343 4.99638 15.9104 5.6019 15.9178 5.98487C15.9176 6.41301 15.7475 6.82356 15.4447 7.12631C15.142 7.42905 14.7314 7.59922 14.3033 7.59943H9.90956C9.48142 7.59921 9.07087 7.42904 8.76814 7.1263C8.4654 6.82356 8.29523 6.41301 8.29503 5.98487C8.30324 5.61185 8.27847 4.98912 8.30824 4.61298L6.29227 4.61295C5.72821 4.615 5.18791 4.84028 4.78948 5.23955C4.39104 5.63881 4.16689 6.17958 4.16602 6.74364V22.6862C4.16707 23.2498 4.39142 23.79 4.78994 24.1885C5.18846 24.587 5.72867 24.8114 6.29227 24.8125H15.9266C15.716 24.536 15.5315 24.2406 15.3752 23.9302C13.9327 21.0981 14.8679 17.6573 14.8812 17.6043ZM13.4122 10.3521H17.6294C17.7453 10.3538 17.8559 10.401 17.9372 10.4836C18.0186 10.5661 18.0642 10.6774 18.0642 10.7933C18.0642 10.9092 18.0186 11.0204 17.9372 11.103C17.8559 11.1855 17.7453 11.2327 17.6294 11.2344H13.4122C13.2961 11.2329 13.1854 11.1857 13.1039 11.1032C13.0224 11.0206 12.9767 10.9093 12.9767 10.7933C12.9767 10.6772 13.0224 10.5659 13.1039 10.4833C13.1854 10.4008 13.2961 10.3536 13.4122 10.3521ZM10.2448 10.3521H11.5153C11.6313 10.3536 11.742 10.4008 11.8235 10.4833C11.905 10.5659 11.9507 10.6772 11.9507 10.7933C11.9507 10.9093 11.905 11.0206 11.8235 11.1032C11.742 11.1857 11.6313 11.2329 11.5153 11.2344H10.2448C10.1289 11.2327 10.0183 11.1855 9.93698 11.103C9.85562 11.0204 9.81001 10.9092 9.81001 10.7933C9.81001 10.6774 9.85562 10.5661 9.93698 10.4836C10.0183 10.401 10.1289 10.3538 10.2448 10.3521ZM10.2448 15.1252H15.9398C16.0557 15.1269 16.1662 15.1742 16.2475 15.2567C16.3288 15.3393 16.3744 15.4505 16.3744 15.5663C16.3743 15.6822 16.3288 15.7934 16.2475 15.8759C16.1662 15.9585 16.0557 16.0057 15.9398 16.0075H10.2448C10.1288 16.0059 10.0181 15.9587 9.93667 15.8762C9.85521 15.7936 9.80953 15.6823 9.80953 15.5663C9.80953 15.4503 9.85521 15.339 9.93667 15.2564C10.0181 15.1739 10.1288 15.1267 10.2448 15.1252ZM9.09346 18.888L7.9024 20.5952C7.86563 20.6479 7.81772 20.6918 7.76206 20.7238C7.70641 20.7558 7.64438 20.7752 7.5804 20.7805C7.51587 20.7853 7.45105 20.7764 7.39022 20.7544C7.32938 20.7323 7.27391 20.6976 7.22747 20.6526L6.41579 19.8409C6.33615 19.7573 6.29246 19.6457 6.29408 19.5303C6.2957 19.4148 6.34251 19.3046 6.42445 19.2232C6.5064 19.1418 6.61697 19.0958 6.73246 19.095C6.84794 19.0942 6.95914 19.1387 7.04221 19.2189L7.47891 19.6556L8.37 18.3852C8.4375 18.2913 8.53921 18.2277 8.65318 18.2081C8.76716 18.1885 8.88426 18.2145 8.97921 18.2806C9.07417 18.3466 9.13937 18.4472 9.16074 18.5609C9.18212 18.6745 9.15795 18.792 9.09346 18.888ZM9.09346 14.115L7.9024 15.8177C7.86586 15.8712 7.81797 15.9159 7.76215 15.9487C7.70633 15.9815 7.64394 16.0016 7.57946 16.0075C7.51498 16.0134 7.45 16.005 7.38915 15.9829C7.32829 15.9607 7.27308 15.9254 7.22745 15.8795L6.41578 15.0678C6.33559 14.9843 6.29144 14.8726 6.29282 14.7568C6.29421 14.641 6.34104 14.5304 6.4232 14.4488C6.50537 14.3673 6.6163 14.3212 6.73209 14.3207C6.84787 14.3201 6.95925 14.3651 7.0422 14.4458L7.4789 14.8825L8.37 13.6077C8.43858 13.5151 8.54061 13.4529 8.65436 13.4344C8.7681 13.416 8.88456 13.4427 8.97891 13.5088C9.07325 13.575 9.13803 13.6754 9.15943 13.7886C9.18083 13.9018 9.15716 14.019 9.09346 14.115ZM9.09346 9.33749L7.9024 11.0447C7.86564 11.0973 7.81773 11.1412 7.76207 11.1733C7.70642 11.2053 7.64439 11.2246 7.5804 11.23C7.51573 11.2368 7.45034 11.2288 7.38919 11.2067C7.32805 11.1845 7.27275 11.1487 7.22747 11.102L6.4158 10.2903C6.33612 10.2067 6.29238 10.0952 6.29398 9.97969C6.29558 9.86418 6.34239 9.75391 6.42436 9.67252C6.50633 9.59113 6.61693 9.54511 6.73244 9.54434C6.84795 9.54356 6.95917 9.5881 7.04222 9.66838L7.47892 10.1051L8.37002 8.83461C8.43765 8.74103 8.5393 8.67773 8.65312 8.65834C8.76694 8.63894 8.88382 8.665 8.97863 8.7309C9.07343 8.7968 9.13858 8.89728 9.16005 9.01072C9.18153 9.12417 9.15762 9.24149 9.09346 9.33749ZM13.6151 20.7849H10.2448C10.129 20.7832 10.0184 20.736 9.93708 20.6534C9.85575 20.5709 9.81017 20.4597 9.81017 20.3438C9.81017 20.2279 9.85576 20.1167 9.9371 20.0341C10.0184 19.9516 10.129 19.9044 10.2448 19.9027H13.6151C13.7309 19.9044 13.8414 19.9517 13.9226 20.0342C14.0039 20.1168 14.0495 20.228 14.0495 20.3438C14.0495 20.4596 14.0039 20.5708 13.9226 20.6533C13.8414 20.7359 13.7309 20.7831 13.6151 20.7849Z" fill="white"/>
</svg>
