<svg width="28" height="28" viewBox="0 0 28 28" fill="none" xmlns="http://www.w3.org/2000/svg">
<path d="M15.3149 19.3459L14.4022 16.1974C14.3966 16.6241 14.4062 26.1101 14.4022 26.25L22.7618 22.1083C22.8287 22.0745 22.8848 22.0227 22.9238 21.9588C22.9629 21.8949 22.9834 21.8213 22.983 21.7464V17.1585C22.6524 17.3229 17.5019 19.8468 17.0037 20.0938C16.8456 20.1706 16.6725 20.212 16.4967 20.2151C16.3209 20.2182 16.1465 20.1829 15.9858 20.1117C15.825 20.0405 15.6817 19.9351 15.5658 19.8028C15.4499 19.6706 15.3643 19.5146 15.3149 19.3459Z" fill="white"/>
<path d="M16.1717 8.12329C15.9275 8.54819 15.3659 9.5183 15.1182 9.95284C15.0027 10.1463 14.839 10.3065 14.6431 10.4177C14.4471 10.5289 14.2257 10.5874 14.0004 10.5874C13.775 10.5874 13.5536 10.5289 13.3577 10.4177C13.1617 10.3064 12.998 10.1463 12.8825 9.95279C12.6333 9.5166 12.0761 8.55075 11.829 8.12329L5.43164 9.8081C6.09977 10.0317 13.7242 12.7285 14.0004 12.8279C14.2724 12.7346 21.6666 10.1208 22.5732 9.8081L16.1717 8.12329Z" fill="white"/>
<path d="M26.0143 14.3116L23.8349 10.2102C22.2335 10.7816 14.4619 13.5155 14.4619 13.5155L16.0864 19.1247C16.1034 19.1807 16.1322 19.2323 16.1709 19.276C16.2096 19.3198 16.2573 19.3547 16.3108 19.3784C16.3642 19.402 16.4221 19.4139 16.4805 19.4131C16.539 19.4124 16.5965 19.399 16.6493 19.374C17.1199 19.1433 25.8373 14.8625 25.8373 14.8625C25.8855 14.8383 25.9284 14.8048 25.9634 14.7639C25.9985 14.723 26.025 14.6755 26.0415 14.6242C26.058 14.5729 26.0641 14.5189 26.0594 14.4652C26.0547 14.4115 26.0394 14.3593 26.0143 14.3116Z" fill="white"/>
<path d="M13.5974 16.2015L12.6847 19.3499C12.636 19.5191 12.5508 19.6756 12.435 19.8082C12.3192 19.9408 12.1756 20.0464 12.0145 20.1173C11.8533 20.1883 11.6786 20.223 11.5025 20.2189C11.3265 20.2148 11.1535 20.1721 10.9958 20.0937C10.48 19.8404 5.3694 17.3304 5.01661 17.1585V21.7464C5.01622 21.8213 5.03671 21.8949 5.07577 21.9588C5.11483 22.0227 5.17093 22.0745 5.23776 22.1083L13.5974 26.2499C13.5996 26.0852 13.5959 16.6428 13.5974 16.2015Z" fill="white"/>
<path d="M11.913 19.1247L13.5375 13.5155C11.5557 12.8101 6.09349 10.9013 4.16455 10.2102L1.98517 14.3116C1.96005 14.3593 1.9447 14.4115 1.94001 14.4652C1.93532 14.5189 1.9414 14.5729 1.95787 14.6242C1.97435 14.6755 2.00089 14.723 2.03596 14.7639C2.07102 14.8048 2.11389 14.8384 2.16207 14.8625C2.74564 15.1501 11.3407 19.3694 11.3501 19.374C11.403 19.3985 11.4605 19.4114 11.5187 19.4119C11.577 19.4124 11.6347 19.4005 11.688 19.3769C11.7413 19.3533 11.7889 19.3186 11.8277 19.2751C11.8665 19.2316 11.8956 19.1803 11.913 19.1247Z" fill="white"/>
<path d="M13.5814 9.55074C13.6246 9.62321 13.6858 9.68322 13.7591 9.7249C13.8324 9.76658 13.9153 9.78849 13.9996 9.78849C14.084 9.78849 14.1669 9.76657 14.2402 9.72489C14.3135 9.6832 14.3747 9.62318 14.4178 9.55071L16.3479 6.20928C16.3889 6.13544 16.4101 6.05226 16.4095 5.9678C16.4089 5.88334 16.3865 5.80047 16.3444 5.72723C16.3023 5.654 16.242 5.59289 16.1694 5.54983C16.0967 5.50677 16.0141 5.48323 15.9297 5.48149H15.1054V2.39739C15.1055 2.31235 15.0888 2.22814 15.0563 2.14956C15.0237 2.07099 14.9761 1.9996 14.9159 1.93947C14.8558 1.87935 14.7844 1.83166 14.7058 1.79915C14.6272 1.76664 14.543 1.74994 14.458 1.75H13.5412C13.4562 1.74994 13.372 1.76665 13.2934 1.79916C13.2148 1.83167 13.1435 1.87936 13.0833 1.93949C13.0232 1.99961 12.9755 2.071 12.943 2.14957C12.9105 2.22814 12.8938 2.31235 12.8938 2.39739V5.48149H12.0695C11.9849 5.48288 11.9022 5.50621 11.8293 5.54919C11.7564 5.59217 11.696 5.65332 11.6538 5.72667C11.6117 5.80002 11.5893 5.88305 11.5889 5.96765C11.5884 6.05224 11.61 6.1355 11.6514 6.20928L13.5814 9.55074Z" fill="white"/>
</svg>
