<svg width="28" height="28" viewBox="0 0 28 28" fill="none" xmlns="http://www.w3.org/2000/svg">
<path d="M8.84662 2.62855C8.89295 2.79462 8.99217 2.94107 9.12922 3.04568C9.26628 3.1503 9.4337 3.20738 9.60612 3.20828H13.4307C13.6038 3.20727 13.7717 3.1496 13.9089 3.04409C14.0461 2.93858 14.1449 2.79104 14.1903 2.62404C14.2328 2.46593 14.3862 1.90527 14.4285 1.75665H8.6084C8.65105 1.90125 8.8037 2.4721 8.84662 2.62855Z" fill="white"/>
<path d="M15.7581 14.2821H14.7785C14.293 14.2819 13.8275 14.0892 13.4838 13.7464C13.1401 13.4035 12.9463 12.9384 12.9448 12.453C12.9444 10.913 12.9451 9.04329 12.9448 7.51361C12.9463 7.02815 13.1401 6.56306 13.4838 6.2202C13.8275 5.87735 14.293 5.68469 14.7785 5.68443C14.8972 5.69108 16.8118 5.67966 16.8818 5.68443V3.10943C16.8803 2.91738 16.8385 2.72779 16.7591 2.55292C16.6797 2.37805 16.5644 2.22181 16.4208 2.09429C16.2772 1.96678 16.1084 1.87084 15.9253 1.81269C15.7423 1.75453 15.5491 1.73545 15.3582 1.75668L15.2998 1.98134L15.0571 2.8622C14.9595 3.21914 14.7475 3.5342 14.4536 3.75907C14.1597 3.98395 13.8002 4.10622 13.4301 4.10715H9.60549C9.23609 4.10628 8.87713 3.98458 8.58338 3.7606C8.28963 3.53663 8.07723 3.22269 7.9786 2.86671L7.73588 1.98134L7.67747 1.75664C7.48634 1.73525 7.29284 1.75419 7.10948 1.81224C6.92612 1.87029 6.75698 1.96615 6.61297 2.09364C6.46897 2.22113 6.35331 2.3774 6.27346 2.55237C6.19361 2.72734 6.15135 2.91711 6.14941 3.10943V10.7362C6.83108 10.938 7.41936 11.3745 7.81007 11.9684C8.20079 12.5623 8.36873 13.2753 8.28415 13.9811C8.12989 14.4731 8.56647 14.883 8.52683 15.3968C9.05734 15.7672 9.48801 16.263 9.78049 16.8402C10.073 17.4173 10.2182 18.0578 10.2032 18.7046C11.4303 18.7041 14.342 18.7049 15.5334 18.7046C15.7108 18.7043 15.8864 18.6691 16.0501 18.601C16.2139 18.5329 16.3626 18.4332 16.4878 18.3075C16.613 18.1819 16.7122 18.0329 16.7798 17.8689C16.8474 17.7049 16.882 17.5292 16.8817 17.3519V14.2821C16.7516 14.2731 15.9102 14.2887 15.7581 14.2821ZM11.0931 8.10686H11.646C11.7639 8.10888 11.8762 8.15711 11.9588 8.24118C12.0415 8.32524 12.0878 8.4384 12.0878 8.55628C12.0878 8.67417 12.0415 8.78733 11.9588 8.87139C11.8762 8.95546 11.7639 9.00369 11.646 9.00571H11.0931C10.9753 9.00369 10.8629 8.95546 10.7803 8.87139C10.6976 8.78733 10.6513 8.67417 10.6513 8.55628C10.6513 8.4384 10.6976 8.32524 10.7803 8.24118C10.8629 8.15711 10.9753 8.10888 11.0931 8.10686ZM10.1313 9.53154H11.646C11.7639 9.53355 11.8762 9.58179 11.9588 9.66585C12.0415 9.74992 12.0878 9.86308 12.0878 9.98096C12.0878 10.0988 12.0415 10.212 11.9588 10.2961C11.8762 10.3801 11.7639 10.4284 11.646 10.4304H10.1313C10.0142 10.4273 9.90287 10.3786 9.8211 10.2947C9.73933 10.2108 9.69356 10.0982 9.69356 9.98105C9.69356 9.86387 9.73933 9.75132 9.8211 9.66739C9.90287 9.58345 10.0142 9.5346 10.1313 9.53154ZM8.67536 11.8597C8.5575 11.8577 8.44514 11.8095 8.3625 11.7254C8.27987 11.6414 8.23356 11.5282 8.23356 11.4103C8.23356 11.2924 8.27987 11.1793 8.3625 11.0952C8.44514 11.0111 8.5575 10.9629 8.67536 10.9609H11.646C11.7639 10.9629 11.8762 11.0111 11.9588 11.0952C12.0415 11.1793 12.0878 11.2924 12.0878 11.4103C12.0878 11.5282 12.0415 11.6414 11.9588 11.7254C11.8762 11.8095 11.7639 11.8577 11.646 11.8597H8.67536ZM12.5854 16.39H10.4504C10.332 16.3888 10.2188 16.3409 10.1355 16.2568C10.0522 16.1726 10.0054 16.059 10.0054 15.9405C10.0054 15.8221 10.0522 15.7085 10.1355 15.6243C10.2188 15.5402 10.332 15.4923 10.4504 15.4911H12.5854C12.7039 15.4923 12.817 15.5402 12.9003 15.6244C12.9836 15.7086 13.0304 15.8222 13.0303 15.9407C13.0303 16.0591 12.9835 16.1727 12.9002 16.2569C12.8168 16.341 12.7038 16.3888 12.5854 16.39Z" fill="white"/>
<path d="M6.4018 21.1359C5.97349 20.9453 5.25315 20.6097 4.82881 20.4213C4.80196 20.4091 4.77137 20.4079 4.74363 20.4179C4.71589 20.428 4.69322 20.4486 4.6805 20.4752C4.6805 20.4796 4.4341 21.0006 4.43782 21.0056L3.38611 23.3336C3.37926 23.3468 3.37522 23.3612 3.37425 23.376C3.37328 23.3908 3.3754 23.4057 3.38047 23.4196C3.38555 23.4336 3.39346 23.4463 3.40372 23.457C3.41398 23.4677 3.42635 23.4762 3.44006 23.4819L9.51632 26.2413C9.52988 26.2473 9.5445 26.2506 9.55934 26.2509C9.57417 26.2512 9.58892 26.2486 9.60273 26.2431C9.61653 26.2377 9.62912 26.2295 9.63975 26.2192C9.65037 26.2088 9.65883 26.1965 9.66463 26.1828L10.959 23.329C10.9658 23.3158 10.9699 23.3014 10.9709 23.2866C10.9718 23.2718 10.9697 23.2569 10.9646 23.243C10.9596 23.229 10.9516 23.2163 10.9414 23.2056C10.9311 23.1948 10.9187 23.1864 10.905 23.1807L6.4018 21.1359Z" fill="white"/>
<path d="M13.8438 9.10927V9.7789C13.8438 9.7789 20.5312 9.7789 21.0615 9.7789C21.1794 9.78092 21.2918 9.82915 21.3744 9.91322C21.457 9.99728 21.5033 10.1104 21.5033 10.2283C21.5033 10.3462 21.457 10.4594 21.3744 10.5434C21.2918 10.6275 21.1794 10.6757 21.0615 10.6777C20.4297 10.678 14.239 10.6775 13.8438 10.6777V12.453C13.8445 12.7003 13.9435 12.9371 14.1188 13.1115C14.2941 13.2859 14.5314 13.3836 14.7787 13.3831C16.7277 13.3863 21.6407 13.3808 23.6953 13.3831C23.9418 13.3826 24.1781 13.2845 24.3525 13.1101C24.5268 12.9358 24.625 12.6995 24.6255 12.453V9.10927C24.5875 9.11128 14.234 9.10874 13.8438 9.10927Z" fill="white"/>
<path d="M23.6952 6.58351C22.1224 6.58351 16.2544 6.5832 14.7786 6.58351C14.5313 6.58308 14.2939 6.68082 14.1186 6.85526C13.9434 7.02969 13.8445 7.26657 13.8438 7.51385V8.21044C14.8027 8.20948 23.6208 8.21114 24.6255 8.21044V7.51381C24.625 7.26722 24.5268 7.03087 24.3525 6.85651C24.1781 6.68215 23.9417 6.58398 23.6952 6.58351Z" fill="white"/>
<path d="M10.1181 19.6033L9.97171 20.2081L9.9571 20.2046C9.73936 20.151 9.54894 20.0192 9.4221 19.8343C9.29526 19.6494 9.24088 19.4243 9.26931 19.2019C9.28971 19.0367 9.30149 18.8706 9.30461 18.7043C9.32151 18.1212 9.16868 17.5458 8.86469 17.0479C8.5607 16.5501 8.11864 16.1513 7.59224 15.8999C7.65165 15.6465 7.64875 15.3825 7.58379 15.1305C7.51884 14.8784 7.39376 14.6459 7.21927 14.4528C7.38854 14.0957 7.44855 13.6967 7.39177 13.3057C7.335 12.9147 7.16397 12.5492 6.90016 12.2551C6.41965 11.6168 4.66729 10.9438 4.57209 12.1831C4.60197 12.9262 4.60844 13.6538 4.56312 14.4437C4.42749 16.81 5.12693 18.3543 5.47106 19.729C6.29768 20.0971 9.97333 21.7733 10.8911 22.1874C11.1851 21.7796 11.5657 21.4419 12.0057 21.1986C12.6836 20.8454 13.2326 20.287 13.5742 19.6031L10.1181 19.6033Z" fill="white"/>
</svg>
