<svg width="28" height="28" viewBox="0 0 28 28" fill="none" xmlns="http://www.w3.org/2000/svg">
<path d="M21.2661 9.88007L25.357 8.49423L15.7354 5.29398L12.0107 6.55911C12.0116 6.55842 21.2642 9.88336 21.2661 9.88007ZM19.7554 8.23623C19.7184 8.34052 19.6415 8.42584 19.5417 8.47345C19.4418 8.52105 19.3271 8.52705 19.2228 8.49011L15.2193 7.0918C15.1157 7.05485 15.0309 6.97842 14.9835 6.87919C14.936 6.77995 14.9297 6.66597 14.966 6.56212C15.0022 6.45827 15.0781 6.37297 15.177 6.32486C15.276 6.27674 15.3899 6.2697 15.494 6.30528L19.4974 7.70773C19.6016 7.7438 19.6872 7.81965 19.7356 7.91869C19.7839 8.01774 19.7911 8.13193 19.7554 8.23623Z" fill="white"/>
<path d="M10.7541 6.99192C10.7498 6.98926 6.33035 8.49424 6.32617 8.49424L15.7355 11.7569L19.9969 10.3128L10.7541 6.99192ZM16.1142 10.5168C16.0703 10.518 16.0265 10.511 15.9852 10.496L11.6447 9.05189C11.5417 9.01608 11.457 8.94114 11.4088 8.84331C11.3607 8.74548 11.3531 8.63264 11.3876 8.52921C11.422 8.42578 11.4959 8.34009 11.5931 8.29071C11.6903 8.24133 11.803 8.23221 11.9069 8.26535L16.2474 9.70526C16.3397 9.73798 16.4177 9.80212 16.4675 9.88647C16.5174 9.97083 16.536 10.07 16.5201 10.1667C16.5043 10.2634 16.4549 10.3514 16.3807 10.4154C16.3065 10.4794 16.2122 10.5153 16.1142 10.5168Z" fill="white"/>
<path d="M21.6732 10.625V17.0546C21.6729 17.1647 21.6289 17.2702 21.5509 17.348C21.4729 17.4258 21.3672 17.4694 21.2571 17.4694C21.1469 17.4694 21.0413 17.4258 20.9633 17.348C20.8853 17.2702 20.8413 17.1647 20.8409 17.0546V10.9038L16.2715 12.4561V22.706L26.2468 19.3185V9.07269L21.6732 10.625ZM17.8196 21.2911C17.7405 21.3259 17.6551 21.3442 17.5687 21.345C17.4823 21.3458 17.3966 21.329 17.3168 21.2957C17.2371 21.2623 17.1649 21.2131 17.1048 21.151C17.0447 21.0889 16.9978 21.0152 16.967 20.9345C16.9362 20.8537 16.9222 20.7675 16.9258 20.6812C16.9293 20.5948 16.9504 20.5101 16.9877 20.4321C17.025 20.3541 17.0778 20.2846 17.1428 20.2276C17.2079 20.1707 17.2838 20.1276 17.366 20.1009C17.4451 20.0661 17.5305 20.0477 17.6169 20.0469C17.7034 20.0461 17.7891 20.0629 17.8688 20.0963C17.9485 20.1296 18.0207 20.1789 18.0808 20.241C18.1409 20.303 18.1878 20.3767 18.2186 20.4575C18.2494 20.5383 18.2634 20.6244 18.2599 20.7108C18.2563 20.7972 18.2352 20.8819 18.1979 20.9599C18.1606 21.0378 18.1078 21.1074 18.0428 21.1643C17.9778 21.2213 17.9018 21.2644 17.8196 21.2911ZM19.8505 20.5961C19.7712 20.6306 19.6857 20.6486 19.5993 20.6492C19.5129 20.6497 19.4272 20.6328 19.3475 20.5993C19.2678 20.5658 19.1957 20.5166 19.1355 20.4545C19.0754 20.3924 19.0284 20.3188 18.9975 20.2381C18.9665 20.1574 18.9523 20.0713 18.9555 19.9849C18.9588 19.8985 18.9795 19.8137 19.0164 19.7355C19.0534 19.6574 19.1058 19.5875 19.1704 19.5301C19.2351 19.4728 19.3107 19.4291 19.3927 19.4017C19.472 19.3673 19.5574 19.3492 19.6438 19.3487C19.7303 19.3481 19.8159 19.3651 19.8957 19.3985C19.9754 19.432 20.0475 19.4812 20.1076 19.5433C20.1678 19.6054 20.2147 19.679 20.2457 19.7597C20.2766 19.8404 20.2909 19.9266 20.2876 20.013C20.2844 20.0993 20.2636 20.1842 20.2267 20.2623C20.1898 20.3405 20.1374 20.4104 20.0727 20.4677C20.0081 20.5251 19.9325 20.5688 19.8505 20.5961Z" fill="white"/>
<path d="M5.46031 11.1618H4.66627C4.55614 11.1622 4.45063 11.2062 4.37288 11.2842C4.29512 11.3622 4.25146 11.4678 4.25146 11.578C4.25146 11.6881 4.29512 11.7938 4.37288 11.8718C4.45063 11.9498 4.55614 11.9938 4.66627 11.9941H7.91149C8.02082 11.9957 8.12513 12.0403 8.20188 12.1181C8.27863 12.196 8.32166 12.301 8.32166 12.4103C8.32166 12.5196 8.27863 12.6246 8.20188 12.7025C8.12513 12.7803 8.02082 12.8249 7.91149 12.8265H5.46031V13.9002C5.05 13.9005 4.22131 13.8999 3.81122 13.9002C3.70215 13.9021 3.59822 13.9468 3.52178 14.0247C3.44535 14.1025 3.40252 14.2072 3.40253 14.3163C3.40253 14.4254 3.44536 14.5301 3.5218 14.608C3.59824 14.6858 3.70218 14.7305 3.81125 14.7325H9.41381C9.52309 14.7341 9.62732 14.7787 9.70401 14.8566C9.7807 14.9344 9.82369 15.0393 9.82369 15.1486C9.82369 15.2579 9.7807 15.3628 9.70401 15.4407C9.62732 15.5185 9.52309 15.5631 9.41381 15.5648H5.46031V16.6385H2.16356C2.05415 16.6399 1.94972 16.6844 1.87287 16.7623C1.79602 16.8402 1.75293 16.9452 1.75293 17.0546C1.75293 17.164 1.79602 17.269 1.87287 17.3469C1.94972 17.4248 2.05415 17.4693 2.16356 17.4708C3.86615 17.4716 6.47093 17.4701 8.15283 17.4708C8.26213 17.4724 8.36641 17.517 8.44312 17.5948C8.51984 17.6727 8.56284 17.7776 8.56284 17.8869C8.56283 17.9962 8.51982 18.1012 8.4431 18.179C8.36638 18.2569 8.2621 18.3015 8.1528 18.3031H5.46031V19.281L15.4398 22.706V12.5351L5.46031 9.07269V11.1618Z" fill="white"/>
</svg>
