<svg width="18" height="18" viewBox="0 0 18 18" fill="none" xmlns="http://www.w3.org/2000/svg">
<rect x="0.5" y="0.5" width="17" height="17" rx="8.5" fill="url(#paint0_linear_1123_15)"/>
<rect x="0.5" y="0.5" width="17" height="17" rx="8.5" stroke="white"/>
<path d="M13.1798 8.838C13.3465 8.961 13.5 9.083 13.5 9.512C13.5 9.942 13.2831 10.116 13.0509 10.237C13.1458 10.4003 13.1761 10.5964 13.1353 10.783C13.0623 11.127 12.7639 11.394 12.4986 11.473C12.6133 11.667 12.6493 11.858 12.5128 12.093C12.3376 12.388 12.1851 12.5 11.5105 12.5H8.76316C7.82716 12.5 7.34211 11.954 7.34211 11.5V9.165C7.34211 7.935 8.7319 6.89 8.7319 6.035L8.63147 4.97C8.62674 4.905 8.63906 4.746 8.68643 4.7C8.76222 4.621 8.97158 4.5 9.288 4.5C9.49453 4.5 9.6319 4.541 9.7939 4.623C10.3443 4.9 10.4874 5.601 10.4874 6.165C10.4874 6.436 10.0952 7.248 10.0421 7.529C10.0421 7.529 10.8635 7.337 11.8222 7.33C12.8274 7.324 13.4792 7.52 13.4792 8.172C13.4792 8.433 13.2717 8.695 13.1798 8.838ZM5.06843 8.5H5.82632C5.97707 8.5 6.12165 8.56321 6.22825 8.67574C6.33485 8.78826 6.39474 8.94087 6.39474 9.1V12.9C6.39474 13.0591 6.33485 13.2117 6.22825 13.3243C6.12165 13.4368 5.97707 13.5 5.82632 13.5H5.06843C4.91767 13.5 4.77309 13.4368 4.66649 13.3243C4.55989 13.2117 4.5 13.0591 4.5 12.9V9.1C4.5 8.94087 4.55989 8.78826 4.66649 8.67574C4.77309 8.56321 4.91767 8.5 5.06843 8.5Z" fill="white"/>
<defs>
<linearGradient id="paint0_linear_1123_15" x1="9" y1="1" x2="9" y2="17" gradientUnits="userSpaceOnUse">
<stop stop-color="#18AFFF"/>
<stop offset="1" stop-color="#0062DF"/>
</linearGradient>
</defs>
</svg>
