<svg width="29" height="28" viewBox="0 0 29 28" fill="none" xmlns="http://www.w3.org/2000/svg">
<path d="M23.5 11.7578V8.47656C23.5 3.80259 19.6869 0 15 0C10.3131 0 6.5 3.80259 6.5 8.47656V11.7578C6.5 15.5763 9.04512 18.8126 12.5323 19.8696V22.6052C10.3532 22.9939 8.69355 24.8965 8.69355 27.1797V28H21.3065V27.1797C21.3065 24.8965 19.6468 22.994 17.4677 22.6052V19.8696C20.9549 18.8126 23.5 15.5763 23.5 11.7578ZM15.8226 22.5312H14.1774V20.2344H15.8226V22.5312ZM15 17.5C14.5457 17.5 14.1774 17.1327 14.1774 16.6797C14.1774 16.2267 14.5457 15.8594 15 15.8594C15.4543 15.8594 15.8226 16.2267 15.8226 16.6797C15.8226 17.1327 15.4543 17.5 15 17.5ZM15 14.7656C11.825 14.7656 9.24194 12.1897 9.24194 9.02344C9.24194 5.8572 11.825 3.28125 15 3.28125C18.175 3.28125 20.7581 5.8572 20.7581 9.02344C20.7581 12.1897 18.175 14.7656 15 14.7656Z" fill="#0B0B0B"/>
<path d="M14.5 5C12.2944 5 10.5 6.7944 10.5 9C10.5 11.2056 12.2944 13 14.5 13C16.7056 13 18.5 11.2056 18.5 9C18.5 6.7944 16.7056 5 14.5 5ZM14.5 9.8C14.0582 9.8 13.7 9.44181 13.7 9C13.7 8.55819 14.0582 8.2 14.5 8.2C14.9418 8.2 15.3 8.55819 15.3 9C15.3 9.44181 14.9418 9.8 14.5 9.8ZM15.9933 9C15.9933 8.17659 15.3234 7.50667 14.5 7.50667V5.90667C16.2057 5.90667 17.5933 7.29435 17.5933 9H15.9933Z" fill="#0B0B0B"/>
</svg>
