<svg width="29" height="28" viewBox="0 0 29 28" fill="none" xmlns="http://www.w3.org/2000/svg">
<path fill-rule="evenodd" clip-rule="evenodd" d="M7.96191 3.22351C7.77171 3.34641 7.34413 3.61276 7.01173 3.81534C6.30604 4.24549 3.7815 5.85559 3.38541 6.12821L3.11349 6.31531L4.08175 6.70406C4.61423 6.91786 5.37981 7.22349 5.78296 7.38324C6.1861 7.54299 6.93463 7.84507 7.44632 8.05454C7.95806 8.26401 8.3953 8.43541 8.41805 8.43541C8.44075 8.43541 8.44634 8.01203 8.43038 7.49455L8.40144 6.55375L8.62606 6.52362C10.1796 6.31554 14.9362 6.19524 16.5898 6.32225C19.2193 6.52417 21.7742 6.94882 23.1848 7.41837C23.7432 7.6042 23.9738 7.72427 24.183 7.93812C24.3812 8.14066 24.3993 8.32815 24.2453 8.58606C24.142 8.75929 23.6853 9.04578 23.5124 9.04578C23.4409 9.04578 23.4292 9.17851 23.4292 9.98908C23.4292 10.5079 23.4364 10.9324 23.4452 10.9324C23.4745 10.9324 24.6461 10.3157 24.9495 10.1407C26.3642 9.32411 26.8492 8.32171 26.2453 7.46231C25.9137 6.99044 25.2679 6.61195 24.163 6.24185C22.9364 5.83107 21.02 5.43932 18.8955 5.1651C15.9752 4.78817 12.1611 4.75865 8.71152 5.0863L8.33726 5.12182L8.32249 4.06088L8.30772 3L7.96191 3.22351ZM12.8143 6.76915C11.8535 6.9092 10.6285 7.41537 9.90956 7.96936C9.29749 8.44096 8.56096 9.26285 8.31847 9.74482L8.23203 9.91678L7.42829 9.75792C6.98621 9.67052 6.40709 9.54784 6.14126 9.48525C5.77845 9.39985 5.64809 9.38781 5.61833 9.43708C5.59656 9.4731 5.53949 9.69322 5.4916 9.92621C5.44371 10.1592 5.34609 10.5952 5.27469 10.8951C5.16528 11.3545 5.15709 11.4453 5.22262 11.471C5.26535 11.4878 5.78154 11.6047 6.36968 11.7309L7.43899 11.9602L7.43404 12.126C7.43133 12.2172 7.40033 12.603 7.36514 12.9833C7.31693 13.5043 7.31628 13.819 7.36248 14.2596C7.64949 16.9959 9.74353 19.3318 12.3584 19.8325C12.9512 19.9461 14.0873 19.9481 14.7211 19.8368C16.3829 19.545 17.8786 18.5281 18.8663 17.0186C19.2481 16.4352 19.6827 15.452 19.6827 15.1719C19.6827 15.0667 19.8059 15.0835 21.1197 15.3679C21.6459 15.4819 22.0881 15.5558 22.1024 15.5321C22.1167 15.5084 22.2016 15.0943 22.2911 14.6118C22.3805 14.1293 22.4654 13.6806 22.4797 13.6146C22.5036 13.5048 22.466 13.4854 22.0309 13.3838C21.7697 13.3228 21.2078 13.2033 20.7822 13.1182L20.0085 12.9635V12.7864C20.0085 12.689 19.9708 12.4005 19.9246 12.1454C19.4969 9.78067 17.8366 7.78464 15.692 7.05697C14.9006 6.78846 13.5846 6.65684 12.8143 6.76915ZM12.217 7.88807C11.8611 7.97314 11.1361 8.3595 10.7721 8.65803C10.1371 9.17879 9.66344 9.85097 9.41835 10.579C9.24167 11.1038 9.25329 11.1192 9.67739 10.9227C9.87824 10.8296 10.3552 10.6465 10.7374 10.5157C11.1196 10.3849 11.4661 10.2493 11.5074 10.2143C11.5487 10.1792 11.6499 9.98314 11.7324 9.7785C11.8148 9.57386 12.0248 9.06076 12.199 8.63822C12.3731 8.21573 12.5157 7.85989 12.5157 7.84751C12.5157 7.8196 12.4877 7.82343 12.217 7.88807ZM3.61111 17.9531C2.0659 18.7603 1.39763 19.5382 1.51263 20.3957C1.64174 21.3583 2.74384 22.0205 5.20009 22.6114C6.31745 22.8802 8.45497 23.1936 9.9366 23.3059C10.3547 23.3376 11.4908 23.3789 12.4614 23.3978C14.4453 23.4364 15.5583 23.3873 17.7824 23.1629C18.6486 23.0755 19.9766 22.8915 20.8077 22.7436C21.0233 22.7053 21.213 22.6875 21.2293 22.7042C21.2456 22.7209 21.2746 23.0139 21.2937 23.3554C21.3128 23.6968 21.345 23.9867 21.3652 23.9994C21.3855 24.0122 21.7054 23.8101 22.0762 23.5502C22.4471 23.2905 23.4896 22.5765 24.3929 21.9638C25.2963 21.3511 26.0354 20.8344 26.0354 20.8154C26.0354 20.7965 25.5406 20.6354 24.9359 20.4574C24.3312 20.2795 23.6898 20.0878 23.5106 20.0315C23.3314 19.9751 22.7695 19.8124 22.2618 19.6698C21.7541 19.5273 21.1839 19.3651 20.9945 19.3093L20.6502 19.2079L20.6873 19.3566C20.7078 19.4384 20.7951 19.8402 20.8814 20.2495C20.9678 20.6588 21.052 21.0375 21.0686 21.091C21.0853 21.1446 21.0778 21.2017 21.0521 21.2179C20.9489 21.2831 18.279 21.7058 17.0796 21.8468C15.8591 21.9903 15.6777 21.9972 13.1129 21.9991C10.6536 22.0009 10.3376 21.9904 9.39364 21.8754C6.56933 21.5316 4.76208 21.1419 4.0704 20.7277C3.79311 20.5616 3.6116 20.304 3.61133 20.076C3.61106 19.8662 3.88444 19.5675 4.23921 19.3901L4.53415 19.2426V18.3891C4.53415 17.7415 4.51775 17.5363 4.46628 17.5387C4.42898 17.5404 4.04413 17.7269 3.61111 17.9531Z" fill="#0B0B0B"/>
</svg>
