<svg width="390" height="60" viewBox="0 0 390 60" fill="none" xmlns="http://www.w3.org/2000/svg">
<g clip-path="url(#clip0_1598_1145)">
<path d="M10.499 25.043H28.499V26.293H10.499V25.043ZM10.499 30.293H28.499V31.543H10.499V30.293ZM10.499 35.543H28.499V36.793H10.499V35.543Z" fill="#0B0B0B"/>
</g>
<g clip-path="url(#clip1_1598_1145)">
<g clip-path="url(#clip2_1598_1145)">
<path d="M219.08 23.0889C215.147 23.0889 212.387 26.0889 212.387 29.9111C212.387 33.7333 215.17 36.7556 219.149 36.7556C223.082 36.7556 225.842 33.7556 225.842 29.9333C225.819 26.1111 223.036 23.0889 219.08 23.0889ZM219.08 39.8444C212.985 39.8444 208.73 35.4667 208.73 29.9333C208.73 24.4222 213.031 20 219.149 20C225.244 20 229.522 24.3778 229.522 29.9111C229.499 35.4222 225.175 39.8444 219.08 39.8444ZM154.519 23.0889C150.586 23.0889 147.849 26.0889 147.849 29.9111C147.849 33.7333 150.632 36.7556 154.565 36.7556C158.498 36.7556 161.258 33.7556 161.258 29.9333C161.258 26.1111 158.475 23.0889 154.519 23.0889ZM154.519 39.8444C148.424 39.8444 144.146 35.4667 144.146 29.9333C144.146 24.4222 148.447 20 154.565 20C160.66 20 164.938 24.3778 164.938 29.9111C164.938 35.4222 160.637 39.8444 154.519 39.8444ZM175.058 39.5111L169.676 25.7556V39.5111H166.226V20.3333H171.194L176.047 32.6667L180.877 20.3333H185.822V39.5111H182.326V25.7333L176.921 39.5111H175.058ZM255.443 23.4H251.533V36.4444H255.443C259.652 36.4444 262.343 33.8 262.343 29.9556C262.343 26.1556 259.744 23.4 255.443 23.4ZM255.443 39.5111H248.037V20.3111H255.489C261.883 20.3111 266 24.3333 266 29.8889C266 35.3111 261.952 39.5111 255.443 39.5111ZM238.883 23.4H234.26V29.0444H238.906C241.597 29.0444 243.115 27.9333 243.115 26.1333C243.138 24.0222 241.482 23.4 238.883 23.4ZM243.552 39.5111L238.63 32.0889H234.26V39.4889H230.787V20.2889H239.573C244.196 20.2889 246.703 22.4 246.703 25.9778C246.703 29.2444 244.794 30.9111 242.356 31.4667L247.646 39.4667L243.552 39.5111ZM208.408 23.4H197.115V29.0444H207.534V32.1111H197.115V39.5111H193.619V20.3111H208.408V23.4ZM138.281 39.5111H134.762V23.4H128V20.3111H144.974V23.4H138.281V39.5111Z" fill="#0B0B0B"/>
</g>
</g>
<path d="M369.667 25.5107C369.658 19.5046 375.002 19.4882 375 25.5107M365.667 25.5109L365 39H380L379 25.5109H365.667Z" stroke="#0B0B0B"/>
<defs>
<clipPath id="clip0_1598_1145">
<rect width="19" height="19" fill="white" transform="translate(10 20.5)"/>
</clipPath>
<clipPath id="clip1_1598_1145">
<rect width="138" height="20" fill="white" transform="translate(128 20)"/>
</clipPath>
<clipPath id="clip2_1598_1145">
<rect width="138" height="20" fill="white" transform="translate(128 20)"/>
</clipPath>
</defs>
</svg>
