<svg width="138" height="20" viewBox="0 0 138 20" fill="none" xmlns="http://www.w3.org/2000/svg">
<g clip-path="url(#clip0_1598_96)">
<g clip-path="url(#clip1_1598_96)">
<path d="M91.08 3.08889C87.147 3.08889 84.387 6.08889 84.387 9.91111C84.387 13.7333 87.17 16.7556 91.149 16.7556C95.082 16.7556 97.842 13.7556 97.842 9.93333C97.819 6.11111 95.036 3.08889 91.08 3.08889ZM91.08 19.8444C84.985 19.8444 80.73 15.4667 80.73 9.93333C80.73 4.42222 85.031 0 91.149 0C97.244 0 101.522 4.37778 101.522 9.91111C101.499 15.4222 97.175 19.8444 91.08 19.8444ZM26.519 3.08889C22.586 3.08889 19.849 6.08889 19.849 9.91111C19.849 13.7333 22.632 16.7556 26.565 16.7556C30.498 16.7556 33.258 13.7556 33.258 9.93333C33.258 6.11111 30.475 3.08889 26.519 3.08889ZM26.519 19.8444C20.424 19.8444 16.146 15.4667 16.146 9.93333C16.146 4.42222 20.447 0 26.565 0C32.66 0 36.938 4.37778 36.938 9.91111C36.938 15.4222 32.637 19.8444 26.519 19.8444ZM47.058 19.5111L41.676 5.75556V19.5111H38.226V0.333333H43.194L48.047 12.6667L52.877 0.333333H57.822V19.5111H54.326V5.73333L48.921 19.5111H47.058ZM127.443 3.4H123.533V16.4444H127.443C131.652 16.4444 134.343 13.8 134.343 9.95556C134.343 6.15556 131.744 3.4 127.443 3.4ZM127.443 19.5111H120.037V0.311111H127.489C133.883 0.311111 138 4.33333 138 9.88889C138 15.3111 133.952 19.5111 127.443 19.5111ZM110.883 3.4H106.26V9.04445H110.906C113.597 9.04445 115.115 7.93333 115.115 6.13333C115.138 4.02222 113.482 3.4 110.883 3.4ZM115.552 19.5111L110.63 12.0889H106.26V19.4889H102.787V0.288889H111.573C116.196 0.288889 118.703 2.4 118.703 5.97778C118.703 9.24444 116.794 10.9111 114.356 11.4667L119.646 19.4667L115.552 19.5111ZM80.408 3.4H69.115V9.04445H79.534V12.1111H69.115V19.5111H65.619V0.311111H80.408V3.4ZM10.281 19.5111H6.762V3.4H0V0.311111H16.974V3.4H10.281V19.5111Z" fill="#0B0B0B"/>
</g>
</g>
<defs>
<clipPath id="clip0_1598_96">
<rect width="138" height="20" fill="white"/>
</clipPath>
<clipPath id="clip1_1598_96">
<rect width="138" height="20" fill="white"/>
</clipPath>
</defs>
</svg>
