<svg width="15" height="15" viewBox="0 0 15 15" fill="none" xmlns="http://www.w3.org/2000/svg">
<g clip-path="url(#clip0_2530_935)">
<path d="M13 7.04585V7.57156C12.9993 8.8038 12.6003 10.0028 11.8625 10.9897C11.1246 11.9767 10.0876 12.6987 8.9059 13.0481C7.72423 13.3975 6.46127 13.3555 5.30539 12.9285C4.14951 12.5014 3.16264 11.7122 2.49196 10.6785C1.82128 9.64472 1.50272 8.42188 1.5838 7.19231C1.66488 5.96274 2.14124 4.79232 2.94186 3.8556C3.74247 2.91889 4.82443 2.26606 6.02638 1.9945C7.22832 1.72294 8.48585 1.84718 9.61141 2.3487" stroke="#CE161C" stroke-width="2" stroke-linecap="round" stroke-linejoin="round"/>
<path d="M13 3L7.2857 8.72L5.57141 7.00571" stroke="#CE161C" stroke-width="2" stroke-linecap="round" stroke-linejoin="round"/>
</g>
<defs>
<clipPath id="clip0_2530_935">
<rect width="13.7143" height="13.7143" fill="white" transform="translate(0.428589 0.714355)"/>
</clipPath>
</defs>
</svg>
