<svg width="87" height="36" viewBox="0 0 87 36" fill="none" xmlns="http://www.w3.org/2000/svg">
<path d="M41.29 17.5053V27.5784H38.0412V2.6665H46.4908C48.5477 2.6665 50.4963 3.42326 52.0149 4.8318C53.5318 6.1303 54.2903 8.08059 54.2903 10.1392C54.2903 12.1979 53.5335 14.0381 52.0149 15.4467C50.498 16.8552 48.6578 17.612 46.4908 17.612L41.29 17.5053ZM41.29 5.6986V14.3649H46.7075C47.8993 14.3649 49.0912 13.9298 49.8496 13.0664C51.5832 11.4428 51.5832 8.73408 49.9563 7.10884L49.8496 6.99879C48.9828 6.132 47.8993 5.59025 46.7075 5.70029H41.29V5.6986Z" fill="#5F6368"/>
<path d="M61.763 10.0327C64.1467 10.0327 65.987 10.6811 67.3955 11.983C68.8041 13.2815 69.4525 15.0151 69.4525 17.1821V27.582H66.4204V25.1983H66.3137C65.0152 27.1486 63.1716 28.1237 61.0063 28.1237C59.166 28.1237 57.5391 27.5819 56.2406 26.5001C55.0488 25.4167 54.2903 23.8998 54.2903 22.2762C54.2903 20.5426 54.9404 19.1375 56.2406 18.0523C57.5391 16.9688 59.3794 16.5354 61.548 16.5354C63.4983 16.5354 65.0152 16.8604 66.2054 17.6189V16.8621C66.2054 15.7786 65.7737 14.6968 64.9069 14.045C64.0401 13.2883 62.9566 12.8532 61.7647 12.8532C59.9245 12.8532 58.5159 13.6099 57.5408 15.1285L54.7237 13.3949C56.4556 11.1145 58.7309 10.0327 61.763 10.0327ZM57.6475 22.3795C57.6475 23.2463 58.0792 24.003 58.7309 24.4364C59.4877 24.9782 60.3545 25.3032 61.2213 25.3032C62.5198 25.3032 63.8217 24.7615 64.7951 23.788C65.8786 22.8112 66.4187 21.6227 66.4187 20.3208C65.4452 19.5641 64.035 19.129 62.1947 19.129C60.8962 19.129 59.8111 19.454 58.946 20.1024C58.0792 20.6459 57.6475 21.4043 57.6475 22.3795Z" fill="#5F6368"/>
<path d="M87 10.5745L76.2785 35.1596H73.0263L77.0353 26.6034L69.9942 10.6811H73.4614L78.5505 22.9195H78.6588L83.6412 10.6811H87V10.5745Z" fill="#5F6368"/>
<path d="M28.4032 15.34C28.4032 14.3631 28.2932 13.3897 28.1865 12.4146H14.6479V17.9387H22.3373C22.0123 19.6723 21.0388 21.2958 19.5202 22.271V25.8448H24.1776C26.8846 23.3545 28.4032 19.6706 28.4032 15.34Z" fill="#4285F4"/>
<path d="M14.6445 29.3107C18.5434 29.3107 21.7922 28.0122 24.1776 25.8435L19.5203 22.2697C18.2218 23.1365 16.5948 23.6782 14.6479 23.6782C10.964 23.6782 7.71525 21.1879 6.63345 17.7207H1.86438V21.4046C4.35473 26.2786 9.23045 29.3107 14.6445 29.3107Z" fill="#34A853"/>
<path d="M6.63004 17.7222C5.97994 15.9886 5.97994 14.0383 6.63004 12.198V8.51416H1.86435C-0.194287 12.5231 -0.194287 17.2888 1.86435 21.4044L6.63004 17.7222Z" fill="#FBBC04"/>
<path d="M14.6446 6.34881C16.7032 6.34881 18.6535 7.10557 20.1687 8.51411L24.286 4.39852C21.6856 2.01653 18.2201 0.607982 14.7529 0.714639C9.33544 0.714639 4.35644 3.74673 1.97275 8.62246L6.73843 12.303C7.71358 8.84085 10.9624 6.34881 14.6446 6.34881Z" fill="#EA4335"/>
</svg>
