<svg width="25" height="24" viewBox="0 0 25 24" fill="none" xmlns="http://www.w3.org/2000/svg">
<g clip-path="url(#clip0_684_16)">
<path d="M12.7655 15C14.4133 15 15.7491 13.6569 15.7491 12C15.7491 10.3431 14.4133 9 12.7655 9C11.1176 9 9.78182 10.3431 9.78182 12C9.78182 13.6569 11.1176 15 12.7655 15Z" stroke="#272727" stroke-width="2" stroke-linecap="round" stroke-linejoin="round"/>
<path d="M20.1251 15C19.9927 15.3016 19.9532 15.6362 20.0117 15.9606C20.0702 16.285 20.224 16.5843 20.4533 16.82L20.513 16.88C20.6979 17.0657 20.8446 17.2863 20.9447 17.5291C21.0448 17.7719 21.0963 18.0322 21.0963 18.295C21.0963 18.5578 21.0448 18.8181 20.9447 19.0609C20.8446 19.3037 20.6979 19.5243 20.513 19.71C20.3282 19.896 20.1089 20.0435 19.8674 20.1441C19.6259 20.2448 19.3671 20.2966 19.1057 20.2966C18.8443 20.2966 18.5855 20.2448 18.344 20.1441C18.1025 20.0435 17.8831 19.896 17.6984 19.71L17.6387 19.65C17.4043 19.4195 17.1066 19.2648 16.784 19.206C16.4614 19.1472 16.1286 19.1869 15.8287 19.32C15.5345 19.4468 15.2836 19.6572 15.1069 19.9255C14.9302 20.1938 14.8354 20.5082 14.8341 20.83V21C14.8341 21.5304 14.6245 22.0391 14.2515 22.4142C13.8785 22.7893 13.3726 23 12.845 23C12.3175 23 11.8115 22.7893 11.4385 22.4142C11.0655 22.0391 10.8559 21.5304 10.8559 21V20.91C10.8482 20.579 10.7417 20.258 10.5501 19.9887C10.3586 19.7194 10.0909 19.5143 9.78182 19.4C9.48185 19.2669 9.1491 19.2272 8.82647 19.286C8.50384 19.3448 8.20614 19.4995 7.97175 19.73L7.91207 19.79C7.72734 19.976 7.50797 20.1235 7.26649 20.2241C7.02502 20.3248 6.76619 20.3766 6.50479 20.3766C6.24339 20.3766 5.98456 20.3248 5.74309 20.2241C5.50162 20.1235 5.28224 19.976 5.09751 19.79C4.91257 19.6043 4.76586 19.3837 4.66576 19.1409C4.56566 18.8981 4.51414 18.6378 4.51414 18.375C4.51414 18.1122 4.56566 17.8519 4.66576 17.6091C4.76586 17.3663 4.91257 17.1457 5.09751 16.96L5.15718 16.9C5.38646 16.6643 5.54027 16.365 5.59876 16.0406C5.65726 15.7162 5.61777 15.3816 5.48538 15.08C5.35931 14.7842 5.14998 14.532 4.88315 14.3543C4.61632 14.1766 4.30365 14.0813 3.98362 14.08H3.81455C3.28701 14.08 2.78107 13.8693 2.40805 13.4942C2.03502 13.1191 1.82545 12.6104 1.82545 12.08C1.82545 11.5496 2.03502 11.0409 2.40805 10.6658C2.78107 10.2907 3.28701 10.08 3.81455 10.08H3.90405C4.23324 10.0723 4.5525 9.96512 4.82033 9.77251C5.08815 9.5799 5.29216 9.31074 5.40582 9C5.53821 8.69838 5.5777 8.36381 5.5192 8.03941C5.4607 7.71502 5.3069 7.41568 5.07762 7.18L5.01795 7.12C4.83301 6.93425 4.68629 6.71368 4.58619 6.47088C4.48609 6.22808 4.43457 5.96783 4.43457 5.705C4.43457 5.44217 4.48609 5.18192 4.58619 4.93912C4.68629 4.69632 4.83301 4.47575 5.01795 4.29C5.20268 4.10405 5.42205 3.95653 5.66352 3.85588C5.905 3.75523 6.16383 3.70343 6.42523 3.70343C6.68663 3.70343 6.94546 3.75523 7.18693 3.85588C7.4284 3.95653 7.64778 4.10405 7.83251 4.29L7.89218 4.35C8.12658 4.58054 8.42428 4.73519 8.74691 4.794C9.06953 4.85282 9.40228 4.81312 9.70226 4.68H9.78182C10.076 4.55324 10.3268 4.34276 10.5036 4.07447C10.6803 3.80618 10.7751 3.49179 10.7764 3.17V3C10.7764 2.46957 10.9859 1.96086 11.359 1.58579C11.732 1.21071 12.2379 1 12.7655 1C13.293 1 13.7989 1.21071 14.172 1.58579C14.545 1.96086 14.7545 2.46957 14.7545 3V3.09C14.7558 3.41179 14.8507 3.72618 15.0274 3.99447C15.2041 4.26276 15.4549 4.47324 15.7491 4.6C16.0491 4.73312 16.3818 4.77282 16.7044 4.714C17.0271 4.65519 17.3248 4.50054 17.5592 4.27L17.6188 4.21C17.8036 4.02405 18.0229 3.87653 18.2644 3.77588C18.5059 3.67523 18.7647 3.62343 19.0261 3.62343C19.2875 3.62343 19.5464 3.67523 19.7878 3.77588C20.0293 3.87653 20.2487 4.02405 20.4334 4.21C20.6183 4.39575 20.7651 4.61632 20.8652 4.85912C20.9653 5.10192 21.0168 5.36217 21.0168 5.625C21.0168 5.88783 20.9653 6.14808 20.8652 6.39088C20.7651 6.63368 20.6183 6.85425 20.4334 7.04L20.3737 7.1C20.1444 7.33568 19.9906 7.63502 19.9321 7.95941C19.8736 8.28381 19.9131 8.61838 20.0455 8.92V9C20.1716 9.29577 20.3809 9.54802 20.6478 9.72569C20.9146 9.90337 21.2273 9.99872 21.5473 10H21.7164C22.2439 10 22.7498 10.2107 23.1229 10.5858C23.4959 10.9609 23.7055 11.4696 23.7055 12C23.7055 12.5304 23.4959 13.0391 23.1229 13.4142C22.7498 13.7893 22.2439 14 21.7164 14H21.6269C21.3068 14.0013 20.9942 14.0966 20.7273 14.2743C20.4605 14.452 20.2512 14.7042 20.1251 15Z" stroke="#272727" stroke-width="2" stroke-linecap="round" stroke-linejoin="round"/>
</g>
<defs>
<clipPath id="clip0_684_16">
<rect width="23.8691" height="24" fill="white" transform="translate(0.83091)"/>
</clipPath>
</defs>
</svg>
