<svg width="15" height="16" viewBox="0 0 15 16" fill="none" xmlns="http://www.w3.org/2000/svg">
<g clip-path="url(#clip0_2539_60)">
<path d="M7.5 10.0894C8.53553 10.0894 9.375 9.24989 9.375 8.21436C9.375 7.17882 8.53553 6.33936 7.5 6.33936C6.46447 6.33936 5.625 7.17882 5.625 8.21436C5.625 9.24989 6.46447 10.0894 7.5 10.0894Z" stroke="#CE161C" stroke-width="2" stroke-linecap="round" stroke-linejoin="round"/>
<path d="M12.125 10.0894C12.0418 10.2779 12.017 10.487 12.0537 10.6897C12.0905 10.8925 12.1872 11.0796 12.3313 11.2269L12.3688 11.2644C12.485 11.3804 12.5772 11.5183 12.6401 11.6701C12.703 11.8218 12.7354 11.9845 12.7354 12.1487C12.7354 12.313 12.703 12.4757 12.6401 12.6274C12.5772 12.7792 12.485 12.917 12.3688 13.0331C12.2527 13.1493 12.1148 13.2415 11.9631 13.3044C11.8113 13.3673 11.6486 13.3997 11.4844 13.3997C11.3201 13.3997 11.1574 13.3673 11.0057 13.3044C10.854 13.2415 10.7161 13.1493 10.6 13.0331L10.5625 12.9956C10.4152 12.8515 10.2281 12.7549 10.0254 12.7181C9.82262 12.6813 9.61351 12.7062 9.425 12.7894C9.24015 12.8686 9.08249 13.0001 8.97144 13.1678C8.8604 13.3355 8.8008 13.532 8.8 13.7331V13.8394C8.8 14.1709 8.6683 14.4888 8.43388 14.7232C8.19946 14.9577 7.88152 15.0894 7.55 15.0894C7.21848 15.0894 6.90054 14.9577 6.66612 14.7232C6.4317 14.4888 6.3 14.1709 6.3 13.8394V13.7831C6.29516 13.5762 6.2282 13.3756 6.10782 13.2073C5.98744 13.039 5.81921 12.9108 5.625 12.8394C5.43649 12.7562 5.22738 12.7313 5.02463 12.7681C4.82189 12.8049 4.6348 12.9015 4.4875 13.0456L4.45 13.0831C4.33391 13.1993 4.19605 13.2915 4.0443 13.3544C3.89255 13.4173 3.72989 13.4497 3.56563 13.4497C3.40136 13.4497 3.2387 13.4173 3.08695 13.3544C2.9352 13.2915 2.79734 13.1993 2.68125 13.0831C2.56503 12.967 2.47283 12.8292 2.40993 12.6774C2.34702 12.5257 2.31464 12.363 2.31464 12.1987C2.31464 12.0345 2.34702 11.8718 2.40993 11.7201C2.47283 11.5683 2.56503 11.4304 2.68125 11.3144L2.71875 11.2769C2.86284 11.1296 2.95949 10.9425 2.99625 10.7397C3.03301 10.537 3.0082 10.3279 2.925 10.1394C2.84577 9.9545 2.71422 9.79684 2.54654 9.6858C2.37886 9.57475 2.18237 9.51516 1.98125 9.51436H1.875C1.54348 9.51436 1.22554 9.38266 0.991117 9.14824C0.756696 8.91382 0.625 8.59588 0.625 8.26436C0.625 7.93283 0.756696 7.61489 0.991117 7.38047C1.22554 7.14605 1.54348 7.01436 1.875 7.01436H1.93125C2.13812 7.00952 2.33875 6.94255 2.50706 6.82217C2.67537 6.70179 2.80357 6.53356 2.875 6.33936C2.9582 6.15085 2.98301 5.94173 2.94625 5.73899C2.90949 5.53624 2.81284 5.34915 2.66875 5.20186L2.63125 5.16436C2.51503 5.04826 2.42283 4.9104 2.35993 4.75866C2.29702 4.60691 2.26464 4.44425 2.26464 4.27998C2.26464 4.11571 2.29702 3.95305 2.35993 3.80131C2.42283 3.64956 2.51503 3.5117 2.63125 3.39561C2.74734 3.27938 2.8852 3.18719 3.03695 3.12428C3.1887 3.06138 3.35136 3.029 3.51563 3.029C3.67989 3.029 3.84255 3.06138 3.9943 3.12428C4.14605 3.18719 4.28391 3.27938 4.4 3.39561L4.4375 3.43311C4.5848 3.57719 4.77189 3.67385 4.97463 3.71061C5.17738 3.74737 5.38649 3.72255 5.575 3.63936H5.625C5.80986 3.56013 5.96751 3.42858 6.07856 3.2609C6.18961 3.09321 6.2492 2.89672 6.25 2.69561V2.58936C6.25 2.25783 6.3817 1.93989 6.61612 1.70547C6.85054 1.47105 7.16848 1.33936 7.5 1.33936C7.83152 1.33936 8.14946 1.47105 8.38388 1.70547C8.6183 1.93989 8.75 2.25783 8.75 2.58936V2.64561C8.7508 2.84672 8.8104 3.04322 8.92144 3.2109C9.03249 3.37858 9.19015 3.51013 9.375 3.58936C9.56351 3.67255 9.77262 3.69737 9.97537 3.66061C10.1781 3.62385 10.3652 3.52719 10.5125 3.38311L10.55 3.34561C10.6661 3.22938 10.804 3.13719 10.9557 3.07428C11.1074 3.01138 11.2701 2.979 11.4344 2.979C11.5986 2.979 11.7613 3.01138 11.9131 3.07428C12.0648 3.13719 12.2027 3.22938 12.3188 3.34561C12.435 3.4617 12.5272 3.59956 12.5901 3.75131C12.653 3.90305 12.6854 4.06571 12.6854 4.22998C12.6854 4.39425 12.653 4.55691 12.5901 4.70866C12.5272 4.8604 12.435 4.99826 12.3188 5.11436L12.2813 5.15186C12.1372 5.29915 12.0405 5.48624 12.0037 5.68899C11.967 5.89173 11.9918 6.10085 12.075 6.28936V6.33936C12.1542 6.52421 12.2858 6.68187 12.4535 6.79291C12.6211 6.90396 12.8176 6.96355 13.0188 6.96436H13.125C13.4565 6.96436 13.7745 7.09605 14.0089 7.33047C14.2433 7.56489 14.375 7.88283 14.375 8.21436C14.375 8.54588 14.2433 8.86382 14.0089 9.09824C13.7745 9.33266 13.4565 9.46436 13.125 9.46436H13.0688C12.8676 9.46516 12.6711 9.52475 12.5035 9.6358C12.3358 9.74684 12.2042 9.9045 12.125 10.0894Z" stroke="#CE161C" stroke-width="2" stroke-linecap="round" stroke-linejoin="round"/>
</g>
<defs>
<clipPath id="clip0_2539_60">
<rect width="15" height="15" fill="white" transform="translate(0 0.714355)"/>
</clipPath>
</defs>
</svg>
