<svg width="42" height="41" viewBox="0 0 42 41" fill="none" xmlns="http://www.w3.org/2000/svg">
<path d="M0.592285 0H41.1225V21.723L39.1163 24.8351L41.1225 27.605V40.2404H0.592285V19.7623L1.84612 18.3307L0.592285 16.9613V0Z" fill="#016FD0"/>
<path d="M8.46008 28.0406V21.7229H15.1975L15.9204 22.6585L16.6672 21.7229H41.1225V27.6049C41.1225 27.6049 40.4829 28.0343 39.7432 28.0406H26.2018L25.3868 27.0447V28.0406H22.7162V26.3406C22.7162 26.3406 22.3514 26.5779 21.5626 26.5779H20.6536V28.0406H16.61L15.8882 27.0849L15.1553 28.0406H8.46008Z" fill="black"/>
<path d="M0.592285 16.9613L2.11161 13.4446H4.73912L5.60135 15.4145V13.4446H8.86759L9.38087 14.8684L9.87849 13.4446H24.5405V14.1604C24.5405 14.1604 25.3113 13.4446 26.578 13.4446L31.3353 13.4611L32.1826 15.4052V13.4446H34.916L35.6683 14.5613V13.4446H38.4267V19.7623H35.6683L34.9473 18.6419V19.7623H30.9314L30.5276 18.7664H29.448L29.0507 19.7623H26.3272C25.2373 19.7623 24.5405 19.0611 24.5405 19.0611V19.7623H20.4342L19.6192 18.7664V19.7623H4.34987L3.94629 18.7664H2.87012L2.4694 19.7623H0.592285V16.9613Z" fill="black"/>
<path d="M2.64933 14.2236L0.600098 18.9541H1.93426L2.31236 18.0069H4.51049L4.88664 18.9541H6.25019L4.20291 14.2236H2.64933ZM3.40751 15.3246L4.07753 16.9799H2.73553L3.40751 15.3246Z" fill="#016FD0"/>
<path d="M6.39124 18.9532V14.2227L8.28715 14.2296L9.38987 17.2796L10.4662 14.2227H12.3469V18.9532H11.1558V15.4675L9.89317 18.9532H8.84853L7.58238 15.4675V18.9532H6.39124Z" fill="#016FD0"/>
<path d="M13.162 18.9532V14.2227H17.0489V15.2808H14.3657V16.09H16.9862V17.0859H14.3657V17.9261H17.0489V18.9532H13.162Z" fill="#016FD0"/>
<path d="M17.7385 14.2236V18.9541H18.9297V17.2736H19.4312L20.8594 18.9541H22.315L20.7477 17.2113C21.391 17.1574 22.0545 16.6093 22.0545 15.7583C22.0545 14.7629 21.2675 14.2236 20.3892 14.2236H17.7385ZM18.9297 15.2818H20.2913C20.6179 15.2818 20.8555 15.5354 20.8555 15.7797C20.8555 16.094 20.5476 16.2777 20.3089 16.2777H18.9297V15.2818Z" fill="#016FD0"/>
<path d="M23.7569 18.9532H22.5406V14.2227H23.7569V18.9532Z" fill="#016FD0"/>
<path d="M26.6407 18.9532H26.3782C25.108 18.9532 24.3368 17.9596 24.3368 16.6074C24.3368 15.2217 25.0994 14.2227 26.7034 14.2227H28.0199V15.343H26.6553C26.0041 15.343 25.5436 15.8476 25.5436 16.619C25.5436 17.5351 26.0702 17.9199 26.8288 17.9199H27.1422L26.6407 18.9532Z" fill="#016FD0"/>
<path d="M29.2326 14.2236L27.1833 18.9541H28.5175L28.8956 18.0069H31.0937L31.4699 18.9541H32.8334L30.7862 14.2236H29.2326ZM29.9908 15.3246L30.6608 16.9799H29.3188L29.9908 15.3246Z" fill="#016FD0"/>
<path d="M32.9725 18.9532V14.2227H34.4869L36.4206 17.1948V14.2227H37.6117V18.9532H36.1463L34.1637 15.9032V18.9532H32.9725Z" fill="#016FD0"/>
<path d="M9.27515 27.2315V22.501H13.162V23.5591H10.4788V24.3683H13.0993V25.3642H10.4788V26.2045H13.162V27.2315H9.27515Z" fill="#016FD0"/>
<path d="M28.3208 27.2315V22.501H32.2077V23.5591H29.5245V24.3683H32.1325V25.3642H29.5245V26.2045H32.2077V27.2315H28.3208Z" fill="#016FD0"/>
<path d="M13.3128 27.2315L15.2053 24.8954L13.2677 22.501H14.7684L15.9223 23.9812L17.0801 22.501H18.522L16.61 24.8662L18.5059 27.2315H17.0055L15.8851 25.7746L14.7919 27.2315H13.3128Z" fill="#016FD0"/>
<path d="M18.6475 22.502V27.2325H19.8699V25.7386H21.1238C22.1847 25.7386 22.9889 25.1798 22.9889 24.0931C22.9889 23.1928 22.3582 22.502 21.2786 22.502H18.6475ZM19.8699 23.5718H21.1904C21.5331 23.5718 21.7781 23.7803 21.7781 24.1164C21.7781 24.4321 21.5344 24.661 21.1865 24.661H19.8699V23.5718Z" fill="#016FD0"/>
<path d="M23.5061 22.501V27.2315H24.6972V25.5509H25.1988L26.627 27.2315H28.0826L26.5153 25.4887C27.1585 25.4348 27.822 24.8866 27.822 24.0357C27.822 23.0402 27.0351 22.501 26.1568 22.501H23.5061ZM24.6972 23.5591H26.0588C26.3855 23.5591 26.6231 23.8128 26.6231 24.0571C26.6231 24.3713 26.3152 24.555 26.0765 24.555H24.6972V23.5591Z" fill="#016FD0"/>
<path d="M32.7594 27.2315V26.2045H35.1433C35.496 26.2045 35.6487 26.0152 35.6487 25.8077C35.6487 25.6088 35.4965 25.4077 35.1433 25.4077H34.066C33.1296 25.4077 32.6082 24.8413 32.6082 23.9909C32.6082 23.2324 33.0857 22.501 34.4772 22.501H36.7967L36.2952 23.5653H34.2891C33.9056 23.5653 33.7875 23.7651 33.7875 23.9559C33.7875 24.152 33.9334 24.3683 34.2264 24.3683H35.3548C36.3987 24.3683 36.8516 24.9561 36.8516 25.726C36.8516 26.5536 36.3469 27.2315 35.298 27.2315H32.7594Z" fill="#016FD0"/>
<path d="M37.1312 27.2315V26.2045H39.5151C39.8678 26.2045 40.0205 26.0152 40.0205 25.8077C40.0205 25.6088 39.8683 25.4077 39.5151 25.4077H38.4378C37.5015 25.4077 36.98 24.8413 36.98 23.9909C36.98 23.2324 37.4575 22.501 38.849 22.501H41.1686L40.667 23.5653H38.6609C38.2774 23.5653 38.1594 23.7651 38.1594 23.9559C38.1594 24.152 38.3052 24.3683 38.5982 24.3683H39.7267C40.7705 24.3683 41.2234 24.9561 41.2234 25.726C41.2234 26.5536 40.7187 27.2315 39.6698 27.2315H37.1312Z" fill="#016FD0"/>
</svg>
