<svg width="28" height="28" viewBox="0 0 28 28" fill="none" xmlns="http://www.w3.org/2000/svg">
<g clip-path="url(#clip0_326_68)">
<path d="M22.2394 17.478V19.6487H27.6988L26.4376 16.9166H23.06C22.6229 16.9166 22.2394 17.179 22.2394 17.478Z" fill="url(#paint0_linear_326_68)"/>
<path d="M24.9922 26.0109C24.9922 24.9691 24.1351 24.1244 23.0781 24.1244C22.0209 24.1244 21.1638 24.9691 21.1638 26.0109C21.1638 27.0529 22.0209 27.8976 23.0781 27.8976C24.1351 27.8976 24.9922 27.0529 24.9922 26.0109Z" fill="url(#paint1_linear_326_68)"/>
<path d="M10.4609 26.0109C10.4609 24.9691 9.60406 24.1244 8.54684 24.1244C7.48962 24.1244 6.63278 24.9691 6.63278 26.0109C6.63278 27.0529 7.48962 27.8976 8.54684 27.8976C9.60406 27.8976 10.4609 27.0529 10.4609 26.0109Z" fill="url(#paint2_linear_326_68)"/>
<path d="M15.8767 13.7643C15.408 14.3168 14.7238 14.6336 13.9998 14.6336C13.2756 14.6336 12.5916 14.3168 12.1229 13.7643C11.3633 12.8693 10.3648 11.5833 9.51285 10.1246H3.48547C3.03238 10.1246 2.66516 10.4865 2.66516 10.933V11.7418H5.64542C6.09851 11.7418 6.46573 12.1036 6.46573 12.5503C6.46573 12.9968 6.09851 13.3589 5.64542 13.3589H2.66516V11.7418H0.820312C0.367218 11.7418 0 12.1036 0 12.5503C0 12.9968 0.367218 13.3589 0.820312 13.3589H2.66516V14.976H9.3223C9.77518 14.976 10.1426 15.3379 10.1426 15.7844C10.1426 16.231 9.77518 16.5929 9.3223 16.5929H2.66516V18.1411H6.63278C7.08588 18.1411 7.45309 18.5029 7.45309 18.9496C7.45309 19.3961 7.08588 19.7582 6.63278 19.7582H2.66516V24.5288C2.66516 24.9753 3.03238 25.3374 3.48547 25.3374H5.05881C5.37839 23.7267 6.82056 22.5073 8.54684 22.5073C10.2731 22.5073 11.7153 23.7267 12.0349 25.3374H17.9191V11.4722C17.9191 11.3489 17.9018 11.2297 17.8704 11.1163C17.1813 12.163 16.4586 13.0784 15.8767 13.7643Z" fill="url(#paint3_linear_326_68)"/>
<path d="M1.96875 14.9758C1.51566 14.9758 1.14844 15.3379 1.14844 15.7844C1.14844 16.2309 1.51566 16.593 1.96875 16.593H2.66516V14.9758H1.96875Z" fill="url(#paint4_linear_326_68)"/>
<path d="M0.820313 18.1409C0.367218 18.1409 0 18.503 0 18.9494C0 19.3961 0.367218 19.7582 0.820313 19.7582H2.66516V18.1409H0.820313Z" fill="url(#paint5_linear_326_68)"/>
<path d="M21.4191 21.2658C20.966 21.2658 20.5988 20.9039 20.5988 20.4572V17.4781C20.5988 16.2769 21.7028 15.2995 23.0598 15.2995H25.6892C24.8805 13.6326 23.0098 12.5598 20.896 12.5598H19.5598V25.3644H19.585C19.8939 23.7404 21.3422 22.5074 23.0781 22.5074C24.8138 22.5074 26.2622 23.7404 26.5711 25.3644H27.1797C27.6328 25.3644 28 25.0023 28 24.5558V21.2658H21.4191Z" fill="url(#paint6_linear_326_68)"/>
<path d="M13.9998 0.109375C11.451 0.109375 9.3851 2.17554 9.3851 4.72406C9.3851 7.66223 12.1126 11.2167 13.3739 12.7029C13.702 13.0895 14.2976 13.0895 14.6257 12.7029C15.8867 11.2165 18.6145 7.66223 18.6145 4.72406C18.6145 2.17554 16.5483 0.109375 13.9998 0.109375ZM13.9998 6.33286C13.0951 6.33286 12.3592 5.59692 12.3592 4.69223C12.3592 3.78754 13.0951 3.05161 13.9998 3.05161C14.9045 3.05161 15.6404 3.78754 15.6404 4.69223C15.6404 5.59692 14.9045 6.33286 13.9998 6.33286Z" fill="url(#paint7_linear_326_68)"/>
</g>
<defs>
<linearGradient id="paint0_linear_326_68" x1="22.2394" y1="17.0779" x2="27.6649" y2="17.4126" gradientUnits="userSpaceOnUse">
<stop stop-color="#F6F6F6"/>
<stop offset="0.495959" stop-color="#F6F6F6" stop-opacity="0.71"/>
<stop offset="1" stop-color="#F6F6F6"/>
</linearGradient>
<linearGradient id="paint1_linear_326_68" x1="21.1638" y1="24.3471" x2="24.9792" y2="24.4666" gradientUnits="userSpaceOnUse">
<stop stop-color="#F6F6F6"/>
<stop offset="0.495959" stop-color="#F6F6F6" stop-opacity="0.71"/>
<stop offset="1" stop-color="#F6F6F6"/>
</linearGradient>
<linearGradient id="paint2_linear_326_68" x1="6.63278" y1="24.3471" x2="10.4479" y2="24.4666" gradientUnits="userSpaceOnUse">
<stop stop-color="#F6F6F6"/>
<stop offset="0.495959" stop-color="#F6F6F6" stop-opacity="0.71"/>
<stop offset="1" stop-color="#F6F6F6"/>
</linearGradient>
<linearGradient id="paint3_linear_326_68" x1="8.43796e-08" y1="11.0226" x2="17.8521" y2="11.6718" gradientUnits="userSpaceOnUse">
<stop stop-color="#F6F6F6"/>
<stop offset="0.495959" stop-color="#F6F6F6" stop-opacity="0.71"/>
<stop offset="1" stop-color="#F6F6F6"/>
</linearGradient>
<linearGradient id="paint4_linear_326_68" x1="1.14844" y1="15.0713" x2="2.66022" y2="15.1151" gradientUnits="userSpaceOnUse">
<stop stop-color="#F6F6F6"/>
<stop offset="0.495959" stop-color="#F6F6F6" stop-opacity="0.71"/>
<stop offset="1" stop-color="#F6F6F6"/>
</linearGradient>
<linearGradient id="paint5_linear_326_68" x1="1.255e-08" y1="18.2363" x2="2.65184" y2="18.3712" gradientUnits="userSpaceOnUse">
<stop stop-color="#F6F6F6"/>
<stop offset="0.495959" stop-color="#F6F6F6" stop-opacity="0.71"/>
<stop offset="1" stop-color="#F6F6F6"/>
</linearGradient>
<linearGradient id="paint6_linear_326_68" x1="19.5598" y1="13.3156" x2="27.9761" y2="13.4869" gradientUnits="userSpaceOnUse">
<stop stop-color="#F6F6F6"/>
<stop offset="0.495959" stop-color="#F6F6F6" stop-opacity="0.71"/>
<stop offset="1" stop-color="#F6F6F6"/>
</linearGradient>
<linearGradient id="paint7_linear_326_68" x1="9.3851" y1="0.869858" x2="18.5876" y2="1.07337" gradientUnits="userSpaceOnUse">
<stop stop-color="#F6F6F6"/>
<stop offset="0.495959" stop-color="#F6F6F6" stop-opacity="0.71"/>
<stop offset="1" stop-color="#F6F6F6"/>
</linearGradient>
<clipPath id="clip0_326_68">
<rect width="28" height="28" fill="white"/>
</clipPath>
</defs>
</svg>
