<svg width="28" height="28" viewBox="0 0 28 28" fill="none" xmlns="http://www.w3.org/2000/svg">
<g clip-path="url(#clip0_285_1951)">
<path d="M9.36895 23.939C10.8157 26.4439 13.5111 28 16.4039 28C20.8834 28 24.5277 24.3556 24.5277 19.8762V12.7036C24.5277 11.9889 23.9461 11.4073 23.2314 11.4073C22.5166 11.4073 21.935 11.9889 21.935 12.7036V13.7407C21.935 14.027 21.7029 14.2592 21.4166 14.2592C21.1302 14.2592 20.8981 14.027 20.8981 13.7407V11.4073C20.8981 10.6926 20.3165 10.111 19.6017 10.111C18.887 10.111 18.3054 10.6926 18.3054 11.4073V13.4814C18.3054 13.7678 18.0733 13.9999 17.7869 13.9999C17.5006 13.9999 17.2685 13.7678 17.2685 13.4814V10.3703C17.2685 9.65558 16.6869 9.07404 15.9721 9.07404C15.2574 9.07404 14.6758 9.65558 14.6758 10.3703V13.4815C14.6758 13.7678 14.4437 14 14.1573 14C13.871 14 13.6388 13.7678 13.6388 13.4815V3.88884C13.6388 3.17408 13.0573 2.59253 12.3425 2.59253C11.6278 2.59253 11.0462 3.17408 11.0462 3.88884V16.2594C11.0462 16.8202 10.7176 17.3354 10.2091 17.5719C9.5247 17.8905 8.72287 17.6373 8.34498 16.9832L6.78918 14.2883C6.14594 13.1742 4.71598 12.7913 3.60188 13.4342C3.47807 13.5057 3.43552 13.6646 3.50705 13.7885L9.36895 23.939Z" fill="white"/>
<path d="M10.0092 3.88888C10.0092 2.6023 11.056 1.55553 12.3425 1.55553C13.6291 1.55553 14.6759 2.6023 14.6759 3.88888V7C15.6406 6.27452 16.2314 5.12559 16.2314 3.88888C16.2314 1.74453 14.4868 0 12.3425 0C10.1981 0 8.45359 1.74453 8.45359 3.88888C8.45359 5.12564 9.04444 6.27452 10.0091 7L10.0092 3.88888Z" fill="white"/>
</g>
<defs>
<clipPath id="clip0_285_1951">
<rect width="28" height="28" fill="white"/>
</clipPath>
</defs>
</svg>
