<svg width="28" height="28" viewBox="0 0 28 28" fill="none" xmlns="http://www.w3.org/2000/svg">
<path d="M8.74999 20.1622H19.25V21.8422C19.2496 22.1483 19.1612 22.4484 18.9944 22.7092C18.8277 22.9701 18.5891 23.1817 18.305 23.3206C18.151 24.311 17.6317 25.2154 16.8416 25.8691C16.0514 26.5228 15.0431 26.8824 14 26.8824C12.9569 26.8824 11.9485 26.5228 11.1584 25.8691C10.3683 25.2154 9.84897 24.311 9.69499 23.3206C9.41089 23.1817 9.17229 22.9701 9.00553 22.7092C8.83877 22.4484 8.75034 22.1483 8.74999 21.8422V20.1622Z" fill="white"/>
<path d="M14 10.0822C14.4832 10.0822 14.875 9.70614 14.875 9.24222C14.875 8.7783 14.4832 8.40222 14 8.40222C13.5167 8.40222 13.125 8.7783 13.125 9.24222C13.125 9.70614 13.5167 10.0822 14 10.0822Z" fill="white"/>
<path d="M14 5.8822C11.9087 5.8822 9.86999 8.0074 8.93374 9.2338C9.70374 10.2418 11.7425 12.6022 14 12.6022C16.0912 12.6022 18.13 10.477 19.0662 9.2506C18.2962 8.2426 16.2575 5.8822 14 5.8822ZM14 11.7622C13.4808 11.7622 12.9733 11.6144 12.5416 11.3375C12.1099 11.0606 11.7735 10.667 11.5748 10.2066C11.3761 9.74609 11.3241 9.2394 11.4254 8.75057C11.5267 8.26174 11.7767 7.81272 12.1438 7.46029C12.5109 7.10786 12.9787 6.86786 13.4879 6.77062C13.9971 6.67339 14.5249 6.72329 15.0045 6.91402C15.4842 7.10476 15.8942 7.42775 16.1826 7.84216C16.471 8.25657 16.625 8.74379 16.625 9.2422C16.6229 9.90994 16.3457 10.5498 15.8539 11.022C15.362 11.4941 14.6956 11.7602 14 11.7622Z" fill="white"/>
<path d="M23.5812 8.32672C23.4214 6.78915 22.8626 5.31459 21.9558 4.03791C21.0491 2.76123 19.8233 1.72319 18.3907 1.01874C16.9582 0.314288 15.3644 -0.0340907 13.7554 0.00547158C12.1463 0.0450339 10.5733 0.471274 9.18014 1.2452C7.787 2.01913 6.61822 3.11605 5.78073 4.43561C4.94324 5.75518 4.46376 7.25527 4.38615 8.79868C4.30854 10.3421 4.63529 11.8795 5.33649 13.2704C6.03769 14.6613 7.09097 15.8612 8.39999 16.7603C8.5099 16.8355 8.59917 16.9351 8.66014 17.0507C8.7211 17.1663 8.75193 17.2944 8.74999 17.4239V18.4823H19.25V17.4239C19.2487 17.2924 19.2806 17.1625 19.3431 17.0455C19.4056 16.9284 19.4968 16.8277 19.6087 16.7519C20.9865 15.8091 22.0798 14.533 22.7775 13.0532C23.4752 11.5734 23.7525 9.94269 23.5812 8.32672ZM20.8687 9.68752C20.7462 9.87232 17.8237 14.2823 14 14.2823C10.1762 14.2823 7.25374 9.87232 7.13124 9.68752C7.04542 9.55364 6.99998 9.39952 6.99998 9.24232C6.99998 9.08512 7.04542 8.931 7.13124 8.79712C7.25374 8.61232 10.1762 4.20233 14 4.20233C17.8237 4.20233 20.7462 8.61232 20.8687 8.79712C20.9545 8.931 21 9.08512 21 9.24232C21 9.39952 20.9545 9.55364 20.8687 9.68752Z" fill="white"/>
<path d="M2.625 10.0683H0.874999C0.642935 10.0683 0.420375 9.9798 0.256281 9.82227C0.0921872 9.66474 0 9.45109 0 9.2283C0 9.00552 0.0921872 8.79187 0.256281 8.63434C0.420375 8.4768 0.642935 8.38831 0.874999 8.38831H2.625C2.85706 8.38831 3.07962 8.4768 3.24372 8.63434C3.40781 8.79187 3.5 9.00552 3.5 9.2283C3.5 9.45109 3.40781 9.66474 3.24372 9.82227C3.07962 9.9798 2.85706 10.0683 2.625 10.0683Z" fill="white"/>
<path d="M4.2007 4.53567C4.04498 4.53566 3.89212 4.49557 3.75803 4.41958L2.24989 3.56807C2.1484 3.51338 2.0593 3.4398 1.9878 3.35163C1.9163 3.26347 1.86384 3.1625 1.83349 3.05464C1.80314 2.94677 1.79552 2.83418 1.81106 2.72345C1.8266 2.61272 1.86499 2.50607 1.924 2.40977C1.983 2.31346 2.06142 2.22941 2.15467 2.16256C2.24793 2.09571 2.35414 2.04739 2.46709 2.02043C2.58003 1.99347 2.69745 1.98841 2.81246 2.00555C2.92746 2.02269 3.03776 2.06168 3.13687 2.12025L4.64502 2.97176C4.81051 3.06527 4.93936 3.20845 5.01171 3.37921C5.08405 3.54998 5.09587 3.73885 5.04534 3.9167C4.99481 4.09455 4.88474 4.25151 4.7321 4.36337C4.57946 4.47522 4.39273 4.53577 4.2007 4.53567Z" fill="white"/>
<path d="M2.69421 16.4802C2.50218 16.4803 2.31545 16.4198 2.1628 16.3079C2.01016 16.1961 1.90009 16.0391 1.84956 15.8613C1.79903 15.6834 1.81085 15.4946 1.88319 15.3238C1.95554 15.153 2.08439 15.0098 2.24988 14.9163L3.75803 14.0648C3.85715 14.0063 3.96744 13.9673 4.08245 13.9501C4.19746 13.933 4.31487 13.938 4.42782 13.965C4.54077 13.992 4.64698 14.0403 4.74023 14.1071C4.83348 14.174 4.91191 14.258 4.97091 14.3543C5.02991 14.4507 5.06831 14.5573 5.08385 14.668C5.09939 14.7788 5.09176 14.8914 5.06141 14.9992C5.03106 15.1071 4.9786 15.2081 4.90711 15.2962C4.83561 15.3844 4.74651 15.458 4.64502 15.5127L3.13687 16.3642C3.0028 16.4402 2.84992 16.4803 2.69421 16.4802Z" fill="white"/>
<path d="M27.125 10.0683H25.375C25.1429 10.0683 24.9203 9.9798 24.7563 9.82227C24.5922 9.66474 24.5 9.45109 24.5 9.2283C24.5 9.00552 24.5922 8.79187 24.7563 8.63434C24.9203 8.4768 25.1429 8.38831 25.375 8.38831H27.125C27.357 8.38831 27.5796 8.4768 27.7437 8.63434C27.9078 8.79187 28 9.00552 28 9.2283C28 9.45109 27.9078 9.66474 27.7437 9.82227C27.5796 9.9798 27.357 10.0683 27.125 10.0683Z" fill="white"/>
<path d="M23.7993 4.53567C23.6072 4.53577 23.4205 4.47522 23.2679 4.36337C23.1152 4.25151 23.0052 4.09455 22.9546 3.9167C22.9041 3.73885 22.9159 3.54998 22.9883 3.37921C23.0606 3.20845 23.1895 3.06527 23.355 2.97176L24.8631 2.12025C24.9622 2.06168 25.0725 2.02269 25.1875 2.00555C25.3025 1.98841 25.4199 1.99347 25.5329 2.02043C25.6458 2.04739 25.752 2.09571 25.8453 2.16256C25.9386 2.22941 26.017 2.31346 26.076 2.40977C26.135 2.50607 26.1734 2.61272 26.1889 2.72345C26.2045 2.83418 26.1968 2.94677 26.1665 3.05464C26.1361 3.1625 26.0837 3.26347 26.0122 3.35163C25.9407 3.4398 25.8516 3.51338 25.7501 3.56807L24.2419 4.41958C24.1079 4.49557 23.955 4.53566 23.7993 4.53567Z" fill="white"/>
<path d="M25.3058 16.4802C25.1501 16.4803 24.9972 16.4402 24.8631 16.3642L23.355 15.5127C23.2535 15.458 23.1644 15.3844 23.0929 15.2962C23.0214 15.2081 22.9689 15.1071 22.9386 14.9992C22.9082 14.8914 22.9006 14.7788 22.9161 14.668C22.9317 14.5573 22.9701 14.4507 23.0291 14.3543C23.0881 14.258 23.1665 14.174 23.2597 14.1071C23.353 14.0403 23.4592 13.992 23.5722 13.965C23.6851 13.938 23.8025 13.933 23.9175 13.9501C24.0325 13.9673 24.1428 14.0063 24.2419 14.0648L25.7501 14.9163C25.9156 15.0098 26.0444 15.153 26.1168 15.3238C26.1891 15.4946 26.2009 15.6834 26.1504 15.8613C26.0999 16.0391 25.9898 16.1961 25.8372 16.3079C25.6845 16.4198 25.4978 16.4803 25.3058 16.4802Z" fill="white"/>
</svg>
