<svg width="28" height="28" viewBox="0 0 28 28" fill="none" xmlns="http://www.w3.org/2000/svg">
<g clip-path="url(#clip0_326_153)">
<path d="M22.6577 0.331787H20.6755C20.6755 0.679271 20.736 1.01276 20.8459 1.32289C20.9769 1.69203 21.1785 2.02797 21.435 2.31399C21.5079 2.39531 21.5851 2.47264 21.6666 2.54559C21.9526 2.80202 22.2885 3.00365 22.6577 3.13463C22.9679 3.24466 23.3014 3.30509 23.6488 3.30509V1.32283C23.6488 0.775521 23.205 0.331787 22.6577 0.331787Z" fill="url(#paint0_linear_326_153)"/>
<path d="M8.43189 11.1236C8.30086 10.7544 8.09928 10.4186 7.84285 10.1325C7.7699 10.0512 7.69268 9.97387 7.61125 9.90092C7.32518 9.64449 6.98934 9.44286 6.62015 9.31188C6.30996 9.20185 5.97647 9.14142 5.62904 9.14142V11.1236C5.62904 11.671 6.07278 12.1147 6.62015 12.1147H8.60235C8.60235 11.7673 8.54186 11.4338 8.43189 11.1236Z" fill="url(#paint1_linear_326_153)"/>
<path d="M22.6577 5.18749C22.3129 5.11727 21.9815 5.01019 21.6666 4.87227C20.5257 4.37221 19.6085 3.45494 19.1084 2.31399C18.9703 1.9991 18.8633 1.66764 18.793 1.32289C18.7277 1.00247 18.6933 0.671123 18.6933 0.331787H10.5845C10.5845 0.671123 10.5501 1.00247 10.4847 1.32289C10.4145 1.66764 10.3074 1.9991 10.1695 2.31399C9.66947 3.45494 8.75219 4.37215 7.61125 4.87227C7.29636 5.0103 6.965 5.11733 6.62015 5.18749C6.29984 5.25279 5.96838 5.28724 5.62904 5.28724V7.15919C5.96838 7.15919 6.29984 7.19365 6.62015 7.25894C6.965 7.32911 7.29641 7.43613 7.61125 7.57416C8.75219 8.07422 9.66941 8.9915 10.1695 10.1324C10.3076 10.4473 10.4146 10.7787 10.4847 11.1235C10.55 11.4438 10.5845 11.7753 10.5845 12.1146H18.6933C18.6933 11.7753 18.7277 11.4438 18.793 11.1235C18.8633 10.7787 18.9703 10.4473 19.1084 10.1324C19.6084 8.9915 20.5257 8.07428 21.6666 7.57416C21.9815 7.43613 22.3129 7.32911 22.6577 7.25894C22.9781 7.19365 23.3095 7.15919 23.6488 7.15919V5.28724C23.3095 5.28724 22.9781 5.25273 22.6577 5.18749ZM15.0843 7.21432H14.1934C13.646 7.21432 13.2023 6.77058 13.2023 6.22322C13.2023 5.67585 13.646 5.23211 14.1934 5.23211H15.0843C15.6317 5.23211 16.0754 5.67585 16.0754 6.22322C16.0754 6.77058 15.6317 7.21432 15.0843 7.21432Z" fill="url(#paint2_linear_326_153)"/>
<path d="M6.62015 0.331787C6.07278 0.331787 5.62904 0.775522 5.62904 1.32289V3.30509C5.97647 3.30509 6.3099 3.24466 6.62015 3.13463C6.98934 3.0036 7.32512 2.80202 7.61125 2.54559C7.69257 2.47264 7.7699 2.39537 7.84285 2.31399C8.09928 2.02797 8.30091 1.69203 8.43189 1.32289C8.54192 1.01276 8.60235 0.679271 8.60235 0.331787H6.62015Z" fill="url(#paint3_linear_326_153)"/>
<path d="M22.6577 9.31188C22.2885 9.44286 21.9527 9.64449 21.6666 9.90092C21.5852 9.97387 21.5079 10.0511 21.435 10.1325C21.1785 10.4186 20.9769 10.7544 20.8459 11.1236C20.7359 11.4338 20.6755 11.7673 20.6755 12.1147H22.6577C23.205 12.1147 23.6488 11.671 23.6488 11.1236V9.14142C23.3014 9.14142 22.9679 9.2019 22.6577 9.31188Z" fill="url(#paint4_linear_326_153)"/>
<path d="M22.0619 17.4615L13.3289 17.4793H13.3288C12.8776 17.4793 12.4554 17.6541 12.1378 17.9718C11.8201 18.2895 11.6452 18.7118 11.6452 19.161C11.6452 20.0809 12.3926 20.8346 13.3117 20.8428L16.4956 20.8428C17.0429 20.8428 17.4867 21.2865 17.4867 21.8339C17.4867 22.3812 17.043 22.825 16.4956 22.825L13.327 22.8251L13.3072 22.825L10.1956 22.8251C9.93267 22.8251 9.68067 22.7207 9.49474 22.5347L3.58903 16.6289L2.87028 15.9102C2.61915 15.6591 2.30246 15.4977 1.95891 15.4408C1.86785 15.4258 1.7751 15.4177 1.68099 15.4177C1.23162 15.4177 0.809432 15.5926 0.491752 15.9102C-0.163951 16.566 -0.164006 17.6331 0.491752 18.2888L8.39158 26.1887H21.8415C22.1044 26.1887 22.3564 26.2931 22.5422 26.479L23.7315 27.6683L28 23.3996L22.0619 17.4615Z" fill="url(#paint5_linear_326_153)"/>
</g>
<defs>
<linearGradient id="paint0_linear_326_153" x1="20.6755" y1="0.507294" x2="23.6388" y2="0.598773" gradientUnits="userSpaceOnUse">
<stop stop-color="#F6F6F6"/>
<stop offset="0.495959" stop-color="#F6F6F6" stop-opacity="0.71"/>
<stop offset="1" stop-color="#F6F6F6"/>
</linearGradient>
<linearGradient id="paint1_linear_326_153" x1="5.62904" y1="9.31693" x2="8.59232" y2="9.4084" gradientUnits="userSpaceOnUse">
<stop stop-color="#F6F6F6"/>
<stop offset="0.495959" stop-color="#F6F6F6" stop-opacity="0.71"/>
<stop offset="1" stop-color="#F6F6F6"/>
</linearGradient>
<linearGradient id="paint2_linear_326_153" x1="5.62904" y1="1.0273" x2="23.5652" y2="1.87409" gradientUnits="userSpaceOnUse">
<stop stop-color="#F6F6F6"/>
<stop offset="0.495959" stop-color="#F6F6F6" stop-opacity="0.71"/>
<stop offset="1" stop-color="#F6F6F6"/>
</linearGradient>
<linearGradient id="paint3_linear_326_153" x1="5.62904" y1="0.507294" x2="8.59232" y2="0.598773" gradientUnits="userSpaceOnUse">
<stop stop-color="#F6F6F6"/>
<stop offset="0.495959" stop-color="#F6F6F6" stop-opacity="0.71"/>
<stop offset="1" stop-color="#F6F6F6"/>
</linearGradient>
<linearGradient id="paint4_linear_326_153" x1="20.6755" y1="9.31693" x2="23.6388" y2="9.4084" gradientUnits="userSpaceOnUse">
<stop stop-color="#F6F6F6"/>
<stop offset="0.495959" stop-color="#F6F6F6" stop-opacity="0.71"/>
<stop offset="1" stop-color="#F6F6F6"/>
</linearGradient>
<linearGradient id="paint5_linear_326_153" x1="-4.56445e-05" y1="16.1408" x2="27.7938" y2="18.1019" gradientUnits="userSpaceOnUse">
<stop stop-color="#F6F6F6"/>
<stop offset="0.495959" stop-color="#F6F6F6" stop-opacity="0.71"/>
<stop offset="1" stop-color="#F6F6F6"/>
</linearGradient>
<clipPath id="clip0_326_153">
<rect width="28" height="28" fill="white"/>
</clipPath>
</defs>
</svg>
