<svg width="28" height="28" viewBox="0 0 28 28" fill="none" xmlns="http://www.w3.org/2000/svg">
<g clip-path="url(#clip0_285_1941)">
<path d="M0.820312 26.1602C1.27373 26.1602 1.64062 25.7953 1.64062 25.3444V15.5547C1.64062 15.1038 1.27373 14.7389 0.820312 14.7389C0.366898 14.7389 0 15.1038 0 15.5547V25.3444C0 25.7953 0.366898 26.1602 0.820312 26.1602Z" fill="white"/>
<path d="M4.92188 18.8179C4.92188 18.367 4.55498 18.0021 4.10156 18.0021C3.64815 18.0021 3.28125 18.367 3.28125 18.8179V22.0811C3.28125 22.532 3.64815 22.8969 4.10156 22.8969C4.55498 22.8969 4.92188 22.532 4.92188 22.0811V18.8179Z" fill="white"/>
<path d="M10.6641 18.0021C10.2106 18.0021 9.84375 18.367 9.84375 18.8179V22.0811C9.84375 22.532 10.2106 22.8969 10.6641 22.8969C11.1175 22.8969 11.4844 22.532 11.4844 22.0811V18.8179C11.4844 18.367 11.1175 18.0021 10.6641 18.0021Z" fill="white"/>
<path d="M8.20312 25.3444V15.5547C8.20312 15.1038 7.83623 14.7389 7.38281 14.7389C6.9294 14.7389 6.5625 15.1038 6.5625 15.5547V25.3444C6.5625 25.7953 6.9294 26.1602 7.38281 26.1602C7.83623 26.1602 8.20312 25.7953 8.20312 25.3444Z" fill="white"/>
<path d="M27.1797 0H23.7891C17.9932 0 13.2628 4.67598 13.1282 10.4081L9.98156 15.1022C9.81411 15.3524 9.79814 15.6742 9.94071 15.9395C10.0833 16.2048 10.3613 16.3705 10.6641 16.3705H13.125V17.1863C13.125 17.4954 13.3004 17.7774 13.5784 17.9161L15.3921 18.8179L13.5784 19.7198C13.3004 19.8584 13.125 20.1404 13.125 20.4495V22.0811C13.125 23.4307 14.2289 24.5285 15.5859 24.5285H19.6875V27.0303C19.6875 27.4813 20.0544 27.8462 20.5078 27.8462H27.1797C27.6331 27.8462 28 27.4813 28 27.0303V0.815805C28 0.364882 27.6331 0 27.1797 0ZM17.2266 11.4757C16.7735 11.4757 16.4063 11.1104 16.4063 10.6599C16.4063 10.2092 16.7735 9.84405 17.2266 9.84405C17.6796 9.84405 18.0469 10.2092 18.0469 10.6599C18.0469 11.1104 17.6796 11.4757 17.2266 11.4757Z" fill="white"/>
</g>
<defs>
<clipPath id="clip0_285_1941">
<rect width="28" height="27.8462" fill="white"/>
</clipPath>
</defs>
</svg>
