<svg width="10" height="11" viewBox="0 0 10 11" fill="none" xmlns="http://www.w3.org/2000/svg">
<g clip-path="url(#clip0_283_1090)">
<path d="M5 0.8125C2.4125 0.8125 0.3125 2.9125 0.3125 5.5C0.3125 8.0875 2.4125 10.1875 5 10.1875C7.5875 10.1875 9.6875 8.0875 9.6875 5.5C9.6875 2.9125 7.5875 0.8125 5 0.8125ZM7.34375 4.6625L5.15625 7.1625C5.03438 7.30312 4.8625 7.375 4.6875 7.375C4.55 7.375 4.4125 7.33125 4.29688 7.2375L2.73438 5.9875C2.43881 5.75034 2.41537 5.29775 2.70984 5.03294C2.94144 4.82466 3.29988 4.83991 3.54313 5.0345L4.49447 5.79556C4.55875 5.84697 4.65209 5.83872 4.70638 5.77684L6.40625 3.8375C6.63125 3.57812 7.02812 3.55312 7.2875 3.78125C7.54688 4.00625 7.57188 4.40312 7.34375 4.6625Z" fill="#0B0B0B"/>
</g>
<defs>
<clipPath id="clip0_283_1090">
<rect width="10" height="10" fill="white" transform="translate(0 0.5)"/>
</clipPath>
</defs>
</svg>
