<svg width="390" height="261" viewBox="0 0 390 261" fill="none" xmlns="http://www.w3.org/2000/svg">
<g clip-path="url(#clip0_285_1715)">
<path d="M40.4291 66.8772C40.4291 67.0798 40.2645 67.2435 40.0616 67.2435C39.8586 67.2435 39.6941 67.0798 39.6941 66.8772C39.6941 66.6751 39.8587 66.511 40.0616 66.511C40.2646 66.511 40.4291 66.6751 40.4291 66.8772Z" fill="url(#paint0_linear_285_1715)"/>
<path d="M111.425 30.8382C111.425 31.0404 111.26 31.2044 111.057 31.2044C110.854 31.2044 110.69 31.0405 110.69 30.8382C110.69 30.6359 110.854 30.4719 111.057 30.4719C111.26 30.4719 111.425 30.6359 111.425 30.8382Z" fill="url(#paint1_linear_285_1715)"/>
<path d="M66.3726 65.7785C66.3726 65.9809 66.208 66.1449 66.005 66.1449C65.8021 66.1449 65.6376 65.9809 65.6376 65.7785C65.6376 65.5763 65.8022 65.4124 66.005 65.4124C66.2081 65.4123 66.3726 65.5763 66.3726 65.7785Z" fill="url(#paint2_linear_285_1715)"/>
<path d="M24.7748 42.6314C24.7748 42.8337 24.6103 42.9976 24.4073 42.9976C24.2043 42.9976 24.0399 42.8337 24.0399 42.6314C24.0399 42.4291 24.2043 42.2651 24.4073 42.2651C24.6103 42.2651 24.7748 42.4291 24.7748 42.6314Z" fill="url(#paint3_linear_285_1715)"/>
<path d="M20.4386 21.4622C20.4386 21.6645 20.2741 21.8284 20.0711 21.8284C19.8682 21.8284 19.7037 21.6644 19.7037 21.4622C19.7037 21.26 19.8682 21.0959 20.0711 21.0959C20.2741 21.0959 20.4386 21.26 20.4386 21.4622Z" fill="url(#paint4_linear_285_1715)"/>
<path d="M67.1075 22.1216C67.1075 22.3239 66.943 22.4879 66.7402 22.4879C66.537 22.4879 66.3726 22.3239 66.3726 22.1216C66.3726 21.9194 66.537 21.7554 66.7402 21.7554C66.943 21.7554 67.1075 21.9194 67.1075 22.1216Z" fill="url(#paint5_linear_285_1715)"/>
<path d="M127.005 16.5545C127.005 16.7567 126.841 16.9207 126.638 16.9207C126.435 16.9207 126.27 16.7567 126.27 16.5545C126.27 16.3522 126.435 16.1882 126.638 16.1882C126.841 16.1882 127.005 16.3522 127.005 16.5545Z" fill="url(#paint6_linear_285_1715)"/>
<path d="M97.5342 15.1626C97.5342 15.3649 97.3695 15.5289 97.1667 15.5289C96.9635 15.5289 96.7992 15.3649 96.7992 15.1626C96.7992 14.9603 96.9635 14.7964 97.1667 14.7964C97.3695 14.7964 97.5342 14.9603 97.5342 15.1626Z" fill="url(#paint7_linear_285_1715)"/>
<path d="M84.8196 19.4112C84.8196 19.6134 84.6552 19.7774 84.4522 19.7774C84.2492 19.7774 84.0847 19.6134 84.0847 19.4112C84.0847 19.2089 84.2492 19.0449 84.4522 19.0449C84.6552 19.0449 84.8196 19.2089 84.8196 19.4112Z" fill="url(#paint8_linear_285_1715)"/>
<path d="M155.889 37.2844C155.889 37.4865 156.053 37.6505 156.256 37.6505C156.459 37.6505 156.624 37.4865 156.624 37.2844C156.624 37.0819 156.459 36.918 156.256 36.918C156.053 36.918 155.889 37.0819 155.889 37.2844Z" fill="url(#paint9_linear_285_1715)"/>
<path d="M206.379 58.014C206.379 58.216 206.544 58.3802 206.747 58.3802C206.95 58.3802 207.114 58.216 207.114 58.014C207.114 57.8116 206.95 57.6477 206.747 57.6477C206.544 57.6477 206.379 57.8116 206.379 58.014Z" fill="url(#paint10_linear_285_1715)"/>
<path d="M151.405 0.36625C151.405 0.568566 151.57 0.7325 151.773 0.7325C151.976 0.7325 152.14 0.568493 152.14 0.36625C152.14 0.164007 151.976 0 151.773 0C151.57 0 151.405 0.164007 151.405 0.36625Z" fill="url(#paint11_linear_285_1715)"/>
<path d="M347.047 30.8382C347.047 31.0404 346.883 31.2044 346.68 31.2044C346.477 31.2044 346.312 31.0405 346.312 30.8382C346.312 30.6359 346.477 30.4719 346.68 30.4719C346.883 30.4719 347.047 30.6359 347.047 30.8382Z" fill="url(#paint12_linear_285_1715)"/>
<path d="M301.922 65.7785C301.922 65.9809 301.757 66.1449 301.554 66.1449C301.351 66.1449 301.187 65.9809 301.187 65.7785C301.187 65.5763 301.351 65.4124 301.554 65.4124C301.757 65.4123 301.922 65.5763 301.922 65.7785Z" fill="url(#paint13_linear_285_1715)"/>
<path d="M302.73 22.1216C302.73 22.3239 302.566 22.4879 302.363 22.4879C302.16 22.4879 301.995 22.3239 301.995 22.1216C301.995 21.9194 302.16 21.7554 302.363 21.7554C302.566 21.7554 302.73 21.9194 302.73 22.1216Z" fill="url(#paint14_linear_285_1715)"/>
<path d="M362.775 16.5545C362.775 16.7567 362.611 16.9207 362.408 16.9207C362.205 16.9207 362.04 16.7567 362.04 16.5545C362.04 16.3522 362.205 16.1882 362.408 16.1882C362.611 16.1882 362.775 16.3522 362.775 16.5545Z" fill="url(#paint15_linear_285_1715)"/>
<path d="M333.157 15.1626C333.157 15.3649 332.992 15.5289 332.789 15.5289C332.586 15.5289 332.422 15.3649 332.422 15.1626C332.422 14.9603 332.586 14.7964 332.789 14.7964C332.992 14.7964 333.157 14.9603 333.157 15.1626Z" fill="url(#paint16_linear_285_1715)"/>
<path d="M320.442 19.4112C320.442 19.6134 320.278 19.7774 320.075 19.7774C319.872 19.7774 319.707 19.6134 319.707 19.4112C319.707 19.2089 319.872 19.0449 320.075 19.0449C320.278 19.0449 320.442 19.2089 320.442 19.4112Z" fill="url(#paint17_linear_285_1715)"/>
<path d="M387.175 0.36625C387.175 0.568566 387.34 0.7325 387.543 0.7325C387.746 0.7325 387.91 0.568493 387.91 0.36625C387.91 0.164007 387.746 0 387.543 0C387.34 0 387.175 0.164007 387.175 0.36625Z" fill="url(#paint18_linear_285_1715)"/>
<path d="M349.767 92.5147C349.767 92.7169 349.602 92.8809 349.399 92.8809C349.196 92.8809 349.032 92.7169 349.032 92.5147C349.032 92.3124 349.196 92.1484 349.399 92.1484C349.602 92.1484 349.767 92.3124 349.767 92.5147Z" fill="url(#paint19_linear_285_1715)"/>
<path d="M304.715 127.455C304.715 127.657 304.55 127.821 304.347 127.821C304.144 127.821 303.98 127.657 303.98 127.455C303.98 127.253 304.144 127.089 304.347 127.089C304.55 127.089 304.715 127.253 304.715 127.455Z" fill="url(#paint20_linear_285_1715)"/>
<path d="M305.597 83.7246C305.597 83.927 305.432 84.0909 305.229 84.0909C305.026 84.0909 304.862 83.9269 304.862 83.7246C304.862 83.5224 305.026 83.3584 305.229 83.3584C305.432 83.3584 305.597 83.5224 305.597 83.7246Z" fill="url(#paint21_linear_285_1715)"/>
<path d="M365.494 78.1578C365.494 78.36 365.33 78.524 365.127 78.524C364.924 78.524 364.759 78.36 364.759 78.1578C364.759 77.9555 364.924 77.7915 365.127 77.7915C365.33 77.7915 365.494 77.9555 365.494 78.1578Z" fill="url(#paint22_linear_285_1715)"/>
<path d="M336.023 76.7659C336.023 76.9682 335.859 77.1322 335.656 77.1322C335.453 77.1322 335.288 76.9682 335.288 76.7659C335.288 76.5636 335.453 76.3997 335.656 76.3997C335.859 76.3997 336.023 76.5636 336.023 76.7659Z" fill="url(#paint23_linear_285_1715)"/>
<path d="M323.235 80.9412C323.235 81.1434 323.071 81.3075 322.868 81.3075C322.665 81.3075 322.5 81.1434 322.5 80.9412C322.5 80.7389 322.665 80.575 322.868 80.575C323.071 80.575 323.235 80.739 323.235 80.9412Z" fill="url(#paint24_linear_285_1715)"/>
<path d="M389.968 61.9695C389.968 62.1718 390.133 62.3358 390.336 62.3358C390.539 62.3358 390.703 62.1718 390.703 61.9695C390.703 61.7673 390.539 61.6033 390.336 61.6033C390.133 61.6033 389.968 61.7673 389.968 61.9695Z" fill="url(#paint25_linear_285_1715)"/>
<path d="M40.4291 128.481C40.4291 128.683 40.2645 128.847 40.0616 128.847C39.8586 128.847 39.6941 128.683 39.6941 128.481C39.6941 128.278 39.8587 128.114 40.0616 128.114C40.2646 128.114 40.4291 128.278 40.4291 128.481Z" fill="url(#paint26_linear_285_1715)"/>
<path d="M111.425 92.5147C111.425 92.7169 111.26 92.8809 111.057 92.8809C110.854 92.8809 110.69 92.7169 110.69 92.5147C110.69 92.3124 110.854 92.1484 111.057 92.1484C111.26 92.1484 111.425 92.3124 111.425 92.5147Z" fill="url(#paint27_linear_285_1715)"/>
<path d="M66.3726 127.455C66.3726 127.657 66.208 127.821 66.005 127.821C65.8021 127.821 65.6376 127.657 65.6376 127.455C65.6376 127.253 65.8022 127.089 66.005 127.089C66.2081 127.089 66.3726 127.253 66.3726 127.455Z" fill="url(#paint28_linear_285_1715)"/>
<path d="M24.7748 104.235C24.7748 104.437 24.6103 104.601 24.4073 104.601C24.2043 104.601 24.0399 104.437 24.0399 104.235C24.0399 104.032 24.2043 103.868 24.4073 103.868C24.6103 103.868 24.7748 104.032 24.7748 104.235Z" fill="url(#paint29_linear_285_1715)"/>
<path d="M20.4386 83.0655C20.4386 83.2678 20.2741 83.4317 20.0711 83.4317C19.8682 83.4317 19.7037 83.2677 19.7037 83.0655C19.7037 82.8632 19.8682 82.6992 20.0711 82.6992C20.2741 82.6992 20.4386 82.8632 20.4386 83.0655Z" fill="url(#paint30_linear_285_1715)"/>
<path d="M67.1075 83.7246C67.1075 83.927 66.943 84.0909 66.7402 84.0909C66.537 84.0909 66.3726 83.9269 66.3726 83.7246C66.3726 83.5224 66.537 83.3584 66.7402 83.3584C66.943 83.3584 67.1075 83.5224 67.1075 83.7246Z" fill="url(#paint31_linear_285_1715)"/>
<path d="M127.005 78.1578C127.005 78.36 126.841 78.524 126.638 78.524C126.435 78.524 126.27 78.36 126.27 78.1578C126.27 77.9555 126.435 77.7915 126.638 77.7915C126.841 77.7915 127.005 77.9555 127.005 78.1578Z" fill="url(#paint32_linear_285_1715)"/>
<path d="M97.5342 76.7659C97.5342 76.9682 97.3695 77.1322 97.1667 77.1322C96.9635 77.1322 96.7992 76.9682 96.7992 76.7659C96.7992 76.5636 96.9635 76.3997 97.1667 76.3997C97.3695 76.3997 97.5342 76.5636 97.5342 76.7659Z" fill="url(#paint33_linear_285_1715)"/>
<path d="M84.8196 80.9412C84.8196 81.1434 84.6552 81.3075 84.4522 81.3075C84.2492 81.3075 84.0847 81.1434 84.0847 80.9412C84.0847 80.7389 84.2492 80.575 84.4522 80.575C84.6552 80.575 84.8196 80.739 84.8196 80.9412Z" fill="url(#paint34_linear_285_1715)"/>
<path d="M155.889 98.8876C155.889 99.0898 156.053 99.2537 156.256 99.2537C156.459 99.2537 156.624 99.0898 156.624 98.8876C156.624 98.6852 156.459 98.5212 156.256 98.5212C156.053 98.5212 155.889 98.6852 155.889 98.8876Z" fill="url(#paint35_linear_285_1715)"/>
<path d="M151.405 61.9695C151.405 62.1718 151.57 62.3358 151.773 62.3358C151.976 62.3358 152.14 62.1718 152.14 61.9695C152.14 61.7673 151.976 61.6033 151.773 61.6033C151.57 61.6033 151.405 61.7673 151.405 61.9695Z" fill="url(#paint36_linear_285_1715)"/>
<path d="M40.4291 191.329C40.4291 191.531 40.2645 191.695 40.0616 191.695C39.8586 191.695 39.6941 191.531 39.6941 191.329C39.6941 191.127 39.8587 190.963 40.0616 190.963C40.2646 190.963 40.4291 191.127 40.4291 191.329Z" fill="url(#paint37_linear_285_1715)"/>
<path d="M111.425 155.437C111.425 155.639 111.26 155.803 111.057 155.803C110.854 155.803 110.69 155.639 110.69 155.437C110.69 155.234 110.854 155.07 111.057 155.07C111.26 155.07 111.425 155.234 111.425 155.437Z" fill="url(#paint38_linear_285_1715)"/>
<path d="M66.3726 190.377C66.3726 190.579 66.208 190.743 66.005 190.743C65.8021 190.743 65.6376 190.579 65.6376 190.377C65.6376 190.175 65.8022 190.01 66.005 190.01C66.2081 190.01 66.3726 190.175 66.3726 190.377Z" fill="url(#paint39_linear_285_1715)"/>
<path d="M24.7748 167.01C24.7748 167.212 24.6103 167.376 24.4073 167.376C24.2043 167.376 24.0399 167.212 24.0399 167.01C24.0399 166.808 24.2043 166.644 24.4073 166.644C24.6103 166.644 24.7748 166.808 24.7748 167.01Z" fill="url(#paint40_linear_285_1715)"/>
<path d="M20.4386 146.061C20.4386 146.263 20.2741 146.427 20.0711 146.427C19.8682 146.427 19.7037 146.263 19.7037 146.061C19.7037 145.858 19.8682 145.694 20.0711 145.694C20.2741 145.694 20.4386 145.858 20.4386 146.061Z" fill="url(#paint41_linear_285_1715)"/>
<path d="M67.1075 146.647C67.1075 146.849 66.943 147.013 66.7402 147.013C66.537 147.013 66.3726 146.849 66.3726 146.647C66.3726 146.444 66.537 146.28 66.7402 146.28C66.943 146.28 67.1075 146.444 67.1075 146.647Z" fill="url(#paint42_linear_285_1715)"/>
<path d="M127.005 140.933C127.005 141.135 126.841 141.299 126.638 141.299C126.435 141.299 126.27 141.135 126.27 140.933C126.27 140.731 126.435 140.567 126.638 140.567C126.841 140.567 127.005 140.731 127.005 140.933Z" fill="url(#paint43_linear_285_1715)"/>
<path d="M97.5342 139.615C97.5342 139.817 97.3695 139.981 97.1667 139.981C96.9635 139.981 96.7992 139.817 96.7992 139.615C96.7992 139.412 96.9635 139.248 97.1667 139.248C97.3695 139.248 97.5342 139.412 97.5342 139.615Z" fill="url(#paint44_linear_285_1715)"/>
<path d="M84.8196 143.863C84.8196 144.065 84.6552 144.229 84.4522 144.229C84.2492 144.229 84.0847 144.065 84.0847 143.863C84.0847 143.661 84.2492 143.497 84.4522 143.497C84.6552 143.497 84.8196 143.661 84.8196 143.863Z" fill="url(#paint45_linear_285_1715)"/>
<path d="M155.889 161.956C155.889 162.158 156.053 162.322 156.256 162.322C156.459 162.322 156.624 162.158 156.624 161.956C156.624 161.754 156.459 161.59 156.256 161.59C156.053 161.59 155.889 161.754 155.889 161.956Z" fill="url(#paint46_linear_285_1715)"/>
<path d="M209.834 197.628C209.834 197.831 209.998 197.995 210.201 197.995C210.404 197.995 210.568 197.831 210.568 197.628C210.568 197.426 210.404 197.262 210.201 197.262C209.998 197.262 209.834 197.426 209.834 197.628Z" fill="url(#paint47_linear_285_1715)"/>
<path d="M151.405 124.964C151.405 125.167 151.57 125.331 151.773 125.331C151.976 125.331 152.14 125.167 152.14 124.964C152.14 124.762 151.976 124.598 151.773 124.598C151.57 124.598 151.405 124.762 151.405 124.964Z" fill="url(#paint48_linear_285_1715)"/>
<path d="M276.125 197.262C276.125 197.465 275.961 197.628 275.758 197.628C275.555 197.628 275.39 197.465 275.39 197.262C275.39 197.06 275.555 196.896 275.758 196.896C275.961 196.896 276.125 197.06 276.125 197.262Z" fill="url(#paint49_linear_285_1715)"/>
<path d="M347.047 161.296C347.047 161.499 346.883 161.663 346.68 161.663C346.477 161.663 346.312 161.499 346.312 161.296C346.312 161.094 346.477 160.93 346.68 160.93C346.883 160.93 347.047 161.094 347.047 161.296Z" fill="url(#paint50_linear_285_1715)"/>
<path d="M301.922 196.383C301.922 196.586 301.757 196.75 301.554 196.75C301.351 196.75 301.187 196.586 301.187 196.383C301.187 196.181 301.351 196.017 301.554 196.017C301.757 196.017 301.922 196.181 301.922 196.383Z" fill="url(#paint51_linear_285_1715)"/>
<path d="M302.73 152.653C302.73 152.855 302.566 153.019 302.363 153.019C302.16 153.019 301.995 152.855 301.995 152.653C301.995 152.451 302.16 152.287 302.363 152.287C302.566 152.287 302.73 152.451 302.73 152.653Z" fill="url(#paint52_linear_285_1715)"/>
<path d="M362.775 146.939C362.775 147.142 362.611 147.306 362.408 147.306C362.205 147.306 362.04 147.142 362.04 146.939C362.04 146.737 362.205 146.573 362.408 146.573C362.611 146.573 362.775 146.737 362.775 146.939Z" fill="url(#paint53_linear_285_1715)"/>
<path d="M333.157 145.621C333.157 145.823 332.992 145.987 332.789 145.987C332.586 145.987 332.422 145.823 332.422 145.621C332.422 145.419 332.586 145.255 332.789 145.255C332.992 145.255 333.157 145.419 333.157 145.621Z" fill="url(#paint54_linear_285_1715)"/>
<path d="M320.442 149.796C320.442 149.998 320.278 150.162 320.075 150.162C319.872 150.162 319.707 149.998 319.707 149.796C319.707 149.594 319.872 149.43 320.075 149.43C320.278 149.43 320.442 149.594 320.442 149.796Z" fill="url(#paint55_linear_285_1715)"/>
<path d="M387.175 130.825C387.175 131.027 387.34 131.191 387.543 131.191C387.746 131.191 387.91 131.027 387.91 130.825C387.91 130.622 387.746 130.458 387.543 130.458C387.34 130.458 387.175 130.622 387.175 130.825Z" fill="url(#paint56_linear_285_1715)"/>
<path d="M111.425 30.8382C111.425 31.0404 111.26 31.2044 111.057 31.2044C110.854 31.2044 110.69 31.0405 110.69 30.8382C110.69 30.6359 110.854 30.4719 111.057 30.4719C111.26 30.4719 111.425 30.6359 111.425 30.8382Z" fill="url(#paint57_linear_285_1715)"/>
<path d="M127.005 16.5545C127.005 16.7567 126.841 16.9207 126.638 16.9207C126.435 16.9207 126.27 16.7567 126.27 16.5545C126.27 16.3522 126.435 16.1882 126.638 16.1882C126.841 16.1882 127.005 16.3522 127.005 16.5545Z" fill="url(#paint58_linear_285_1715)"/>
<path d="M155.889 37.2844C155.889 37.4865 156.053 37.6505 156.256 37.6505C156.459 37.6505 156.624 37.4865 156.624 37.2844C156.624 37.0819 156.459 36.918 156.256 36.918C156.053 36.918 155.889 37.0819 155.889 37.2844Z" fill="url(#paint59_linear_285_1715)"/>
<path d="M151.405 0.36625C151.405 0.568566 151.57 0.7325 151.773 0.7325C151.976 0.7325 152.14 0.568493 152.14 0.36625C152.14 0.164007 151.976 0 151.773 0C151.57 0 151.405 0.164007 151.405 0.36625Z" fill="url(#paint60_linear_285_1715)"/>
<path d="M111.425 92.5147C111.425 92.7169 111.26 92.8809 111.057 92.8809C110.854 92.8809 110.69 92.7169 110.69 92.5147C110.69 92.3124 110.854 92.1484 111.057 92.1484C111.26 92.1484 111.425 92.3124 111.425 92.5147Z" fill="url(#paint61_linear_285_1715)"/>
<path d="M127.005 78.1578C127.005 78.36 126.841 78.524 126.638 78.524C126.435 78.524 126.27 78.36 126.27 78.1578C126.27 77.9555 126.435 77.7915 126.638 77.7915C126.841 77.7915 127.005 77.9555 127.005 78.1578Z" fill="url(#paint62_linear_285_1715)"/>
<path d="M155.889 98.8876C155.889 99.0898 156.053 99.2537 156.256 99.2537C156.459 99.2537 156.624 99.0898 156.624 98.8876C156.624 98.6852 156.459 98.5212 156.256 98.5212C156.053 98.5212 155.889 98.6852 155.889 98.8876Z" fill="url(#paint63_linear_285_1715)"/>
<path d="M151.405 61.9695C151.405 62.1718 151.57 62.3358 151.773 62.3358C151.976 62.3358 152.14 62.1718 152.14 61.9695C152.14 61.7673 151.976 61.6033 151.773 61.6033C151.57 61.6033 151.405 61.7673 151.405 61.9695Z" fill="url(#paint64_linear_285_1715)"/>
<path d="M111.425 155.437C111.425 155.639 111.26 155.803 111.057 155.803C110.854 155.803 110.69 155.639 110.69 155.437C110.69 155.234 110.854 155.07 111.057 155.07C111.26 155.07 111.425 155.234 111.425 155.437Z" fill="url(#paint65_linear_285_1715)"/>
<path d="M127.005 140.933C127.005 141.135 126.841 141.299 126.638 141.299C126.435 141.299 126.27 141.135 126.27 140.933C126.27 140.731 126.435 140.567 126.638 140.567C126.841 140.567 127.005 140.731 127.005 140.933Z" fill="url(#paint66_linear_285_1715)"/>
<path d="M155.889 161.956C155.889 162.158 156.053 162.322 156.256 162.322C156.459 162.322 156.624 162.158 156.624 161.956C156.624 161.754 156.459 161.59 156.256 161.59C156.053 161.59 155.889 161.754 155.889 161.956Z" fill="url(#paint67_linear_285_1715)"/>
<path d="M151.405 124.964C151.405 125.167 151.57 125.331 151.773 125.331C151.976 125.331 152.14 125.167 152.14 124.964C152.14 124.762 151.976 124.598 151.773 124.598C151.57 124.598 151.405 124.762 151.405 124.964Z" fill="url(#paint68_linear_285_1715)"/>
<path d="M178.304 31.7906C178.304 31.9928 178.14 32.1568 177.937 32.1568C177.734 32.1568 177.569 31.9929 177.569 31.7906C177.569 31.5882 177.734 31.4243 177.937 31.4243C178.14 31.4243 178.304 31.5883 178.304 31.7906Z" fill="url(#paint69_linear_285_1715)"/>
<path d="M193.959 17.4334C193.959 17.6356 193.794 17.7996 193.591 17.7996C193.388 17.7996 193.224 17.6356 193.224 17.4334C193.224 17.2311 193.388 17.0671 193.591 17.0671C193.794 17.0671 193.959 17.2311 193.959 17.4334Z" fill="url(#paint70_linear_285_1715)"/>
<path d="M222.915 38.31C222.915 38.5122 223.08 38.6761 223.283 38.6761C223.486 38.6761 223.65 38.5122 223.65 38.31C223.65 38.1075 223.486 37.9436 223.283 37.9436C223.08 37.9436 222.915 38.1075 222.915 38.31Z" fill="url(#paint71_linear_285_1715)"/>
<path d="M218.359 1.3184C218.359 1.52071 218.523 1.68465 218.726 1.68465C218.929 1.68465 219.094 1.52064 219.094 1.3184C219.094 1.11616 218.929 0.952148 218.726 0.952148C218.523 0.952148 218.359 1.11616 218.359 1.3184Z" fill="url(#paint72_linear_285_1715)"/>
<path d="M178.304 93.3938C178.304 93.5961 178.14 93.7601 177.937 93.7601C177.734 93.7601 177.569 93.5961 177.569 93.3938C177.569 93.1915 177.734 93.0276 177.937 93.0276C178.14 93.0276 178.304 93.1916 178.304 93.3938Z" fill="url(#paint73_linear_285_1715)"/>
<path d="M193.959 78.9634C193.959 79.1657 193.794 79.3297 193.591 79.3297C193.388 79.3297 193.224 79.1657 193.224 78.9634C193.224 78.7612 193.388 78.5972 193.591 78.5972C193.794 78.5972 193.959 78.7612 193.959 78.9634Z" fill="url(#paint74_linear_285_1715)"/>
<path d="M222.915 99.9133C222.915 100.115 223.08 100.279 223.283 100.279C223.486 100.279 223.65 100.115 223.65 99.9133C223.65 99.7108 223.486 99.5469 223.283 99.5469C223.08 99.5469 222.915 99.7108 222.915 99.9133Z" fill="url(#paint75_linear_285_1715)"/>
<path d="M218.359 62.9949C218.359 63.1972 218.523 63.3612 218.726 63.3612C218.929 63.3612 219.094 63.1972 219.094 62.9949C219.094 62.7927 218.929 62.6287 218.726 62.6287C218.523 62.6287 218.359 62.7927 218.359 62.9949Z" fill="url(#paint76_linear_285_1715)"/>
<path d="M178.304 156.315C178.304 156.518 178.14 156.682 177.937 156.682C177.734 156.682 177.569 156.518 177.569 156.315C177.569 156.113 177.734 155.949 177.937 155.949C178.14 155.949 178.304 156.113 178.304 156.315Z" fill="url(#paint77_linear_285_1715)"/>
<path d="M193.959 141.885C193.959 142.088 193.794 142.252 193.591 142.252C193.388 142.252 193.224 142.088 193.224 141.885C193.224 141.683 193.388 141.519 193.591 141.519C193.794 141.519 193.959 141.683 193.959 141.885Z" fill="url(#paint78_linear_285_1715)"/>
<path d="M222.915 162.762C222.915 162.964 223.08 163.128 223.283 163.128C223.486 163.128 223.65 162.964 223.65 162.762C223.65 162.559 223.486 162.395 223.283 162.395C223.08 162.395 222.915 162.559 222.915 162.762Z" fill="url(#paint79_linear_285_1715)"/>
<path d="M218.359 125.844C218.359 126.046 218.523 126.21 218.726 126.21C218.929 126.21 219.094 126.046 219.094 125.844C219.094 125.641 218.929 125.477 218.726 125.477C218.523 125.477 218.359 125.641 218.359 125.844Z" fill="url(#paint80_linear_285_1715)"/>
<path d="M240.628 33.0357C240.628 33.2379 240.463 33.4019 240.26 33.4019C240.057 33.4019 239.893 33.238 239.893 33.0357C239.893 32.8334 240.057 32.6694 240.26 32.6694C240.463 32.6694 240.628 32.8334 240.628 33.0357Z" fill="url(#paint81_linear_285_1715)"/>
<path d="M256.208 18.6055C256.208 18.8078 256.044 18.9718 255.841 18.9718C255.638 18.9718 255.473 18.8078 255.473 18.6055C255.473 18.4033 255.638 18.2393 255.841 18.2393C256.044 18.2393 256.208 18.4033 256.208 18.6055Z" fill="url(#paint82_linear_285_1715)"/>
<path d="M285.165 39.4086C285.165 39.6108 285.33 39.7747 285.533 39.7747C285.735 39.7747 285.9 39.6108 285.9 39.4086C285.9 39.2062 285.735 39.0422 285.533 39.0422C285.33 39.0422 285.165 39.2062 285.165 39.4086Z" fill="url(#paint83_linear_285_1715)"/>
<path d="M280.682 2.49052C280.682 2.69283 280.847 2.85677 281.049 2.85677C281.252 2.85677 281.417 2.69276 281.417 2.49052C281.417 2.28827 281.252 2.12427 281.049 2.12427C280.847 2.12427 280.682 2.28827 280.682 2.49052Z" fill="url(#paint84_linear_285_1715)"/>
<path d="M240.628 94.639C240.628 94.8412 240.463 95.0052 240.26 95.0052C240.057 95.0052 239.893 94.8412 239.893 94.639C239.893 94.4366 240.057 94.2727 240.26 94.2727C240.463 94.2727 240.628 94.4367 240.628 94.639Z" fill="url(#paint85_linear_285_1715)"/>
<path d="M256.208 80.282C256.208 80.4843 256.044 80.6483 255.841 80.6483C255.638 80.6483 255.473 80.4843 255.473 80.282C255.473 80.0798 255.638 79.9158 255.841 79.9158C256.044 79.9158 256.208 80.0798 256.208 80.282Z" fill="url(#paint86_linear_285_1715)"/>
<path d="M285.165 101.085C285.165 101.287 285.33 101.451 285.533 101.451C285.735 101.451 285.9 101.287 285.9 101.085C285.9 100.883 285.735 100.719 285.533 100.719C285.33 100.719 285.165 100.883 285.165 101.085Z" fill="url(#paint87_linear_285_1715)"/>
<path d="M280.682 64.167C280.682 64.3693 280.847 64.5333 281.049 64.5333C281.252 64.5333 281.417 64.3693 281.417 64.167C281.417 63.9648 281.252 63.8008 281.049 63.8008C280.847 63.8008 280.682 63.9648 280.682 64.167Z" fill="url(#paint88_linear_285_1715)"/>
<path d="M240.628 157.414C240.628 157.617 240.463 157.781 240.26 157.781C240.057 157.781 239.893 157.617 239.893 157.414C239.893 157.212 240.057 157.048 240.26 157.048C240.463 157.048 240.628 157.212 240.628 157.414Z" fill="url(#paint89_linear_285_1715)"/>
<path d="M256.208 143.057C256.208 143.259 256.044 143.423 255.841 143.423C255.638 143.423 255.473 143.259 255.473 143.057C255.473 142.855 255.638 142.691 255.841 142.691C256.044 142.691 256.208 142.855 256.208 143.057Z" fill="url(#paint90_linear_285_1715)"/>
<path d="M285.165 163.934C285.165 164.136 285.33 164.3 285.533 164.3C285.735 164.3 285.9 164.136 285.9 163.934C285.9 163.731 285.735 163.567 285.533 163.567C285.33 163.567 285.165 163.731 285.165 163.934Z" fill="url(#paint91_linear_285_1715)"/>
<path d="M280.682 126.942C280.682 127.144 280.847 127.308 281.049 127.308C281.252 127.308 281.417 127.144 281.417 126.942C281.417 126.74 281.252 126.576 281.049 126.576C280.847 126.576 280.682 126.74 280.682 126.942Z" fill="url(#paint92_linear_285_1715)"/>
<path d="M20.7326 223.339C20.7326 223.542 20.5681 223.705 20.3651 223.705C20.1621 223.705 19.9977 223.542 19.9977 223.339C19.9977 223.137 20.1622 222.973 20.3651 222.973C20.5681 222.973 20.7326 223.137 20.7326 223.339Z" fill="url(#paint93_linear_285_1715)"/>
<path d="M91.7281 187.3C91.7281 187.503 91.5633 187.667 91.3606 187.667C91.1576 187.667 90.9932 187.503 90.9932 187.3C90.9932 187.098 91.1576 186.934 91.3606 186.934C91.5633 186.934 91.7281 187.098 91.7281 187.3Z" fill="url(#paint94_linear_285_1715)"/>
<path d="M46.6761 222.24C46.6761 222.443 46.5116 222.607 46.3085 222.607C46.1056 222.607 45.9412 222.443 45.9412 222.24C45.9412 222.038 46.1057 221.874 46.3085 221.874C46.5116 221.874 46.6761 222.038 46.6761 222.24Z" fill="url(#paint95_linear_285_1715)"/>
<path d="M5.07831 199.094C5.07831 199.296 4.91383 199.46 4.71084 199.46C4.50785 199.46 4.34337 199.296 4.34337 199.094C4.34337 198.891 4.50785 198.727 4.71084 198.727C4.91383 198.727 5.07831 198.891 5.07831 199.094Z" fill="url(#paint96_linear_285_1715)"/>
<path d="M0.742222 177.924C0.742222 178.127 0.577741 178.291 0.37475 178.291C0.171832 178.291 0.00727844 178.127 0.00727844 177.924C0.00727844 177.722 0.171832 177.558 0.37475 177.558C0.577741 177.558 0.742222 177.722 0.742222 177.924Z" fill="url(#paint97_linear_285_1715)"/>
<path d="M47.411 178.584C47.411 178.786 47.2466 178.95 47.0437 178.95C46.8406 178.95 46.6761 178.786 46.6761 178.584C46.6761 178.381 46.8406 178.217 47.0437 178.217C47.2466 178.217 47.411 178.381 47.411 178.584Z" fill="url(#paint98_linear_285_1715)"/>
<path d="M107.309 173.016C107.309 173.219 107.144 173.383 106.941 173.383C106.739 173.383 106.574 173.219 106.574 173.016C106.574 172.814 106.739 172.65 106.941 172.65C107.144 172.65 107.309 172.814 107.309 173.016Z" fill="url(#paint99_linear_285_1715)"/>
<path d="M77.8377 171.625C77.8377 171.827 77.673 171.991 77.4702 171.991C77.267 171.991 77.1027 171.827 77.1027 171.625C77.1027 171.422 77.267 171.259 77.4702 171.259C77.673 171.259 77.8377 171.422 77.8377 171.625Z" fill="url(#paint100_linear_285_1715)"/>
<path d="M65.1232 175.873C65.1232 176.076 64.9587 176.24 64.7557 176.24C64.5527 176.24 64.3882 176.076 64.3882 175.873C64.3882 175.671 64.5527 175.507 64.7557 175.507C64.9588 175.507 65.1232 175.671 65.1232 175.873Z" fill="url(#paint101_linear_285_1715)"/>
<path d="M136.192 193.746C136.192 193.948 136.357 194.112 136.56 194.112C136.762 194.112 136.927 193.948 136.927 193.746C136.927 193.544 136.762 193.38 136.56 193.38C136.357 193.38 136.192 193.544 136.192 193.746Z" fill="url(#paint102_linear_285_1715)"/>
<path d="M186.683 214.476C186.683 214.678 186.847 214.842 187.05 214.842C187.253 214.842 187.418 214.678 187.418 214.476C187.418 214.274 187.253 214.11 187.05 214.11C186.847 214.11 186.683 214.274 186.683 214.476Z" fill="url(#paint103_linear_285_1715)"/>
<path d="M131.709 156.828C131.709 157.03 131.874 157.194 132.076 157.194C132.28 157.194 132.444 157.03 132.444 156.828C132.444 156.626 132.28 156.462 132.076 156.462C131.874 156.462 131.709 156.626 131.709 156.828Z" fill="url(#paint104_linear_285_1715)"/>
<path d="M327.351 187.3C327.351 187.503 327.186 187.667 326.983 187.667C326.78 187.667 326.616 187.503 326.616 187.3C326.616 187.098 326.78 186.934 326.983 186.934C327.186 186.934 327.351 187.098 327.351 187.3Z" fill="url(#paint105_linear_285_1715)"/>
<path d="M282.225 222.24C282.225 222.443 282.061 222.607 281.858 222.607C281.655 222.607 281.49 222.443 281.49 222.24C281.49 222.038 281.655 221.874 281.858 221.874C282.061 221.874 282.225 222.038 282.225 222.24Z" fill="url(#paint106_linear_285_1715)"/>
<path d="M283.034 178.584C283.034 178.786 282.869 178.95 282.667 178.95C282.463 178.95 282.299 178.786 282.299 178.584C282.299 178.381 282.463 178.217 282.667 178.217C282.869 178.217 283.034 178.381 283.034 178.584Z" fill="url(#paint107_linear_285_1715)"/>
<path d="M343.079 173.016C343.079 173.219 342.914 173.383 342.711 173.383C342.508 173.383 342.344 173.219 342.344 173.016C342.344 172.814 342.508 172.65 342.711 172.65C342.914 172.65 343.079 172.814 343.079 173.016Z" fill="url(#paint108_linear_285_1715)"/>
<path d="M313.461 171.625C313.461 171.827 313.296 171.991 313.093 171.991C312.89 171.991 312.726 171.827 312.726 171.625C312.726 171.422 312.89 171.259 313.093 171.259C313.296 171.259 313.461 171.422 313.461 171.625Z" fill="url(#paint109_linear_285_1715)"/>
<path d="M300.746 175.873C300.746 176.076 300.581 176.24 300.378 176.24C300.175 176.24 300.011 176.076 300.011 175.873C300.011 175.671 300.175 175.507 300.378 175.507C300.581 175.507 300.746 175.671 300.746 175.873Z" fill="url(#paint110_linear_285_1715)"/>
<path d="M371.962 193.746C371.962 193.948 372.126 194.112 372.329 194.112C372.532 194.112 372.697 193.948 372.697 193.746C372.697 193.544 372.532 193.38 372.329 193.38C372.126 193.38 371.962 193.544 371.962 193.746Z" fill="url(#paint111_linear_285_1715)"/>
<path d="M367.479 156.828C367.479 157.03 367.643 157.194 367.846 157.194C368.049 157.194 368.214 157.03 368.214 156.828C368.214 156.626 368.049 156.462 367.846 156.462C367.643 156.462 367.479 156.626 367.479 156.828Z" fill="url(#paint112_linear_285_1715)"/>
<path d="M330.07 248.977C330.07 249.179 329.905 249.343 329.703 249.343C329.5 249.343 329.335 249.179 329.335 248.977C329.335 248.775 329.5 248.611 329.703 248.611C329.905 248.611 330.07 248.775 330.07 248.977Z" fill="url(#paint113_linear_285_1715)"/>
<path d="M285.9 240.187C285.9 240.389 285.736 240.553 285.533 240.553C285.33 240.553 285.165 240.389 285.165 240.187C285.165 239.985 285.33 239.821 285.533 239.821C285.736 239.821 285.9 239.985 285.9 240.187Z" fill="url(#paint114_linear_285_1715)"/>
<path d="M345.798 234.62C345.798 234.822 345.633 234.986 345.43 234.986C345.228 234.986 345.063 234.822 345.063 234.62C345.063 234.417 345.228 234.253 345.43 234.253C345.633 234.253 345.798 234.417 345.798 234.62Z" fill="url(#paint115_linear_285_1715)"/>
<path d="M316.327 233.228C316.327 233.43 316.162 233.594 315.959 233.594C315.756 233.594 315.592 233.43 315.592 233.228C315.592 233.026 315.756 232.862 315.959 232.862C316.162 232.862 316.327 233.026 316.327 233.228Z" fill="url(#paint116_linear_285_1715)"/>
<path d="M303.539 237.403C303.539 237.606 303.374 237.77 303.171 237.77C302.968 237.77 302.804 237.606 302.804 237.403C302.804 237.201 302.968 237.037 303.171 237.037C303.374 237.037 303.539 237.201 303.539 237.403Z" fill="url(#paint117_linear_285_1715)"/>
<path d="M374.755 255.35C374.755 255.552 374.919 255.716 375.122 255.716C375.325 255.716 375.49 255.552 375.49 255.35C375.49 255.147 375.325 254.983 375.122 254.983C374.919 254.983 374.755 255.147 374.755 255.35Z" fill="url(#paint118_linear_285_1715)"/>
<path d="M370.272 218.431C370.272 218.634 370.436 218.798 370.639 218.798C370.842 218.798 371.006 218.634 371.006 218.431C371.006 218.229 370.842 218.065 370.639 218.065C370.436 218.065 370.272 218.229 370.272 218.431Z" fill="url(#paint119_linear_285_1715)"/>
<path d="M91.7281 248.977C91.7281 249.179 91.5633 249.343 91.3606 249.343C91.1576 249.343 90.9932 249.179 90.9932 248.977C90.9932 248.775 91.1576 248.611 91.3606 248.611C91.5633 248.611 91.7281 248.775 91.7281 248.977Z" fill="url(#paint120_linear_285_1715)"/>
<path d="M5.07831 260.697C5.07831 260.899 4.91383 261.063 4.71084 261.063C4.50785 261.063 4.34337 260.899 4.34337 260.697C4.34337 260.494 4.50785 260.331 4.71084 260.331C4.91383 260.331 5.07831 260.494 5.07831 260.697Z" fill="url(#paint121_linear_285_1715)"/>
<path d="M0.742222 239.527C0.742222 239.73 0.577741 239.894 0.37475 239.894C0.171832 239.894 0.00727844 239.73 0.00727844 239.527C0.00727844 239.325 0.171832 239.161 0.37475 239.161C0.577741 239.161 0.742222 239.325 0.742222 239.527Z" fill="url(#paint122_linear_285_1715)"/>
<path d="M47.411 240.187C47.411 240.389 47.2466 240.553 47.0437 240.553C46.8406 240.553 46.6761 240.389 46.6761 240.187C46.6761 239.985 46.8406 239.821 47.0437 239.821C47.2466 239.821 47.411 239.985 47.411 240.187Z" fill="url(#paint123_linear_285_1715)"/>
<path d="M107.309 234.62C107.309 234.822 107.144 234.986 106.941 234.986C106.739 234.986 106.574 234.822 106.574 234.62C106.574 234.417 106.739 234.253 106.941 234.253C107.144 234.253 107.309 234.417 107.309 234.62Z" fill="url(#paint124_linear_285_1715)"/>
<path d="M77.8377 233.228C77.8377 233.43 77.673 233.594 77.4702 233.594C77.267 233.594 77.1027 233.43 77.1027 233.228C77.1027 233.026 77.267 232.862 77.4702 232.862C77.673 232.862 77.8377 233.026 77.8377 233.228Z" fill="url(#paint125_linear_285_1715)"/>
<path d="M65.1232 237.403C65.1232 237.606 64.9587 237.77 64.7557 237.77C64.5527 237.77 64.3882 237.606 64.3882 237.403C64.3882 237.201 64.5527 237.037 64.7557 237.037C64.9588 237.037 65.1232 237.201 65.1232 237.403Z" fill="url(#paint126_linear_285_1715)"/>
<path d="M136.192 255.35C136.192 255.552 136.357 255.716 136.56 255.716C136.762 255.716 136.927 255.552 136.927 255.35C136.927 255.147 136.762 254.983 136.56 254.983C136.357 254.983 136.192 255.147 136.192 255.35Z" fill="url(#paint127_linear_285_1715)"/>
<path d="M131.709 218.431C131.709 218.634 131.874 218.798 132.076 218.798C132.28 218.798 132.444 218.634 132.444 218.431C132.444 218.229 132.28 218.065 132.076 218.065C131.874 218.065 131.709 218.229 131.709 218.431Z" fill="url(#paint128_linear_285_1715)"/>
<path d="M91.7281 187.3C91.7281 187.503 91.5633 187.667 91.3606 187.667C91.1576 187.667 90.9932 187.503 90.9932 187.3C90.9932 187.098 91.1576 186.934 91.3606 186.934C91.5633 186.934 91.7281 187.098 91.7281 187.3Z" fill="url(#paint129_linear_285_1715)"/>
<path d="M107.309 173.016C107.309 173.219 107.144 173.383 106.941 173.383C106.739 173.383 106.574 173.219 106.574 173.016C106.574 172.814 106.739 172.65 106.941 172.65C107.144 172.65 107.309 172.814 107.309 173.016Z" fill="url(#paint130_linear_285_1715)"/>
<path d="M136.192 193.746C136.192 193.948 136.357 194.112 136.56 194.112C136.762 194.112 136.927 193.948 136.927 193.746C136.927 193.544 136.762 193.38 136.56 193.38C136.357 193.38 136.192 193.544 136.192 193.746Z" fill="url(#paint131_linear_285_1715)"/>
<path d="M131.709 156.828C131.709 157.03 131.874 157.194 132.076 157.194C132.28 157.194 132.444 157.03 132.444 156.828C132.444 156.626 132.28 156.462 132.076 156.462C131.874 156.462 131.709 156.626 131.709 156.828Z" fill="url(#paint132_linear_285_1715)"/>
<path d="M91.7281 248.977C91.7281 249.179 91.5633 249.343 91.3606 249.343C91.1576 249.343 90.9932 249.179 90.9932 248.977C90.9932 248.775 91.1576 248.611 91.3606 248.611C91.5633 248.611 91.7281 248.775 91.7281 248.977Z" fill="url(#paint133_linear_285_1715)"/>
<path d="M107.309 234.62C107.309 234.822 107.144 234.986 106.941 234.986C106.739 234.986 106.574 234.822 106.574 234.62C106.574 234.417 106.739 234.253 106.941 234.253C107.144 234.253 107.309 234.417 107.309 234.62Z" fill="url(#paint134_linear_285_1715)"/>
<path d="M136.192 255.35C136.192 255.552 136.357 255.716 136.56 255.716C136.762 255.716 136.927 255.552 136.927 255.35C136.927 255.147 136.762 254.983 136.56 254.983C136.357 254.983 136.192 255.147 136.192 255.35Z" fill="url(#paint135_linear_285_1715)"/>
<path d="M131.709 218.431C131.709 218.634 131.874 218.798 132.076 218.798C132.28 218.798 132.444 218.634 132.444 218.431C132.444 218.229 132.28 218.065 132.076 218.065C131.874 218.065 131.709 218.229 131.709 218.431Z" fill="url(#paint136_linear_285_1715)"/>
<path d="M158.608 188.252C158.608 188.455 158.443 188.619 158.24 188.619C158.037 188.619 157.873 188.455 157.873 188.252C157.873 188.05 158.037 187.886 158.24 187.886C158.443 187.886 158.608 188.05 158.608 188.252Z" fill="url(#paint137_linear_285_1715)"/>
<path d="M174.262 173.896C174.262 174.098 174.098 174.262 173.895 174.262C173.692 174.262 173.527 174.098 173.527 173.896C173.527 173.693 173.692 173.529 173.895 173.529C174.098 173.529 174.262 173.693 174.262 173.896Z" fill="url(#paint138_linear_285_1715)"/>
<path d="M203.219 194.772C203.219 194.974 203.383 195.138 203.586 195.138C203.789 195.138 203.954 194.974 203.954 194.772C203.954 194.569 203.789 194.406 203.586 194.406C203.383 194.406 203.219 194.569 203.219 194.772Z" fill="url(#paint139_linear_285_1715)"/>
<path d="M198.662 157.781C198.662 157.983 198.827 158.147 199.03 158.147C199.233 158.147 199.397 157.983 199.397 157.781C199.397 157.578 199.233 157.414 199.03 157.414C198.827 157.414 198.662 157.578 198.662 157.781Z" fill="url(#paint140_linear_285_1715)"/>
<path d="M158.608 249.856C158.608 250.058 158.443 250.222 158.24 250.222C158.037 250.222 157.873 250.058 157.873 249.856C157.873 249.653 158.037 249.49 158.24 249.49C158.443 249.49 158.608 249.654 158.608 249.856Z" fill="url(#paint141_linear_285_1715)"/>
<path d="M174.262 235.426C174.262 235.628 174.098 235.792 173.895 235.792C173.692 235.792 173.527 235.628 173.527 235.426C173.527 235.223 173.692 235.059 173.895 235.059C174.098 235.059 174.262 235.223 174.262 235.426Z" fill="url(#paint142_linear_285_1715)"/>
<path d="M203.219 256.375C203.219 256.577 203.383 256.741 203.586 256.741C203.789 256.741 203.954 256.577 203.954 256.375C203.954 256.173 203.789 256.009 203.586 256.009C203.383 256.009 203.219 256.173 203.219 256.375Z" fill="url(#paint143_linear_285_1715)"/>
<path d="M198.662 219.457C198.662 219.659 198.827 219.823 199.03 219.823C199.233 219.823 199.397 219.659 199.397 219.457C199.397 219.255 199.233 219.091 199.03 219.091C198.827 219.091 198.662 219.255 198.662 219.457Z" fill="url(#paint144_linear_285_1715)"/>
<path d="M220.931 189.498C220.931 189.7 220.766 189.864 220.564 189.864C220.361 189.864 220.196 189.7 220.196 189.498C220.196 189.296 220.361 189.132 220.564 189.132C220.766 189.132 220.931 189.296 220.931 189.498Z" fill="url(#paint145_linear_285_1715)"/>
<path d="M236.512 175.067C236.512 175.27 236.347 175.434 236.144 175.434C235.941 175.434 235.777 175.27 235.777 175.067C235.777 174.865 235.942 174.701 236.144 174.701C236.347 174.701 236.512 174.865 236.512 175.067Z" fill="url(#paint146_linear_285_1715)"/>
<path d="M265.469 195.871C265.469 196.073 265.633 196.237 265.836 196.237C266.039 196.237 266.204 196.073 266.204 195.871C266.204 195.668 266.039 195.504 265.836 195.504C265.633 195.504 265.469 195.668 265.469 195.871Z" fill="url(#paint147_linear_285_1715)"/>
<path d="M260.986 158.952C260.986 159.155 261.15 159.319 261.353 159.319C261.556 159.319 261.72 159.155 261.72 158.952C261.72 158.75 261.556 158.586 261.353 158.586C261.15 158.586 260.986 158.75 260.986 158.952Z" fill="url(#paint148_linear_285_1715)"/>
<path d="M220.931 251.101C220.931 251.303 220.766 251.467 220.564 251.467C220.361 251.467 220.196 251.303 220.196 251.101C220.196 250.899 220.361 250.735 220.564 250.735C220.766 250.735 220.931 250.899 220.931 251.101Z" fill="url(#paint149_linear_285_1715)"/>
<path d="M236.512 236.744C236.512 236.946 236.347 237.11 236.144 237.11C235.941 237.11 235.777 236.946 235.777 236.744C235.777 236.542 235.942 236.378 236.144 236.378C236.347 236.378 236.512 236.542 236.512 236.744Z" fill="url(#paint150_linear_285_1715)"/>
<path d="M265.469 257.547C265.469 257.749 265.633 257.913 265.836 257.913C266.039 257.913 266.204 257.749 266.204 257.547C266.204 257.345 266.039 257.181 265.836 257.181C265.633 257.181 265.469 257.345 265.469 257.547Z" fill="url(#paint151_linear_285_1715)"/>
<path d="M260.986 220.629C260.986 220.831 261.15 220.995 261.353 220.995C261.556 220.995 261.72 220.831 261.72 220.629C261.72 220.427 261.556 220.263 261.353 220.263C261.15 220.263 260.986 220.427 260.986 220.629Z" fill="url(#paint152_linear_285_1715)"/>
<path opacity="0.1138" d="M139.676 177.118C142.903 177.118 145.519 174.511 145.519 171.295C145.519 168.079 142.903 165.472 139.676 165.472C136.449 165.472 133.833 168.079 133.833 171.295C133.833 174.511 136.449 177.118 139.676 177.118Z" fill="url(#paint153_linear_285_1715)"/>
<path opacity="0.1138" d="M154.338 221.948C157.585 221.948 160.218 219.34 160.218 216.124C160.218 212.908 157.585 210.301 154.338 210.301C151.091 210.301 148.459 212.908 148.459 216.124C148.459 219.34 151.091 221.948 154.338 221.948Z" fill="url(#paint154_linear_285_1715)"/>
<path opacity="0.1138" d="M146.695 149.576C148.643 149.576 150.222 148.019 150.222 146.097C150.222 144.175 148.643 142.618 146.695 142.618C144.746 142.618 143.167 144.175 143.167 146.097C143.167 148.019 144.746 149.576 146.695 149.576Z" fill="url(#paint155_linear_285_1715)"/>
<path opacity="0.1138" d="M235.66 199.972C237.588 199.972 239.151 198.415 239.151 196.493C239.151 194.571 237.588 193.014 235.66 193.014C233.732 193.014 232.169 194.571 232.169 196.493C232.169 198.415 233.732 199.972 235.66 199.972Z" fill="url(#paint156_linear_285_1715)"/>
<path opacity="0.1138" d="M257.671 137.93C259.619 137.93 261.199 136.356 261.199 134.414C261.199 132.472 259.619 130.898 257.671 130.898C255.723 130.898 254.143 132.472 254.143 134.414C254.143 136.356 255.723 137.93 257.671 137.93Z" fill="url(#paint157_linear_285_1715)"/>
<path opacity="0.1138" d="M187.447 100.572C189.375 100.572 190.938 99.0145 190.938 97.0929C190.938 95.1713 189.375 93.6135 187.447 93.6135C185.519 93.6135 183.956 95.1713 183.956 97.0929C183.956 99.0145 185.519 100.572 187.447 100.572Z" fill="url(#paint158_linear_285_1715)"/>
<path opacity="0.1138" d="M230.037 39.4817C231.986 39.4817 233.565 37.9075 233.565 35.9657C233.565 34.0239 231.986 32.4497 230.037 32.4497C228.089 32.4497 226.51 34.0239 226.51 35.9657C226.51 37.9075 228.089 39.4817 230.037 39.4817Z" fill="url(#paint159_linear_285_1715)"/>
<path opacity="0.1138" d="M185.095 15.2361C187.023 15.2361 188.586 13.6619 188.586 11.7201C188.586 9.77827 187.023 8.2041 185.095 8.2041C183.167 8.2041 181.604 9.77827 181.604 11.7201C181.604 13.6619 183.167 15.2361 185.095 15.2361Z" fill="url(#paint160_linear_285_1715)"/>
<g opacity="0.9143">
<path opacity="0.1114" d="M274.365 165.472C277.293 165.472 279.667 163.106 279.667 160.188C279.667 157.269 277.293 154.904 274.365 154.904C271.437 154.904 269.063 157.269 269.063 160.188C269.063 163.106 271.437 165.472 274.365 165.472Z" fill="url(#paint161_linear_285_1715)"/>
<path opacity="0.2256" d="M274.365 163.71C276.317 163.71 277.9 162.133 277.9 160.188C277.9 158.242 276.317 156.665 274.365 156.665C272.413 156.665 270.83 158.242 270.83 160.188C270.83 162.133 272.413 163.71 274.365 163.71Z" fill="url(#paint162_linear_285_1715)"/>
<path opacity="0.2256" d="M274.365 162.83C275.829 162.83 277.016 161.647 277.016 160.188C277.016 158.728 275.829 157.546 274.365 157.546C272.901 157.546 271.714 158.728 271.714 160.188C271.714 161.647 272.901 162.83 274.365 162.83Z" fill="url(#paint163_linear_285_1715)"/>
<path d="M274.365 161.949C275.341 161.949 276.132 161.16 276.132 160.188C276.132 159.215 275.341 158.426 274.365 158.426C273.389 158.426 272.597 159.215 272.597 160.188C272.597 161.16 273.389 161.949 274.365 161.949Z" fill="url(#paint164_linear_285_1715)"/>
</g>
<g opacity="0.9143">
<path opacity="0.1114" d="M146.632 68.4888C149.56 68.4888 151.934 66.1231 151.934 63.2048C151.934 60.2866 149.56 57.9208 146.632 57.9208C143.703 57.9208 141.33 60.2866 141.33 63.2048C141.33 66.1231 143.703 68.4888 146.632 68.4888Z" fill="url(#paint165_linear_285_1715)"/>
<path opacity="0.2256" d="M146.632 66.7275C148.584 66.7275 150.167 65.1504 150.167 63.2049C150.167 61.2594 148.584 59.6822 146.632 59.6822C144.68 59.6822 143.097 61.2594 143.097 63.2049C143.097 65.1504 144.68 66.7275 146.632 66.7275Z" fill="url(#paint166_linear_285_1715)"/>
<path opacity="0.2256" d="M146.632 65.8467C148.096 65.8467 149.283 64.6638 149.283 63.2047C149.283 61.7456 148.096 60.5627 146.632 60.5627C145.168 60.5627 143.981 61.7456 143.981 63.2047C143.981 64.6638 145.168 65.8467 146.632 65.8467Z" fill="url(#paint167_linear_285_1715)"/>
<path d="M146.632 64.9661C147.608 64.9661 148.399 64.1775 148.399 63.2048C148.399 62.232 147.608 61.4435 146.632 61.4435C145.656 61.4435 144.864 62.232 144.864 63.2048C144.864 64.1775 145.656 64.9661 146.632 64.9661Z" fill="url(#paint168_linear_285_1715)"/>
</g>
<g opacity="0.9143">
<path opacity="0.1114" d="M301.117 32.4497C304.045 32.4497 306.419 30.084 306.419 27.1657C306.419 24.2475 304.045 21.8818 301.117 21.8818C298.189 21.8818 295.815 24.2475 295.815 27.1657C295.815 30.084 298.189 32.4497 301.117 32.4497Z" fill="url(#paint169_linear_285_1715)"/>
<path opacity="0.2256" d="M301.117 30.6885C303.069 30.6885 304.652 29.1113 304.652 27.1658C304.652 25.2203 303.069 23.6431 301.117 23.6431C299.165 23.6431 297.582 25.2203 297.582 27.1658C297.582 29.1113 299.165 30.6885 301.117 30.6885Z" fill="url(#paint170_linear_285_1715)"/>
<path opacity="0.2256" d="M301.117 29.8076C302.581 29.8076 303.768 28.6248 303.768 27.1656C303.768 25.7065 302.581 24.5237 301.117 24.5237C299.653 24.5237 298.466 25.7065 298.466 27.1656C298.466 28.6248 299.653 29.8076 301.117 29.8076Z" fill="url(#paint171_linear_285_1715)"/>
<path d="M301.117 28.927C302.093 28.927 302.884 28.1384 302.884 27.1657C302.884 26.193 302.093 25.4044 301.117 25.4044C300.141 25.4044 299.349 26.193 299.349 27.1657C299.349 28.1384 300.141 28.927 301.117 28.927Z" fill="url(#paint172_linear_285_1715)"/>
</g>
<g opacity="0.9143">
<path opacity="0.1114" d="M198.886 159.246C201.815 159.246 204.188 156.88 204.188 153.962C204.188 151.043 201.815 148.678 198.886 148.678C195.958 148.678 193.584 151.043 193.584 153.962C193.584 156.88 195.958 159.246 198.886 159.246Z" fill="url(#paint173_linear_285_1715)"/>
<path opacity="0.2256" d="M198.886 157.484C200.838 157.484 202.421 155.907 202.421 153.962C202.421 152.016 200.838 150.439 198.886 150.439C196.934 150.439 195.351 152.016 195.351 153.962C195.351 155.907 196.934 157.484 198.886 157.484Z" fill="url(#paint174_linear_285_1715)"/>
<path opacity="0.2256" d="M198.886 156.604C200.35 156.604 201.537 155.421 201.537 153.962C201.537 152.502 200.35 151.32 198.886 151.32C197.422 151.32 196.235 152.502 196.235 153.962C196.235 155.421 197.422 156.604 198.886 156.604Z" fill="url(#paint175_linear_285_1715)"/>
<path d="M198.886 155.723C199.862 155.723 200.654 154.934 200.654 153.962C200.654 152.989 199.862 152.2 198.886 152.2C197.91 152.2 197.119 152.989 197.119 153.962C197.119 154.934 197.91 155.723 198.886 155.723Z" fill="url(#paint176_linear_285_1715)"/>
</g>
<g opacity="0.9143">
<path opacity="0.1114" d="M160.228 122.547C163.157 122.547 165.53 120.181 165.53 117.263C165.53 114.345 163.157 111.979 160.228 111.979C157.3 111.979 154.926 114.345 154.926 117.263C154.926 120.181 157.3 122.547 160.228 122.547Z" fill="url(#paint177_linear_285_1715)"/>
<path opacity="0.2256" d="M160.228 120.786C162.18 120.786 163.763 119.209 163.763 117.263C163.763 115.318 162.18 113.741 160.228 113.741C158.276 113.741 156.693 115.318 156.693 117.263C156.693 119.209 158.276 120.786 160.228 120.786Z" fill="url(#paint178_linear_285_1715)"/>
<path opacity="0.2256" d="M160.228 119.905C161.692 119.905 162.879 118.722 162.879 117.263C162.879 115.804 161.692 114.621 160.228 114.621C158.764 114.621 157.577 115.804 157.577 117.263C157.577 118.722 158.764 119.905 160.228 119.905Z" fill="url(#paint179_linear_285_1715)"/>
<path d="M160.228 119.024C161.204 119.024 161.996 118.236 161.996 117.263C161.996 116.29 161.204 115.502 160.228 115.502C159.252 115.502 158.461 116.29 158.461 117.263C158.461 118.236 159.252 119.024 160.228 119.024Z" fill="url(#paint180_linear_285_1715)"/>
</g>
<g opacity="0.9143">
<path opacity="0.1114" d="M287.667 73.7627C290.596 73.7627 292.97 71.397 292.97 68.4787C292.97 65.5605 290.596 63.1948 287.667 63.1948C284.739 63.1948 282.365 65.5605 282.365 68.4787C282.365 71.397 284.739 73.7627 287.667 73.7627Z" fill="url(#paint181_linear_285_1715)"/>
<path opacity="0.2256" d="M287.667 72.0015C289.62 72.0015 291.202 70.4243 291.202 68.4788C291.202 66.5333 289.62 64.9561 287.667 64.9561C285.715 64.9561 284.133 66.5333 284.133 68.4788C284.133 70.4243 285.715 72.0015 287.667 72.0015Z" fill="url(#paint182_linear_285_1715)"/>
<path opacity="0.2256" d="M287.667 71.1206C289.132 71.1206 290.318 69.9378 290.318 68.4786C290.318 67.0195 289.132 65.8366 287.667 65.8366C286.203 65.8366 285.016 67.0195 285.016 68.4786C285.016 69.9378 286.203 71.1206 287.667 71.1206Z" fill="url(#paint183_linear_285_1715)"/>
<path d="M287.667 70.24C288.643 70.24 289.435 69.4514 289.435 68.4787C289.435 67.506 288.643 66.7174 287.667 66.7174C286.691 66.7174 285.9 67.506 285.9 68.4787C285.9 69.4514 286.691 70.24 287.667 70.24Z" fill="url(#paint184_linear_285_1715)"/>
</g>
<path d="M194.5 257C297.501 257 381 249.613 381 240.5C381 231.387 297.501 224 194.5 224C91.4989 224 8 231.387 8 240.5C8 249.613 91.4989 257 194.5 257Z" fill="url(#paint185_radial_285_1715)"/>
<g opacity="0.3" filter="url(#filter0_f_285_1715)">
<path d="M158.285 101.486L169.582 237.346H209.121L231.715 101.486H158.285Z" fill="url(#paint186_linear_285_1715)"/>
</g>
<g opacity="0.3" filter="url(#filter1_f_285_1715)">
<path d="M198.264 247.168L129.724 195.606L266.803 195.606L198.264 247.168Z" fill="url(#paint187_linear_285_1715)"/>
</g>
</g>
<defs>
<filter id="filter0_f_285_1715" x="118.285" y="61.4861" width="153.431" height="215.86" filterUnits="userSpaceOnUse" color-interpolation-filters="sRGB">
<feFlood flood-opacity="0" result="BackgroundImageFix"/>
<feBlend mode="normal" in="SourceGraphic" in2="BackgroundImageFix" result="shape"/>
<feGaussianBlur stdDeviation="20" result="effect1_foregroundBlur_285_1715"/>
</filter>
<filter id="filter1_f_285_1715" x="117.724" y="183.606" width="161.078" height="75.5615" filterUnits="userSpaceOnUse" color-interpolation-filters="sRGB">
<feFlood flood-opacity="0" result="BackgroundImageFix"/>
<feBlend mode="normal" in="SourceGraphic" in2="BackgroundImageFix" result="shape"/>
<feGaussianBlur stdDeviation="6" result="effect1_foregroundBlur_285_1715"/>
</filter>
<linearGradient id="paint0_linear_285_1715" x1="39.6943" y1="66.5113" x2="40.4268" y2="67.2461" gradientUnits="userSpaceOnUse">
<stop offset="0.0001" stop-color="#ACD8F0" stop-opacity="0.17"/>
<stop offset="1" stop-color="#6EC4F4"/>
</linearGradient>
<linearGradient id="paint1_linear_285_1715" x1="110.69" y1="30.4723" x2="111.422" y2="31.207" gradientUnits="userSpaceOnUse">
<stop offset="0.0001" stop-color="#ACD8F0" stop-opacity="0.17"/>
<stop offset="1" stop-color="#6EC4F4"/>
</linearGradient>
<linearGradient id="paint2_linear_285_1715" x1="65.6378" y1="65.4127" x2="66.3703" y2="66.1475" gradientUnits="userSpaceOnUse">
<stop offset="0.0001" stop-color="#ACD8F0" stop-opacity="0.17"/>
<stop offset="1" stop-color="#6EC4F4"/>
</linearGradient>
<linearGradient id="paint3_linear_285_1715" x1="24.04" y1="42.2655" x2="24.7726" y2="43.0003" gradientUnits="userSpaceOnUse">
<stop offset="0.0001" stop-color="#ACD8F0" stop-opacity="0.17"/>
<stop offset="1" stop-color="#6EC4F4"/>
</linearGradient>
<linearGradient id="paint4_linear_285_1715" x1="19.7039" y1="21.0963" x2="20.4364" y2="21.8311" gradientUnits="userSpaceOnUse">
<stop offset="0.0001" stop-color="#ACD8F0" stop-opacity="0.17"/>
<stop offset="1" stop-color="#6EC4F4"/>
</linearGradient>
<linearGradient id="paint5_linear_285_1715" x1="66.3727" y1="21.7557" x2="67.1053" y2="22.4905" gradientUnits="userSpaceOnUse">
<stop offset="0.0001" stop-color="#ACD8F0" stop-opacity="0.17"/>
<stop offset="1" stop-color="#6EC4F4"/>
</linearGradient>
<linearGradient id="paint6_linear_285_1715" x1="126.271" y1="16.1886" x2="127.003" y2="16.9234" gradientUnits="userSpaceOnUse">
<stop offset="0.0001" stop-color="#ACD8F0" stop-opacity="0.17"/>
<stop offset="1" stop-color="#6EC4F4"/>
</linearGradient>
<linearGradient id="paint7_linear_285_1715" x1="96.7994" y1="14.7967" x2="97.5319" y2="15.5315" gradientUnits="userSpaceOnUse">
<stop offset="0.0001" stop-color="#ACD8F0" stop-opacity="0.17"/>
<stop offset="1" stop-color="#6EC4F4"/>
</linearGradient>
<linearGradient id="paint8_linear_285_1715" x1="84.0849" y1="19.0453" x2="84.8174" y2="19.78" gradientUnits="userSpaceOnUse">
<stop offset="0.0001" stop-color="#ACD8F0" stop-opacity="0.17"/>
<stop offset="1" stop-color="#6EC4F4"/>
</linearGradient>
<linearGradient id="paint9_linear_285_1715" x1="155.889" y1="36.9183" x2="156.621" y2="37.6531" gradientUnits="userSpaceOnUse">
<stop offset="0.0001" stop-color="#ACD8F0" stop-opacity="0.17"/>
<stop offset="1" stop-color="#6EC4F4"/>
</linearGradient>
<linearGradient id="paint10_linear_285_1715" x1="206.379" y1="57.648" x2="207.112" y2="58.3828" gradientUnits="userSpaceOnUse">
<stop offset="0.0001" stop-color="#ACD8F0" stop-opacity="0.17"/>
<stop offset="1" stop-color="#6EC4F4"/>
</linearGradient>
<linearGradient id="paint11_linear_285_1715" x1="151.406" y1="0.000334054" x2="152.138" y2="0.735122" gradientUnits="userSpaceOnUse">
<stop offset="0.0001" stop-color="#ACD8F0" stop-opacity="0.17"/>
<stop offset="1" stop-color="#6EC4F4"/>
</linearGradient>
<linearGradient id="paint12_linear_285_1715" x1="346.313" y1="30.4723" x2="347.045" y2="31.207" gradientUnits="userSpaceOnUse">
<stop offset="0.0001" stop-color="#ACD8F0" stop-opacity="0.17"/>
<stop offset="1" stop-color="#6EC4F4"/>
</linearGradient>
<linearGradient id="paint13_linear_285_1715" x1="301.187" y1="65.4127" x2="301.92" y2="66.1475" gradientUnits="userSpaceOnUse">
<stop offset="0.0001" stop-color="#ACD8F0" stop-opacity="0.17"/>
<stop offset="1" stop-color="#6EC4F4"/>
</linearGradient>
<linearGradient id="paint14_linear_285_1715" x1="301.996" y1="21.7557" x2="302.728" y2="22.4905" gradientUnits="userSpaceOnUse">
<stop offset="0.0001" stop-color="#ACD8F0" stop-opacity="0.17"/>
<stop offset="1" stop-color="#6EC4F4"/>
</linearGradient>
<linearGradient id="paint15_linear_285_1715" x1="362.04" y1="16.1886" x2="362.773" y2="16.9234" gradientUnits="userSpaceOnUse">
<stop offset="0.0001" stop-color="#ACD8F0" stop-opacity="0.17"/>
<stop offset="1" stop-color="#6EC4F4"/>
</linearGradient>
<linearGradient id="paint16_linear_285_1715" x1="332.422" y1="14.7967" x2="333.155" y2="15.5315" gradientUnits="userSpaceOnUse">
<stop offset="0.0001" stop-color="#ACD8F0" stop-opacity="0.17"/>
<stop offset="1" stop-color="#6EC4F4"/>
</linearGradient>
<linearGradient id="paint17_linear_285_1715" x1="319.708" y1="19.0453" x2="320.44" y2="19.78" gradientUnits="userSpaceOnUse">
<stop offset="0.0001" stop-color="#ACD8F0" stop-opacity="0.17"/>
<stop offset="1" stop-color="#6EC4F4"/>
</linearGradient>
<linearGradient id="paint18_linear_285_1715" x1="387.175" y1="0.000334054" x2="387.908" y2="0.735122" gradientUnits="userSpaceOnUse">
<stop offset="0.0001" stop-color="#ACD8F0" stop-opacity="0.17"/>
<stop offset="1" stop-color="#6EC4F4"/>
</linearGradient>
<linearGradient id="paint19_linear_285_1715" x1="349.032" y1="92.1488" x2="349.764" y2="92.8836" gradientUnits="userSpaceOnUse">
<stop offset="0.0001" stop-color="#ACD8F0" stop-opacity="0.17"/>
<stop offset="1" stop-color="#6EC4F4"/>
</linearGradient>
<linearGradient id="paint20_linear_285_1715" x1="303.98" y1="127.089" x2="304.712" y2="127.824" gradientUnits="userSpaceOnUse">
<stop offset="0.0001" stop-color="#ACD8F0" stop-opacity="0.17"/>
<stop offset="1" stop-color="#6EC4F4"/>
</linearGradient>
<linearGradient id="paint21_linear_285_1715" x1="304.862" y1="83.3587" x2="305.594" y2="84.0935" gradientUnits="userSpaceOnUse">
<stop offset="0.0001" stop-color="#ACD8F0" stop-opacity="0.17"/>
<stop offset="1" stop-color="#6EC4F4"/>
</linearGradient>
<linearGradient id="paint22_linear_285_1715" x1="364.76" y1="77.7918" x2="365.492" y2="78.5266" gradientUnits="userSpaceOnUse">
<stop offset="0.0001" stop-color="#ACD8F0" stop-opacity="0.17"/>
<stop offset="1" stop-color="#6EC4F4"/>
</linearGradient>
<linearGradient id="paint23_linear_285_1715" x1="335.288" y1="76.4" x2="336.021" y2="77.1348" gradientUnits="userSpaceOnUse">
<stop offset="0.0001" stop-color="#ACD8F0" stop-opacity="0.17"/>
<stop offset="1" stop-color="#6EC4F4"/>
</linearGradient>
<linearGradient id="paint24_linear_285_1715" x1="322.5" y1="80.5753" x2="323.233" y2="81.3101" gradientUnits="userSpaceOnUse">
<stop offset="0.0001" stop-color="#ACD8F0" stop-opacity="0.17"/>
<stop offset="1" stop-color="#6EC4F4"/>
</linearGradient>
<linearGradient id="paint25_linear_285_1715" x1="389.968" y1="61.6036" x2="390.701" y2="62.3384" gradientUnits="userSpaceOnUse">
<stop offset="0.0001" stop-color="#ACD8F0" stop-opacity="0.17"/>
<stop offset="1" stop-color="#6EC4F4"/>
</linearGradient>
<linearGradient id="paint26_linear_285_1715" x1="39.6943" y1="128.115" x2="40.4268" y2="128.849" gradientUnits="userSpaceOnUse">
<stop offset="0.0001" stop-color="#ACD8F0" stop-opacity="0.17"/>
<stop offset="1" stop-color="#6EC4F4"/>
</linearGradient>
<linearGradient id="paint27_linear_285_1715" x1="110.69" y1="92.1488" x2="111.422" y2="92.8836" gradientUnits="userSpaceOnUse">
<stop offset="0.0001" stop-color="#ACD8F0" stop-opacity="0.17"/>
<stop offset="1" stop-color="#6EC4F4"/>
</linearGradient>
<linearGradient id="paint28_linear_285_1715" x1="65.6378" y1="127.089" x2="66.3703" y2="127.824" gradientUnits="userSpaceOnUse">
<stop offset="0.0001" stop-color="#ACD8F0" stop-opacity="0.17"/>
<stop offset="1" stop-color="#6EC4F4"/>
</linearGradient>
<linearGradient id="paint29_linear_285_1715" x1="24.04" y1="103.869" x2="24.7726" y2="104.604" gradientUnits="userSpaceOnUse">
<stop offset="0.0001" stop-color="#ACD8F0" stop-opacity="0.17"/>
<stop offset="1" stop-color="#6EC4F4"/>
</linearGradient>
<linearGradient id="paint30_linear_285_1715" x1="19.7039" y1="82.6996" x2="20.4364" y2="83.4343" gradientUnits="userSpaceOnUse">
<stop offset="0.0001" stop-color="#ACD8F0" stop-opacity="0.17"/>
<stop offset="1" stop-color="#6EC4F4"/>
</linearGradient>
<linearGradient id="paint31_linear_285_1715" x1="66.3727" y1="83.3587" x2="67.1053" y2="84.0935" gradientUnits="userSpaceOnUse">
<stop offset="0.0001" stop-color="#ACD8F0" stop-opacity="0.17"/>
<stop offset="1" stop-color="#6EC4F4"/>
</linearGradient>
<linearGradient id="paint32_linear_285_1715" x1="126.271" y1="77.7918" x2="127.003" y2="78.5266" gradientUnits="userSpaceOnUse">
<stop offset="0.0001" stop-color="#ACD8F0" stop-opacity="0.17"/>
<stop offset="1" stop-color="#6EC4F4"/>
</linearGradient>
<linearGradient id="paint33_linear_285_1715" x1="96.7994" y1="76.4" x2="97.5319" y2="77.1348" gradientUnits="userSpaceOnUse">
<stop offset="0.0001" stop-color="#ACD8F0" stop-opacity="0.17"/>
<stop offset="1" stop-color="#6EC4F4"/>
</linearGradient>
<linearGradient id="paint34_linear_285_1715" x1="84.0849" y1="80.5753" x2="84.8174" y2="81.3101" gradientUnits="userSpaceOnUse">
<stop offset="0.0001" stop-color="#ACD8F0" stop-opacity="0.17"/>
<stop offset="1" stop-color="#6EC4F4"/>
</linearGradient>
<linearGradient id="paint35_linear_285_1715" x1="155.889" y1="98.5216" x2="156.621" y2="99.2564" gradientUnits="userSpaceOnUse">
<stop offset="0.0001" stop-color="#ACD8F0" stop-opacity="0.17"/>
<stop offset="1" stop-color="#6EC4F4"/>
</linearGradient>
<linearGradient id="paint36_linear_285_1715" x1="151.406" y1="61.6036" x2="152.138" y2="62.3384" gradientUnits="userSpaceOnUse">
<stop offset="0.0001" stop-color="#ACD8F0" stop-opacity="0.17"/>
<stop offset="1" stop-color="#6EC4F4"/>
</linearGradient>
<linearGradient id="paint37_linear_285_1715" x1="39.6943" y1="190.963" x2="40.4268" y2="191.698" gradientUnits="userSpaceOnUse">
<stop offset="0.0001" stop-color="#ACD8F0" stop-opacity="0.17"/>
<stop offset="1" stop-color="#6EC4F4"/>
</linearGradient>
<linearGradient id="paint38_linear_285_1715" x1="110.69" y1="155.071" x2="111.422" y2="155.805" gradientUnits="userSpaceOnUse">
<stop offset="0.0001" stop-color="#ACD8F0" stop-opacity="0.17"/>
<stop offset="1" stop-color="#6EC4F4"/>
</linearGradient>
<linearGradient id="paint39_linear_285_1715" x1="65.6378" y1="190.011" x2="66.3703" y2="190.746" gradientUnits="userSpaceOnUse">
<stop offset="0.0001" stop-color="#ACD8F0" stop-opacity="0.17"/>
<stop offset="1" stop-color="#6EC4F4"/>
</linearGradient>
<linearGradient id="paint40_linear_285_1715" x1="24.04" y1="166.644" x2="24.7726" y2="167.379" gradientUnits="userSpaceOnUse">
<stop offset="0.0001" stop-color="#ACD8F0" stop-opacity="0.17"/>
<stop offset="1" stop-color="#6EC4F4"/>
</linearGradient>
<linearGradient id="paint41_linear_285_1715" x1="19.7039" y1="145.695" x2="20.4364" y2="146.429" gradientUnits="userSpaceOnUse">
<stop offset="0.0001" stop-color="#ACD8F0" stop-opacity="0.17"/>
<stop offset="1" stop-color="#6EC4F4"/>
</linearGradient>
<linearGradient id="paint42_linear_285_1715" x1="66.3727" y1="146.281" x2="67.1053" y2="147.015" gradientUnits="userSpaceOnUse">
<stop offset="0.0001" stop-color="#ACD8F0" stop-opacity="0.17"/>
<stop offset="1" stop-color="#6EC4F4"/>
</linearGradient>
<linearGradient id="paint43_linear_285_1715" x1="126.271" y1="140.567" x2="127.003" y2="141.302" gradientUnits="userSpaceOnUse">
<stop offset="0.0001" stop-color="#ACD8F0" stop-opacity="0.17"/>
<stop offset="1" stop-color="#6EC4F4"/>
</linearGradient>
<linearGradient id="paint44_linear_285_1715" x1="96.7994" y1="139.249" x2="97.5319" y2="139.983" gradientUnits="userSpaceOnUse">
<stop offset="0.0001" stop-color="#ACD8F0" stop-opacity="0.17"/>
<stop offset="1" stop-color="#6EC4F4"/>
</linearGradient>
<linearGradient id="paint45_linear_285_1715" x1="84.0849" y1="143.497" x2="84.8174" y2="144.232" gradientUnits="userSpaceOnUse">
<stop offset="0.0001" stop-color="#ACD8F0" stop-opacity="0.17"/>
<stop offset="1" stop-color="#6EC4F4"/>
</linearGradient>
<linearGradient id="paint46_linear_285_1715" x1="155.889" y1="161.59" x2="156.621" y2="162.325" gradientUnits="userSpaceOnUse">
<stop offset="0.0001" stop-color="#ACD8F0" stop-opacity="0.17"/>
<stop offset="1" stop-color="#6EC4F4"/>
</linearGradient>
<linearGradient id="paint47_linear_285_1715" x1="209.834" y1="197.263" x2="210.566" y2="197.997" gradientUnits="userSpaceOnUse">
<stop offset="0.0001" stop-color="#ACD8F0" stop-opacity="0.17"/>
<stop offset="1" stop-color="#6EC4F4"/>
</linearGradient>
<linearGradient id="paint48_linear_285_1715" x1="151.406" y1="124.598" x2="152.138" y2="125.333" gradientUnits="userSpaceOnUse">
<stop offset="0.0001" stop-color="#ACD8F0" stop-opacity="0.17"/>
<stop offset="1" stop-color="#6EC4F4"/>
</linearGradient>
<linearGradient id="paint49_linear_285_1715" x1="275.391" y1="196.896" x2="276.123" y2="197.631" gradientUnits="userSpaceOnUse">
<stop offset="0.0001" stop-color="#ACD8F0" stop-opacity="0.17"/>
<stop offset="1" stop-color="#6EC4F4"/>
</linearGradient>
<linearGradient id="paint50_linear_285_1715" x1="346.313" y1="160.931" x2="347.045" y2="161.665" gradientUnits="userSpaceOnUse">
<stop offset="0.0001" stop-color="#ACD8F0" stop-opacity="0.17"/>
<stop offset="1" stop-color="#6EC4F4"/>
</linearGradient>
<linearGradient id="paint51_linear_285_1715" x1="301.187" y1="196.017" x2="301.92" y2="196.752" gradientUnits="userSpaceOnUse">
<stop offset="0.0001" stop-color="#ACD8F0" stop-opacity="0.17"/>
<stop offset="1" stop-color="#6EC4F4"/>
</linearGradient>
<linearGradient id="paint52_linear_285_1715" x1="301.996" y1="152.287" x2="302.728" y2="153.022" gradientUnits="userSpaceOnUse">
<stop offset="0.0001" stop-color="#ACD8F0" stop-opacity="0.17"/>
<stop offset="1" stop-color="#6EC4F4"/>
</linearGradient>
<linearGradient id="paint53_linear_285_1715" x1="362.04" y1="146.574" x2="362.773" y2="147.308" gradientUnits="userSpaceOnUse">
<stop offset="0.0001" stop-color="#ACD8F0" stop-opacity="0.17"/>
<stop offset="1" stop-color="#6EC4F4"/>
</linearGradient>
<linearGradient id="paint54_linear_285_1715" x1="332.422" y1="145.255" x2="333.155" y2="145.99" gradientUnits="userSpaceOnUse">
<stop offset="0.0001" stop-color="#ACD8F0" stop-opacity="0.17"/>
<stop offset="1" stop-color="#6EC4F4"/>
</linearGradient>
<linearGradient id="paint55_linear_285_1715" x1="319.708" y1="149.43" x2="320.44" y2="150.165" gradientUnits="userSpaceOnUse">
<stop offset="0.0001" stop-color="#ACD8F0" stop-opacity="0.17"/>
<stop offset="1" stop-color="#6EC4F4"/>
</linearGradient>
<linearGradient id="paint56_linear_285_1715" x1="387.175" y1="130.459" x2="387.908" y2="131.193" gradientUnits="userSpaceOnUse">
<stop offset="0.0001" stop-color="#ACD8F0" stop-opacity="0.17"/>
<stop offset="1" stop-color="#6EC4F4"/>
</linearGradient>
<linearGradient id="paint57_linear_285_1715" x1="110.69" y1="30.4723" x2="111.422" y2="31.207" gradientUnits="userSpaceOnUse">
<stop offset="0.0001" stop-color="#ACD8F0" stop-opacity="0.17"/>
<stop offset="1" stop-color="#6EC4F4"/>
</linearGradient>
<linearGradient id="paint58_linear_285_1715" x1="126.271" y1="16.1886" x2="127.003" y2="16.9234" gradientUnits="userSpaceOnUse">
<stop offset="0.0001" stop-color="#ACD8F0" stop-opacity="0.17"/>
<stop offset="1" stop-color="#6EC4F4"/>
</linearGradient>
<linearGradient id="paint59_linear_285_1715" x1="155.889" y1="36.9183" x2="156.621" y2="37.6531" gradientUnits="userSpaceOnUse">
<stop offset="0.0001" stop-color="#ACD8F0" stop-opacity="0.17"/>
<stop offset="1" stop-color="#6EC4F4"/>
</linearGradient>
<linearGradient id="paint60_linear_285_1715" x1="151.406" y1="0.000334054" x2="152.138" y2="0.735122" gradientUnits="userSpaceOnUse">
<stop offset="0.0001" stop-color="#ACD8F0" stop-opacity="0.17"/>
<stop offset="1" stop-color="#6EC4F4"/>
</linearGradient>
<linearGradient id="paint61_linear_285_1715" x1="110.69" y1="92.1488" x2="111.422" y2="92.8836" gradientUnits="userSpaceOnUse">
<stop offset="0.0001" stop-color="#ACD8F0" stop-opacity="0.17"/>
<stop offset="1" stop-color="#6EC4F4"/>
</linearGradient>
<linearGradient id="paint62_linear_285_1715" x1="126.271" y1="77.7918" x2="127.003" y2="78.5266" gradientUnits="userSpaceOnUse">
<stop offset="0.0001" stop-color="#ACD8F0" stop-opacity="0.17"/>
<stop offset="1" stop-color="#6EC4F4"/>
</linearGradient>
<linearGradient id="paint63_linear_285_1715" x1="155.889" y1="98.5216" x2="156.621" y2="99.2564" gradientUnits="userSpaceOnUse">
<stop offset="0.0001" stop-color="#ACD8F0" stop-opacity="0.17"/>
<stop offset="1" stop-color="#6EC4F4"/>
</linearGradient>
<linearGradient id="paint64_linear_285_1715" x1="151.406" y1="61.6036" x2="152.138" y2="62.3384" gradientUnits="userSpaceOnUse">
<stop offset="0.0001" stop-color="#ACD8F0" stop-opacity="0.17"/>
<stop offset="1" stop-color="#6EC4F4"/>
</linearGradient>
<linearGradient id="paint65_linear_285_1715" x1="110.69" y1="155.071" x2="111.422" y2="155.805" gradientUnits="userSpaceOnUse">
<stop offset="0.0001" stop-color="#ACD8F0" stop-opacity="0.17"/>
<stop offset="1" stop-color="#6EC4F4"/>
</linearGradient>
<linearGradient id="paint66_linear_285_1715" x1="126.271" y1="140.567" x2="127.003" y2="141.302" gradientUnits="userSpaceOnUse">
<stop offset="0.0001" stop-color="#ACD8F0" stop-opacity="0.17"/>
<stop offset="1" stop-color="#6EC4F4"/>
</linearGradient>
<linearGradient id="paint67_linear_285_1715" x1="155.889" y1="161.59" x2="156.621" y2="162.325" gradientUnits="userSpaceOnUse">
<stop offset="0.0001" stop-color="#ACD8F0" stop-opacity="0.17"/>
<stop offset="1" stop-color="#6EC4F4"/>
</linearGradient>
<linearGradient id="paint68_linear_285_1715" x1="151.406" y1="124.598" x2="152.138" y2="125.333" gradientUnits="userSpaceOnUse">
<stop offset="0.0001" stop-color="#ACD8F0" stop-opacity="0.17"/>
<stop offset="1" stop-color="#6EC4F4"/>
</linearGradient>
<linearGradient id="paint69_linear_285_1715" x1="177.57" y1="31.4247" x2="178.302" y2="32.1594" gradientUnits="userSpaceOnUse">
<stop offset="0.0001" stop-color="#ACD8F0" stop-opacity="0.17"/>
<stop offset="1" stop-color="#6EC4F4"/>
</linearGradient>
<linearGradient id="paint70_linear_285_1715" x1="193.224" y1="17.0675" x2="193.956" y2="17.8023" gradientUnits="userSpaceOnUse">
<stop offset="0.0001" stop-color="#ACD8F0" stop-opacity="0.17"/>
<stop offset="1" stop-color="#6EC4F4"/>
</linearGradient>
<linearGradient id="paint71_linear_285_1715" x1="222.916" y1="37.9439" x2="223.648" y2="38.6787" gradientUnits="userSpaceOnUse">
<stop offset="0.0001" stop-color="#ACD8F0" stop-opacity="0.17"/>
<stop offset="1" stop-color="#6EC4F4"/>
</linearGradient>
<linearGradient id="paint72_linear_285_1715" x1="218.359" y1="0.952482" x2="219.092" y2="1.68727" gradientUnits="userSpaceOnUse">
<stop offset="0.0001" stop-color="#ACD8F0" stop-opacity="0.17"/>
<stop offset="1" stop-color="#6EC4F4"/>
</linearGradient>
<linearGradient id="paint73_linear_285_1715" x1="177.57" y1="93.0279" x2="178.302" y2="93.7627" gradientUnits="userSpaceOnUse">
<stop offset="0.0001" stop-color="#ACD8F0" stop-opacity="0.17"/>
<stop offset="1" stop-color="#6EC4F4"/>
</linearGradient>
<linearGradient id="paint74_linear_285_1715" x1="193.224" y1="78.5975" x2="193.956" y2="79.3323" gradientUnits="userSpaceOnUse">
<stop offset="0.0001" stop-color="#ACD8F0" stop-opacity="0.17"/>
<stop offset="1" stop-color="#6EC4F4"/>
</linearGradient>
<linearGradient id="paint75_linear_285_1715" x1="222.916" y1="99.5472" x2="223.648" y2="100.282" gradientUnits="userSpaceOnUse">
<stop offset="0.0001" stop-color="#ACD8F0" stop-opacity="0.17"/>
<stop offset="1" stop-color="#6EC4F4"/>
</linearGradient>
<linearGradient id="paint76_linear_285_1715" x1="218.359" y1="62.629" x2="219.092" y2="63.3638" gradientUnits="userSpaceOnUse">
<stop offset="0.0001" stop-color="#ACD8F0" stop-opacity="0.17"/>
<stop offset="1" stop-color="#6EC4F4"/>
</linearGradient>
<linearGradient id="paint77_linear_285_1715" x1="177.57" y1="155.95" x2="178.302" y2="156.684" gradientUnits="userSpaceOnUse">
<stop offset="0.0001" stop-color="#ACD8F0" stop-opacity="0.17"/>
<stop offset="1" stop-color="#6EC4F4"/>
</linearGradient>
<linearGradient id="paint78_linear_285_1715" x1="193.224" y1="141.519" x2="193.956" y2="142.254" gradientUnits="userSpaceOnUse">
<stop offset="0.0001" stop-color="#ACD8F0" stop-opacity="0.17"/>
<stop offset="1" stop-color="#6EC4F4"/>
</linearGradient>
<linearGradient id="paint79_linear_285_1715" x1="222.916" y1="162.396" x2="223.648" y2="163.13" gradientUnits="userSpaceOnUse">
<stop offset="0.0001" stop-color="#ACD8F0" stop-opacity="0.17"/>
<stop offset="1" stop-color="#6EC4F4"/>
</linearGradient>
<linearGradient id="paint80_linear_285_1715" x1="218.359" y1="125.478" x2="219.092" y2="126.212" gradientUnits="userSpaceOnUse">
<stop offset="0.0001" stop-color="#ACD8F0" stop-opacity="0.17"/>
<stop offset="1" stop-color="#6EC4F4"/>
</linearGradient>
<linearGradient id="paint81_linear_285_1715" x1="239.893" y1="32.6698" x2="240.625" y2="33.4046" gradientUnits="userSpaceOnUse">
<stop offset="0.0001" stop-color="#ACD8F0" stop-opacity="0.17"/>
<stop offset="1" stop-color="#6EC4F4"/>
</linearGradient>
<linearGradient id="paint82_linear_285_1715" x1="255.474" y1="18.2396" x2="256.206" y2="18.9744" gradientUnits="userSpaceOnUse">
<stop offset="0.0001" stop-color="#ACD8F0" stop-opacity="0.17"/>
<stop offset="1" stop-color="#6EC4F4"/>
</linearGradient>
<linearGradient id="paint83_linear_285_1715" x1="285.165" y1="39.0426" x2="285.898" y2="39.7774" gradientUnits="userSpaceOnUse">
<stop offset="0.0001" stop-color="#ACD8F0" stop-opacity="0.17"/>
<stop offset="1" stop-color="#6EC4F4"/>
</linearGradient>
<linearGradient id="paint84_linear_285_1715" x1="280.682" y1="2.1246" x2="281.415" y2="2.85939" gradientUnits="userSpaceOnUse">
<stop offset="0.0001" stop-color="#ACD8F0" stop-opacity="0.17"/>
<stop offset="1" stop-color="#6EC4F4"/>
</linearGradient>
<linearGradient id="paint85_linear_285_1715" x1="239.893" y1="94.273" x2="240.625" y2="95.0078" gradientUnits="userSpaceOnUse">
<stop offset="0.0001" stop-color="#ACD8F0" stop-opacity="0.17"/>
<stop offset="1" stop-color="#6EC4F4"/>
</linearGradient>
<linearGradient id="paint86_linear_285_1715" x1="255.474" y1="79.9161" x2="256.206" y2="80.6509" gradientUnits="userSpaceOnUse">
<stop offset="0.0001" stop-color="#ACD8F0" stop-opacity="0.17"/>
<stop offset="1" stop-color="#6EC4F4"/>
</linearGradient>
<linearGradient id="paint87_linear_285_1715" x1="285.165" y1="100.719" x2="285.898" y2="101.454" gradientUnits="userSpaceOnUse">
<stop offset="0.0001" stop-color="#ACD8F0" stop-opacity="0.17"/>
<stop offset="1" stop-color="#6EC4F4"/>
</linearGradient>
<linearGradient id="paint88_linear_285_1715" x1="280.682" y1="63.8011" x2="281.415" y2="64.5359" gradientUnits="userSpaceOnUse">
<stop offset="0.0001" stop-color="#ACD8F0" stop-opacity="0.17"/>
<stop offset="1" stop-color="#6EC4F4"/>
</linearGradient>
<linearGradient id="paint89_linear_285_1715" x1="239.893" y1="157.048" x2="240.625" y2="157.783" gradientUnits="userSpaceOnUse">
<stop offset="0.0001" stop-color="#ACD8F0" stop-opacity="0.17"/>
<stop offset="1" stop-color="#6EC4F4"/>
</linearGradient>
<linearGradient id="paint90_linear_285_1715" x1="255.474" y1="142.691" x2="256.206" y2="143.426" gradientUnits="userSpaceOnUse">
<stop offset="0.0001" stop-color="#ACD8F0" stop-opacity="0.17"/>
<stop offset="1" stop-color="#6EC4F4"/>
</linearGradient>
<linearGradient id="paint91_linear_285_1715" x1="285.165" y1="163.568" x2="285.898" y2="164.303" gradientUnits="userSpaceOnUse">
<stop offset="0.0001" stop-color="#ACD8F0" stop-opacity="0.17"/>
<stop offset="1" stop-color="#6EC4F4"/>
</linearGradient>
<linearGradient id="paint92_linear_285_1715" x1="280.682" y1="126.576" x2="281.415" y2="127.311" gradientUnits="userSpaceOnUse">
<stop offset="0.0001" stop-color="#ACD8F0" stop-opacity="0.17"/>
<stop offset="1" stop-color="#6EC4F4"/>
</linearGradient>
<linearGradient id="paint93_linear_285_1715" x1="19.9979" y1="222.973" x2="20.7304" y2="223.708" gradientUnits="userSpaceOnUse">
<stop offset="0.0001" stop-color="#ACD8F0" stop-opacity="0.17"/>
<stop offset="1" stop-color="#6EC4F4"/>
</linearGradient>
<linearGradient id="paint94_linear_285_1715" x1="90.9933" y1="186.934" x2="91.7259" y2="187.669" gradientUnits="userSpaceOnUse">
<stop offset="0.0001" stop-color="#ACD8F0" stop-opacity="0.17"/>
<stop offset="1" stop-color="#6EC4F4"/>
</linearGradient>
<linearGradient id="paint95_linear_285_1715" x1="45.9414" y1="221.875" x2="46.6739" y2="222.609" gradientUnits="userSpaceOnUse">
<stop offset="0.0001" stop-color="#ACD8F0" stop-opacity="0.17"/>
<stop offset="1" stop-color="#6EC4F4"/>
</linearGradient>
<linearGradient id="paint96_linear_285_1715" x1="4.34356" y1="198.728" x2="5.07607" y2="199.462" gradientUnits="userSpaceOnUse">
<stop offset="0.0001" stop-color="#ACD8F0" stop-opacity="0.17"/>
<stop offset="1" stop-color="#6EC4F4"/>
</linearGradient>
<linearGradient id="paint97_linear_285_1715" x1="0.00746898" y1="177.558" x2="0.739979" y2="178.293" gradientUnits="userSpaceOnUse">
<stop offset="0.0001" stop-color="#ACD8F0" stop-opacity="0.17"/>
<stop offset="1" stop-color="#6EC4F4"/>
</linearGradient>
<linearGradient id="paint98_linear_285_1715" x1="46.6763" y1="178.218" x2="47.4088" y2="178.952" gradientUnits="userSpaceOnUse">
<stop offset="0.0001" stop-color="#ACD8F0" stop-opacity="0.17"/>
<stop offset="1" stop-color="#6EC4F4"/>
</linearGradient>
<linearGradient id="paint99_linear_285_1715" x1="106.574" y1="172.65" x2="107.307" y2="173.385" gradientUnits="userSpaceOnUse">
<stop offset="0.0001" stop-color="#ACD8F0" stop-opacity="0.17"/>
<stop offset="1" stop-color="#6EC4F4"/>
</linearGradient>
<linearGradient id="paint100_linear_285_1715" x1="77.1029" y1="171.259" x2="77.8354" y2="171.994" gradientUnits="userSpaceOnUse">
<stop offset="0.0001" stop-color="#ACD8F0" stop-opacity="0.17"/>
<stop offset="1" stop-color="#6EC4F4"/>
</linearGradient>
<linearGradient id="paint101_linear_285_1715" x1="64.3884" y1="175.507" x2="65.1209" y2="176.242" gradientUnits="userSpaceOnUse">
<stop offset="0.0001" stop-color="#ACD8F0" stop-opacity="0.17"/>
<stop offset="1" stop-color="#6EC4F4"/>
</linearGradient>
<linearGradient id="paint102_linear_285_1715" x1="136.192" y1="193.38" x2="136.925" y2="194.115" gradientUnits="userSpaceOnUse">
<stop offset="0.0001" stop-color="#ACD8F0" stop-opacity="0.17"/>
<stop offset="1" stop-color="#6EC4F4"/>
</linearGradient>
<linearGradient id="paint103_linear_285_1715" x1="186.683" y1="214.11" x2="187.415" y2="214.845" gradientUnits="userSpaceOnUse">
<stop offset="0.0001" stop-color="#ACD8F0" stop-opacity="0.17"/>
<stop offset="1" stop-color="#6EC4F4"/>
</linearGradient>
<linearGradient id="paint104_linear_285_1715" x1="131.709" y1="156.462" x2="132.442" y2="157.197" gradientUnits="userSpaceOnUse">
<stop offset="0.0001" stop-color="#ACD8F0" stop-opacity="0.17"/>
<stop offset="1" stop-color="#6EC4F4"/>
</linearGradient>
<linearGradient id="paint105_linear_285_1715" x1="326.616" y1="186.934" x2="327.349" y2="187.669" gradientUnits="userSpaceOnUse">
<stop offset="0.0001" stop-color="#ACD8F0" stop-opacity="0.17"/>
<stop offset="1" stop-color="#6EC4F4"/>
</linearGradient>
<linearGradient id="paint106_linear_285_1715" x1="281.491" y1="221.875" x2="282.223" y2="222.609" gradientUnits="userSpaceOnUse">
<stop offset="0.0001" stop-color="#ACD8F0" stop-opacity="0.17"/>
<stop offset="1" stop-color="#6EC4F4"/>
</linearGradient>
<linearGradient id="paint107_linear_285_1715" x1="282.299" y1="178.218" x2="283.032" y2="178.952" gradientUnits="userSpaceOnUse">
<stop offset="0.0001" stop-color="#ACD8F0" stop-opacity="0.17"/>
<stop offset="1" stop-color="#6EC4F4"/>
</linearGradient>
<linearGradient id="paint108_linear_285_1715" x1="342.344" y1="172.65" x2="343.076" y2="173.385" gradientUnits="userSpaceOnUse">
<stop offset="0.0001" stop-color="#ACD8F0" stop-opacity="0.17"/>
<stop offset="1" stop-color="#6EC4F4"/>
</linearGradient>
<linearGradient id="paint109_linear_285_1715" x1="312.726" y1="171.259" x2="313.458" y2="171.994" gradientUnits="userSpaceOnUse">
<stop offset="0.0001" stop-color="#ACD8F0" stop-opacity="0.17"/>
<stop offset="1" stop-color="#6EC4F4"/>
</linearGradient>
<linearGradient id="paint110_linear_285_1715" x1="300.011" y1="175.507" x2="300.744" y2="176.242" gradientUnits="userSpaceOnUse">
<stop offset="0.0001" stop-color="#ACD8F0" stop-opacity="0.17"/>
<stop offset="1" stop-color="#6EC4F4"/>
</linearGradient>
<linearGradient id="paint111_linear_285_1715" x1="371.962" y1="193.38" x2="372.695" y2="194.115" gradientUnits="userSpaceOnUse">
<stop offset="0.0001" stop-color="#ACD8F0" stop-opacity="0.17"/>
<stop offset="1" stop-color="#6EC4F4"/>
</linearGradient>
<linearGradient id="paint112_linear_285_1715" x1="367.479" y1="156.462" x2="368.212" y2="157.197" gradientUnits="userSpaceOnUse">
<stop offset="0.0001" stop-color="#ACD8F0" stop-opacity="0.17"/>
<stop offset="1" stop-color="#6EC4F4"/>
</linearGradient>
<linearGradient id="paint113_linear_285_1715" x1="329.335" y1="248.611" x2="330.068" y2="249.346" gradientUnits="userSpaceOnUse">
<stop offset="0.0001" stop-color="#ACD8F0" stop-opacity="0.17"/>
<stop offset="1" stop-color="#6EC4F4"/>
</linearGradient>
<linearGradient id="paint114_linear_285_1715" x1="285.165" y1="239.821" x2="285.898" y2="240.556" gradientUnits="userSpaceOnUse">
<stop offset="0.0001" stop-color="#ACD8F0" stop-opacity="0.17"/>
<stop offset="1" stop-color="#6EC4F4"/>
</linearGradient>
<linearGradient id="paint115_linear_285_1715" x1="345.063" y1="234.254" x2="345.796" y2="234.989" gradientUnits="userSpaceOnUse">
<stop offset="0.0001" stop-color="#ACD8F0" stop-opacity="0.17"/>
<stop offset="1" stop-color="#6EC4F4"/>
</linearGradient>
<linearGradient id="paint116_linear_285_1715" x1="315.592" y1="232.862" x2="316.325" y2="233.597" gradientUnits="userSpaceOnUse">
<stop offset="0.0001" stop-color="#ACD8F0" stop-opacity="0.17"/>
<stop offset="1" stop-color="#6EC4F4"/>
</linearGradient>
<linearGradient id="paint117_linear_285_1715" x1="302.804" y1="237.037" x2="303.537" y2="237.772" gradientUnits="userSpaceOnUse">
<stop offset="0.0001" stop-color="#ACD8F0" stop-opacity="0.17"/>
<stop offset="1" stop-color="#6EC4F4"/>
</linearGradient>
<linearGradient id="paint118_linear_285_1715" x1="374.755" y1="254.983" x2="375.487" y2="255.718" gradientUnits="userSpaceOnUse">
<stop offset="0.0001" stop-color="#ACD8F0" stop-opacity="0.17"/>
<stop offset="1" stop-color="#6EC4F4"/>
</linearGradient>
<linearGradient id="paint119_linear_285_1715" x1="370.272" y1="218.066" x2="371.004" y2="218.8" gradientUnits="userSpaceOnUse">
<stop offset="0.0001" stop-color="#ACD8F0" stop-opacity="0.17"/>
<stop offset="1" stop-color="#6EC4F4"/>
</linearGradient>
<linearGradient id="paint120_linear_285_1715" x1="90.9933" y1="248.611" x2="91.7259" y2="249.346" gradientUnits="userSpaceOnUse">
<stop offset="0.0001" stop-color="#ACD8F0" stop-opacity="0.17"/>
<stop offset="1" stop-color="#6EC4F4"/>
</linearGradient>
<linearGradient id="paint121_linear_285_1715" x1="4.34356" y1="260.331" x2="5.07607" y2="261.066" gradientUnits="userSpaceOnUse">
<stop offset="0.0001" stop-color="#ACD8F0" stop-opacity="0.17"/>
<stop offset="1" stop-color="#6EC4F4"/>
</linearGradient>
<linearGradient id="paint122_linear_285_1715" x1="0.00746898" y1="239.161" x2="0.739979" y2="239.896" gradientUnits="userSpaceOnUse">
<stop offset="0.0001" stop-color="#ACD8F0" stop-opacity="0.17"/>
<stop offset="1" stop-color="#6EC4F4"/>
</linearGradient>
<linearGradient id="paint123_linear_285_1715" x1="46.6763" y1="239.821" x2="47.4088" y2="240.556" gradientUnits="userSpaceOnUse">
<stop offset="0.0001" stop-color="#ACD8F0" stop-opacity="0.17"/>
<stop offset="1" stop-color="#6EC4F4"/>
</linearGradient>
<linearGradient id="paint124_linear_285_1715" x1="106.574" y1="234.254" x2="107.307" y2="234.989" gradientUnits="userSpaceOnUse">
<stop offset="0.0001" stop-color="#ACD8F0" stop-opacity="0.17"/>
<stop offset="1" stop-color="#6EC4F4"/>
</linearGradient>
<linearGradient id="paint125_linear_285_1715" x1="77.1029" y1="232.862" x2="77.8354" y2="233.597" gradientUnits="userSpaceOnUse">
<stop offset="0.0001" stop-color="#ACD8F0" stop-opacity="0.17"/>
<stop offset="1" stop-color="#6EC4F4"/>
</linearGradient>
<linearGradient id="paint126_linear_285_1715" x1="64.3884" y1="237.037" x2="65.1209" y2="237.772" gradientUnits="userSpaceOnUse">
<stop offset="0.0001" stop-color="#ACD8F0" stop-opacity="0.17"/>
<stop offset="1" stop-color="#6EC4F4"/>
</linearGradient>
<linearGradient id="paint127_linear_285_1715" x1="136.192" y1="254.983" x2="136.925" y2="255.718" gradientUnits="userSpaceOnUse">
<stop offset="0.0001" stop-color="#ACD8F0" stop-opacity="0.17"/>
<stop offset="1" stop-color="#6EC4F4"/>
</linearGradient>
<linearGradient id="paint128_linear_285_1715" x1="131.709" y1="218.066" x2="132.442" y2="218.8" gradientUnits="userSpaceOnUse">
<stop offset="0.0001" stop-color="#ACD8F0" stop-opacity="0.17"/>
<stop offset="1" stop-color="#6EC4F4"/>
</linearGradient>
<linearGradient id="paint129_linear_285_1715" x1="90.9933" y1="186.934" x2="91.7259" y2="187.669" gradientUnits="userSpaceOnUse">
<stop offset="0.0001" stop-color="#ACD8F0" stop-opacity="0.17"/>
<stop offset="1" stop-color="#6EC4F4"/>
</linearGradient>
<linearGradient id="paint130_linear_285_1715" x1="106.574" y1="172.65" x2="107.307" y2="173.385" gradientUnits="userSpaceOnUse">
<stop offset="0.0001" stop-color="#ACD8F0" stop-opacity="0.17"/>
<stop offset="1" stop-color="#6EC4F4"/>
</linearGradient>
<linearGradient id="paint131_linear_285_1715" x1="136.192" y1="193.38" x2="136.925" y2="194.115" gradientUnits="userSpaceOnUse">
<stop offset="0.0001" stop-color="#ACD8F0" stop-opacity="0.17"/>
<stop offset="1" stop-color="#6EC4F4"/>
</linearGradient>
<linearGradient id="paint132_linear_285_1715" x1="131.709" y1="156.462" x2="132.442" y2="157.197" gradientUnits="userSpaceOnUse">
<stop offset="0.0001" stop-color="#ACD8F0" stop-opacity="0.17"/>
<stop offset="1" stop-color="#6EC4F4"/>
</linearGradient>
<linearGradient id="paint133_linear_285_1715" x1="90.9933" y1="248.611" x2="91.7259" y2="249.346" gradientUnits="userSpaceOnUse">
<stop offset="0.0001" stop-color="#ACD8F0" stop-opacity="0.17"/>
<stop offset="1" stop-color="#6EC4F4"/>
</linearGradient>
<linearGradient id="paint134_linear_285_1715" x1="106.574" y1="234.254" x2="107.307" y2="234.989" gradientUnits="userSpaceOnUse">
<stop offset="0.0001" stop-color="#ACD8F0" stop-opacity="0.17"/>
<stop offset="1" stop-color="#6EC4F4"/>
</linearGradient>
<linearGradient id="paint135_linear_285_1715" x1="136.192" y1="254.983" x2="136.925" y2="255.718" gradientUnits="userSpaceOnUse">
<stop offset="0.0001" stop-color="#ACD8F0" stop-opacity="0.17"/>
<stop offset="1" stop-color="#6EC4F4"/>
</linearGradient>
<linearGradient id="paint136_linear_285_1715" x1="131.709" y1="218.066" x2="132.442" y2="218.8" gradientUnits="userSpaceOnUse">
<stop offset="0.0001" stop-color="#ACD8F0" stop-opacity="0.17"/>
<stop offset="1" stop-color="#6EC4F4"/>
</linearGradient>
<linearGradient id="paint137_linear_285_1715" x1="157.873" y1="187.887" x2="158.606" y2="188.621" gradientUnits="userSpaceOnUse">
<stop offset="0.0001" stop-color="#ACD8F0" stop-opacity="0.17"/>
<stop offset="1" stop-color="#6EC4F4"/>
</linearGradient>
<linearGradient id="paint138_linear_285_1715" x1="173.528" y1="173.53" x2="174.26" y2="174.264" gradientUnits="userSpaceOnUse">
<stop offset="0.0001" stop-color="#ACD8F0" stop-opacity="0.17"/>
<stop offset="1" stop-color="#6EC4F4"/>
</linearGradient>
<linearGradient id="paint139_linear_285_1715" x1="203.219" y1="194.406" x2="203.952" y2="195.141" gradientUnits="userSpaceOnUse">
<stop offset="0.0001" stop-color="#ACD8F0" stop-opacity="0.17"/>
<stop offset="1" stop-color="#6EC4F4"/>
</linearGradient>
<linearGradient id="paint140_linear_285_1715" x1="198.663" y1="157.415" x2="199.395" y2="158.149" gradientUnits="userSpaceOnUse">
<stop offset="0.0001" stop-color="#ACD8F0" stop-opacity="0.17"/>
<stop offset="1" stop-color="#6EC4F4"/>
</linearGradient>
<linearGradient id="paint141_linear_285_1715" x1="157.873" y1="249.49" x2="158.606" y2="250.225" gradientUnits="userSpaceOnUse">
<stop offset="0.0001" stop-color="#ACD8F0" stop-opacity="0.17"/>
<stop offset="1" stop-color="#6EC4F4"/>
</linearGradient>
<linearGradient id="paint142_linear_285_1715" x1="173.528" y1="235.06" x2="174.26" y2="235.794" gradientUnits="userSpaceOnUse">
<stop offset="0.0001" stop-color="#ACD8F0" stop-opacity="0.17"/>
<stop offset="1" stop-color="#6EC4F4"/>
</linearGradient>
<linearGradient id="paint143_linear_285_1715" x1="203.219" y1="256.009" x2="203.952" y2="256.744" gradientUnits="userSpaceOnUse">
<stop offset="0.0001" stop-color="#ACD8F0" stop-opacity="0.17"/>
<stop offset="1" stop-color="#6EC4F4"/>
</linearGradient>
<linearGradient id="paint144_linear_285_1715" x1="198.663" y1="219.091" x2="199.395" y2="219.826" gradientUnits="userSpaceOnUse">
<stop offset="0.0001" stop-color="#ACD8F0" stop-opacity="0.17"/>
<stop offset="1" stop-color="#6EC4F4"/>
</linearGradient>
<linearGradient id="paint145_linear_285_1715" x1="220.196" y1="189.132" x2="220.929" y2="189.867" gradientUnits="userSpaceOnUse">
<stop offset="0.0001" stop-color="#ACD8F0" stop-opacity="0.17"/>
<stop offset="1" stop-color="#6EC4F4"/>
</linearGradient>
<linearGradient id="paint146_linear_285_1715" x1="235.777" y1="174.702" x2="236.51" y2="175.436" gradientUnits="userSpaceOnUse">
<stop offset="0.0001" stop-color="#ACD8F0" stop-opacity="0.17"/>
<stop offset="1" stop-color="#6EC4F4"/>
</linearGradient>
<linearGradient id="paint147_linear_285_1715" x1="265.469" y1="195.504" x2="266.201" y2="196.239" gradientUnits="userSpaceOnUse">
<stop offset="0.0001" stop-color="#ACD8F0" stop-opacity="0.17"/>
<stop offset="1" stop-color="#6EC4F4"/>
</linearGradient>
<linearGradient id="paint148_linear_285_1715" x1="260.986" y1="158.587" x2="261.718" y2="159.321" gradientUnits="userSpaceOnUse">
<stop offset="0.0001" stop-color="#ACD8F0" stop-opacity="0.17"/>
<stop offset="1" stop-color="#6EC4F4"/>
</linearGradient>
<linearGradient id="paint149_linear_285_1715" x1="220.196" y1="250.735" x2="220.929" y2="251.47" gradientUnits="userSpaceOnUse">
<stop offset="0.0001" stop-color="#ACD8F0" stop-opacity="0.17"/>
<stop offset="1" stop-color="#6EC4F4"/>
</linearGradient>
<linearGradient id="paint150_linear_285_1715" x1="235.777" y1="236.378" x2="236.51" y2="237.113" gradientUnits="userSpaceOnUse">
<stop offset="0.0001" stop-color="#ACD8F0" stop-opacity="0.17"/>
<stop offset="1" stop-color="#6EC4F4"/>
</linearGradient>
<linearGradient id="paint151_linear_285_1715" x1="265.469" y1="257.181" x2="266.201" y2="257.916" gradientUnits="userSpaceOnUse">
<stop offset="0.0001" stop-color="#ACD8F0" stop-opacity="0.17"/>
<stop offset="1" stop-color="#6EC4F4"/>
</linearGradient>
<linearGradient id="paint152_linear_285_1715" x1="260.986" y1="220.263" x2="261.718" y2="220.998" gradientUnits="userSpaceOnUse">
<stop offset="0.0001" stop-color="#ACD8F0" stop-opacity="0.17"/>
<stop offset="1" stop-color="#6EC4F4"/>
</linearGradient>
<linearGradient id="paint153_linear_285_1715" x1="133.836" y1="165.477" x2="145.483" y2="177.16" gradientUnits="userSpaceOnUse">
<stop offset="0.0001" stop-color="#ACD8F0" stop-opacity="0.17"/>
<stop offset="1" stop-color="#6EC4F4"/>
</linearGradient>
<linearGradient id="paint154_linear_285_1715" x1="148.462" y1="210.306" x2="160.108" y2="222.062" gradientUnits="userSpaceOnUse">
<stop offset="0.0001" stop-color="#ACD8F0" stop-opacity="0.17"/>
<stop offset="1" stop-color="#6EC4F4"/>
</linearGradient>
<linearGradient id="paint155_linear_285_1715" x1="143.169" y1="142.621" x2="150.127" y2="149.674" gradientUnits="userSpaceOnUse">
<stop offset="0.0001" stop-color="#ACD8F0" stop-opacity="0.17"/>
<stop offset="1" stop-color="#6EC4F4"/>
</linearGradient>
<linearGradient id="paint156_linear_285_1715" x1="232.17" y1="193.017" x2="239.129" y2="199.997" gradientUnits="userSpaceOnUse">
<stop offset="0.0001" stop-color="#ACD8F0" stop-opacity="0.17"/>
<stop offset="1" stop-color="#6EC4F4"/>
</linearGradient>
<linearGradient id="paint157_linear_285_1715" x1="254.145" y1="130.901" x2="261.177" y2="137.955" gradientUnits="userSpaceOnUse">
<stop offset="0.0001" stop-color="#ACD8F0" stop-opacity="0.17"/>
<stop offset="1" stop-color="#6EC4F4"/>
</linearGradient>
<linearGradient id="paint158_linear_285_1715" x1="183.958" y1="93.6167" x2="190.917" y2="100.597" gradientUnits="userSpaceOnUse">
<stop offset="0.0001" stop-color="#ACD8F0" stop-opacity="0.17"/>
<stop offset="1" stop-color="#6EC4F4"/>
</linearGradient>
<linearGradient id="paint159_linear_285_1715" x1="226.511" y1="32.4529" x2="233.543" y2="39.5069" gradientUnits="userSpaceOnUse">
<stop offset="0.0001" stop-color="#ACD8F0" stop-opacity="0.17"/>
<stop offset="1" stop-color="#6EC4F4"/>
</linearGradient>
<linearGradient id="paint160_linear_285_1715" x1="181.606" y1="8.20731" x2="188.638" y2="15.1876" gradientUnits="userSpaceOnUse">
<stop offset="0.0001" stop-color="#ACD8F0" stop-opacity="0.17"/>
<stop offset="1" stop-color="#6EC4F4"/>
</linearGradient>
<linearGradient id="paint161_linear_285_1715" x1="269.065" y1="165.467" x2="279.634" y2="154.865" gradientUnits="userSpaceOnUse">
<stop offset="0.0001" stop-color="#ACD8F0" stop-opacity="0.17"/>
<stop offset="1" stop-color="#6EC4F4"/>
</linearGradient>
<linearGradient id="paint162_linear_285_1715" x1="270.832" y1="163.707" x2="277.877" y2="156.639" gradientUnits="userSpaceOnUse">
<stop offset="0.0001" stop-color="#ACD8F0" stop-opacity="0.17"/>
<stop offset="1" stop-color="#6EC4F4"/>
</linearGradient>
<linearGradient id="paint163_linear_285_1715" x1="271.715" y1="162.827" x2="276.999" y2="157.526" gradientUnits="userSpaceOnUse">
<stop offset="0.0001" stop-color="#ACD8F0" stop-opacity="0.17"/>
<stop offset="1" stop-color="#6EC4F4"/>
</linearGradient>
<linearGradient id="paint164_linear_285_1715" x1="272.598" y1="161.947" x2="276.121" y2="158.413" gradientUnits="userSpaceOnUse">
<stop offset="0.0001" stop-color="#ACD8F0" stop-opacity="0.17"/>
<stop offset="1" stop-color="#6EC4F4"/>
</linearGradient>
<linearGradient id="paint165_linear_285_1715" x1="141.332" y1="68.484" x2="151.9" y2="57.8818" gradientUnits="userSpaceOnUse">
<stop offset="0.0001" stop-color="#ACD8F0" stop-opacity="0.17"/>
<stop offset="1" stop-color="#6EC4F4"/>
</linearGradient>
<linearGradient id="paint166_linear_285_1715" x1="143.099" y1="66.7243" x2="150.144" y2="59.6563" gradientUnits="userSpaceOnUse">
<stop offset="0.0001" stop-color="#ACD8F0" stop-opacity="0.17"/>
<stop offset="1" stop-color="#6EC4F4"/>
</linearGradient>
<linearGradient id="paint167_linear_285_1715" x1="143.982" y1="65.8443" x2="149.266" y2="60.5432" gradientUnits="userSpaceOnUse">
<stop offset="0.0001" stop-color="#ACD8F0" stop-opacity="0.17"/>
<stop offset="1" stop-color="#6EC4F4"/>
</linearGradient>
<linearGradient id="paint168_linear_285_1715" x1="144.865" y1="64.9645" x2="148.388" y2="61.4304" gradientUnits="userSpaceOnUse">
<stop offset="0.0001" stop-color="#ACD8F0" stop-opacity="0.17"/>
<stop offset="1" stop-color="#6EC4F4"/>
</linearGradient>
<linearGradient id="paint169_linear_285_1715" x1="295.817" y1="32.4449" x2="306.385" y2="21.8428" gradientUnits="userSpaceOnUse">
<stop offset="0.0001" stop-color="#ACD8F0" stop-opacity="0.17"/>
<stop offset="1" stop-color="#6EC4F4"/>
</linearGradient>
<linearGradient id="paint170_linear_285_1715" x1="297.584" y1="30.6853" x2="304.629" y2="23.6172" gradientUnits="userSpaceOnUse">
<stop offset="0.0001" stop-color="#ACD8F0" stop-opacity="0.17"/>
<stop offset="1" stop-color="#6EC4F4"/>
</linearGradient>
<linearGradient id="paint171_linear_285_1715" x1="298.467" y1="29.8052" x2="303.751" y2="24.5042" gradientUnits="userSpaceOnUse">
<stop offset="0.0001" stop-color="#ACD8F0" stop-opacity="0.17"/>
<stop offset="1" stop-color="#6EC4F4"/>
</linearGradient>
<linearGradient id="paint172_linear_285_1715" x1="299.35" y1="28.9254" x2="302.873" y2="25.3914" gradientUnits="userSpaceOnUse">
<stop offset="0.0001" stop-color="#ACD8F0" stop-opacity="0.17"/>
<stop offset="1" stop-color="#6EC4F4"/>
</linearGradient>
<linearGradient id="paint173_linear_285_1715" x1="193.587" y1="159.241" x2="204.155" y2="148.639" gradientUnits="userSpaceOnUse">
<stop offset="0.0001" stop-color="#ACD8F0" stop-opacity="0.17"/>
<stop offset="1" stop-color="#6EC4F4"/>
</linearGradient>
<linearGradient id="paint174_linear_285_1715" x1="195.353" y1="157.481" x2="202.399" y2="150.413" gradientUnits="userSpaceOnUse">
<stop offset="0.0001" stop-color="#ACD8F0" stop-opacity="0.17"/>
<stop offset="1" stop-color="#6EC4F4"/>
</linearGradient>
<linearGradient id="paint175_linear_285_1715" x1="196.237" y1="156.601" x2="201.521" y2="151.3" gradientUnits="userSpaceOnUse">
<stop offset="0.0001" stop-color="#ACD8F0" stop-opacity="0.17"/>
<stop offset="1" stop-color="#6EC4F4"/>
</linearGradient>
<linearGradient id="paint176_linear_285_1715" x1="197.12" y1="155.721" x2="200.642" y2="152.187" gradientUnits="userSpaceOnUse">
<stop offset="0.0001" stop-color="#ACD8F0" stop-opacity="0.17"/>
<stop offset="1" stop-color="#6EC4F4"/>
</linearGradient>
<linearGradient id="paint177_linear_285_1715" x1="154.929" y1="122.542" x2="165.497" y2="111.94" gradientUnits="userSpaceOnUse">
<stop offset="0.0001" stop-color="#ACD8F0" stop-opacity="0.17"/>
<stop offset="1" stop-color="#6EC4F4"/>
</linearGradient>
<linearGradient id="paint178_linear_285_1715" x1="156.695" y1="120.783" x2="163.741" y2="113.715" gradientUnits="userSpaceOnUse">
<stop offset="0.0001" stop-color="#ACD8F0" stop-opacity="0.17"/>
<stop offset="1" stop-color="#6EC4F4"/>
</linearGradient>
<linearGradient id="paint179_linear_285_1715" x1="157.578" y1="119.903" x2="162.863" y2="114.602" gradientUnits="userSpaceOnUse">
<stop offset="0.0001" stop-color="#ACD8F0" stop-opacity="0.17"/>
<stop offset="1" stop-color="#6EC4F4"/>
</linearGradient>
<linearGradient id="paint180_linear_285_1715" x1="158.462" y1="119.023" x2="161.984" y2="115.489" gradientUnits="userSpaceOnUse">
<stop offset="0.0001" stop-color="#ACD8F0" stop-opacity="0.17"/>
<stop offset="1" stop-color="#6EC4F4"/>
</linearGradient>
<linearGradient id="paint181_linear_285_1715" x1="282.368" y1="73.7579" x2="292.936" y2="63.1558" gradientUnits="userSpaceOnUse">
<stop offset="0.0001" stop-color="#ACD8F0" stop-opacity="0.17"/>
<stop offset="1" stop-color="#6EC4F4"/>
</linearGradient>
<linearGradient id="paint182_linear_285_1715" x1="284.134" y1="71.9983" x2="291.18" y2="64.9302" gradientUnits="userSpaceOnUse">
<stop offset="0.0001" stop-color="#ACD8F0" stop-opacity="0.17"/>
<stop offset="1" stop-color="#6EC4F4"/>
</linearGradient>
<linearGradient id="paint183_linear_285_1715" x1="285.018" y1="71.1182" x2="290.302" y2="65.8171" gradientUnits="userSpaceOnUse">
<stop offset="0.0001" stop-color="#ACD8F0" stop-opacity="0.17"/>
<stop offset="1" stop-color="#6EC4F4"/>
</linearGradient>
<linearGradient id="paint184_linear_285_1715" x1="285.901" y1="70.2384" x2="289.424" y2="66.7043" gradientUnits="userSpaceOnUse">
<stop offset="0.0001" stop-color="#ACD8F0" stop-opacity="0.17"/>
<stop offset="1" stop-color="#6EC4F4"/>
</linearGradient>
<radialGradient id="paint185_radial_285_1715" cx="0" cy="0" r="1" gradientUnits="userSpaceOnUse" gradientTransform="translate(195.231 240.723) scale(98.2693 14.4427)">
<stop offset="0.0001" stop-color="#ACD8F0" stop-opacity="0.69"/>
<stop offset="1" stop-color="#6EC4F4" stop-opacity="0"/>
</radialGradient>
<linearGradient id="paint186_linear_285_1715" x1="195" y1="240.62" x2="268.434" y2="192.048" gradientUnits="userSpaceOnUse">
<stop stop-color="#6EC4F4" stop-opacity="0.73"/>
<stop offset="1" stop-color="#6EC4F4" stop-opacity="0.16"/>
</linearGradient>
<linearGradient id="paint187_linear_285_1715" x1="299.058" y1="248.451" x2="297.838" y2="184.778" gradientUnits="userSpaceOnUse">
<stop stop-color="#6EC4F4"/>
<stop offset="1" stop-color="#6EC4F4" stop-opacity="0"/>
</linearGradient>
<clipPath id="clip0_285_1715">
<rect width="390" height="261" fill="white"/>
</clipPath>
</defs>
</svg>
