<svg width="94" height="15" viewBox="0 0 94 15" fill="none" xmlns="http://www.w3.org/2000/svg">
<g clip-path="url(#clip0_283_1093)">
<path d="M7 11.8578L10.3949 13.8528C11.0166 14.2184 11.7774 13.678 11.6138 12.9944L10.7139 9.24284L13.7162 6.7153C14.2643 6.2543 13.9698 5.37999 13.2499 5.32435L9.29871 4.99848L7.7526 1.45356C7.47447 0.809751 6.52553 0.809751 6.2474 1.45356L4.70129 4.99053L0.750115 5.31641C0.0302327 5.37204 -0.264264 6.24635 0.283828 6.70735L3.28606 9.23489L2.38621 12.9865C2.2226 13.67 2.98339 14.2105 3.6051 13.8449L7 11.8578Z" fill="#BC3333"/>
</g>
<g clip-path="url(#clip1_283_1093)">
<path d="M27 11.8578L30.3949 13.8528C31.0166 14.2184 31.7774 13.678 31.6138 12.9944L30.7139 9.24284L33.7162 6.7153C34.2643 6.2543 33.9698 5.37999 33.2499 5.32435L29.2987 4.99848L27.7526 1.45356C27.4745 0.809751 26.5255 0.809751 26.2474 1.45356L24.7013 4.99053L20.7501 5.31641C20.0302 5.37204 19.7357 6.24635 20.2838 6.70735L23.2861 9.23489L22.3862 12.9865C22.2226 13.67 22.9834 14.2105 23.6051 13.8449L27 11.8578Z" fill="#BC3333"/>
</g>
<g clip-path="url(#clip2_283_1093)">
<path d="M47 11.8578L50.3949 13.8528C51.0166 14.2184 51.7774 13.678 51.6138 12.9944L50.7139 9.24284L53.7162 6.7153C54.2643 6.2543 53.9698 5.37999 53.2499 5.32435L49.2987 4.99848L47.7526 1.45356C47.4745 0.809751 46.5255 0.809751 46.2474 1.45356L44.7013 4.99053L40.7501 5.31641C40.0302 5.37204 39.7357 6.24635 40.2838 6.70735L43.2861 9.23489L42.3862 12.9865C42.2226 13.67 42.9834 14.2105 43.6051 13.8449L47 11.8578Z" fill="#BC3333"/>
</g>
<g clip-path="url(#clip3_283_1093)">
<path d="M67 11.8578L70.3949 13.8528C71.0166 14.2184 71.7774 13.678 71.6138 12.9944L70.7139 9.24284L73.7162 6.7153C74.2643 6.2543 73.9698 5.37999 73.2499 5.32435L69.2987 4.99848L67.7526 1.45356C67.4745 0.809751 66.5255 0.809751 66.2474 1.45356L64.7013 4.99053L60.7501 5.31641C60.0302 5.37204 59.7357 6.24635 60.2838 6.70735L63.2861 9.23489L62.3862 12.9865C62.2226 13.67 62.9834 14.2105 63.6051 13.8449L67 11.8578Z" fill="#BC3333"/>
</g>
<g clip-path="url(#clip4_283_1093)">
<path d="M87 11.8578L90.3949 13.8528C91.0166 14.2184 91.7774 13.678 91.6138 12.9944L90.7139 9.24284L93.7162 6.7153C94.2643 6.2543 93.9698 5.37999 93.2499 5.32435L89.2987 4.99848L87.7526 1.45356C87.4745 0.809751 86.5255 0.809751 86.2474 1.45356L84.7013 4.99053L80.7501 5.31641C80.0302 5.37204 79.7357 6.24635 80.2838 6.70735L83.2861 9.23489L82.3862 12.9865C82.2226 13.67 82.9834 14.2105 83.6051 13.8449L87 11.8578Z" fill="#BC3333"/>
</g>
<defs>
<clipPath id="clip0_283_1093">
<rect width="14" height="14" fill="white" transform="translate(0 0.5)"/>
</clipPath>
<clipPath id="clip1_283_1093">
<rect width="14" height="14" fill="white" transform="translate(20 0.5)"/>
</clipPath>
<clipPath id="clip2_283_1093">
<rect width="14" height="14" fill="white" transform="translate(40 0.5)"/>
</clipPath>
<clipPath id="clip3_283_1093">
<rect width="14" height="14" fill="white" transform="translate(60 0.5)"/>
</clipPath>
<clipPath id="clip4_283_1093">
<rect width="14" height="14" fill="white" transform="translate(80 0.5)"/>
</clipPath>
</defs>
</svg>
