<svg width="30" height="30" viewBox="0 0 30 30" fill="none" xmlns="http://www.w3.org/2000/svg">
<path fill-rule="evenodd" clip-rule="evenodd" d="M14.142 3.86477C14.6952 3.66649 15.3048 3.66649 15.858 3.86477L24.4136 6.93254C24.8796 7.09958 25.2812 7.39867 25.5647 7.78982C25.8482 8.18098 26.0001 8.64556 26 9.12146V15.389C26 17.3424 25.4312 19.2572 24.3573 20.9188C23.2833 22.5804 21.7466 23.9233 19.9194 24.7968L15.8201 26.7567C15.5655 26.8784 15.2847 26.9418 15 26.9418C14.7153 26.9418 14.4345 26.8784 14.1799 26.7567L10.0806 24.7968C8.25338 23.9233 6.71672 22.5804 5.64275 20.9188C4.56879 19.2572 3.99996 17.3424 4 15.389V9.12146C3.99994 8.64556 4.1518 8.18098 4.4353 7.78982C4.71879 7.39867 5.1204 7.09958 5.58644 6.93254L14.142 3.86477ZM15 6.0537L6.44444 9.12146V15.389C6.44473 16.9082 6.88737 18.3972 7.72278 19.6893C8.5582 20.9815 9.75339 22.0257 11.1744 22.705L15 24.5362V6.0537Z" fill="#443E79"/>
</svg>
