<svg width="30" height="30" viewBox="0 0 30 30" fill="none" xmlns="http://www.w3.org/2000/svg">
<path d="M26.4672 12.9119L23.7142 12.2349C23.5488 11.713 23.3359 11.207 23.0791 10.7229C23.4924 10.0349 24.3611 8.58675 24.3611 8.58675C24.5273 8.31005 24.4833 7.95572 24.2553 7.72777L22.2668 5.73923C22.0388 5.51058 21.6852 5.46666 21.4078 5.63348L19.2682 6.91547C18.7868 6.6607 18.2835 6.44991 17.7652 6.2858L17.0881 3.53288C17.0098 3.21975 16.729 3 16.4062 3H13.5938C13.271 3 12.9895 3.21975 12.9119 3.53283C12.9119 3.53283 12.4429 5.45423 12.2355 6.28509C11.6828 6.46017 11.1486 6.68747 10.6398 6.96487L8.42123 5.63348C8.14383 5.46867 7.79091 5.51128 7.56225 5.73923L5.57372 7.72777C5.34577 7.95572 5.3018 8.31005 5.46797 8.58675L6.83991 10.8781C6.6188 11.3141 6.43341 11.768 6.2858 12.2328L3.53288 12.9119C3.21975 12.9902 3 13.271 3 13.5938V16.4062C3 16.729 3.21975 17.0105 3.53283 17.0881L6.28645 17.7651C6.45333 18.2945 6.67027 18.8088 6.93328 19.3025L5.70558 21.3487C5.53941 21.6254 5.58337 21.9797 5.81133 22.2077L7.79986 24.1962C8.02716 24.4235 8.38144 24.4667 8.65884 24.302C8.65884 24.302 10.0356 23.4766 10.7099 23.0729C11.1981 23.3331 11.7089 23.548 12.2356 23.7149L12.912 26.4671C12.9895 26.7803 13.271 27 13.5938 27H16.4062C16.729 27 17.0098 26.7803 17.0881 26.4672L17.7645 23.7149C18.3062 23.5432 18.828 23.3214 19.3245 23.0523C20.0173 23.4677 21.4078 24.302 21.4078 24.302C21.6845 24.4674 22.0388 24.4249 22.2668 24.1962L24.2553 22.2077C24.4832 21.9797 24.5272 21.6254 24.361 21.3487L23.0969 19.2428C23.3461 18.7696 23.5529 18.2746 23.7142 17.7651L26.4671 17.0881C26.7803 17.0098 27 16.729 27 16.4062V13.5938C27 13.271 26.7803 12.9902 26.4672 12.9119ZM15 19.9219C12.2864 19.9219 10.0781 17.7136 10.0781 15C10.0781 12.2864 12.2864 10.0781 15 10.0781C17.7136 10.0781 19.9219 12.2864 19.9219 15C19.9219 17.7136 17.7136 19.9219 15 19.9219Z" fill="#443E79"/>
</svg>
