<svg width="28" height="28" viewBox="0 0 28 28" fill="none" xmlns="http://www.w3.org/2000/svg">
<path d="M19.0295 13.6088C18.285 9.26994 9.0062 9.74243 8.60091 13.5918C8.24576 16.3025 8.10206 19.0366 8.17111 21.7696C8.15834 21.9653 8.09451 23.6928 10.5198 23.88C11.4569 24.0264 12.4053 24.0877 13.3535 24.063H14.2768C15.2063 24.0873 16.1361 24.0289 17.0552 23.8885C17.4197 23.8897 17.7808 23.8184 18.1175 23.6789C18.4542 23.5394 18.7599 23.3344 19.0167 23.0758C19.3158 22.7074 19.4728 22.2439 19.4592 21.7696C19.532 19.0422 19.3883 16.3134 19.0295 13.6088ZM18.5359 20.8761C18.5352 21.3081 18.3632 21.7221 18.0578 22.0276C17.7523 22.333 17.3383 22.505 16.9063 22.5057H10.724C10.292 22.505 9.87799 22.333 9.57254 22.0276C9.26709 21.7221 9.09516 21.3081 9.0944 20.8761V17.5105C9.09427 17.0778 9.26579 16.6628 9.57131 16.3565C9.87682 16.0502 10.2914 15.8776 10.724 15.8766H16.9063C17.339 15.8776 17.7535 16.0502 18.059 16.3565C18.3646 16.6628 18.5361 17.0778 18.5359 17.5105L18.5359 20.8761Z" fill="#182028"/>
<path d="M16.9063 16.7276H10.724C10.5171 16.7287 10.319 16.8116 10.1731 16.9583C10.0271 17.105 9.94525 17.3036 9.94531 17.5105V20.8761C9.94541 21.0826 10.0275 21.2806 10.1735 21.4266C10.3195 21.5726 10.5175 21.6546 10.724 21.6547H16.9063C17.1128 21.6546 17.3107 21.5726 17.4567 21.4266C17.6027 21.2806 17.6848 21.0826 17.6849 20.8761V17.5105C17.685 17.3036 17.6031 17.105 17.4572 16.9583C17.3113 16.8116 17.1132 16.7287 16.9063 16.7276ZM16.5361 18.4508H16.2638L16.0936 19.1827C16.0667 19.2911 15.9982 19.3846 15.903 19.443C15.8078 19.5014 15.6934 19.5201 15.5846 19.4949C15.4757 19.4698 15.3811 19.4029 15.3211 19.3087C15.2611 19.2145 15.2406 19.1004 15.2639 18.9912L15.3873 18.4508H11.0941C10.9824 18.4491 10.8758 18.4036 10.7974 18.324C10.719 18.2443 10.675 18.1371 10.675 18.0253C10.675 17.9136 10.719 17.8063 10.7974 17.7267C10.8758 17.6471 10.9824 17.6015 11.0941 17.5998H16.5361C16.6479 17.6015 16.7544 17.6471 16.8329 17.7267C16.9113 17.8063 16.9553 17.9136 16.9553 18.0253C16.9553 18.1371 16.9113 18.2443 16.8329 18.324C16.7544 18.4036 16.6478 18.4491 16.5361 18.4508Z" fill="#182028"/>
<path d="M23.2289 4.70338C22.9044 4.27283 21.7012 3.78427 21.2419 3.50349C20.5851 3.15893 19.8244 3.06869 19.1053 3.25005C18.3861 3.43141 17.7592 3.87162 17.3444 4.48641C16.9919 4.37355 16.6332 4.28136 16.27 4.21031C16.4416 0.934667 11.5645 0.92512 11.7301 4.21034C11.3667 4.28034 11.0079 4.37254 10.6558 4.48641C10.2411 3.87142 9.61416 3.43106 8.89497 3.24969C8.17579 3.06833 7.41497 3.15871 6.75829 3.50353C6.30157 3.78431 5.10128 4.26705 4.77127 4.70336C0.086205 10.8274 3.74471 17.3749 5.95393 20.7442L5.87753 22.2461C5.85325 22.7511 5.92936 23.2558 6.10144 23.7311C6.27353 24.2064 6.53818 24.6429 6.88007 25.0153C7.22197 25.3876 7.63432 25.6885 8.09325 25.9004C8.55219 26.1123 9.04861 26.2311 9.55377 26.2499L18.4464 26.25C18.946 26.2393 19.4382 26.1279 19.8937 25.9224C20.3492 25.717 20.7585 25.4217 21.0972 25.0544C21.4458 24.6777 21.7159 24.2354 21.892 23.7533C22.068 23.2712 22.1464 22.7588 22.1226 22.2462L22.046 20.7442C24.2559 17.3804 27.9125 10.8227 23.2289 4.70338ZM12.5811 3.98501C12.5834 3.79608 12.6234 3.60951 12.6987 3.43623C12.7741 3.26296 12.8832 3.10646 13.0198 2.9759C13.1564 2.84534 13.3176 2.74336 13.4941 2.67591C13.6706 2.60847 13.8588 2.57693 14.0477 2.58314C14.2365 2.58934 14.4222 2.63317 14.5939 2.71206C14.7656 2.79095 14.9198 2.9033 15.0475 3.04254C15.1752 3.18179 15.2739 3.34512 15.3377 3.52297C15.4015 3.70082 15.4291 3.88961 15.419 4.07828C14.4774 3.96145 13.5249 3.96133 12.5832 4.07792C12.5805 4.04702 12.5798 4.016 12.5811 3.98501ZM20.3228 20.3825C20.3234 20.8211 20.3191 21.2603 20.31 21.7228C20.3335 22.4137 20.1052 23.0896 19.6675 23.6247C19.3495 23.9613 18.9682 24.2319 18.5455 24.421C18.1228 24.6101 17.6669 24.714 17.204 24.7267C16.2357 24.8756 15.256 24.9382 14.2766 24.914H13.3533C12.3739 24.9382 11.3943 24.8756 10.426 24.7267C9.92636 24.719 9.43462 24.6009 8.98594 24.381C8.53726 24.161 8.14272 23.8447 7.83053 23.4545C7.47937 22.9468 7.3004 22.3398 7.31994 21.7228C7.24894 18.9655 7.39548 16.2069 7.7582 13.4726C7.81675 13.0515 7.95233 12.6448 8.15816 12.2728C9.73669 9.55816 13.4172 9.69007 13.8171 9.71136C14.2 9.69007 17.7018 9.56668 19.3484 12.0685C19.9262 12.9753 19.8973 13.7407 20.0462 14.9236C20.0462 14.9364 20.3241 20.3707 20.3228 20.3825ZM21.778 15.4597C21.775 15.254 21.6502 13.0058 21.6418 12.7323C21.3187 8.21695 17.6058 6.38107 14.0001 6.37987C11.8764 6.40535 8.70946 7.05933 7.23488 9.77524C6.20151 11.3456 6.33947 13.6552 6.22221 15.4597C5.89482 14.8482 5.64197 14.1997 5.46908 13.528C4.97551 11.626 4.83511 8.67317 6.7966 5.10334C7.25678 5.2752 7.65527 5.58037 7.94115 5.97984C7.43072 6.42112 7.02582 6.97132 6.7563 7.58989C6.48678 8.20847 6.35951 8.87964 6.38388 9.55394C9.1272 4.17572 18.8646 4.15844 21.6162 9.55394C21.6406 8.87965 21.5133 8.2085 21.2437 7.58994C20.9742 6.97137 20.5694 6.42117 20.059 5.97986C20.3016 5.63686 20.6303 5.36389 21.0121 5.18846C21.0759 5.15867 21.1397 5.12888 21.2035 5.10335C23.4969 9.52782 23.1573 12.5966 21.778 15.4597Z" fill="#182028"/>
</svg>
