<svg width="28" height="28" viewBox="0 0 28 28" fill="none" xmlns="http://www.w3.org/2000/svg">
<path d="M14.3329 16.7125C14.3136 16.6381 14.2746 16.5703 14.2199 16.5164C14.1652 16.4625 14.0969 16.4244 14.0222 16.4062C13.8451 16.3523 9.76377 15.2979 9.71286 15.2775C9.54771 15.1797 5.47649 16.3651 5.18036 16.4062C4.59797 16.2022 2.73611 24.852 9.46778 26.9412C9.55447 26.9698 9.64804 26.9698 9.73474 26.9412C10.9631 26.575 12.0666 25.8771 12.9241 24.9244C15.4866 22.2059 14.4873 16.9498 14.3329 16.7125ZM11.511 23.4412C11.0405 24.0016 10.4499 24.4487 9.78286 24.7494C9.72507 24.7753 9.66245 24.7887 9.59911 24.7887C9.53577 24.7887 9.47315 24.7753 9.41536 24.7494C6.42724 23.3712 6.36599 20.1862 6.59786 18.41C6.60948 18.3241 6.64652 18.2436 6.7042 18.1789C6.76189 18.1142 6.8376 18.0682 6.92161 18.0469L9.48974 17.3731C9.63415 17.3196 9.88682 17.4286 10.0279 17.4562C10.6761 17.6226 11.6279 17.8796 12.281 18.0469C12.3646 18.069 12.4399 18.1152 12.4975 18.1797C12.555 18.2443 12.5923 18.3244 12.6047 18.41C12.7754 19.7444 12.7841 21.8794 11.511 23.4412Z" fill="#182028"/>
<path d="M11.7692 18.8169C11.1637 18.6626 10.203 18.3986 9.59921 18.2481C9.07506 18.3846 7.96381 18.6788 7.43359 18.8169C7.28486 20.3437 7.44234 22.7456 9.59921 23.8656C11.5003 22.9605 11.9915 20.5778 11.7692 18.8169Z" fill="#182028"/>
<path d="M23.1568 20.1687C23.0301 19.9804 22.8675 19.819 22.6784 19.6936C22.4892 19.5682 22.2771 19.4814 22.0543 19.4381C21.9334 18.774 21.5701 18.1784 21.035 17.7669C22.8352 14.9403 23.3312 11.3529 22.9382 8.14187C22.403 3.44686 19.3711 0.712611 15.7893 1.06755C11.8513 1.09296 8.3264 4.02222 8.32129 9.55067C8.37177 11.2198 8.58568 12.88 8.95995 14.5075C9.27004 14.3912 9.60644 14.364 9.9312 14.4287L14.245 15.5575C14.4665 15.6168 14.6689 15.7327 14.8323 15.8938C14.9956 16.0548 15.1143 16.2555 15.1768 16.4762C15.3326 16.6863 16.3715 22.18 13.8598 25.1781C16.3368 25.6954 19.5422 26.2233 23.2225 21.7832C23.404 21.5497 23.497 21.2595 23.4849 20.964C23.4729 20.6685 23.3567 20.3867 23.1568 20.1687ZM10.8806 8.88999C10.9442 7.23281 14.4897 7.23731 14.5512 8.89004C14.4929 10.5441 10.94 10.5474 10.8806 8.88999ZM15.6187 14.8137C12.5647 14.7548 12.5701 12.3919 15.6187 12.3331C18.6681 12.3902 18.6729 14.7567 15.6187 14.8137ZM18.5237 10.1456C16.0983 10.0896 16.0978 7.69315 18.5237 7.63437C20.956 7.69235 20.9548 10.0907 18.5237 10.1456Z" fill="#182028"/>
</svg>
