<svg width="22" height="23" viewBox="0 0 22 23" fill="none" xmlns="http://www.w3.org/2000/svg">
<rect y="0.5" width="22" height="22" rx="11" fill="white"/>
<g clip-path="url(#clip0_802_191)">
<path d="M18.3988 11.773C18.3988 11.2438 18.3449 10.7147 18.291 10.1856H11.5527V13.184H15.3801C15.2184 14.1247 14.7332 15.0066 13.9785 15.5357V17.4759H16.2965C17.6441 16.1236 18.3988 14.1247 18.3988 11.773Z" fill="#4285F4"/>
<path d="M11.5533 19.3572C13.4939 19.3572 15.1111 18.6517 16.2971 17.4759L13.9791 15.5357C13.3322 16.006 12.5236 16.3 11.5533 16.3C9.72051 16.3 8.10332 14.9478 7.56426 13.0664H5.19238V15.0654C6.43223 17.711 8.85801 19.3572 11.5533 19.3572Z" fill="#34A853"/>
<path d="M7.56387 13.0664C7.24043 12.1257 7.24043 11.0675 7.56387 10.068V8.06903H5.19199C4.16777 10.2444 4.16777 12.8312 5.19199 15.0654L7.56387 13.0664Z" fill="#FBBC04"/>
<path d="M11.5531 6.89318C12.5773 6.89318 13.5477 7.30472 14.3023 8.06903L16.3508 5.83491C15.057 4.54147 13.332 3.77716 11.607 3.83596C8.91172 3.83596 6.43203 5.48215 5.24609 8.12782L7.61797 10.1268C8.10313 8.24541 9.72031 6.89318 11.5531 6.89318Z" fill="#EA4335"/>
</g>
<defs>
<clipPath id="clip0_802_191">
<rect width="15" height="16" fill="white" transform="translate(3.5 3.5)"/>
</clipPath>
</defs>
</svg>
