<svg width="22" height="23" viewBox="0 0 22 23" fill="none" xmlns="http://www.w3.org/2000/svg">
<rect y="0.5" width="22" height="22" rx="11" fill="white"/>
<path d="M18.8711 9.10812C18.6813 7.62741 18.1499 6.27959 17.2198 5.29245C16.2329 4.36226 14.8853 3.83073 13.4048 3.64089C11.9813 3.45106 11.0133 3.50801 11.0133 3.50801C11.0133 3.50801 10.0453 3.47004 8.62176 3.64089C7.1413 3.83073 5.7937 4.36226 4.80672 5.29245C3.87669 6.27959 3.34524 7.62741 3.15544 9.10812C2.96563 10.5319 3.00359 11.5 3.00359 11.5C3.00359 11.5 2.96563 12.4682 3.13646 13.8919C3.32626 15.3725 3.85771 16.7205 4.78774 17.7076C5.77472 18.6378 7.12232 19.1691 8.60278 19.359C10.0263 19.5488 10.9943 19.4921 10.9943 19.4921C10.9943 19.4921 11.9623 19.5298 13.3858 19.359C14.8663 19.1691 16.2139 18.6378 17.2009 17.7076C18.1309 16.7207 18.6623 15.3725 18.8521 13.8919C19.0419 12.4682 18.985 11.5 18.985 11.5C18.985 11.5 19.0609 10.5319 18.8711 9.10812Z" fill="#1E4BC6"/>
<path d="M5.75879 9.01724H7.2206C7.45142 9.01724 7.64376 9.05378 7.83611 9.12686C8.02845 9.19993 8.18233 9.30955 8.31697 9.43743C8.45161 9.56531 8.56701 9.71147 8.64395 9.89416C8.72089 10.0768 8.75936 10.2595 8.75936 10.4605C8.75936 10.6615 8.72089 10.8441 8.64395 11.0268C8.56701 11.2095 8.45161 11.3559 8.31697 11.4836C8.18233 11.6113 8.00922 11.7212 7.83611 11.7939C7.663 11.867 7.45142 11.9039 7.2206 11.9039H6.56663V13.0547H5.77802V9.01724H5.75879ZM6.5474 9.71165V11.1914H7.1629C7.27831 11.1914 7.39371 11.1732 7.48989 11.1366C7.58606 11.1001 7.663 11.0453 7.73993 10.9722C7.81687 10.8991 7.85534 10.8261 7.89381 10.7347C7.93228 10.6434 7.95151 10.552 7.95151 10.4424C7.95151 10.3328 7.93228 10.2414 7.89381 10.1501C7.85534 10.0588 7.79764 9.98568 7.73993 9.91261C7.663 9.83953 7.58606 9.78472 7.48989 9.74819C7.39371 9.71165 7.27831 9.69338 7.1629 9.69338H6.5474V9.71165ZM10.5866 13.0547C10.375 13.0547 10.1827 13.0183 9.97113 12.9451C9.77878 12.872 9.58644 12.7624 9.43256 12.6347C9.27869 12.4884 9.14405 12.3239 9.04787 12.123C8.9517 11.922 8.894 11.6845 8.894 11.4288C8.894 11.173 8.93247 10.9355 9.02864 10.7345C9.12481 10.5336 9.25945 10.3691 9.41333 10.223C9.5672 10.0768 9.75955 9.9855 9.95189 9.91242C10.1635 9.83935 10.3558 9.80281 10.5866 9.80281C10.8174 9.80281 11.029 9.83935 11.2021 9.91242C11.3945 9.9855 11.5483 10.0951 11.683 10.223V9.80281H12.4716V13.0545H11.683V12.5978C11.5676 12.7441 11.3945 12.8536 11.2021 12.9449C11.0098 13.0183 10.8174 13.0547 10.5866 13.0547ZM10.7213 12.3789C10.8751 12.3789 11.0098 12.3607 11.1252 12.3058C11.2406 12.251 11.356 12.1962 11.4522 12.1049C11.5483 12.0135 11.6061 11.9222 11.6638 11.8126C11.7215 11.7026 11.7407 11.5749 11.7407 11.4472C11.7407 11.3191 11.7215 11.1913 11.6638 11.0818C11.6061 10.9722 11.5483 10.8626 11.4522 10.7895C11.356 10.6982 11.2598 10.6434 11.1252 10.5886C10.9906 10.5155 10.8559 10.4972 10.7213 10.4972C10.5866 10.4972 10.452 10.5155 10.3173 10.5703C10.1827 10.6251 10.0865 10.6799 9.99036 10.7713C9.89419 10.8626 9.81725 10.9539 9.77878 11.0636C9.72108 11.1732 9.70185 11.3011 9.70185 11.4289C9.70185 11.5568 9.72108 11.6845 9.77878 11.7941C9.83649 11.9041 9.91342 12.0135 9.99036 12.1049C10.0865 12.1962 10.2019 12.2509 10.3173 12.3058C10.4328 12.3422 10.5674 12.3789 10.7213 12.3789ZM13.568 9.82108L14.5297 12.0316L15.4145 9.82108H16.2415L14.2219 14.5345H13.4141L14.1258 12.9087L12.7409 9.82108H13.568Z" fill="white"/>
</svg>
