<svg width="120" height="107" viewBox="0 0 120 107" fill="none" xmlns="http://www.w3.org/2000/svg">
<g clip-path="url(#clip0_3210_353)">
<path fill-rule="evenodd" clip-rule="evenodd" d="M74.5345 27.6179L77.0601 12.9341C77.0601 12.9341 64.1841 22.8355 71.5539 36.1326C72.6703 31.4289 74.5345 27.6179 74.5345 27.6179Z" fill="#796DE2"/>
<mask id="mask0_3210_353" style="mask-type:luminance" maskUnits="userSpaceOnUse" x="71" y="12" width="7" height="20">
<path d="M74.5346 27.6179L77.0602 12.9341C74.3094 16.3824 69.6965 24.2493 72.8301 31.8142C73.7106 29.3028 74.5346 27.6179 74.5346 27.6179Z" fill="white"/>
</mask>
<g mask="url(#mask0_3210_353)">
<path d="M77.0603 12.9341H69.6965V31.8142H77.0603V12.9341Z" fill="url(#paint0_linear_3210_353)"/>
</g>
<path fill-rule="evenodd" clip-rule="evenodd" d="M72.0732 33.5378L67.269 19.4341C67.269 19.4341 61.3276 32.8636 71.7757 41.193C71.8645 39.7258 72.096 38.2495 72.4031 36.8391C72.1311 34.8597 72.0732 33.5378 72.0732 33.5378Z" fill="#796DE2"/>
<mask id="mask1_3210_353" style="mask-type:luminance" maskUnits="userSpaceOnUse" x="66" y="19" width="7" height="19">
<path d="M72.0732 33.5378L67.269 19.4341C66.5171 23.6937 66.2255 32.5405 72.2206 37.7337C72.2777 37.433 72.3388 37.1345 72.4031 36.8389C72.1311 34.8596 72.0732 33.5378 72.0732 33.5378Z" fill="white"/>
</mask>
<g mask="url(#mask1_3210_353)">
<path d="M72.403 19.4341H66.2253V37.7337H72.403V19.4341Z" fill="url(#paint1_linear_3210_353)"/>
</g>
<path fill-rule="evenodd" clip-rule="evenodd" d="M71.2013 38.0093L61.8345 26.4224C61.8345 26.4224 60.9666 39.7412 71.8691 44.6429C71.6585 43.0096 71.7129 41.2834 71.927 39.582C71.4527 38.6119 71.2013 38.0093 71.2013 38.0093Z" fill="#796DE2"/>
<mask id="mask2_3210_353" style="mask-type:luminance" maskUnits="userSpaceOnUse" x="61" y="26" width="11" height="16">
<path d="M71.2013 38.0093L61.8345 26.4224C62.5592 30.4786 65.1095 38.2992 71.7609 41.4617C71.7912 40.8356 71.8483 40.2071 71.927 39.5819C71.4527 38.6118 71.2013 38.0093 71.2013 38.0093Z" fill="white"/>
</mask>
<g mask="url(#mask2_3210_353)">
<path d="M71.9272 26.4224H61.8347V41.4617H71.9272V26.4224Z" fill="url(#paint2_linear_3210_353)"/>
</g>
<path fill-rule="evenodd" clip-rule="evenodd" d="M70.8592 41.542L58.2258 33.6431C58.2258 33.6431 61.5319 45.7192 72.5574 47.4579C72.3286 46.8603 72.1532 46.2361 72.0245 45.5929C71.8233 44.5876 71.7362 43.536 71.7363 42.4678C71.1729 41.8943 70.8592 41.542 70.8592 41.542Z" fill="#796DE2"/>
<mask id="mask3_3210_353" style="mask-type:luminance" maskUnits="userSpaceOnUse" x="58" y="33" width="14" height="12">
<path d="M70.8592 41.542L58.2258 33.6431C60.173 37.1323 64.8971 43.4087 71.8557 44.5337C71.7736 43.8577 71.7362 43.1663 71.7362 42.4677C71.1728 41.8941 70.8592 41.542 70.8592 41.542Z" fill="white"/>
</mask>
<g mask="url(#mask3_3210_353)">
<path d="M71.8557 33.6431H58.2258V44.5337H71.8557V33.6431Z" fill="url(#paint3_linear_3210_353)"/>
</g>
<path fill-rule="evenodd" clip-rule="evenodd" d="M71.9305 45.0683L60.041 42.1494C60.041 42.1494 65.3255 50.1229 73.8747 49.8179C72.9198 48.5933 72.3357 47.1485 72.0245 45.5928C71.9897 45.4193 71.9585 45.2444 71.9305 45.0683Z" fill="#796DE2"/>
<mask id="mask4_3210_353" style="mask-type:luminance" maskUnits="userSpaceOnUse" x="60" y="42" width="13" height="6">
<path d="M71.9305 45.0683L60.041 42.1494C62.3615 44.2844 67.2009 47.6956 72.6021 47.5725C72.3512 46.9403 72.1614 46.2773 72.0245 45.5928C71.9897 45.4193 71.9585 45.2444 71.9305 45.0683Z" fill="white"/>
</mask>
<g mask="url(#mask4_3210_353)">
<path d="M72.6021 42.1494H60.041V47.6956H72.6021V42.1494Z" fill="url(#paint4_linear_3210_353)"/>
</g>
<path fill-rule="evenodd" clip-rule="evenodd" d="M72.7441 47.9126L63.8691 49.0152C63.8691 49.0152 69.5987 53.1151 75.9699 51.7312C74.4439 50.7399 73.4087 49.4223 72.7441 47.9126Z" fill="#796DE2"/>
<mask id="mask5_3210_353" style="mask-type:luminance" maskUnits="userSpaceOnUse" x="63" y="47" width="12" height="4">
<path d="M72.7441 47.9126L63.8691 49.0152C66.1271 49.9155 70.219 51.0083 74.1849 50.1935C73.581 49.5052 73.1073 48.7375 72.7441 47.9126Z" fill="white"/>
</mask>
<g mask="url(#mask5_3210_353)">
<path d="M74.1849 47.9126H63.8691V51.0083H74.1849V47.9126Z" fill="url(#paint5_linear_3210_353)"/>
</g>
<mask id="mask6_3210_353" style="mask-type:luminance" maskUnits="userSpaceOnUse" x="70" y="27" width="10" height="26">
<path d="M73.8809 44.851C72.485 42.0148 71.9877 36.8856 74.5345 27.6182C74.5345 27.6182 72.6704 31.4291 71.554 36.1329C70.8351 39.1615 70.4262 42.5603 71.0245 45.5501C71.5742 48.2973 72.9742 50.6992 75.7654 52.1517C75.9767 51.9348 76.1762 51.7182 76.3644 51.5051C77.1832 50.579 78.4992 48.8925 79.1708 48.34C79.1708 48.34 75.734 48.6163 73.8809 44.851Z" fill="white"/>
</mask>
<g mask="url(#mask6_3210_353)">
<path d="M79.1709 27.6182H70.4263V52.1517H79.1709V27.6182Z" fill="url(#paint6_linear_3210_353)"/>
</g>
<path fill-rule="evenodd" clip-rule="evenodd" d="M54.9121 66.5865L43.1553 77.8422C43.1553 77.8422 60.8958 77.5103 63.0609 61.0444C59.0249 64.4503 54.9121 66.5865 54.9121 66.5865Z" fill="#796DE2"/>
<mask id="mask7_3210_353" style="mask-type:luminance" maskUnits="userSpaceOnUse" x="43" y="64" width="17" height="14">
<path d="M54.9121 66.5871L43.1553 77.8428C47.8113 76.6012 56.973 72.6885 59.1349 64.0088C56.7303 65.6426 54.9121 66.5871 54.9121 66.5871Z" fill="white"/>
</mask>
<g mask="url(#mask7_3210_353)">
<path d="M59.1349 64.0088H43.1553V77.8429H59.1349V64.0088Z" fill="url(#paint7_linear_3210_353)"/>
</g>
<path fill-rule="evenodd" clip-rule="evenodd" d="M58.5116 66.4084L53.6875 79.5356C53.6875 79.5356 67.255 72.5803 62.7084 59.0537C60.8793 63.2066 58.5116 66.4084 58.5116 66.4084Z" fill="#796DE2"/>
<mask id="mask8_3210_353" style="mask-type:luminance" maskUnits="userSpaceOnUse" x="53" y="62" width="9" height="18">
<path d="M58.5116 66.4084L53.6875 79.5355C56.8123 76.8191 62.4062 70.3395 60.7973 62.8237C59.5582 64.9928 58.5116 66.4084 58.5116 66.4084Z" fill="white"/>
</mask>
<g mask="url(#mask8_3210_353)">
<path d="M62.4062 62.8237H53.6875V79.5355H62.4062V62.8237Z" fill="url(#paint8_linear_3210_353)"/>
</g>
<path fill-rule="evenodd" clip-rule="evenodd" d="M61.2764 64.1955L61.9619 76.3876C61.9619 76.3876 70.4229 66.11 62.0896 56.8467C62.0637 60.8088 61.2764 64.1955 61.2764 64.1955Z" fill="#796DE2"/>
<mask id="mask9_3210_353" style="mask-type:luminance" maskUnits="userSpaceOnUse" x="61" y="60" width="4" height="17">
<path d="M61.2764 64.1954L61.9619 76.3875C63.5242 73.1272 65.7604 65.9952 61.8652 60.5303C61.6243 62.6981 61.2764 64.1954 61.2764 64.1954Z" fill="white"/>
</mask>
<g mask="url(#mask9_3210_353)">
<path d="M65.7604 60.5303H61.2764V76.3875H65.7604V60.5303Z" fill="url(#paint9_linear_3210_353)"/>
</g>
<mask id="mask10_3210_353" style="mask-type:luminance" maskUnits="userSpaceOnUse" x="53" y="38" width="31" height="31">
<path d="M66.5299 47.4059C60.7065 54.7179 55.2147 64.4785 53.3584 68.1298L64.4019 66.1742C75.114 63.6301 77.8596 56.8673 78.6756 51.5274C78.7478 51.055 78.8049 50.5937 78.8511 50.1475C79.0519 48.2071 79.1927 44.8342 79.5477 43.5084C79.7545 42.7358 80.2149 42.1221 81.1034 41.915C81.7494 41.7644 82.5173 41.8231 83.0664 41.9879C82.3187 40.6937 80.6506 40.0898 80.6506 40.0898C80.209 39.1929 79.3637 38.8153 78.646 38.66C76.0917 38.1077 72.8612 40.3678 69.5544 43.8862C68.5477 44.9574 67.5338 46.1452 66.5299 47.4059Z" fill="white"/>
</mask>
<g mask="url(#mask10_3210_353)">
<path d="M83.0664 38.1079H53.3584V68.13H83.0664V38.1079Z" fill="url(#paint10_linear_3210_353)"/>
</g>
<path fill-rule="evenodd" clip-rule="evenodd" d="M57.9846 59.9163C55.8765 63.4029 54.223 66.4291 53.3584 68.1298L64.4019 66.1742C75.114 63.63 77.8596 56.8673 78.6756 51.5273C78.6756 51.5273 72.9867 61.3949 57.9846 59.9163Z" fill="#191919"/>
<path fill-rule="evenodd" clip-rule="evenodd" d="M54.5735 21.1666L44.3353 0C44.3353 0 36.8976 24.5297 58.5644 34.8322C55.6793 27.7697 54.5735 21.1666 54.5735 21.1666Z" fill="#796DE2"/>
<mask id="mask11_3210_353" style="mask-type:luminance" maskUnits="userSpaceOnUse" x="44" y="0" width="13" height="29">
<path d="M54.5735 21.1666L44.3353 0C43.97 6.95153 45.2708 21.2842 56.238 28.1177C55.0626 24.0857 54.5735 21.1666 54.5735 21.1666Z" fill="white"/>
</mask>
<g mask="url(#mask11_3210_353)">
<path d="M56.2383 0H43.9702V28.1177H56.2383V0Z" fill="url(#paint11_linear_3210_353)"/>
</g>
<path fill-rule="evenodd" clip-rule="evenodd" d="M56.8482 31.025L37.7341 17.332C37.7341 17.332 42.4365 40.0244 63.4942 41.1243C62.2611 39.1595 61.203 37.052 60.3024 34.9596C58.1361 32.6686 56.8482 31.025 56.8482 31.025Z" fill="#796DE2"/>
<mask id="mask12_3210_353" style="mask-type:luminance" maskUnits="userSpaceOnUse" x="37" y="17" width="24" height="20">
<path d="M56.8482 31.025L37.7341 17.332C40.6794 23.4899 48.4267 35.1133 60.8895 36.2755C60.6867 35.8371 60.4911 35.3979 60.3023 34.9593C58.1361 32.6684 56.8482 31.025 56.8482 31.025Z" fill="white"/>
</mask>
<g mask="url(#mask12_3210_353)">
<path d="M60.8895 17.332H37.7341V36.2755H60.8895V17.332Z" fill="url(#paint12_linear_3210_353)"/>
</g>
<path fill-rule="evenodd" clip-rule="evenodd" d="M59.8348 37.565L37.1746 31.291C37.1746 31.291 48.2875 49.1836 66.7818 45.4666C65.0121 43.5635 63.4972 41.2979 62.2101 38.9174C60.7106 38.1076 59.8348 37.565 59.8348 37.565Z" fill="#796DE2"/>
<mask id="mask13_3210_353" style="mask-type:luminance" maskUnits="userSpaceOnUse" x="37" y="31" width="27" height="11">
<path d="M59.8348 37.565L37.1746 31.291C41.8286 35.8322 52.2815 43.5295 63.7224 41.4826C63.1866 40.6511 62.683 39.792 62.21 38.9173C60.7106 38.1075 59.8348 37.565 59.8348 37.565Z" fill="white"/>
</mask>
<g mask="url(#mask13_3210_353)">
<path d="M63.7224 31.291H37.1746V43.5295H63.7224V31.291Z" fill="url(#paint13_linear_3210_353)"/>
</g>
<path fill-rule="evenodd" clip-rule="evenodd" d="M62.6383 42.4136L39.1709 43.8723C39.1709 43.8723 54.5007 56.338 70.2491 48.4482C69.4068 47.8912 68.6086 47.2509 67.853 46.5435C66.6719 45.4377 65.5946 44.1679 64.6141 42.7968C63.3644 42.5777 62.6383 42.4136 62.6383 42.4136Z" fill="#796DE2"/>
<mask id="mask14_3210_353" style="mask-type:luminance" maskUnits="userSpaceOnUse" x="39" y="42" width="28" height="6">
<path d="M62.6383 42.4136L39.1709 43.8723C44.8734 46.5635 56.6992 50.2831 66.6638 45.3389C65.9379 44.5465 65.2552 43.6933 64.614 42.7967C63.364 42.5777 62.6383 42.4136 62.6383 42.4136Z" fill="white"/>
</mask>
<g mask="url(#mask14_3210_353)">
<path d="M66.6639 42.4136H39.1709V50.2831H66.6639V42.4136Z" fill="url(#paint14_linear_3210_353)"/>
</g>
<path fill-rule="evenodd" clip-rule="evenodd" d="M67.2509 45.9565L49.3101 53.1247C49.3101 53.1247 63.413 58.508 74.1067 50.2682C71.7569 49.573 69.6807 48.2546 67.853 46.5436C67.6492 46.3527 67.4486 46.1568 67.2509 45.9565Z" fill="#796DE2"/>
<mask id="mask15_3210_353" style="mask-type:luminance" maskUnits="userSpaceOnUse" x="49" y="45" width="22" height="9">
<path d="M67.2509 45.9565L49.3101 53.1247C54.2486 53.7348 63.592 53.6707 70.4118 48.5544C69.5094 47.9732 68.6572 47.2964 67.853 46.5435C67.6492 46.3527 67.4486 46.1568 67.2509 45.9565Z" fill="white"/>
</mask>
<g mask="url(#mask15_3210_353)">
<path d="M70.4118 45.9565H49.3101V53.7348H70.4118V45.9565Z" fill="url(#paint15_linear_3210_353)"/>
</g>
<path fill-rule="evenodd" clip-rule="evenodd" d="M70.9063 48.8604L60.5266 58.423C60.5266 58.423 71.6449 58.4257 78.5524 50.8006C75.6837 50.929 73.1452 50.1881 70.9063 48.8604Z" fill="#796DE2"/>
<mask id="mask16_3210_353" style="mask-type:luminance" maskUnits="userSpaceOnUse" x="60" y="48" width="15" height="11">
<path d="M70.9063 48.8604L60.5266 58.423C64.2514 57.5059 70.5069 55.1521 74.8496 50.4654C73.4424 50.1363 72.1297 49.5859 70.9063 48.8604Z" fill="white"/>
</mask>
<g mask="url(#mask16_3210_353)">
<path d="M74.8496 48.8604H60.5266V58.423H74.8496V48.8604Z" fill="url(#paint16_linear_3210_353)"/>
</g>
<mask id="mask17_3210_353" style="mask-type:luminance" maskUnits="userSpaceOnUse" x="54" y="21" width="26" height="31">
<path d="M69.5546 43.8864C65.1593 41.5273 59.8122 35.4001 54.5735 21.1665C54.5735 21.1665 55.6793 27.7696 58.5644 34.8321C60.4221 39.3795 63.0173 44.1175 66.5301 47.406C69.7576 50.4276 73.7597 52.2255 78.6758 51.5275C78.748 51.0551 78.8051 50.5939 78.8513 50.1476C79.052 48.2072 79.1929 44.8344 79.5478 43.5086C79.5478 43.5086 75.3899 47.0183 69.5546 43.8864Z" fill="white"/>
</mask>
<g mask="url(#mask17_3210_353)">
<path d="M79.5478 21.1665H54.5735V52.2255H79.5478V21.1665Z" fill="url(#paint17_linear_3210_353)"/>
</g>
<path fill-rule="evenodd" clip-rule="evenodd" d="M69.5544 43.8862C75.9376 38.5377 80.6507 40.0898 80.6507 40.0898C80.209 39.1929 79.3637 38.8153 78.646 38.66C76.0917 38.1077 72.8612 40.3678 69.5544 43.8862Z" fill="#FCE2A6"/>
<path d="M0.5 106.821V91.1788H6.3975C7.72245 91.1788 8.85299 91.3948 9.7891 91.8268C10.7252 92.2588 11.4453 92.8845 11.9494 93.7039C12.4534 94.5233 12.7054 95.4991 12.7054 96.6313C12.7054 97.7635 12.4534 98.7393 11.9494 99.5587C11.4453 100.363 10.7252 100.981 9.7891 101.413C8.85299 101.845 7.72245 102.061 6.3975 102.061H1.68814L2.66025 101.034V106.821H0.5ZM10.61 106.821L6.76474 101.145H9.07621L12.9647 106.821H10.61ZM2.66025 101.257L1.68814 100.162H6.33269C7.71525 100.162 8.75937 99.8566 9.46506 99.2458C10.1851 98.6201 10.5452 97.7486 10.5452 96.6313C10.5452 95.514 10.1851 94.6499 9.46506 94.0391C8.75937 93.4283 7.71525 93.1229 6.33269 93.1229H1.68814L2.66025 92.0056V101.257Z" fill="white"/>
<path d="M23.022 107C21.8555 107 20.7825 106.806 19.8032 106.419C18.8239 106.017 17.9742 105.458 17.2541 104.743C16.534 104.013 15.9724 103.164 15.5691 102.196C15.1659 101.227 14.9643 100.162 14.9643 99C14.9643 97.838 15.1659 96.7728 15.5691 95.8045C15.9724 94.8361 16.534 93.9944 17.2541 93.2793C17.9886 92.5493 18.8455 91.9907 19.8248 91.6034C20.8041 91.2011 21.8843 91 23.0652 91C24.2606 91 25.3551 91.2011 26.3488 91.6034C27.3425 92.0056 28.185 92.6089 28.8763 93.4134L27.5369 94.7989C26.9177 94.1732 26.2408 93.7188 25.5063 93.4358C24.7862 93.1378 24.0013 92.9888 23.1516 92.9888C22.2875 92.9888 21.481 93.1378 20.7321 93.4358C19.9977 93.7337 19.3568 94.1508 18.8095 94.6871C18.2766 95.2235 17.859 95.8641 17.5566 96.6089C17.2685 97.3389 17.1245 98.1359 17.1245 99C17.1245 99.8492 17.2685 100.646 17.5566 101.391C17.859 102.121 18.2766 102.762 18.8095 103.313C19.3568 103.849 19.9977 104.266 20.7321 104.564C21.4666 104.862 22.2659 105.011 23.13 105.011C23.9365 105.011 24.707 104.885 25.4415 104.631C26.1904 104.363 26.8817 103.924 27.5153 103.313L28.7467 105.011C27.9978 105.667 27.1193 106.166 26.1112 106.508C25.1175 106.836 24.0877 107 23.022 107ZM26.6728 104.721V98.9106H28.7467V105.011L26.6728 104.721Z" fill="white"/>
<path d="M32.8827 106.821V91.1788H39.6659C41.4085 91.1788 42.7479 91.5438 43.684 92.2737C44.6201 92.9888 45.0882 93.9721 45.0882 95.2235C45.0882 96.0726 44.9009 96.7877 44.5265 97.3687C44.1665 97.9497 43.6768 98.3966 43.0575 98.7095C42.4383 99.0223 41.7686 99.1788 41.0485 99.1788L41.4373 98.5084C42.3014 98.5084 43.0647 98.6648 43.7272 98.9777C44.3897 99.2905 44.9153 99.7523 45.3042 100.363C45.693 100.959 45.8875 101.704 45.8875 102.598C45.8875 103.939 45.3978 104.981 44.4185 105.726C43.4536 106.456 42.0134 106.821 40.098 106.821H32.8827ZM35.043 105.011H40.0116C41.2069 105.011 42.1214 104.803 42.7551 104.385C43.3888 103.968 43.7056 103.313 43.7056 102.419C43.7056 101.51 43.3888 100.847 42.7551 100.43C42.1214 100.013 41.2069 99.8045 40.0116 99.8045H34.8486V97.9944H39.4715C40.566 97.9944 41.4157 97.7858 42.0206 97.3687C42.6255 96.9516 42.9279 96.3259 42.9279 95.4916C42.9279 94.6574 42.6255 94.0317 42.0206 93.6145C41.4157 93.1974 40.566 92.9888 39.4715 92.9888H35.043V105.011Z" fill="white"/>
<path d="M59.4407 107C58.2886 107 57.1868 106.821 56.1355 106.464C55.0842 106.091 54.2561 105.615 53.6512 105.034L54.4505 103.291C55.0266 103.812 55.7611 104.244 56.654 104.587C57.5469 104.929 58.4758 105.101 59.4407 105.101C60.3192 105.101 61.0321 104.996 61.5793 104.788C62.1266 104.579 62.5299 104.296 62.7891 103.939C63.0483 103.566 63.1779 103.149 63.1779 102.687C63.1779 102.151 63.0051 101.719 62.6595 101.391C62.3282 101.063 61.889 100.803 61.3417 100.609C60.8089 100.4 60.2184 100.222 59.5703 100.073C58.9222 99.9236 58.267 99.7523 57.6045 99.5587C56.9564 99.3501 56.3587 99.0894 55.8115 98.7765C55.2786 98.4637 54.8466 98.0466 54.5153 97.5251C54.1841 96.9888 54.0185 96.3035 54.0185 95.4693C54.0185 94.6648 54.2201 93.9274 54.6233 93.257C55.041 92.5717 55.6747 92.0279 56.5244 91.6257C57.3885 91.2086 58.483 91 59.8079 91C60.6864 91 61.5578 91.1192 62.4219 91.3575C63.286 91.5959 64.0348 91.9385 64.6685 92.3855L63.9556 94.1732C63.3076 93.7263 62.6235 93.406 61.9034 93.2123C61.1833 93.0037 60.4848 92.8994 59.8079 92.8994C58.9582 92.8994 58.2598 93.0112 57.7125 93.2346C57.1652 93.4581 56.762 93.7561 56.5028 94.1285C56.2579 94.5009 56.1355 94.9181 56.1355 95.3799C56.1355 95.9311 56.3011 96.3706 56.6324 96.6983C56.978 97.0261 57.4173 97.2868 57.9501 97.4804C58.4974 97.6741 59.0951 97.8529 59.7431 98.0168C60.3912 98.1657 61.0393 98.3371 61.6874 98.5307C62.3498 98.7244 62.9475 98.9777 63.4804 99.2905C64.0276 99.6034 64.4669 100.02 64.7981 100.542C65.1294 101.063 65.295 101.734 65.295 102.553C65.295 103.343 65.0862 104.08 64.6685 104.765C64.2509 105.436 63.6028 105.98 62.7243 106.397C61.8602 106.799 60.7657 107 59.4407 107Z" fill="white"/>
<path d="M82.471 94.8659C83.3927 94.8659 84.2064 95.0521 84.9121 95.4246C85.6178 95.797 86.1651 96.3631 86.5539 97.1229C86.9572 97.8827 87.1588 98.8436 87.1588 100.006V106.821H85.085V100.251C85.085 99.1043 84.8257 98.2402 84.3073 97.6592C83.7888 97.0782 83.0615 96.7877 82.1254 96.7877C81.4341 96.7877 80.8292 96.9367 80.3108 97.2346C79.7923 97.5326 79.3891 97.9721 79.101 98.5531C78.8274 99.1341 78.6906 99.8566 78.6906 100.721V106.821H76.6168V100.251C76.6168 99.1043 76.3575 98.2402 75.8391 97.6592C75.335 97.0782 74.6077 96.7877 73.6572 96.7877C72.9803 96.7877 72.3827 96.9367 71.8642 97.2346C71.3457 97.5326 70.9425 97.9721 70.6544 98.5531C70.3664 99.1341 70.2224 99.8566 70.2224 100.721V106.821H68.1486V94.9777H70.136V98.1285L69.8119 97.324C70.172 96.5493 70.7265 95.946 71.4753 95.514C72.2242 95.0819 73.0955 94.8659 74.0892 94.8659C75.1838 94.8659 76.1271 95.149 76.9192 95.7151C77.7113 96.2663 78.2297 97.108 78.4746 98.2402L77.6321 97.8827C77.9777 96.9739 78.5826 96.2439 79.4467 95.6927C80.3108 95.1415 81.3189 94.8659 82.471 94.8659Z" fill="white"/>
<path d="M98.0819 106.821V104.318L97.9739 103.849V99.581C97.9739 98.6723 97.7147 97.9721 97.1962 97.4804C96.6922 96.9739 95.9289 96.7207 94.9063 96.7207C94.2295 96.7207 93.567 96.8399 92.9189 97.0782C92.2708 97.3017 91.7236 97.6071 91.2771 97.9944L90.413 96.3855C91.0035 95.8939 91.7092 95.5214 92.5301 95.2682C93.3654 95 94.2367 94.8659 95.144 94.8659C96.7138 94.8659 97.9235 95.2607 98.7732 96.0503C99.6229 96.8399 100.048 98.0466 100.048 99.6704V106.821H98.0819ZM94.3231 106.955C93.4734 106.955 92.7245 106.806 92.0764 106.508C91.4427 106.21 90.9531 105.801 90.6074 105.279C90.2618 104.743 90.089 104.14 90.089 103.469C90.089 102.829 90.233 102.248 90.521 101.726C90.8235 101.205 91.3059 100.788 91.9684 100.475C92.6453 100.162 93.5526 100.006 94.6903 100.006H98.3195V101.547H94.7767C93.7398 101.547 93.0413 101.726 92.6813 102.084C92.3212 102.441 92.1412 102.873 92.1412 103.38C92.1412 103.961 92.3644 104.43 92.8109 104.788C93.2573 105.13 93.8766 105.302 94.6687 105.302C95.4464 105.302 96.1233 105.123 96.6994 104.765C97.2898 104.408 97.7147 103.886 97.9739 103.201L98.3844 104.676C98.1107 105.376 97.6283 105.935 96.937 106.352C96.2457 106.754 95.3744 106.955 94.3231 106.955Z" fill="white"/>
<path d="M103.886 106.821V94.9777H105.873V98.1955L105.679 97.3911C105.995 96.5717 106.528 95.946 107.277 95.514C108.026 95.0819 108.948 94.8659 110.042 94.8659V96.9441C109.956 96.9292 109.869 96.9218 109.783 96.9218C109.711 96.9218 109.639 96.9218 109.567 96.9218C108.458 96.9218 107.58 97.2644 106.932 97.9497C106.283 98.635 105.959 99.6257 105.959 100.922V106.821H103.886Z" fill="white"/>
<path d="M116.994 106.955C115.842 106.955 114.949 106.635 114.315 105.994C113.682 105.354 113.365 104.438 113.365 103.246V92.3855H115.439V103.156C115.439 103.797 115.59 104.289 115.892 104.631C116.209 104.974 116.656 105.145 117.232 105.145C117.88 105.145 118.42 104.959 118.852 104.587L119.5 106.128C119.183 106.412 118.802 106.62 118.355 106.754C117.923 106.888 117.469 106.955 116.994 106.955ZM111.421 96.743V94.9777H118.722V96.743H111.421Z" fill="white"/>
</g>
<defs>
<linearGradient id="paint0_linear_3210_353" x1="75.9746" y1="13.3951" x2="72.0445" y2="26.9876" gradientUnits="userSpaceOnUse">
<stop stop-color="#FFCE4B"/>
<stop offset="1" stop-color="#F452CB"/>
</linearGradient>
<linearGradient id="paint1_linear_3210_353" x1="67.2883" y1="21.6575" x2="71.0098" y2="34.381" gradientUnits="userSpaceOnUse">
<stop stop-color="#796DE2"/>
<stop offset="1" stop-color="#0928D8"/>
</linearGradient>
<linearGradient id="paint2_linear_3210_353" x1="61.5091" y1="28.7016" x2="72.2854" y2="39.2142" gradientUnits="userSpaceOnUse">
<stop stop-color="#4EEB90"/>
<stop offset="1" stop-color="#00478F"/>
</linearGradient>
<linearGradient id="paint3_linear_3210_353" x1="71.8834" y1="43.9244" x2="59.1449" y2="34.9215" gradientUnits="userSpaceOnUse">
<stop stop-color="#008A80"/>
<stop offset="1" stop-color="#AFF022"/>
</linearGradient>
<linearGradient id="paint4_linear_3210_353" x1="72.7918" y1="48.282" x2="59.3575" y2="41.3066" gradientUnits="userSpaceOnUse">
<stop stop-color="#796DE2"/>
<stop offset="1" stop-color="#51F4E9"/>
</linearGradient>
<linearGradient id="paint5_linear_3210_353" x1="76.6724" y1="50.3403" x2="62.9862" y2="48.7653" gradientUnits="userSpaceOnUse">
<stop stop-color="#796DE2"/>
<stop offset="1" stop-color="#51F4E9"/>
</linearGradient>
<linearGradient id="paint6_linear_3210_353" x1="73.1307" y1="51.4065" x2="76.0044" y2="31.5549" gradientUnits="userSpaceOnUse">
<stop stop-color="#0012AF"/>
<stop offset="1" stop-color="#796DE2"/>
</linearGradient>
<linearGradient id="paint7_linear_3210_353" x1="57.5681" y1="67.202" x2="41.0798" y2="76.7614" gradientUnits="userSpaceOnUse">
<stop stop-color="#796DE2"/>
<stop offset="1" stop-color="#51F4E9"/>
</linearGradient>
<linearGradient id="paint8_linear_3210_353" x1="61.3487" y1="66.2523" x2="52.2324" y2="79.8567" gradientUnits="userSpaceOnUse">
<stop stop-color="#796DE2"/>
<stop offset="1" stop-color="#51F4E9"/>
</linearGradient>
<linearGradient id="paint9_linear_3210_353" x1="64.4742" y1="63.2669" x2="61.8854" y2="77.3293" gradientUnits="userSpaceOnUse">
<stop stop-color="#796DE2"/>
</linearGradient>
<linearGradient id="paint10_linear_3210_353" x1="72.2459" y1="59.9707" x2="61.3303" y2="41.4281" gradientUnits="userSpaceOnUse">
<stop stop-color="#0F0DB2"/>
<stop offset="1" stop-color="#796DE2"/>
</linearGradient>
<linearGradient id="paint11_linear_3210_353" x1="45.4418" y1="0.855251" x2="52.8768" y2="21.9103" gradientUnits="userSpaceOnUse">
<stop stop-color="#FFCE4B"/>
<stop offset="1" stop-color="#F452CB"/>
</linearGradient>
<linearGradient id="paint12_linear_3210_353" x1="40.2025" y1="19.6554" x2="56.6601" y2="32.5702" gradientUnits="userSpaceOnUse">
<stop stop-color="#796DE2"/>
<stop offset="1" stop-color="#0928D8"/>
</linearGradient>
<linearGradient id="paint13_linear_3210_353" x1="38.6822" y1="35.6056" x2="62.1655" y2="39.2074" gradientUnits="userSpaceOnUse">
<stop stop-color="#4EEB90"/>
<stop offset="1" stop-color="#00478F"/>
</linearGradient>
<linearGradient id="paint14_linear_3210_353" x1="66.1502" y1="46.2734" x2="41.5343" y2="46.4128" gradientUnits="userSpaceOnUse">
<stop stop-color="#008A80"/>
<stop offset="1" stop-color="#AFF022"/>
</linearGradient>
<linearGradient id="paint15_linear_3210_353" x1="71.1549" y1="48.2322" x2="47.5072" y2="51.6105" gradientUnits="userSpaceOnUse">
<stop stop-color="#796DE2"/>
<stop offset="1" stop-color="#51F4E9"/>
</linearGradient>
<linearGradient id="paint16_linear_3210_353" x1="77.946" y1="47.9543" x2="58.9327" y2="58.496" gradientUnits="userSpaceOnUse">
<stop stop-color="#796DE2"/>
<stop offset="1" stop-color="#51F4E9"/>
</linearGradient>
<linearGradient id="paint17_linear_3210_353" x1="75.2998" y1="52.6341" x2="60.7635" y2="24.5147" gradientUnits="userSpaceOnUse">
<stop stop-color="#0012AF"/>
<stop offset="1" stop-color="#796DE2"/>
</linearGradient>
<clipPath id="clip0_3210_353">
<rect width="119" height="107" fill="white" transform="translate(0.5)"/>
</clipPath>
</defs>
</svg>
