<svg width="74" height="19" viewBox="0 0 74 19" fill="none" xmlns="http://www.w3.org/2000/svg">
<g clip-path="url(#clip0_3169_685)">
<path d="M19.4434 6.83696H26.9348V8.21184H23.9896V15.9423H22.369V8.21184H19.4365V6.83643H19.4429L19.4434 6.83696ZM26.6151 9.34901H27.9999V10.6217H28.0258C28.0718 10.4417 28.1564 10.2681 28.2806 10.1008C28.5462 9.74222 28.9057 9.46425 29.3192 9.29766C29.5293 9.21429 29.7529 9.17067 29.9789 9.16901C30.148 9.16901 30.2728 9.17537 30.3383 9.18225C30.4033 9.1886 30.4683 9.20131 30.5402 9.20766V10.6085C30.4342 10.5899 30.3275 10.5749 30.2204 10.5635C30.1141 10.5509 30.0072 10.5445 29.9001 10.5444C29.6517 10.5444 29.417 10.5958 29.195 10.6927C28.973 10.7885 28.7833 10.9362 28.6205 11.1231C28.4467 11.332 28.3137 11.5718 28.2283 11.8298C28.1305 12.1125 28.0845 12.4334 28.0845 12.8002V15.936H26.6087V9.34901H26.6151ZM37.3265 15.9428H35.8767V15.0238H35.8503C35.6674 15.3584 35.3999 15.622 35.0405 15.8211C34.6811 16.0201 34.3153 16.1228 33.9432 16.1228C33.0615 16.1228 32.4209 15.9111 32.0297 15.4801C31.6375 15.0497 31.4414 14.4007 31.4414 13.533V9.34954H32.9177V13.3916C32.9177 13.9702 33.0287 14.3816 33.2576 14.6193C33.4796 14.857 33.7994 14.9793 34.2043 14.9793C34.5177 14.9793 34.7725 14.9343 34.9813 14.8374C35.1906 14.7411 35.3603 14.6193 35.4845 14.4584C35.615 14.3043 35.7065 14.1116 35.7657 13.893C35.8238 13.6743 35.8503 13.4366 35.8503 13.1798V9.3559H37.3265V15.9428ZM39.841 13.8289C39.887 14.2524 40.0498 14.5489 40.331 14.722C40.618 14.8893 40.9578 14.9793 41.3564 14.9793C41.4938 14.9793 41.6503 14.9661 41.8268 14.947C42.0028 14.9274 42.1725 14.8824 42.3231 14.8252C42.4796 14.767 42.6033 14.677 42.7079 14.5616C42.8063 14.4451 42.8517 14.298 42.8454 14.1116C42.8445 14.0251 42.8255 13.9398 42.7895 13.8611C42.7535 13.7825 42.7014 13.7124 42.6366 13.6553C42.5055 13.5335 42.3427 13.4435 42.1397 13.3662C41.9136 13.2877 41.6822 13.2255 41.4473 13.1798C41.1862 13.1285 40.9251 13.0703 40.6576 13.0125C40.3882 12.9542 40.1221 12.8812 39.8605 12.7939C39.6152 12.7152 39.3838 12.5981 39.175 12.4471C38.9714 12.3049 38.8054 12.1152 38.6913 11.8944C38.5676 11.6694 38.5084 11.3931 38.5084 11.059C38.5084 10.699 38.5999 10.4036 38.7764 10.159C38.9545 9.91647 39.1844 9.71679 39.4493 9.57454C39.734 9.4238 40.0401 9.31757 40.3569 9.25954C40.6899 9.20184 41.0102 9.16954 41.3104 9.16954C41.6566 9.16954 41.9896 9.20819 42.3036 9.27913C42.6076 9.34431 42.8973 9.46394 43.1588 9.63225C43.4136 9.79319 43.6224 10.005 43.7926 10.2622C43.9622 10.519 44.0669 10.834 44.1124 11.2004H42.571C42.4992 10.8536 42.3422 10.6159 42.0879 10.5C41.8332 10.3782 41.5393 10.32 41.2126 10.32C41.108 10.32 40.9837 10.3263 40.8405 10.3459C40.7025 10.3643 40.5666 10.3966 40.4351 10.4423C40.3148 10.4866 40.2057 10.5567 40.1153 10.6477C40.0714 10.6951 40.0373 10.7508 40.0149 10.8115C39.9925 10.8722 39.9822 10.9367 39.9847 11.0013C39.9847 11.1813 40.0498 11.3227 40.174 11.4317C40.2982 11.5408 40.4615 11.6308 40.664 11.7081C40.8664 11.779 41.0953 11.8431 41.3564 11.8944C41.6175 11.9458 41.885 12.0035 42.1598 12.0617C42.4273 12.1194 42.6884 12.1967 42.95 12.2798C43.2111 12.3635 43.4395 12.4794 43.6425 12.6271C43.8449 12.7748 44.0082 12.9548 44.1319 13.1735C44.2561 13.3916 44.3217 13.668 44.3217 13.9893C44.3217 14.3811 44.2302 14.7093 44.0468 14.9857C43.8645 15.2557 43.6292 15.4801 43.3417 15.6474C43.0407 15.8211 42.7145 15.9468 42.3749 16.0201C42.0295 16.0963 41.6768 16.135 41.3231 16.1355C40.9269 16.14 40.5319 16.0925 40.1481 15.9942C39.7886 15.8978 39.4752 15.7565 39.2141 15.5707C38.956 15.3828 38.7438 15.1388 38.5935 14.857C38.4434 14.5743 38.3647 14.2334 38.352 13.8416H39.841V13.8289ZM44.7133 9.35007H45.8302V7.37007H47.3065V9.35007H48.6385V10.4354H47.307V13.9575C47.307 14.1111 47.3134 14.2403 47.3266 14.3557C47.3393 14.4653 47.3721 14.5616 47.418 14.6384C47.468 14.719 47.5439 14.7803 47.6332 14.812C47.7315 14.8507 47.8552 14.8702 48.0254 14.8702C48.1295 14.8702 48.2342 14.8702 48.3388 14.8634C48.4435 14.857 48.5476 14.8443 48.6523 14.8184V15.9428C48.4889 15.9624 48.3256 15.9751 48.1755 15.9942C48.0172 16.0126 47.858 16.0213 47.6987 16.0201C47.307 16.0201 46.9936 15.9815 46.7579 15.9111C46.5232 15.8401 46.3334 15.7311 46.2029 15.5897C46.0654 15.4484 45.9809 15.2747 45.9285 15.0624C45.8776 14.8237 45.8493 14.5807 45.844 14.3366V10.4475H44.7271V9.34849H44.7139L44.7133 9.35007ZM49.6835 9.35007H51.0816V10.2427H51.108C51.3163 9.85725 51.6038 9.58725 51.9759 9.42049C52.3563 9.25111 52.7685 9.16553 53.1848 9.16954C53.7133 9.16954 54.1705 9.25954 54.5627 9.4459C54.9544 9.6259 55.2811 9.87684 55.5422 10.1977C55.8033 10.519 55.9931 10.8917 56.1236 11.3163C56.2566 11.758 56.3227 12.2172 56.3197 12.6785C56.3197 13.1216 56.261 13.552 56.1432 13.9639C56.0349 14.3612 55.8556 14.7355 55.6141 15.0688C55.3767 15.39 55.0682 15.6519 54.7129 15.8338C54.3471 16.0265 53.9226 16.1228 53.4263 16.1228C53.2094 16.1226 52.9929 16.1031 52.7793 16.0646C52.5664 16.0262 52.3584 15.9638 52.1593 15.8788C51.9616 15.7961 51.7766 15.6856 51.6101 15.5505C51.4458 15.4192 51.3026 15.2634 51.1857 15.0884H51.1593V18.3787H49.6835V9.34901V9.35007ZM54.8434 12.6525C54.8437 12.3595 54.8042 12.0678 54.7261 11.7854C54.6537 11.5178 54.5341 11.2654 54.373 11.04C54.2201 10.8255 54.0217 10.6476 53.7921 10.519C53.5454 10.3855 53.269 10.317 52.9887 10.32C52.3681 10.32 51.8977 10.5317 51.5842 10.9563C51.2708 11.3804 51.1138 11.9463 51.1138 12.6525C51.1138 12.9866 51.1535 13.2952 51.238 13.578C51.3226 13.8607 51.4405 14.1052 51.6101 14.3107C51.774 14.5166 51.9696 14.677 52.1984 14.7924C52.4268 14.9147 52.6948 14.9724 52.995 14.9724C53.3349 14.9724 53.6155 14.902 53.8508 14.767C54.0785 14.6358 54.2747 14.4559 54.4253 14.2403C54.5754 14.0216 54.687 13.777 54.752 13.5012C54.8121 13.2223 54.8427 12.9379 54.8434 12.6525ZM57.4493 6.83696H58.9256V8.21237H57.4493V6.83696ZM57.4493 9.34954H58.9256V15.9428H57.4493V9.34954ZM60.2449 6.83696H61.7212V15.9428H60.2449V6.83696ZM66.2473 16.1228C65.7114 16.1228 65.2346 16.0328 64.817 15.8597C64.4167 15.6953 64.0544 15.4502 63.7525 15.1397C63.459 14.823 63.2342 14.4488 63.0923 14.0407C62.9369 13.5902 62.8597 13.1164 62.864 12.6398C62.864 12.1385 62.9422 11.6763 63.0923 11.2517C63.2343 10.8438 63.4591 10.4698 63.7525 10.1532C64.0395 9.84454 64.3989 9.60684 64.817 9.43319C65.2346 9.25954 65.7114 9.16954 66.2473 9.16954C66.7828 9.16954 67.2596 9.25954 67.6777 9.43319C68.0958 9.60684 68.4483 9.85143 68.7422 10.1532C69.0356 10.4697 69.2603 10.8438 69.4018 11.2517C69.552 11.6758 69.6302 12.1385 69.6302 12.6398C69.6302 13.1481 69.552 13.6166 69.4018 14.0407C69.2603 14.4488 69.0357 14.8231 68.7422 15.1397C68.4546 15.4484 68.0958 15.6861 67.6777 15.8597C67.2596 16.0328 66.7828 16.1228 66.2473 16.1228ZM66.2473 14.9724C66.574 14.9724 66.861 14.902 67.1026 14.767C67.338 14.6357 67.5412 14.4534 67.6972 14.2334C67.8537 14.0152 67.9647 13.7643 68.0434 13.488C68.1153 13.2116 68.1544 12.9289 68.1544 12.6398C68.1544 12.3571 68.1153 12.0808 68.0434 11.7981C67.9761 11.5299 67.8586 11.277 67.6972 11.0527C67.5409 10.8347 67.3377 10.6547 67.1026 10.5259C66.861 10.3909 66.574 10.32 66.2473 10.32C65.9207 10.32 65.6331 10.3909 65.3916 10.5259C65.158 10.6567 64.9554 10.8363 64.7975 11.0527C64.6383 11.2783 64.521 11.5308 64.4512 11.7981C64.3789 12.0729 64.3414 12.3557 64.3397 12.6398C64.3397 12.9289 64.3794 13.2116 64.4512 13.488C64.5231 13.7643 64.6405 14.0152 64.7975 14.2334C64.9539 14.452 65.15 14.632 65.3916 14.767C65.6331 14.9084 65.9207 14.9724 66.2473 14.9724ZM70.0615 9.35007H71.1784V7.37007H72.6547V9.35007H73.9867V10.4354H72.6547V13.9575C72.6547 14.1111 72.661 14.2403 72.6737 14.3557C72.6869 14.4653 72.7197 14.5616 72.7657 14.6384C72.8155 14.7191 72.8914 14.7804 72.9808 14.812C73.0791 14.8507 73.2028 14.8702 73.373 14.8702C73.4771 14.8702 73.5818 14.8702 73.6864 14.8634C73.7911 14.857 73.8952 14.8443 73.9999 14.8184V15.9428C73.8366 15.9624 73.6732 15.9751 73.5231 15.9942C73.3649 16.0126 73.2057 16.0213 73.0463 16.0201C72.6547 16.0201 72.3407 15.9815 72.1055 15.9111C71.8708 15.8401 71.681 15.7311 71.5505 15.5897C71.4136 15.4484 71.3285 15.2747 71.2762 15.0624C71.2254 14.8237 71.197 14.5807 71.1916 14.3366V10.4475H70.0747V9.34849H70.0615V9.35007Z" fill="white"/>
<path d="M17.7193 6.83653H10.9531L8.86309 0.5L6.76571 6.83706L0 6.83018L5.4797 10.7499L3.38339 17.0796L8.86309 13.1662L14.3364 17.0796L12.2465 10.7499L17.7193 6.83653Z" fill="#04DA8D"/>
<path d="M12.7163 12.1836L12.2459 10.7505L8.86304 13.1667L12.7163 12.1836Z" fill="#126849"/>
</g>
<defs>
<clipPath id="clip0_3169_685">
<rect width="74" height="18" fill="white" transform="translate(0 0.5)"/>
</clipPath>
</defs>
</svg>
