<svg width="38" height="38" viewBox="0 0 38 38" fill="none" xmlns="http://www.w3.org/2000/svg">
<path d="M37.5174 13.7794C37.0782 10.354 35.8486 7.23602 33.6968 4.95244C31.4132 2.80061 28.2952 1.57099 24.8699 1.13184C21.5762 0.69269 19.3366 0.824435 19.3366 0.824435C19.3366 0.824435 17.0969 0.736605 13.8033 1.13184C10.3779 1.57099 7.25996 2.80061 4.97638 4.95244C2.82455 7.23602 1.59493 10.354 1.15578 13.7794C0.716628 17.073 0.804458 19.3126 0.804458 19.3126C0.804458 19.3126 0.716628 21.5523 1.11186 24.8459C1.55101 28.2709 2.78063 31.3893 4.93246 33.6728C7.21604 35.8247 10.334 37.0538 13.7594 37.493C17.053 37.9321 19.2927 37.8008 19.2927 37.8008C19.2927 37.8008 21.5323 37.8882 24.8259 37.493C28.2513 37.0538 31.3693 35.8247 33.6529 33.6728C35.8047 31.3897 37.0343 28.2709 37.4735 24.8459C37.9126 21.5523 37.7809 19.3126 37.7809 19.3126C37.7809 19.3126 37.9565 17.073 37.5174 13.7794Z" fill="#1E4BC6"/>
<path d="M7.61133 13.9111H10.9489C11.4758 13.9111 11.915 13.999 12.3541 14.1746C12.7933 14.3503 13.1446 14.6138 13.452 14.9212C13.7594 15.2286 14.0229 15.5799 14.1986 16.0191C14.3742 16.4582 14.4621 16.8974 14.4621 17.3804C14.4621 17.8635 14.3742 18.3026 14.1986 18.7418C14.0229 19.1809 13.7594 19.5327 13.452 19.8397C13.1446 20.1466 12.7494 20.411 12.3541 20.5858C11.9589 20.7614 11.4758 20.8501 10.9489 20.8501H9.45576V23.6163H7.65524V13.9111H7.61133ZM9.41184 15.5803V19.1375H10.8171C11.0806 19.1375 11.3441 19.0935 11.5637 19.0057C11.7832 18.9179 11.9589 18.7861 12.1346 18.6105C12.3102 18.4348 12.3981 18.2592 12.4859 18.0396C12.5737 17.82 12.6176 17.6004 12.6176 17.3369C12.6176 17.0734 12.5737 16.8539 12.4859 16.6343C12.3981 16.4147 12.2663 16.2391 12.1346 16.0634C11.9589 15.8877 11.7832 15.756 11.5637 15.6682C11.3441 15.5803 11.0806 15.5364 10.8171 15.5364H9.41184V15.5803ZM18.634 23.6163C18.1509 23.6163 17.7118 23.5289 17.2287 23.3529C16.7896 23.1772 16.3504 22.9137 15.9991 22.6067C15.6478 22.255 15.3404 21.8597 15.1208 21.3767C14.9012 20.8936 14.7695 20.3227 14.7695 19.7079C14.7695 19.0931 14.8573 18.5222 15.0769 18.0391C15.2964 17.5561 15.6039 17.1608 15.9552 16.8095C16.3065 16.4582 16.7456 16.2386 17.1848 16.063C17.6679 15.8873 18.107 15.7995 18.634 15.7995C19.161 15.7995 19.644 15.8873 20.0393 16.063C20.4784 16.2386 20.8297 16.5021 21.1371 16.8095V15.7995H22.9376V23.6159H21.1371V22.518C20.8736 22.8698 20.4784 23.1328 20.0393 23.3524C19.6001 23.529 19.161 23.6163 18.634 23.6163ZM18.9414 21.9919C19.2927 21.9919 19.6001 21.948 19.8636 21.8163C20.1271 21.6845 20.3906 21.5528 20.6102 21.3332C20.8297 21.1136 20.9615 20.8941 21.0932 20.6306C21.225 20.3662 21.2689 20.0592 21.2689 19.7523C21.2689 19.4444 21.225 19.137 21.0932 18.874C20.9615 18.6105 20.8297 18.347 20.6102 18.1713C20.3906 17.9517 20.171 17.82 19.8636 17.6883C19.5562 17.5126 19.2488 17.4687 18.9414 17.4687C18.634 17.4687 18.3266 17.5126 18.0192 17.6443C17.7118 17.7761 17.4922 17.9078 17.2726 18.1274C17.053 18.347 16.8774 18.5666 16.7896 18.83C16.6578 19.0935 16.6139 19.4009 16.6139 19.7083C16.6139 20.0158 16.6578 20.3227 16.7896 20.5862C16.9213 20.8506 17.097 21.1136 17.2726 21.3332C17.4922 21.5528 17.7557 21.6841 18.0192 21.8163C18.2827 21.9037 18.5901 21.9919 18.9414 21.9919ZM25.4408 15.8434L27.6366 21.1571L29.6566 15.8434H31.545L26.9339 27.1735H25.0895L26.7143 23.2655L23.5525 15.8434H25.4408Z" fill="black"/>
</svg>
