<?xml version="1.0" encoding="UTF-8"?>
<svg id="_Слой_2" data-name="Слой 2" xmlns="http://www.w3.org/2000/svg" viewBox="0 0 124.02 20.67">
  <defs>
    <style>
      .cls-1 {
        fill: #e12626;
      }
    </style>
  </defs>
  <g id="_Слой_1-2" data-name="Слой 1">
    <path class="cls-1" d="m14.86,2.74c-.85-.88-1.77-1.54-2.77-1.98-1.01-.45-2.1-.67-3.2-.67C6.42.09,4.32,1.06,2.59,2.99.87,4.92,0,7.39,0,10.41c0,2.91.89,5.35,2.67,7.31,1.78,1.96,3.9,2.94,6.34,2.94,1.04.01,2.07-.19,3.04-.6.94-.4,1.87-1.06,2.8-1.97v2.07h4.78V.6h-4.77v2.14Zm-1.27,11.82c-.98,1.08-2.22,1.61-3.71,1.61-1.45,0-2.66-.55-3.65-1.64-.99-1.09-1.48-2.49-1.48-4.18s.49-3.06,1.46-4.14c.97-1.08,2.19-1.61,3.66-1.61s2.75.53,3.73,1.58c.98,1.06,1.3,2.26,1.3,3.97,0,1.74-.32,3.33-1.3,4.41ZM47.02,2.74c-.79-.84-1.73-1.51-2.76-1.98-1.01-.45-2.1-.67-3.21-.67-2.46,0-4.57.97-6.29,2.9-1.73,1.93-2.59,4.41-2.59,7.43,0,2.91.89,5.35,2.67,7.31,1.78,1.96,3.9,2.94,6.35,2.94,1.04.01,2.07-.19,3.03-.6.93-.4,1.87-1.06,2.79-1.97v2.07h4.78V.6h-4.77v2.14Zm-1.27,11.82c-.98,1.08-2.22,1.61-3.71,1.61-1.45,0-2.67-.55-3.65-1.64-.99-1.09-1.48-2.49-1.48-4.18,0-1.69.48-3.06,1.46-4.14.97-1.08,2.19-1.61,3.66-1.61s2.75.53,3.73,1.58c.98,1.06,1.3,2.26,1.29,3.97,0,1.74-.31,3.33-1.3,4.41ZM80.54,1.08c-1.03-.65-2.21-.97-3.57-.97-1.26-.01-2.5.3-3.61.91-1.1.6-2.03,1.48-2.79,2.65-.58-1.16-1.35-2.05-2.3-2.65-.97-.61-2.08-.92-3.22-.91-1.18,0-2.26.23-3.26.69-1,.46-1.9,1.15-2.72,2.08V.6h-4.78v19.57s4.77,0,4.77,0v-8.68c0-1.88.17-3.25.49-4.13.32-.87.81-1.55,1.46-2.04.65-.48,1.37-.73,2.17-.73.71,0,1.32.19,1.82.58.5.38.88.97,1.13,1.75.25.78.38,2.05.38,3.8v9.45s4.77,0,4.77,0v-8.8c0-1.87.16-3.22.48-4.06.32-.85.8-1.5,1.45-1.98.64-.48,1.41-.73,2.21-.72,1.08,0,1.88.39,2.42,1.17.54.79.81,2.29.81,4.49v9.89s4.77,0,4.77,0v-11.46c0-2.35-.22-4.05-.67-5.09-.45-1.05-1.18-1.89-2.21-2.54Zm19.56,13.32c-1.28,1.3-2.81,1.95-4.59,1.95-1.49,0-2.71-.42-3.67-1.25-.96-.83-1.55-1.95-1.77-3.36h15.33s.02-.92.02-.92c0-3.23-.93-5.82-2.81-7.79-1.87-1.96-4.31-2.94-7.3-2.95-2.82,0-5.17.98-7.03,2.96-1.87,1.97-2.81,4.45-2.81,7.43,0,2.92.93,5.34,2.8,7.28,1.87,1.94,4.3,2.91,7.27,2.91,1.92,0,3.58-.35,4.98-1.05,1.39-.7,2.59-1.79,3.59-3.25l-4.01-1.95Zm-8.06-8.99c1-.76,2.17-1.13,3.5-1.13,1.23,0,2.31.34,3.23,1.01.93.68,1.55,1.55,1.87,2.63h-10.34c.53-1.2,1.12-2.03,1.75-2.5m24.69,4.41l6.46-9.22h-5.45l-3.74,5.33-3.75-5.33h-5.53l6.52,9.27-7.21,10.3h5.45l4.49-6.41,4.52,6.41h5.54l-7.29-10.36ZM31.13,0c-.88,0-1.66.17-2.3.5-.64.33-1.37.92-2.19,1.8V.6h-4.56v19.57h4.78v-10.18c0-3.73,1-5.6,3.44-5.6.42,0,.85.09,1.29.26.78-1.34,1.69-2.61,2.7-3.77-1.09-.57-2.14-.88-3.16-.88Z"/>
  </g>
</svg>