<svg width="28" height="28" viewBox="0 0 28 28" fill="none" xmlns="http://www.w3.org/2000/svg">
<path fill-rule="evenodd" clip-rule="evenodd" d="M17.2278 2.92186L16.5484 3.31413H12.1224C11.8807 3.31413 11.6849 3.51002 11.6849 3.75163C11.6849 3.99324 11.8807 4.18913 12.1224 4.18913H15.0328L14.198 4.67109L24.0207 10.3422V14.5445C24.0207 14.7125 23.9374 14.8566 23.792 14.9406L21.515 16.2552C21.4424 16.2972 21.3591 16.2972 21.2864 16.2552C21.2137 16.2132 21.172 16.1411 21.172 16.0571V11.9869L11.3495 6.31565L8.56849 7.92128C8.51916 7.90197 8.46552 7.89142 8.40935 7.89142H0.929742C0.688133 7.89142 0.492242 8.08731 0.492242 8.32892C0.492242 8.57053 0.688133 8.76642 0.929742 8.76642H7.86658C7.86384 8.79617 7.86242 8.82641 7.86242 8.85704V13.5626H3.53385C3.29224 13.5626 3.09635 13.7585 3.09635 14.0001C3.09635 14.2417 3.29224 14.4376 3.53385 14.4376H7.86242V18.6868H0.929688C0.688078 18.6868 0.492188 18.8827 0.492188 19.1243C0.492188 19.3659 0.688078 19.5618 0.929688 19.5618H7.96009C8.0378 19.7145 8.16003 19.843 8.31977 19.9353L17.2278 25.0783C17.5186 25.2463 17.8516 25.2463 18.1425 25.0783L27.0505 19.9353C27.3413 19.7674 27.5078 19.479 27.5078 19.1432V8.85704C27.5078 8.5212 27.3413 8.23283 27.0505 8.06489L18.1424 2.92186C17.8516 2.75391 17.5186 2.75391 17.2278 2.92186ZM8.83537 3.31408C9.07698 3.31408 9.27287 3.50997 9.27287 3.75158C9.27287 3.99319 9.07698 4.18908 8.83537 4.18908H2.98703C2.74542 4.18908 2.54953 3.99319 2.54953 3.75158C2.54953 3.50997 2.74542 3.31408 2.98703 3.31408H8.83537Z" fill="#B72E2E"/>
</svg>
