<svg width="28" height="28" viewBox="0 0 28 28" fill="none" xmlns="http://www.w3.org/2000/svg">
<path fill-rule="evenodd" clip-rule="evenodd" d="M17.1246 1.07788L22.7829 3.50284C22.9679 3.58208 23.0812 3.75402 23.0812 3.95521V8.60392C23.0812 12.2543 20.4676 15.0721 16.9308 15.6886C13.394 15.072 10.7804 12.2543 10.7804 8.60392V3.95521C10.7804 3.75402 10.8937 3.58208 11.0787 3.50284L16.737 1.07788C16.8653 1.02287 16.9962 1.02287 17.1246 1.07788ZM2.50069 18.8195C2.22993 18.8591 2.04257 19.1106 2.08211 19.3814C2.12171 19.6522 2.37327 19.8395 2.64403 19.7999C2.91479 19.7603 3.10214 19.5088 3.06255 19.238C3.02301 18.9673 2.77145 18.78 2.50069 18.8195ZM3.51771 17.8831L7.59735 25.0914C7.79461 25.44 7.67079 25.8865 7.32227 26.0838L5.93463 26.8692C5.58611 27.0664 5.13953 26.9427 4.94227 26.5941L0.862637 19.3857C0.665379 19.0371 0.789192 18.5906 1.13772 18.3934L2.52536 17.6081C2.87388 17.4107 3.32046 17.5345 3.51771 17.8831ZM12.0705 19.8459C11.8373 19.7836 11.6989 19.5442 11.7611 19.311C11.8234 19.0779 12.0629 18.9394 12.296 19.0017C13.4195 19.3027 14.5272 19.6568 15.6687 19.8875C16.2529 19.9589 16.7408 19.7803 16.9036 19.1728C17.052 18.6187 16.7029 18.0958 16.1791 17.915C14.27 17.5658 12.6387 16.8569 10.8299 16.2704C9.83357 15.9472 8.88442 16.379 8.03064 16.8736L4.959 18.6532L7.54632 23.2247L7.76343 23.0994C7.86493 23.0299 7.99503 23.0034 8.12317 23.0377L14.943 24.8651C15.8054 25.0962 16.631 24.9919 17.394 24.5222L26.7956 18.7331C27.2828 18.4331 27.3476 17.6177 27.0587 17.1523C26.427 16.1344 24.6933 16.9692 23.9634 17.3943L18.7823 20.412C17.6927 21.0465 16.7578 20.9921 15.5584 20.7551L12.0705 19.8459ZM14.5211 8.75371L15.8611 10.0937C16.0947 10.3273 16.4737 10.3273 16.7074 10.0937C17.8555 8.94555 18.1994 8.5862 19.3421 7.43208C19.5746 7.1984 19.5735 6.82051 19.3398 6.58809C19.1061 6.35566 18.7282 6.3567 18.4958 6.59044L16.2833 8.82322L15.3673 7.90737C15.1337 7.67369 14.7547 7.67369 14.521 7.90737C14.2873 8.14105 14.2873 8.51998 14.5211 8.75371ZM16.9308 4.00798C14.5374 4.00798 12.5971 5.9483 12.5971 8.3417C12.5971 10.735 14.5374 12.6754 16.9308 12.6754C19.3241 12.6754 21.2645 10.7351 21.2645 8.3417C21.2645 5.94835 19.3242 4.00798 16.9308 4.00798Z" fill="#B72E2E"/>
</svg>
