<svg width="28" height="28" viewBox="0 0 28 28" fill="none" xmlns="http://www.w3.org/2000/svg">
<g clip-path="url(#clip0_1367_183)">
<path fill-rule="evenodd" clip-rule="evenodd" d="M7.37823 0.770996C11.2114 0.770996 14.3189 3.87845 14.3189 7.71166C14.3189 11.5449 11.2114 14.6523 7.37823 14.6523C3.54501 14.6523 0.437561 11.5449 0.437561 7.71166C0.437561 3.87845 3.54501 0.770996 7.37823 0.770996ZM20.8017 20.2317C23.9444 20.2317 26.6032 22.3038 27.4865 25.1562C27.6417 25.6574 27.5574 26.156 27.2461 26.5782C26.9348 27.0005 26.4835 27.2285 25.9588 27.2285H15.6445C15.1199 27.2285 14.6686 27.0005 14.3572 26.5782C14.0459 26.156 13.9616 25.6573 14.1168 25.1562C15.0001 22.3038 17.659 20.2317 20.8017 20.2317ZM20.8017 12.2116C22.7555 12.2116 24.3393 13.7955 24.3393 15.7492C24.3393 17.703 22.7555 19.2869 20.8017 19.2869C18.8479 19.2869 17.2641 17.703 17.2641 15.7492C17.2641 13.7955 18.848 12.2116 20.8017 12.2116ZM20.1987 7.98165V9.04981C20.1987 9.10471 20.1697 9.15175 20.1208 9.17657C20.0718 9.2014 20.0168 9.19686 19.9725 9.16438L16.7919 6.83086C16.7555 6.80418 16.7354 6.76595 16.7339 6.72083C16.7325 6.67571 16.7501 6.63629 16.7847 6.6073L19.9654 3.94522C20.0087 3.90896 20.0656 3.90153 20.1167 3.92543C20.1679 3.94932 20.1987 3.99767 20.1987 4.05416V5.04646C25.1576 5.04646 26.7841 8.69215 25.3433 11.2848C24.5463 8.18154 21.9441 7.98165 20.1987 7.98165ZM8.88322 21.81V20.7612C8.88322 20.7023 8.91423 20.6519 8.96673 20.6253C9.01929 20.5987 9.07829 20.6035 9.12576 20.6384L12.2819 22.9538C12.3209 22.9824 12.3425 23.0235 12.3441 23.0718C12.3456 23.1202 12.3267 23.1625 12.2895 23.1936L9.13342 25.8351C9.08699 25.874 9.02601 25.882 8.97111 25.8563C8.9162 25.8307 8.88322 25.7788 8.88322 25.7182V24.7471C3.92088 24.7471 2.29333 21.0989 3.735 18.5045C4.53256 21.61 7.13656 21.81 8.88322 21.81ZM7.37828 1.97423C5.79398 1.97423 4.35964 2.61643 3.32134 3.65472C2.28305 4.69302 1.64085 6.12736 1.64085 7.71166C1.64085 9.29596 2.28305 10.7303 3.32134 11.7686C4.35964 12.8069 5.79398 13.4491 7.37828 13.4491C8.96258 13.4491 10.3969 12.8069 11.4352 11.7686C12.4735 10.7303 13.1157 9.29596 13.1157 7.71166C13.1157 6.12736 12.4735 4.69302 11.4352 3.65472C10.3969 2.61643 8.96252 1.97423 7.37828 1.97423ZM10.8165 4.27335C9.93667 3.39343 8.72102 2.84923 7.37828 2.84923C6.03554 2.84923 4.81989 3.39348 3.93997 4.27335C3.0601 5.15327 2.51585 6.36886 2.51585 7.71166C2.51585 9.0544 3.0601 10.2701 3.93997 11.15C4.81989 12.0298 6.03548 12.5741 7.37828 12.5741C8.72102 12.5741 9.93667 12.0298 10.8165 11.15C11.6965 10.2701 12.2407 9.05446 12.2407 7.71166C12.2407 6.36886 11.6964 5.15327 10.8165 4.27335ZM9.3484 5.92989C9.06916 5.26483 8.53749 4.88054 7.9531 4.73245C7.90995 4.72151 7.86647 4.71194 7.82278 4.70363V4.35789C7.82278 4.11257 7.62388 3.91372 7.37855 3.91372C7.13322 3.91372 6.93438 4.11262 6.93438 4.35789V4.71025L6.93411 4.7103C6.5968 4.77822 6.28005 4.92052 6.02493 5.128C5.63309 5.44656 5.38465 5.90911 5.41265 6.48584C5.44076 7.06531 5.72989 7.45397 6.1325 7.7168C6.48354 7.94594 6.91469 8.0645 7.31227 8.1298C7.63181 8.18225 7.97295 8.26521 8.23212 8.42167C8.4396 8.5469 8.59546 8.73 8.62871 9.00431C8.63314 9.04084 8.63554 9.06736 8.63593 9.08437C8.64112 9.30257 8.53672 9.46888 8.37999 9.58782C8.18388 9.73663 7.90858 9.82435 7.63323 9.85776C7.55831 9.86684 7.4929 9.87198 7.4374 9.87329C7.1114 9.88111 6.78973 9.80127 6.53844 9.63393C6.33211 9.4965 6.17444 9.29552 6.1086 9.03143C6.05014 8.79376 5.81012 8.64851 5.57244 8.70697C5.33477 8.76543 5.18952 9.00546 5.24798 9.24313C5.37218 9.74122 5.6658 10.1178 6.04915 10.3731C6.31122 10.5477 6.61561 10.663 6.93438 10.7191V11.0654C6.93438 11.3108 7.13328 11.5096 7.37855 11.5096C7.62388 11.5096 7.82278 11.3107 7.82278 11.0654V10.7276C8.21002 10.6687 8.60465 10.5274 8.91445 10.2924C9.28638 10.0102 9.53384 9.60598 9.52094 9.06364C9.51946 9.00163 9.5159 8.94694 9.51027 8.90029C9.43814 8.306 9.11658 7.91915 8.69029 7.66173C8.31573 7.4356 7.86648 7.32294 7.45462 7.25535C7.1574 7.20651 6.84431 7.12393 6.61495 6.9742C6.43711 6.8581 6.30958 6.69004 6.29765 6.44422C6.28475 6.17833 6.4008 5.96385 6.58372 5.81515C6.72695 5.69872 6.90966 5.61779 7.10769 5.57792C7.31101 5.53696 7.52938 5.54018 7.73801 5.59307C8.0692 5.67701 8.37075 5.89532 8.52951 6.27343C8.62439 6.49957 8.88465 6.60604 9.11078 6.51116C9.3368 6.41628 9.44328 6.15602 9.3484 5.92989Z" fill="#B72E2E"/>
</g>
<defs>
<clipPath id="clip0_1367_183">
<rect width="28" height="28" fill="white"/>
</clipPath>
</defs>
</svg>
