<svg width="94" height="14" viewBox="0 0 94 14" fill="none" xmlns="http://www.w3.org/2000/svg">
<g clip-path="url(#clip0_1206_5194)">
<path d="M7 11.3578L10.3949 13.3528C11.0166 13.7184 11.7774 13.178 11.6138 12.4944L10.7139 8.74284L13.7162 6.2153C14.2643 5.7543 13.9698 4.87999 13.2499 4.82435L9.29871 4.49848L7.7526 0.953559C7.47447 0.309751 6.52553 0.309751 6.2474 0.953559L4.70129 4.49053L0.750115 4.81641C0.0302327 4.87204 -0.264264 5.74635 0.283828 6.20735L3.28606 8.73489L2.38621 12.4865C2.2226 13.17 2.98339 13.7105 3.6051 13.3449L7 11.3578Z" fill="#B72E2E"/>
</g>
<g clip-path="url(#clip1_1206_5194)">
<path d="M27 11.3578L30.3949 13.3528C31.0166 13.7184 31.7774 13.178 31.6138 12.4944L30.7139 8.74284L33.7162 6.2153C34.2643 5.7543 33.9698 4.87999 33.2499 4.82435L29.2987 4.49848L27.7526 0.953559C27.4745 0.309751 26.5255 0.309751 26.2474 0.953559L24.7013 4.49053L20.7501 4.81641C20.0302 4.87204 19.7357 5.74635 20.2838 6.20735L23.2861 8.73489L22.3862 12.4865C22.2226 13.17 22.9834 13.7105 23.6051 13.3449L27 11.3578Z" fill="#B72E2E"/>
</g>
<g clip-path="url(#clip2_1206_5194)">
<path d="M47 11.3578L50.3949 13.3528C51.0166 13.7184 51.7774 13.178 51.6138 12.4944L50.7139 8.74284L53.7162 6.2153C54.2643 5.7543 53.9698 4.87999 53.2499 4.82435L49.2987 4.49848L47.7526 0.953559C47.4745 0.309751 46.5255 0.309751 46.2474 0.953559L44.7013 4.49053L40.7501 4.81641C40.0302 4.87204 39.7357 5.74635 40.2838 6.20735L43.2861 8.73489L42.3862 12.4865C42.2226 13.17 42.9834 13.7105 43.6051 13.3449L47 11.3578Z" fill="#B72E2E"/>
</g>
<g clip-path="url(#clip3_1206_5194)">
<path d="M67.0005 10.7782L67.2533 10.9267L70.6482 12.9217L70.6484 12.9218C70.7752 12.9964 70.909 12.9803 71.0103 12.9087C71.1107 12.8377 71.1562 12.731 71.1276 12.611L67.0005 10.7782ZM67.0005 10.7782L66.7474 10.9263L63.3525 12.9134L63.3516 12.9139C63.2248 12.9885 63.091 12.9723 62.9897 12.9008C62.8892 12.8298 62.8438 12.723 62.8724 12.6031C62.8724 12.6031 62.8724 12.6031 62.8724 12.603C62.8724 12.603 62.8725 12.6029 62.8725 12.6029L63.7723 8.85151L63.8443 8.55125L63.6081 8.35239L60.6058 5.82485L60.6057 5.8247C60.4175 5.66644 60.4923 5.33782 60.7886 5.31492L60.7886 5.31493L60.7912 5.31472L64.7424 4.98884L65.0399 4.9643L65.1594 4.6908L66.7055 1.15383L66.7055 1.15383L66.7064 1.15185C66.7554 1.03831 66.8637 0.970703 67 0.970703C67.1363 0.970703 67.2446 1.03831 67.2936 1.15185L67.2943 1.15345L68.8404 4.69837L68.9598 4.97223L69.2576 4.99679L73.2088 5.32266L73.2114 5.32286C73.5078 5.34577 73.5825 5.6744 73.3944 5.83265L73.3942 5.8328L70.3919 8.36034L70.1557 8.5592L70.2277 8.85947L71.1275 12.6108L67.0005 10.7782Z" stroke="#B72E2E"/>
</g>
<g clip-path="url(#clip4_1206_5194)">
<path d="M87.0005 10.7782L87.2533 10.9267L90.6482 12.9217L90.6484 12.9218C90.7752 12.9964 90.909 12.9803 91.0103 12.9087C91.1107 12.8377 91.1562 12.731 91.1276 12.611L87.0005 10.7782ZM87.0005 10.7782L86.7474 10.9263L83.3525 12.9134L83.3516 12.9139C83.2248 12.9885 83.091 12.9723 82.9897 12.9008C82.8892 12.8298 82.8438 12.723 82.8724 12.6031C82.8724 12.6031 82.8724 12.6031 82.8724 12.603C82.8724 12.603 82.8725 12.6029 82.8725 12.6029L83.7723 8.85151L83.8443 8.55125L83.6081 8.35239L80.6058 5.82485L80.6057 5.8247C80.4175 5.66644 80.4923 5.33782 80.7886 5.31492L80.7886 5.31493L80.7912 5.31472L84.7424 4.98884L85.0399 4.9643L85.1594 4.6908L86.7055 1.15383L86.7055 1.15383L86.7064 1.15185C86.7554 1.03831 86.8637 0.970703 87 0.970703C87.1363 0.970703 87.2446 1.03831 87.2936 1.15185L87.2943 1.15345L88.8404 4.69837L88.9598 4.97223L89.2576 4.99679L93.2088 5.32266L93.2114 5.32286C93.5078 5.34577 93.5825 5.6744 93.3944 5.83265L93.3942 5.8328L90.3919 8.36034L90.1557 8.5592L90.2277 8.85947L91.1275 12.6108L87.0005 10.7782Z" stroke="#B72E2E"/>
</g>
<defs>
<clipPath id="clip0_1206_5194">
<rect width="14" height="14" fill="white"/>
</clipPath>
<clipPath id="clip1_1206_5194">
<rect width="14" height="14" fill="white" transform="translate(20)"/>
</clipPath>
<clipPath id="clip2_1206_5194">
<rect width="14" height="14" fill="white" transform="translate(40)"/>
</clipPath>
<clipPath id="clip3_1206_5194">
<rect width="14" height="14" fill="white" transform="translate(60)"/>
</clipPath>
<clipPath id="clip4_1206_5194">
<rect width="14" height="14" fill="white" transform="translate(80)"/>
</clipPath>
</defs>
</svg>
