<svg width="94" height="15" viewBox="0 0 94 15" fill="none" xmlns="http://www.w3.org/2000/svg">
<g clip-path="url(#clip0_1367_219)">
<path d="M7 11.8578L10.3949 13.8528C11.0166 14.2184 11.7774 13.678 11.6138 12.9944L10.7139 9.24284L13.7162 6.7153C14.2643 6.2543 13.9698 5.37999 13.2499 5.32435L9.29871 4.99848L7.7526 1.45356C7.47447 0.809751 6.52553 0.809751 6.2474 1.45356L4.70129 4.99053L0.750115 5.31641C0.0302327 5.37204 -0.264264 6.24635 0.283828 6.70735L3.28606 9.23489L2.38621 12.9865C2.2226 13.67 2.98339 14.2105 3.6051 13.8449L7 11.8578Z" fill="#B72E2E"/>
</g>
<g clip-path="url(#clip1_1367_219)">
<path d="M27 11.8578L30.3949 13.8528C31.0166 14.2184 31.7774 13.678 31.6138 12.9944L30.7139 9.24284L33.7162 6.7153C34.2643 6.2543 33.9698 5.37999 33.2499 5.32435L29.2987 4.99848L27.7526 1.45356C27.4745 0.809751 26.5255 0.809751 26.2474 1.45356L24.7013 4.99053L20.7501 5.31641C20.0302 5.37204 19.7357 6.24635 20.2838 6.70735L23.2861 9.23489L22.3862 12.9865C22.2226 13.67 22.9834 14.2105 23.6051 13.8449L27 11.8578Z" fill="#B72E2E"/>
</g>
<g clip-path="url(#clip2_1367_219)">
<path d="M47 11.8578L50.3949 13.8528C51.0166 14.2184 51.7774 13.678 51.6138 12.9944L50.7139 9.24284L53.7162 6.7153C54.2643 6.2543 53.9698 5.37999 53.2499 5.32435L49.2987 4.99848L47.7526 1.45356C47.4745 0.809751 46.5255 0.809751 46.2474 1.45356L44.7013 4.99053L40.7501 5.31641C40.0302 5.37204 39.7357 6.24635 40.2838 6.70735L43.2861 9.23489L42.3862 12.9865C42.2226 13.67 42.9834 14.2105 43.6051 13.8449L47 11.8578Z" fill="#B72E2E"/>
</g>
<g clip-path="url(#clip3_1367_219)">
<path d="M67 11.8578L70.3949 13.8528C71.0166 14.2184 71.7774 13.678 71.6138 12.9944L70.7139 9.24284L73.7162 6.7153C74.2643 6.2543 73.9698 5.37999 73.2499 5.32435L69.2987 4.99848L67.7526 1.45356C67.4745 0.809751 66.5255 0.809751 66.2474 1.45356L64.7013 4.99053L60.7501 5.31641C60.0302 5.37204 59.7357 6.24635 60.2838 6.70735L63.2861 9.23489L62.3862 12.9865C62.2226 13.67 62.9834 14.2105 63.6051 13.8449L67 11.8578Z" fill="#B72E2E"/>
</g>
<g clip-path="url(#clip4_1367_219)">
<path d="M87.0005 11.2782L87.2533 11.4267L90.6482 13.4217L90.6484 13.4218C90.7752 13.4964 90.909 13.4803 91.0103 13.4087C91.1107 13.3377 91.1562 13.231 91.1276 13.111L87.0005 11.2782ZM87.0005 11.2782L86.7474 11.4263L83.3525 13.4134L83.3516 13.4139C83.2248 13.4885 83.091 13.4723 82.9897 13.4008C82.8892 13.3298 82.8438 13.223 82.8724 13.1031C82.8724 13.1031 82.8724 13.1031 82.8724 13.103C82.8724 13.103 82.8725 13.1029 82.8725 13.1029L83.7723 9.35151L83.8443 9.05125L83.6081 8.85239L80.6058 6.32485L80.6057 6.3247C80.4175 6.16644 80.4923 5.83782 80.7886 5.81492L80.7886 5.81493L80.7912 5.81472L84.7424 5.48884L85.0399 5.4643L85.1594 5.1908L86.7055 1.65383L86.7055 1.65383L86.7064 1.65185C86.7554 1.53831 86.8637 1.4707 87 1.4707C87.1363 1.4707 87.2446 1.53831 87.2936 1.65185L87.2943 1.65345L88.8404 5.19837L88.9598 5.47223L89.2576 5.49679L93.2088 5.82266L93.2114 5.82286C93.5078 5.84577 93.5825 6.1744 93.3944 6.33265L93.3942 6.3328L90.3919 8.86034L90.1557 9.0592L90.2277 9.35947L91.1275 13.1108L87.0005 11.2782Z" stroke="#B72E2E"/>
</g>
<defs>
<clipPath id="clip0_1367_219">
<rect width="14" height="14" fill="white" transform="translate(0 0.5)"/>
</clipPath>
<clipPath id="clip1_1367_219">
<rect width="14" height="14" fill="white" transform="translate(20 0.5)"/>
</clipPath>
<clipPath id="clip2_1367_219">
<rect width="14" height="14" fill="white" transform="translate(40 0.5)"/>
</clipPath>
<clipPath id="clip3_1367_219">
<rect width="14" height="14" fill="white" transform="translate(60 0.5)"/>
</clipPath>
<clipPath id="clip4_1367_219">
<rect width="14" height="14" fill="white" transform="translate(80 0.5)"/>
</clipPath>
</defs>
</svg>
