<svg width="77" height="12" viewBox="0 0 77 12" fill="none" xmlns="http://www.w3.org/2000/svg">
<g clip-path="url(#clip0_1204_14991)">
<path d="M6.5 9.73512L9.40991 11.4451C9.9428 11.7585 10.5949 11.2953 10.4547 10.7093L9.68334 7.49372L12.2567 5.32726C12.7265 4.93212 12.4741 4.18271 11.8571 4.13502L8.47032 3.8557L7.14509 0.817197C6.90669 0.265361 6.09331 0.265361 5.85491 0.817197L4.52968 3.84889L1.14296 4.12821C0.525914 4.17589 0.273488 4.9253 0.743281 5.32045L3.31662 7.48691L2.54532 10.7026C2.40509 11.2884 3.05719 11.7517 3.59009 11.4383L6.5 9.73512Z" fill="#B72E2E"/>
</g>
<g clip-path="url(#clip1_1204_14991)">
<path d="M22.5 9.73512L25.4099 11.4451C25.9428 11.7585 26.5949 11.2953 26.4547 10.7093L25.6833 7.49372L28.2567 5.32726C28.7265 4.93212 28.4741 4.18271 27.8571 4.13502L24.4703 3.8557L23.1451 0.817197C22.9067 0.265361 22.0933 0.265361 21.8549 0.817197L20.5297 3.84889L17.143 4.12821C16.5259 4.17589 16.2735 4.9253 16.7433 5.32045L19.3166 7.48691L18.5453 10.7026C18.4051 11.2884 19.0572 11.7517 19.5901 11.4383L22.5 9.73512Z" fill="#B72E2E"/>
</g>
<g clip-path="url(#clip2_1204_14991)">
<path d="M38.5 9.73512L41.4099 11.4451C41.9428 11.7585 42.5949 11.2953 42.4547 10.7093L41.6833 7.49372L44.2567 5.32726C44.7265 4.93212 44.4741 4.18271 43.8571 4.13502L40.4703 3.8557L39.1451 0.817197C38.9067 0.265361 38.0933 0.265361 37.8549 0.817197L36.5297 3.84889L33.143 4.12821C32.5259 4.17589 32.2735 4.9253 32.7433 5.32045L35.3166 7.48691L34.5453 10.7026C34.4051 11.2884 35.0572 11.7517 35.5901 11.4383L38.5 9.73512Z" fill="#B72E2E"/>
</g>
<g clip-path="url(#clip3_1204_14991)">
<path d="M54.5 9.73512L57.4099 11.4451C57.9428 11.7585 58.5949 11.2953 58.4547 10.7093L57.6833 7.49372L60.2567 5.32726C60.7265 4.93212 60.4741 4.18271 59.8571 4.13502L56.4703 3.8557L55.1451 0.817197C54.9067 0.265361 54.0933 0.265361 53.8549 0.817197L52.5297 3.84889L49.143 4.12821C48.5259 4.17589 48.2735 4.9253 48.7433 5.32045L51.3166 7.48691L50.5453 10.7026C50.4051 11.2884 51.0572 11.7517 51.5901 11.4383L54.5 9.73512Z" fill="#B72E2E"/>
</g>
<g clip-path="url(#clip4_1204_14991)">
<path d="M70.5 9.73512L73.4099 11.4451C73.9428 11.7585 74.5949 11.2953 74.4547 10.7093L73.6833 7.49372L76.2567 5.32726C76.7265 4.93212 76.4741 4.18271 75.8571 4.13502L72.4703 3.8557L71.1451 0.817197C70.9067 0.265361 70.0933 0.265361 69.8549 0.817197L68.5297 3.84889L65.143 4.12821C64.5259 4.17589 64.2735 4.9253 64.7433 5.32045L67.3166 7.48691L66.5453 10.7026C66.4051 11.2884 67.0572 11.7517 67.5901 11.4383L70.5 9.73512Z" fill="#B72E2E"/>
</g>
<defs>
<clipPath id="clip0_1204_14991">
<rect width="12" height="12" fill="white" transform="translate(0.5)"/>
</clipPath>
<clipPath id="clip1_1204_14991">
<rect width="12" height="12" fill="white" transform="translate(16.5)"/>
</clipPath>
<clipPath id="clip2_1204_14991">
<rect width="12" height="12" fill="white" transform="translate(32.5)"/>
</clipPath>
<clipPath id="clip3_1204_14991">
<rect width="12" height="12" fill="white" transform="translate(48.5)"/>
</clipPath>
<clipPath id="clip4_1204_14991">
<rect width="12" height="12" fill="white" transform="translate(64.5)"/>
</clipPath>
</defs>
</svg>
