<svg width="62" height="21" viewBox="0 0 62 21" fill="none" xmlns="http://www.w3.org/2000/svg">
<path d="M40.0035 0.932129C35.6497 0.932129 31.7407 3.19897 31.7407 7.35874C31.7407 12.1495 38.6459 12.4767 38.6459 14.8604C38.6459 15.8652 37.4755 16.7767 35.5093 16.7767C32.7004 16.7767 30.5937 15.5147 30.5937 15.5147L29.7042 19.7212C29.7042 19.7212 32.1152 20.7962 35.3454 20.7962C40.1206 20.7962 43.8658 18.4359 43.8658 14.1826C43.8658 9.13482 36.9371 8.80765 36.9371 6.58755C36.9371 5.79299 37.8969 4.92831 39.8631 4.92831C42.0868 4.92831 43.9126 5.83972 43.9126 5.83972L44.8021 1.77343C44.7787 1.77343 42.789 0.932129 40.0035 0.932129ZM0.117038 1.23593L0 1.84354C0 1.84354 1.82579 2.17071 3.48773 2.84843C5.61782 3.61962 5.75826 4.06364 6.13278 5.44244L10.0418 20.469H15.2851L23.3139 1.23593H18.0941L12.921 14.3229L10.8143 3.22234C10.627 1.96039 9.64392 1.23593 8.42673 1.23593H0.117038ZM25.4206 1.23593L21.3243 20.469H26.3101L30.383 1.23593H25.4206ZM53.182 1.23593C51.9882 1.23593 51.3562 1.86691 50.8881 2.98865L43.5849 20.469H48.8048L49.8113 17.5478H56.1782L56.7868 20.469H61.3981L57.3954 1.23593H53.182ZM53.8608 6.44733L55.4057 13.6685H51.2626L53.8608 6.44733Z" fill="#1434CB"/>
</svg>
