<svg width="12" height="24" viewBox="0 0 12 24" fill="none" xmlns="http://www.w3.org/2000/svg">
<g clip-path="url(#clip0_795_7805)">
<path d="M3.85211 0.237961C3.7873 0.385551 3.72248 0.801487 3.72248 1.17717V1.86145H2.50401C1.38923 1.86145 1.23368 1.88829 0.909616 2.18347L0.546665 2.50548L0.507778 12.6892C0.481852 20.1492 0.52074 22.9535 0.62444 23.2352C0.935541 24 0.896653 24 6.09463 24H10.8648L11.1759 23.6512L11.5 23.2889V12.9039V2.5189L11.163 2.19689C10.8648 1.9017 10.6834 1.86145 9.56858 1.83462L8.32418 1.79437L8.25937 0.922243L8.19456 0.0501175L6.09463 0.00986671C4.12432 -0.0169678 3.98173 -0.00355148 3.85211 0.237961ZM7.80568 1.1235V1.79437L6.02981 1.83462L4.24099 1.87487V1.21742C4.24099 0.855156 4.27987 0.519724 4.33172 0.466055C4.38357 0.425802 5.18725 0.398968 6.10759 0.412386L7.80568 0.452637V1.1235ZM10.9296 2.58599C11.0852 2.81408 11.1111 4.43758 11.1111 12.9441C11.1111 24.0805 11.163 23.3694 10.2945 23.5304C10.0612 23.5706 7.97419 23.5975 5.6539 23.5706C2.30957 23.5438 1.38923 23.4901 1.22072 23.3426C1.01332 23.1815 1.00035 22.2826 1.00035 12.9844C1.00035 2.92142 1.00035 2.80066 1.2596 2.53232C1.51885 2.26397 1.64848 2.25056 6.13351 2.29081C10.5278 2.33106 10.7482 2.34448 10.9296 2.58599Z" fill="#282828"/>
<path d="M2.5 13V22L6 21.9735L9.5 21.9338V13V4.06618L6 4.02647L2.5 4V13Z" fill="#282828"/>
</g>
<defs>
<clipPath id="clip0_795_7805">
<rect width="11" height="24" fill="white" transform="translate(0.5)"/>
</clipPath>
</defs>
</svg>
