<svg width="32" height="32" viewBox="0 0 32 32" fill="none" xmlns="http://www.w3.org/2000/svg">
<g clip-path="url(#clip0_781_6686)">
<path d="M12.5333 0.284441C11.8578 0.444441 11.2711 0.586664 11.2533 0.604441C11.2 0.657774 11.1111 9.95555 11.1644 9.95555C11.1822 9.95555 11.52 9.72444 11.9289 9.44C13.8666 8.01777 16.96 7.76888 19.2355 8.83555C22.1689 10.2044 23.8222 12.8 23.8222 15.9822C23.8222 18.3822 23.1111 20.1067 21.4933 21.6889C19.8755 23.2711 18.1333 23.8933 15.68 23.7867C14.2044 23.7333 13.7778 23.6444 12.7466 23.1644C11.2533 22.4533 9.81331 21.12 9.08442 19.7333C8.08887 17.8844 7.99998 17.0311 7.99998 9.19111C7.99998 5.31555 7.94664 2.13333 7.89331 2.13333C7.53775 2.13333 5.38664 3.91111 4.24886 5.12C2.18664 7.32444 0.817753 9.93777 0.248864 12.7822C-0.142247 14.8089 -0.0178029 18.5422 0.515531 20.4089C1.86664 25.0489 5.5822 29.1555 10.0444 30.9511C12.2844 31.84 13.6 32.0355 16.6222 31.9644C19.0578 31.8933 19.4489 31.8222 20.9778 31.3067C25.9733 29.6 29.6 25.9733 31.3066 20.9778C31.8222 19.4667 31.8933 19.0222 31.9644 16.7111C32.0178 14.7556 31.9644 13.7778 31.7511 12.7467C30.5778 7.04 26.0622 2.16889 20.4089 0.515553C18.6489 -1.90735e-06 14.3644 -0.124447 12.5333 0.284441Z" fill="white"/>
<path d="M14.0444 11.5733C10.8444 13.0133 10.1866 17.2622 12.7999 19.6089C13.8133 20.5333 14.6133 20.8533 15.9999 20.8533C17.9733 20.8711 19.6977 19.7689 20.4977 17.9733C21.0133 16.8178 20.9955 15.1289 20.4622 13.9911C19.9466 12.96 18.5777 11.6978 17.6355 11.4133C16.5511 11.0933 14.9688 11.1467 14.0444 11.5733Z" fill="white"/>
</g>
<defs>
<clipPath id="clip0_781_6686">
<rect width="32" height="32" fill="white"/>
</clipPath>
</defs>
</svg>
