<svg xmlns="http://www.w3.org/2000/svg" width="245" height="32" fill="none"><circle cx="16" cy="16" r="16" fill="url(#a)"/><mask id="b" width="32" height="32" x="0" y="0" maskUnits="userSpaceOnUse" style="mask-type:luminance"><circle cx="16" cy="16" r="16" fill="#fff"/></mask><g stroke="#fff" stroke-width=".79" mask="url(#b)"><path d="M15.662-3.82V7.33M14.011-3.82V7.33M17.83-3.82V7.33M8.671-1.648l3.615 6.743v-7.676m10.839.727L19.51 4.888v-7.675m-3.275 40.051V26.116m1.652 11.148V26.116m-3.82 11.148V26.116m9.263 9.117-3.614-6.743v7.676m-11.045-.83 3.615-6.743v7.676M-4.593 17.01H6.555m-11.148 1.65H6.555m-11.148-3.819H6.555m-9.235 9.212 6.743-3.614h-7.676m1.656-10.632 6.742 3.614H-2.89m39.38 3.015H25.343m11.147-1.651H25.343m11.147 3.819H25.343m8.857-9.21-6.741 3.614h7.675m-.52 10.942-6.743-3.614h7.676M1.626 31.45l7.883-7.883m-6.715 9.051 7.883-7.883M.093 29.918l7.883-7.883m.401 13.056 2.211-7.323-5.427 5.427m-7.495-8.712 7.324-2.211-5.427 5.427M30.272 1.995l-7.883 7.883M29.104.827 21.221 8.71m10.584-5.183-7.883 7.884m-.16-12.816L21.55 5.92 26.977.49m7.186 8.3L26.839 11l5.428-5.427m-1.591 25.472-7.883-7.883m9.051 6.716-7.883-7.884m5.182 10.584-7.883-7.883m13.109-.211-7.324-2.212 5.427 5.427m-8.608 7.289-2.212-7.323 5.428 5.427M1.22 2.4l7.884 7.883M.052 3.568l7.884 7.883M2.753.867l7.884 7.883m-12.455.556 7.324 2.211L.079 6.09m8.195-7.185 2.211 7.323L5.058.801"/></g><circle cx="15.949" cy="16.052" r="10.925" fill="#F8BA3A" stroke="#fff" stroke-width=".677"/><mask id="c" width="22" height="22" x="5" y="6" maskUnits="userSpaceOnUse" style="mask-type:luminance"><circle cx="16.052" cy="16.925" r="10.925" fill="#fff"/></mask><g mask="url(#c)"><path fill="#fff" fill-rule="evenodd" d="m16.568 5.518-1.445 11.613h1.445L16 27.842l10.533-1.885 1.91-14.706-4.641-4.081-7.234-1.652z" clip-rule="evenodd"/></g><path fill="#01C1AE" stroke="#01C1AE" stroke-linecap="round" stroke-linejoin="round" stroke-width="1.241" d="M5.837 14.598c.249 2.025 1.566 4.132 3.59 3.883 6.872-.844 5.906-5.259 5.814-6.689.497 4.05 3.573 5.537 8.726 4.904 1.534-.189 2.162-3.186 1.992-4.569-.212-1.729-4.789-1.981-10.494-1.28-5.706.7-9.939 1.22-9.628 3.75z"/><path fill="#fff" stroke="#FE9D51" stroke-linejoin="round" stroke-width=".564" d="M16.116 23c2.394-.195 4.19-2.128 4.011-4.316l-8.669.707c.179 2.189 2.264 3.805 4.658 3.61z"/><path stroke="#FE9A54" stroke-linecap="round" stroke-linejoin="round" stroke-width=".451" d="M17.238 20.645h2.375"/><path fill="#000" stroke="#000" stroke-width=".113" d="M18.53 15.742c-1.859-.702-2.599-2.564-2.736-3.407 0-1.135 1.29-1.29 4.438-1.29 3.149 0 5.059.258 5.213 1.084.155 1.445-.36 3.613-1.084 3.974-.722.361-3.51.516-5.832-.361zm-5.466.968c1.491-.983 2.265-2.878 1.8-4.478-.264-.911-1.716-.688-4.438-.258C8 12.357 6.142 13.42 6.35 14.348c.103 1.522 1.277 3.13 1.961 3.407.684.276 2.89.183 4.754-1.045z"/><path fill="#fff" d="m25.961 7.432.907 2.449 2.448.906-2.448.906-.907 2.449-.906-2.449-2.448-.906 2.448-.906.906-2.449zm34.133 11.623a5.29 5.29 0 0 1-.234 1.629 4.733 4.733 0 0 1-.598 1.265c-.25.367-.543.68-.879.938a5.389 5.389 0 0 1-1.043.633c-.36.164-.726.285-1.101.363a5.02 5.02 0 0 1-1.043.117H43.442v-3.047h11.754c.586 0 1.039-.172 1.36-.515.327-.344.491-.805.491-1.383 0-.282-.043-.54-.129-.774a1.737 1.737 0 0 0-.375-.61 1.561 1.561 0 0 0-.585-.398 1.976 1.976 0 0 0-.762-.14h-7.008a5.543 5.543 0 0 1-1.594-.258 4.935 4.935 0 0 1-1.593-.855c-.485-.391-.891-.903-1.22-1.536-.32-.632-.48-1.406-.48-2.32 0-.914.16-1.684.48-2.309.329-.632.735-1.144 1.22-1.535a4.654 4.654 0 0 1 1.593-.855c.57-.18 1.102-.27 1.594-.27h10.371v3.047H48.188c-.578 0-1.031.176-1.36.527-.32.352-.48.817-.48 1.395 0 .586.16 1.05.48 1.395.329.336.782.504 1.36.504h7.031c.328.007.676.054 1.043.14.367.078.73.203 1.09.375.367.172.715.39 1.043.656.328.258.617.57.867.938.258.367.461.789.61 1.265.148.477.222 1.016.222 1.618zm18.276 3.41c0 .219-.039.422-.117.61a1.51 1.51 0 0 1-.328.491c-.14.133-.305.239-.492.317a1.539 1.539 0 0 1-.598.117h-6.867a9.53 9.53 0 0 1-1.969-.21 9.072 9.072 0 0 1-1.933-.645 8.513 8.513 0 0 1-1.746-1.125 7.487 7.487 0 0 1-1.442-1.606 8.064 8.064 0 0 1-.96-2.133c-.235-.804-.352-1.699-.352-2.683V7.195h3.046v8.403c0 .859.118 1.586.352 2.18.242.593.547 1.09.914 1.488.367.398.77.71 1.207.937a6.56 6.56 0 0 0 1.242.504c.399.11.746.18 1.043.211.305.023.504.035.598.035h5.355V7.195h3.047v15.27zm19.624.234c0 .219-.043.422-.129.61a1.47 1.47 0 0 1-.809.809 1.539 1.539 0 0 1-.597.116 1.69 1.69 0 0 1-.574-.105 1.34 1.34 0 0 1-.504-.34L84.248 12.164V24h-3.047V8.496c0-.312.086-.594.258-.844.18-.257.406-.449.68-.574.289-.117.586-.144.89-.082.305.055.567.195.785.422l11.133 11.613V7.195h3.047V22.7zm26.662-8.472c0 .695-.086 1.316-.258 1.863a5.23 5.23 0 0 1-.703 1.453 4.83 4.83 0 0 1-1.008 1.066 5.836 5.836 0 0 1-1.207.727 5.83 5.83 0 0 1-1.266.41 6 6 0 0 1-1.195.129h-6.891v-3.047h6.891a3.63 3.63 0 0 0 1.055-.234c.32-.133.593-.309.82-.528.226-.218.402-.48.527-.785.125-.312.188-.664.188-1.054v-1.383a4.006 4.006 0 0 0-.246-1.055 2.44 2.44 0 0 0-.516-.82 2.166 2.166 0 0 0-.773-.528 2.623 2.623 0 0 0-1.055-.199h-6.867c-.407 0-.715.106-.926.317-.211.21-.316.515-.316.914V24h-3.047V11.473c0-.782.14-1.446.422-1.993.289-.546.644-.988 1.066-1.324.43-.336.894-.578 1.394-.726.5-.157.961-.235 1.383-.235h6.891c.687 0 1.305.09 1.851.27a5.055 5.055 0 0 1 1.442.703c.422.289.777.625 1.066 1.008.297.383.539.785.727 1.207a5.5 5.5 0 0 1 .422 1.265c.086.422.129.82.129 1.196v1.383zm18.358 8.238a1.52 1.52 0 0 1-.446 1.102 1.598 1.598 0 0 1-1.089.433h-6.868a9.48 9.48 0 0 1-1.968-.21 9.076 9.076 0 0 1-1.934-.645 8.52 8.52 0 0 1-1.746-1.125 7.477 7.477 0 0 1-1.441-1.606 8.026 8.026 0 0 1-.961-2.133c-.235-.804-.352-1.699-.352-2.683V7.195h3.047v8.403c0 .859.117 1.586.351 2.18.243.593.547 1.09.915 1.488.367.398.769.71 1.207.937a6.553 6.553 0 0 0 2.285.715c.304.023.504.035.597.035h5.356V7.195h3.047v15.27zM165.403 24h-3.07V13.992l-5.403 9.504c-.132.242-.32.426-.562.55a1.592 1.592 0 0 1-.762.188c-.265 0-.515-.062-.75-.187a1.361 1.361 0 0 1-.539-.55l-5.426-9.505V24h-3.046V8.496c0-.351.101-.664.304-.937a1.53 1.53 0 0 1 .821-.551c.164-.04.328-.051.492-.035.164.007.32.043.468.105.157.055.297.137.422.246.125.102.231.227.317.375l6.937 12.059 6.938-12.059c.179-.297.426-.508.738-.633.32-.125.652-.144.996-.058.328.094.598.277.809.55.211.274.316.587.316.938V24zm19.577-9.773c0 .695-.086 1.316-.258 1.863a5.23 5.23 0 0 1-.703 1.453 4.83 4.83 0 0 1-1.008 1.066 5.836 5.836 0 0 1-1.207.727 5.84 5.84 0 0 1-1.265.41 6.01 6.01 0 0 1-1.196.129h-6.89v-3.047h6.89a3.63 3.63 0 0 0 1.055-.234c.32-.133.594-.309.82-.528.227-.218.403-.48.528-.785.125-.312.187-.664.187-1.054v-1.383a4.006 4.006 0 0 0-.246-1.055 2.44 2.44 0 0 0-.516-.82 2.157 2.157 0 0 0-.773-.528 2.62 2.62 0 0 0-1.055-.199h-6.867c-.406 0-.715.106-.926.317-.211.21-.316.515-.316.914V24h-3.047V11.473c0-.782.141-1.446.422-1.993.289-.546.644-.988 1.066-1.324.43-.336.895-.578 1.395-.726.5-.157.961-.235 1.383-.235h6.89c.688 0 1.305.09 1.852.27a5.049 5.049 0 0 1 1.441.703c.422.289.778.625 1.067 1.008.297.383.539.785.726 1.207.196.414.336.836.422 1.265.086.422.129.82.129 1.196v1.383z"/><rect width="48" height="18" x="197" y="7" fill="#1E183C" rx="4"/><path fill="#B482FF" d="M208.686 11.432h3.924c.852 0 1.524.204 2.004.612.444.384.672.9.672 1.548 0 .48-.12.888-.348 1.224-.228.312-.552.54-.984.708.564.108.984.336 1.272.684.276.336.42.804.42 1.38 0 .864-.3 1.5-.888 1.908-.504.336-1.224.504-2.136.504h-3.936v-8.568zm1.404 1.152v2.448h2.148c.6 0 1.02-.108 1.272-.3.24-.204.372-.528.372-.972 0-.408-.132-.708-.372-.888-.264-.192-.672-.288-1.248-.288h-2.172zm0 3.6v2.664h2.328c.528 0 .948-.084 1.248-.252.384-.216.576-.552.576-1.032 0-.492-.144-.84-.42-1.056-.288-.216-.744-.324-1.368-.324h-2.364zm9.401-2.556c1.02 0 1.8.336 2.34 1.032.492.624.744 1.5.744 2.616h-4.644c.048.576.204 1.02.468 1.32.264.3.648.456 1.14.456.42 0 .756-.096 1.02-.288.204-.156.384-.408.552-.756h1.368a2.817 2.817 0 0 1-.864 1.452c-.552.468-1.236.708-2.064.708-.924 0-1.656-.288-2.196-.852-.576-.588-.864-1.392-.864-2.424 0-.924.264-1.692.816-2.316.528-.636 1.26-.948 2.184-.948zm.036 1.116c-.456 0-.804.12-1.068.384-.252.252-.42.624-.504 1.116h3.192c-.12-1.008-.66-1.5-1.62-1.5zm6.076-2.952v2.004h1.38v1.128h-1.38v3.504c0 .144.024.252.096.336.072.072.168.108.312.108h.816V20h-1.044c-.54 0-.936-.144-1.188-.432-.24-.264-.36-.636-.36-1.14v-3.504h-1.116v-1.128h1.116v-1.44l1.368-.564zm5.224 1.836c.912 0 1.596.228 2.028.684.384.396.576.972.576 1.728V20h-1.272v-.816c-.24.312-.54.54-.888.708-.396.18-.864.276-1.404.276-.648 0-1.152-.168-1.524-.492a1.612 1.612 0 0 1-.576-1.272c0-.696.264-1.236.816-1.608.504-.36 1.212-.552 2.124-.576l1.356-.036v-.24c0-.816-.444-1.212-1.332-1.212-.384 0-.684.06-.912.204a1.077 1.077 0 0 0-.516.72l-1.356-.108c.132-.684.468-1.188 1.008-1.5.456-.288 1.08-.42 1.872-.42zm1.236 3.54-1.26.036c-1.092.024-1.632.408-1.632 1.152a.64.64 0 0 0 .276.54c.192.144.432.228.732.228.528 0 .972-.156 1.332-.456.36-.312.552-.708.552-1.188v-.312z"/><defs><linearGradient id="a" x1="0" x2="0" y1="0" y2="32" gradientUnits="userSpaceOnUse"><stop stop-color="#F5B745"/><stop offset="1" stop-color="#FC8B47"/></linearGradient></defs></svg>