<svg width="20" height="20" viewBox="0 0 20 20" fill="none" xmlns="http://www.w3.org/2000/svg">
<path d="M9.21234 1.11573C9.59648 0.571589 10.4035 0.571589 10.7877 1.11573C11.0971 1.55403 11.7048 1.65543 12.1397 1.34135C12.6797 0.951424 13.4431 1.21347 13.6297 1.85285C13.78 2.36787 14.3219 2.6611 14.8353 2.50527C15.4726 2.31181 16.1095 2.8075 16.0784 3.47285C16.0534 4.00878 16.4706 4.46205 17.0068 4.48136C17.6724 4.50534 18.1139 5.18096 17.8684 5.80016C17.6707 6.29892 17.9182 6.86313 18.4191 7.05549C19.0408 7.29429 19.239 8.07663 18.8058 8.58259C18.4568 8.99014 18.5077 9.60413 18.919 9.94869C19.4295 10.3765 19.3629 11.1807 18.7889 11.5186C18.3265 11.7908 18.1753 12.388 18.4524 12.8475C18.7964 13.4178 18.4722 14.1569 17.8196 14.2901C17.2939 14.3974 16.9569 14.9132 17.0698 15.4377C17.21 16.0888 16.6634 16.6826 16.0029 16.5967C15.4709 16.5274 14.9847 16.9059 14.9212 17.4386C14.8423 18.1 14.1325 18.4841 13.5357 18.1884C13.055 17.9502 12.4723 18.1502 12.2392 18.6335C11.9499 19.2334 11.1539 19.3662 10.6854 18.8927C10.308 18.5114 9.69195 18.5114 9.31461 18.8927C8.84615 19.3662 8.05012 19.2334 7.76078 18.6335C7.52773 18.1502 6.94501 17.9502 6.46428 18.1884C5.86746 18.4841 5.15769 18.1 5.07883 17.4386C5.01531 16.9059 4.52912 16.5274 3.99709 16.5967C3.33659 16.6826 2.79 16.0888 2.93016 15.4377C3.04307 14.9132 2.70609 14.3974 2.18042 14.2901C1.5278 14.1569 1.20362 13.4178 1.54762 12.8475C1.82471 12.388 1.67347 11.7908 1.21112 11.5186C0.637114 11.1807 0.57047 10.3765 1.08103 9.94869C1.49228 9.60413 1.54315 8.99014 1.19423 8.58259C0.761038 8.07663 0.959153 7.29429 1.58094 7.05549C2.08179 6.86313 2.32927 6.29892 2.13158 5.80016C1.88615 5.18096 2.32755 4.50534 2.99319 4.48136C3.52936 4.46205 3.94663 4.00878 3.9216 3.47285C3.89052 2.8075 4.52738 2.31181 5.16474 2.50527C5.67812 2.6611 6.21996 2.36787 6.3703 1.85285C6.55695 1.21347 7.32025 0.951424 7.86026 1.34135C8.29523 1.65543 8.90292 1.55403 9.21234 1.11573Z" fill="#73CA55"/>
<path d="M5.18518 8.87354L8.89639 12.5847" stroke="white" stroke-width="2" stroke-linecap="round"/>
<path d="M15.1515 7.7443C15.5421 7.35377 15.5421 6.72061 15.1515 6.33008C14.761 5.93956 14.1279 5.93956 13.7373 6.33008L15.1515 7.7443ZM9.58473 13.3111L15.1515 7.7443L13.7373 6.33008L8.17052 11.8969L9.58473 13.3111Z" fill="white"/>
</svg>
