<svg width="28" height="28" viewBox="0 0 28 28" fill="none" xmlns="http://www.w3.org/2000/svg">
<g clip-path="url(#clip0_872_9130)">
<path d="M25.2065 17.708C23.6108 17.8047 21.5118 19.3711 19.4867 20.2719C17.0062 21.3742 13.1431 20.4875 13.1427 20.4875C13.7378 20.2135 16.1591 19.6469 16.6471 19.4352C19.2394 18.3162 19.0207 15.9804 17.7861 16.0001C16.1537 16.0271 15.1973 16.4204 11.9425 16.8562C9.47553 17.1856 6.55794 17.0652 5.15829 17.5899C3.18269 18.3314 0 23.3181 0 23.3181L4.92023 28C4.92023 28 7.96558 25.0545 9.44728 25.0545C12.8237 25.0545 12.9607 25.009 16.0968 24.8427C17.429 24.7727 17.7083 24.7189 18.4709 24.465C22.5348 23.1165 26.899 19.5219 26.9793 19.0894C27.1659 18.0882 26.0509 17.6565 25.2065 17.708Z" fill="url(#paint0_linear_872_9130)"/>
<path d="M18.226 10.2332C18.3112 10.2505 18.3979 10.2131 18.444 10.1398C19.5823 8.31646 21.3011 6.11074 23.5425 4.61173C21.4535 6.60591 19.9783 8.70507 19.0841 10.6811C19.0572 10.7405 19.0603 10.8087 19.0918 10.8656C19.1237 10.9225 19.1804 10.9612 19.2453 10.9701C19.3913 10.9898 19.5428 11 19.6955 11C21.127 11 22.5529 10.1329 23.4968 9.40559C24.5748 8.57505 25.61 7.47763 26.2662 6.46934C27.2506 4.95706 27.8661 3.09327 27.9995 1.22088C28.0038 1.1613 27.9819 1.10286 27.9393 1.0604C27.8967 1.01817 27.8376 0.995997 27.7778 1.0006C26.3516 1.10097 22.8127 1.55595 20.7432 3.6091C20.6709 3.67396 19.909 4.37086 19.2004 5.4848C18.2292 7.01224 17.8355 8.59489 18.0625 10.0622C18.0755 10.1477 18.1407 10.2159 18.226 10.2332Z" fill="url(#paint1_linear_872_9130)"/>
<path d="M12.0527 12.4056C12.9023 13.133 14.1856 14 15.474 14C15.6115 14 15.7479 13.9901 15.879 13.97C15.9374 13.9611 15.9886 13.9224 16.0171 13.8657C16.0456 13.8089 16.0482 13.7406 16.0243 13.6813C15.2196 11.7051 13.8919 9.60588 12.0116 7.61155C14.0288 9.11074 15.5759 11.3167 16.6003 13.14C16.6416 13.2133 16.72 13.2504 16.7965 13.2332C16.873 13.2157 16.932 13.1477 16.9439 13.0623C17.1478 11.5951 16.7938 10.0122 15.9196 8.48495C15.282 7.37075 14.5958 6.67422 14.5309 6.60909C12.6686 4.55605 9.48357 4.10088 8.19993 4.00062C8.14613 3.99595 8.0929 4.01803 8.05471 4.06036C8.01645 4.10262 7.99661 4.16134 8.00048 4.22092C8.12055 6.0933 8.67443 7.95713 9.5603 9.46929C10.1509 10.4777 11.0827 11.5751 12.0527 12.4056Z" fill="url(#paint2_linear_872_9130)"/>
<path d="M14.7016 5.04345C15.2682 5.4797 16.1237 6 16.9826 6C17.0741 6 17.1652 5.9938 17.2527 5.98189C17.2918 5.97662 17.3258 5.95345 17.3447 5.91945C17.3638 5.88509 17.3656 5.84432 17.3494 5.80853C16.8129 4.62273 15.928 3.36344 14.6745 2.16695C16.0192 3.06626 17.0505 4.38999 17.7336 5.48377C17.7611 5.5276 17.8134 5.5502 17.8644 5.53972C17.9154 5.52932 17.9546 5.48854 17.9626 5.43722C18.0985 4.55687 17.8626 3.60723 17.2798 2.69081C16.8547 2.02253 16.3973 1.60445 16.3541 1.56546C15.1124 0.333611 12.9891 0.0605955 12.1334 0.000360981C12.0973 -0.00241907 12.062 0.0109822 12.0364 0.0362878C12.0109 0.0615934 11.9977 0.0968787 12.0003 0.132592C12.0803 1.25609 12.4496 2.37431 13.0402 3.28154C13.4339 3.88659 14.0552 4.54496 14.7016 5.04345Z" fill="url(#paint3_linear_872_9130)"/>
</g>
<defs>
<linearGradient id="paint0_linear_872_9130" x1="13.5" y1="16" x2="13.5" y2="29.2091" gradientUnits="userSpaceOnUse">
<stop stop-color="#A17FE0"/>
<stop offset="1" stop-color="#5D26C1"/>
</linearGradient>
<linearGradient id="paint1_linear_872_9130" x1="23" y1="1" x2="23" y2="12.0076" gradientUnits="userSpaceOnUse">
<stop stop-color="#A17FE0"/>
<stop offset="1" stop-color="#5D26C1"/>
</linearGradient>
<linearGradient id="paint2_linear_872_9130" x1="12.5" y1="4" x2="12.5" y2="15.0076" gradientUnits="userSpaceOnUse">
<stop stop-color="#A17FE0"/>
<stop offset="1" stop-color="#5D26C1"/>
</linearGradient>
<linearGradient id="paint3_linear_872_9130" x1="15" y1="0" x2="15" y2="6.60456" gradientUnits="userSpaceOnUse">
<stop stop-color="#A17FE0"/>
<stop offset="1" stop-color="#5D26C1"/>
</linearGradient>
<clipPath id="clip0_872_9130">
<rect width="28" height="28" fill="white"/>
</clipPath>
</defs>
</svg>
