<svg width="90" height="90" viewBox="0 0 90 90" fill="none" xmlns="http://www.w3.org/2000/svg">
<g clip-path="url(#clip0_872_10195)">
<path fill-rule="evenodd" clip-rule="evenodd" d="M33.4321 90.0001H0V65.2238H33.4321V90.0001ZM55.6699 39.786C55.6699 39.786 50.8296 55.5101 44.6766 58.2057C38.5239 60.901 36.1847 65.2238 36.1847 65.2238V88.1074L70.6441 87.8397C72.5231 87.8256 75.352 86.4001 74.2543 82.0176C76.862 80.7168 77.3957 76.6278 75.1382 74.8349C78.8219 74.9363 80.3578 67.8963 75.8877 66.6984C80.6168 66.2916 80.403 58.8338 75.622 58.8338C75.622 58.8338 58.4316 59.07 58.4316 58.8157C58.4316 58.561 61.1576 54.7453 62.3044 51.4251C65.162 43.1514 60.998 37.4995 55.6699 39.786Z" fill="url(#paint0_linear_872_10195)"/>
<path fill-rule="evenodd" clip-rule="evenodd" d="M19.427 29.4016L22.7735 36.4684L30.5284 37.467L24.8415 42.8336L26.2878 50.5178L19.427 46.7673L12.5658 50.5178L14.0125 42.8332L8.32556 37.467L16.0809 36.4684L19.427 29.4016Z" fill="#04599C"/>
<path fill-rule="evenodd" clip-rule="evenodd" d="M19.427 29.4016L22.7735 36.4684L30.5284 37.467L24.8415 42.8336L26.2878 50.5178L19.427 46.7673L12.5658 50.5178L14.0125 42.8332L8.32556 37.467L16.0809 36.4684L19.427 29.4016Z" fill="url(#paint1_linear_872_10195)"/>
<path fill-rule="evenodd" clip-rule="evenodd" d="M74.7479 0L79.3454 9.70939L90 11.0814L82.1865 18.4543L84.1743 29.0114L74.7475 23.859L65.3215 29.0114L67.3086 18.4539L59.4958 11.0814L70.1504 9.709L74.7479 0Z" fill="#04599C"/>
<path fill-rule="evenodd" clip-rule="evenodd" d="M74.7479 0L79.3454 9.70939L90 11.0814L82.1865 18.4543L84.1743 29.0114L74.7475 23.859L65.3215 29.0114L67.3086 18.4539L59.4958 11.0814L70.1504 9.709L74.7479 0Z" fill="url(#paint2_linear_872_10195)"/>
<path fill-rule="evenodd" clip-rule="evenodd" d="M40.0358 5.68896L43.9994 14.0586L53.1841 15.2415L46.4486 21.5974L48.1618 30.6984L40.0358 26.2569L31.9099 30.6984L33.623 21.5974L26.8876 15.2415L36.0727 14.0586L40.0358 5.68896Z" fill="#04599C"/>
<path fill-rule="evenodd" clip-rule="evenodd" d="M40.0358 5.68896L43.9994 14.0586L53.1841 15.2415L46.4486 21.5974L48.1618 30.6984L40.0358 26.2569L31.9099 30.6984L33.623 21.5974L26.8876 15.2415L36.0727 14.0586L40.0358 5.68896Z" fill="url(#paint3_linear_872_10195)"/>
</g>
<defs>
<linearGradient id="paint0_linear_872_10195" x1="39.6617" y1="39.2749" x2="39.6617" y2="95.1112" gradientUnits="userSpaceOnUse">
<stop stop-color="#A17FE0"/>
<stop offset="1" stop-color="#5D26C1"/>
</linearGradient>
<linearGradient id="paint1_linear_872_10195" x1="19.427" y1="29.4016" x2="19.427" y2="52.6455" gradientUnits="userSpaceOnUse">
<stop stop-color="#A17FE0"/>
<stop offset="1" stop-color="#5D26C1"/>
</linearGradient>
<linearGradient id="paint2_linear_872_10195" x1="74.7479" y1="0" x2="74.7479" y2="31.9346" gradientUnits="userSpaceOnUse">
<stop stop-color="#A17FE0"/>
<stop offset="1" stop-color="#5D26C1"/>
</linearGradient>
<linearGradient id="paint3_linear_872_10195" x1="40.0358" y1="5.68896" x2="40.0358" y2="33.2183" gradientUnits="userSpaceOnUse">
<stop stop-color="#A17FE0"/>
<stop offset="1" stop-color="#5D26C1"/>
</linearGradient>
<clipPath id="clip0_872_10195">
<rect width="90" height="90" fill="white"/>
</clipPath>
</defs>
</svg>
