<svg width="27" height="27" viewBox="0 0 27 27" fill="none" xmlns="http://www.w3.org/2000/svg">
<rect width="27" height="27" rx="13.5" fill="#121027"/>
<path d="M11.1987 7.22461H16.7987C18.932 7.22461 20.6654 8.95794 20.6654 11.0913V16.6913C20.6654 17.7168 20.258 18.7003 19.5328 19.4254C18.8077 20.1506 17.8242 20.5579 16.7987 20.5579H11.1987C9.06536 20.5579 7.33203 18.8246 7.33203 16.6913V11.0913C7.33203 10.0658 7.73941 9.08227 8.46455 8.35713C9.18969 7.63199 10.1732 7.22461 11.1987 7.22461ZM11.0654 8.55794C10.4288 8.55794 9.8184 8.8108 9.36831 9.26089C8.91822 9.71097 8.66536 10.3214 8.66536 10.9579V16.8246C8.66536 18.1513 9.7387 19.2246 11.0654 19.2246H16.932C17.5686 19.2246 18.179 18.9718 18.6291 18.5217C19.0792 18.0716 19.332 17.4611 19.332 16.8246V10.9579C19.332 9.63128 18.2587 8.55794 16.932 8.55794H11.0654ZM17.4987 9.55794C17.7197 9.55794 17.9317 9.64574 18.088 9.80202C18.2442 9.9583 18.332 10.1703 18.332 10.3913C18.332 10.6123 18.2442 10.8243 18.088 10.9805C17.9317 11.1368 17.7197 11.2246 17.4987 11.2246C17.2777 11.2246 17.0657 11.1368 16.9094 10.9805C16.7532 10.8243 16.6654 10.6123 16.6654 10.3913C16.6654 10.1703 16.7532 9.9583 16.9094 9.80202C17.0657 9.64574 17.2777 9.55794 17.4987 9.55794ZM13.9987 10.5579C14.8828 10.5579 15.7306 10.9091 16.3557 11.5343C16.9808 12.1594 17.332 13.0072 17.332 13.8913C17.332 14.7753 16.9808 15.6232 16.3557 16.2483C15.7306 16.8734 14.8828 17.2246 13.9987 17.2246C13.1146 17.2246 12.2668 16.8734 11.6417 16.2483C11.0166 15.6232 10.6654 14.7753 10.6654 13.8913C10.6654 13.0072 11.0166 12.1594 11.6417 11.5343C12.2668 10.9091 13.1146 10.5579 13.9987 10.5579ZM13.9987 11.8913C13.4683 11.8913 12.9596 12.102 12.5845 12.4771C12.2094 12.8521 11.9987 13.3608 11.9987 13.8913C11.9987 14.4217 12.2094 14.9304 12.5845 15.3055C12.9596 15.6806 13.4683 15.8913 13.9987 15.8913C14.5291 15.8913 15.0378 15.6806 15.4129 15.3055C15.788 14.9304 15.9987 14.4217 15.9987 13.8913C15.9987 13.3608 15.788 12.8521 15.4129 12.4771C15.0378 12.102 14.5291 11.8913 13.9987 11.8913Z" fill="white"/>
</svg>
