<svg width="24" height="24" viewBox="0 0 24 24" fill="none" xmlns="http://www.w3.org/2000/svg">
<path fill-rule="evenodd" clip-rule="evenodd" d="M17.7111 7.04442C17.7607 6.99483 17.8 6.93596 17.8268 6.87118C17.8537 6.80639 17.8675 6.73695 17.8675 6.66682C17.8675 6.59669 17.8537 6.52725 17.8268 6.46246C17.8 6.39768 17.7607 6.33881 17.7111 6.28922C17.6615 6.23963 17.6026 6.2003 17.5378 6.17346C17.4731 6.14663 17.4036 6.13281 17.3335 6.13281C17.2634 6.13281 17.1939 6.14663 17.1291 6.17346C17.0643 6.2003 17.0055 6.23963 16.9559 6.28922L12.0002 11.246L7.04442 6.28922C6.99483 6.23963 6.93596 6.2003 6.87118 6.17346C6.80639 6.14663 6.73695 6.13281 6.66682 6.13281C6.59669 6.13281 6.52725 6.14663 6.46246 6.17346C6.39768 6.2003 6.33881 6.23963 6.28922 6.28922C6.23963 6.33881 6.2003 6.39768 6.17346 6.46246C6.14663 6.52725 6.13281 6.59669 6.13281 6.66682C6.13281 6.73695 6.14663 6.80639 6.17346 6.87118C6.2003 6.93596 6.23963 6.99483 6.28922 7.04442L11.246 12.0002L6.28922 16.9559C6.18907 17.056 6.13281 17.1919 6.13281 17.3335C6.13281 17.4751 6.18907 17.6109 6.28922 17.7111C6.38937 17.8112 6.52519 17.8675 6.66682 17.8675C6.80845 17.8675 6.94427 17.8112 7.04442 17.7111L12.0002 12.7543L16.9559 17.7111C17.056 17.8112 17.1919 17.8675 17.3335 17.8675C17.4751 17.8675 17.6109 17.8112 17.7111 17.7111C17.8112 17.6109 17.8675 17.4751 17.8675 17.3335C17.8675 17.1919 17.8112 17.056 17.7111 16.9559L12.7543 12.0002L17.7111 7.04442Z" fill="black"/>
</svg>
