<svg width="61" height="11" viewBox="0 0 61 11" fill="none" xmlns="http://www.w3.org/2000/svg">
<path d="M7.5214 2.15184C7.1117 1.72595 6.66572 1.4046 6.18345 1.19243C5.69441 0.976587 5.16709 0.866653 4.6346 0.869535C3.43951 0.869535 2.42509 1.33801 1.5883 2.27108C0.752268 3.20416 0.335008 4.40206 0.333496 5.86323C0.333496 7.27252 0.764362 8.45338 1.62761 9.4004C2.49085 10.3505 3.51435 10.8252 4.69658 10.8252C5.20042 10.8307 5.70019 10.7322 6.16606 10.5356C6.61885 10.3412 7.06937 10.0245 7.51838 9.58159V10.5844H9.82918V1.1181H7.52216L7.5214 2.15184ZM6.90912 7.86953C6.43441 8.39066 5.83573 8.64774 5.1146 8.64929C4.41539 8.64929 3.82654 8.38447 3.34956 7.85405C2.87183 7.32518 2.6322 6.64996 2.6322 5.83148C2.6322 5.01533 2.8688 4.3494 3.33746 3.82827C3.80764 3.30792 4.39724 3.05007 5.1078 3.05007C5.83573 3.05007 6.43743 3.3056 6.91214 3.81666C7.38761 4.32927 7.54106 4.91234 7.53954 5.73701C7.53954 6.58104 7.38609 7.34995 6.90912 7.86953ZM23.0832 2.15184C22.7023 1.74639 22.2482 1.42056 21.746 1.19243C21.2562 0.976701 20.7281 0.866779 20.1949 0.869535C19.0028 0.869535 17.9854 1.33801 17.1501 2.27108C16.3141 3.20493 15.8968 4.40283 15.8953 5.864C15.8938 7.2733 16.3247 8.45416 17.1894 9.40117C18.0527 10.3513 19.0762 10.826 20.2607 10.826C20.7635 10.8315 21.2623 10.733 21.7271 10.5363C22.1792 10.342 22.6297 10.0253 23.0787 9.58237V10.5851H25.3895V1.1181H23.0832V2.15184ZM22.4709 7.86953C21.9962 8.39066 21.396 8.64774 20.6779 8.64929C19.9772 8.64929 19.3884 8.38447 18.9099 7.85405C18.4321 7.32518 18.1925 6.64996 18.194 5.83148C18.1955 5.01533 18.4284 4.3494 18.8993 3.82827C19.3695 3.30792 19.9591 3.05007 20.6696 3.05007C21.396 3.05007 21.9977 3.3056 22.474 3.81666C22.9494 4.32927 23.1014 4.91234 23.0999 5.73701C23.0999 6.58104 22.9479 7.34995 22.4709 7.86953ZM39.2966 1.34885C38.8 1.03524 38.2263 0.878827 37.5717 0.878827C36.9624 0.872225 36.3614 1.02295 35.824 1.3171C35.2911 1.60903 34.8413 2.03491 34.4732 2.59785C34.1935 2.03491 33.8216 1.60748 33.3605 1.31555C32.8923 1.02129 32.3526 0.868308 31.8034 0.874181C31.2334 0.874181 30.708 0.984911 30.225 1.20792C29.7428 1.42938 29.3043 1.76544 28.9097 2.21611V1.1181H26.5967L26.5944 10.5851H28.9052L28.9067 6.38513C28.9082 5.47684 28.9861 4.81091 29.1411 4.38812C29.2983 3.96611 29.5326 3.63856 29.8463 3.40239C30.1615 3.17009 30.51 3.05161 30.8955 3.05161C31.2394 3.05239 31.535 3.14531 31.7784 3.33038C32.0218 3.51622 32.2032 3.79885 32.3249 4.1775C32.4466 4.55692 32.5079 5.16865 32.5079 6.015L32.5033 10.5851H34.8172V6.32706C34.8202 5.42418 34.8965 4.76909 35.0485 4.36179C35.2027 3.95294 35.437 3.63546 35.7507 3.40239C36.0609 3.17253 36.4352 3.05116 36.818 3.05626C37.3388 3.05626 37.7266 3.24675 37.9889 3.62385C38.2505 4.00482 38.3797 4.7296 38.3797 5.79819L38.3767 10.5851H40.6883L40.6913 5.04088C40.6913 3.90338 40.5832 3.08181 40.3663 2.57772C40.1508 2.07208 39.794 1.66246 39.2966 1.34885ZM48.7591 7.79442C48.1407 8.42473 47.4007 8.73989 46.5405 8.73989C45.8194 8.73911 45.2297 8.53546 44.7641 8.13281C44.2992 7.73015 44.015 7.18812 43.9069 6.50515L51.3216 6.5098L51.3307 6.05914C51.3307 4.49885 50.8786 3.2452 49.9708 2.29199C49.0652 1.34265 47.8875 0.867212 46.4369 0.864889C45.0733 0.864889 43.9371 1.34111 43.0346 2.29741C42.1283 3.24984 41.6762 4.44929 41.6762 5.89343C41.6747 7.30504 42.1283 8.47661 43.0331 9.41356C43.9371 10.3528 45.1126 10.8205 46.5526 10.8205C47.4823 10.8205 48.2829 10.6517 48.9601 10.3118C49.6344 9.97341 50.2149 9.44763 50.6987 8.73989L48.7591 7.79442ZM44.8616 3.44265C45.3469 3.07639 45.9123 2.89442 46.5549 2.89597C47.1497 2.89597 47.6706 3.05858 48.1166 3.3838C48.5671 3.71135 48.8672 4.13491 49.0191 4.65526L44.015 4.65217C44.2735 4.07529 44.557 3.67108 44.8616 3.44343M56.8072 5.57518L59.9314 1.11655H57.2963L55.4874 3.69741L53.6725 1.11655H50.9958L54.1517 5.6015L50.6624 10.5851H53.2975L55.4708 7.48159L57.6553 10.5851H60.3335L56.8072 5.57518ZM15.3926 0.826172C14.9648 0.826172 14.5914 0.909026 14.28 1.06931C13.9723 1.22728 13.6193 1.51533 13.2217 1.93812V1.11732H11.0144V10.5851H13.326L13.3245 5.66113C13.3245 3.85692 13.8113 2.95172 14.9897 2.95172C15.1938 2.95172 15.4025 2.99741 15.6126 3.07794C15.9921 2.4275 16.4305 1.81655 16.9203 1.25361C16.3927 0.975619 15.8832 0.826172 15.3926 0.826172Z" fill="#E12626"/>
</svg>
