<svg width="65" height="28" viewBox="0 0 65 28" fill="none" xmlns="http://www.w3.org/2000/svg">
<path fill-rule="evenodd" clip-rule="evenodd" d="M42.5307 22.0973C41.3388 22.4299 39.7866 22.5685 38.4562 22.5685C34.9916 22.5685 32.7188 20.7669 32.7188 17.4685C32.7188 14.3364 34.853 12.3131 37.9572 12.3131C38.6502 12.3131 39.3986 12.3962 39.842 12.618V8.07227H42.5307V22.0973ZM39.842 14.9462C39.4263 14.7522 38.8442 14.6413 38.179 14.6413C36.5437 14.6413 35.4628 15.6392 35.4628 17.3854C35.4628 19.2424 36.6269 20.2957 38.5393 20.2957C38.8719 20.2957 39.3986 20.2957 39.842 20.1848V14.9462ZM64.6216 22.0973C63.4298 22.4299 61.8776 22.5685 60.5194 22.5685C57.0824 22.5685 54.7819 20.7669 54.7819 17.4685C54.7819 14.3364 56.9161 12.3131 60.0205 12.3131C60.7412 12.3131 61.4618 12.3962 61.9053 12.618V8.07227H64.6216V22.0973ZM61.9053 14.9462C61.4895 14.7522 60.9352 14.6413 60.27 14.6413C58.6069 14.6413 57.5259 15.6392 57.5259 17.3854C57.5259 19.2424 58.7178 20.2957 60.6303 20.2957C60.9629 20.2957 61.4618 20.2957 61.9053 20.1848V14.9462ZM46.7715 14.9462C47.2149 14.7522 47.8524 14.6967 48.3791 14.6967C50.0421 14.6967 51.1786 15.6392 51.1786 17.3299C51.1786 19.3256 49.9036 20.2402 48.2128 20.268V22.5685H48.3514C51.8438 22.5685 53.9226 20.656 53.9226 17.2468C53.9226 14.1424 51.7052 12.3131 48.4345 12.3131C46.7715 12.3131 45.1361 12.7011 44.0551 13.1446V26.3104H46.7715V14.9462Z" fill="black"/>
<path fill-rule="evenodd" clip-rule="evenodd" d="M22.793 5.91016L23.2364 6.40907L23.4859 6.27049L22.793 5.91016Z" fill="#DC0032"/>
<path fill-rule="evenodd" clip-rule="evenodd" d="M22.1289 5.55078L22.9881 6.54862L23.293 6.38231L22.9604 5.99426L22.1289 5.55078Z" fill="#DC0032"/>
<path fill-rule="evenodd" clip-rule="evenodd" d="M21.4336 5.18945L22.7363 6.68621L23.0412 6.5199L22.2928 5.63294L21.4336 5.18945Z" fill="#DC0032"/>
<path fill-rule="evenodd" clip-rule="evenodd" d="M20.7734 4.82812L22.4919 6.8238L22.7968 6.65749L21.605 5.27161L20.7734 4.82812ZM24.0718 8.34823L23.8778 8.4591L24.0718 8.68084V8.34823Z" fill="#DC0032"/>
<path fill-rule="evenodd" clip-rule="evenodd" d="M20.1055 4.46875L22.2397 6.96334L22.5446 6.79703L20.937 4.91223L20.1055 4.46875ZM23.9582 8.40462L23.6533 8.59864L24.0691 9.09756V8.57093L23.9582 8.40462Z" fill="#DC0032"/>
<path fill-rule="evenodd" clip-rule="evenodd" d="M19.4141 4.10938L21.9918 7.10288L22.3244 6.93658L20.2733 4.55286L19.4141 4.10938ZM23.7103 8.54416L23.4054 8.73819L24.0706 9.51428V8.98765L23.7103 8.54416Z" fill="#DC0032"/>
<path fill-rule="evenodd" clip-rule="evenodd" d="M18.7461 3.74805L21.7673 7.24046L22.0722 7.07416L19.5776 4.19152L18.7461 3.74805ZM23.4581 8.70946L23.1532 8.87577L24.0678 9.95676V9.43012L23.4581 8.70946Z" fill="#DC0032"/>
<path fill-rule="evenodd" clip-rule="evenodd" d="M18.082 3.38867L21.519 7.38L21.8239 7.21369L18.9136 3.83215L18.082 3.38867ZM23.2098 8.849L22.9049 9.01531L24.069 10.3735V9.84684L23.2098 8.849Z" fill="#DC0032"/>
<path fill-rule="evenodd" clip-rule="evenodd" d="M17.3906 3.02734L21.2711 7.51759L21.576 7.35128L18.2498 3.47082L17.3906 3.02734ZM22.9618 8.98659L22.6569 9.15289L24.0705 10.7882V10.2616L22.9618 8.98659Z" fill="#DC0032"/>
<path fill-rule="evenodd" clip-rule="evenodd" d="M16.7227 2.66797L21.0189 7.68485L21.3238 7.49082L17.5542 3.11145L16.7227 2.66797ZM22.7096 9.12613L22.4047 9.29244L24.0678 11.2327V10.706L22.7096 9.12613Z" fill="#DC0032"/>
<path fill-rule="evenodd" clip-rule="evenodd" d="M16.0312 2.30664L20.7709 7.82243L21.0758 7.62841L16.8905 2.75012L16.0312 2.30664ZM22.4894 9.26371L22.1568 9.43002L24.0693 11.6474V11.1208L22.4894 9.26371Z" fill="#DC0032"/>
<path fill-rule="evenodd" clip-rule="evenodd" d="M15.3633 1.94727L20.5187 7.96193L20.8513 7.76795L16.2225 2.39074L15.3633 1.94727ZM22.2372 9.40325L21.9323 9.56956L24.0666 12.0919V11.5375L22.2372 9.40325Z" fill="#DC0032"/>
<path fill-rule="evenodd" clip-rule="evenodd" d="M14.6992 1.58594L20.2981 8.09952L20.603 7.9055L15.5307 2.02942L14.6992 1.58594ZM21.9889 9.54084L21.684 9.70715L24.0677 12.5066V11.98L21.9889 9.54084Z" fill="#DC0032"/>
<path fill-rule="evenodd" clip-rule="evenodd" d="M14.0078 1.19922L20.0502 8.23944L20.3551 8.04542L14.8671 1.67042L14.0078 1.19922ZM21.741 9.68076L21.4361 9.84706L24.0693 12.9237V12.3971L21.741 9.68076Z" fill="#DC0032"/>
<path fill-rule="evenodd" clip-rule="evenodd" d="M13.3438 0.837891L19.8019 8.37702L20.1068 8.21072L14.203 1.30909L13.3438 0.837891ZM21.4927 9.81834L21.1878 9.98465L24.0704 13.3662V12.8119L21.4927 9.81834Z" fill="#DC0032"/>
<path fill-rule="evenodd" clip-rule="evenodd" d="M12.6797 0.505859L19.5536 8.51619L19.8585 8.34989L13.5112 0.949339L12.6797 0.505859ZM21.2444 9.95751L20.9395 10.1238L24.0715 13.7825V13.2559L21.2444 9.95751Z" fill="#DC0032"/>
<path fill-rule="evenodd" clip-rule="evenodd" d="M12.2344 0.394531L19.3023 8.65432L19.6072 8.48802L12.8442 0.588553L12.6779 0.505401C12.5393 0.422249 12.4007 0.394531 12.2344 0.394531ZM20.9931 10.0956L20.6882 10.2619L24.0697 14.1978V13.6712L20.9931 10.0956Z" fill="#DC0032"/>
<path fill-rule="evenodd" clip-rule="evenodd" d="M12.235 0.394531C12.1241 0.394531 12.0132 0.422249 11.9023 0.449966L19.0534 8.79291L19.386 8.6266L12.3181 0.394531C12.2904 0.394531 12.2627 0.394531 12.235 0.394531ZM20.7719 10.2342L20.467 10.4005L24.0703 14.6413V14.0869L20.7719 10.2342Z" fill="#DC0032"/>
<path fill-rule="evenodd" clip-rule="evenodd" d="M11.985 0.421875C11.9295 0.449593 11.8464 0.47731 11.8186 0.505027L11.6523 0.58818L18.8311 8.93112L19.136 8.76482L11.985 0.421875ZM20.5219 10.3724L20.217 10.5665L24.0697 15.0567V14.5301L20.5219 10.3724Z" fill="#DC0032"/>
<path fill-rule="evenodd" clip-rule="evenodd" d="M11.7072 0.533203L11.4023 0.699508L18.5811 9.07017L18.886 8.90386L11.7072 0.533203ZM20.2719 10.5115L19.967 10.7055L24.0692 15.4729V14.9463L20.2719 10.5115Z" fill="#DC0032"/>
<path fill-rule="evenodd" clip-rule="evenodd" d="M11.4572 0.671875L11.1523 0.83818L18.3311 9.20884L18.636 9.04254L11.4572 0.671875ZM20.0219 10.6502L19.717 10.8442L24.0687 15.9165V15.3898L20.0219 10.6502Z" fill="#DC0032"/>
<path fill-rule="evenodd" clip-rule="evenodd" d="M11.2072 0.810547L10.9023 0.976853L18.0811 9.34752L18.386 9.18121L11.2072 0.810547ZM19.7719 10.7888L19.467 10.9829L24.0681 16.3323V15.8057L19.7719 10.7888Z" fill="#DC0032"/>
<path fill-rule="evenodd" clip-rule="evenodd" d="M10.9572 0.949219L10.6523 1.11552L17.8312 9.48619L18.136 9.31988L10.9572 0.949219ZM19.5219 10.9275L19.217 11.1215L24.0676 16.7482V16.2215L19.5219 10.9275Z" fill="#DC0032"/>
<path fill-rule="evenodd" clip-rule="evenodd" d="M10.7111 1.08789L10.4062 1.25419L17.5851 9.62486L17.8899 9.45855L10.7111 1.08789ZM19.3035 11.0662L18.9987 11.2602L24.0709 17.1917V16.6651L19.3035 11.0662Z" fill="#DC0032"/>
<path fill-rule="evenodd" clip-rule="evenodd" d="M10.4611 1.19922L10.1562 1.39324L17.3628 9.76391L17.6677 9.5976L10.4611 1.19922ZM19.0535 11.2329L18.7487 11.3993L24.0704 17.608V17.0813L19.0535 11.2329Z" fill="#DC0032"/>
<path fill-rule="evenodd" clip-rule="evenodd" d="M10.2072 1.33789L9.90234 1.5042L17.1089 9.90258L17.4138 9.73628L10.2072 1.33789ZM18.7996 11.3716L18.4947 11.5379L24.066 18.0515V17.4972L18.7996 11.3716Z" fill="#DC0032"/>
<path fill-rule="evenodd" clip-rule="evenodd" d="M9.96114 1.47461L9.65625 1.64092L16.8628 10.067L17.1677 9.87299L9.96114 1.47461ZM18.5535 11.5083L18.2487 11.6746L24.0693 18.4654V17.9388L18.5535 11.5083Z" fill="#DC0032"/>
<path fill-rule="evenodd" clip-rule="evenodd" d="M9.71114 1.61328L9.40625 1.77958L16.6128 10.2057L16.9177 10.0117L9.71114 1.61328ZM18.3035 11.647L17.9987 11.8133L24.0688 18.8812V18.3546L18.3035 11.647Z" fill="#DC0032"/>
<path fill-rule="evenodd" clip-rule="evenodd" d="M9.46114 1.75195L9.15625 1.91826L16.3628 10.3444L16.6677 10.1503L9.46114 1.75195ZM18.0535 11.7857L17.7487 11.952L24.0682 19.3248V18.7705L18.0535 11.7857Z" fill="#DC0032"/>
<path fill-rule="evenodd" clip-rule="evenodd" d="M9.21114 1.89062L8.90625 2.05693L16.1128 10.483L16.4177 10.289L9.21114 1.89062ZM17.8313 11.9244L17.5264 12.0907L24.0677 19.7407V19.214L17.8313 11.9244Z" fill="#DC0032"/>
<path fill-rule="evenodd" clip-rule="evenodd" d="M8.96152 2.00195L8.62891 2.16826L15.8909 10.6221L16.1958 10.4281L8.96152 2.00195ZM17.5817 12.0634L17.2768 12.2297L24.0675 20.1569V19.6303L17.5817 12.0634Z" fill="#DC0032"/>
<path fill-rule="evenodd" clip-rule="evenodd" d="M8.71542 2.14063L8.38281 2.30693L15.6725 10.7885C15.7002 10.733 15.728 10.7053 15.7834 10.6776L15.9497 10.5667L8.71542 2.14063ZM17.3356 12.2021L17.0307 12.3684L24.0155 20.5173C24.0432 20.4341 24.0709 20.351 24.0709 20.2678V20.0461L17.3356 12.2021Z" fill="#DC0032"/>
<path fill-rule="evenodd" clip-rule="evenodd" d="M8.46542 2.2793L8.13281 2.4456L15.5888 11.1212V11.0103C15.5888 10.9271 15.6443 10.8163 15.6997 10.7331L8.46542 2.2793ZM17.0856 12.3407L16.8638 12.4793C16.8361 12.4793 16.8084 12.5071 16.7807 12.5071L23.8763 20.7946C23.9595 20.6837 24.0149 20.5728 24.0426 20.462L17.0856 12.3407Z" fill="#DC0032"/>
<path fill-rule="evenodd" clip-rule="evenodd" d="M8.21539 2.41797L7.88281 2.58427L15.5882 11.5647V11.0104L8.21539 2.41797ZM16.3089 12.3685L23.6817 20.9887C23.7649 20.9332 23.848 20.8224 23.9312 20.7392L16.8355 12.4794C16.7247 12.5349 16.5584 12.5349 16.4475 12.4794L16.3089 12.3685Z" fill="#DC0032"/>
<path fill-rule="evenodd" clip-rule="evenodd" d="M7.96539 2.55664L7.63281 2.72294L23.4317 21.1273L23.6535 21.0165C23.6812 20.9887 23.7089 20.961 23.7366 20.9333L16.4747 12.4795H16.4469L15.8094 12.0915C15.754 12.0637 15.7263 12.0083 15.6709 11.9529C15.6154 11.8697 15.6154 11.8143 15.5877 11.7588V11.454L7.96539 2.55664Z" fill="#DC0032"/>
<path fill-rule="evenodd" clip-rule="evenodd" d="M7.71542 2.69531L7.38281 2.86162L23.1817 21.266L23.4866 21.0997L7.71542 2.69531Z" fill="#DC0032"/>
<path fill-rule="evenodd" clip-rule="evenodd" d="M7.46542 2.80664L7.13281 2.97295L22.9595 21.4051L23.2643 21.2388L7.46542 2.80664Z" fill="#DC0032"/>
<path fill-rule="evenodd" clip-rule="evenodd" d="M7.21542 2.94531L6.88281 3.11162L22.7095 21.5437L23.0143 21.3774L7.21542 2.94531Z" fill="#DC0032"/>
<path fill-rule="evenodd" clip-rule="evenodd" d="M6.96933 3.08398L6.63672 3.25029L22.4634 21.6824L22.7683 21.5161L6.96933 3.08398Z" fill="#DC0032"/>
<path fill-rule="evenodd" clip-rule="evenodd" d="M6.69161 3.22266L6.38672 3.38896L22.2134 21.8488L22.5183 21.6548L6.69161 3.22266Z" fill="#DC0032"/>
<path fill-rule="evenodd" clip-rule="evenodd" d="M6.44161 3.35938L6.13672 3.52568L21.9634 21.9855L22.2683 21.7915L6.44161 3.35938Z" fill="#DC0032"/>
<path fill-rule="evenodd" clip-rule="evenodd" d="M6.19161 3.5L5.88672 3.6663L21.7411 22.1261L22.046 21.9321L6.19161 3.5Z" fill="#DC0032"/>
<path fill-rule="evenodd" clip-rule="evenodd" d="M5.94161 3.60938L5.63672 3.77568L21.4911 22.2632L21.796 22.0692L5.94161 3.60938Z" fill="#DC0032"/>
<path fill-rule="evenodd" clip-rule="evenodd" d="M5.69161 3.74805L5.38672 3.91435L21.2411 22.4019L21.546 22.2356L5.69161 3.74805Z" fill="#DC0032"/>
<path fill-rule="evenodd" clip-rule="evenodd" d="M5.44161 3.88672L5.13672 4.05302L12.8422 13.0335L13.0916 13.1998C13.2025 13.2552 13.3134 13.3938 13.3134 13.5324V13.5601L20.9911 22.5406L21.296 22.3743L5.44161 3.88672Z" fill="#DC0032"/>
<path fill-rule="evenodd" clip-rule="evenodd" d="M5.19161 4.02539L4.88672 4.19169L12.121 12.6455L13.0356 13.1444L5.19161 4.02539ZM13.2851 13.4493C13.2851 13.477 13.3128 13.5047 13.3128 13.5325V14.0037L20.7411 22.6793L21.046 22.513L13.2851 13.4493Z" fill="#DC0032"/>
<path fill-rule="evenodd" clip-rule="evenodd" d="M4.94552 4.16406L4.64062 4.33037L11.4037 12.2299L12.3184 12.7288L4.94552 4.16406ZM13.3162 13.8929V14.4195L20.5227 22.8179L20.8276 22.6516L13.3162 13.8929Z" fill="#DC0032"/>
<path fill-rule="evenodd" clip-rule="evenodd" d="M4.69552 4.30273L4.39062 4.46904L10.7102 11.8142L11.5972 12.3131L4.69552 4.30273ZM13.3156 14.3087V14.8631L20.2727 22.9566L20.5776 22.7903L13.3156 14.3087Z" fill="#DC0032"/>
<path fill-rule="evenodd" clip-rule="evenodd" d="M4.44552 4.41406L4.14062 4.58037L9.98902 11.3989L10.876 11.9255L4.44552 4.41406ZM13.3151 14.7527V15.2793L20.0227 23.0956L20.3276 22.9293L13.3151 14.7527Z" fill="#DC0032"/>
<path fill-rule="evenodd" clip-rule="evenodd" d="M4.19551 4.55078L3.89062 4.71709L9.2678 10.9812L10.1548 11.5079L4.19551 4.55078ZM13.3145 15.1666V15.6932L19.7727 23.2323L20.0776 23.066L13.3145 15.1666Z" fill="#DC0032"/>
<path fill-rule="evenodd" clip-rule="evenodd" d="M3.94552 4.69141L3.64062 4.85771L8.5466 10.5952L9.43356 11.0941L3.94552 4.69141ZM13.314 15.5844V16.1387L19.5227 23.4007L19.8276 23.2067L13.314 15.5844Z" fill="#DC0032"/>
<path fill-rule="evenodd" clip-rule="evenodd" d="M3.69552 4.82812L3.39062 4.99443L7.82544 10.1776L8.71236 10.6765L3.69552 4.82812ZM13.3135 16.026V16.5526L19.3004 23.5374L19.6053 23.3434L13.3135 16.026Z" fill="#DC0032"/>
<path fill-rule="evenodd" clip-rule="evenodd" d="M3.44942 4.96875L3.14453 5.13506L7.10814 9.76387L8.02278 10.2628L3.44942 4.96875ZM13.3168 16.4438V16.9704L19.0543 23.678L19.3592 23.484L13.3168 16.4438Z" fill="#DC0032"/>
<path fill-rule="evenodd" clip-rule="evenodd" d="M3.19942 5.10547L2.89453 5.27177L6.38694 9.34623L7.30162 9.87287L3.19942 5.10547ZM10.4614 14.0859L11.1821 14.9174V14.6126C11.1821 14.5571 11.1266 14.474 11.0712 14.4462L10.4614 14.0859ZM13.3163 16.8577V17.412L18.8043 23.8147L19.1092 23.6207L13.3163 16.8577Z" fill="#DB0032"/>
<path fill-rule="evenodd" clip-rule="evenodd" d="M2.94942 5.2168L2.64453 5.3831L5.66573 8.93093L6.58042 9.45756L2.94942 5.2168ZM9.74019 13.6706L11.1815 15.3337V14.807L10.6549 14.1972L9.74019 13.6706ZM13.3157 17.3016V17.8283L18.5543 23.9538L18.8592 23.7875L13.3157 17.3016Z" fill="#DC0032"/>
<path fill-rule="evenodd" clip-rule="evenodd" d="M2.69942 5.35547L2.39453 5.52177L4.97225 8.54296L5.85922 9.04188L2.69942 5.35547ZM9.01899 13.2826L11.181 15.7772V15.2506L9.93368 13.7816L9.01899 13.2826ZM13.3152 17.7175V18.2441L18.3043 24.0925L18.6092 23.9262L13.3152 17.7175Z" fill="#DC0032"/>
<path fill-rule="evenodd" clip-rule="evenodd" d="M2.44942 5.49414L2.14453 5.66045L4.25105 8.12728L5.13801 8.6262L2.44942 5.49414ZM8.32551 12.867L11.1804 16.1931V15.6664L9.21247 13.3659L8.32551 12.867ZM13.3147 18.161V18.6876L18.0821 24.2311L18.3869 24.0648L13.3147 18.161Z" fill="#DC0032"/>
<path fill-rule="evenodd" clip-rule="evenodd" d="M2.19942 5.63281L1.89453 5.79912L3.52986 7.71164L4.41681 8.21052L2.19942 5.63281ZM7.60434 12.4513L11.1799 16.6089V16.0823L8.49127 12.9779L7.60434 12.4513ZM13.3141 18.5768V19.1035L17.8321 24.3698L18.1369 24.2035L13.3141 18.5768Z" fill="#DC0032"/>
<path fill-rule="evenodd" clip-rule="evenodd" d="M1.94942 5.77148L1.64453 5.93779L2.80866 7.29596L3.69562 7.82259L1.94942 5.77148ZM6.88314 12.0356L11.1793 17.0525V16.5259L7.77011 12.5623L6.88314 12.0356ZM13.3136 18.9927V19.5193L17.5821 24.5085L17.8869 24.3422L13.3136 18.9927Z" fill="#DC0032"/>
<path fill-rule="evenodd" clip-rule="evenodd" d="M1.69942 5.91016L1.39453 6.07646L2.08747 6.88027L3.00214 7.40691L1.69942 5.91016ZM6.16194 11.6477L11.1788 17.4683V16.9417L7.04891 12.1466L6.16194 11.6477ZM13.313 19.4363V19.9629L17.3321 24.6471L17.637 24.4808L13.313 19.4363Z" fill="#DC0032"/>
<path fill-rule="evenodd" clip-rule="evenodd" d="M1.4498 6.02148L1.11719 6.18779L1.36664 6.49269L2.28132 6.9916L1.4498 6.02148ZM5.44111 11.2324L11.1786 17.9123V17.3579L6.35579 11.7313L5.44111 11.2324ZM13.3129 19.8525V20.3791L17.0825 24.8139L17.3873 24.6199L13.3129 19.8525Z" fill="#DC0032"/>
<path fill-rule="evenodd" clip-rule="evenodd" d="M1.20183 6.16016L1.00781 6.27103L1.56216 6.57592L1.20183 6.16016ZM4.72195 10.8167L11.1801 18.3281V17.8015L5.63663 11.3433L4.72195 10.8167ZM13.3143 20.2683V20.8227L16.8622 24.9526L17.1671 24.7586L13.3143 20.2683Z" fill="#DC0032"/>
<path fill-rule="evenodd" clip-rule="evenodd" d="M4.02734 10.4004L11.1785 18.7433V18.2167L4.9143 10.927L4.02734 10.4004ZM13.3127 20.7113V21.2379L16.6111 25.0906L16.916 24.8966L13.3127 20.7113Z" fill="#DC0032"/>
<path fill-rule="evenodd" clip-rule="evenodd" d="M3.30859 10.0117L11.1804 19.1862V18.6318L4.19554 10.5106L3.30859 10.0117ZM13.3146 21.1264V21.6531L16.3635 25.2286L16.6684 25.0346L13.3146 21.1264Z" fill="#DC0032"/>
<path fill-rule="evenodd" clip-rule="evenodd" d="M2.58984 9.59766L11.1823 19.6037V19.077L3.4768 10.0966L2.58984 9.59766ZM13.3165 21.5439V22.0982L16.116 25.3689L16.4209 25.2026L13.3165 21.5439Z" fill="#DC0032"/>
<path fill-rule="evenodd" clip-rule="evenodd" d="M1.86719 9.18164L11.1803 20.0192V19.4925L2.75415 9.70828L1.86719 9.18164ZM13.3145 21.9871V22.5138L15.8645 25.5072L16.1694 25.3409L13.3145 21.9871Z" fill="#DB0032"/>
<path fill-rule="evenodd" clip-rule="evenodd" d="M1.14844 8.76562L11.1822 20.4624V19.9358L2.0354 9.29226L1.14844 8.76562ZM13.3164 22.4026V22.9292L15.6447 25.6456L15.9496 25.4793L13.3164 22.4026Z" fill="#DA0032"/>
<path fill-rule="evenodd" clip-rule="evenodd" d="M0.425781 8.37695L11.1802 20.8775V20.3509L1.34046 8.87587L0.425781 8.37695ZM13.3144 22.8178V23.3721L15.3932 25.7835L15.6981 25.6172L13.3144 22.8178Z" fill="#D90032"/>
<path fill-rule="evenodd" clip-rule="evenodd" d="M0.398438 8.34961V8.73766L11.1805 21.2937V20.7671L0.620177 8.46048L0.398438 8.34961ZM13.3148 23.2616V23.5942C13.3148 23.6496 13.287 23.7051 13.2593 23.7328L15.1441 25.9225L15.449 25.7562L13.3148 23.2616Z" fill="#D80032"/>
<path fill-rule="evenodd" clip-rule="evenodd" d="M0.398438 8.62695V9.18131L11.1805 21.7373V21.2107L0.398438 8.62695ZM13.287 23.6775C13.2593 23.7884 13.1762 23.8993 13.093 23.927L13.0653 23.9547L14.8947 26.0613L15.1996 25.8949L13.287 23.6775Z" fill="#D70032"/>
<path fill-rule="evenodd" clip-rule="evenodd" d="M0.398438 9.07031V9.59695L11.1805 22.153V21.6263L0.398438 9.07031ZM13.1207 23.8992C13.1207 23.9269 13.1207 23.9269 13.093 23.9269L12.8159 24.0932L14.6452 26.1997L14.9501 26.0334L13.1207 23.8992Z" fill="#D60032"/>
<path fill-rule="evenodd" clip-rule="evenodd" d="M0.398438 9.48633V10.013L11.1805 22.569V22.0424L0.398438 9.48633ZM12.899 24.038L12.5664 24.232L14.4235 26.3663L14.7284 26.1723L12.899 24.038Z" fill="#D50032"/>
<path fill-rule="evenodd" clip-rule="evenodd" d="M0.398438 9.92969V10.4563L11.1805 23.0123V22.4857L0.398438 9.92969ZM12.6496 24.1765L12.4555 24.2873C12.4001 24.315 12.3447 24.3151 12.2892 24.3151L14.174 26.5047L14.4789 26.3107L12.6496 24.1765Z" fill="#D40032"/>
<path fill-rule="evenodd" clip-rule="evenodd" d="M0.398438 10.3457V10.8723L11.1805 23.4283V22.9017L0.398438 10.3457ZM11.7903 24.1767L13.9245 26.6436L14.2294 26.4496L12.3724 24.3153C12.3447 24.3153 12.2892 24.343 12.2615 24.343H12.2338C12.1507 24.343 12.0952 24.3153 12.0398 24.2876L11.7903 24.1767Z" fill="#D30032"/>
<path fill-rule="evenodd" clip-rule="evenodd" d="M0.398438 10.7617V11.3161L13.6751 26.7824L13.98 26.5884L11.9843 24.2601L11.3746 23.9275C11.2637 23.8721 11.1805 23.7335 11.1805 23.5949V23.3177L0.398438 10.7617Z" fill="#D20032"/>
<path fill-rule="evenodd" clip-rule="evenodd" d="M0.398438 11.2051V11.7317L13.4256 26.9209L13.7305 26.7546L0.398438 11.2051Z" fill="#D10032"/>
<path fill-rule="evenodd" clip-rule="evenodd" d="M0.398438 11.6211V12.1477L13.1762 27.0597L13.4811 26.8934L0.398438 11.6211Z" fill="#D00032"/>
<path fill-rule="evenodd" clip-rule="evenodd" d="M0.398438 12.0352V12.5895L12.9544 27.1966L13.2593 27.0303L0.398438 12.0352Z" fill="#CF0032"/>
<path fill-rule="evenodd" clip-rule="evenodd" d="M0.398438 12.4785V13.0051L12.705 27.3351L13.0099 27.1688L0.398438 12.4785Z" fill="#CE0032"/>
<path fill-rule="evenodd" clip-rule="evenodd" d="M0.398438 12.8945V13.4212L12.4278 27.4462C12.511 27.4185 12.5941 27.3908 12.6773 27.3631L12.7604 27.3076L0.398438 12.8945Z" fill="#CD0032"/>
<path fill-rule="evenodd" clip-rule="evenodd" d="M0.398438 13.3105V13.8649L12.0675 27.4465C12.1229 27.4465 12.1784 27.4465 12.2338 27.4465C12.317 27.4465 12.4001 27.4465 12.4833 27.4188L0.398438 13.3105Z" fill="#CC0032"/>
<path fill-rule="evenodd" clip-rule="evenodd" d="M0.398438 13.7539V14.2805L11.43 27.1415L11.818 27.3632C11.9012 27.4186 12.0398 27.4464 12.1507 27.4464L0.398438 13.7539Z" fill="#CB0032"/>
<path fill-rule="evenodd" clip-rule="evenodd" d="M0.398438 14.1699V14.6966L10.7093 26.726L11.624 27.2526L0.398438 14.1699Z" fill="#CA0032"/>
<path fill-rule="evenodd" clip-rule="evenodd" d="M0.398438 14.6133V15.1399L9.98868 26.3101L10.9034 26.8367L0.398438 14.6133Z" fill="#C90032"/>
<path fill-rule="evenodd" clip-rule="evenodd" d="M0.398438 15.0293V15.5559L9.26802 25.8945L10.155 26.4212L0.398438 15.0293Z" fill="#C80033"/>
<path fill-rule="evenodd" clip-rule="evenodd" d="M0.398438 15.4453V15.9719L8.54736 25.479L9.43432 26.0057L0.398438 15.4453Z" fill="#C70033"/>
<path fill-rule="evenodd" clip-rule="evenodd" d="M0.398438 15.8887V16.4153L7.79902 25.0354L8.71366 25.5621L0.398438 15.8887Z" fill="#C60033"/>
<path fill-rule="evenodd" clip-rule="evenodd" d="M0.398438 16.3047V16.8313L7.07836 24.6199L7.993 25.1465L0.398438 16.3047Z" fill="#C50033"/>
<path fill-rule="evenodd" clip-rule="evenodd" d="M0.398438 16.7188V17.2454L6.3577 24.2024L7.27238 24.7291L0.398438 16.7188Z" fill="#C40033"/>
<path fill-rule="evenodd" clip-rule="evenodd" d="M0.398438 17.1641V17.6907L5.63704 23.7885L6.55172 24.3151L0.398438 17.1641Z" fill="#C30033"/>
<path fill-rule="evenodd" clip-rule="evenodd" d="M0.398438 17.5781V18.1047L4.91638 23.371L5.83106 23.8977L0.398438 17.5781Z" fill="#C20033"/>
<path fill-rule="evenodd" clip-rule="evenodd" d="M0.398438 17.9941V18.5485L4.19572 22.9556L5.08269 23.4822L0.398438 17.9941Z" fill="#C10033"/>
<path fill-rule="evenodd" clip-rule="evenodd" d="M0.398438 18.4395V18.9661L3.44736 22.5417L4.36203 23.0683L0.398438 18.4395Z" fill="#C00033"/>
<path fill-rule="evenodd" clip-rule="evenodd" d="M0.398438 18.8535V19.3802L2.7267 22.1242L3.64138 22.6231L0.398438 18.8535Z" fill="#BF0033"/>
<path fill-rule="evenodd" clip-rule="evenodd" d="M0.398438 19.2695V19.8239L2.00605 21.681L2.92073 22.2076L0.398438 19.2695Z" fill="#BE0033"/>
<path fill-rule="evenodd" clip-rule="evenodd" d="M0.398438 19.7129V20.2395L1.2854 21.2651L2.20007 21.7917L0.398438 19.7129Z" fill="#BD0033"/>
<path fill-rule="evenodd" clip-rule="evenodd" d="M0.398438 20.1289V20.2675C0.398438 20.5447 0.59246 20.8773 0.814199 21.0159L1.47942 21.3762L0.398438 20.1289Z" fill="#BC0033"/>
<path fill-rule="evenodd" clip-rule="evenodd" d="M0.566406 20.7676C0.621456 20.8226 0.648981 20.8777 0.704031 20.9052L0.566406 20.7676Z" fill="#BB0033"/>
</svg>
