<svg width="68" height="16" viewBox="0 0 68 16" fill="none" xmlns="http://www.w3.org/2000/svg">
<path d="M2.77365 6.93749V5.40989H3.36995C3.81885 5.40989 4.49555 5.49699 4.49555 6.13684C4.49555 6.72644 4.1371 6.93749 3.648 6.93749H2.77365ZM2.77365 10.6761V8.53878H3.8356C5.68479 8.53878 6.50554 7.60414 6.50554 6.12679C6.50554 4.71644 5.61109 3.80859 3.76525 3.80859H0.666504V10.6761H2.77365Z" fill="#ED1B2E"/>
<path d="M9.01453 6.87041C9.49693 6.84026 9.80178 7.39636 9.80178 8.13C9.80178 9.0747 9.50028 9.4834 8.99779 9.4834C8.52544 9.4834 8.19379 9.0747 8.19379 8.13C8.19379 7.56721 8.38139 6.87041 9.01453 6.87041ZM6.33789 8.23385C6.33789 9.94235 7.49699 10.82 8.99779 10.82C10.4986 10.82 11.6577 9.96245 11.6577 8.13C11.6577 6.57561 10.6393 5.53711 8.98774 5.53711C7.40989 5.53711 6.33789 6.49856 6.33789 8.23385Z" fill="#ED1B2E"/>
<path d="M13.4632 9.1216C13.4632 9.3226 13.5335 9.47335 13.6575 9.5772C13.7747 9.671 13.9355 9.7313 14.1131 9.7313C14.3978 9.7313 14.7027 9.63415 14.7027 9.2824C14.7027 8.48175 11.8385 9.11825 11.8385 7.18531C11.8385 5.90896 13.078 5.53711 14.0528 5.53711C15.0712 5.53711 16.2671 5.78501 16.3743 7.11161H14.6859C14.6692 6.94746 14.6055 6.83356 14.5084 6.74981C14.4112 6.66271 14.2772 6.62586 14.1332 6.62586C13.8116 6.62586 13.6072 6.72971 13.6072 6.97761C13.6072 7.6744 16.5619 7.20541 16.5619 9.0747C16.5619 10.1132 15.7579 10.82 14.0461 10.82C12.9741 10.82 11.7949 10.4683 11.6978 9.1216H13.4632Z" fill="#ED1B2E"/>
<path d="M19.9693 10.6762C17.5305 10.8202 17.2391 10.6393 17.2391 8.91074V6.8237H16.5791V5.68135H17.2658V4.93095L19.0949 4.12695V5.68135H19.9894V6.8237H19.0949V8.63604C19.0949 9.09499 19.1586 9.25579 19.6745 9.25579H19.9693V10.6762Z" fill="#ED1B2E"/>
<path d="M26.3877 5.3053C27.3156 5.2785 27.6741 6.2701 27.6741 7.20475C27.6741 8.34039 27.3156 9.17789 26.4044 9.17789C25.3961 9.17789 25.1448 8.08244 25.1448 7.20475C25.1482 6.3371 25.4329 5.3053 26.3877 5.3053ZM26.4078 3.62695C24.4078 3.62695 23.041 5.02725 23.041 7.18465C23.041 9.51959 24.3877 10.8562 26.4078 10.8562C28.3106 10.8562 29.7812 9.53969 29.7812 7.20475C29.7812 5.3924 28.7025 3.62695 26.4078 3.62695Z" fill="#ED1B2E"/>
<path d="M33.2754 5.67715V6.8195H32.4982V10.672H30.6423V6.8195H30.0259V5.67715H30.6523C30.6523 3.9117 31.2955 3.62695 32.4814 3.62695H33.2754V4.8765C32.669 4.8765 32.4546 4.8765 32.4982 5.67715H33.2754Z" fill="#ED1B2E"/>
<path d="M36.8935 5.67715V6.8195H36.1163V10.672H34.2604V6.8195H33.644V5.67715H34.2671C34.2671 3.9117 34.9103 3.62695 36.0962 3.62695H36.8902V4.8765C36.2805 4.8765 36.0694 4.8765 36.113 5.67715H36.8935Z" fill="#ED1B2E"/>
<path d="M37.6333 5.67715H39.4892V10.6753H37.6333V5.67715ZM37.6333 3.62695H39.4892V5.0373H37.6333V3.62695Z" fill="#ED1B2E"/>
<path d="M43.2816 7.58731C43.2716 7.36956 43.2012 7.19536 43.084 7.07141C42.9667 6.93741 42.8059 6.87041 42.6016 6.87041C41.9048 6.87041 41.7909 7.64425 41.7909 8.23385C41.7909 8.9876 42.0589 9.4834 42.6016 9.4834C43.084 9.4834 43.2716 9.13165 43.3252 8.7397H45.1978C45.037 10.2539 43.8947 10.82 42.6016 10.82C41.0907 10.82 39.9316 9.91555 39.9316 8.22715C39.9316 6.51866 41.0572 5.53711 42.6016 5.53711C43.8511 5.53711 45.0303 6.10996 45.1643 7.58731H43.2816Z" fill="#ED1B2E"/>
<path d="M47.1611 7.61355C47.1611 7.0809 47.4726 6.7459 48.0254 6.7459C48.4642 6.7459 48.8495 7.1546 48.8495 7.61355H47.1611ZM50.7054 8.62525C50.7322 6.8129 49.687 5.5332 47.955 5.5332C46.4542 5.5332 45.3052 6.58175 45.3052 8.22325C45.3052 9.90159 46.4676 10.8161 47.9651 10.8161C49.0538 10.8161 50.233 10.4041 50.5546 9.16795H48.7791C48.6451 9.46275 48.3771 9.60679 48.0823 9.60679C47.5899 9.60679 47.1644 9.21485 47.1644 8.62525H50.7054Z" fill="#ED1B2E"/>
<path d="M51.1978 5.86917L60.4437 13.2191L58.7285 5.82227L51.1978 5.86917Z" fill="#ED1B2E"/>
<path d="M51.3286 5.20602L57.8042 1.85938L58.5512 5.25292L51.3286 5.20602Z" fill="#ED1B2E"/>
<path d="M59.4756 5.91272L61.7234 13.2191L67.5792 5.82227L59.4756 5.91272Z" fill="#ED1B2E"/>
<path d="M67.6663 5.69135L57.9346 1.77186L65.9478 0.539062L67.6663 5.69135Z" fill="#006BB6"/>
<path d="M24.3476 14.0554C24.3576 14.5345 24.6323 14.712 25.0879 14.712C25.4732 14.712 25.9422 14.5981 25.9422 14.1258C25.9422 13.7975 25.6708 13.6635 25.3894 13.6065C24.8333 13.4859 23.9054 13.3586 23.9054 12.5982C23.9054 11.8612 24.5754 11.5898 25.2085 11.5898C25.7847 11.5898 26.3509 11.8478 26.3509 12.5044H25.8584C25.8417 12.1258 25.5201 11.9952 25.1851 11.9952C24.8534 11.9952 24.3978 12.1158 24.3978 12.5211C24.3978 12.9064 24.6692 12.9298 24.964 13.0236C25.5871 13.2246 26.4346 13.2246 26.4346 14.0755C26.4346 14.8427 25.7445 15.114 25.0611 15.114C24.3543 15.114 23.8384 14.8159 23.8585 14.0554H24.3476Z" fill="#ED1B2E"/>
<path d="M29.2957 13.8692C29.2957 14.5995 28.897 15.1154 28.1232 15.1154C27.3493 15.1154 26.9507 14.5995 26.9507 13.8692C26.9507 13.1389 27.3493 12.623 28.1232 12.623C28.897 12.623 29.2957 13.1389 29.2957 13.8692ZM28.1232 14.7905C28.6525 14.7905 28.8267 14.3684 28.8267 13.8692C28.8267 13.3667 28.6525 12.948 28.1232 12.948C27.5939 12.948 27.4197 13.3701 27.4197 13.8692C27.4197 14.3717 27.5939 14.7905 28.1232 14.7905Z" fill="#ED1B2E"/>
<path d="M31.5231 12.6934H31.9686V15.0451H31.5331V14.7H31.5231C31.3455 14.9948 31.044 15.1154 30.7157 15.1154C30.2233 15.1154 29.9419 14.7402 29.9419 14.2679V12.6934H30.3874V14.0836C30.3874 14.4923 30.4812 14.7905 30.9067 14.7905C31.0909 14.7905 31.3388 14.6967 31.4326 14.4521C31.5164 14.231 31.5231 13.9563 31.5231 13.8994V12.6934Z" fill="#ED1B2E"/>
<path d="M32.8029 12.692V12.1895L33.2484 12.0488V12.692L33.7911 12.6786V13.0103L33.2484 13.0069V14.5245C33.2484 14.692 33.3791 14.7724 33.5399 14.7724C33.6102 14.7724 33.704 14.7623 33.7744 14.7456V15.0873C33.6705 15.0906 33.5734 15.1141 33.4695 15.1141C33.3623 15.1141 33.2786 15.1107 33.168 15.0906C33.0977 15.0772 32.9804 15.0404 32.9067 14.9365C32.8263 14.8226 32.8029 14.8159 32.8029 14.501V13.0069L32.4009 13.0103V12.6786L32.8029 12.692Z" fill="#ED1B2E"/>
<path d="M34.3101 15.0436V11.6602H34.7556V13.0035H34.7657C34.9332 12.7422 35.1878 12.6183 35.5295 12.6183C36.1425 12.6183 36.3368 13.027 36.3368 13.4491V15.0403H35.8913V13.6501C35.8913 13.238 35.7841 12.97 35.3653 12.96C35.1878 12.9566 34.9164 13.0906 34.8327 13.2883C34.7288 13.5328 34.759 13.7003 34.759 13.831V15.0403H34.3101V15.0436Z" fill="#ED1B2E"/>
<path d="M38.0391 15.0436L39.4628 11.6602H39.9653L41.3321 15.0436H40.8229L40.4578 14.1626H38.8866L38.5215 15.0436H38.0391ZM39.0474 13.7606H40.307L39.694 12.1258L39.0474 13.7606Z" fill="#ED1B2E"/>
<path d="M41.8881 15.0442V13.0007H41.4292V12.6925H41.8881V12.2436C41.9015 11.7277 42.2901 11.5938 42.6251 11.5938C42.7323 11.5938 42.8362 11.6205 42.9434 11.6406V12.0091C42.8697 12.0058 42.7926 11.9957 42.7189 11.9957C42.4643 11.9957 42.3203 12.0627 42.3337 12.3207V12.6959H42.8764V13.0041H42.3337V15.0476H41.8881V15.0442Z" fill="#ED1B2E"/>
<path d="M43.7644 15.0454H43.3188V12.6937H43.7644V13.1493H43.7744C43.8414 12.8243 44.1396 12.6602 44.4645 12.6602C44.5215 12.6602 44.5684 12.6635 44.6186 12.6635V13.0856C44.5583 13.0622 44.488 13.0622 44.4277 13.0622C43.8649 13.0823 43.7677 13.3804 43.7677 13.8762V15.0454H43.7644Z" fill="#ED1B2E"/>
<path d="M45.0674 11.6602H45.5967V12.1426H45.0674V11.6602ZM45.1109 12.692H45.5565V15.0436H45.1109V12.692Z" fill="#ED1B2E"/>
<path d="M47.6772 13.446C47.6538 13.1512 47.5131 12.9435 47.1948 12.9435C46.7694 12.9435 46.6052 13.312 46.6052 13.8648C46.6052 14.4175 46.7694 14.786 47.1948 14.786C47.4896 14.786 47.6739 14.5951 47.6973 14.2567H48.1429C48.106 14.786 47.7107 15.111 47.1915 15.111C46.4377 15.111 46.1362 14.5783 46.1362 13.8815C46.1362 13.1948 46.4846 12.6152 47.2283 12.6152C47.7241 12.6152 48.0993 12.9301 48.1228 13.4393H47.6772V13.446Z" fill="#ED1B2E"/>
<path d="M50.0623 13.5912C50.0623 13.1858 50.0389 12.9446 49.5665 12.9446C49.3421 12.9446 49.131 13.0753 49.1243 13.3198H48.6553C48.6788 12.8039 49.0808 12.623 49.5464 12.623C50.0288 12.623 50.5079 12.7671 50.5079 13.4237V14.5493C50.5079 14.6531 50.5112 14.8508 50.5246 15.0451H50.2265C50.1829 15.0451 50.1059 15.0685 50.0992 15.0116C50.0891 14.9044 50.0791 14.8005 50.0757 14.6933H50.0657C49.9216 14.9881 49.657 15.1154 49.3354 15.1154C48.9267 15.1154 48.5146 14.9044 48.5146 14.4454C48.5146 13.7855 49.1009 13.5912 49.657 13.5912H50.0623ZM49.6168 13.9027C49.3454 13.9161 48.9836 14.0166 48.9836 14.3583C48.9836 14.6498 49.1846 14.7938 49.4459 14.7938C49.9719 14.7938 50.069 14.3382 50.059 13.9027H49.6168Z" fill="#ED1B2E"/>
</svg>
