<svg width="71" height="22" viewBox="0 0 71 22" fill="none" xmlns="http://www.w3.org/2000/svg">
<path fill-rule="evenodd" clip-rule="evenodd" d="M63.8824 20.8052L61.0388 17.6163L58.2218 20.8052H52.2949L58.0873 14.2943L52.2949 7.78347H58.4073L61.278 10.9462L64.0417 7.78347H69.9406L64.1744 14.2673L70.0214 20.8052H63.8824ZM40.9062 20.8052V0.291016H52.2949V4.86397H45.7295V7.78347H52.2949V12.182H45.7295V16.2203H52.2949V20.8052H40.9062Z" fill="#FF7A08"/>
<path fill-rule="evenodd" clip-rule="evenodd" d="M36.1046 0.291016V8.68652H36.05C34.9868 7.46396 33.6586 7.03928 32.1174 7.03928C28.9335 7.03928 26.5673 9.23235 25.7521 12.1061C24.8145 8.93725 22.364 6.98026 18.695 6.98026C15.7161 6.98026 13.3956 8.34571 12.1837 10.5379V7.78302H6.07136V4.86353H12.7424V0.291016H0.621094V20.8052H6.07136V12.182H11.5341C11.3694 12.8202 11.2545 13.4871 11.2545 14.21C11.2545 18.4892 14.5223 21.4926 18.695 21.4926C22.2043 21.4926 24.5163 19.8449 25.7397 16.842H21.0696C20.4381 17.7459 19.958 18.0122 18.6946 18.0122C17.2306 18.0122 15.9681 16.7355 15.9681 15.22H25.5036C25.9186 18.6161 28.5385 21.5503 32.1702 21.5503C33.7381 21.5503 35.1736 20.7808 36.05 19.4779H36.1046V20.8056H40.907V0.291016H36.1046ZM16.1203 12.2433C16.4225 10.9399 17.433 10.0892 18.6946 10.0892C20.0844 10.0892 21.0434 10.9151 21.2955 12.2433H16.1203ZM33.1882 17.6824C31.4176 17.6824 30.3176 16.0317 30.3176 14.3103C30.3176 12.4687 31.2739 10.6981 33.1882 10.6981C35.1736 10.6981 35.9631 12.4687 35.9631 14.3103C35.9631 16.0561 35.1253 17.6824 33.1882 17.6824Z" fill="black"/>
</svg>
