<svg width="42" height="27" viewBox="0 0 42 27" fill="none" xmlns="http://www.w3.org/2000/svg">
<rect x="0.5" y="0.5" width="41" height="26" rx="6.5" stroke="#C2C2C2"/>
<path d="M20.5962 13.3954V17.2304H19.3594V7.74609H22.5762C23.3593 7.74609 24.1012 8.0342 24.6793 8.57045C25.2568 9.0648 25.5456 9.8073 25.5456 10.5911C25.5456 11.3748 25.2575 12.0754 24.6793 12.6117C24.1018 13.1479 23.4012 13.436 22.5762 13.436L20.5962 13.3954ZM20.5962 8.90045V12.1998H22.6587C23.1125 12.1998 23.5662 12.0342 23.855 11.7054C24.515 11.0873 24.515 10.0561 23.8956 9.43734L23.855 9.39545C23.525 9.06545 23.1125 8.8592 22.6587 8.90109H20.5962V8.90045Z" fill="#C2C2C2"/>
<path d="M28.3918 10.5508C29.2993 10.5508 29.9999 10.7976 30.5362 11.2933C31.0724 11.7876 31.3193 12.4476 31.3193 13.2726V17.232H30.1649V16.3245H30.1243C29.63 17.067 28.9281 17.4382 28.1037 17.4382C27.4031 17.4382 26.7837 17.232 26.2894 16.8201C25.8356 16.4076 25.5469 15.8301 25.5469 15.212C25.5469 14.552 25.7944 14.0171 26.2894 13.6039C26.7837 13.1914 27.4843 13.0264 28.31 13.0264C29.0525 13.0264 29.63 13.1502 30.0831 13.4389V13.1508C30.0831 12.7383 29.9187 12.3265 29.5887 12.0783C29.2587 11.7902 28.8462 11.6246 28.3925 11.6246C27.6919 11.6246 27.1556 11.9127 26.7844 12.4908L25.7119 11.8308C26.3712 10.9626 27.2375 10.5508 28.3918 10.5508ZM26.825 15.2513C26.825 15.5813 26.9893 15.8695 27.2375 16.0345C27.5256 16.2407 27.8556 16.3645 28.1856 16.3645C28.6799 16.3645 29.1756 16.1582 29.5462 15.7876C29.9587 15.4157 30.1643 14.9632 30.1643 14.4676C29.7937 14.1795 29.2568 14.0138 28.5562 14.0138C28.0618 14.0138 27.6487 14.1376 27.3193 14.3845C26.9893 14.5913 26.825 14.8801 26.825 15.2513Z" fill="#C2C2C2"/>
<path d="M38.0017 10.7559L33.9198 20.1157H32.6817L34.208 16.8583L31.5273 10.7965H32.8473L34.7848 15.4558H34.8261L36.7229 10.7965H38.0017V10.7559Z" fill="#C2C2C2"/>
<path d="M15.6899 12.5708C15.6899 12.1989 15.648 11.8283 15.6074 11.457H10.4531V13.5601H13.3806C13.2568 14.2201 12.8862 14.8382 12.3081 15.2095V16.5701H14.0812C15.1118 15.622 15.6899 14.2195 15.6899 12.5708Z" fill="#C2C2C2"/>
<path d="M10.4515 17.889C11.9359 17.889 13.1727 17.3947 14.0809 16.569L12.3078 15.2084C11.8134 15.5384 11.194 15.7447 10.4528 15.7447C9.05029 15.7447 7.81344 14.7966 7.40158 13.4766H5.58594V14.8791C6.53404 16.7347 8.39029 17.889 10.4515 17.889Z" fill="#C2C2C2"/>
<path d="M7.40217 13.4783C7.15467 12.8183 7.15467 12.0758 7.40217 11.3752V9.97266H5.58781C4.80406 11.4989 4.80406 13.3133 5.58781 14.8801L7.40217 13.4783Z" fill="#C2C2C2"/>
<path d="M10.4532 9.14715C11.237 9.14715 11.9795 9.43526 12.5563 9.97151L14.1238 8.40465C13.1338 7.4978 11.8145 6.96155 10.4945 7.00215C8.43197 7.00215 6.53641 8.15651 5.62891 10.0128L7.44326 11.414C7.81451 10.0959 9.05137 9.14715 10.4532 9.14715Z" fill="#C2C2C2"/>
</svg>
