<svg width="42" height="27" viewBox="0 0 42 27" fill="none" xmlns="http://www.w3.org/2000/svg">
<rect x="0.5" y="0.5" width="41" height="26" rx="6.5" stroke="#C2C2C2"/>
<path d="M16.9333 16.8486V8.11328H20.2097C20.8817 8.11328 21.445 8.23825 21.9014 8.4882C22.3578 8.73814 22.7037 9.08226 22.9374 9.51876C23.171 9.95525 23.2888 10.4515 23.2888 11.0057C23.2888 11.56 23.171 12.0635 22.9356 12.4982C22.7001 12.9328 22.3506 13.2752 21.8905 13.5233C21.4305 13.7714 20.8618 13.8964 20.188 13.8964H18.0164V12.596H19.9743C20.3673 12.596 20.6879 12.5271 20.9378 12.3913C21.1878 12.2555 21.3743 12.0671 21.4939 11.828C21.6152 11.5889 21.675 11.3155 21.675 11.0039C21.675 10.6924 21.6152 10.4207 21.4939 10.1853C21.3725 9.94982 21.186 9.76508 20.9342 9.63286C20.6825 9.50065 20.3583 9.43544 19.9634 9.43544H18.5127V16.8504H16.9297L16.9333 16.8486Z" fill="#C2C2C2"/>
<path d="M26.3673 16.9814C25.9526 16.9814 25.5794 16.9072 25.248 16.7568C24.9166 16.6083 24.6557 16.3874 24.4638 16.0939C24.2718 15.8005 24.1758 15.4401 24.1758 15.0109C24.1758 14.6414 24.2446 14.3353 24.3804 14.0944C24.5163 13.8535 24.7028 13.6597 24.9401 13.5148C25.1756 13.3699 25.4418 13.2594 25.7406 13.1834C26.0377 13.1073 26.3456 13.053 26.6643 13.0186C27.0483 12.9787 27.3598 12.9425 27.5989 12.9099C27.838 12.8773 28.0119 12.8266 28.1223 12.7559C28.2328 12.6853 28.2872 12.5766 28.2872 12.4299V12.4046C28.2872 12.084 28.1912 11.834 28.001 11.6584C27.8108 11.4827 27.5355 11.3939 27.1769 11.3939C26.7984 11.3939 26.4995 11.4772 26.2786 11.6421C26.0576 11.8069 25.9091 12.0025 25.833 12.2271L24.3913 12.0224C24.5054 11.6239 24.692 11.2907 24.9546 11.0226C25.2154 10.7546 25.536 10.5517 25.9145 10.4177C26.2931 10.2819 26.7114 10.2148 27.1679 10.2148C27.483 10.2148 27.7981 10.2511 28.1115 10.3253C28.4248 10.3996 28.711 10.5209 28.9682 10.6894C29.2272 10.8578 29.4355 11.0878 29.593 11.3776C29.7506 11.6674 29.8303 12.0296 29.8303 12.4661V16.851H28.3451V15.9509H28.2944C28.2002 16.132 28.0698 16.3022 27.8996 16.4598C27.7311 16.6174 27.5192 16.7442 27.2638 16.8402C27.0085 16.9361 26.7114 16.9832 26.3709 16.9832L26.3673 16.9814ZM26.7676 15.8476C27.0773 15.8476 27.3472 15.786 27.5736 15.6629C27.8018 15.5397 27.9775 15.3749 28.1006 15.1702C28.2238 14.9656 28.2854 14.7428 28.2854 14.5001V13.7285C28.2365 13.7684 28.1549 13.8046 28.0408 13.839C27.9267 13.8734 27.7963 13.9024 27.6551 13.9296C27.512 13.9549 27.3725 13.9785 27.2331 13.9984C27.0936 14.0183 26.9722 14.0364 26.8708 14.0491C26.6408 14.0799 26.4343 14.1324 26.2514 14.2031C26.0685 14.2737 25.9254 14.3733 25.8203 14.5001C25.7153 14.6269 25.6628 14.7899 25.6628 14.9891C25.6628 15.2735 25.766 15.489 25.9743 15.6339C26.1826 15.7788 26.447 15.8512 26.7676 15.8512V15.8476Z" fill="#C2C2C2"/>
<path d="M32.1029 19.3058C31.8928 19.3058 31.699 19.2895 31.5215 19.2569C31.344 19.2243 31.2028 19.1863 31.0977 19.1446L31.4563 17.942C31.6809 18.0072 31.882 18.038 32.0576 18.0362C32.2333 18.0326 32.3891 17.9782 32.5249 17.8714C32.6608 17.7645 32.7749 17.587 32.8691 17.3407L33.0013 16.9875L30.625 10.2988H32.2623L33.7728 15.247H33.8417L35.3558 10.2988H36.9986L34.3741 17.645C34.251 17.9927 34.0898 18.2898 33.8869 18.5379C33.6841 18.786 33.4378 18.978 33.1462 19.1102C32.8546 19.2424 32.5068 19.3077 32.1029 19.3077V19.3058Z" fill="#C2C2C2"/>
<path d="M9.84491 17.3165C7.39076 17.3165 5.60856 15.6683 5.60856 13.3989C5.60856 12.5803 5.8585 11.3758 7.04845 10.2891L7.07199 10.2674L8.33077 11.5696C8.31628 11.5841 8.29635 11.6022 8.271 11.6258C7.70591 12.1419 7.41974 12.7378 7.41974 13.3989C7.41974 14.6595 8.39416 15.5053 9.84491 15.5053C11.7267 15.5053 12.9438 14.1922 12.9438 12.1582C12.9438 10.5354 11.6652 8.81118 9.29613 8.81118C7.54109 8.81118 6.33484 10.0555 6.32397 10.0681L5 8.82929C5.06882 8.75504 6.7333 7 9.29431 7C12.712 7 14.7532 9.62259 14.7532 12.1582C14.7532 15.1956 12.7338 17.3165 9.8431 17.3165H9.84491Z" fill="#C2C2C2"/>
</svg>
