<svg width="58" height="18" viewBox="0 0 58 18" fill="none" xmlns="http://www.w3.org/2000/svg">
<path fill-rule="evenodd" clip-rule="evenodd" d="M52.8693 17.0335L50.4928 14.3857L48.1385 17.0335H43.1853L48.0262 11.6274L43.1853 6.2212H48.2936L50.6927 8.84727L53.0024 6.2212H57.9323L53.1133 11.6049L57.9998 17.0335H52.8693ZM33.6675 17.0335V0H43.1853V3.79706H37.6984V6.2212H43.1853V9.87345H37.6984V13.2265H43.1853V17.0335H33.6675Z" fill="#FF7A08"/>
<path fill-rule="evenodd" clip-rule="evenodd" d="M29.6545 0V6.97104H29.6089C28.7203 5.95591 27.6104 5.60329 26.3223 5.60329C23.6614 5.60329 21.684 7.42425 21.0027 9.81045C20.2191 7.17922 18.1712 5.55428 15.1049 5.55428C12.6153 5.55428 10.676 6.68805 9.6632 8.50828V6.22083H4.55493V3.79669H10.1301V0H0V17.0335H4.55493V9.87345H9.12025C8.98266 10.4033 8.88661 10.9571 8.88661 11.5574C8.88661 15.1105 11.6176 17.6043 15.1049 17.6043C18.0376 17.6043 19.9698 16.2362 20.9923 13.7427H17.0894C16.5616 14.4933 16.1603 14.7144 15.1045 14.7144C13.881 14.7144 12.8259 13.6543 12.8259 12.396H20.795C21.1418 15.2159 23.3313 17.6522 26.3665 17.6522C27.6767 17.6522 28.8765 17.0132 29.6089 15.9314H29.6545V17.0339H33.668V0H29.6545ZM12.9531 9.9243C13.2057 8.84211 14.0501 8.13576 15.1045 8.13576C16.266 8.13576 17.0675 8.82148 17.2781 9.9243H12.9531ZM27.2172 14.4406C25.7375 14.4406 24.8181 13.0699 24.8181 11.6406C24.8181 10.1115 25.6173 8.6413 27.2172 8.6413C28.8765 8.6413 29.5362 10.1115 29.5362 11.6406C29.5362 13.0902 28.8361 14.4406 27.2172 14.4406Z" fill="#462895"/>
</svg>
