<svg width="74" height="24" viewBox="0 0 74 24" fill="none" xmlns="http://www.w3.org/2000/svg">
<path d="M73.5632 0.554688V16.7845H0.0195312V0.554688H73.5632Z" fill="#FFCC00"/>
<path d="M12.9512 3.46875L10.6016 6.66098H23.4075C24.0548 6.66098 24.0462 6.90694 23.7298 7.33554C23.4085 7.77064 22.8708 8.52731 22.5435 8.96928C22.3775 9.19357 22.0772 9.6022 23.0723 9.6022H28.3091C28.3091 9.6022 29.1532 8.45363 29.8606 7.49329C30.8232 6.1871 29.9441 3.46888 26.5029 3.46888L12.9512 3.46875Z" fill="#D2002E"/>
<path d="M9.65253 13.8687L14.372 7.45606H20.2285C20.8758 7.45606 20.8674 7.70201 20.551 8.13062C20.2297 8.56571 19.6831 9.31434 19.3558 9.75631C19.1897 9.9806 18.8895 10.3899 19.8845 10.3899H27.7304C27.0779 11.2838 24.9613 13.8685 21.1608 13.8685L9.65253 13.8687ZM36.681 10.3891L34.1217 13.8684H27.3707C27.3707 13.8684 29.9285 10.3899 29.9308 10.3899L36.681 10.3891ZM47.0234 9.6022H30.5107L35.0263 3.46875H41.7754L39.1872 6.98568H42.1997L44.789 3.46875H51.5373L47.0234 9.6022ZM46.4438 10.39L43.8833 13.8687H37.1347C37.1347 13.8687 39.6926 10.39 39.6948 10.39H46.4438ZM0.0195312 11.7617H9.96516L9.42188 12.5007H0.0195312V11.7617ZM0.0195312 10.39H10.9756L10.4313 11.128H0.0195312V10.39ZM0.0195312 13.1342H8.95527L8.41458 13.8687H0.0195312V13.1342ZM73.5635 12.5007H63.6561L64.1999 11.7618H73.5635V12.5007ZM73.5635 13.8687L62.6489 13.8697L63.1896 13.1342H73.5635V13.8687ZM65.209 10.39H73.5635V11.1284L64.6657 11.129L65.209 10.39ZM60.884 3.46875L56.3693 9.60207H49.2178C49.2178 9.60207 53.7337 3.46875 53.736 3.46875H60.884ZM48.6391 10.39C48.6391 10.39 48.1457 11.0642 47.9063 11.3882C47.0585 12.5339 47.8079 13.8687 50.5743 13.8687H61.4131L63.9733 10.39H48.6391Z" fill="#D2002E"/>
<path d="M0.0195312 19.4238H73.5635V19.7915H0.0195312V19.4238ZM0.0195312 21.1394H73.5635V21.5071H0.0195312V21.1394ZM0.0195312 22.8546H73.5635V23.2223H0.0195312V22.8546Z" fill="#FFCC00"/>
<path d="M24.7148 23.221H26.9282L27.2814 22.7422H25.6343L26.558 21.4906H28.0579L28.4113 21.0117H26.9113L27.7304 19.9017H29.3776L29.731 19.4228H27.5178L24.7148 23.221ZM27.4311 23.221H28.1104L30.4255 21.6103L30.4028 23.221H31.116L31.1214 21.2349L33.7887 19.4228H33.1435L31.0202 20.8812L31.0434 19.4228H30.3642L30.3435 21.2458L27.4311 23.221ZM34.6456 19.9017H35.1267C35.4777 19.9017 35.8699 20.0758 35.5165 20.5546C35.1471 21.0551 34.5811 21.2239 34.2301 21.2239H33.6696L34.6456 19.9017ZM31.63 23.221H32.196L33.3163 21.7028H33.871C34.5842 21.7028 35.4899 21.4035 36.1123 20.56C36.7508 19.6947 36.278 19.4225 35.4687 19.4225H34.4328L31.63 23.221ZM34.8896 23.221H35.4557L36.7005 21.534H37.04C37.3399 21.534 37.527 21.534 37.4294 21.904L37.0633 23.221H37.7087L38.0779 21.7081C38.126 21.4742 38.1015 21.3927 37.974 21.3271L37.982 21.3162C38.4969 21.24 39.0943 20.9136 39.4357 20.451C40.1063 19.5424 39.4418 19.4225 38.6605 19.4225H37.6926L34.8896 23.221ZM37.9052 19.9017H38.4485C38.9695 19.9017 39.0804 20.1194 38.8276 20.462C38.5585 20.8268 38.0728 21.0551 37.535 21.0551H37.0539L37.9052 19.9017ZM38.2948 23.221H40.5081L40.8612 22.7422H39.2143L40.1378 21.4906H41.6379L41.991 21.0117H40.4911L41.3102 19.9017H42.9574L43.3109 19.4228H41.0977L38.2948 23.221ZM46.0373 19.4935C45.8339 19.401 45.5545 19.3574 45.2942 19.3574C44.5809 19.3574 43.7612 19.7168 43.2632 20.3914C42.3919 21.5723 44.2627 21.3383 43.6362 22.1872C43.3069 22.6332 42.7255 22.8075 42.403 22.8075C42.1141 22.8075 41.8549 22.6986 41.7187 22.6223L41.2888 23.1285C41.489 23.2101 41.7046 23.2864 41.9819 23.2864C42.7743 23.2864 43.6622 22.9649 44.2605 22.1541C45.184 20.9028 43.3613 21.0712 43.8995 20.3423C44.1928 19.9451 44.6467 19.8362 44.9636 19.8362C45.2581 19.8362 45.3802 19.8854 45.5885 19.9941L46.0373 19.4935ZM48.8676 19.4935C48.6642 19.401 48.3849 19.3574 48.1245 19.3574C47.4112 19.3574 46.5915 19.7168 46.0935 20.3914C45.2222 21.5723 47.093 21.3383 46.4665 22.1872C46.1374 22.6332 45.5558 22.8075 45.2333 22.8075C44.9444 22.8075 44.6851 22.6986 44.5492 22.6223L44.1191 23.1285C44.3193 23.2101 44.5349 23.2864 44.8121 23.2864C45.6046 23.2864 46.4924 22.9649 47.0907 22.1541C48.0143 20.9028 46.1917 21.0712 46.7298 20.3423C47.023 19.9451 47.477 19.8362 47.7939 19.8362C48.0884 19.8362 48.2107 19.8854 48.4188 19.9941L48.8676 19.4935Z" fill="#D2002E"/>
</svg>
