<svg width="77" height="12" viewBox="0 0 77 12" fill="none" xmlns="http://www.w3.org/2000/svg">
<path fill-rule="evenodd" clip-rule="evenodd" d="M13.6316 8.30037C13.6316 8.09163 13.643 7.87357 13.6669 7.64441C13.6911 7.41524 13.7264 7.17453 13.7736 6.92182C13.8936 6.28302 14.0614 5.65428 14.2756 5.04097C14.4768 4.47693 14.6934 4.0226 14.9263 3.67751C15.2572 3.19209 15.6061 2.80481 15.9727 2.51613C16.3343 2.22953 16.748 2.01682 17.1907 1.88992C17.6173 1.77588 18.0521 1.6954 18.4911 1.64921C19.0156 1.59394 19.5427 1.56769 20.07 1.5706C20.9443 1.5706 21.6744 1.62878 22.2602 1.74514C22.8456 1.86194 23.3507 2.04625 23.7768 2.2994C24.1231 2.50814 24.3799 2.80837 24.5453 3.2023C24.7107 3.59535 24.7932 4.09943 24.7932 4.71276C24.7932 5.06228 24.7667 5.42291 24.7134 5.79597C24.66 6.16903 24.5784 6.55675 24.4681 6.95735C24.3027 7.58001 24.0967 8.14138 23.8501 8.64057C23.6035 9.13976 23.3128 9.58211 22.9779 9.96716C22.5602 10.4406 21.9924 10.783 21.2752 10.9931C20.5579 11.204 19.5746 11.3097 18.3253 11.3097C16.611 11.3097 15.4001 11.0806 14.6925 10.6236C13.9849 10.1666 13.6316 9.39158 13.6316 8.30037ZM19.4912 4.78426C19.2031 4.78426 18.9508 4.83978 18.736 4.95036C18.5211 5.06095 18.3442 5.22661 18.2057 5.44734C18.0121 5.76089 17.8462 6.15571 17.7077 6.63181C17.5696 7.10791 17.5003 7.52494 17.5003 7.88201C17.5003 8.14759 17.608 8.34967 17.8233 8.48779C18.0385 8.6268 18.3517 8.69564 18.762 8.69564C19.0187 8.69564 19.2437 8.65611 19.4374 8.57573C19.631 8.49445 19.7947 8.3741 19.9292 8.21377C20.0442 8.07365 20.1417 7.91987 20.2195 7.75588C20.3024 7.58267 20.3832 7.3655 20.4621 7.1048C20.553 6.80724 20.6223 6.54254 20.6699 6.31249C20.7171 6.0811 20.7409 5.88302 20.7409 5.7187C20.7409 5.40515 20.6368 5.17065 20.4295 5.0161C20.223 4.8611 19.9098 4.78426 19.4912 4.78426ZM24.7751 8.47713C25.5418 8.58905 26.2124 8.67121 26.7863 8.72051C27.3602 8.7707 27.8732 8.79601 28.3254 8.79601C29.0445 8.79601 29.5332 8.75382 29.7909 8.66988C30.048 8.5855 30.1769 8.43539 30.1769 8.21821C30.1769 8.06987 30.1336 7.96284 30.0472 7.89667C29.9607 7.83049 29.8173 7.79674 29.6166 7.79674C29.3294 7.79674 29.0211 7.80118 28.6907 7.80873H28.5195C27.3831 7.80873 26.5895 7.65195 26.1396 7.33885C25.6892 7.02574 25.4642 6.49236 25.4642 5.73779C25.4642 5.16044 25.5745 4.58841 25.795 4.02215C26.0156 3.45634 26.3094 2.98912 26.6755 2.61917C27.0258 2.26609 27.5252 2.01161 28.1732 1.85484C28.8212 1.69806 29.7379 1.62034 30.9233 1.62034C31.6873 1.62034 32.4805 1.65365 33.3041 1.71938C34.1268 1.786 34.9698 1.88548 35.8322 2.01783L35.0814 4.92416C34.5612 4.81903 34.0372 4.73429 33.5105 4.67013C33.06 4.6148 32.6066 4.58603 32.1527 4.58397C31.2025 4.58397 30.5527 4.63104 30.2042 4.72697C29.8548 4.82246 29.6806 4.98545 29.6806 5.21684C29.6806 5.36384 29.7295 5.4651 29.8279 5.5184C29.9267 5.57258 30.1905 5.59967 30.6202 5.59967H32.0755C32.9313 5.59967 33.5538 5.74623 33.9424 6.03935C34.331 6.33292 34.5256 6.79924 34.5256 7.43789C34.5256 8.03612 34.4329 8.58683 34.2481 9.08913C34.0633 9.59232 33.8052 10.0005 33.4748 10.3131C33.1082 10.6671 32.6172 10.9242 32.0014 11.0846C31.3856 11.2453 30.5809 11.3262 29.5893 11.3262C28.7193 11.3262 27.8318 11.2853 26.9261 11.2054C26.0043 11.1228 25.0863 11.0024 24.1743 10.8443L24.7751 8.47713ZM42.1581 4.88419L40.5511 11.0264H36.6867L38.2995 4.88419H35.83L36.6276 1.87083H45.2889L44.5023 4.88419H42.1581ZM56.2097 10.894L58.6187 1.73759H67.6025L66.8287 4.66746H61.6568L61.4146 5.5828H66.5861L66.0664 7.54714H60.9064L60.6643 8.46337H65.8353L65.1908 10.894H56.2097ZM73.8679 4.75051L72.2622 10.894H68.3987L70.0115 4.75051H67.5416L68.3392 1.73759H77L76.2143 4.75051H73.8679ZM0 10.7475L2.89298 0.326172H11.3478C12.3104 0.326172 13.0215 0.5318 13.4816 0.942613C13.9412 1.35298 14.1715 1.9903 14.1715 2.85278C14.1715 3.45057 14.1014 4.06123 13.9615 4.68434C13.8217 5.30744 13.6355 5.83861 13.4031 6.27607C12.9809 7.07993 12.4577 7.64041 11.8348 7.95751C11.2106 8.27461 10.29 8.43317 9.0711 8.43317H5.25571L4.61473 10.747L0 10.7475ZM5.96814 5.83683H7.39875C8.12045 5.83683 8.65775 5.70848 9.0111 5.45045C9.36445 5.1933 9.54135 4.80514 9.54135 4.28596C9.54135 4.00838 9.44915 3.8032 9.26388 3.67085C9.07904 3.5385 8.79186 3.47233 8.40234 3.47233H6.62323L5.96814 5.83683ZM43.3351 10.8812L46.2294 0.45941H51.3792L52.1556 4.96546C52.1693 5.05651 52.198 5.24926 52.2408 5.54415C52.284 5.83816 52.34 6.23432 52.4115 6.73174C52.4966 6.3076 52.6276 5.77066 52.8036 5.12224C52.8319 5.01299 52.8526 4.93304 52.8676 4.88286L54.1076 0.45941H58.6156L55.7103 10.8812H50.6103L49.6702 6.88229C49.623 6.67666 49.567 6.42663 49.5022 6.13262C49.4391 5.83816 49.3729 5.52461 49.3068 5.19063C49.2216 5.68894 49.0862 6.26585 48.9009 6.92315V6.94402L47.7756 10.8812H43.3351Z" fill="#C4322E"/>
</svg>
