<svg width="31" height="36" viewBox="0 0 31 36" fill="none" xmlns="http://www.w3.org/2000/svg">
<path d="M15.5818 35.4588C15.8867 35.3063 23.8158 31.8754 26.3318 29.8169C28.924 27.6822 30.2963 24.6325 30.2963 20.9729V3.81865L30.0676 3.74241C23.7396 0.311552 15.8867 0.540275 15.5055 0.540275C15.2006 0.540275 7.3477 0.311552 1.01967 3.74241L0.867188 3.81865V21.0492C0.867188 24.7088 2.23953 27.7584 4.83173 29.8932C7.3477 31.9517 15.2768 35.3825 15.5818 35.4588Z" fill="#341B14"/>
<path d="M15.582 35.8399C15.582 35.8399 7.19549 32.1803 4.60329 30.1218C1.8586 27.8345 0.5625 24.7086 0.5625 21.1253V3.28483C7.19549 -0.298513 15.582 0.00645214 15.582 0.00645214C15.582 0.00645214 23.9686 -0.298513 30.6016 3.28483V21.0491C30.6016 24.6324 29.3055 27.7583 26.5608 30.0455C23.9686 32.1803 15.582 35.8399 15.582 35.8399ZM1.78236 21.1253C1.78236 24.4799 3.00222 27.2246 5.3657 29.1306C7.50046 30.8842 13.8285 33.7051 15.582 34.4675C17.3356 33.7051 23.7399 30.8079 25.7984 29.1306C28.1618 27.2246 29.3817 24.4037 29.3817 21.1253V3.58979C20.5377 2.75114 10.0164 3.20859 1.78236 10.8327V21.1253Z" fill="#FFB406"/>
<path d="M24.0445 18.6096C25.1881 19.2957 25.6455 19.7532 25.7218 20.5918C25.7218 21.5067 25.1119 22.0404 24.1207 22.0404C23.2821 22.0404 22.2909 21.583 21.6048 20.9731V23.4128C22.4434 23.8702 23.4346 24.2514 24.5019 24.2514C27.0941 24.2514 28.314 22.4216 28.314 20.7443C28.3902 19.2195 27.9328 17.9996 25.7218 16.7035C24.7307 16.0936 23.9682 15.7124 23.9682 14.7975C23.9682 13.8826 24.8069 13.5014 25.4931 13.5014C26.408 13.5014 27.3229 14.0351 27.8565 14.5688V12.2815C27.3991 11.9003 26.408 11.3667 24.9594 11.4429C23.2058 11.5191 21.376 12.739 21.376 14.8738C21.4523 16.3223 21.9097 17.3897 24.0445 18.6096ZM15.048 24.0989C15.2767 24.1752 15.6579 24.2514 16.2679 24.2514C19.2413 24.2514 20.9186 21.583 20.9186 17.7709C20.9186 13.8826 19.165 11.5191 16.0391 11.5191C14.5906 11.5191 13.4469 11.8241 12.4558 12.434V29.6646H15.048V24.0989ZM15.048 13.7301C15.2767 13.6539 15.6579 13.5014 15.9629 13.5014C17.4877 13.5014 18.0977 14.7213 18.0977 17.6947C18.0977 20.5918 17.3352 21.9642 15.8104 21.9642C15.4292 21.9642 15.1242 21.8879 14.9718 21.8117V13.7301H15.048ZM7.04267 24.2514C8.64374 24.2514 10.0161 23.8702 11.0072 23.1841V11.6716H8.33877V21.6592C8.03381 21.8879 7.6526 21.9642 7.11891 21.9642C5.89905 21.9642 5.74657 20.8206 5.74657 20.1344V11.6716H3.07812V19.9819C3.07812 22.8028 4.45047 24.2514 7.04267 24.2514Z" fill="#FFB406"/>
</svg>
