<svg width="30" height="30" viewBox="0 0 30 30" fill="none" xmlns="http://www.w3.org/2000/svg">
<path d="M2.92003 8.40636V7.48633C2.67602 7.48633 2.44201 7.58326 2.26947 7.7558C2.09693 7.92834 2 8.16235 2 8.40636H2.92003ZM16.4138 8.40636H17.3338C17.3338 8.16235 17.2369 7.92834 17.0643 7.7558C16.8918 7.58326 16.6578 7.48633 16.4138 7.48633V8.40636ZM16.4138 10.8598V9.93974C16.1698 9.93974 15.9358 10.0367 15.7632 10.2092C15.5907 10.3817 15.4938 10.6158 15.4938 10.8598H16.4138ZM2.92003 9.32639H16.4138V7.48633H2.92003V9.32639ZM15.4938 8.40636V23.1268H17.3338V8.40636H15.4938ZM3.84006 20.6734V8.40636H2V20.6734H3.84006ZM16.4138 11.7798H22.5473V9.93974H16.4138V11.7798ZM26.5341 15.7666V20.6734H28.3742V15.7666H26.5341ZM17.3338 23.1268V10.8598H15.4938V23.1268H17.3338ZM23.6317 24.2112C23.4893 24.3537 23.3203 24.4666 23.1342 24.5437C22.9481 24.6208 22.7487 24.6605 22.5473 24.6605C22.3459 24.6605 22.1465 24.6208 21.9604 24.5437C21.7744 24.4666 21.6053 24.3537 21.4629 24.2112L20.1626 25.5115C20.7952 26.1441 21.6533 26.4995 22.5479 26.4995C23.4426 26.4995 24.3006 26.1441 24.9333 25.5115L23.6317 24.2112ZM21.4629 22.0424C21.6053 21.9 21.7744 21.787 21.9604 21.7099C22.1465 21.6328 22.3459 21.5932 22.5473 21.5932C22.7487 21.5932 22.9481 21.6328 23.1342 21.7099C23.3203 21.787 23.4893 21.9 23.6317 22.0424L24.932 20.7421C24.2994 20.1095 23.4414 19.7541 22.5467 19.7541C21.652 19.7541 20.794 20.1095 20.1614 20.7421L21.4629 22.0424ZM8.91126 24.2112C8.76886 24.3537 8.59981 24.4666 8.41374 24.5437C8.22768 24.6208 8.02825 24.6605 7.82685 24.6605C7.62545 24.6605 7.42602 24.6208 7.23996 24.5437C7.05389 24.4666 6.88483 24.3537 6.74244 24.2112L5.44213 25.5115C6.07477 26.1441 6.9328 26.4995 7.82746 26.4995C8.72213 26.4995 9.58015 26.1441 10.2128 25.5115L8.91126 24.2112ZM6.74244 22.0424C6.88483 21.9 7.05389 21.787 7.23996 21.7099C7.42602 21.6328 7.62545 21.5932 7.82685 21.5932C8.02825 21.5932 8.22768 21.6328 8.41374 21.7099C8.59981 21.787 8.76886 21.9 8.91126 22.0424L10.2116 20.7421C9.57893 20.1095 8.7209 19.7541 7.82624 19.7541C6.93157 19.7541 6.07355 20.1095 5.44091 20.7421L6.74244 22.0424ZM23.6317 22.0424C23.931 22.3417 24.0807 22.733 24.0807 23.1268H25.9207C25.9207 22.2644 25.5908 21.3996 24.9333 20.7409L23.6317 22.0424ZM24.0807 23.1268C24.0807 23.5206 23.931 23.9119 23.6317 24.2112L24.9333 25.5115C25.2469 25.1987 25.4945 24.827 25.6642 24.4178C25.8339 24.0085 25.921 23.5698 25.9207 23.1268H24.0807ZM20.0939 22.2068H16.4138V24.0468H20.0939V22.2068ZM21.4629 24.2112C21.3202 24.0691 21.2071 23.9 21.13 23.7139C21.0529 23.5278 21.0135 23.3283 21.0139 23.1268H19.1739C19.1739 23.9892 19.5039 24.854 20.1614 25.5128L21.4629 24.2112ZM21.0139 23.1268C21.0139 22.733 21.1636 22.3417 21.4629 22.0424L20.1614 20.7421C19.8477 21.0549 19.6001 21.4266 19.4304 21.8359C19.2608 22.2451 19.1736 22.6838 19.1739 23.1268H21.0139ZM6.74244 24.2112C6.59974 24.0691 6.48659 23.9 6.40953 23.7139C6.33247 23.5278 6.29303 23.3283 6.29347 23.1268H4.45341C4.45341 23.9892 4.78339 24.854 5.44091 25.5128L6.74244 24.2112ZM6.29347 23.1268C6.29347 22.733 6.44313 22.3417 6.74244 22.0424L5.44213 20.7421C5.12852 21.055 4.87974 21.4267 4.71007 21.8359C4.54041 22.2451 4.45318 22.6838 4.45341 23.1268H6.29347ZM16.4138 22.2068H10.2803V24.0468H16.4138V22.2068ZM8.91126 22.0424C9.21057 22.3417 9.36023 22.733 9.36023 23.1268H11.2003C11.2003 22.2644 10.8703 21.3996 10.2128 20.7409L8.91126 22.0424ZM9.36023 23.1268C9.36023 23.5206 9.21057 23.9119 8.91126 24.2112L10.2116 25.5115C10.5252 25.1987 10.774 24.827 10.9436 24.4177C11.1133 24.0085 11.2005 23.5698 11.2003 23.1268H9.36023ZM26.5341 20.6734C26.5341 21.5198 25.8471 22.2068 25.0007 22.2068V24.0468C25.8954 24.0468 26.7535 23.6914 27.3861 23.0588C28.0187 22.4261 28.3742 21.5681 28.3742 20.6734H26.5341ZM22.5473 11.7798C23.6047 11.7798 24.6187 12.1998 25.3664 12.9475C26.1141 13.6952 26.5341 14.7092 26.5341 15.7666H28.3742C28.3742 14.2212 27.7603 12.7391 26.6675 11.6464C25.5748 10.5536 24.0927 9.93974 22.5473 9.93974V11.7798ZM2 20.6734C2 21.5681 2.35541 22.4261 2.98806 23.0588C3.6207 23.6914 4.47875 24.0468 5.37344 24.0468V22.2068C4.52701 22.2068 3.84006 21.5198 3.84006 20.6734H2Z" fill="#2E6BB1"/>
<path d="M9.66854 7.18012C9.66854 6.20409 9.28081 5.26804 8.59066 4.57788C7.9005 3.88773 6.96445 3.5 5.98842 3.5C5.66308 3.5 5.35106 3.62924 5.12101 3.85929C4.89096 4.08935 4.76172 4.40136 4.76172 4.72671C4.76172 5.70273 5.14944 6.63878 5.8396 7.32894C6.52976 8.01909 7.46581 8.40682 8.44183 8.40682H9.66854M9.66854 7.18012V8.40682M9.66854 7.18012C9.66854 6.20409 10.0563 5.26804 10.7464 4.57788C11.4366 3.88773 12.3726 3.5 13.3487 3.5C13.674 3.5 13.986 3.62924 14.2161 3.85929C14.4461 4.08935 14.5754 4.40136 14.5754 4.72671C14.5754 5.70273 14.1876 6.63878 13.4975 7.32894C12.8073 8.01909 11.8713 8.40682 10.8952 8.40682H9.66854" stroke="#2E6BB1" stroke-width="1.5" stroke-linejoin="round"/>
</svg>
