<svg width="30" height="30" viewBox="0 0 30 30" fill="none" xmlns="http://www.w3.org/2000/svg">
<g clip-path="url(#clip0_794_40424)">
<path d="M13.765 4.98286C14.8429 4.56821 16.0364 4.56821 17.1144 4.98286L24.8303 7.9498C25.2702 8.11917 25.6485 8.41785 25.9152 8.80648C26.182 9.1951 26.3247 9.65543 26.3247 10.1268V20.4302C26.3247 20.9016 26.182 21.3619 25.9152 21.7505C25.6485 22.1392 25.2702 22.4378 24.8303 22.6072L17.1144 25.5757C16.0364 25.9904 14.8429 25.9904 13.765 25.5757L6.0506 22.6072C5.61042 22.4381 5.23184 22.1395 4.96479 21.7509C4.69774 21.3622 4.55475 20.9018 4.55469 20.4302V10.1268C4.55475 9.65524 4.69774 9.19478 4.96479 8.80614C5.23184 8.4175 5.61042 8.11893 6.0506 7.9498L13.765 4.98286ZM16.5562 6.43367C15.8375 6.15724 15.0419 6.15724 14.3232 6.43367L12.1711 7.26249L20.8635 10.5529L23.8927 9.256L16.5562 6.43212V6.43367ZM24.7697 10.57L16.2172 14.2382V24.2338C16.3323 24.2042 16.4442 24.1684 16.5562 24.1249L24.2721 21.158C24.4187 21.1014 24.5447 21.0017 24.6336 20.8721C24.7224 20.7424 24.7699 20.5889 24.7697 20.4318V10.5731V10.57ZM14.6622 24.2322V14.2382L6.10969 10.5715V20.4302C6.10952 20.5874 6.15698 20.7409 6.24581 20.8705C6.33464 21.0002 6.46067 21.0998 6.60729 21.1564L14.3232 24.1234C14.4352 24.1669 14.5471 24.2027 14.6622 24.2322ZM6.98671 9.256L15.4397 12.8791L18.8047 11.4361L9.99252 8.09908L6.98671 9.256Z" fill="#2E6BB1"/>
</g>
<defs>
<clipPath id="clip0_794_40424">
<rect width="30" height="30" rx="15" fill="white"/>
</clipPath>
</defs>
</svg>
