<svg width="30" height="30" viewBox="0 0 30 30" fill="none" xmlns="http://www.w3.org/2000/svg">
<path d="M3.73828 14.4695C3.73828 12.4295 4.24828 10.5395 5.25828 8.80945C6.26828 7.07945 7.63828 5.70945 9.36828 4.69945C11.0983 3.68945 12.9783 3.18945 15.0083 3.18945C16.5283 3.18945 17.9883 3.48945 19.3783 4.07945C20.7683 4.66945 21.9583 5.47945 22.9683 6.47945C23.9783 7.47945 24.7783 8.67945 25.3683 10.0795C25.9583 11.4795 26.2583 12.9295 26.2583 14.4695C26.2583 15.9895 25.9583 17.4495 25.3683 18.8395C24.7783 20.2295 23.9683 21.4295 22.9683 22.4295C21.9683 23.4295 20.7683 24.2295 19.3783 24.8195C17.9883 25.4095 16.5383 25.7095 15.0083 25.7095C13.4783 25.7095 12.0083 25.4095 10.6183 24.8195C9.22828 24.2295 8.02828 23.4195 7.01828 22.4195C6.00828 21.4195 5.21828 20.2195 4.61828 18.8395C4.01828 17.4595 3.73828 15.9995 3.73828 14.4695ZM6.21828 14.4695C6.21828 16.8395 7.07828 18.8995 8.80828 20.6495C10.5383 22.3795 12.5983 23.2395 15.0083 23.2395C16.5883 23.2395 18.0583 22.8495 19.3983 22.0595C20.7383 21.2695 21.8183 20.2095 22.6083 18.8595C23.3983 17.5095 23.7983 16.0495 23.7983 14.4695C23.7983 12.8895 23.3983 11.4195 22.6083 10.0695C21.8183 8.71945 20.7483 7.64945 19.3983 6.85945C18.0483 6.06945 16.5883 5.67945 15.0083 5.67945C13.4283 5.67945 11.9583 6.06945 10.6183 6.85945C9.27828 7.64945 8.19828 8.71945 7.39828 10.0695C6.59828 11.4195 6.21828 12.8895 6.21828 14.4695ZM14.1383 14.4695V7.80945C14.1383 7.57945 14.2183 7.37945 14.3783 7.21945C14.5383 7.05945 14.7383 6.97945 14.9683 6.97945C15.1983 6.97945 15.3983 7.05945 15.5583 7.21945C15.7183 7.37945 15.7983 7.57945 15.7983 7.80945V13.0195L18.5783 11.4495C18.7783 11.3295 18.9883 11.2995 19.2083 11.3595C19.4283 11.4195 19.5983 11.5595 19.7083 11.7695C19.8283 11.9695 19.8483 12.1795 19.7883 12.3995C19.7283 12.6195 19.5983 12.7995 19.3983 12.9095L15.5183 15.0795C15.3668 15.222 15.1663 15.3007 14.9583 15.2995C14.8493 15.3013 14.741 15.2809 14.64 15.2397C14.5391 15.1985 14.4475 15.1373 14.3709 15.0597C14.2942 14.9822 14.2341 14.8899 14.1941 14.7884C14.1542 14.687 14.1352 14.5785 14.1383 14.4695Z" fill="#2E6BB1"/>
</svg>
