<svg width="30" height="30" viewBox="0 0 30 30" fill="none" xmlns="http://www.w3.org/2000/svg">
<path fill-rule="evenodd" clip-rule="evenodd" d="M14.142 3.15367C14.6952 2.94878 15.3048 2.94878 15.858 3.15367L24.4136 6.32369C24.8796 6.4963 25.2812 6.80536 25.5647 7.20955C25.8482 7.61374 26.0001 8.09381 26 8.58557V15.0621C26 17.0805 25.4312 19.0591 24.3573 20.7761C23.2833 22.4932 21.7466 23.8808 19.9194 24.7835L15.8201 26.8087C15.5655 26.9345 15.2847 27 15 27C14.7153 27 14.4345 26.9345 14.1799 26.8087L10.0806 24.7835C8.25338 23.8808 6.71672 22.4932 5.64275 20.7761C4.56879 19.0591 3.99996 17.0805 4 15.0621V8.58557C3.99994 8.09381 4.1518 7.61374 4.4353 7.20955C4.71879 6.80536 5.1204 6.4963 5.58644 6.32369L14.142 3.15367ZM15 5.41555L6.44444 8.58557V15.0621C6.44473 16.6318 6.88737 18.1705 7.72278 19.5057C8.5582 20.8409 9.75339 21.9199 11.1744 22.6218L15 24.5142V5.41555Z" fill="#2E6BB1"/>
</svg>
