<svg width="16" height="20" viewBox="0 0 16 20" fill="none" xmlns="http://www.w3.org/2000/svg">
<path d="M8 2.28125C5.51562 2.28125 3.5 4.55939 3.5 7.36523C3.5 10.5937 6.5 15.71 7.60156 17.4772C7.64729 17.5518 7.70722 17.6125 7.77646 17.6543C7.84571 17.6962 7.9223 17.718 8 17.718C8.0777 17.718 8.15429 17.6962 8.22354 17.6543C8.29278 17.6125 8.35271 17.5518 8.39844 17.4772C9.5 15.7108 12.5 10.5963 12.5 7.36523C12.5 4.55939 10.4844 2.28125 8 2.28125Z" stroke="white" stroke-width="1.5" stroke-linecap="round" stroke-linejoin="round"/>
<path d="M8 9.40625C8.82843 9.40625 9.5 8.60876 9.5 7.625C9.5 6.64124 8.82843 5.84375 8 5.84375C7.17157 5.84375 6.5 6.64124 6.5 7.625C6.5 8.60876 7.17157 9.40625 8 9.40625Z" stroke="white" stroke-width="1.5" stroke-linecap="round" stroke-linejoin="round"/>
</svg>
