<svg width="51" height="50" viewBox="0 0 51 50" fill="none" xmlns="http://www.w3.org/2000/svg">
<path d="M8.83333 45.8327C8.24306 45.8327 7.74861 45.6327 7.35 45.2327C6.95139 44.8327 6.75139 44.3382 6.75 43.7494V33.3327C6.75 32.1869 7.15833 31.2063 7.975 30.391C8.79167 29.5757 9.77222 29.1674 10.9167 29.166V20.8327C10.9167 19.6869 11.325 18.7063 12.1417 17.891C12.9583 17.0757 13.9389 16.6674 15.0833 16.666H23.4167V13.6452C22.7917 13.2285 22.2882 12.725 21.9062 12.1348C21.5243 11.5445 21.3333 10.8327 21.3333 9.99935C21.3333 9.47852 21.4375 8.96602 21.6458 8.46185C21.8542 7.95768 22.1667 7.49796 22.5833 7.08268L25.5 4.16602L28.4167 7.08268C28.8333 7.49935 29.1458 7.95907 29.3542 8.46185C29.5625 8.96463 29.6667 9.47713 29.6667 9.99935C29.6667 10.8327 29.4757 11.5445 29.0938 12.1348C28.7118 12.725 28.2083 13.2285 27.5833 13.6452V16.666H35.9167C37.0625 16.666 38.0437 17.0737 38.8604 17.8889C39.6771 18.7042 40.0847 19.6855 40.0833 20.8327V29.166C41.2292 29.166 42.2104 29.5744 43.0271 30.391C43.8438 31.2077 44.2514 32.1882 44.25 33.3327V43.7494C44.25 44.3396 44.05 44.8348 43.65 45.2348C43.25 45.6348 42.7556 45.8341 42.1667 45.8327H8.83333ZM15.0833 29.166H35.9167V20.8327H15.0833V29.166ZM10.9167 41.666H40.0833V33.3327H10.9167V41.666Z" fill="#757575"/>
</svg>
