<svg width="42" height="27" viewBox="0 0 42 27" fill="none" xmlns="http://www.w3.org/2000/svg">
<rect x="0.5" y="0.5" width="41" height="26" rx="6.5" stroke="#C2C2C2"/>
<path d="M13.0058 23.0332V21.7623C13.0058 21.2762 12.7096 20.9578 12.2013 20.9578C11.9471 20.9578 11.6707 21.0417 11.4807 21.3181C11.3326 21.0862 11.1204 20.9578 10.8021 20.9578C10.5898 20.9578 10.3776 21.022 10.2098 21.254V20.9998H9.76562V23.0332H10.2098V21.9104C10.2098 21.5501 10.3998 21.3798 10.696 21.3798C10.9921 21.3798 11.1401 21.5698 11.1401 21.9104V23.0332H11.5843V21.9104C11.5843 21.5501 11.7966 21.3798 12.0705 21.3798C12.3666 21.3798 12.5147 21.5698 12.5147 21.9104V23.0332H13.0058ZM19.5946 20.9998H18.874V20.3853H18.4298V20.9998H18.0276V21.402H18.4298V22.3348C18.4298 22.8012 18.6198 23.0752 19.1282 23.0752C19.3182 23.0752 19.5304 23.011 19.6785 22.9271L19.5502 22.5446C19.4218 22.6285 19.2738 22.6507 19.1677 22.6507C18.9554 22.6507 18.8715 22.5224 18.8715 22.3126V21.402H19.5921V20.9998H19.5946ZM23.3653 20.9554C23.1111 20.9554 22.9408 21.0837 22.8347 21.2515V20.9973H22.3905V23.0307H22.8347V21.8857C22.8347 21.5476 22.9828 21.3551 23.2592 21.3551C23.3431 21.3551 23.4492 21.3774 23.5355 21.3971L23.6639 20.9726C23.575 20.9554 23.4492 20.9554 23.3653 20.9554ZM17.6673 21.1676C17.4551 21.0195 17.1589 20.9554 16.8406 20.9554C16.3323 20.9554 15.9942 21.2095 15.9942 21.6118C15.9942 21.9499 16.2483 22.1424 16.6925 22.204L16.9048 22.2263C17.1367 22.2682 17.2651 22.3324 17.2651 22.4385C17.2651 22.5865 17.0948 22.6927 16.7987 22.6927C16.5025 22.6927 16.2681 22.5865 16.12 22.4804L15.9078 22.8185C16.1398 22.9888 16.4581 23.0727 16.7764 23.0727C17.3687 23.0727 17.7092 22.7963 17.7092 22.4163C17.7092 22.056 17.4329 21.866 17.0109 21.8018L16.7987 21.7796C16.6086 21.7574 16.4606 21.7154 16.4606 21.5896C16.4606 21.4415 16.6086 21.3576 16.8431 21.3576C17.0972 21.3576 17.3514 21.4637 17.4797 21.5279L17.6673 21.1676ZM29.4852 20.9554C29.2311 20.9554 29.0608 21.0837 28.9547 21.2515V20.9973H28.5105V23.0307H28.9547V21.8857C28.9547 21.5476 29.1027 21.3551 29.3791 21.3551C29.463 21.3551 29.5691 21.3774 29.6555 21.3971L29.7838 20.9776C29.6975 20.9554 29.5716 20.9554 29.4852 20.9554ZM23.8095 22.0165C23.8095 22.631 24.2339 23.0752 24.8903 23.0752C25.1865 23.0752 25.3987 23.011 25.6109 22.8432L25.3987 22.4829C25.2284 22.6112 25.0606 22.6729 24.8681 22.6729C24.5078 22.6729 24.2537 22.4187 24.2537 22.0165C24.2537 21.634 24.5078 21.3798 24.8681 21.3601C25.0581 21.3601 25.2284 21.4242 25.3987 21.5501L25.6109 21.1898C25.3987 21.0195 25.1865 20.9578 24.8903 20.9578C24.2339 20.9554 23.8095 21.402 23.8095 22.0165ZM27.9182 22.0165V20.9998H27.474V21.254C27.326 21.064 27.1138 20.9578 26.8374 20.9578C26.2649 20.9578 25.8207 21.402 25.8207 22.0165C25.8207 22.631 26.2649 23.0752 26.8374 23.0752C27.1335 23.0752 27.3457 22.969 27.474 22.779V23.0332H27.9182V22.0165ZM26.2871 22.0165C26.2871 21.6562 26.519 21.3601 26.9015 21.3601C27.2618 21.3601 27.516 21.6365 27.516 22.0165C27.516 22.3768 27.2618 22.6729 26.9015 22.6729C26.5215 22.6507 26.2871 22.3743 26.2871 22.0165ZM20.9716 20.9554C20.3793 20.9554 19.9549 21.3798 19.9549 22.014C19.9549 22.6507 20.3793 23.0727 20.9938 23.0727C21.2899 23.0727 21.586 22.9888 21.8205 22.7963L21.6083 22.478C21.438 22.6063 21.2258 22.6902 21.016 22.6902C20.7396 22.6902 20.4657 22.5619 20.4015 22.204H21.9044C21.9044 22.1399 21.9044 22.0979 21.9044 22.0338C21.9241 21.3798 21.5416 20.9554 20.9716 20.9554ZM20.9716 21.3379C21.248 21.3379 21.438 21.5081 21.4799 21.824H20.4213C20.4632 21.5501 20.6532 21.3379 20.9716 21.3379ZM32.0073 22.0165V20.1953H31.5631V21.254C31.415 21.064 31.2028 20.9578 30.9264 20.9578C30.3539 20.9578 29.9097 21.402 29.9097 22.0165C29.9097 22.631 30.3539 23.0752 30.9264 23.0752C31.2225 23.0752 31.4347 22.969 31.5631 22.779V23.0332H32.0073V22.0165ZM30.3761 22.0165C30.3761 21.6562 30.6081 21.3601 30.9906 21.3601C31.3508 21.3601 31.605 21.6365 31.605 22.0165C31.605 22.3768 31.3508 22.6729 30.9906 22.6729C30.6081 22.6507 30.3761 22.3743 30.3761 22.0165ZM15.5056 22.0165V20.9998H15.0614V21.254C14.9133 21.064 14.7011 20.9578 14.4247 20.9578C13.8522 20.9578 13.408 21.402 13.408 22.0165C13.408 22.631 13.8522 23.0752 14.4247 23.0752C14.7208 23.0752 14.933 22.969 15.0614 22.779V23.0332H15.5056V22.0165ZM13.8547 22.0165C13.8547 21.6562 14.0866 21.3601 14.4691 21.3601C14.8294 21.3601 15.0836 21.6365 15.0836 22.0165C15.0836 22.3768 14.8294 22.6729 14.4691 22.6729C14.0866 22.6507 13.8547 22.3743 13.8547 22.0165Z" fill="#C2C2C2"/>
<path d="M24.1923 5.55664H17.5195V17.5449H24.1923V5.55664Z" fill="#B5B6B7"/>
<path d="M17.9619 11.5511C17.9619 9.11541 19.1069 6.95368 20.8639 5.55695C19.5708 4.54025 17.9397 3.92578 16.1604 3.92578C11.9456 3.92578 8.53516 7.33618 8.53516 11.5511C8.53516 15.7659 11.9456 19.1763 16.1604 19.1763C17.9397 19.1763 19.5708 18.5619 20.8639 17.5452C19.1044 16.1682 17.9619 13.9867 17.9619 11.5511Z" fill="#C2C2C2"/>
<path d="M33.1921 11.5511C33.1921 15.7659 29.7817 19.1763 25.5668 19.1763C23.7875 19.1763 22.1564 18.5619 20.8633 17.5452C22.6425 16.146 23.7653 13.9867 23.7653 11.5511C23.7653 9.11541 22.6203 6.95368 20.8633 5.55695C22.1539 4.54025 23.7851 3.92578 25.5643 3.92578C29.7817 3.92578 33.1921 7.35839 33.1921 11.5511Z" fill="#939393"/>
</svg>
