<svg width="51" height="50" viewBox="0 0 51 50" fill="none" xmlns="http://www.w3.org/2000/svg">
<path d="M40.0833 12.5V10.4167C40.0833 9.3116 39.6443 8.25179 38.8629 7.47039C38.0815 6.68899 37.0217 6.25 35.9167 6.25H31.75C30.6449 6.25 29.5851 6.68899 28.8037 7.47039C28.0223 8.25179 27.5833 9.3116 27.5833 10.4167V12.5H23.4167V10.4167C23.4167 9.3116 22.9777 8.25179 22.1963 7.47039C21.4149 6.68899 20.3551 6.25 19.25 6.25H15.0833C13.9783 6.25 12.9185 6.68899 12.1371 7.47039C11.3557 8.25179 10.9167 9.3116 10.9167 10.4167V12.5H6.75V41.6667H44.25V12.5H40.0833Z" fill="#757575"/>
</svg>
