<svg width="27" height="27" viewBox="0 0 27 27" fill="none" xmlns="http://www.w3.org/2000/svg">
<rect width="27" height="27" rx="13.5" fill="#121027"/>
<path d="M12.4 15.7478L16.552 13.3906L12.4 11.0335V15.7478ZM21.648 9.59563C21.752 9.96491 21.824 10.4599 21.872 11.0885C21.928 11.7171 21.952 12.2592 21.952 12.7306L22 13.3906C22 15.1113 21.872 16.3763 21.648 17.1856C21.448 17.8928 20.984 18.3485 20.264 18.5449C19.888 18.6471 19.2 18.7178 18.144 18.7649C17.104 18.8199 16.152 18.8435 15.272 18.8435L14 18.8906C10.648 18.8906 8.56 18.7649 7.736 18.5449C7.016 18.3485 6.552 17.8928 6.352 17.1856C6.248 16.8163 6.176 16.3213 6.128 15.6928C6.072 15.0642 6.048 14.5221 6.048 14.0506L6 13.3906C6 11.6699 6.128 10.4049 6.352 9.59563C6.552 8.88848 7.016 8.43277 7.736 8.23634C8.112 8.1342 8.8 8.06348 9.856 8.01634C10.896 7.96134 11.848 7.93777 12.728 7.93777L14 7.89062C17.352 7.89062 19.44 8.01634 20.264 8.23634C20.984 8.43277 21.448 8.88848 21.648 9.59563Z" fill="white"/>
</svg>
