<svg width="24" height="25" viewBox="0 0 24 25" fill="none" xmlns="http://www.w3.org/2000/svg">
<g clip-path="url(#clip0_743_86329)">
<path d="M11.9984 2.5C13.0593 2.5 14.0767 2.92143 14.8268 3.67157C15.577 4.42172 15.9984 5.43913 15.9984 6.5H18.0334C18.5516 6.49993 19.0496 6.70099 19.4225 7.06081C19.7954 7.42064 20.014 7.91114 20.0324 8.429L20.4604 20.429C20.4699 20.6974 20.4253 20.9649 20.3292 21.2157C20.2331 21.4665 20.0875 21.6953 19.901 21.8886C19.7146 22.0819 19.4911 22.2356 19.2439 22.3407C18.9968 22.4457 18.731 22.4999 18.4624 22.5H5.53442C5.26586 22.4999 5.00007 22.4457 4.75291 22.3407C4.50574 22.2356 4.28227 22.0819 4.0958 21.8886C3.90934 21.6953 3.76371 21.4665 3.66761 21.2157C3.5715 20.9649 3.52688 20.6974 3.53642 20.429L3.96442 8.429C3.98281 7.91114 4.20148 7.42064 4.57437 7.06081C4.94725 6.70099 5.44523 6.49993 5.96342 6.5H7.99842C7.99842 5.43913 8.41984 4.42172 9.16999 3.67157C9.92014 2.92143 10.9376 2.5 11.9984 2.5ZM7.99842 8.5H5.96342L5.53442 20.5H18.4624L18.0334 8.5H15.9984V9.5C15.9981 9.75488 15.9005 10 15.7256 10.1854C15.5506 10.3707 15.3115 10.4822 15.057 10.4972C14.8026 10.5121 14.552 10.4293 14.3566 10.2657C14.1611 10.1021 14.0355 9.8701 14.0054 9.617L13.9984 9.5V8.5H9.99842V9.5C9.99813 9.75488 9.90054 10 9.72557 10.1854C9.5506 10.3707 9.31146 10.4822 9.05702 10.4972C8.80258 10.5121 8.55204 10.4293 8.35658 10.2657C8.16113 10.1021 8.03552 9.8701 8.00542 9.617L7.99842 9.5V8.5ZM11.9984 4.5C11.4938 4.49984 11.0079 4.69041 10.6379 5.0335C10.2679 5.37659 10.0413 5.84684 10.0034 6.35L9.99842 6.5H13.9984C13.9984 5.96957 13.7877 5.46086 13.4126 5.08579C13.0376 4.71071 12.5288 4.5 11.9984 4.5Z" fill="black"/>
</g>
<defs>
<clipPath id="clip0_743_86329">
<rect width="24" height="24" fill="white" transform="translate(0 0.5)"/>
</clipPath>
</defs>
</svg>
