<svg width="24" height="25" viewBox="0 0 24 25" fill="none" xmlns="http://www.w3.org/2000/svg">
<path d="M21.7953 20.7034L17.3431 16.2494C18.678 14.5098 19.3013 12.3276 19.0864 10.1455C18.8715 7.96328 17.8347 5.94454 16.1861 4.49875C14.5376 3.05295 12.4008 2.28837 10.2092 2.36009C8.01768 2.43182 5.93546 3.33448 4.38497 4.88497C2.83448 6.43546 1.93182 8.51768 1.86009 10.7092C1.78837 12.9008 2.55295 15.0376 3.99875 16.6861C5.44454 18.3347 7.46328 19.3715 9.64545 19.5864C11.8276 19.8013 14.0098 19.178 15.7494 17.8431L20.2053 22.3C20.31 22.4047 20.4342 22.4877 20.5709 22.5443C20.7077 22.6009 20.8542 22.6301 21.0022 22.6301C21.1502 22.6301 21.2967 22.6009 21.4335 22.5443C21.5702 22.4877 21.6944 22.4047 21.7991 22.3C21.9037 22.1954 21.9867 22.0711 22.0434 21.9344C22.1 21.7977 22.1291 21.6511 22.1291 21.5031C22.1291 21.3551 22.1 21.2086 22.0434 21.0719C21.9867 20.9351 21.9037 20.8109 21.7991 20.7063L21.7953 20.7034ZM4.12438 10.9994C4.12438 9.73853 4.49827 8.50599 5.19876 7.45762C5.89926 6.40926 6.8949 5.59216 8.05978 5.10965C9.22466 4.62714 10.5065 4.5009 11.7431 4.74688C12.9797 4.99286 14.1156 5.60002 15.0072 6.49158C15.8987 7.38314 16.5059 8.51905 16.7519 9.75568C16.9979 10.9923 16.8716 12.2741 16.3891 13.439C15.9066 14.6039 15.0895 15.5995 14.0411 16.3C12.9928 17.0005 11.7602 17.3744 10.4994 17.3744C8.80916 17.3726 7.18866 16.7004 5.9935 15.5053C4.79833 14.3101 4.12612 12.6896 4.12438 10.9994Z" fill="black"/>
</svg>
