<svg width="24" height="25" viewBox="0 0 24 25" fill="none" xmlns="http://www.w3.org/2000/svg">
<path d="M7 5.5H8V3.5H16V5.5H17C17.7956 5.5 18.5587 5.81607 19.1213 6.37868C19.6839 6.94129 20 7.70435 20 8.5V17.5C20 18.2956 19.6839 19.0587 19.1213 19.6213C18.5587 20.1839 17.7956 20.5 17 20.5V21.5H7V20.5C6.20435 20.5 5.44129 20.1839 4.87868 19.6213C4.31607 19.0587 4 18.2956 4 17.5V8.5C4 7.70435 4.31607 6.94129 4.87868 6.37868C5.44129 5.81607 6.20435 5.5 7 5.5Z" fill="#F7D146" stroke="black" stroke-width="2" stroke-linecap="round" stroke-linejoin="round"/>
<path d="M9.5 11.5H9.51M14.5 11.5H14.51M9.5 15.5C9.82588 15.8326 10.2148 16.0968 10.6441 16.2772C11.0734 16.4576 11.5344 16.5505 12 16.5505C12.4656 16.5505 12.9266 16.4576 13.3559 16.2772C13.7852 16.0968 14.1741 15.8326 14.5 15.5" stroke="black" stroke-width="2" stroke-linecap="round" stroke-linejoin="round"/>
</svg>
