<svg width="51" height="50" viewBox="0 0 51 50" fill="none" xmlns="http://www.w3.org/2000/svg">
<path d="M20.2891 22.916H20.3099M30.7057 22.916H30.7266M20.2891 31.2493C20.968 31.9423 21.7783 32.4927 22.6727 32.8685C23.567 33.2443 24.5273 33.4379 25.4974 33.4379C26.4675 33.4379 27.4278 33.2443 28.3221 32.8685C29.2165 32.4927 30.0268 31.9423 30.7057 31.2493" stroke="#757575" stroke-width="2" stroke-linecap="round" stroke-linejoin="round"/>
<path d="M15.082 10.4167H17.1654V6.25H33.832V10.4167H35.9154C37.573 10.4167 39.1627 11.0751 40.3348 12.2472C41.5069 13.4194 42.1654 15.0091 42.1654 16.6667V35.4167C42.1654 37.0743 41.5069 38.664 40.3348 39.8361C39.1627 41.0082 37.573 41.6667 35.9154 41.6667V43.75H15.082V41.6667C13.4244 41.6667 11.8347 41.0082 10.6626 39.8361C9.49051 38.664 8.83203 37.0743 8.83203 35.4167V16.6667C8.83203 15.0091 9.49051 13.4194 10.6626 12.2472C11.8347 11.0751 13.4244 10.4167 15.082 10.4167Z" stroke="#757575" stroke-width="2" stroke-linecap="round" stroke-linejoin="round"/>
</svg>
