<svg width="16" height="17" viewBox="0 0 16 17" fill="none" xmlns="http://www.w3.org/2000/svg">
<path d="M8 0.554688C6.41775 0.554687 4.87103 1.02388 3.55544 1.90293C2.23985 2.78198 1.21447 4.03141 0.608967 5.49322C0.00346627 6.95503 -0.15496 8.56356 0.153721 10.1154C0.462403 11.6673 1.22433 13.0927 2.34315 14.2115C3.46197 15.3304 4.88743 16.0923 6.43928 16.401C7.99113 16.7096 9.59966 16.5512 11.0615 15.9457C12.5233 15.3402 13.7727 14.3148 14.6518 12.9992C15.5308 11.6837 16 10.1369 16 8.55469C16 6.43295 15.1571 4.39812 13.6569 2.89783C12.1566 1.39754 10.1217 0.554688 8 0.554688ZM6.85715 11.749L4 8.89183L4.90857 7.98326L6.85715 9.93183L11.0914 5.69754L12.0034 6.60383L6.85715 11.749Z" fill="#FF141E"/>
</svg>
