<svg width="32" height="9" viewBox="0 0 32 9" fill="none" xmlns="http://www.w3.org/2000/svg">
<path d="M3.76207 0.5625L0.207031 8.42968H4.46291L4.99051 7.17532H6.1965L6.72411 8.42968H11.4086V7.47232L11.8261 8.42968H14.2493L14.6667 7.45208V8.42968H24.4092L25.5939 7.2079L26.7031 8.42968L31.7071 8.4398L28.1408 4.51805L31.7071 0.5625H26.7807L25.6276 1.7617L24.5532 0.5625H13.9546L13.0445 2.59309L12.1131 0.5625H7.86606V1.48729L7.39361 0.5625H3.76207ZM4.58556 1.67965H6.66007L9.01812 7.01443V1.67965H11.2907L13.112 5.50466L14.7906 1.67965H17.0518V7.32487H15.6759L15.6646 2.90131L13.6587 7.32487H12.4279L10.4108 2.90131V7.32487H7.58029L7.04368 6.05928H4.14457L3.60907 7.32376H2.09251L4.58556 1.67965ZM18.3106 1.67965H23.9052L25.6163 3.52799L27.3826 1.67965H29.0937L26.4939 4.51694L29.0937 7.32154H27.305L25.5939 5.45173L23.8186 7.32154H18.3106V1.67965ZM5.59474 2.63479L4.6396 4.88933H6.54877L5.59474 2.63479ZM19.6921 2.8485V3.87903H22.7442V5.02764H19.6921V6.15269H23.1155L24.7062 4.4956L23.183 2.84751H19.6921V2.8485Z" fill="#C2C2C2"/>
</svg>
