<svg width="42" height="27" viewBox="0 0 42 27" fill="none" xmlns="http://www.w3.org/2000/svg">
<rect x="0.5" y="0.5" width="41" height="26" rx="6.5" stroke="#C2C2C2"/>
<path d="M18.2023 17.7165H15.7344L17.278 8.17188H19.7458L18.2023 17.7165Z" fill="#C2C2C2"/>
<path d="M27.1492 8.40635C26.6624 8.21323 25.8903 8 24.9357 8C22.4985 8 20.7823 9.29962 20.7718 11.1577C20.7515 12.5286 22.0005 13.29 22.9347 13.7471C23.8895 14.2142 24.2141 14.519 24.2141 14.9354C24.2043 15.5748 23.4425 15.8695 22.732 15.8695C21.7467 15.8695 21.2187 15.7176 20.4164 15.3618L20.0914 15.2093L19.7461 17.3519C20.3249 17.6156 21.3913 17.8496 22.4985 17.8598C25.088 17.8598 26.7739 16.5803 26.7939 14.6003C26.8037 13.5137 26.1442 12.6812 24.7223 12.0009C23.8591 11.5642 23.3305 11.2697 23.3305 10.8229C23.3406 10.4166 23.7776 10.0006 24.752 10.0006C25.5543 9.9802 26.1438 10.1731 26.5904 10.366L26.8136 10.4674L27.1492 8.40635Z" fill="#C2C2C2"/>
<path d="M30.4277 14.3351C30.6309 13.7868 31.413 11.6647 31.413 11.6647C31.4027 11.685 31.6158 11.1062 31.7377 10.7509L31.9102 11.5733C31.9102 11.5733 32.3775 13.8579 32.479 14.3351C32.0933 14.3351 30.9151 14.3351 30.4277 14.3351ZM33.474 8.17188H31.5651C30.9764 8.17188 30.5292 8.34435 30.2752 8.96379L26.6094 17.7163H29.1989C29.1989 17.7163 29.6252 16.5383 29.7169 16.2846C30.0009 16.2846 32.52 16.2846 32.8855 16.2846C32.9563 16.6197 33.1799 17.7163 33.1799 17.7163H35.465L33.474 8.17188Z" fill="#C2C2C2"/>
<path d="M13.6712 8.17188L11.2543 14.6804L10.9902 13.3604C10.5434 11.8373 9.14199 10.1824 7.57812 9.35962L9.79193 17.7063H12.4017L16.2809 8.17188H13.6712Z" fill="#C2C2C2"/>
<path d="M9.01128 8.17188H5.04062L5 8.36473C8.09736 9.15678 10.1487 11.066 10.9915 13.3608L10.1283 8.97418C9.98619 8.36459 9.54948 8.19198 9.01128 8.17188Z" fill="#939393"/>
</svg>
