<svg width="30" height="12" viewBox="0 0 30 12" fill="none" xmlns="http://www.w3.org/2000/svg">
<path d="M5.48157 1.5471C5.12996 1.95243 4.5674 2.27212 4.00483 2.22645C3.93451 1.6784 4.20994 1.0961 4.53224 0.736441C4.88384 0.319696 5.49915 0.0228354 5.99725 0C6.05585 0.570885 5.82731 1.13035 5.48157 1.5471ZM5.99139 2.33492C5.17684 2.28925 4.4795 2.78592 4.09274 2.78592C3.70011 2.78592 3.10825 2.35775 2.46364 2.36917C1.62566 2.38059 0.84627 2.84301 0.418486 3.57945C-0.460521 5.05233 0.189944 7.23311 1.03965 8.43197C1.45571 9.02569 1.95382 9.6765 2.61014 9.65366C3.23131 9.63083 3.47743 9.25975 4.22752 9.25975C4.98346 9.25975 5.20028 9.65366 5.85661 9.64225C6.53637 9.63083 6.96416 9.04853 7.38022 8.45481C7.85489 7.78116 8.04827 7.12464 8.05999 7.09039C8.04827 7.07897 6.74734 6.59372 6.73562 5.13226C6.7239 3.91056 7.76112 3.32826 7.808 3.29401C7.222 2.4491 6.30783 2.35775 5.99139 2.33492ZM10.697 0.679353V9.57945H12.1151V6.53663H14.0783C15.8714 6.53663 17.1313 5.33777 17.1313 3.60228C17.1313 1.86679 15.8949 0.679353 14.1251 0.679353H10.697ZM12.1151 1.84396H13.7501C14.9807 1.84396 15.6839 2.48335 15.6839 3.60799C15.6839 4.73264 14.9807 5.37774 13.7442 5.37774H12.1151V1.84396ZM19.7215 9.64795C20.6122 9.64795 21.4385 9.20837 21.8135 8.51189H21.8428V9.57945H23.1555V5.14938C23.1555 3.86489 22.1007 3.03711 20.4774 3.03711C18.9714 3.03711 17.858 3.87631 17.817 5.0295H19.0945C19.1999 4.48145 19.7215 4.12179 20.4364 4.12179C21.3037 4.12179 21.7901 4.5157 21.7901 5.24072V5.73168L20.0203 5.83444C18.3737 5.93149 17.4829 6.58801 17.4829 7.72978C17.4829 8.88297 18.403 9.64795 19.7215 9.64795ZM20.1024 8.59182C19.3464 8.59182 18.8659 8.23787 18.8659 7.69553C18.8659 7.13606 19.3289 6.81066 20.2137 6.75928L21.7901 6.66223V7.16461C21.7901 7.9981 21.0634 8.59182 20.1024 8.59182ZM24.9076 12C26.2906 12 26.9411 11.4862 27.5095 9.92769L30 3.12274H28.5584L26.8883 8.38059H26.859L25.1889 3.12274H23.7063L26.1089 9.60228L25.98 9.99619C25.7632 10.6641 25.4116 10.921 24.7846 10.921C24.6732 10.921 24.4564 10.9096 24.3685 10.8982V11.9657C24.4505 11.9886 24.8021 12 24.9076 12Z" fill="#C2C2C2"/>
</svg>
