<svg width="18" height="18" viewBox="0 0 18 18" fill="none" xmlns="http://www.w3.org/2000/svg">
<g clip-path="url(#clip0_359_1213)">
<path fill-rule="evenodd" clip-rule="evenodd" d="M9 0.9375C4.5472 0.9375 0.9375 4.5472 0.9375 9C0.9375 13.4528 4.5472 17.0625 9 17.0625C13.4528 17.0625 17.0625 13.4528 17.0625 9C17.0625 4.5472 13.4528 0.9375 9 0.9375ZM2.0625 9C2.0625 5.16853 5.16853 2.0625 9 2.0625C12.8315 2.0625 15.9375 5.16853 15.9375 9C15.9375 12.8315 12.8315 15.9375 9 15.9375C5.16853 15.9375 2.0625 12.8315 2.0625 9ZM7.96898 10.7116V10.8232H9.519V10.7116C9.52208 10.4085 9.56093 10.1539 9.6354 9.94808C9.71295 9.73927 9.83085 9.5577 9.98917 9.40327C10.1505 9.24877 10.3569 9.10012 10.6082 8.9571C10.8938 8.79982 11.1404 8.6211 11.3483 8.42085C11.5562 8.22068 11.7161 7.99193 11.8278 7.73453C11.9426 7.47712 12 7.18541 12 6.85939C12 6.37607 11.8728 5.95853 11.6183 5.60677C11.3669 5.25214 11.0147 4.97903 10.5617 4.78742C10.1117 4.59581 9.5904 4.5 8.99767 4.5C8.4546 4.5 7.9581 4.59151 7.50817 4.77454C7.06129 4.95757 6.70132 5.23213 6.42824 5.59819C6.15826 5.96425 6.01552 6.41897 6 6.96235H7.65713C7.67265 6.69352 7.74397 6.47188 7.87125 6.29743C8.00152 6.12011 8.1645 5.98856 8.35995 5.90276C8.55855 5.81411 8.76802 5.76978 8.98837 5.76978C9.22732 5.76978 9.44295 5.81554 9.6354 5.90705C9.83085 5.99857 9.98602 6.12727 10.1009 6.29314C10.2157 6.45901 10.2731 6.65491 10.2731 6.88084C10.2731 7.08103 10.2296 7.26263 10.1428 7.42564C10.0559 7.5858 9.93638 7.73167 9.78435 7.86322C9.6354 7.99192 9.46628 8.11057 9.27697 8.21925C9.00075 8.37652 8.76645 8.54955 8.57408 8.73833C8.3817 8.92425 8.23275 9.17018 8.12722 9.47618C8.02485 9.78218 7.97205 10.194 7.96898 10.7116ZM8.0574 13.2254C8.25915 13.4085 8.4996 13.5 8.7789 13.5C8.96513 13.5 9.13417 13.4585 9.28627 13.3756C9.44145 13.2898 9.56557 13.1754 9.65865 13.0324C9.75487 12.8894 9.80295 12.7307 9.80295 12.5563C9.80295 12.2989 9.70057 12.0787 9.49575 11.8956C9.294 11.7126 9.05505 11.6211 8.7789 11.6211C8.4996 11.6211 8.25915 11.7126 8.0574 11.8956C7.85573 12.0787 7.75485 12.2989 7.75485 12.5563C7.75485 12.8194 7.85573 13.0424 8.0574 13.2254Z" fill="#DCDCDC"/>
</g>
<defs>
<clipPath id="clip0_359_1213">
<rect width="18" height="18" fill="white"/>
</clipPath>
</defs>
</svg>
