<svg width="28" height="28" viewBox="0 0 28 28" fill="none" xmlns="http://www.w3.org/2000/svg">
<g clip-path="url(#clip0_660_80)">
<path d="M2.46094 11.4844H10.3243L13.3653 14.5253C13.5223 14.6823 13.732 14.7657 13.9455 14.7656C14.0512 14.7656 14.1578 14.7452 14.2593 14.7032C14.5658 14.5762 14.7657 14.2771 14.7657 13.9453V11.4844H16.6797C18.0367 11.4844 19.1407 10.3804 19.1407 9.02344V2.46094C19.1407 1.10398 18.0367 0 16.6797 0H2.46094C1.10398 0 0 1.10398 0 2.46094V9.02344C0 10.3804 1.10398 11.4844 2.46094 11.4844ZM4.10156 3.28125H15.0391C15.4921 3.28125 15.8594 3.64853 15.8594 4.10156C15.8594 4.55459 15.4921 4.92188 15.0391 4.92188H4.10156C3.64853 4.92188 3.28125 4.55459 3.28125 4.10156C3.28125 3.64853 3.64853 3.28125 4.10156 3.28125ZM4.10156 6.5625H15.0391C15.4921 6.5625 15.8594 6.92978 15.8594 7.38281C15.8594 7.83584 15.4921 8.20312 15.0391 8.20312H4.10156C3.64853 8.20312 3.28125 7.83584 3.28125 7.38281C3.28125 6.92978 3.64853 6.5625 4.10156 6.5625Z" fill="url(#paint0_linear_660_80)"/>
<path d="M11.2109 18.5938H10.3081C10.2015 18.0708 9.99469 17.5842 9.70938 17.1538L10.3494 16.5138C10.6698 16.1935 10.6698 15.6741 10.3494 15.3537C10.0291 15.0334 9.50972 15.0334 9.18936 15.3537L8.5493 15.9938C8.11896 15.7084 7.6323 15.5016 7.10943 15.3951V14.4922C7.10943 14.0392 6.74215 13.6719 6.28912 13.6719C5.83609 13.6719 5.4688 14.0392 5.4688 14.4922V15.395C4.94594 15.5016 4.45927 15.7084 4.02894 15.9937L3.38888 15.3537C3.06857 15.0334 2.54915 15.0334 2.22879 15.3537C1.90848 15.674 1.90848 16.1934 2.22879 16.5138L2.86885 17.1538C2.58349 17.5841 2.37666 18.0708 2.27013 18.5937H1.36719C0.914156 18.5937 0.546875 18.961 0.546875 19.414C0.546875 19.867 0.914156 20.2343 1.36719 20.2343H2.27002C2.37661 20.7572 2.58344 21.2439 2.86874 21.6742L2.22868 22.3143C1.90832 22.6346 1.90832 23.154 2.22868 23.4743C2.38891 23.6346 2.5988 23.7146 2.80875 23.7146C3.01864 23.7146 3.22864 23.6345 3.38877 23.4743L4.02883 22.8343C4.45916 23.1196 4.94583 23.3265 5.4687 23.433V24.3359C5.4687 24.789 5.83598 25.1562 6.28901 25.1562C6.74204 25.1562 7.10932 24.789 7.10932 24.3359V23.4331C7.63219 23.3266 8.11885 23.1197 8.54919 22.8344L9.18925 23.4744C9.34943 23.6346 9.55937 23.7147 9.76927 23.7147C9.97916 23.7147 10.1892 23.6346 10.3493 23.4744C10.6696 23.1541 10.6696 22.6347 10.3493 22.3144L9.70927 21.6744C9.99463 21.244 10.2015 20.7574 10.308 20.2344H11.2109C11.664 20.2344 12.0312 19.8671 12.0312 19.4141C12.0312 18.9611 11.664 18.5938 11.2109 18.5938ZM6.28906 20.2344C5.83603 20.2344 5.46875 19.8671 5.46875 19.4141C5.46875 18.961 5.83603 18.5938 6.28906 18.5938C6.74209 18.5938 7.10938 18.961 7.10938 19.4141C7.10938 19.8671 6.74209 20.2344 6.28906 20.2344Z" fill="url(#paint1_linear_660_80)"/>
<path d="M27.5897 21.7672L26.9171 21.3788C26.9489 21.1234 26.965 20.8688 26.965 20.6172C26.965 20.3656 26.9489 20.111 26.9171 19.8556L27.5897 19.4672C27.982 19.2406 28.1165 18.7389 27.89 18.3466L26.2493 15.5049C26.0228 15.1126 25.5211 14.9781 25.1288 15.2047L24.4532 15.5947C24.0437 15.2842 23.6037 15.0282 23.1369 14.8291V14.0547C23.1369 13.6017 22.7696 13.2344 22.3166 13.2344H19.0353C18.5823 13.2344 18.215 13.6017 18.215 14.0547V14.8291C17.7483 15.0282 17.3082 15.2842 16.8987 15.5947L16.2232 15.2047C15.8309 14.9781 15.3292 15.1126 15.1027 15.5049L13.462 18.3466C13.2355 18.7389 13.3699 19.2406 13.7623 19.4671L14.4349 19.8555C14.403 20.1109 14.387 20.3656 14.387 20.6171C14.387 20.8687 14.403 21.1233 14.4349 21.3788L13.7623 21.7672C13.3699 21.9937 13.2355 22.4954 13.462 22.8877L15.1027 25.7294C15.3292 26.1218 15.8309 26.2562 16.2233 26.0296L16.8988 25.6396C17.3084 25.9501 17.7483 26.2061 18.2151 26.4052V27.1797C18.2151 27.6327 18.5824 28 19.0354 28H22.3166C22.7697 28 23.137 27.6327 23.137 27.1797V26.4053C23.6037 26.2061 24.0437 25.9502 24.4533 25.6396L25.1288 26.0297C25.5211 26.2562 26.0228 26.1218 26.2493 25.7294L27.89 22.8878C28.1165 22.4954 27.982 21.9937 27.5897 21.7672ZM20.676 23.0781C19.319 23.0781 18.215 21.9741 18.215 20.6172C18.215 19.2602 19.319 18.1562 20.676 18.1562C22.0329 18.1562 23.1369 19.2602 23.1369 20.6172C23.1369 21.9741 22.0329 23.0781 20.676 23.0781Z" fill="url(#paint2_linear_660_80)"/>
</g>
<defs>
<linearGradient id="paint0_linear_660_80" x1="9.57034" y1="0" x2="9.57034" y2="14.7656" gradientUnits="userSpaceOnUse">
<stop stop-color="#CDDBEB"/>
<stop offset="0.492657" stop-color="#84A0BF"/>
<stop offset="1" stop-color="#4D6992"/>
</linearGradient>
<linearGradient id="paint1_linear_660_80" x1="6.28906" y1="13.6719" x2="6.28906" y2="25.1562" gradientUnits="userSpaceOnUse">
<stop stop-color="#CDDBEB"/>
<stop offset="0.492657" stop-color="#84A0BF"/>
<stop offset="1" stop-color="#4D6992"/>
</linearGradient>
<linearGradient id="paint2_linear_660_80" x1="20.676" y1="13.2344" x2="20.676" y2="28" gradientUnits="userSpaceOnUse">
<stop stop-color="#CDDBEB"/>
<stop offset="0.492657" stop-color="#84A0BF"/>
<stop offset="1" stop-color="#4D6992"/>
</linearGradient>
<clipPath id="clip0_660_80">
<rect width="28" height="28" fill="white"/>
</clipPath>
</defs>
</svg>
