<svg width="14" height="14" viewBox="0 0 14 14" fill="none" xmlns="http://www.w3.org/2000/svg">
<path d="M1.98333 6.88333C2.21667 7.35 2.56667 7.7 2.975 7.875C3.5 8.16667 4.08333 8.16667 5.13333 8.16667L10.2667 8.16667L8.925 9.50833C8.69167 9.74167 8.69167 10.0917 8.925 10.325C9.15833 10.5583 9.50833 10.5583 9.74167 10.325L12.075 7.99167C12.1333 7.93333 12.1917 7.875 12.1917 7.81667C12.25 7.75833 12.25 7.64167 12.25 7.58333C12.25 7.525 12.25 7.40833 12.1917 7.35C12.1917 7.29167 12.1333 7.23333 12.075 7.175L9.74167 4.84167C9.50833 4.60833 9.15833 4.60833 8.925 4.84167C8.69167 5.075 8.69167 5.425 8.925 5.65833L10.2667 7L5.13333 7C4.25833 7 3.79167 7 3.55833 6.88333C3.325 6.76667 3.15 6.59167 3.03333 6.35833C2.91667 6.125 2.91667 2.875 2.91667 2L2.91667 1.3C2.91667 0.95 2.68333 0.716667 2.33333 0.716667C1.98333 0.716667 1.75 0.95 1.75 1.3L1.75 2C1.75 3.05 1.75 6.41667 1.98333 6.88333Z" fill="#DCDCDC"/>
</svg>
