<svg width="28" height="28" viewBox="0 0 28 28" fill="none" xmlns="http://www.w3.org/2000/svg">
<g clip-path="url(#clip0_660_229)">
<path d="M22.2394 17.4779V19.6485H27.6988L26.4376 16.9165H23.06C22.6229 16.9165 22.2394 17.1788 22.2394 17.4779Z" fill="url(#paint0_linear_660_229)"/>
<path d="M24.9922 26.011C24.9922 24.9692 24.1351 24.1245 23.0781 24.1245C22.0209 24.1245 21.1638 24.9692 21.1638 26.011C21.1638 27.0531 22.0209 27.8977 23.0781 27.8977C24.1351 27.8977 24.9922 27.0531 24.9922 26.011Z" fill="url(#paint1_linear_660_229)"/>
<path d="M10.4609 26.011C10.4609 24.9692 9.60406 24.1245 8.54684 24.1245C7.48962 24.1245 6.63278 24.9692 6.63278 26.011C6.63278 27.0531 7.48962 27.8977 8.54684 27.8977C9.60406 27.8977 10.4609 27.0531 10.4609 26.011Z" fill="url(#paint2_linear_660_229)"/>
<path d="M15.8767 13.7642C15.408 14.3167 14.7238 14.6335 13.9998 14.6335C13.2756 14.6335 12.5916 14.3167 12.1229 13.7642C11.3633 12.8691 10.3648 11.5831 9.51285 10.1245H3.48547C3.03238 10.1245 2.66516 10.4864 2.66516 10.9329V11.7416H5.64542C6.09851 11.7416 6.46573 12.1035 6.46573 12.5502C6.46573 12.9967 6.09851 13.3588 5.64542 13.3588H2.66516V11.7416H0.820312C0.367218 11.7416 0 12.1035 0 12.5502C0 12.9967 0.367218 13.3588 0.820312 13.3588H2.66516V14.9759H9.3223C9.77518 14.9759 10.1426 15.3378 10.1426 15.7842C10.1426 16.2309 9.77518 16.5928 9.3223 16.5928H2.66516V18.1409H6.63278C7.08588 18.1409 7.45309 18.5028 7.45309 18.9495C7.45309 19.396 7.08588 19.7581 6.63278 19.7581H2.66516V24.5287C2.66516 24.9752 3.03238 25.3372 3.48547 25.3372H5.05881C5.37839 23.7265 6.82056 22.5072 8.54684 22.5072C10.2731 22.5072 11.7153 23.7265 12.0349 25.3372H17.9191V11.472C17.9191 11.3488 17.9018 11.2296 17.8704 11.1161C17.1813 12.1629 16.4586 13.0783 15.8767 13.7642Z" fill="url(#paint3_linear_660_229)"/>
<path d="M1.96875 14.9756C1.51566 14.9756 1.14844 15.3377 1.14844 15.7841C1.14844 16.2306 1.51566 16.5927 1.96875 16.5927H2.66516V14.9756H1.96875Z" fill="url(#paint4_linear_660_229)"/>
<path d="M0.820313 18.1406C0.367218 18.1406 0 18.5027 0 18.9492C0 19.3959 0.367218 19.758 0.820313 19.758H2.66516V18.1406H0.820313Z" fill="url(#paint5_linear_660_229)"/>
<path d="M21.4191 21.2656C20.966 21.2656 20.5988 20.9037 20.5988 20.457V17.4778C20.5988 16.2766 21.7028 15.2993 23.0598 15.2993H25.6892C24.8805 13.6324 23.0098 12.5596 20.896 12.5596H19.5598V25.3641H19.585C19.8939 23.7402 21.3422 22.5071 23.0781 22.5071C24.8138 22.5071 26.2622 23.7402 26.5711 25.3641H27.1797C27.6328 25.3641 28 25.002 28 24.5556V21.2656H21.4191Z" fill="url(#paint6_linear_660_229)"/>
<path d="M13.9998 0.109375C11.451 0.109375 9.3851 2.17554 9.3851 4.72406C9.3851 7.66223 12.1126 11.2167 13.3739 12.7029C13.702 13.0895 14.2976 13.0895 14.6257 12.7029C15.8867 11.2165 18.6145 7.66223 18.6145 4.72406C18.6145 2.17554 16.5483 0.109375 13.9998 0.109375ZM13.9998 6.33286C13.0951 6.33286 12.3592 5.59692 12.3592 4.69223C12.3592 3.78754 13.0951 3.05161 13.9998 3.05161C14.9045 3.05161 15.6404 3.78754 15.6404 4.69223C15.6404 5.59692 14.9045 6.33286 13.9998 6.33286Z" fill="url(#paint7_linear_660_229)"/>
</g>
<defs>
<linearGradient id="paint0_linear_660_229" x1="24.9691" y1="16.9165" x2="24.9691" y2="19.6485" gradientUnits="userSpaceOnUse">
<stop stop-color="#CDDBEB"/>
<stop offset="0.492657" stop-color="#84A0BF"/>
<stop offset="1" stop-color="#4D6992"/>
</linearGradient>
<linearGradient id="paint1_linear_660_229" x1="23.078" y1="24.1245" x2="23.078" y2="27.8977" gradientUnits="userSpaceOnUse">
<stop stop-color="#CDDBEB"/>
<stop offset="0.492657" stop-color="#84A0BF"/>
<stop offset="1" stop-color="#4D6992"/>
</linearGradient>
<linearGradient id="paint2_linear_660_229" x1="8.54684" y1="24.1245" x2="8.54684" y2="27.8977" gradientUnits="userSpaceOnUse">
<stop stop-color="#CDDBEB"/>
<stop offset="0.492657" stop-color="#84A0BF"/>
<stop offset="1" stop-color="#4D6992"/>
</linearGradient>
<linearGradient id="paint3_linear_660_229" x1="8.95956" y1="10.1245" x2="8.95956" y2="25.3372" gradientUnits="userSpaceOnUse">
<stop stop-color="#CDDBEB"/>
<stop offset="0.492657" stop-color="#84A0BF"/>
<stop offset="1" stop-color="#4D6992"/>
</linearGradient>
<linearGradient id="paint4_linear_660_229" x1="1.9068" y1="14.9756" x2="1.9068" y2="16.5927" gradientUnits="userSpaceOnUse">
<stop stop-color="#CDDBEB"/>
<stop offset="0.492657" stop-color="#84A0BF"/>
<stop offset="1" stop-color="#4D6992"/>
</linearGradient>
<linearGradient id="paint5_linear_660_229" x1="1.33258" y1="18.1406" x2="1.33258" y2="19.758" gradientUnits="userSpaceOnUse">
<stop stop-color="#CDDBEB"/>
<stop offset="0.492657" stop-color="#84A0BF"/>
<stop offset="1" stop-color="#4D6992"/>
</linearGradient>
<linearGradient id="paint6_linear_660_229" x1="23.7799" y1="12.5596" x2="23.7799" y2="25.3641" gradientUnits="userSpaceOnUse">
<stop stop-color="#CDDBEB"/>
<stop offset="0.492657" stop-color="#84A0BF"/>
<stop offset="1" stop-color="#4D6992"/>
</linearGradient>
<linearGradient id="paint7_linear_660_229" x1="13.9998" y1="0.109375" x2="13.9998" y2="12.9929" gradientUnits="userSpaceOnUse">
<stop stop-color="#CDDBEB"/>
<stop offset="0.492657" stop-color="#84A0BF"/>
<stop offset="1" stop-color="#4D6992"/>
</linearGradient>
<clipPath id="clip0_660_229">
<rect width="28" height="28" fill="white"/>
</clipPath>
</defs>
</svg>
