<svg width="410" height="35" viewBox="0 0 410 35" fill="none" xmlns="http://www.w3.org/2000/svg">
<path d="M222.65 12.8545C222.263 9.87522 221.178 7.1633 219.281 5.1771C217.268 3.30549 214.518 2.236 211.498 1.85404C208.594 1.47208 206.619 1.58667 206.619 1.58667C206.619 1.58667 204.645 1.51028 201.741 1.85404C198.72 2.236 195.971 3.30549 193.958 5.1771C192.06 7.1633 190.976 9.87522 190.589 12.8545C190.202 15.7192 190.279 17.6672 190.279 17.6672C190.279 17.6672 190.202 19.6152 190.55 22.4799C190.937 25.4588 192.022 28.1711 193.919 30.1573C195.932 32.0289 198.682 33.098 201.702 33.48C204.606 33.862 206.581 33.7478 206.581 33.7478C206.581 33.7478 208.555 33.8238 211.459 33.48C214.48 33.098 217.229 32.0289 219.242 30.1573C221.14 28.1715 222.224 25.4588 222.611 22.4799C222.998 19.6152 222.882 17.6672 222.882 17.6672C222.882 17.6672 223.037 15.7192 222.65 12.8545Z" fill="#1E4BC6"/>
<path d="M196.281 12.969H199.224C199.688 12.969 200.076 13.0454 200.463 13.1982C200.85 13.351 201.16 13.5801 201.431 13.8475C201.702 14.1149 201.934 14.4204 202.089 14.8024C202.244 15.1844 202.321 15.5663 202.321 15.9865C202.321 16.4066 202.244 16.7886 202.089 17.1706C201.934 17.5525 201.702 17.8585 201.431 18.1255C201.16 18.3925 200.811 18.6224 200.463 18.7744C200.114 18.9272 199.688 19.0044 199.224 19.0044H197.907V21.4103H196.32V12.969H196.281ZM197.868 14.4208V17.5147H199.107C199.34 17.5147 199.572 17.4765 199.766 17.4001C199.959 17.3237 200.114 17.2091 200.269 17.0564C200.424 16.9036 200.501 16.7508 200.579 16.5598C200.656 16.3688 200.695 16.1778 200.695 15.9487C200.695 15.7195 200.656 15.5285 200.579 15.3375C200.501 15.1466 200.385 14.9938 200.269 14.841C200.114 14.6882 199.959 14.5736 199.766 14.4972C199.572 14.4208 199.34 14.3826 199.107 14.3826H197.868V14.4208ZM206 21.4103C205.574 21.4103 205.187 21.3343 204.761 21.1811C204.374 21.0284 203.986 20.7992 203.677 20.5322C203.367 20.2262 203.096 19.8825 202.902 19.4623C202.709 19.0422 202.592 18.5456 202.592 18.0109C202.592 17.4761 202.67 16.9796 202.863 16.5594C203.057 16.1393 203.328 15.7955 203.638 15.4899C203.948 15.1844 204.335 14.9934 204.722 14.8406C205.148 14.6878 205.535 14.6114 206 14.6114C206.464 14.6114 206.89 14.6878 207.239 14.8406C207.626 14.9934 207.936 15.2226 208.207 15.4899V14.6114H209.794V21.4099H208.207V20.455C207.975 20.761 207.626 20.9898 207.239 21.1808C206.852 21.3343 206.464 21.4103 206 21.4103ZM206.271 19.9975C206.581 19.9975 206.852 19.9593 207.084 19.8447C207.316 19.7301 207.549 19.6155 207.742 19.4245C207.936 19.2335 208.052 19.0426 208.168 18.8134C208.284 18.5834 208.323 18.3164 208.323 18.0495C208.323 17.7817 208.284 17.5143 208.168 17.2855C208.052 17.0564 207.936 16.8272 207.742 16.6744C207.549 16.4834 207.355 16.3688 207.084 16.2542C206.813 16.1015 206.542 16.0633 206.271 16.0633C206 16.0633 205.729 16.1015 205.458 16.216C205.187 16.3306 204.993 16.4452 204.799 16.6362C204.606 16.8272 204.451 17.0182 204.374 17.2473C204.257 17.4765 204.219 17.7439 204.219 18.0113C204.219 18.2786 204.257 18.5456 204.374 18.7748C204.49 19.0047 204.645 19.2335 204.799 19.4245C204.993 19.6155 205.225 19.7297 205.458 19.8447C205.69 19.9207 205.961 19.9975 206.271 19.9975ZM212.002 14.6496L213.938 19.2713L215.719 14.6496H217.384L213.318 24.5042H211.692L213.124 21.1051L210.337 14.6496H212.002Z" fill="white"/>
<path d="M369.697 16.9652V25.7266H366.832V4.05884H374.282C376.096 4.05884 377.814 4.71704 379.153 5.94216C380.49 7.07156 381.159 8.76787 381.159 10.5584C381.159 12.349 380.492 13.9496 379.153 15.1747C377.815 16.3998 376.193 17.058 374.282 17.058L369.697 16.9652ZM369.697 6.69607V14.2338H374.473C375.524 14.2338 376.575 13.8553 377.244 13.1044C378.772 11.6922 378.772 9.33625 377.338 7.92266L377.244 7.82695C376.479 7.07303 375.524 6.60183 374.473 6.69754H369.697V6.69607Z" fill="#5F6368"/>
<path d="M387.748 10.4656C389.85 10.4656 391.472 11.0295 392.714 12.1619C393.956 13.2913 394.528 14.7991 394.528 16.6839V25.7294H391.855V23.6562H391.76C390.616 25.3525 388.99 26.2006 387.081 26.2006C385.458 26.2006 384.024 25.7294 382.879 24.7885C381.828 23.8461 381.159 22.5268 381.159 21.1146C381.159 19.6068 381.732 18.3846 382.879 17.4408C384.024 16.4984 385.646 16.1214 387.558 16.1214C389.278 16.1214 390.616 16.4041 391.665 17.0638V16.4056C391.665 15.4632 391.284 14.5223 390.52 13.9554C389.756 13.2972 388.8 12.9187 387.75 12.9187C386.127 12.9187 384.885 13.577 384.025 14.8978L381.541 13.3899C383.068 11.4065 385.075 10.4656 387.748 10.4656ZM384.119 21.2045C384.119 21.9584 384.5 22.6166 385.075 22.9935C385.742 23.4647 386.506 23.7475 387.27 23.7475C388.415 23.7475 389.563 23.2763 390.422 22.4296C391.377 21.5799 391.853 20.5463 391.853 19.4139C390.995 18.7557 389.751 18.3773 388.129 18.3773C386.984 18.3773 386.027 18.66 385.264 19.224C384.5 19.6966 384.119 20.3563 384.119 21.2045Z" fill="#5F6368"/>
<path d="M410 10.9368L400.547 32.3203H397.679L401.214 24.8783L395.006 11.0295H398.063L402.55 21.6742H402.645L407.038 11.0295H410V10.9368Z" fill="#5F6368"/>
<path d="M358.334 15.0818C358.334 14.2322 358.237 13.3855 358.143 12.5374H346.206V17.3421H352.985C352.699 18.8499 351.841 20.262 350.502 21.1102V24.2186H354.608C356.995 22.0526 358.334 18.8485 358.334 15.0818Z" fill="#4285F4"/>
<path d="M346.203 27.233C349.64 27.233 352.505 26.1036 354.608 24.2174L350.502 21.1089C349.357 21.8628 347.922 22.334 346.206 22.334C342.957 22.334 340.093 20.168 339.139 17.1523H334.934V20.3565C337.13 24.5958 341.429 27.233 346.203 27.233Z" fill="#34A853"/>
<path d="M339.136 17.1539C338.563 15.6461 338.563 13.9498 339.136 12.3492V9.14502H334.934C333.119 12.6319 333.119 16.7769 334.934 20.3566L339.136 17.1539Z" fill="#FBBC04"/>
<path d="M346.203 7.26157C348.018 7.26157 349.737 7.91978 351.073 9.14489L354.704 5.56526C352.411 3.49347 349.355 2.26835 346.298 2.36112C341.521 2.36112 337.131 4.99835 335.03 9.23913L339.232 12.4403C340.091 9.42908 342.956 7.26157 346.203 7.26157Z" fill="#EA4335"/>
<path d="M255.762 6.84126C254.932 7.81061 253.603 8.57517 252.274 8.46595C252.108 7.15528 252.759 5.76269 253.52 4.90257C254.35 3.90591 255.804 3.19597 256.98 3.14136C257.118 4.50664 256.579 5.84461 255.762 6.84126ZM256.966 8.72535C255.042 8.61613 253.395 9.80392 252.482 9.80392C251.555 9.80392 250.157 8.77996 248.634 8.80727C246.655 8.83457 244.814 9.94045 243.804 11.7017C241.728 15.2241 243.264 20.4394 245.271 23.3065C246.254 24.7264 247.43 26.2828 248.98 26.2282C250.447 26.1736 251.029 25.2862 252.8 25.2862C254.586 25.2862 255.098 26.2282 256.648 26.2009C258.253 26.1736 259.264 24.781 260.246 23.3611C261.367 21.7501 261.824 20.18 261.852 20.0981C261.824 20.0708 258.751 18.9103 258.724 15.4152C258.696 12.4935 261.146 11.1009 261.257 11.019C259.873 8.99841 257.713 8.77996 256.966 8.72535ZM268.08 4.76604V26.0507H271.429V18.7738H276.066C280.301 18.7738 283.277 15.9067 283.277 11.7563C283.277 7.60582 280.356 4.76604 276.176 4.76604H268.08ZM271.429 7.55121H275.291C278.197 7.55121 279.858 9.08032 279.858 11.7699C279.858 14.4595 278.197 16.0023 275.277 16.0023H271.429V7.55121ZM289.394 26.2146C291.498 26.2146 293.449 25.1633 294.335 23.4977H294.404V26.0507H297.504V15.4562C297.504 12.3843 295.013 10.4046 291.179 10.4046C287.622 10.4046 284.993 12.4116 284.896 15.1695H287.913C288.162 13.8588 289.394 12.9987 291.083 12.9987C293.131 12.9987 294.28 13.9407 294.28 15.6746V16.8488L290.1 17.0945C286.211 17.3266 284.107 18.8967 284.107 21.6272C284.107 24.3851 286.28 26.2146 289.394 26.2146ZM290.294 23.6888C288.508 23.6888 287.373 22.8423 287.373 21.5453C287.373 20.2073 288.467 19.4291 290.557 19.3063L294.28 19.0742V20.2756C294.28 22.2689 292.563 23.6888 290.294 23.6888ZM301.643 31.8395C304.909 31.8395 306.445 30.6108 307.788 26.8836L313.67 10.6094H310.265L306.321 23.1837H306.252L302.307 10.6094H298.805L304.48 26.1054L304.175 27.0474C303.663 28.6448 302.833 29.2592 301.352 29.2592C301.089 29.2592 300.577 29.2318 300.369 29.2045V31.7576C300.563 31.8122 301.394 31.8395 301.643 31.8395Z" fill="#272727"/>
<path d="M99.8301 8.10718H88.8527V27.2707H99.8301V8.10718Z" fill="#FF5F00"/>
<path d="M89.5495 17.6889C89.5495 13.9646 91.3268 10.4095 94.3238 8.10718C88.8874 3.94267 81.0115 4.85683 76.7251 10.1725C72.4387 15.4543 73.3796 23.1062 78.8509 27.2707C83.4161 30.758 89.7935 30.758 94.3587 27.2707C91.3268 24.9684 89.5495 21.4133 89.5495 17.6889Z" fill="#EB001B"/>
<path d="M114.641 17.6889C114.641 24.4266 109.03 29.8777 102.095 29.8777C99.2725 29.8777 96.5542 28.9636 94.3588 27.2707C99.7952 23.1062 100.736 15.4543 96.4497 10.1386C95.8224 9.39378 95.1254 8.68276 94.3588 8.10718C99.7952 3.94267 107.706 4.85683 111.957 10.1725C113.7 12.3055 114.641 14.9465 114.641 17.6889Z" fill="#F79E1B"/>
<path d="M113.456 25.2391V24.8329H113.63V24.7651H113.212V24.8329H113.386V25.2391H113.456ZM114.258 25.2391V24.7651H114.118L113.979 25.1037L113.839 24.7651H113.7V25.2391H113.804V24.8667L113.944 25.1714H114.048L114.188 24.8667V25.2391H114.258Z" fill="#F79E1B"/>
<path d="M134.544 0H170.28V18.894L168.511 21.6009L170.28 24.0101V35H134.544V17.1887L135.649 15.9435L134.544 14.7525V0Z" fill="#016FD0"/>
<path d="M141.481 24.3888V18.8938H147.422L148.059 19.7076L148.717 18.8938H170.28V24.0098C170.28 24.0098 169.716 24.3833 169.064 24.3888H157.124L156.406 23.5226V24.3888H154.051V22.9101C154.051 22.9101 153.729 23.1165 153.034 23.1165H152.232V24.3888H148.667L148.03 23.5576L147.384 24.3888H141.481Z" fill="white"/>
<path d="M134.544 14.7524L135.883 11.6936H138.2L138.96 13.407V11.6936H141.84L142.293 12.932L142.732 11.6936H155.659V12.3162C155.659 12.3162 156.339 11.6936 157.456 11.6936L161.65 11.708L162.398 13.3989V11.6936H164.808L165.471 12.6649V11.6936H167.903V17.1886H165.471L164.835 16.2141V17.1886H161.294L160.938 16.3224H159.986L159.636 17.1886H157.235C156.274 17.1886 155.659 16.5787 155.659 16.5787V17.1886H152.039L151.32 16.3224V17.1886H137.857L137.501 16.3224H136.552L136.199 17.1886H134.544V14.7524Z" fill="white"/>
<path d="M136.357 12.3713L134.551 16.4858H135.727L136.06 15.6619H137.998L138.33 16.4858H139.532L137.727 12.3713H136.357ZM137.026 13.3289L137.617 14.7686H136.433L137.026 13.3289Z" fill="#016FD0"/>
<path d="M139.657 16.4848V12.3704L141.328 12.3764L142.301 15.0292L143.25 12.3704H144.908V16.4848H143.858V13.4531L142.744 16.4848H141.823L140.707 13.4531V16.4848H139.657Z" fill="#016FD0"/>
<path d="M145.627 16.4848V12.3704H149.054V13.2907H146.688V13.9945H148.999V14.8607H146.688V15.5916H149.054V16.4848H145.627Z" fill="#016FD0"/>
<path d="M149.662 12.3713V16.4858H150.712V15.0241H151.154L152.414 16.4858H153.697L152.315 14.9699C152.882 14.9231 153.467 14.4463 153.467 13.7062C153.467 12.8403 152.773 12.3713 151.999 12.3713H149.662ZM150.712 13.2917H151.913C152.201 13.2917 152.41 13.5123 152.41 13.7248C152.41 13.9981 152.139 14.1579 151.928 14.1579H150.712V13.2917Z" fill="#016FD0"/>
<path d="M154.968 16.4848H153.896V12.3704H154.968V16.4848Z" fill="#016FD0"/>
<path d="M157.511 16.4848H157.28C156.16 16.4848 155.48 15.6207 155.48 14.4445C155.48 13.2393 156.152 12.3704 157.566 12.3704H158.727V13.3448H157.524C156.95 13.3448 156.544 13.7837 156.544 14.4547C156.544 15.2515 157.008 15.5861 157.677 15.5861H157.953L157.511 16.4848Z" fill="#016FD0"/>
<path d="M159.796 12.3713L157.99 16.4858H159.166L159.499 15.6619H161.437L161.769 16.4858H162.971L161.166 12.3713H159.796ZM160.465 13.3289L161.056 14.7686H159.872L160.465 13.3289Z" fill="#016FD0"/>
<path d="M163.094 16.4848V12.3704H164.429L166.134 14.9554V12.3704H167.184V16.4848H165.892L164.144 13.8321V16.4848H163.094Z" fill="#016FD0"/>
<path d="M142.199 23.6853V19.5708H145.627V20.4911H143.261V21.1949H145.571V22.0611H143.261V22.792H145.627V23.6853H142.199Z" fill="#016FD0"/>
<path d="M158.993 23.6853V19.5708H162.42V20.4911H160.054V21.1949H162.353V22.0611H160.054V22.792H162.42V23.6853H158.993Z" fill="#016FD0"/>
<path d="M145.76 23.6853L147.428 21.6534L145.72 19.5708H147.043L148.06 20.8583L149.081 19.5708H150.353L148.667 21.628L150.339 23.6853H149.016L148.028 22.4181L147.064 23.6853H145.76Z" fill="#016FD0"/>
<path d="M150.463 19.5715V23.686H151.541V22.3867H152.647C153.582 22.3867 154.291 21.9006 154.291 20.9554C154.291 20.1724 153.735 19.5715 152.783 19.5715H150.463ZM151.541 20.502H152.706C153.008 20.502 153.224 20.6834 153.224 20.9757C153.224 21.2503 153.009 21.4494 152.702 21.4494H151.541V20.502Z" fill="#016FD0"/>
<path d="M154.747 19.5708V23.6853H155.798V22.2235H156.24L157.499 23.6853H158.783L157.401 22.1694C157.968 22.1225 158.553 21.6458 158.553 20.9056C158.553 20.0398 157.859 19.5708 157.084 19.5708H154.747ZM155.798 20.4911H156.998C157.286 20.4911 157.496 20.7118 157.496 20.9242C157.496 21.1976 157.224 21.3573 157.014 21.3573H155.798V20.4911Z" fill="#016FD0"/>
<path d="M162.906 23.6853V22.792H165.008C165.319 22.792 165.454 22.6274 165.454 22.4469C165.454 22.2739 165.319 22.099 165.008 22.099H164.058C163.233 22.099 162.773 21.6064 162.773 20.8667C162.773 20.207 163.194 19.5708 164.421 19.5708H166.466L166.024 20.4966H164.255C163.917 20.4966 163.813 20.6703 163.813 20.8363C163.813 21.0068 163.941 21.1949 164.2 21.1949H165.195C166.115 21.1949 166.514 21.7062 166.514 22.3758C166.514 23.0957 166.069 23.6853 165.144 23.6853H162.906Z" fill="#016FD0"/>
<path d="M166.761 23.6853V22.792H168.863C169.174 22.792 169.308 22.6274 169.308 22.4469C169.308 22.2739 169.174 22.099 168.863 22.099H167.913C167.087 22.099 166.627 21.6064 166.627 20.8667C166.627 20.207 167.049 19.5708 168.275 19.5708H170.321L169.878 20.4966H168.11C167.771 20.4966 167.667 20.6703 167.667 20.8363C167.667 21.0068 167.796 21.1949 168.054 21.1949H169.049C169.97 21.1949 170.369 21.7062 170.369 22.3758C170.369 23.0957 169.924 23.6853 168.999 23.6853H166.761Z" fill="#016FD0"/>
<path d="M35.2719 8.63867C31.4331 8.63867 27.9864 10.6103 27.9864 14.2284C27.9864 18.3952 34.0749 18.6798 34.0749 20.7531C34.0749 21.6271 33.0429 22.4198 31.3093 22.4198C28.8326 22.4198 26.9751 21.3222 26.9751 21.3222L26.1908 24.9809C26.1908 24.9809 28.3166 25.9159 31.1648 25.9159C35.3751 25.9159 38.6774 23.863 38.6774 20.1636C38.6774 15.7732 32.5682 15.4886 32.5682 13.5576C32.5682 12.8665 33.4144 12.1144 35.1481 12.1144C37.1088 12.1144 38.7186 12.9072 38.7186 12.9072L39.5029 9.37041C39.4823 9.37041 37.728 8.63867 35.2719 8.63867ZM0.103195 8.90291L0 9.43139C0 9.43139 1.60984 9.71596 3.0752 10.3054C4.95334 10.9762 5.07718 11.3624 5.4074 12.5616L8.8541 25.6313H13.4772L20.5564 8.90291H15.9539L11.3927 20.2856L9.53519 10.6306C9.37008 9.53302 8.50324 8.90291 7.43002 8.90291H0.103195ZM22.4139 8.90291L18.8021 25.6313H23.1982L26.7893 8.90291H22.4139ZM46.8917 8.90291C45.8391 8.90291 45.2818 9.45172 44.869 10.4274L38.4297 25.6313H43.0322L43.9197 23.0906H49.5334L50.0701 25.6313H54.1359L50.6067 8.90291H46.8917ZM47.4902 13.4356L48.8524 19.7164H45.1993L47.4902 13.4356Z" fill="#1434CB"/>
</svg>
