<svg width="465" height="41" viewBox="0 0 465 41" fill="none" xmlns="http://www.w3.org/2000/svg">
<path d="M252.517 14.7791C252.078 11.3537 250.849 8.23578 248.697 5.9522C246.413 3.80036 243.295 2.57075 239.87 2.1316C236.576 1.69245 234.337 1.82419 234.337 1.82419C234.337 1.82419 232.097 1.73636 228.803 2.1316C225.378 2.57075 222.26 3.80036 219.976 5.9522C217.825 8.23578 216.595 11.3537 216.156 14.7791C215.717 18.0727 215.804 20.3124 215.804 20.3124C215.804 20.3124 215.717 22.5521 216.112 25.8457C216.551 29.2706 217.781 32.389 219.932 34.6726C222.216 36.8244 225.334 38.0536 228.759 38.4927C232.053 38.9319 234.293 38.8006 234.293 38.8006C234.293 38.8006 236.532 38.888 239.826 38.4927C243.251 38.0536 246.369 36.8244 248.653 34.6726C250.805 32.3894 252.034 29.2706 252.473 25.8457C252.913 22.5521 252.781 20.3124 252.781 20.3124C252.781 20.3124 252.957 18.0727 252.517 14.7791Z" fill="#1E4BC6"/>
<path d="M222.611 14.9106H225.949C226.476 14.9106 226.915 14.9985 227.354 15.1741C227.793 15.3498 228.145 15.6133 228.452 15.9207C228.759 16.2281 229.023 16.5794 229.199 17.0186C229.374 17.4577 229.462 17.8969 229.462 18.3799C229.462 18.863 229.374 19.3021 229.199 19.7413C229.023 20.1804 228.759 20.5322 228.452 20.8392C228.145 21.1461 227.749 21.4105 227.354 21.5853C226.959 21.7609 226.476 21.8496 225.949 21.8496H224.456V24.6159H222.655V14.9106H222.611ZM224.412 16.5799V20.137H225.817C226.081 20.137 226.344 20.093 226.564 20.0052C226.783 19.9174 226.959 19.7856 227.135 19.61C227.31 19.4343 227.398 19.2587 227.486 19.0391C227.574 18.8195 227.618 18.5999 227.618 18.3365C227.618 18.073 227.574 17.8534 227.486 17.6338C227.398 17.4142 227.266 17.2386 227.135 17.0629C226.959 16.8873 226.783 16.7555 226.564 16.6677C226.344 16.5799 226.081 16.5359 225.817 16.5359H224.412V16.5799ZM233.634 24.6159C233.151 24.6159 232.712 24.5285 232.229 24.3524C231.789 24.1767 231.35 23.9132 230.999 23.6062C230.648 23.2545 230.34 22.8593 230.121 22.3762C229.901 21.8931 229.769 21.3222 229.769 20.7074C229.769 20.0926 229.857 19.5217 230.077 19.0387C230.296 18.5556 230.604 18.1604 230.955 17.809C231.306 17.4577 231.746 17.2381 232.185 17.0625C232.668 16.8868 233.107 16.799 233.634 16.799C234.161 16.799 234.644 16.8868 235.039 17.0625C235.478 17.2381 235.83 17.5016 236.137 17.809V16.799H237.938V24.6154H236.137V23.5175C235.874 23.8693 235.478 24.1323 235.039 24.3519C234.6 24.5285 234.161 24.6159 233.634 24.6159ZM233.941 22.9914C234.293 22.9914 234.6 22.9475 234.864 22.8158C235.127 22.684 235.391 22.5523 235.61 22.3327C235.83 22.1131 235.961 21.8936 236.093 21.6301C236.225 21.3657 236.269 21.0587 236.269 20.7518C236.269 20.4439 236.225 20.1365 236.093 19.8735C235.961 19.61 235.83 19.3465 235.61 19.1708C235.391 18.9513 235.171 18.8195 234.864 18.6878C234.556 18.5121 234.249 18.4682 233.941 18.4682C233.634 18.4682 233.327 18.5121 233.019 18.6439C232.712 18.7756 232.492 18.9073 232.273 19.1269C232.053 19.3465 231.877 19.5661 231.789 19.8296C231.658 20.0931 231.614 20.4005 231.614 20.7079C231.614 21.0153 231.658 21.3222 231.789 21.5857C231.921 21.8501 232.097 22.1131 232.273 22.3327C232.492 22.5523 232.756 22.6836 233.019 22.8158C233.283 22.9032 233.59 22.9914 233.941 22.9914ZM240.441 16.8429L242.636 22.1566L244.657 16.8429H246.545L241.934 28.173H240.089L241.714 24.265L238.552 16.8429H240.441Z" fill="white"/>
<path d="M419.29 19.5048V29.5779H416.041V4.66602H424.491C426.548 4.66602 428.496 5.42277 430.015 6.83131C431.532 8.12982 432.29 10.0801 432.29 12.1387C432.29 14.1974 431.534 16.0376 430.015 17.4462C428.498 18.8547 426.658 19.6115 424.491 19.6115L419.29 19.5048ZM419.29 7.69811V16.3644H424.708C425.899 16.3644 427.091 15.9293 427.85 15.0659C429.583 13.4423 429.583 10.7336 427.956 9.10835L427.85 8.9983C426.983 8.13151 425.899 7.58976 424.708 7.6998H419.29V7.69811Z" fill="#5F6368"/>
<path d="M439.763 12.0322C442.147 12.0322 443.987 12.6806 445.395 13.9825C446.804 15.281 447.452 17.0146 447.452 19.1816V29.5815H444.42V27.1978H444.314C443.015 29.1481 441.172 30.1232 439.006 30.1232C437.166 30.1232 435.539 29.5815 434.241 28.4997C433.049 27.4162 432.29 25.8993 432.29 24.2757C432.29 22.5421 432.94 21.137 434.241 20.0518C435.539 18.9683 437.379 18.5349 439.548 18.5349C441.498 18.5349 443.015 18.8599 444.205 19.6184V18.8616C444.205 17.7781 443.774 16.6963 442.907 16.0445C442.04 15.2878 440.957 14.8527 439.765 14.8527C437.924 14.8527 436.516 15.6095 435.541 17.128L432.724 15.3944C434.456 13.114 436.731 12.0322 439.763 12.0322ZM435.647 24.379C435.647 25.2458 436.079 26.0025 436.731 26.4359C437.488 26.9777 438.354 27.3027 439.221 27.3027C440.52 27.3027 441.822 26.761 442.795 25.7875C443.879 24.8107 444.419 23.6222 444.419 22.3203C443.445 21.5636 442.035 21.1285 440.195 21.1285C438.896 21.1285 437.811 21.4536 436.946 22.102C436.079 22.6454 435.647 23.4038 435.647 24.379Z" fill="#5F6368"/>
<path d="M465 12.5742L454.278 37.1594H451.026L455.035 28.6032L447.994 12.6809H451.461L456.55 24.9193H456.659L461.641 12.6809H465V12.5742Z" fill="#5F6368"/>
<path d="M406.403 17.34C406.403 16.3631 406.293 15.3897 406.186 14.4146H392.648V19.9387H400.337C400.012 21.6723 399.039 23.2958 397.52 24.271V27.8448H402.178C404.885 25.3545 406.403 21.6706 406.403 17.34Z" fill="#4285F4"/>
<path d="M392.645 31.3102C396.543 31.3102 399.792 30.0117 402.178 27.843L397.52 24.2692C396.222 25.136 394.595 25.6777 392.648 25.6777C388.964 25.6777 385.715 23.1874 384.633 19.7202H379.864V23.4041C382.355 28.2781 387.23 31.3102 392.645 31.3102Z" fill="#34A853"/>
<path d="M384.63 19.7222C383.98 17.9886 383.98 16.0383 384.63 14.198V10.5142H379.864C377.806 14.5231 377.806 19.2888 379.864 23.4044L384.63 19.7222Z" fill="#FBBC04"/>
<path d="M392.645 8.34833C394.703 8.34833 396.653 9.10508 398.169 10.5136L402.286 6.39803C399.686 4.01604 396.22 2.60749 392.753 2.71415C387.335 2.71415 382.356 5.74625 379.973 10.622L384.738 14.3025C385.714 10.8404 388.962 8.34833 392.645 8.34833Z" fill="#EA4335"/>
<path d="M290.071 7.86569C289.13 8.98018 287.623 9.85921 286.116 9.73363C285.927 8.22672 286.665 6.62563 287.529 5.63672C288.47 4.49085 290.119 3.6746 291.453 3.61182C291.61 5.18151 290.998 6.71981 290.071 7.86569ZM291.437 10.0319C289.255 9.9063 287.387 11.2719 286.351 11.2719C285.3 11.2719 283.714 10.0947 281.988 10.1261C279.743 10.1574 277.655 11.4289 276.509 13.4538C274.155 17.5036 275.897 23.4999 278.173 26.7962C279.288 28.4287 280.622 30.2182 282.38 30.1554C284.044 30.0926 284.703 29.0723 286.712 29.0723C288.737 29.0723 289.318 30.1554 291.076 30.124C292.897 30.0926 294.043 28.4915 295.157 26.859C296.429 25.0068 296.947 23.2016 296.978 23.1074C296.947 23.076 293.462 21.7418 293.431 17.7234C293.399 14.3642 296.178 12.7631 296.303 12.669C294.733 10.3458 292.285 10.0947 291.437 10.0319ZM304.042 5.47975V29.9513H307.84V21.5848H313.099C317.902 21.5848 321.277 18.2885 321.277 13.5166C321.277 8.74472 317.965 5.47975 313.224 5.47975H304.042ZM307.84 8.68193H312.22C315.516 8.68193 317.4 10.44 317.4 13.5323C317.4 16.6246 315.516 18.3983 312.204 18.3983H307.84V8.68193ZM328.215 30.1397C330.601 30.1397 332.814 28.931 333.819 27.016H333.897V29.9513H337.413V17.7705C337.413 14.2387 334.588 11.9626 330.24 11.9626C326.206 11.9626 323.223 14.2701 323.114 17.4408H326.535C326.818 15.9339 328.215 14.945 330.13 14.945C332.453 14.945 333.756 16.0281 333.756 18.0216V19.3716L329.016 19.6541C324.605 19.921 322.219 21.7261 322.219 24.8655C322.219 28.0363 324.683 30.1397 328.215 30.1397ZM329.235 27.2357C327.21 27.2357 325.923 26.2625 325.923 24.7713C325.923 23.233 327.163 22.3383 329.534 22.197L333.756 21.9302V23.3115C333.756 25.6033 331.81 27.2357 329.235 27.2357ZM342.107 36.6068C345.811 36.6068 347.554 35.1941 349.076 30.9088L355.748 12.1981H351.886L347.412 26.6549H347.334L342.86 12.1981H338.889L345.325 30.0141L344.979 31.0972C344.399 32.9337 343.457 33.6401 341.777 33.6401C341.479 33.6401 340.898 33.6087 340.663 33.5773V36.5126C340.883 36.5754 341.824 36.6068 342.107 36.6068Z" fill="#272727"/>
<path d="M113.222 9.3208H100.772V31.3536H113.222V9.3208Z" fill="#FF5F00"/>
<path d="M101.562 20.3373C101.562 16.0553 103.578 11.968 106.977 9.32094C100.811 4.5329 91.8789 5.58394 87.0174 11.6955C82.156 17.7681 83.2232 26.5657 89.4284 31.3537C94.606 35.3632 101.839 35.3632 107.017 31.3537C103.578 28.7067 101.562 24.6193 101.562 20.3373Z" fill="#EB001B"/>
<path d="M130.019 20.3373C130.019 28.0838 123.656 34.3511 115.791 34.3511C112.589 34.3511 109.507 33.3001 107.017 31.3537C113.182 26.5657 114.249 17.7681 109.388 11.6566C108.677 10.8002 107.886 9.9827 107.017 9.32094C113.182 4.5329 122.154 5.58394 126.976 11.6955C128.952 14.1479 130.019 17.1842 130.019 20.3373Z" fill="#F79E1B"/>
<path d="M128.676 29.0181V28.551H128.873V28.4731H128.399V28.551H128.597V29.0181H128.676ZM129.585 29.0181V28.4731H129.427L129.269 28.8624L129.11 28.4731H128.952V29.0181H129.071V28.5899L129.229 28.9403H129.348L129.506 28.5899V29.0181H129.585Z" fill="#F79E1B"/>
<path d="M152.592 0H193.122V21.723L191.116 24.8351L193.122 27.605V40.2404H152.592V19.7623L153.846 18.3307L152.592 16.9613V0Z" fill="#016FD0"/>
<path d="M160.46 28.0404V21.7227H167.197L167.92 22.6582L168.667 21.7227H193.122V27.6047C193.122 27.6047 192.483 28.034 191.743 28.0404H178.202L177.387 27.0445V28.0404H174.716V26.3403C174.716 26.3403 174.351 26.5776 173.563 26.5776H172.654V28.0404H168.61L167.888 27.0847L167.155 28.0404H160.46Z" fill="white"/>
<path d="M152.592 16.9611L154.112 13.4443H156.739L157.601 15.4143V13.4443H160.868L161.381 14.8681L161.878 13.4443H176.54V14.1601C176.54 14.1601 177.311 13.4443 178.578 13.4443L183.335 13.4608L184.183 15.405V13.4443H186.916L187.668 14.5611V13.4443H190.427V19.762H187.668L186.947 18.6417V19.762H182.931L182.528 18.7661H181.448L181.051 19.762H178.327C177.237 19.762 176.54 19.0609 176.54 19.0609V19.762H172.434L171.619 18.7661V19.762H156.35L155.946 18.7661H154.87L154.469 19.762H152.592V16.9611Z" fill="white"/>
<path d="M154.649 14.2236L152.6 18.9541H153.934L154.312 18.0069H156.51L156.887 18.9541H158.25L156.203 14.2236H154.649ZM155.407 15.3246L156.077 16.9799H154.735L155.407 15.3246Z" fill="#016FD0"/>
<path d="M158.391 18.9532V14.2227L160.287 14.2296L161.39 17.2796L162.466 14.2227H164.347V18.9532H163.156V15.4675L161.893 18.9532H160.849L159.582 15.4675V18.9532H158.391Z" fill="#016FD0"/>
<path d="M165.162 18.9532V14.2227H169.049V15.2808H166.366V16.09H168.986V17.0859H166.366V17.9261H169.049V18.9532H165.162Z" fill="#016FD0"/>
<path d="M169.738 14.2236V18.9541H170.93V17.2736H171.431L172.859 18.9541H174.315L172.748 17.2113C173.391 17.1574 174.054 16.6093 174.054 15.7583C174.054 14.7629 173.267 14.2236 172.389 14.2236H169.738ZM170.93 15.2818H172.291C172.618 15.2818 172.855 15.5354 172.855 15.7797C172.855 16.094 172.548 16.2777 172.309 16.2777H170.93V15.2818Z" fill="#016FD0"/>
<path d="M175.757 18.9532H174.541V14.2227H175.757V18.9532Z" fill="#016FD0"/>
<path d="M178.641 18.9532H178.378C177.108 18.9532 176.337 17.9596 176.337 16.6074C176.337 15.2217 177.099 14.2227 178.703 14.2227H180.02V15.343H178.655C178.004 15.343 177.544 15.8476 177.544 16.619C177.544 17.5351 178.07 17.9199 178.829 17.9199H179.142L178.641 18.9532Z" fill="#016FD0"/>
<path d="M181.233 14.2236L179.183 18.9541H180.517L180.896 18.0069H183.094L183.47 18.9541H184.833L182.786 14.2236H181.233ZM181.991 15.3246L182.661 16.9799H181.319L181.991 15.3246Z" fill="#016FD0"/>
<path d="M184.972 18.9532V14.2227H186.487L188.421 17.1948V14.2227H189.612V18.9532H188.146L186.164 15.9032V18.9532H184.972Z" fill="#016FD0"/>
<path d="M161.275 27.2315V22.501H165.162V23.5591H162.479V24.3683H165.099V25.3642H162.479V26.2045H165.162V27.2315H161.275Z" fill="#016FD0"/>
<path d="M180.321 27.2315V22.501H184.208V23.5591H181.524V24.3683H184.132V25.3642H181.524V26.2045H184.208V27.2315H180.321Z" fill="#016FD0"/>
<path d="M165.313 27.2315L167.205 24.8954L165.268 22.501H166.768L167.922 23.9812L169.08 22.501H170.522L168.61 24.8662L170.506 27.2315H169.005L167.885 25.7746L166.792 27.2315H165.313Z" fill="#016FD0"/>
<path d="M170.647 22.502V27.2325H171.87V25.7386H173.124C174.185 25.7386 174.989 25.1798 174.989 24.0931C174.989 23.1928 174.358 22.502 173.279 22.502H170.647ZM171.87 23.5718H173.19C173.533 23.5718 173.778 23.7803 173.778 24.1164C173.778 24.4321 173.534 24.661 173.186 24.661H171.87V23.5718Z" fill="#016FD0"/>
<path d="M175.506 22.501V27.2315H176.697V25.5509H177.199L178.627 27.2315H180.082L178.515 25.4887C179.158 25.4348 179.822 24.8866 179.822 24.0357C179.822 23.0402 179.035 22.501 178.157 22.501H175.506ZM176.697 23.5591H178.059C178.385 23.5591 178.623 23.8128 178.623 24.0571C178.623 24.3713 178.315 24.555 178.076 24.555H176.697V23.5591Z" fill="#016FD0"/>
<path d="M184.759 27.2315V26.2045H187.143C187.496 26.2045 187.649 26.0152 187.649 25.8077C187.649 25.6088 187.496 25.4077 187.143 25.4077H186.066C185.13 25.4077 184.608 24.8413 184.608 23.9909C184.608 23.2324 185.086 22.501 186.477 22.501H188.797L188.295 23.5653H186.289C185.906 23.5653 185.787 23.7651 185.787 23.9559C185.787 24.152 185.933 24.3683 186.226 24.3683H187.355C188.399 24.3683 188.852 24.9561 188.852 25.726C188.852 26.5536 188.347 27.2315 187.298 27.2315H184.759Z" fill="#016FD0"/>
<path d="M189.131 27.2315V26.2045H191.515C191.868 26.2045 192.02 26.0152 192.02 25.8077C192.02 25.6088 191.868 25.4077 191.515 25.4077H190.438C189.501 25.4077 188.98 24.8413 188.98 23.9909C188.98 23.2324 189.457 22.501 190.849 22.501H193.168L192.667 23.5653H190.661C190.277 23.5653 190.159 23.7651 190.159 23.9559C190.159 24.152 190.305 24.3683 190.598 24.3683H191.727C192.77 24.3683 193.223 24.9561 193.223 25.726C193.223 26.5536 192.719 27.2315 191.67 27.2315H189.131Z" fill="#016FD0"/>
<path d="M40.0035 9.93213C35.6497 9.93213 31.7407 12.199 31.7407 16.3587C31.7407 21.1495 38.6459 21.4767 38.6459 23.8604C38.6459 24.8652 37.4755 25.7767 35.5093 25.7767C32.7004 25.7767 30.5937 24.5147 30.5937 24.5147L29.7042 28.7212C29.7042 28.7212 32.1152 29.7962 35.3454 29.7962C40.1206 29.7962 43.8658 27.4359 43.8658 23.1826C43.8658 18.1348 36.9371 17.8077 36.9371 15.5875C36.9371 14.793 37.8969 13.9283 39.8631 13.9283C42.0868 13.9283 43.9126 14.8397 43.9126 14.8397L44.8021 10.7734C44.7787 10.7734 42.789 9.93213 40.0035 9.93213ZM0.117038 10.2359L0 10.8435C0 10.8435 1.82579 11.1707 3.48773 11.8484C5.61782 12.6196 5.75826 13.0636 6.13278 14.4424L10.0418 29.469H15.2851L23.3139 10.2359H18.0941L12.921 23.3229L10.8143 12.2223C10.627 10.9604 9.64392 10.2359 8.42673 10.2359H0.117038ZM25.4206 10.2359L21.3243 29.469H26.3101L30.383 10.2359H25.4206ZM53.182 10.2359C51.9882 10.2359 51.3562 10.8669 50.8881 11.9886L43.5849 29.469H48.8048L49.8113 26.5478H56.1782L56.7868 29.469H61.3981L57.3954 10.2359H53.182ZM53.8608 15.4473L55.4057 22.6685H51.2626L53.8608 15.4473Z" fill="#1434CB"/>
</svg>
