<svg width="48" height="29" viewBox="0 0 48 29" fill="none" xmlns="http://www.w3.org/2000/svg">
<path d="M30.2219 3.32104H17.7719V25.3538H30.2219V3.32104Z" fill="#FF5F00"/>
<path d="M18.5623 14.3373C18.5623 10.0553 20.578 5.96799 23.977 3.32094C17.8113 -1.4671 8.87893 -0.416063 4.0175 5.6955C-0.843935 11.7681 0.223208 20.5657 6.42845 25.3537C11.6061 29.3632 18.8389 29.3632 24.0166 25.3537C20.578 22.7067 18.5623 18.6193 18.5623 14.3373Z" fill="#EB001B"/>
<path d="M47.0195 14.3373C47.0195 22.0838 40.6562 28.3511 32.791 28.3511C29.5895 28.3511 26.5067 27.3001 24.0167 25.3537C30.1824 20.5657 31.2495 11.7681 26.3881 5.65657C25.6767 4.80017 24.8862 3.9827 24.0167 3.32094C30.1824 -1.4671 39.1543 -0.416063 43.9762 5.6955C45.9524 8.14791 47.0195 11.1842 47.0195 14.3373Z" fill="#F79E1B"/>
<path d="M45.6757 23.0181V22.551H45.8733V22.4731H45.399V22.551H45.5966V23.0181H45.6757ZM46.5847 23.0181V22.4731H46.4266L46.2685 22.8624L46.1104 22.4731H45.9524V23.0181H46.0709V22.5899L46.229 22.9403H46.3476L46.5057 22.5899V23.0181H46.5847Z" fill="#F79E1B"/>
</svg>
