<svg width="30" height="30" viewBox="0 0 30 30" fill="none" xmlns="http://www.w3.org/2000/svg">
<g id="Tripod / icon">
<path id="Vector" d="M21.9725 5.54L19.4725 4.2275C17.2775 3.07625 16.18 2.5 15 2.5C13.82 2.5 12.7225 3.075 10.5275 4.2275L10.1262 4.43875L21.28 10.8125L26.3 8.3C25.4925 7.385 24.19 6.70125 21.9725 5.5375V5.54ZM27.185 9.955L22.1875 12.455V16.25C22.1875 16.4986 22.0887 16.7371 21.9129 16.9129C21.7371 17.0887 21.4986 17.1875 21.25 17.1875C21.0014 17.1875 20.7629 17.0887 20.5871 16.9129C20.4113 16.7371 20.3125 16.4986 20.3125 16.25V13.3913L15.9375 15.5788V27.38C16.835 27.1562 17.8562 26.6213 19.4725 25.7725L21.9725 24.46C24.6612 23.0488 26.0063 22.3438 26.7537 21.075C27.5 19.8075 27.5 18.2288 27.5 15.075V14.9288C27.5 12.5625 27.5 11.0825 27.185 9.955ZM14.0625 27.38V15.58L2.815 9.955C2.5 11.0825 2.5 12.5625 2.5 14.9263V15.0725C2.5 18.2287 2.5 19.8075 3.24625 21.075C3.99375 22.3438 5.33875 23.05 8.0275 24.4613L10.5275 25.7725C12.1438 26.6213 13.165 27.1562 14.0625 27.38ZM3.7 8.30125L15 13.9513L19.2638 11.82L8.15625 5.4725L8.0275 5.54C5.81125 6.7025 4.5075 7.38625 3.7 8.3025V8.30125Z" fill="#9B9B9B"/>
</g>
</svg>
