<svg width="25" height="24" viewBox="0 0 25 24" fill="none" xmlns="http://www.w3.org/2000/svg">
<g clip-path="url(#clip0_1447_47)">
<path d="M12.7655 15C14.4133 15 15.7491 13.6569 15.7491 12C15.7491 10.3431 14.4133 9 12.7655 9C11.1177 9 9.78186 10.3431 9.78186 12C9.78186 13.6569 11.1177 15 12.7655 15Z" stroke="#2F6B88" stroke-width="2" stroke-linecap="round" stroke-linejoin="round"/>
<path d="M20.1251 15C19.9927 15.3016 19.9532 15.6362 20.0117 15.9606C20.0702 16.285 20.224 16.5843 20.4533 16.82L20.513 16.88C20.6979 17.0657 20.8446 17.2863 20.9447 17.5291C21.0448 17.7719 21.0963 18.0322 21.0963 18.295C21.0963 18.5578 21.0448 18.8181 20.9447 19.0609C20.8446 19.3037 20.6979 19.5243 20.513 19.71C20.3282 19.896 20.1088 20.0435 19.8674 20.1441C19.6259 20.2448 19.3671 20.2966 19.1057 20.2966C18.8443 20.2966 18.5854 20.2448 18.344 20.1441C18.1025 20.0435 17.8831 19.896 17.6984 19.71L17.6387 19.65C17.4043 19.4195 17.1066 19.2648 16.784 19.206C16.4614 19.1472 16.1286 19.1869 15.8286 19.32C15.5345 19.4468 15.2836 19.6572 15.1069 19.9255C14.9302 20.1938 14.8354 20.5082 14.8341 20.83V21C14.8341 21.5304 14.6245 22.0391 14.2515 22.4142C13.8785 22.7893 13.3725 23 12.845 23C12.3175 23 11.8115 22.7893 11.4385 22.4142C11.0655 22.0391 10.8559 21.5304 10.8559 21V20.91C10.8482 20.579 10.7417 20.258 10.5501 19.9887C10.3585 19.7194 10.0908 19.5143 9.7818 19.4C9.48183 19.2669 9.14908 19.2272 8.82645 19.286C8.50383 19.3448 8.20612 19.4995 7.97173 19.73L7.91206 19.79C7.72732 19.976 7.50795 20.1235 7.26648 20.2241C7.02501 20.3248 6.76617 20.3766 6.50478 20.3766C6.24338 20.3766 5.98454 20.3248 5.74307 20.2241C5.5016 20.1235 5.28223 19.976 5.09749 19.79C4.91256 19.6043 4.76584 19.3837 4.66574 19.1409C4.56564 18.8981 4.51412 18.6378 4.51412 18.375C4.51412 18.1122 4.56564 17.8519 4.66574 17.6091C4.76584 17.3663 4.91256 17.1457 5.09749 16.96L5.15717 16.9C5.38645 16.6643 5.54025 16.365 5.59875 16.0406C5.65725 15.7162 5.61776 15.3816 5.48537 15.08C5.3593 14.7842 5.14996 14.532 4.88314 14.3543C4.61631 14.1766 4.30363 14.0813 3.9836 14.08H3.81453C3.28699 14.08 2.78106 13.8693 2.40803 13.4942C2.035 13.1191 1.82544 12.6104 1.82544 12.08C1.82544 11.5496 2.035 11.0409 2.40803 10.6658C2.78106 10.2907 3.28699 10.08 3.81453 10.08H3.90404C4.23323 10.0723 4.55249 9.96512 4.82031 9.77251C5.08814 9.5799 5.29214 9.31074 5.4058 9C5.53819 8.69838 5.57768 8.36381 5.51919 8.03941C5.46069 7.71502 5.30688 7.41568 5.0776 7.18L5.01793 7.12C4.83299 6.93425 4.68628 6.71368 4.58618 6.47088C4.48608 6.22808 4.43456 5.96783 4.43456 5.705C4.43456 5.44217 4.48608 5.18192 4.58618 4.93912C4.68628 4.69632 4.83299 4.47575 5.01793 4.29C5.20266 4.10405 5.42204 3.95653 5.66351 3.85588C5.90498 3.75523 6.16382 3.70343 6.42521 3.70343C6.68661 3.70343 6.94544 3.75523 7.18692 3.85588C7.42839 3.95653 7.64776 4.10405 7.83249 4.29L7.89217 4.35C8.12656 4.58054 8.42426 4.73519 8.74689 4.794C9.06952 4.85282 9.40227 4.81312 9.70224 4.68H9.7818C10.076 4.55324 10.3268 4.34276 10.5035 4.07447C10.6802 3.80618 10.7751 3.49179 10.7763 3.17V3C10.7763 2.46957 10.9859 1.96086 11.3589 1.58579C11.732 1.21071 12.2379 1 12.7654 1C13.293 1 13.7989 1.21071 14.1719 1.58579C14.545 1.96086 14.7545 2.46957 14.7545 3V3.09C14.7558 3.41179 14.8506 3.72618 15.0273 3.99447C15.204 4.26276 15.4549 4.47324 15.7491 4.6C16.049 4.73312 16.3818 4.77282 16.7044 4.714C17.0271 4.65519 17.3248 4.50054 17.5591 4.27L17.6188 4.21C17.8036 4.02405 18.0229 3.87653 18.2644 3.77588C18.5059 3.67523 18.7647 3.62343 19.0261 3.62343C19.2875 3.62343 19.5463 3.67523 19.7878 3.77588C20.0293 3.87653 20.2487 4.02405 20.4334 4.21C20.6183 4.39575 20.765 4.61632 20.8651 4.85912C20.9652 5.10192 21.0168 5.36217 21.0168 5.625C21.0168 5.88783 20.9652 6.14808 20.8651 6.39088C20.765 6.63368 20.6183 6.85425 20.4334 7.04L20.3737 7.1C20.1444 7.33568 19.9906 7.63502 19.9321 7.95941C19.8736 8.28381 19.9131 8.61838 20.0455 8.92V9C20.1716 9.29577 20.3809 9.54802 20.6477 9.72569C20.9146 9.90337 21.2272 9.99872 21.5473 10H21.7163C22.2439 10 22.7498 10.2107 23.1228 10.5858C23.4959 10.9609 23.7054 11.4696 23.7054 12C23.7054 12.5304 23.4959 13.0391 23.1228 13.4142C22.7498 13.7893 22.2439 14 21.7163 14H21.6268C21.3068 14.0013 20.9941 14.0966 20.7273 14.2743C20.4605 14.452 20.2511 14.7042 20.1251 15Z" stroke="#2F6B88" stroke-width="2" stroke-linecap="round" stroke-linejoin="round"/>
</g>
<defs>
<clipPath id="clip0_1447_47">
<rect width="23.8691" height="24" fill="white" transform="translate(0.830933)"/>
</clipPath>
</defs>
</svg>
