<svg width="20" height="24" viewBox="0 0 20 24" fill="none" xmlns="http://www.w3.org/2000/svg">
<g clip-path="url(#clip0_795_7705)">
<path d="M8.49891 0.126757C4.87347 1.02035 2.23795 4.86549 2.52078 8.81894C2.62363 10.1593 3.09931 11.7299 3.74212 12.8401C4.19209 13.6389 4.28208 13.7201 4.66777 13.7201C5.27201 13.7201 5.29772 13.3275 4.75776 12.3391C4.10209 11.1612 3.8964 10.5249 3.72927 9.14388C3.54928 7.62749 3.78069 6.23295 4.4235 4.85195C5.58056 2.36073 8.34464 0.803718 10.8902 1.2099C14.4128 1.765 16.7912 5.2852 16.3412 9.23866C16.1998 10.4843 15.9426 11.2695 15.3255 12.3391C14.747 13.341 14.6956 13.7066 15.0684 13.9232C15.4413 14.1399 15.7498 13.9097 16.2255 13.0838C19.1438 8.10136 16.804 1.4536 11.713 0.180914C10.8259 -0.0357141 9.24457 -0.0627928 8.49891 0.126757Z" fill="#282828"/>
<path d="M9.21027 3.12593C7.85158 3.36774 6.49289 4.46934 5.87887 5.85305C5.53919 6.59193 5.5 6.83374 5.5 8.02938C5.5 9.25188 5.53919 9.45339 5.91806 10.2729C6.40144 11.3342 7.19836 12.1805 8.17819 12.6507C8.77915 12.9463 9.07963 13 10.0072 13C10.9609 13 11.2222 12.9463 11.8493 12.6238C14.1355 11.4819 15.1545 8.27119 14.0571 5.71871C13.7305 4.95297 12.8291 3.97228 12.0975 3.59612C11.601 3.34087 10.1509 2.95129 9.88962 3.00502C9.85043 3.01846 9.53688 3.07219 9.21027 3.12593Z" fill="#282828"/>
<path d="M7.28278 15.2202C5.13767 15.7142 3.31956 16.7571 2.0508 18.2117C0.925927 19.5016 0.350409 21.1072 0.533528 22.4108C0.638168 23.1519 1.25293 23.8106 1.94616 23.9478C2.1816 23.989 5.93555 24.0164 10.2912 23.989C17.5767 23.9478 18.2438 23.9341 18.6231 23.7008C19.2902 23.3303 19.5125 22.85 19.4995 21.8894C19.4341 19.6389 17.8383 17.4844 15.1962 16.1396C13.535 15.2888 12.6717 15.083 10.3566 15.0143C8.7739 14.9732 8.17222 15.0143 7.28278 15.2202Z" fill="#282828"/>
</g>
<defs>
<clipPath id="clip0_795_7705">
<rect width="19" height="24" fill="white" transform="translate(0.5)"/>
</clipPath>
</defs>
</svg>
