<svg width="24" height="24" viewBox="0 0 24 24" fill="none" xmlns="http://www.w3.org/2000/svg">
<g clip-path="url(#clip0_795_7835)">
<path d="M9.03563 0.232307C8.82785 0.89641 9.56122 2.2088 10.3924 2.69898C11.4313 3.31564 12.8614 2.95197 13.5459 1.90838C14.1081 1.03872 14.157 0.0741873 13.6437 0.0741873C13.4237 0.0741873 13.277 0.232307 13.0936 0.65923C12.7636 1.41821 12.4336 1.71863 11.7736 1.82932C11.0646 1.95581 10.4046 1.59214 10.099 0.912222C9.96457 0.627607 9.79345 0.295555 9.72012 0.184871C9.53677 -0.0839326 9.12119 -0.0523086 9.03563 0.232307Z" fill="#282828"/>
<path d="M6.16093 1.15273C5.88408 1.41822 5.95694 1.79549 6.43779 2.49414C7.1372 3.47224 8.28833 4.57611 9.19174 5.09311C10.474 5.84765 11.3628 6.05724 12.8345 5.98738C13.9565 5.93149 14.2625 5.86162 15.2096 5.41449C17.4536 4.35254 19.7996 1.46014 18.7359 1.06889C18.357 0.943136 18.153 1.11081 17.4973 2.047C16.7396 3.15087 15.8216 3.91938 14.6122 4.50624C13.8108 4.88351 13.534 4.95338 12.5723 4.9394C10.9111 4.9394 10.0223 4.56213 8.69632 3.30457C8.12804 2.75962 7.4432 2.01905 7.18092 1.64178C6.71464 0.971082 6.46693 0.859299 6.16093 1.15273Z" fill="#282828"/>
<path d="M1.12227 5.09417C1.06586 5.13791 1.02356 5.32745 1.02356 5.5024C1.02356 5.7211 1.29149 6.01269 1.98249 6.49382C4.01318 7.92264 5.09903 9.92006 4.9298 11.8883C4.78878 13.565 3.4914 15.5624 1.85557 16.5976C0.967148 17.1662 0.755618 17.6619 1.29149 17.9535C1.50302 18.0701 1.72865 17.9826 2.44786 17.5161C4.9298 15.854 6.2977 13.1713 5.94515 10.6199C5.79003 9.42435 4.97211 7.77684 4.08369 6.84374C2.84271 5.51698 1.47482 4.7151 1.12227 5.09417Z" fill="#282828"/>
<path d="M21.3859 5.51125C20.515 6.123 19.2508 7.50672 18.7592 8.38064C18.2114 9.35653 17.9305 10.7111 18.0147 11.9492C18.1693 13.9883 19.5318 16.144 21.5404 17.4986C22.4534 18.1249 22.8046 18.1541 22.9591 17.6443C23.0714 17.2656 23.0012 17.1636 22.1163 16.5664C21.1471 15.8964 19.9251 14.5418 19.5458 13.697C19.3913 13.3329 19.1806 12.6629 19.0823 12.1822C18.703 10.2305 19.8689 7.97281 22.0601 6.42888C22.8748 5.86082 23.0714 5.58408 22.945 5.20538C22.8046 4.84124 22.1584 4.97233 21.3859 5.51125Z" fill="#282828"/>
<path d="M11.53 9.0473C10.7963 9.17958 10.2943 9.44415 9.85659 9.93359C8.77528 11.1241 8.71092 12.7512 9.70212 13.9417C10.3457 14.709 10.9765 15 11.9677 15C13.6926 15 14.8898 13.8756 14.9928 12.1692C15.1215 10.1585 13.5124 8.7166 11.53 9.0473Z" fill="#282828"/>
<path d="M0.270805 9.05417C-0.220122 9.31679 -0.0360246 9.7545 0.761732 10.2214C1.6362 10.7174 1.94303 11.3302 1.80495 12.2786C1.69756 13.0227 1.37539 13.475 0.608317 13.9419C0.148073 14.2191 0.0099998 14.3942 0.0406828 14.6276C0.11739 15.1091 0.823098 15.1237 1.54415 14.6714C3.69195 13.3291 3.40047 10.0609 1.0839 9.12712C0.715708 8.98122 0.454903 8.96663 0.270805 9.05417Z" fill="#282828"/>
<path d="M23.2079 10.0179C22.5584 10.177 21.7187 10.7643 21.3702 11.3027C20.3722 12.8322 21.5128 14.9613 23.3505 14.998C23.8574 15.0102 23.9208 14.9735 23.9683 14.6921C24 14.4351 23.9208 14.3372 23.5247 14.2149C23.2554 14.1292 22.8594 13.8967 22.6534 13.701C22.3207 13.3951 22.2574 13.2115 22.2574 12.5752C22.2574 11.682 22.5267 11.3149 23.4455 10.9846C23.8574 10.8255 24 10.7031 24 10.4829C24 10.1647 23.5881 9.93226 23.2079 10.0179Z" fill="#282828"/>
<path d="M10.6193 18.2351C9.5589 18.5721 8.87617 18.9794 7.90292 19.864C7.01683 20.6645 6 22.0406 6 22.4338C6 22.7708 6.36315 23.0798 6.63915 22.9815C6.75536 22.9393 7.07493 22.5602 7.35093 22.153C8.0046 21.156 9.51532 19.836 10.5031 19.3866C11.1422 19.1058 11.5344 19.0355 12.4641 19.0215C13.4955 19.0215 13.7424 19.0777 14.5704 19.4709C15.6599 19.9904 16.9091 21.0857 17.6064 22.1389C18.1148 22.8972 18.3472 23.0657 18.6958 22.9393C19.2623 22.7287 19.0444 22.0406 17.984 20.7487C17.1561 19.7517 15.8342 18.7828 14.7447 18.3755C13.5826 17.9402 11.7378 17.87 10.6193 18.2351Z" fill="#282828"/>
<path d="M11.3204 21.0607C9.78346 21.3436 8.20306 23.8263 9.44998 23.9835C9.76896 24.0306 9.87046 23.9363 10.0879 23.4649C10.8274 21.7836 12.8138 21.7207 13.8142 23.3392C14.2637 24.0777 14.6842 24.2034 14.9306 23.6849C15.0611 23.4335 15.0176 23.2449 14.7132 22.6635C14.0462 21.4221 12.7123 20.7936 11.3204 21.0607Z" fill="#282828"/>
</g>
<defs>
<clipPath id="clip0_795_7835">
<rect width="24" height="24" fill="white"/>
</clipPath>
</defs>
</svg>
