<svg width="370" height="40" viewBox="0 0 370 40" fill="none" xmlns="http://www.w3.org/2000/svg">
<rect width="70" height="40" rx="20" fill="#F7F7F7"/>
<path d="M42.4257 12C38.951 12 35.8313 13.8259 35.8313 17.1765C35.8313 21.0353 41.3422 21.2988 41.3422 23.2188C41.3422 24.0282 40.4081 24.7624 38.8389 24.7624C36.5972 24.7624 34.9159 23.7459 34.9159 23.7459L34.2061 27.1341C34.2061 27.1341 36.1302 28 38.7082 28C42.5191 28 45.508 26.0988 45.508 22.6729C45.508 18.6071 39.9785 18.3435 39.9785 16.5553C39.9785 15.9153 40.7444 15.2188 42.3136 15.2188C44.0883 15.2188 45.5454 15.9529 45.5454 15.9529L46.2552 12.6776C46.2366 12.6776 44.6487 12 42.4257 12ZM10.5934 12.2447L10.5 12.7341C10.5 12.7341 11.9571 12.9976 13.2835 13.5435C14.9834 14.1647 15.0955 14.5224 15.3944 15.6329L18.5141 27.7365H22.6986L29.1062 12.2447H24.9403L20.8119 22.7859L19.1306 13.8447C18.9811 12.8282 18.1965 12.2447 17.2251 12.2447H10.5934ZM30.7875 12.2447L27.5183 27.7365H31.4973L34.7478 12.2447H30.7875ZM52.943 12.2447C51.9903 12.2447 51.4859 12.7529 51.1123 13.6565L45.2838 27.7365H49.4497L50.253 25.3835H55.3342L55.8199 27.7365H59.5L56.3056 12.2447H52.943ZM53.4848 16.4424L54.7177 22.2588H51.4112L53.4848 16.4424Z" fill="#1434CB"/>
<rect x="75" width="70" height="40" rx="20" fill="#F7F7F7"/>
<path d="M114.5 11H104.5V28H114.5V11Z" fill="#FF5F00"/>
<path d="M106.003 19.9975C106.003 16.6379 107.665 13.431 110.467 11.3542C105.384 7.59764 98.0198 8.42226 94.0118 13.2173C90.0038 17.9817 90.8836 24.8841 95.9995 28.6407C100.268 31.7864 106.231 31.7864 110.5 28.6407C107.665 26.5639 106.003 23.357 106.003 19.9975Z" fill="#EB001B"/>
<path d="M128.5 20.0013C128.5 26.0811 123.521 31 117.366 31C114.861 31 112.448 30.1751 110.5 28.6475C115.325 24.8896 116.16 17.9848 112.356 13.1882C111.799 12.516 111.18 11.8744 110.5 11.355C115.325 7.59715 122.345 8.42205 126.119 13.2187C127.665 15.1435 128.5 17.5266 128.5 20.0013Z" fill="#F79E1B"/>
<path d="M127.733 26.4276V26.0611H127.9V26H127.5V26.0611H127.667V26.4276H127.733ZM128.5 26.4276V26H128.367L128.233 26.3054L128.1 26H127.967V26.4276H128.067V26.0916L128.2 26.3665H128.3L128.433 26.0916V26.4276H128.5Z" fill="#F79E1B"/>
<rect x="150" width="70" height="40" rx="20" fill="#F7F7F7"/>
<path d="M199.266 15.6647C198.922 12.9809 197.959 10.538 196.273 8.74882C194.485 7.06285 192.042 6.09944 189.359 5.75537C186.779 5.41129 185.024 5.51452 185.024 5.51452C185.024 5.51452 183.27 5.4457 180.689 5.75537C178.006 6.09944 175.564 7.06285 173.775 8.74882C172.089 10.538 171.126 12.9809 170.782 15.6647C170.438 18.2453 170.507 20.0001 170.507 20.0001C170.507 20.0001 170.438 21.7548 170.747 24.3354C171.091 27.0188 172.055 29.4621 173.74 31.2513C175.529 32.9373 177.972 33.9003 180.655 34.2444C183.235 34.5885 184.99 34.4856 184.99 34.4856C184.99 34.4856 186.744 34.5541 189.324 34.2444C192.008 33.9003 194.45 32.9373 196.239 31.2513C197.925 29.4624 198.888 27.0188 199.232 24.3354C199.576 21.7548 199.473 20.0001 199.473 20.0001C199.473 20.0001 199.61 18.2453 199.266 15.6647Z" fill="#1E4BC6"/>
<path d="M175.5 15.5H178.15C178.568 15.5 178.917 15.5662 179.265 15.6987C179.614 15.8311 179.893 16.0298 180.137 16.2616C180.381 16.4934 180.59 16.7583 180.729 17.0894C180.869 17.4205 180.939 17.7517 180.939 18.1159C180.939 18.4801 180.869 18.8113 180.729 19.1424C180.59 19.4735 180.381 19.7387 180.137 19.9702C179.893 20.2017 179.579 20.401 179.265 20.5328C178.951 20.6652 178.568 20.7321 178.15 20.7321H176.964V22.8179H175.535V15.5H175.5ZM176.929 16.7586V19.4407H178.045C178.254 19.4407 178.463 19.4076 178.638 19.3414C178.812 19.2752 178.951 19.1758 179.091 19.0434C179.23 18.9109 179.3 18.7785 179.37 18.6129C179.439 18.4474 179.474 18.2818 179.474 18.0831C179.474 17.8844 179.439 17.7189 179.37 17.5533C179.3 17.3877 179.195 17.2553 179.091 17.1228C178.951 16.9904 178.812 16.8911 178.638 16.8248C178.463 16.7586 178.254 16.7255 178.045 16.7255H176.929V16.7586ZM184.25 22.8179C183.867 22.8179 183.518 22.752 183.135 22.6192C182.786 22.4868 182.438 22.2881 182.159 22.0566C181.88 21.7914 181.636 21.4934 181.461 21.1291C181.287 20.7649 181.183 20.3344 181.183 19.8709C181.183 19.4073 181.252 18.9768 181.427 18.6126C181.601 18.2483 181.845 17.9503 182.124 17.6854C182.403 17.4205 182.751 17.255 183.1 17.1225C183.483 16.9901 183.832 16.9238 184.25 16.9238C184.669 16.9238 185.052 16.9901 185.366 17.1225C185.715 17.255 185.994 17.4536 186.238 17.6854V16.9238H187.667V22.8175H186.238V21.9897C186.028 22.255 185.715 22.4533 185.366 22.6189C185.017 22.752 184.669 22.8179 184.25 22.8179ZM184.494 21.593C184.773 21.593 185.017 21.5599 185.227 21.4606C185.436 21.3613 185.645 21.2619 185.819 21.0964C185.994 20.9308 186.098 20.7652 186.203 20.5666C186.307 20.3672 186.342 20.1358 186.342 19.9043C186.342 19.6722 186.307 19.4404 186.203 19.2421C186.098 19.0434 185.994 18.8447 185.819 18.7123C185.645 18.5467 185.471 18.4474 185.227 18.348C184.983 18.2156 184.739 18.1825 184.494 18.1825C184.25 18.1825 184.006 18.2156 183.762 18.3149C183.518 18.4142 183.344 18.5136 183.17 18.6791C182.995 18.8447 182.856 19.0103 182.786 19.2089C182.682 19.4076 182.647 19.6394 182.647 19.8712C182.647 20.103 182.682 20.3344 182.786 20.5331C182.891 20.7325 183.03 20.9308 183.17 21.0964C183.344 21.2619 183.553 21.3609 183.762 21.4606C183.972 21.5265 184.216 21.593 184.494 21.593ZM189.654 16.957L191.397 20.9636L193.001 16.957H194.5L190.839 25.5H189.375L190.665 22.5533L188.155 16.957H189.654Z" fill="white"/>
<rect x="225" width="70" height="40" rx="20" fill="#F7F7F7"/>
<path d="M245.161 12.9496C244.613 13.5913 243.736 14.0975 242.859 14.0252C242.749 13.1575 243.179 12.2355 243.681 11.666C244.229 11.0062 245.188 10.5362 245.965 10.5C246.056 11.4039 245.7 12.2897 245.161 12.9496ZM245.956 14.197C244.686 14.1246 243.599 14.911 242.996 14.911C242.384 14.911 241.461 14.2331 240.456 14.2512C239.15 14.2693 237.935 15.0014 237.268 16.1675C235.897 18.4995 236.911 21.9524 238.236 23.8506C238.885 24.7907 239.661 25.8211 240.685 25.785C241.653 25.7488 242.037 25.1613 243.206 25.1613C244.384 25.1613 244.722 25.785 245.746 25.7669C246.805 25.7488 247.472 24.8268 248.121 23.8868C248.861 22.8202 249.162 21.7807 249.181 21.7265C249.162 21.7084 247.134 20.9401 247.116 18.6261C247.098 16.6917 248.715 15.7697 248.788 15.7155C247.874 14.3777 246.449 14.2331 245.956 14.197ZM253.292 11.5756V25.6675H255.503V20.8497H258.563C261.359 20.8497 263.323 18.9515 263.323 16.2036C263.323 13.4558 261.395 11.5756 258.636 11.5756H253.292ZM255.503 13.4196H258.051C259.97 13.4196 261.066 14.432 261.066 16.2127C261.066 17.9933 259.97 19.0147 258.042 19.0147H255.503V13.4196ZM267.361 25.7759C268.749 25.7759 270.037 25.0799 270.622 23.9772H270.668V25.6675H272.714V18.6532C272.714 16.6194 271.07 15.3088 268.539 15.3088C266.191 15.3088 264.455 16.6375 264.392 18.4634H266.383C266.548 17.5956 267.361 17.0262 268.475 17.0262C269.827 17.0262 270.586 17.6499 270.586 18.7978V19.5752L267.827 19.7379C265.259 19.8915 263.871 20.931 263.871 22.7388C263.871 24.5647 265.305 25.7759 267.361 25.7759ZM267.954 24.1037C266.776 24.1037 266.027 23.5433 266.027 22.6846C266.027 21.7988 266.749 21.2835 268.128 21.2022L270.586 21.0485V21.844C270.586 23.1637 269.453 24.1037 267.954 24.1037ZM275.446 29.5C277.602 29.5 278.616 28.6865 279.502 26.2188L283.385 15.4443H281.137L278.534 23.7693H278.488L275.884 15.4443H273.573L277.319 25.7036L277.118 26.3273C276.78 27.3849 276.231 27.7916 275.254 27.7916C275.08 27.7916 274.742 27.7735 274.605 27.7555V29.4458C274.733 29.4819 275.281 29.5 275.446 29.5Z" fill="#282828"/>
<rect x="300" width="70" height="40" rx="20" fill="#F7F7F7"/>
<g clip-path="url(#clip0_781_7129)">
<path d="M333.735 20.3582V25.4842H332.01V12.8071H336.495C337.588 12.8071 338.623 13.1929 339.428 13.9094C340.233 14.5708 340.635 15.563 340.635 16.6102C340.635 17.6575 340.233 18.5945 339.428 19.311C338.623 20.0275 337.645 20.4134 336.495 20.4134L333.735 20.3582ZM333.735 14.3504V18.7598H336.61C337.243 18.7598 337.875 18.5394 338.278 18.0984C339.198 17.2716 339.198 15.8937 338.335 15.0669L338.278 15.0118C337.818 14.5708 337.243 14.2953 336.61 14.3504H333.735Z" fill="#282828"/>
<path d="M344.603 16.5551C345.868 16.5551 346.845 16.8858 347.593 17.5472C348.34 18.2087 348.685 19.0905 348.685 20.1929V25.4843H347.075V24.2717H347.018C346.328 25.2638 345.35 25.7598 344.2 25.7598C343.223 25.7598 342.36 25.4842 341.67 24.9331C341.038 24.3819 340.635 23.6102 340.635 22.7835C340.635 21.9016 340.98 21.185 341.67 20.6339C342.36 20.0827 343.338 19.8622 344.488 19.8622C345.523 19.8622 346.328 20.0276 346.96 20.4134V20.0276C346.96 19.4764 346.73 18.9252 346.27 18.5945C345.81 18.2087 345.235 17.9882 344.603 17.9882C343.625 17.9882 342.878 18.374 342.36 19.1457L340.865 18.2638C341.785 17.1063 342.993 16.5551 344.603 16.5551ZM342.418 22.8386C342.418 23.2795 342.648 23.6654 342.993 23.8858C343.395 24.1614 343.855 24.3268 344.315 24.3268C345.005 24.3268 345.695 24.0512 346.213 23.5551C346.788 23.0591 347.075 22.4528 347.075 21.7913C346.558 21.4055 345.81 21.185 344.833 21.185C344.143 21.185 343.568 21.3504 343.108 21.6811C342.648 21.9567 342.418 22.3425 342.418 22.8386Z" fill="#282828"/>
<path d="M358 16.8307L352.308 29.3425H350.583L352.71 24.9882L348.973 16.8858H350.813L353.515 23.1142H353.573L356.218 16.8858H358V16.8307Z" fill="#282828"/>
<path d="M326.892 19.2559C326.892 18.7598 326.835 18.2638 326.777 17.7677H319.59V20.5787H323.672C323.5 21.4606 322.982 22.2874 322.177 22.7834V24.6023H324.65C326.087 23.3346 326.892 21.4606 326.892 19.2559Z" fill="#4285F4"/>
<path d="M319.59 26.3661C321.66 26.3661 323.385 25.7047 324.65 24.6024L322.178 22.7835C321.488 23.2244 320.625 23.5 319.59 23.5C317.635 23.5 315.91 22.2323 315.335 20.4685H312.805V22.3425C314.128 24.8228 316.715 26.3661 319.59 26.3661Z" fill="#34A853"/>
<path d="M315.335 20.4685C314.99 19.5866 314.99 18.5945 315.335 17.6575V15.7834H312.805C311.713 17.8228 311.713 20.248 312.805 22.3425L315.335 20.4685Z" fill="#FBBC04"/>
<path d="M319.59 14.6811C320.683 14.6811 321.718 15.0669 322.523 15.7835L324.708 13.689C323.328 12.4764 321.488 11.7599 319.648 11.815C316.773 11.815 314.128 13.3583 312.863 15.8386L315.393 17.7126C315.91 15.9488 317.635 14.6811 319.59 14.6811Z" fill="#EA4335"/>
</g>
<defs>
<clipPath id="clip0_781_7129">
<rect width="46" height="21" fill="white" transform="translate(312 9.5)"/>
</clipPath>
</defs>
</svg>
