<svg width="81" height="34" viewBox="0 0 81 34" fill="none" xmlns="http://www.w3.org/2000/svg">
<path d="M15.0715 4.86545C14.1297 5.97993 12.6228 6.85896 11.1158 6.73339C10.9275 5.22648 11.6652 3.62539 12.5286 2.63648C13.4704 1.4906 15.1186 0.67436 16.4528 0.611572C16.6098 2.18127 15.9976 3.71957 15.0715 4.86545ZM16.4371 7.03163C14.2552 6.90605 12.3873 8.27169 11.3513 8.27169C10.2996 8.27169 8.71421 7.09442 6.98755 7.12581C4.74288 7.1572 2.65519 8.42866 1.50931 10.4536C-0.845233 14.5034 0.897129 20.4996 3.17319 23.796C4.28767 25.4285 5.62191 27.2179 7.37997 27.1551C9.04385 27.0923 9.70312 26.072 11.7123 26.072C13.7372 26.072 14.318 27.1551 16.0761 27.1237C17.8969 27.0923 19.0428 25.4913 20.1573 23.8588C21.4288 22.0065 21.9468 20.2014 21.9781 20.1072C21.9468 20.0758 18.462 18.7416 18.4306 14.7231C18.3992 11.364 21.1776 9.7629 21.3032 9.66872C19.7335 7.34557 17.2848 7.09442 16.4371 7.03163ZM29.0418 2.47951V26.9511H32.8404V18.5846H38.0989C42.9022 18.5846 46.277 15.2882 46.277 10.5164C46.277 5.74448 42.965 2.47951 38.2245 2.47951H29.0418ZM32.8404 5.68169H37.2199C40.5163 5.68169 42.3999 7.43975 42.3999 10.532C42.3999 13.6243 40.5163 15.3981 37.2042 15.3981H32.8404V5.68169ZM53.2151 27.1394C55.601 27.1394 57.8143 25.9308 58.8189 24.0157H58.8974V26.9511H62.4135V14.7702C62.4135 11.2384 59.5881 8.96235 55.24 8.96235C51.2059 8.96235 48.2235 11.2698 48.1136 14.4406H51.5355C51.8181 12.9337 53.2151 11.9448 55.1301 11.9448C57.4533 11.9448 58.7561 13.0279 58.7561 15.0214V16.3713L54.0156 16.6539C49.6048 16.9207 47.2189 18.7259 47.2189 21.8653C47.2189 25.036 49.6833 27.1394 53.2151 27.1394ZM54.2354 24.2355C52.2105 24.2355 50.9233 23.2623 50.9233 21.7711C50.9233 20.2328 52.1634 19.338 54.5336 19.1968L58.7561 18.9299V20.3113C58.7561 22.603 56.8097 24.2355 54.2354 24.2355ZM67.1069 33.6066C70.8114 33.6066 72.5537 32.1938 74.0763 27.9086L80.7476 9.19781H76.8861L72.4125 23.6547H72.334L67.8604 9.19781H63.889L70.3248 27.0139L69.9794 28.0969C69.3987 29.9335 68.4568 30.6399 66.7773 30.6399C66.479 30.6399 65.8982 30.6085 65.6628 30.5771V33.5124C65.8825 33.5752 66.8244 33.6066 67.1069 33.6066Z" fill="#272727"/>
</svg>
