<svg width="23" height="24" viewBox="0 0 23 24" fill="none" xmlns="http://www.w3.org/2000/svg">
<path d="M10.3666 1.22042C10.7634 0.635442 11.6252 0.635442 12.0219 1.22042L12.1159 1.35898C12.4366 1.83188 13.0876 1.94039 13.5444 1.59707L13.6602 1.51004C14.2225 1.08734 15.0339 1.36203 15.2239 2.03939L15.2842 2.25445C15.4368 2.79855 16.0095 3.10824 16.5483 2.93798L16.7055 2.88832C17.3681 2.67896 18.037 3.19251 18.0058 3.88667L17.9929 4.17497C17.968 4.72958 18.3996 5.1983 18.9544 5.21909L19.1726 5.22727C19.8566 5.25292 20.3132 5.94272 20.0697 6.58241L19.9504 6.89553C19.7562 7.40564 20.0069 7.97726 20.5138 8.1799L20.7763 8.28487C21.4047 8.53611 21.6073 9.32594 21.1774 9.84862L20.9593 10.1138C20.6157 10.5317 20.6666 11.147 21.0744 11.5026L21.3243 11.7206C21.833 12.1643 21.765 12.9742 21.1895 13.3269L20.9246 13.4892C20.4619 13.7727 20.3098 14.3736 20.5818 14.8432L20.7546 15.1413C21.0955 15.7297 20.7623 16.4794 20.0971 16.6208L19.8517 16.6729C19.3136 16.7873 18.9689 17.3148 19.0803 17.8536L19.1442 18.1628C19.2839 18.8381 18.7141 19.4487 18.0308 19.3562L17.8439 19.3309C17.2886 19.2557 16.7799 19.6514 16.7162 20.2081L16.687 20.463C16.6074 21.1581 15.8569 21.5587 15.235 21.238L15.102 21.1693C14.5964 20.9086 13.9754 21.1215 13.7362 21.6377L13.6553 21.8124C13.3586 22.4529 12.5095 22.5926 12.0231 22.0809L11.9191 21.9715C11.5249 21.5567 10.8637 21.5567 10.4694 21.9715L10.3654 22.0809C9.8791 22.5926 9.02999 22.4529 8.73323 21.8124L8.65233 21.6377C8.41318 21.1215 7.79216 20.9086 7.28655 21.1693L7.15352 21.238C6.53171 21.5587 5.78121 21.1581 5.70159 20.463L5.67239 20.2081C5.60863 19.6514 5.09996 19.2557 4.5447 19.3309L4.35781 19.3562C3.67443 19.4487 3.1047 18.8381 3.24435 18.1628L3.30828 17.8536C3.41968 17.3148 3.07497 16.7873 2.53683 16.6729L2.29144 16.6208C1.62625 16.4794 1.2931 15.7297 1.63401 15.1413L1.80675 14.8432C2.07881 14.3736 1.92669 13.7727 1.46398 13.4892L1.1991 13.3269C0.623545 12.9742 0.555576 12.1643 1.06429 11.7206L1.3142 11.5026C1.72192 11.147 1.7729 10.5317 1.42924 10.1138L1.21114 9.84862C0.781256 9.32593 0.983847 8.53611 1.61224 8.28487L1.8748 8.1799C2.38164 7.97726 2.63234 7.40564 2.43811 6.89553L2.31889 6.58241C2.07533 5.94272 2.53197 5.25292 3.21598 5.22727L3.43416 5.21909C3.98893 5.1983 4.42057 4.72958 4.39569 4.17497L4.38275 3.88667C4.3516 3.19251 5.02047 2.67896 5.68304 2.88832L5.84022 2.93798C6.37905 3.10824 6.95181 2.79855 7.10438 2.25445L7.16468 2.03939C7.35462 1.36203 8.16607 1.08734 8.7284 1.51004L8.84419 1.59707C9.30093 1.94039 9.95198 1.83188 10.2727 1.35898L10.3666 1.22042Z" fill="#00B67A"/>
<path d="M5.80444 10.3408L9.95888 14.6656" stroke="white" stroke-width="2" stroke-linecap="round"/>
<path d="M16.8622 8.92154C17.2448 8.52326 17.2448 7.8775 16.8622 7.47922C16.4796 7.08093 15.8593 7.08093 15.4767 7.47922L16.8622 8.92154ZM10.6306 15.4087L16.8622 8.92154L15.4767 7.47922L9.24504 13.9663L10.6306 15.4087Z" fill="white"/>
</svg>
