<svg width="87" height="36" viewBox="0 0 87 36" fill="none" xmlns="http://www.w3.org/2000/svg">
<path d="M41.2901 17.5053V27.5784H38.0413V2.6665H46.4908C48.5478 2.6665 50.4964 3.42326 52.015 4.8318C53.5319 6.1303 54.2903 8.08059 54.2903 10.1392C54.2903 12.1979 53.5335 14.0381 52.015 15.4467C50.4981 16.8552 48.6578 17.612 46.4908 17.612L41.2901 17.5053ZM41.2901 5.6986V14.3649H46.7075C47.8994 14.3649 49.0912 13.9298 49.8497 13.0664C51.5833 11.4428 51.5833 8.73408 49.9563 7.10884L49.8497 6.99879C48.9829 6.132 47.8994 5.59025 46.7075 5.70029H41.2901V5.6986Z" fill="white"/>
<path d="M61.763 10.0326C64.1467 10.0326 65.987 10.681 67.3955 11.9829C68.804 13.2814 69.4524 15.015 69.4524 17.182V27.5818H66.4203V25.1981H66.3137C65.0152 27.1484 63.1716 28.1236 61.0063 28.1236C59.166 28.1236 57.5391 27.5818 56.2406 26.5C55.0487 25.4165 54.2903 23.8996 54.2903 22.2761C54.2903 20.5425 54.9404 19.1373 56.2406 18.0521C57.5391 16.9687 59.3793 16.5353 61.548 16.5353C63.4983 16.5353 65.0152 16.8603 66.2053 17.6188V16.862C66.2053 15.7785 65.7736 14.6967 64.9068 14.0449C64.04 13.2882 62.9566 12.8531 61.7647 12.8531C59.9245 12.8531 58.5159 13.6098 57.5408 15.1284L54.7237 13.3948C56.4556 11.1144 58.7309 10.0326 61.763 10.0326ZM57.6474 22.3794C57.6474 23.2462 58.0791 24.0029 58.7309 24.4363C59.4877 24.9781 60.3545 25.3031 61.2213 25.3031C62.5198 25.3031 63.8217 24.7614 64.7951 23.7879C65.8786 22.8111 66.4187 21.6226 66.4187 20.3207C65.4452 19.564 64.035 19.1289 62.1947 19.1289C60.8962 19.1289 59.811 19.4539 58.9459 20.1023C58.0791 20.6458 57.6474 21.4042 57.6474 22.3794Z" fill="white"/>
<path d="M87 10.5745L76.2785 35.1596H73.0263L77.0352 26.6034L69.9942 10.6811H73.4614L78.5504 22.9195H78.6588L83.6412 10.6811H87V10.5745Z" fill="white"/>
<path d="M28.4032 15.3401C28.4032 14.3633 28.2932 13.3898 28.1865 12.4147H14.6479V17.9388H22.3373C22.0123 19.6724 21.0388 21.2959 19.5202 22.2711V25.8449H24.1776C26.8846 23.3546 28.4032 19.6707 28.4032 15.3401Z" fill="#4285F4"/>
<path d="M14.6445 29.3106C18.5434 29.3106 21.7922 28.0121 24.1776 25.8434L19.5203 22.2696C18.2218 23.1364 16.5948 23.6781 14.6479 23.6781C10.964 23.6781 7.71525 21.1878 6.63345 17.7206H1.86438V21.4045C4.35473 26.2785 9.23045 29.3106 14.6445 29.3106Z" fill="#34A853"/>
<path d="M6.63004 17.7223C5.97994 15.9887 5.97994 14.0384 6.63004 12.1982V8.51428H1.86435C-0.194287 12.5232 -0.194287 17.2889 1.86435 21.4045L6.63004 17.7223Z" fill="#FBBC04"/>
<path d="M14.6445 6.34881C16.7032 6.34881 18.6535 7.10557 20.1687 8.51411L24.2859 4.39852C21.6856 2.01653 18.2201 0.607982 14.7529 0.714639C9.3354 0.714639 4.35641 3.74673 1.97272 8.62246L6.7384 12.303C7.71355 8.84085 10.9623 6.34881 14.6445 6.34881Z" fill="#EA4335"/>
</svg>
