<svg width="122" height="26" viewBox="0 0 122 26" fill="none" xmlns="http://www.w3.org/2000/svg">
<path d="M11.1922 3.03485C11.4857 2.10135 12.8068 2.10135 13.1002 3.03485L14.6531 7.97516C14.7841 8.39182 15.1704 8.67528 15.6071 8.67528H20.7011C21.6618 8.67528 22.0698 9.898 21.3017 10.4749L17.1242 13.6122C16.7852 13.8667 16.6436 14.3073 16.7707 14.7117L18.3528 19.7448C18.6443 20.6719 17.5755 21.4279 16.7983 20.8443L12.7467 17.8015C12.391 17.5344 11.9015 17.5344 11.5457 17.8015L7.49412 20.8443C6.71698 21.4279 5.64819 20.6719 5.93963 19.7448L7.52175 14.7117C7.64886 14.3073 7.50722 13.8667 7.16828 13.6122L2.9908 10.4749C2.22261 9.898 2.63061 8.67528 3.59131 8.67528H8.68533C9.12209 8.67528 9.50833 8.39182 9.63931 7.97516L11.1922 3.03485Z" fill="#F0C862"/>
<path d="M35.4847 3.03485C35.7782 2.10135 37.0992 2.10135 37.3927 3.03485L38.9456 7.97516C39.0766 8.39182 39.4628 8.67528 39.8996 8.67528H44.9936C45.9543 8.67528 46.3623 9.898 45.5941 10.4749L41.4167 13.6122C41.0777 13.8667 40.9361 14.3073 41.0632 14.7117L42.6453 19.7448C42.9367 20.6719 41.868 21.4279 41.0908 20.8443L37.0392 17.8015C36.6835 17.5344 36.194 17.5344 35.8382 17.8015L31.7866 20.8443C31.0095 21.4279 29.9407 20.6719 30.2321 19.7448L31.8142 14.7117C31.9413 14.3073 31.7997 13.8667 31.4608 13.6122L27.2833 10.4749C26.5151 9.898 26.9231 8.67528 27.8838 8.67528H32.9778C33.4146 8.67528 33.8008 8.39182 33.9318 7.97516L35.4847 3.03485Z" fill="#F0C862"/>
<path d="M59.7771 3.03485C60.0706 2.10135 61.3917 2.10135 61.6851 3.03485L63.238 7.97516C63.369 8.39182 63.7553 8.67528 64.192 8.67528H69.286C70.2467 8.67528 70.6547 9.898 69.8866 10.4749L65.7091 13.6122C65.3701 13.8667 65.2285 14.3073 65.3556 14.7117L66.9377 19.7448C67.2292 20.6719 66.1604 21.4279 65.3832 20.8443L61.3316 17.8015C60.9759 17.5344 60.4864 17.5344 60.1306 17.8015L56.079 20.8443C55.3019 21.4279 54.2331 20.6719 54.5245 19.7448L56.1066 14.7117C56.2338 14.3073 56.0921 13.8667 55.7532 13.6122L51.5757 10.4749C50.8075 9.898 51.2155 8.67528 52.1762 8.67528H57.2702C57.707 8.67528 58.0932 8.39182 58.2242 7.97516L59.7771 3.03485Z" fill="#F0C862"/>
<path d="M84.0696 3.03485C84.3631 2.10135 85.6841 2.10135 85.9776 3.03485L87.5305 7.97516C87.6615 8.39182 88.0477 8.67528 88.4845 8.67528H93.5785C94.5392 8.67528 94.9472 9.898 94.179 10.4749L90.0016 13.6122C89.6626 13.8667 89.521 14.3073 89.6481 14.7117L91.2302 19.7448C91.5216 20.6719 90.4529 21.4279 89.6757 20.8443L85.6241 17.8015C85.2684 17.5344 84.7789 17.5344 84.4231 17.8015L80.3715 20.8443C79.5944 21.4279 78.5256 20.6719 78.817 19.7448L80.3991 14.7117C80.5262 14.3073 80.3846 13.8667 80.0457 13.6122L75.8682 10.4749C75.1 9.898 75.508 8.67528 76.4687 8.67528H81.5627C81.9995 8.67528 82.3857 8.39182 82.5167 7.97516L84.0696 3.03485Z" fill="#F0C862"/>
<path d="M108.362 3.03485C108.655 2.10135 109.977 2.10135 110.27 3.03485L111.823 7.97516C111.954 8.39182 112.34 8.67528 112.777 8.67528H117.871C118.832 8.67528 119.24 9.898 118.471 10.4749L114.294 13.6122C113.955 13.8667 113.813 14.3073 113.941 14.7117L115.523 19.7448C115.814 20.6719 114.745 21.4279 113.968 20.8443L109.917 17.8015C109.561 17.5344 109.071 17.5344 108.716 17.8015L104.664 20.8443C103.887 21.4279 102.818 20.6719 103.109 19.7448L104.692 14.7117C104.819 14.3073 104.677 13.8667 104.338 13.6122L100.161 10.4749C99.3924 9.898 99.8004 8.67528 100.761 8.67528H105.855C106.292 8.67528 106.678 8.39182 106.809 7.97516L108.362 3.03485Z" fill="#F0C862"/>
</svg>
