<svg width="28" height="28" viewBox="0 0 28 28" fill="none" xmlns="http://www.w3.org/2000/svg">
<path d="M18.8876 14.5058L17.9182 11.1351L14.5535 10.1641C13.5009 9.86032 12.7657 8.88178 12.7657 7.78436C12.7657 6.68694 13.5009 5.70861 14.5535 5.40465L17.9182 4.43385L18.1099 3.76701C16.3011 2.72742 14.1672 2.74505 12.3113 3.87385C11.3393 4.46459 10.1317 4.46459 9.15994 3.87407C4.00939 0.741535 -1.83967 6.59644 0.551596 12.446C1.28399 14.2397 1.60997 16.1606 1.49438 18.001C1.23166 22.1991 3.15218 25.934 6.10234 27.8646C6.37321 28.0418 6.47422 27.9998 7.89547 27.9844C8.34713 27.9794 8.71064 27.6114 8.71064 27.1589V21.256C8.71064 20.133 9.59016 19.2014 10.6711 19.179C11.7981 19.1524 12.7134 20.1367 12.7134 21.3042V27.0622C12.7134 27.5181 13.0823 27.8876 13.5374 27.8876C15.143 27.8876 15.2301 27.9306 15.5033 27.7421C18.4464 25.713 20.1448 22.019 19.9354 18.1012C19.8962 17.3808 19.9185 16.6587 20 15.9457C19.4728 15.6301 19.0647 15.1225 18.8876 14.5058Z" fill="url(#paint0_linear_872_9137)"/>
<path d="M27.3929 7.19061L23.0581 5.94193L21.8095 1.60729C21.5767 0.798668 20.4241 0.796475 20.1906 1.60729L18.942 5.94193L14.6072 7.19061C13.7982 7.42359 13.7971 8.57619 14.6072 8.80961L18.942 10.0581L20.1906 14.3927C20.4234 15.2013 21.576 15.2035 21.8095 14.3927L23.0581 10.0581L27.3929 8.80961C28.2017 8.57641 28.203 7.42403 27.3929 7.19061Z" fill="url(#paint1_linear_872_9137)"/>
<defs>
<linearGradient id="paint0_linear_872_9137" x1="10" y1="3" x2="10" y2="30.519" gradientUnits="userSpaceOnUse">
<stop stop-color="#A17FE0"/>
<stop offset="1" stop-color="#5D26C1"/>
</linearGradient>
<linearGradient id="paint1_linear_872_9137" x1="21" y1="1" x2="21" y2="16.4106" gradientUnits="userSpaceOnUse">
<stop stop-color="#A17FE0"/>
<stop offset="1" stop-color="#5D26C1"/>
</linearGradient>
</defs>
</svg>
