<svg width="28" height="28" viewBox="0 0 28 28" fill="none" xmlns="http://www.w3.org/2000/svg">
<g clip-path="url(#clip0_932_125)">
<path d="M22.6577 0.332031H20.6755C20.6755 0.679516 20.736 1.013 20.846 1.32313C20.977 1.69227 21.1786 2.02822 21.435 2.31423C21.5079 2.39555 21.5852 2.47288 21.6666 2.54584C21.9527 2.80227 22.2885 3.0039 22.6577 3.13487C22.9679 3.24491 23.3014 3.30534 23.6488 3.30534V1.32308C23.6488 0.775766 23.2051 0.332031 22.6577 0.332031Z" fill="#0B0B0B"/>
<path d="M8.43187 11.1238C8.30084 10.7546 8.09926 10.4188 7.84283 10.1327C7.76988 10.0514 7.69266 9.97405 7.61123 9.9011C7.32516 9.64467 6.98933 9.44304 6.62013 9.31206C6.30994 9.20203 5.97646 9.1416 5.62903 9.1416V11.1238C5.62903 11.6712 6.07276 12.1149 6.62013 12.1149H8.60233C8.60233 11.7675 8.54185 11.434 8.43187 11.1238Z" fill="#0B0B0B"/>
<path d="M22.6577 5.18773C22.3129 5.11752 21.9815 5.01044 21.6666 4.87252C20.5257 4.37245 19.6085 3.45518 19.1083 2.31423C18.9703 1.99934 18.8633 1.66788 18.793 1.32313C18.7277 1.00272 18.6933 0.671367 18.6933 0.332031H10.5845C10.5845 0.671367 10.5501 1.00272 10.4847 1.32313C10.4145 1.66788 10.3074 1.99934 10.1695 2.31423C9.66945 3.45518 8.75218 4.3724 7.61123 4.87252C7.29634 5.01055 6.96499 5.11757 6.62013 5.18773C6.29983 5.25303 5.96836 5.28748 5.62903 5.28748V7.15944C5.96836 7.15944 6.29983 7.19389 6.62013 7.25919C6.96499 7.32935 7.2964 7.43637 7.61123 7.57441C8.75218 8.07447 9.6694 8.99174 10.1695 10.1327C10.3075 10.4476 10.4146 10.7789 10.4847 11.1238C10.55 11.4441 10.5845 11.7756 10.5845 12.1149H18.6933C18.6933 11.7756 18.7277 11.4441 18.793 11.1238C18.8632 10.7789 18.9703 10.4476 19.1083 10.1327C19.6084 8.99174 20.5257 8.07452 21.6666 7.57441C21.9815 7.43637 22.3129 7.32935 22.6577 7.25919C22.978 7.19389 23.3095 7.15944 23.6488 7.15944V5.28748C23.3095 5.28748 22.9781 5.25298 22.6577 5.18773ZM15.0843 7.21456H14.1934C13.646 7.21456 13.2023 6.77083 13.2023 6.22346C13.2023 5.67609 13.646 5.23236 14.1934 5.23236H15.0843C15.6316 5.23236 16.0754 5.67609 16.0754 6.22346C16.0754 6.77083 15.6316 7.21456 15.0843 7.21456Z" fill="#0B0B0B"/>
<path d="M6.62013 0.332031C6.07276 0.332031 5.62903 0.775766 5.62903 1.32313V3.30534C5.97646 3.30534 6.30989 3.24491 6.62013 3.13487C6.98933 3.00384 7.32511 2.80227 7.61123 2.54584C7.69255 2.47288 7.76988 2.39561 7.84283 2.31423C8.09926 2.02822 8.3009 1.69227 8.43187 1.32313C8.5419 1.013 8.60233 0.679516 8.60233 0.332031H6.62013Z" fill="#0B0B0B"/>
<path d="M22.6577 9.31206C22.2885 9.44304 21.9528 9.64467 21.6666 9.9011C21.5853 9.97405 21.508 10.0513 21.435 10.1327C21.1786 10.4188 20.977 10.7546 20.846 11.1238C20.736 11.434 20.6755 11.7675 20.6755 12.1149H22.6577C23.2051 12.1149 23.6488 11.6712 23.6488 11.1238V9.1416C23.3014 9.1416 22.968 9.20209 22.6577 9.31206Z" fill="#0B0B0B"/>
<path d="M22.0619 17.4613L13.329 17.4791H13.3289C12.8776 17.4791 12.4554 17.6539 12.1378 17.9716C11.8201 18.2893 11.6453 18.7116 11.6453 19.1608C11.6453 20.0807 12.3926 20.8344 13.3118 20.8426L16.4957 20.8426C17.043 20.8426 17.4868 21.2863 17.4868 21.8337C17.4868 22.3811 17.0431 22.8248 16.4957 22.8248L13.327 22.8249L13.3073 22.8248L10.1956 22.8249C9.93272 22.8249 9.68072 22.7205 9.49478 22.5346L3.58908 16.6288L2.87032 15.91C2.6192 15.6589 2.3025 15.4975 1.95895 15.4406C1.8679 15.4256 1.77515 15.4175 1.68103 15.4175C1.23167 15.4175 0.809478 15.5924 0.491798 15.91C-0.163905 16.5658 -0.16396 17.6329 0.491798 18.2886L8.39163 26.1885H21.8415C22.1044 26.1885 22.3564 26.2929 22.5423 26.4788L23.7315 27.6681L28 23.3994L22.0619 17.4613Z" fill="#0B0B0B"/>
</g>
<defs>
<clipPath id="clip0_932_125">
<rect width="28" height="28" fill="white"/>
</clipPath>
</defs>
</svg>
