<svg width="74" height="14" viewBox="0 0 74 14" fill="none" xmlns="http://www.w3.org/2000/svg">
<g clip-path="url(#clip0_868_6705)">
<path d="M19.4435 2.0005H26.9948V3.3108H24.0261V10.6781H22.3925V3.3108H19.4365V2H19.4429L19.4435 2.0005ZM26.6725 4.39455H28.0684V5.60747H28.0945C28.1409 5.43592 28.2261 5.27043 28.3514 5.111C28.6191 4.76928 28.9814 4.50438 29.3983 4.34561C29.61 4.26615 29.8355 4.22458 30.0632 4.22301C30.2337 4.22301 30.3595 4.22906 30.4255 4.23562C30.4911 4.24167 30.5566 4.25378 30.6291 4.25984V5.59485C30.5222 5.57714 30.4147 5.56284 30.3067 5.55197C30.1996 5.53996 30.0918 5.5339 29.9839 5.5338C29.7334 5.5338 29.4969 5.58274 29.2731 5.67508C29.0493 5.7664 28.858 5.90716 28.6939 6.08527C28.5188 6.28441 28.3848 6.51288 28.2986 6.75883C28.2 7.02825 28.1537 7.33401 28.1537 7.68365V10.672H26.6661V4.39455H26.6725ZM37.4697 10.6786H36.0082V9.80272H35.9816C35.7972 10.1216 35.5277 10.3729 35.1653 10.5626C34.803 10.7523 34.4343 10.8502 34.0593 10.8502C33.1705 10.8502 32.5248 10.6483 32.1305 10.2376C31.7352 9.82745 31.5375 9.20888 31.5375 8.38194V4.39506H33.0256V8.24722C33.0256 8.79869 33.1375 9.19072 33.3682 9.41726C33.592 9.64379 33.9143 9.76034 34.3225 9.76034C34.6384 9.76034 34.8952 9.71746 35.1057 9.62513C35.3167 9.5333 35.4877 9.41725 35.6129 9.26387C35.7445 9.11705 35.8367 8.9334 35.8964 8.72503C35.955 8.51665 35.9816 8.29011 35.9816 8.04541V4.40111H37.4697V10.6786ZM40.0042 8.66398C40.0506 9.06761 40.2147 9.35015 40.4982 9.51514C40.7875 9.67457 41.1301 9.76034 41.5318 9.76034C41.6703 9.76034 41.828 9.74773 42.006 9.72957C42.1834 9.7109 42.3544 9.66801 42.5063 9.61352C42.664 9.55802 42.7887 9.47225 42.8942 9.36226C42.9933 9.25126 43.0391 9.111 43.0327 8.9334C43.0318 8.85098 43.0127 8.76965 42.9764 8.69471C42.9401 8.61978 42.8876 8.55292 42.8222 8.49849C42.6901 8.38244 42.526 8.29667 42.3214 8.22301C42.0935 8.14823 41.8602 8.08888 41.6234 8.04541C41.3602 7.99647 41.097 7.94097 40.8274 7.88597C40.5558 7.83033 40.2876 7.76077 40.024 7.6776C39.7767 7.60255 39.5435 7.49102 39.3329 7.34712C39.1277 7.21154 38.9604 7.03077 38.8454 6.82038C38.7207 6.60595 38.6611 6.34258 38.6611 6.02422C38.6611 5.68113 38.7532 5.3996 38.9312 5.1665C39.1107 4.93535 39.3424 4.74505 39.6094 4.60949C39.8964 4.46582 40.2049 4.36458 40.5243 4.30928C40.8599 4.25429 41.1828 4.22351 41.4854 4.22351C41.8344 4.22351 42.1701 4.26034 42.4866 4.32795C42.793 4.39007 43.085 4.50408 43.3486 4.66448C43.6055 4.81786 43.8159 5.01968 43.9875 5.26488C44.1585 5.50959 44.264 5.80979 44.3098 6.15893H42.7562C42.6837 5.82846 42.5255 5.60192 42.2692 5.49142C42.0124 5.37538 41.7161 5.31988 41.3869 5.31988C41.2814 5.31988 41.1562 5.32593 41.0118 5.3446C40.8726 5.36212 40.7357 5.39289 40.6031 5.43643C40.4819 5.4787 40.3719 5.5455 40.2808 5.63219C40.2365 5.67742 40.2021 5.73047 40.1796 5.7883C40.157 5.84613 40.1466 5.90761 40.1492 5.96922C40.1492 6.14077 40.2147 6.27548 40.3399 6.37942C40.4651 6.48335 40.6298 6.56912 40.8338 6.64278C41.0379 6.71039 41.2686 6.77144 41.5318 6.82038C41.795 6.86932 42.0646 6.92432 42.3416 6.97982C42.6112 7.03481 42.8745 7.10848 43.1382 7.18769C43.4014 7.26741 43.6316 7.3779 43.8362 7.51867C44.0402 7.65943 44.2049 7.83098 44.3295 8.03935C44.4547 8.24722 44.5208 8.5106 44.5208 8.81685C44.5208 9.19021 44.4286 9.50303 44.2437 9.7664C44.0599 10.0237 43.8228 10.2376 43.533 10.3971C43.2296 10.5626 42.9008 10.6824 42.5585 10.7523C42.2103 10.8248 41.8548 10.8617 41.4982 10.8623C41.0989 10.8665 40.7007 10.8212 40.3138 10.7275C39.9515 10.6357 39.6356 10.501 39.3723 10.3239C39.1122 10.1449 38.8983 9.91238 38.7468 9.64379C38.5955 9.37437 38.5161 9.04945 38.5033 8.67608H40.0042V8.66398ZM44.9156 4.39556H46.0414V2.50858H47.5295V4.39556H48.8722V5.42987H47.5301V8.78658C47.5301 8.9329 47.5365 9.056 47.5498 9.16599C47.5626 9.27043 47.5956 9.36226 47.642 9.43542C47.6923 9.51228 47.7688 9.57064 47.8588 9.60091C47.9579 9.63774 48.0826 9.65641 48.2541 9.65641C48.3591 9.65641 48.4646 9.65641 48.5701 9.64985C48.6756 9.64379 48.7806 9.63168 48.886 9.60696V10.6786C48.7214 10.6973 48.5568 10.7094 48.4055 10.7275C48.2459 10.7451 48.0854 10.7534 47.9249 10.7523C47.5301 10.7523 47.2141 10.7154 46.9765 10.6483C46.7399 10.5807 46.5486 10.4768 46.417 10.3421C46.2785 10.2074 46.1933 10.0419 46.1405 9.83956C46.0892 9.61203 46.0607 9.38043 46.0553 9.14783V5.44147H44.9295V4.39405H44.9161L44.9156 4.39556ZM49.9255 4.39556H51.3348V5.24622H51.3614C51.5714 4.87891 51.8612 4.62159 52.2363 4.46266C52.6197 4.30124 53.0352 4.21968 53.4548 4.22351C53.9876 4.22351 54.4485 4.30928 54.8438 4.48688C55.2386 4.65843 55.5679 4.89758 55.8311 5.20333C56.0943 5.50959 56.2856 5.86478 56.4172 6.26942C56.5513 6.69035 56.6179 7.12795 56.6149 7.56761C56.6149 7.98991 56.5557 8.4001 56.4369 8.79263C56.3278 9.17126 56.1471 9.52802 55.9036 9.84561C55.6643 10.1518 55.3533 10.4013 54.9951 10.5747C54.6264 10.7583 54.1986 10.8502 53.6983 10.8502C53.4796 10.8499 53.2614 10.8314 53.0462 10.7947C52.8315 10.758 52.6218 10.6986 52.4212 10.6176C52.2219 10.5388 52.0354 10.4335 51.8676 10.3047C51.7019 10.1796 51.5576 10.031 51.4398 9.86428H51.4131V13H49.9255V4.39455V4.39556ZM55.1268 7.54289C55.127 7.2636 55.0872 6.98558 55.0085 6.71645C54.9355 6.46145 54.815 6.22086 54.6525 6.00605C54.4984 5.80169 54.2985 5.63215 54.067 5.50959C53.8184 5.38238 53.5397 5.3171 53.2571 5.31988C52.6316 5.31988 52.1574 5.52169 51.8415 5.92634C51.5255 6.33047 51.3673 6.86983 51.3673 7.54289C51.3673 7.86125 51.4073 8.1554 51.4925 8.42482C51.5778 8.69425 51.6966 8.92735 51.8676 9.12311C52.0328 9.31937 52.2299 9.47225 52.4606 9.58224C52.6908 9.69879 52.9609 9.75378 53.2635 9.75378C53.6061 9.75378 53.889 9.68668 54.1261 9.55802C54.3557 9.43294 54.5535 9.26155 54.7053 9.056C54.8566 8.84763 54.969 8.61453 55.0346 8.35167C55.0952 8.08588 55.1261 7.81479 55.1268 7.54289ZM57.7535 2.0005H59.2416V3.3113H57.7535V2.0005ZM57.7535 4.39506H59.2416V10.6786H57.7535V4.39506ZM60.5714 2.0005H62.0596V10.6786H60.5714V2.0005ZM66.6219 10.8502C66.0817 10.8502 65.6011 10.7644 65.1802 10.5994C64.7766 10.4427 64.4114 10.2091 64.1071 9.91322C63.8113 9.61136 63.5847 9.25472 63.4416 8.86579C63.285 8.43648 63.2072 7.98496 63.2115 7.53078C63.2115 7.05298 63.2903 6.61251 63.4416 6.20787C63.5848 5.81914 63.8113 5.46268 64.1071 5.16095C64.3964 4.8668 64.7587 4.64026 65.1802 4.47477C65.6011 4.30928 66.0817 4.22351 66.6219 4.22351C67.1617 4.22351 67.6422 4.30928 68.0637 4.47477C68.4851 4.64026 68.8405 4.87336 69.1367 5.16095C69.4325 5.46257 69.659 5.81907 69.8017 6.20787C69.953 6.61201 70.0319 7.05298 70.0319 7.53078C70.0319 8.01514 69.953 8.46165 69.8017 8.86579C69.659 9.25478 69.4326 9.61146 69.1367 9.91322C68.8469 10.2074 68.4851 10.4339 68.0637 10.5994C67.6422 10.7644 67.1617 10.8502 66.6219 10.8502ZM66.6219 9.75378C66.9512 9.75378 67.2405 9.68668 67.484 9.55802C67.7213 9.43292 67.9261 9.25916 68.0834 9.04945C68.2411 8.84157 68.353 8.60242 68.4324 8.33905C68.5049 8.07568 68.5443 7.80626 68.5443 7.53078C68.5443 7.26135 68.5049 6.99798 68.4324 6.72856C68.3645 6.47299 68.2461 6.23194 68.0834 6.01816C67.9258 5.81044 67.721 5.63888 67.484 5.51615C67.2405 5.38749 66.9512 5.31988 66.6219 5.31988C66.2927 5.31988 66.0028 5.38749 65.7593 5.51615C65.5239 5.64076 65.3196 5.81199 65.1605 6.01816C65 6.23321 64.8818 6.47384 64.8115 6.72856C64.7385 6.99043 64.7008 7.25996 64.6991 7.53078C64.6991 7.80626 64.739 8.07568 64.8115 8.33905C64.8839 8.60242 65.0022 8.84157 65.1605 9.04945C65.3182 9.25782 65.5158 9.42936 65.7593 9.55802C66.0028 9.69273 66.2927 9.75378 66.6219 9.75378ZM70.4666 4.39556H71.5924V2.50858H73.0805V4.39556H74.4232V5.42987H73.0805V8.78658C73.0805 8.9329 73.0869 9.056 73.0997 9.16599C73.113 9.27043 73.1461 9.36226 73.1924 9.43542C73.2427 9.51237 73.3192 9.57075 73.4093 9.60091C73.5084 9.63774 73.6331 9.65641 73.8046 9.65641C73.9096 9.65641 74.0151 9.65641 74.1206 9.64985C74.2261 9.64379 74.331 9.63168 74.4365 9.60696V10.6786C74.2719 10.6973 74.1073 10.7094 73.9559 10.7275C73.7964 10.7451 73.6359 10.7534 73.4753 10.7523C73.0805 10.7523 72.7641 10.7154 72.527 10.6483C72.2904 10.5807 72.0991 10.4768 71.9675 10.3421C71.8295 10.2074 71.7437 10.0419 71.691 9.83956C71.6398 9.61201 71.6113 9.38042 71.6058 9.14783V5.44147H70.4799V4.39405H70.4666V4.39556Z" fill="#0B0B0B"/>
<path d="M14 4.96845H8.654L7.00272 0L5.34558 4.96887L0 4.96347L4.3295 8.03695L2.67321 13L7.00272 9.93151L11.3272 13L9.67592 8.03695L14 4.96845Z" fill="#04DA8D"/>
<path d="M10.0472 9.16106L9.67592 8.03695L7.00272 9.93151L10.0472 9.16106Z" fill="#126849"/>
</g>
<defs>
<clipPath id="clip0_868_6705">
<rect width="74" height="14" fill="white"/>
</clipPath>
</defs>
</svg>
