<svg width="370" height="32" viewBox="0 0 370 32" fill="none" xmlns="http://www.w3.org/2000/svg">
<path d="M31.9257 8C28.451 8 25.3313 9.82588 25.3313 13.1765C25.3313 17.0353 30.8422 17.2988 30.8422 19.2188C30.8422 20.0282 29.9081 20.7624 28.3389 20.7624C26.0972 20.7624 24.4159 19.7459 24.4159 19.7459L23.7061 23.1341C23.7061 23.1341 25.6302 24 28.2082 24C32.0191 24 35.008 22.0988 35.008 18.6729C35.008 14.6071 29.4785 14.3435 29.4785 12.5553C29.4785 11.9153 30.2444 11.2188 31.8136 11.2188C33.5883 11.2188 35.0454 11.9529 35.0454 11.9529L35.7552 8.67765C35.7366 8.67765 34.1487 8 31.9257 8ZM0.0934045 8.24471L0 8.73412C0 8.73412 1.45711 8.99765 2.78345 9.54353C4.48342 10.1647 4.5955 10.5224 4.8944 11.6329L8.01411 23.7365H12.1986L18.6062 8.24471H14.4403L10.3119 18.7859L8.63058 9.84471C8.48113 8.82824 7.69653 8.24471 6.72512 8.24471H0.0934045ZM20.2875 8.24471L17.0183 23.7365H20.9973L24.2478 8.24471H20.2875ZM42.443 8.24471C41.4903 8.24471 40.9859 8.75294 40.6123 9.65647L34.7838 23.7365H38.9497L39.753 21.3835H44.8342L45.3199 23.7365H49L45.8056 8.24471H42.443ZM42.9848 12.4424L44.2177 18.2588H40.9112L42.9848 12.4424Z" fill="#1434CB"/>
<path d="M90 7H80V24H90V7Z" fill="#FF5F00"/>
<path d="M81.5032 15.9975C81.5032 12.6379 83.1651 9.43105 85.9674 7.35423C80.8841 3.59764 73.5198 4.42226 69.5118 9.21726C65.5038 13.9817 66.3836 20.8841 71.4995 24.6407C75.7682 27.7864 81.7313 27.7864 86 24.6407C83.1651 22.5639 81.5032 19.357 81.5032 15.9975Z" fill="#EB001B"/>
<path d="M104 16.0013C104 22.0811 99.0206 27 92.866 27C90.3608 27 87.9485 26.1751 86 24.6475C90.8247 20.8896 91.6598 13.9848 87.8557 9.18817C87.299 8.51603 86.6804 7.87443 86 7.35505C90.8247 3.59715 97.8454 4.42205 101.619 9.21872C103.165 11.1435 104 13.5266 104 16.0013Z" fill="#F79E1B"/>
<path d="M103.233 22.4276V22.0611H103.4V22H103V22.0611H103.167V22.4276H103.233ZM104 22.4276V22H103.867L103.733 22.3054L103.6 22H103.467V22.4276H103.567V22.0916L103.7 22.3665H103.8L103.933 22.0916V22.4276H104Z" fill="#F79E1B"/>
<path d="M122 0H154V17.2746L152.416 19.7494L154 21.9521V32H122V15.7154L122.99 14.577L122 13.488V0Z" fill="#016FD0"/>
<path d="M128 22V17H133.363L133.939 17.7405L134.533 17H154V21.6552C154 21.6552 153.491 21.995 152.902 22H142.123L141.474 21.2118V22H139.348V20.6546C139.348 20.6546 139.058 20.8424 138.43 20.8424H137.706V22H134.488L133.913 21.2437L133.33 22H128Z" fill="white"/>
<path d="M122 13.7832L123.205 11H125.288L125.972 12.5591V11H128.562L128.969 12.1268L129.363 11H140.989V11.5665C140.989 11.5665 141.6 11 142.605 11L146.377 11.0131L147.049 12.5517V11H149.216L149.813 11.8838V11H152V16H149.813L149.241 15.1133V16H146.057L145.737 15.2118H144.88L144.565 16H142.406C141.542 16 140.989 15.4451 140.989 15.4451V16H137.733L137.087 15.2118V16H124.979L124.659 15.2118H123.806L123.488 16H122V13.7832Z" fill="white"/>
<path d="M123.451 11L122 15H122.945L123.212 14.199H124.768L125.035 15H126L124.551 11H123.451ZM123.988 11.9309L124.462 13.3306H123.512L123.988 11.9309Z" fill="#016FD0"/>
<path d="M127 15V11L128.592 11.0059L129.517 13.5849L130.421 11H132V15H131V12.0526L129.94 15H129.063L128 12.0526V15H127Z" fill="#016FD0"/>
<path d="M132 15V11H135V11.8947H132.929V12.5789H134.952V13.4211H132.929V14.1316H135V15H132Z" fill="#016FD0"/>
<path d="M136 11V15H137.041V13.5789H137.479L138.728 15H140L138.63 13.5263C139.192 13.4807 139.772 13.0173 139.772 12.2977C139.772 11.456 139.084 11 138.317 11H136ZM137.041 11.8947H138.231C138.517 11.8947 138.724 12.1092 138.724 12.3158C138.724 12.5815 138.455 12.7368 138.247 12.7368H137.041V11.8947Z" fill="#016FD0"/>
<path d="M140 15H139V11H140V15Z" fill="#016FD0"/>
<path d="M142.877 15H142.663C141.628 15 141 14.1599 141 13.0164C141 11.8448 141.621 11 142.928 11H144V11.9474H142.888C142.358 11.9474 141.983 12.374 141.983 13.0263C141.983 13.801 142.412 14.1263 143.03 14.1263H143.285L142.877 15Z" fill="#016FD0"/>
<path d="M144.451 11L143 15H143.945L144.212 14.199H145.768L146.035 15H147L145.551 11H144.451ZM144.988 11.9309L145.462 13.3306H144.512L144.988 11.9309Z" fill="#016FD0"/>
<path d="M148 15V11H149.306L150.973 13.5132V11H152V15H150.736L149.027 12.4211V15H148Z" fill="#016FD0"/>
<path d="M129 22V18H132V18.8947H129.929V19.579H131.952V20.4211H129.929V21.1316H132V22H129Z" fill="#016FD0"/>
<path d="M144 22V18H147V18.8947H144.929V19.579H146.942V20.4211H144.929V21.1316H147V22H144Z" fill="#016FD0"/>
<path d="M132.034 22L133.475 20.0247L132 18H133.142L134.021 19.2516L134.902 18H136L134.544 20L135.988 22H134.845L133.993 20.7681L133.16 22H132.034Z" fill="#016FD0"/>
<path d="M136 18V22H136.845V20.7368H137.711C138.444 20.7368 139 20.2643 139 19.3454C139 18.5842 138.564 18 137.818 18H136ZM136.845 18.9046H137.757C137.994 18.9046 138.163 19.081 138.163 19.3651C138.163 19.6321 137.995 19.8257 137.755 19.8257H136.845V18.9046Z" fill="#016FD0"/>
<path d="M140 18V22H141.041V20.5789H141.479L142.728 22H144L142.63 20.5263C143.192 20.4807 143.772 20.0173 143.772 19.2977C143.772 18.456 143.084 18 142.317 18H140ZM141.041 18.8947H142.231C142.517 18.8947 142.724 19.1092 142.724 19.3158C142.724 19.5815 142.455 19.7368 142.247 19.7368H141.041V18.8947Z" fill="#016FD0"/>
<path d="M147.107 22V21.1316H148.792C149.042 21.1316 149.15 20.9716 149.15 20.7961C149.15 20.6279 149.042 20.4579 148.792 20.4579H148.031C147.369 20.4579 147 19.9789 147 19.2599C147 18.6185 147.338 18 148.321 18H149.961L149.607 18.9H148.188C147.917 18.9 147.834 19.0689 147.834 19.2303C147.834 19.3961 147.937 19.579 148.144 19.579H148.942C149.68 19.579 150 20.076 150 20.727C150 21.4268 149.643 22 148.902 22H147.107Z" fill="#016FD0"/>
<path d="M151.107 22V21.1316H152.792C153.042 21.1316 153.15 20.9716 153.15 20.7961C153.15 20.6279 153.042 20.4579 152.792 20.4579H152.031C151.369 20.4579 151 19.9789 151 19.2599C151 18.6185 151.338 18 152.321 18H153.961L153.607 18.9H152.188C151.917 18.9 151.834 19.0689 151.834 19.2303C151.834 19.3961 151.937 19.579 152.144 19.579H152.942C153.68 19.579 154 20.076 154 20.727C154 21.4268 153.643 22 152.902 22H151.107Z" fill="#016FD0"/>
<path d="M200.766 11.6647C200.422 8.98093 199.459 6.538 197.773 4.74882C195.985 3.06285 193.542 2.09944 190.859 1.75537C188.279 1.41129 186.524 1.51452 186.524 1.51452C186.524 1.51452 184.77 1.4457 182.189 1.75537C179.506 2.09944 177.064 3.06285 175.275 4.74882C173.589 6.538 172.626 8.98093 172.282 11.6647C171.938 14.2453 172.007 16.0001 172.007 16.0001C172.007 16.0001 171.938 17.7548 172.247 20.3354C172.591 23.0188 173.555 25.4621 175.24 27.2513C177.029 28.9373 179.472 29.9003 182.155 30.2444C184.735 30.5885 186.49 30.4856 186.49 30.4856C186.49 30.4856 188.244 30.5541 190.824 30.2444C193.508 29.9003 195.95 28.9373 197.739 27.2513C199.425 25.4624 200.388 23.0188 200.732 20.3354C201.076 17.7548 200.973 16.0001 200.973 16.0001C200.973 16.0001 201.11 14.2453 200.766 11.6647Z" fill="#1E4BC6"/>
<path d="M177 11.5H179.65C180.068 11.5 180.417 11.5662 180.765 11.6987C181.114 11.8311 181.393 12.0298 181.637 12.2616C181.881 12.4934 182.09 12.7583 182.229 13.0894C182.369 13.4205 182.439 13.7517 182.439 14.1159C182.439 14.4801 182.369 14.8113 182.229 15.1424C182.09 15.4735 181.881 15.7387 181.637 15.9702C181.393 16.2017 181.079 16.401 180.765 16.5328C180.451 16.6652 180.068 16.7321 179.65 16.7321H178.464V18.8179H177.035V11.5H177ZM178.429 12.7586V15.4407H179.545C179.754 15.4407 179.963 15.4076 180.138 15.3414C180.312 15.2752 180.451 15.1758 180.591 15.0434C180.73 14.9109 180.8 14.7785 180.87 14.6129C180.939 14.4474 180.974 14.2818 180.974 14.0831C180.974 13.8844 180.939 13.7189 180.87 13.5533C180.8 13.3877 180.695 13.2553 180.591 13.1228C180.451 12.9904 180.312 12.8911 180.138 12.8248C179.963 12.7586 179.754 12.7255 179.545 12.7255H178.429V12.7586ZM185.75 18.8179C185.367 18.8179 185.018 18.752 184.635 18.6192C184.286 18.4868 183.938 18.2881 183.659 18.0566C183.38 17.7914 183.136 17.4934 182.961 17.1291C182.787 16.7649 182.683 16.3344 182.683 15.8709C182.683 15.4073 182.752 14.9768 182.927 14.6126C183.101 14.2483 183.345 13.9503 183.624 13.6854C183.903 13.4205 184.251 13.255 184.6 13.1225C184.983 12.9901 185.332 12.9238 185.75 12.9238C186.169 12.9238 186.552 12.9901 186.866 13.1225C187.215 13.255 187.494 13.4536 187.738 13.6854V12.9238H189.167V18.8175H187.738V17.9897C187.528 18.255 187.215 18.4533 186.866 18.6189C186.517 18.752 186.169 18.8179 185.75 18.8179ZM185.994 17.593C186.273 17.593 186.517 17.5599 186.727 17.4606C186.936 17.3613 187.145 17.2619 187.319 17.0964C187.494 16.9308 187.598 16.7652 187.703 16.5666C187.807 16.3672 187.842 16.1358 187.842 15.9043C187.842 15.6722 187.807 15.4404 187.703 15.2421C187.598 15.0434 187.494 14.8447 187.319 14.7123C187.145 14.5467 186.971 14.4474 186.727 14.348C186.483 14.2156 186.239 14.1825 185.994 14.1825C185.75 14.1825 185.506 14.2156 185.262 14.3149C185.018 14.4142 184.844 14.5136 184.67 14.6791C184.495 14.8447 184.356 15.0103 184.286 15.2089C184.182 15.4076 184.147 15.6394 184.147 15.8712C184.147 16.103 184.182 16.3344 184.286 16.5331C184.391 16.7325 184.53 16.9308 184.67 17.0964C184.844 17.2619 185.053 17.3609 185.262 17.4606C185.472 17.5265 185.716 17.593 185.994 17.593ZM191.154 12.957L192.897 16.9636L194.501 12.957H196L192.339 21.5H190.875L192.165 18.5533L189.655 12.957H191.154Z" fill="white"/>
<path d="M230.694 6.35205C229.944 7.23026 228.744 7.92293 227.544 7.82398C227.394 6.63654 227.981 5.37488 228.669 4.59562C229.419 3.69267 230.732 3.04948 231.794 3C231.919 4.23692 231.432 5.4491 230.694 6.35205ZM231.782 8.05899C230.044 7.96004 228.556 9.03616 227.731 9.03616C226.894 9.03616 225.631 8.10847 224.256 8.13321C222.468 8.15794 220.805 9.15985 219.893 10.7555C218.018 13.9467 219.405 18.6717 221.218 21.2693C222.106 22.5557 223.168 23.9657 224.568 23.9163C225.893 23.8668 226.419 23.0628 228.019 23.0628C229.631 23.0628 230.094 23.9163 231.494 23.8915C232.944 23.8668 233.857 22.6051 234.744 21.3187C235.757 19.8592 236.17 18.4367 236.195 18.3625C236.17 18.3378 233.394 17.2864 233.369 14.1199C233.344 11.4729 235.557 10.2112 235.657 10.137C234.407 8.30637 232.457 8.10847 231.782 8.05899ZM241.82 4.47193V23.7555H244.846V17.1627H249.034C252.859 17.1627 255.547 14.5652 255.547 10.8049C255.547 7.04472 252.909 4.47193 249.134 4.47193H241.82ZM244.846 6.99524H248.334C250.959 6.99524 252.459 8.38059 252.459 10.8173C252.459 13.254 250.959 14.6518 248.321 14.6518H244.846V6.99524ZM261.072 23.9039C262.973 23.9039 264.735 22.9515 265.535 21.4424H265.598V23.7555H268.398V14.157C268.398 11.3739 266.148 9.5804 262.685 9.5804C259.472 9.5804 257.097 11.3987 257.01 13.8972H259.735C259.96 12.7098 261.072 11.9305 262.598 11.9305C264.448 11.9305 265.485 12.784 265.485 14.3549V15.4186L261.71 15.6413C258.197 15.8516 256.297 17.274 256.297 19.7479C256.297 22.2464 258.26 23.9039 261.072 23.9039ZM261.885 21.6156C260.272 21.6156 259.247 20.8487 259.247 19.6736C259.247 18.4615 260.235 17.7564 262.123 17.6451L265.485 17.4348V18.5233C265.485 20.3292 263.935 21.6156 261.885 21.6156ZM272.136 29C275.087 29 276.474 27.8868 277.687 24.51L283 9.76594H279.925L276.362 21.1579H276.299L272.736 9.76594H269.573L274.699 23.8049L274.424 24.6584C273.961 26.1056 273.211 26.6622 271.874 26.6622C271.636 26.6622 271.174 26.6375 270.986 26.6127V28.9258C271.161 28.9753 271.911 29 272.136 29Z" fill="#0B0B0B"/>
<path d="M333.599 16.413V24.5H331V4.5H337.76C339.406 4.5 340.965 5.10754 342.18 6.23836C343.393 7.28084 344 8.84659 344 10.4993C344 12.1521 343.395 13.6295 342.18 14.7603C340.966 15.8911 339.494 16.4986 337.76 16.4986L333.599 16.413ZM333.599 6.93425V13.8918H337.933C338.887 13.8918 339.84 13.5425 340.447 12.8493C341.834 11.5459 341.834 9.37122 340.533 8.06643L340.447 7.97808C339.754 7.28219 338.887 6.84726 337.933 6.93561H333.599V6.93425Z" fill="#0B0B0B"/>
<path d="M349.914 9.5C351.801 9.5 353.257 10.0018 354.372 11.0093C355.487 12.0141 356 13.3557 356 15.0327V23.0808H353.6V21.2361H353.516C352.488 22.7454 351.029 23.5 349.315 23.5C347.859 23.5 346.571 23.0808 345.544 22.2436C344.6 21.4051 344 20.2312 344 18.9748C344 17.6333 344.515 16.5459 345.544 15.7061C346.571 14.8676 348.028 14.5322 349.744 14.5322C351.288 14.5322 352.488 14.7837 353.43 15.3707V14.785C353.43 13.9466 353.088 13.1094 352.402 12.605C351.716 12.0194 350.859 11.6827 349.916 11.6827C348.459 11.6827 347.344 12.2683 346.573 13.4435L344.343 12.1019C345.714 10.3372 347.515 9.5 349.914 9.5ZM346.657 19.0547C346.657 19.7255 346.999 20.3112 347.515 20.6465C348.113 21.0658 348.799 21.3173 349.485 21.3173C350.513 21.3173 351.544 20.8981 352.314 20.1448C353.172 19.3888 353.599 18.4691 353.599 17.4616C352.828 16.876 351.712 16.5393 350.256 16.5393C349.228 16.5393 348.369 16.7908 347.685 17.2926C346.999 17.7132 346.657 18.3001 346.657 19.0547Z" fill="#0B0B0B"/>
<path d="M370 10.5L361.174 29.5H358.496L361.797 22.8876L356 10.5824H358.854L363.044 20.0406H363.133L367.235 10.5824H370V10.5Z" fill="#0B0B0B"/>
<path d="M323 13.8961C323 13.096 322.912 12.2987 322.827 11.5H312V16.0245H318.149C317.889 17.4444 317.111 18.7742 315.896 19.5729V22.5H319.621C321.786 20.4603 323 17.443 323 13.8961Z" fill="#4285F4"/>
<path d="M312.31 24.5C315.455 24.5 318.076 23.4917 320 21.8076L316.243 19.0324C315.195 19.7055 313.883 20.1262 312.312 20.1262C309.341 20.1262 306.72 18.1924 305.847 15.5H302V18.3606C304.009 22.1455 307.942 24.5 312.31 24.5Z" fill="#34A853"/>
<path d="M306 15.6434C305.485 14.2985 305.485 12.7855 306 11.3579V8.5H302.224C300.592 11.6101 300.592 15.3072 302.224 18.5L306 15.6434Z" fill="#FBBC04"/>
<path d="M312.222 6.878C313.883 6.878 315.456 7.46545 316.679 8.55885L320 5.36406C317.902 3.515 315.107 2.4216 312.31 2.50439C307.939 2.50439 303.923 4.8581 302 8.64296L305.844 11.5C306.631 8.81249 309.252 6.878 312.222 6.878Z" fill="#EA4335"/>
</svg>
