<svg width="248" height="36" viewBox="0 0 248 36" fill="none" xmlns="http://www.w3.org/2000/svg">
<path d="M0.44 35V33.824H2.72V2.576H0.44V1.4H9.344V2.576H7.016V33.824H9.344V35H0.44ZM11.6536 35V33.824H13.8616V2.576H11.6536V1.4H18.6136L25.9336 25.184H25.6936V2.576H23.5096V1.4H29.0296V2.576H26.9176V35H24.5176L14.7976 4.04H15.0616V33.824H17.4136V35H11.6536ZM31.5226 35V33.824H33.7546V2.576H31.5226V1.4H44.6266V8.696H43.4506C43.4506 7.4 43.3546 6.296 43.1626 5.384C42.9866 4.456 42.6506 3.76 42.1546 3.296C41.6746 2.816 40.9706 2.576 40.0426 2.576H38.0986V17.384H42.3946V14.864H43.5706V21.056H42.3946V18.56H38.0986V33.824H40.3546V35H31.5226ZM47.8775 35V33.824H50.1575V2.576H47.8775V1.4H56.7815V2.576H54.4535V33.824H56.7815V35H47.8775ZM59.0911 35V33.824H61.2991V2.576H59.0911V1.4H66.0511L73.3711 25.184H73.1311V2.576H70.9471V1.4H76.4671V2.576H74.3551V35H71.9551L62.2351 4.04H62.4991V33.824H64.8511V35H59.0911ZM78.7681 35V33.824H81.0481V2.576H78.7681V1.4H87.6721V2.576H85.3441V33.824H87.6721V35H78.7681ZM93.3418 35V33.824H95.8378V2.576H94.5178C93.6538 2.576 92.9818 2.808 92.5018 3.272C92.0218 3.72 91.6938 4.4 91.5178 5.312C91.3418 6.208 91.2538 7.336 91.2538 8.696H90.0778V1.4H105.918V8.696H104.742C104.742 7.336 104.646 6.208 104.454 5.312C104.278 4.4 103.958 3.72 103.494 3.272C103.03 2.808 102.358 2.576 101.478 2.576H100.158V33.824H102.75V35H93.3418ZM108.034 35V33.824H110.266V2.576H108.034V1.4H121.81V8.696H120.634C120.634 7.4 120.506 6.296 120.25 5.384C120.01 4.456 119.626 3.76 119.098 3.296C118.586 2.816 117.882 2.576 116.986 2.576H114.61V17.6H119.266V15.056H120.394V21.248H119.266V18.776H114.61V33.824H116.938C117.834 33.824 118.546 33.584 119.074 33.104C119.618 32.608 120.01 31.896 120.25 30.968C120.506 30.04 120.634 28.928 120.634 27.632H121.81V35H108.034ZM140.333 35.528C138.765 35.528 137.397 34.816 136.229 33.392C135.077 31.968 134.181 29.968 133.541 27.392C132.901 24.816 132.581 21.768 132.581 18.248C132.581 14.712 132.901 11.648 133.541 9.056C134.181 6.448 135.077 4.432 136.229 3.008C137.397 1.584 138.765 0.871999 140.333 0.871999C141.917 0.871999 143.293 1.584 144.461 3.008C145.645 4.432 146.557 6.448 147.197 9.056C147.853 11.648 148.181 14.712 148.181 18.248C148.181 21.768 147.853 24.816 147.197 27.392C146.557 29.968 145.645 31.968 144.461 33.392C143.293 34.816 141.917 35.528 140.333 35.528ZM140.333 34.352C140.925 34.352 141.421 33.976 141.821 33.224C142.237 32.456 142.573 31.36 142.829 29.936C143.085 28.512 143.269 26.816 143.381 24.848C143.509 22.864 143.573 20.664 143.573 18.248C143.573 15.832 143.509 13.632 143.381 11.648C143.269 9.664 143.085 7.96 142.829 6.536C142.573 5.096 142.237 3.992 141.821 3.224C141.421 2.44 140.925 2.048 140.333 2.048C139.757 2.048 139.269 2.44 138.869 3.224C138.469 3.992 138.141 5.096 137.885 6.536C137.645 7.96 137.469 9.664 137.357 11.648C137.245 13.632 137.189 15.832 137.189 18.248C137.189 20.664 137.245 22.864 137.357 24.848C137.469 26.816 137.645 28.512 137.885 29.936C138.141 31.36 138.469 32.456 138.869 33.224C139.269 33.976 139.757 34.352 140.333 34.352ZM150.222 35V33.824H152.478V2.576H150.222V1.4H158.718C159.598 1.4 160.446 1.536 161.262 1.808C162.094 2.08 162.846 2.52 163.518 3.128C164.19 3.72 164.718 4.504 165.102 5.48C165.502 6.44 165.702 7.608 165.702 8.984C165.702 10.344 165.526 11.52 165.174 12.512C164.838 13.504 164.39 14.328 163.83 14.984C163.286 15.64 162.694 16.152 162.054 16.52C161.43 16.872 160.83 17.096 160.254 17.192C160.846 17.208 161.494 17.376 162.198 17.696C162.918 18 163.598 18.48 164.238 19.136C164.894 19.792 165.43 20.648 165.846 21.704C166.262 22.76 166.47 24.056 166.47 25.592C166.47 27.688 166.15 29.432 165.51 30.824C164.87 32.216 164.022 33.264 162.966 33.968C161.926 34.656 160.782 35 159.534 35H150.222ZM156.75 33.824H158.598C159.158 33.824 159.694 33.536 160.206 32.96C160.718 32.384 161.134 31.488 161.454 30.272C161.79 29.056 161.958 27.512 161.958 25.64C161.958 23.688 161.774 22.144 161.406 21.008C161.038 19.856 160.574 19.04 160.014 18.56C159.454 18.064 158.878 17.816 158.286 17.816H156.75V33.824ZM156.75 16.64H158.286C158.894 16.64 159.43 16.392 159.894 15.896C160.358 15.384 160.718 14.568 160.974 13.448C161.246 12.328 161.382 10.84 161.382 8.984C161.382 7.288 161.222 5.976 160.902 5.048C160.598 4.12 160.198 3.48 159.702 3.128C159.222 2.76 158.726 2.576 158.214 2.576H156.75V16.64ZM173.631 35.576C172.495 35.576 171.567 35.296 170.847 34.736C170.127 34.16 169.599 33.392 169.263 32.432C168.927 31.456 168.759 30.36 168.759 29.144C168.759 28.184 168.935 27.504 169.287 27.104C169.655 26.704 170.111 26.504 170.655 26.504C171.199 26.504 171.639 26.696 171.975 27.08C172.311 27.448 172.479 28.056 172.479 28.904C172.479 29.464 172.383 29.936 172.191 30.32C172.015 30.688 171.823 31.04 171.615 31.376C171.423 31.712 171.327 32.096 171.327 32.528C171.327 33.072 171.503 33.504 171.855 33.824C172.223 34.128 172.647 34.28 173.127 34.28C173.847 34.28 174.431 33.928 174.879 33.224C175.327 32.504 175.551 31.264 175.551 29.504V2.576H173.103V1.4H182.199V2.576H179.871V25.376C179.871 27.344 179.695 28.992 179.343 30.32C179.007 31.632 178.543 32.672 177.951 33.44C177.359 34.208 176.687 34.752 175.935 35.072C175.199 35.408 174.431 35.576 173.631 35.576ZM184.347 35V33.824H186.579V2.576H184.347V1.4H198.123V8.696H196.947C196.947 7.4 196.819 6.296 196.563 5.384C196.323 4.456 195.939 3.76 195.411 3.296C194.899 2.816 194.195 2.576 193.299 2.576H190.923V17.6H195.579V15.056H196.707V21.248H195.579V18.776H190.923V33.824H193.251C194.147 33.824 194.859 33.584 195.387 33.104C195.931 32.608 196.323 31.896 196.563 30.968C196.819 30.04 196.947 28.928 196.947 27.632H198.123V35H184.347ZM209.222 35.48C206.854 35.48 204.926 34.008 203.438 31.064C201.95 28.12 201.206 23.848 201.206 18.248C201.206 16.152 201.366 14.08 201.686 12.032C202.022 9.968 202.526 8.096 203.198 6.416C203.87 4.736 204.718 3.392 205.742 2.384C206.782 1.376 207.998 0.871999 209.39 0.871999C210.382 0.871999 211.238 1.2 211.958 1.856C212.694 2.512 213.254 3.336 213.638 4.328C214.038 5.304 214.238 6.28 214.238 7.256C214.238 8.104 214.094 8.768 213.806 9.248C213.518 9.712 213.07 9.944 212.462 9.944C211.79 9.944 211.31 9.744 211.022 9.344C210.734 8.928 210.59 8.352 210.59 7.616C210.59 7.12 210.686 6.696 210.878 6.344C211.07 5.976 211.254 5.616 211.43 5.264C211.606 4.896 211.694 4.464 211.694 3.968C211.694 3.408 211.534 2.968 211.214 2.648C210.91 2.312 210.55 2.144 210.134 2.144C209.51 2.144 208.958 2.504 208.478 3.224C208.014 3.928 207.614 4.872 207.278 6.056C206.942 7.224 206.67 8.52 206.462 9.944C206.254 11.352 206.094 12.776 205.982 14.216C205.886 15.656 205.838 16.984 205.838 18.2C205.838 19.896 205.894 21.544 206.006 23.144C206.118 24.728 206.286 26.192 206.51 27.536C206.734 28.88 207.006 30.056 207.326 31.064C207.646 32.056 208.006 32.84 208.406 33.416C208.822 33.976 209.286 34.256 209.798 34.256C210.39 34.256 210.918 34.056 211.382 33.656C211.846 33.24 212.238 32.72 212.558 32.096C212.878 31.472 213.118 30.84 213.278 30.2L214.334 30.776C214.046 31.64 213.662 32.424 213.182 33.128C212.718 33.832 212.158 34.4 211.502 34.832C210.846 35.264 210.086 35.48 209.222 35.48ZM219.857 35V33.824H222.353V2.576H221.033C220.169 2.576 219.497 2.808 219.017 3.272C218.537 3.72 218.209 4.4 218.033 5.312C217.857 6.208 217.769 7.336 217.769 8.696H216.593V1.4H232.433V8.696H231.257C231.257 7.336 231.161 6.208 230.969 5.312C230.793 4.4 230.473 3.72 230.009 3.272C229.545 2.808 228.873 2.576 227.993 2.576H226.673V33.824H229.265V35H219.857ZM241.198 35.648C240.494 35.648 239.886 35.56 239.374 35.384C238.878 35.208 238.454 35 238.102 34.76C237.75 34.52 237.446 34.312 237.19 34.136C236.95 33.96 236.734 33.872 236.542 33.872C236.174 33.872 235.99 34.248 235.99 35H234.934V27.392H236.11C236.142 27.84 236.238 28.368 236.398 28.976C236.558 29.584 236.782 30.2 237.07 30.824C237.358 31.448 237.702 32.032 238.102 32.576C238.518 33.12 238.982 33.56 239.494 33.896C240.022 34.232 240.598 34.4 241.222 34.4C242.006 34.4 242.622 34.208 243.07 33.824C243.518 33.424 243.83 32.872 244.006 32.168C244.182 31.464 244.27 30.656 244.27 29.744C244.27 28.672 244.046 27.592 243.598 26.504C243.166 25.4 242.582 24.28 241.846 23.144C241.11 22.008 240.302 20.856 239.422 19.688C238.222 18.072 237.286 16.616 236.614 15.32C235.958 14.024 235.502 12.824 235.246 11.72C235.006 10.6 234.886 9.504 234.886 8.432C234.886 6.768 235.158 5.376 235.702 4.256C236.246 3.136 236.958 2.296 237.838 1.736C238.734 1.16 239.686 0.871999 240.694 0.871999C241.526 0.871999 242.19 0.999999 242.686 1.256C243.198 1.512 243.606 1.768 243.91 2.024C244.23 2.28 244.502 2.408 244.726 2.408C244.918 2.408 245.062 2.336 245.158 2.192C245.254 2.048 245.31 1.784 245.326 1.4H246.382V8.96H245.206C245.158 8.352 245.038 7.664 244.846 6.896C244.654 6.112 244.374 5.36 244.006 4.64C243.638 3.904 243.182 3.296 242.638 2.816C242.11 2.336 241.478 2.096 240.742 2.096C239.878 2.096 239.182 2.432 238.654 3.104C238.126 3.776 237.862 4.792 237.862 6.152C237.862 7.08 238.014 8.008 238.318 8.936C238.622 9.864 239.11 10.864 239.782 11.936C240.454 13.008 241.318 14.232 242.374 15.608C243.382 16.856 244.254 18.112 244.99 19.376C245.742 20.64 246.326 21.936 246.742 23.264C247.174 24.576 247.39 25.952 247.39 27.392C247.39 28.848 247.222 30.096 246.886 31.136C246.55 32.176 246.094 33.032 245.518 33.704C244.942 34.36 244.278 34.848 243.526 35.168C242.79 35.488 242.014 35.648 241.198 35.648Z" fill="black"/>
</svg>
