<svg width="24" height="24" viewBox="0 0 24 24" fill="none" xmlns="http://www.w3.org/2000/svg">
<g clip-path="url(#clip0_2267_43)">
<path d="M11.9346 15C13.5824 15 14.9182 13.6569 14.9182 12C14.9182 10.3431 13.5824 9 11.9346 9C10.2867 9 8.95093 10.3431 8.95093 12C8.95093 13.6569 10.2867 15 11.9346 15Z" stroke="#5E3419" stroke-width="2" stroke-linecap="round" stroke-linejoin="round"/>
<path d="M19.2941 15C19.1618 15.3016 19.1223 15.6362 19.1808 15.9606C19.2393 16.285 19.3931 16.5843 19.6223 16.82L19.682 16.88C19.867 17.0657 20.0137 17.2863 20.1138 17.5291C20.2139 17.7719 20.2654 18.0322 20.2654 18.295C20.2654 18.5578 20.2139 18.8181 20.1138 19.0609C20.0137 19.3037 19.867 19.5243 19.682 19.71C19.4973 19.896 19.2779 20.0435 19.0364 20.1441C18.795 20.2448 18.5361 20.2966 18.2747 20.2966C18.0133 20.2966 17.7545 20.2448 17.513 20.1441C17.2716 20.0435 17.0522 19.896 16.8675 19.71L16.8078 19.65C16.5734 19.4195 16.2757 19.2648 15.9531 19.206C15.6304 19.1472 15.2977 19.1869 14.9977 19.32C14.7036 19.4468 14.4527 19.6572 14.276 19.9255C14.0993 20.1938 14.0044 20.5082 14.0032 20.83V21C14.0032 21.5304 13.7936 22.0391 13.4206 22.4142C13.0475 22.7893 12.5416 23 12.0141 23C11.4865 23 10.9806 22.7893 10.6076 22.4142C10.2345 22.0391 10.025 21.5304 10.025 21V20.91C10.0173 20.579 9.91073 20.258 9.71917 19.9887C9.52761 19.7194 9.25991 19.5143 8.95087 19.4C8.6509 19.2669 8.31815 19.2272 7.99552 19.286C7.6729 19.3448 7.37519 19.4995 7.1408 19.73L7.08113 19.79C6.89639 19.976 6.67702 20.1235 6.43555 20.2241C6.19407 20.3248 5.93524 20.3766 5.67384 20.3766C5.41245 20.3766 5.15361 20.3248 4.91214 20.2241C4.67067 20.1235 4.45129 19.976 4.26656 19.79C4.08162 19.6043 3.93491 19.3837 3.83481 19.1409C3.73471 18.8981 3.68319 18.6378 3.68319 18.375C3.68319 18.1122 3.73471 17.8519 3.83481 17.6091C3.93491 17.3663 4.08162 17.1457 4.26656 16.96L4.32623 16.9C4.55551 16.6643 4.70932 16.365 4.76782 16.0406C4.82632 15.7162 4.78682 15.3816 4.65443 15.08C4.52836 14.7842 4.31903 14.532 4.0522 14.3543C3.78538 14.1766 3.4727 14.0813 3.15267 14.08H2.9836C2.45606 14.08 1.95013 13.8693 1.5771 13.4942C1.20407 13.1191 0.994507 12.6104 0.994507 12.08C0.994507 11.5496 1.20407 11.0409 1.5771 10.6658C1.95013 10.2907 2.45606 10.08 2.9836 10.08H3.07311C3.4023 10.0723 3.72156 9.96512 3.98938 9.77251C4.25721 9.5799 4.46121 9.31074 4.57487 9C4.70726 8.69838 4.74675 8.36381 4.68825 8.03941C4.62976 7.71502 4.47595 7.41568 4.24667 7.18L4.187 7.12C4.00206 6.93425 3.85535 6.71368 3.75525 6.47088C3.65515 6.22808 3.60362 5.96783 3.60362 5.705C3.60362 5.44217 3.65515 5.18192 3.75525 4.93912C3.85535 4.69632 4.00206 4.47575 4.187 4.29C4.37173 4.10405 4.5911 3.95653 4.83258 3.85588C5.07405 3.75523 5.33288 3.70343 5.59428 3.70343C5.85568 3.70343 6.11451 3.75523 6.35598 3.85588C6.59745 3.95653 6.81683 4.10405 7.00156 4.29L7.06123 4.35C7.29563 4.58054 7.59333 4.73519 7.91596 4.794C8.23858 4.85282 8.57134 4.81312 8.87131 4.68H8.95087C9.24503 4.55324 9.4959 4.34276 9.67261 4.07447C9.84931 3.80618 9.94414 3.49179 9.94542 3.17V3C9.94542 2.46957 10.155 1.96086 10.528 1.58579C10.901 1.21071 11.407 1 11.9345 1C12.462 1 12.968 1.21071 13.341 1.58579C13.714 1.96086 13.9236 2.46957 13.9236 3V3.09C13.9249 3.41179 14.0197 3.72618 14.1964 3.99447C14.3731 4.26276 14.624 4.47324 14.9181 4.6C15.2181 4.73312 15.5509 4.77282 15.8735 4.714C16.1961 4.65519 16.4938 4.50054 16.7282 4.27L16.7879 4.21C16.9726 4.02405 17.192 3.87653 17.4335 3.77588C17.6749 3.67523 17.9338 3.62343 18.1952 3.62343C18.4566 3.62343 18.7154 3.67523 18.9569 3.77588C19.1983 3.87653 19.4177 4.02405 19.6025 4.21C19.7874 4.39575 19.9341 4.61632 20.0342 4.85912C20.1343 5.10192 20.1858 5.36217 20.1858 5.625C20.1858 5.88783 20.1343 6.14808 20.0342 6.39088C19.9341 6.63368 19.7874 6.85425 19.6025 7.04L19.5428 7.1C19.3135 7.33568 19.1597 7.63502 19.1012 7.95941C19.0427 8.28381 19.0822 8.61838 19.2146 8.92V9C19.3407 9.29577 19.55 9.54802 19.8168 9.72569C20.0836 9.90337 20.3963 9.99872 20.7163 10H20.8854C21.413 10 21.9189 10.2107 22.2919 10.5858C22.6649 10.9609 22.8745 11.4696 22.8745 12C22.8745 12.5304 22.6649 13.0391 22.2919 13.4142C21.9189 13.7893 21.413 14 20.8854 14H20.7959C20.4759 14.0013 20.1632 14.0966 19.8964 14.2743C19.6295 14.452 19.4202 14.7042 19.2941 15Z" stroke="#5E3419" stroke-width="2" stroke-linecap="round" stroke-linejoin="round"/>
</g>
<defs>
<clipPath id="clip0_2267_43">
<rect width="23.8691" height="24" rx="11.9345" fill="white"/>
</clipPath>
</defs>
</svg>
