<svg width="31" height="30" viewBox="0 0 31 30" fill="none" xmlns="http://www.w3.org/2000/svg">
<path d="M7.75 2.5L3.875 7.5V25C3.875 25.663 4.14717 26.2989 4.63164 26.7678C5.11611 27.2366 5.77319 27.5 6.45833 27.5H24.5417C25.2268 27.5 25.8839 27.2366 26.3684 26.7678C26.8528 26.2989 27.125 25.663 27.125 25V7.5L23.25 2.5H7.75Z" stroke="black" stroke-width="2" stroke-linecap="round" stroke-linejoin="round"/>
<path d="M3.875 7.5H27.125" stroke="black" stroke-width="2" stroke-linecap="round" stroke-linejoin="round"/>
<path d="M20.6666 12.5C20.6666 13.8261 20.1223 15.0979 19.1534 16.0355C18.1844 16.9732 16.8703 17.5 15.5 17.5C14.1297 17.5 12.8155 16.9732 11.8466 16.0355C10.8777 15.0979 10.3333 13.8261 10.3333 12.5" stroke="black" stroke-width="2" stroke-linecap="round" stroke-linejoin="round"/>
</svg>
