<svg width="30" height="24" viewBox="0 0 30 24" fill="none" xmlns="http://www.w3.org/2000/svg">
<g clip-path="url(#clip0_2267_80)">
<path d="M20.0909 3H1.76367V16H20.0909V3Z" stroke="#5E3419" stroke-width="2" stroke-linecap="round" stroke-linejoin="round"/>
<path d="M20.0909 8H24.9782L28.6437 11V16H20.0909V8Z" stroke="#5E3419" stroke-width="2" stroke-linecap="round" stroke-linejoin="round"/>
<path d="M7.26182 21C8.9488 21 10.3164 19.8807 10.3164 18.5C10.3164 17.1193 8.9488 16 7.26182 16C5.57484 16 4.20728 17.1193 4.20728 18.5C4.20728 19.8807 5.57484 21 7.26182 21Z" stroke="#5E3419" stroke-width="2" stroke-linecap="round" stroke-linejoin="round"/>
<path d="M23.1455 21C24.8325 21 26.2 19.8807 26.2 18.5C26.2 17.1193 24.8325 16 23.1455 16C21.4585 16 20.0909 17.1193 20.0909 18.5C20.0909 19.8807 21.4585 21 23.1455 21Z" stroke="#5E3419" stroke-width="2" stroke-linecap="round" stroke-linejoin="round"/>
</g>
<defs>
<clipPath id="clip0_2267_80">
<rect width="29.3236" height="24" fill="white" transform="translate(0.54187)"/>
</clipPath>
</defs>
</svg>
