<svg width="22" height="23" viewBox="0 0 22 23" fill="none" xmlns="http://www.w3.org/2000/svg">
<rect y="0.5" width="22" height="22" rx="11" fill="white"/>
<path d="M13.3687 6.06401C12.7949 6.73576 11.8769 7.26559 10.9589 7.1899C10.8442 6.28162 11.2936 5.31657 11.8196 4.72051C12.3933 4.02983 13.3974 3.53785 14.2102 3.5C14.3058 4.44613 13.9329 5.37333 13.3687 6.06401ZM14.2006 7.36967C12.8714 7.29398 11.7335 8.11711 11.1024 8.11711C10.4617 8.11711 9.49588 7.40751 8.44401 7.42643C7.07658 7.44536 5.80477 8.21172 5.10672 9.43223C3.67235 11.8732 4.73378 15.4874 6.12034 17.4743C6.79927 18.4583 7.61208 19.5369 8.68307 19.499C9.69669 19.4612 10.0983 18.8462 11.3223 18.8462C12.5559 18.8462 12.9097 19.499 13.9807 19.4801C15.0899 19.4612 15.788 18.4961 16.4669 17.5122C17.2415 16.3957 17.557 15.3077 17.5762 15.2509C17.557 15.232 15.4342 14.4278 15.415 12.0057C15.3959 9.98098 17.0885 9.01593 17.165 8.95916C16.2087 7.55889 14.717 7.40751 14.2006 7.36967Z" fill="#0B0B0B"/>
</svg>
