<svg width="28" height="28" viewBox="0 0 28 28" fill="none" xmlns="http://www.w3.org/2000/svg">
<path d="M14.1437 20.6201C15.9845 20.6189 17.7496 19.8874 19.0517 18.5862C20.3537 17.2849 21.0863 15.5203 21.0887 13.6795C21.0887 9.29025 14.7389 2.3103 14.4675 2.01272C14.4261 1.96908 14.3762 1.93432 14.3209 1.91057C14.2656 1.88682 14.2061 1.87457 14.1459 1.87457C14.0857 1.87458 14.0262 1.88683 13.9709 1.91058C13.9156 1.93434 13.8657 1.9691 13.8242 2.01275C13.5529 2.3103 7.20312 9.29025 7.20312 13.6795C7.20451 15.5198 7.93619 17.2844 9.23751 18.5857C10.5388 19.887 12.3034 20.6187 14.1437 20.6201ZM18.9443 12.0034C19.0618 12.0058 19.1736 12.0541 19.2558 12.1379C19.3381 12.2218 19.3841 12.3346 19.3841 12.452C19.3841 12.5695 19.338 12.6822 19.2558 12.7661C19.1736 12.85 19.0618 12.8982 18.9443 12.9006C18.8269 12.8982 18.7151 12.85 18.6328 12.7661C18.5506 12.6822 18.5045 12.5694 18.5046 12.452C18.5046 12.3345 18.5506 12.2218 18.6328 12.1379C18.7151 12.054 18.8269 12.0058 18.9443 12.0034ZM14.1437 17.955C15.2779 17.9543 16.3654 17.5038 17.1677 16.7022C17.9701 15.9007 18.4217 14.8136 18.4236 13.6795C18.4253 13.5646 18.4722 13.455 18.5541 13.3743C18.636 13.2937 18.7463 13.2485 18.8612 13.2485C18.9761 13.2485 19.0864 13.2937 19.1683 13.3743C19.2502 13.455 19.2971 13.5646 19.2988 13.6795C19.2963 15.0455 18.7522 16.3548 17.7859 17.3204C16.8195 18.2859 15.5098 18.8288 14.1437 18.8302C14.0279 18.8298 13.917 18.7836 13.8352 18.7015C13.7534 18.6195 13.7075 18.5084 13.7075 18.3926C13.7075 18.2768 13.7534 18.1657 13.8352 18.0837C13.917 18.0016 14.0279 17.9554 14.1437 17.955Z" fill="#182028"/>
<path d="M25.9422 22.1255L23.9905 20.4582C23.8375 20.3304 23.6459 20.2579 23.4466 20.2524C23.2473 20.2468 23.052 20.3085 22.8921 20.4276C21.3594 21.5395 19.5124 22.1342 17.6189 22.1255C15.0624 22.0511 10.2001 20.4615 7.73315 20.6114C5.85057 20.5605 3.9799 20.925 2.25421 21.6791C2.12797 21.7399 2.01789 21.8296 1.93294 21.941C1.848 22.0525 1.7906 22.1824 1.76543 22.3202C1.74026 22.458 1.74804 22.5998 1.78813 22.7341C1.82821 22.8683 1.89947 22.9912 1.99609 23.0926L3.68961 24.8956C3.81149 25.03 3.97211 25.1232 4.14928 25.1624C4.32645 25.2016 4.51142 25.1848 4.67863 25.1144C8.29556 23.5873 13.5372 26.1444 17.6233 26.1253C20.5874 26.1484 23.4827 25.2323 25.8941 23.5084C26.0005 23.4289 26.0876 23.3265 26.1492 23.2088C26.2107 23.0911 26.245 22.9612 26.2497 22.8285C26.2543 22.6958 26.229 22.5637 26.1758 22.442C26.1226 22.3204 26.0428 22.2122 25.9422 22.1255Z" fill="#182028"/>
</svg>
