<svg width="81" height="34" viewBox="0 0 81 34" fill="none" xmlns="http://www.w3.org/2000/svg">
<path d="M15.0715 4.86557C14.1296 5.98005 12.6227 6.85908 11.1158 6.73351C10.9275 5.2266 11.6652 3.62551 12.5285 2.6366C13.4704 1.49072 15.1185 0.674482 16.4528 0.611694C16.6098 2.18139 15.9976 3.71969 15.0715 4.86557ZM16.4371 7.03175C14.2552 6.90617 12.3873 8.27181 11.3513 8.27181C10.2996 8.27181 8.71418 7.09454 6.98752 7.12593C4.74285 7.15733 2.65516 8.42878 1.50928 10.4537C-0.845264 14.5035 0.897099 20.4997 3.17316 23.7961C4.28764 25.4286 5.62188 27.218 7.37994 27.1552C9.04382 27.0925 9.70309 26.0722 11.7123 26.0722C13.7372 26.0722 14.318 27.1553 16.0761 27.1239C17.8969 27.0925 19.0428 25.4914 20.1573 23.8589C21.4287 22.0066 21.9467 20.2015 21.9781 20.1073C21.9467 20.0759 18.462 18.7417 18.4306 14.7233C18.3992 11.3641 21.1776 9.76302 21.3031 9.66884C19.7334 7.34569 17.2847 7.09454 16.4371 7.03175ZM29.0417 2.47963V26.9512H32.8404V18.5847H38.0989C42.9022 18.5847 46.277 15.2884 46.277 10.5165C46.277 5.7446 42.965 2.47963 38.2245 2.47963H29.0417ZM32.8404 5.68181H37.2199C40.5162 5.68181 42.3999 7.43987 42.3999 10.5322C42.3999 13.6245 40.5162 15.3982 37.2042 15.3982H32.8404V5.68181ZM53.2151 27.1396C55.601 27.1396 57.8143 25.9309 58.8189 24.0159H58.8974V26.9512H62.4135V14.7703C62.4135 11.2385 59.588 8.96248 55.24 8.96248C51.2059 8.96248 48.2234 11.2699 48.1135 14.4407H51.5355C51.818 12.9338 53.2151 11.9449 55.1301 11.9449C57.4532 11.9449 58.7561 13.028 58.7561 15.0215V16.3714L54.0156 16.654C49.6048 16.9208 47.2188 18.726 47.2188 21.8654C47.2188 25.0362 49.6832 27.1396 53.2151 27.1396ZM54.2354 24.2356C52.2105 24.2356 50.9233 23.2624 50.9233 21.7712C50.9233 20.2329 52.1634 19.3382 54.5336 19.1969L58.7561 18.93V20.3114C58.7561 22.6031 56.8097 24.2356 54.2354 24.2356ZM67.1069 33.6067C70.8114 33.6067 72.5537 32.194 74.0763 27.9087L80.7475 9.19793H76.8861L72.4124 23.6548H72.334L67.8603 9.19793H63.889L70.3248 27.014L69.9794 28.0971C69.3986 29.9336 68.4568 30.64 66.7772 30.64C66.479 30.64 65.8982 30.6086 65.6628 30.5772V33.5125C65.8825 33.5753 66.8243 33.6067 67.1069 33.6067Z" fill="white"/>
</svg>
