<svg width="87" height="26" viewBox="0 0 87 26" fill="none" xmlns="http://www.w3.org/2000/svg">
<g clip-path="url(#clip0_1454_75)">
<path d="M53.9611 20.312C48.9114 23.9974 41.5922 25.9636 35.2906 25.9636C26.4546 25.9636 18.4999 22.7277 12.4819 17.3458C12.0091 16.9226 12.4327 16.3458 13.0001 16.6754C19.4947 20.4169 27.525 22.6678 35.8201 22.6678C41.4145 22.6678 47.5686 21.5218 53.2273 19.1435C54.0822 18.784 54.7971 19.6978 53.9611 20.312Z" fill="#FF9900"/>
<path d="M56.0605 17.9337C55.4174 17.1173 51.7938 17.548 50.1673 17.739C49.6718 17.7989 49.5961 17.372 50.0424 17.0648C52.9285 15.0536 57.6642 15.6341 58.2165 16.3083C58.7687 16.9862 58.0728 21.6865 55.3607 23.9299C54.9446 24.2745 54.5474 24.091 54.7328 23.634C55.3418 22.1284 56.7073 18.754 56.0605 17.9337Z" fill="#FF9900"/>
<path d="M50.2807 2.86658V0.91155C50.2807 0.615674 50.5076 0.417175 50.78 0.417175H59.6197C59.9034 0.417175 60.1304 0.61942 60.1304 0.91155V2.58568C60.1266 2.86658 59.8883 3.23361 59.4646 3.81413L54.884 10.2897C56.5861 10.2485 58.3828 10.4994 59.9261 11.3608C60.2741 11.5556 60.3687 11.8402 60.3952 12.1211V14.2072C60.3952 14.4919 60.0774 14.8252 59.7446 14.6529C57.0249 13.241 53.4126 13.0874 50.4055 14.6679C50.0991 14.8327 49.7776 14.5031 49.7776 14.2185V12.2372C49.7776 11.9189 49.7814 11.3758 50.1029 10.8927L55.4098 3.35721H50.7913C50.5076 3.35721 50.2807 3.15871 50.2807 2.86658Z" fill="white"/>
<path d="M18.0346 15.0649H15.3452C15.088 15.0462 14.8838 14.8552 14.8649 14.6117V0.945277C14.8649 0.671873 15.0956 0.454645 15.3831 0.454645H17.8909C18.1519 0.465874 18.3599 0.66438 18.3788 0.911567V2.69806H18.428C19.0824 0.971491 20.3117 0.16626 21.9685 0.16626C23.6517 0.16626 24.7032 0.971491 25.4597 2.69806C26.1103 0.971491 27.5893 0.16626 29.1742 0.16626C30.3014 0.16626 31.5345 0.626927 32.2872 1.66062C33.1383 2.81042 32.9643 4.4808 32.9643 5.9452L32.9605 14.5705C32.9605 14.8439 32.7298 15.0649 32.4423 15.0649H29.7567C29.4881 15.0462 29.2725 14.8327 29.2725 14.5705V7.3272C29.2725 6.75043 29.3255 5.31225 29.1969 4.76544C28.9964 3.84786 28.395 3.58943 27.6158 3.58943C26.9652 3.58943 26.2843 4.02014 26.0082 4.70927C25.7321 5.39839 25.7586 6.55193 25.7586 7.3272V14.5705C25.7586 14.8439 25.5278 15.0649 25.2403 15.0649H22.5548C22.2824 15.0462 22.0706 14.8327 22.0706 14.5705L22.0668 7.3272C22.0668 5.80288 22.3202 3.55947 20.4101 3.55947C18.4772 3.55947 18.5528 5.7467 18.5528 7.3272V14.5705C18.5528 14.8439 18.3221 15.0649 18.0346 15.0649Z" fill="white"/>
<path d="M67.7409 0.16626C71.7315 0.16626 73.8913 3.55947 73.8913 7.87401C73.8913 12.0425 71.5045 15.3496 67.7409 15.3496C63.8222 15.3496 61.6888 11.9563 61.6888 7.72795C61.6888 3.47333 63.8487 0.16626 67.7409 0.16626ZM67.7636 2.95648C65.7815 2.95648 65.6567 5.6306 65.6567 7.29724C65.6567 8.96763 65.6302 12.5331 67.7409 12.5331C69.8251 12.5331 69.9234 9.65676 69.9234 7.90397C69.9234 6.75043 69.8742 5.37218 69.5225 4.27856C69.2199 3.32726 68.6184 2.95648 67.7636 2.95648Z" fill="white"/>
<path d="M79.0658 15.0649H76.3877C76.1192 15.0462 75.9036 14.8327 75.9036 14.5705L75.8998 0.900331C75.9225 0.649398 76.1456 0.454645 76.418 0.454645H78.9107C79.1452 0.465874 79.3381 0.623183 79.3911 0.836663V2.92652H79.4402C80.193 1.05763 81.2483 0.16626 83.1055 0.16626C84.3121 0.16626 85.4885 0.596965 86.245 1.77672C86.9485 2.87034 86.9486 4.70927 86.9486 6.03134V14.6342C86.9183 14.8739 86.6951 15.0649 86.4303 15.0649H83.7334C83.4875 15.0462 83.2833 14.8664 83.2568 14.6342V7.2111C83.2568 5.71674 83.4308 3.52951 81.5736 3.52951C80.9192 3.52951 80.3178 3.96396 80.0189 4.62312C79.6407 5.45832 79.5915 6.28977 79.5915 7.2111V14.5705C79.5877 14.8439 79.3532 15.0649 79.0658 15.0649Z" fill="white"/>
<path d="M43.2338 8.53691V7.96013C41.2896 7.96013 39.2357 8.37211 39.2357 10.6417C39.2357 11.7915 39.8371 12.5706 40.8698 12.5706C41.6263 12.5706 42.3033 12.1099 42.7308 11.3608C43.2603 10.4395 43.2338 9.57434 43.2338 8.53691ZM45.9459 15.0274C45.7681 15.1847 45.5109 15.196 45.3105 15.0911C44.4178 14.357 44.2589 14.0162 43.7672 13.3159C42.292 14.8065 41.248 15.2522 39.3341 15.2522C37.0721 15.2522 35.3094 13.8702 35.3094 11.1024C35.3094 8.94139 36.4934 7.4695 38.1766 6.75041C39.6367 6.11372 41.6754 6.00136 43.2338 5.82534V5.48077C43.2338 4.84782 43.283 4.09877 42.9086 3.55196C42.5795 3.06133 41.9516 2.85908 41.3993 2.85908C40.3743 2.85908 39.4589 3.37968 39.2357 4.45831C39.1903 4.69801 39.0125 4.93396 38.7705 4.9452L36.1605 4.66805C35.9411 4.61936 35.699 4.44333 35.7596 4.11001C36.361 0.978965 39.2168 0.0351562 41.7738 0.0351562C43.0825 0.0351562 44.7922 0.379721 45.8249 1.36098C47.1336 2.5707 47.0088 4.18491 47.0088 5.94144V10.0912C47.0088 11.3384 47.5308 11.8852 48.0225 12.5593C48.1965 12.799 48.2344 13.0874 48.015 13.2672C47.4665 13.7204 46.4906 14.563 45.9535 15.0349L45.9459 15.0274Z" fill="white"/>
<path d="M7.97689 8.53691V7.96013C6.03267 7.96013 3.97876 8.37211 3.97876 10.6417C3.97876 11.7915 4.58018 12.5706 5.61281 12.5706C6.36931 12.5706 7.04639 12.1099 7.47381 11.3608C8.00337 10.4395 7.97689 9.57434 7.97689 8.53691ZM10.689 15.0274C10.5112 15.1847 10.254 15.196 10.0535 15.0911C9.16082 14.357 9.00195 14.0162 8.51023 13.3159C7.03504 14.8065 5.99106 15.2522 4.0771 15.2522C1.81515 15.2522 0.0524902 13.8702 0.0524902 11.1024C0.0524902 8.94139 1.23642 7.4695 2.91965 6.75041C4.3797 6.11372 6.41849 6.00136 7.97689 5.82534V5.48077C7.97689 4.84782 8.02606 4.09877 7.65159 3.55196C7.32251 3.06133 6.69461 2.85908 6.14236 2.85908C5.1173 2.85908 4.20192 3.37968 3.97876 4.45831C3.93336 4.69801 3.75559 4.93396 3.5135 4.9452L0.90356 4.66805C0.684172 4.61936 0.44209 4.44333 0.502611 4.11001C1.10403 0.978965 3.95984 0.0351562 6.51683 0.0351562C7.82559 0.0351562 9.53529 0.379721 10.5679 1.36098C11.8767 2.5707 11.7519 4.18491 11.7519 5.94144V10.0912C11.7519 11.3384 12.2738 11.8852 12.7656 12.5593C12.9396 12.799 12.9774 13.0874 12.758 13.2672C12.2095 13.7204 11.2336 14.563 10.6965 15.0349L10.689 15.0274Z" fill="white"/>
</g>
<defs>
<clipPath id="clip0_1454_75">
<rect width="87" height="26" fill="white"/>
</clipPath>
</defs>
</svg>
