<svg width="27" height="24" viewBox="0 0 27 24" fill="none" xmlns="http://www.w3.org/2000/svg">
<g clip-path="url(#clip0_1332_10367)">
<path d="M21.2445 23.9998H1.37077C1.07795 23.9998 0.797117 23.8539 0.590059 23.5942C0.383 23.3346 0.266676 22.9824 0.266676 22.6152C0.266676 20.0446 -0.078638 17.0754 1.37077 15.2577C2.82018 13.44 5.94558 12.9229 7.99535 12.9229H14.6199C16.6697 12.9229 19.7951 13.44 21.2445 15.2577C22.6939 17.0753 22.3486 20.0446 22.3486 22.6152C22.3486 22.9824 22.2323 23.3346 22.0252 23.5942C21.8182 23.8539 21.5373 23.9998 21.2445 23.9998ZM2.58528 21.2305H20.03C19.7755 19.6668 20.2575 17.7574 19.2717 16.7481C18.2858 15.7389 15.8926 15.2573 14.6199 15.2577H7.99535C6.72271 15.2573 4.24009 15.7389 3.25423 16.7481C2.26836 17.7574 2.83981 19.6668 2.58528 21.2305Z" fill="white"/>
<path d="M11.3076 14.7693C10.0296 14.7693 8.78037 14.3903 7.71777 13.6803C6.65518 12.9703 5.82699 11.9611 5.33793 10.7805C4.84887 9.59976 4.72091 8.30056 4.97023 7.04715C5.21955 5.79373 5.83495 4.6424 6.73861 3.73873C7.64227 2.83507 8.79361 2.21967 10.047 1.97035C11.3004 1.72103 12.5996 1.84899 13.7803 2.33805C14.961 2.82711 15.9702 3.6553 16.6802 4.71789C17.3902 5.78049 17.7691 7.02976 17.7691 8.30773C17.766 10.0205 17.0843 11.6622 15.8732 12.8733C14.6621 14.0844 13.0204 14.7662 11.3076 14.7693ZM11.3076 4.19584C10.4944 4.19584 9.69936 4.437 9.02317 4.88882C8.34697 5.34064 7.81994 5.98283 7.50872 6.73418C7.1975 7.48553 7.11607 8.31229 7.27473 9.10992C7.43339 9.90755 7.82501 10.6402 8.40007 11.2153C8.97512 11.7903 9.70779 12.182 10.5054 12.3406C11.303 12.4993 12.1298 12.4178 12.8812 12.1066C13.6325 11.7954 14.2747 11.2684 14.7265 10.5922C15.1783 9.91598 15.4195 9.12099 15.4195 8.30773C15.4195 7.21719 14.9863 6.17132 14.2152 5.40019C13.444 4.62906 12.3981 4.19584 11.3076 4.19584Z" fill="white"/>
</g>
<defs>
<clipPath id="clip0_1332_10367">
<rect width="26.7692" height="24" fill="white" transform="translate(0.230713)"/>
</clipPath>
</defs>
</svg>
