<svg width="80" height="16" viewBox="0 0 80 16" fill="none" xmlns="http://www.w3.org/2000/svg">
<g clip-path="url(#clip0_1332_13961)">
<path d="M8 12.8578L11.3949 14.8528C12.0166 15.2184 12.7774 14.678 12.6138 13.9944L11.7139 10.2428L14.7162 7.7153C15.2643 7.2543 14.9698 6.37999 14.2499 6.32435L10.2987 5.99848L8.7526 2.45356C8.47447 1.80975 7.52553 1.80975 7.2474 2.45356L5.70129 5.99053L1.75011 6.31641C1.03023 6.37204 0.735736 7.24635 1.28383 7.70735L4.28606 10.2349L3.38621 13.9865C3.2226 14.67 3.98339 15.2105 4.6051 14.8449L8 12.8578Z" fill="#FF9900" stroke="#B35C1C"/>
</g>
<g clip-path="url(#clip1_1332_13961)">
<path d="M24 12.8578L27.3949 14.8528C28.0166 15.2184 28.7774 14.678 28.6138 13.9944L27.7139 10.2428L30.7162 7.7153C31.2643 7.2543 30.9698 6.37999 30.2499 6.32435L26.2987 5.99848L24.7526 2.45356C24.4745 1.80975 23.5255 1.80975 23.2474 2.45356L21.7013 5.99053L17.7501 6.31641C17.0302 6.37204 16.7357 7.24635 17.2838 7.70735L20.2861 10.2349L19.3862 13.9865C19.2226 14.67 19.9834 15.2105 20.6051 14.8449L24 12.8578Z" fill="#FF9900" stroke="#B35C1C"/>
</g>
<g clip-path="url(#clip2_1332_13961)">
<path d="M40 12.8578L43.3949 14.8528C44.0166 15.2184 44.7774 14.678 44.6138 13.9944L43.7139 10.2428L46.7162 7.7153C47.2643 7.2543 46.9698 6.37999 46.2499 6.32435L42.2987 5.99848L40.7526 2.45356C40.4745 1.80975 39.5255 1.80975 39.2474 2.45356L37.7013 5.99053L33.7501 6.31641C33.0302 6.37204 32.7357 7.24635 33.2838 7.70735L36.2861 10.2349L35.3862 13.9865C35.2226 14.67 35.9834 15.2105 36.6051 14.8449L40 12.8578Z" fill="#FF9900" stroke="#B35C1C"/>
</g>
<g clip-path="url(#clip3_1332_13961)">
<path d="M56 12.8578L59.3949 14.8528C60.0166 15.2184 60.7774 14.678 60.6138 13.9944L59.7139 10.2428L62.7162 7.7153C63.2643 7.2543 62.9698 6.37999 62.2499 6.32435L58.2987 5.99848L56.7526 2.45356C56.4745 1.80975 55.5255 1.80975 55.2474 2.45356L53.7013 5.99053L49.7501 6.31641C49.0302 6.37204 48.7357 7.24635 49.2838 7.70735L52.2861 10.2349L51.3862 13.9865C51.2226 14.67 51.9834 15.2105 52.6051 14.8449L56 12.8578Z" fill="#FF9900" stroke="#B35C1C"/>
</g>
<g clip-path="url(#clip4_1332_13961)">
<path d="M72 12.8578L75.3949 14.8528C76.0166 15.2184 76.7774 14.678 76.6138 13.9944L75.7139 10.2428L78.7162 7.7153C79.2643 7.2543 78.9698 6.37999 78.2499 6.32435L74.2987 5.99848L72.7526 2.45356C72.4745 1.80975 71.5255 1.80975 71.2474 2.45356L69.7013 5.99053L65.7501 6.31641C65.0302 6.37204 64.7357 7.24635 65.2838 7.70735L68.2861 10.2349L67.3862 13.9865C67.2226 14.67 67.9834 15.2105 68.6051 14.8449L72 12.8578Z" fill="#FF9900" stroke="#B35C1C"/>
</g>
<defs>
<clipPath id="clip0_1332_13961">
<rect width="16" height="15" fill="white" transform="translate(0 0.5)"/>
</clipPath>
<clipPath id="clip1_1332_13961">
<rect width="16" height="15" fill="white" transform="translate(16 0.5)"/>
</clipPath>
<clipPath id="clip2_1332_13961">
<rect width="16" height="15" fill="white" transform="translate(32 0.5)"/>
</clipPath>
<clipPath id="clip3_1332_13961">
<rect width="16" height="15" fill="white" transform="translate(48 0.5)"/>
</clipPath>
<clipPath id="clip4_1332_13961">
<rect width="16" height="15" fill="white" transform="translate(64 0.5)"/>
</clipPath>
</defs>
</svg>
