<svg width="28" height="28" viewBox="0 0 28 28" fill="none" xmlns="http://www.w3.org/2000/svg">
<path d="M8.84625 2.62873C8.89259 2.79481 8.9918 2.94125 9.12885 3.04587C9.26591 3.15048 9.43333 3.20756 9.60575 3.20846H13.4304C13.6034 3.20745 13.7714 3.14978 13.9085 3.04427C14.0457 2.93876 14.1445 2.79122 14.1899 2.62422C14.2324 2.46611 14.3858 1.90545 14.4281 1.75684H8.60803C8.65069 1.90143 8.80333 2.47228 8.84625 2.62873Z" fill="#282828"/>
<path d="M15.7584 14.2821H14.7787C14.2933 14.2818 13.8277 14.0892 13.484 13.7463C13.1403 13.4035 12.9465 12.9384 12.9451 12.4529C12.9447 10.9129 12.9453 9.04323 12.9451 7.51355C12.9465 7.02809 13.1403 6.563 13.484 6.22014C13.8277 5.87729 14.2933 5.68463 14.7787 5.68436C14.8974 5.69101 16.8121 5.6796 16.8821 5.68436V3.10937C16.8805 2.91732 16.8387 2.72773 16.7593 2.55286C16.6799 2.37799 16.5647 2.22175 16.421 2.09423C16.2774 1.96672 16.1086 1.87078 15.9256 1.81262C15.7426 1.75447 15.5493 1.73539 15.3585 1.75662L15.3001 1.98128L15.0574 2.86214C14.9597 3.21908 14.7477 3.53414 14.4538 3.75901C14.1599 3.98389 13.8004 4.10616 13.4304 4.10709H9.60573C9.23634 4.10622 8.87737 3.98452 8.58362 3.76054C8.28987 3.53657 8.07747 3.22263 7.97885 2.86665L7.73612 1.98128L7.67771 1.75658C7.48658 1.73519 7.29308 1.75413 7.10972 1.81218C6.92636 1.87023 6.75722 1.96609 6.61322 2.09358C6.46921 2.22106 6.35355 2.37734 6.2737 2.55231C6.19386 2.72728 6.1516 2.91705 6.14966 3.10937V10.7362C6.83133 10.9379 7.4196 11.3744 7.81032 11.9683C8.20103 12.5622 8.36897 13.2752 8.2844 13.9811C8.13013 14.473 8.56671 14.883 8.52708 15.3968C9.05758 15.7672 9.48825 16.263 9.78073 16.8401C10.0732 17.4172 10.2184 18.0577 10.2034 18.7045C11.4306 18.704 14.3422 18.7048 15.5337 18.7045C15.711 18.7043 15.8866 18.6691 16.0504 18.6009C16.2141 18.5328 16.3629 18.4331 16.4881 18.3075C16.6133 18.1819 16.7125 18.0328 16.7801 17.8688C16.8477 17.7048 16.8823 17.5292 16.882 17.3518V14.2821C16.7519 14.273 15.9105 14.2887 15.7584 14.2821ZM11.0934 8.1068H11.6462C11.7641 8.10882 11.8765 8.15705 11.9591 8.24112C12.0417 8.32518 12.088 8.43834 12.088 8.55622C12.088 8.67411 12.0417 8.78727 11.9591 8.87133C11.8765 8.9554 11.7641 9.00363 11.6462 9.00565H11.0934C10.9755 9.00363 10.8631 8.9554 10.7805 8.87133C10.6979 8.78727 10.6516 8.67411 10.6516 8.55622C10.6516 8.43834 10.6979 8.32518 10.7805 8.24112C10.8631 8.15705 10.9755 8.10882 11.0934 8.1068ZM10.1316 9.53148H11.6462C11.7641 9.53349 11.8765 9.58173 11.9591 9.66579C12.0417 9.74986 12.088 9.86302 12.088 9.9809C12.088 10.0988 12.0417 10.2119 11.9591 10.296C11.8765 10.3801 11.7641 10.4283 11.6462 10.4303H10.1316C10.0144 10.4273 9.90311 10.3786 9.82134 10.2946C9.73957 10.2107 9.69381 10.0982 9.69381 9.98099C9.69381 9.86381 9.73957 9.75126 9.82134 9.66733C9.90311 9.58339 10.0144 9.53454 10.1316 9.53148ZM8.67561 11.8597C8.55774 11.8577 8.44539 11.8094 8.36275 11.7254C8.28011 11.6413 8.2338 11.5281 8.2338 11.4103C8.2338 11.2924 8.28011 11.1792 8.36275 11.0951C8.44539 11.0111 8.55774 10.9628 8.67561 10.9608H11.6462C11.7641 10.9628 11.8765 11.0111 11.9591 11.0951C12.0417 11.1792 12.088 11.2924 12.088 11.4103C12.088 11.5281 12.0417 11.6413 11.9591 11.7254C11.8765 11.8094 11.7641 11.8577 11.6462 11.8597H8.67561ZM12.5856 16.3899H10.4507C10.3323 16.3887 10.2191 16.3409 10.1357 16.2567C10.0524 16.1726 10.0057 16.0589 10.0057 15.9405C10.0057 15.8221 10.0524 15.7084 10.1357 15.6242C10.2191 15.5401 10.3323 15.4922 10.4507 15.4911H12.5857C12.7041 15.4923 12.8173 15.5401 12.9006 15.6243C12.9839 15.7085 13.0306 15.8222 13.0306 15.9406C13.0305 16.059 12.9838 16.1727 12.9004 16.2568C12.8171 16.3409 12.7041 16.3888 12.5856 16.3899Z" fill="#282828"/>
<path d="M6.40137 21.1359C5.97306 20.9453 5.25272 20.6097 4.82839 20.4213C4.80154 20.409 4.77095 20.4078 4.74321 20.4179C4.71547 20.428 4.69279 20.4486 4.68007 20.4752C4.68007 20.4796 4.43367 21.0006 4.43739 21.0055L3.38569 23.3336C3.37884 23.3468 3.3748 23.3612 3.37383 23.376C3.37285 23.3908 3.37497 23.4057 3.38005 23.4196C3.38512 23.4335 3.39303 23.4463 3.40329 23.457C3.41355 23.4677 3.42593 23.4762 3.43963 23.4819L9.51589 26.2412C9.52945 26.2473 9.54407 26.2505 9.55891 26.2508C9.57374 26.2512 9.5885 26.2485 9.6023 26.2431C9.61611 26.2376 9.62869 26.2295 9.63932 26.2192C9.64995 26.2088 9.65841 26.1964 9.66421 26.1828L10.9585 23.329C10.9654 23.3158 10.9695 23.3014 10.9704 23.2865C10.9714 23.2717 10.9693 23.2569 10.9642 23.2429C10.9591 23.229 10.9512 23.2162 10.941 23.2055C10.9307 23.1948 10.9183 23.1863 10.9046 23.1806L6.40137 21.1359Z" fill="#282828"/>
<path d="M13.8438 9.10945V9.77909C13.8438 9.77909 20.5312 9.77909 21.0615 9.77909C21.1794 9.7811 21.2918 9.82934 21.3744 9.9134C21.457 9.99746 21.5033 10.1106 21.5033 10.2285C21.5033 10.3464 21.457 10.4596 21.3744 10.5436C21.2918 10.6277 21.1794 10.6759 21.0615 10.6779C20.4297 10.6782 14.239 10.6777 13.8438 10.6779V12.4532C13.8445 12.7005 13.9435 12.9373 14.1188 13.1117C14.2941 13.2861 14.5314 13.3838 14.7787 13.3833C16.7277 13.3864 21.6407 13.381 23.6953 13.3833C23.9418 13.3828 24.1781 13.2847 24.3525 13.1103C24.5268 12.936 24.625 12.6997 24.6255 12.4532V9.10945C24.5875 9.11146 14.234 9.10892 13.8438 9.10945Z" fill="#282828"/>
<path d="M23.6953 6.58363C22.1225 6.58363 16.2545 6.58333 14.7787 6.58363C14.5314 6.5832 14.294 6.68094 14.1188 6.85538C13.9435 7.02982 13.8446 7.26669 13.8439 7.51398V8.21056C14.8028 8.2096 23.6209 8.21126 24.6256 8.21056V7.51393C24.6251 7.26734 24.527 7.03099 24.3526 6.85663C24.1782 6.68227 23.9419 6.58411 23.6953 6.58363Z" fill="#282828"/>
<path d="M10.1181 19.6031L9.97177 20.2079L9.95716 20.2044C9.73942 20.1508 9.549 20.019 9.42216 19.8341C9.29533 19.6492 9.24094 19.4241 9.26937 19.2017C9.28977 19.0365 9.30155 18.8705 9.30467 18.7041C9.32157 18.121 9.16874 17.5456 8.86475 17.0477C8.56076 16.5499 8.1187 16.1511 7.5923 15.8997C7.65171 15.6463 7.64881 15.3823 7.58385 15.1303C7.5189 14.8782 7.39382 14.6457 7.21933 14.4526C7.3886 14.0956 7.44861 13.6965 7.39184 13.3055C7.33506 12.9145 7.16403 12.549 6.90022 12.2549C6.41971 11.6167 4.66735 10.9436 4.57215 12.183C4.60203 12.926 4.60851 13.6536 4.56318 14.4436C4.42756 16.8098 5.12699 18.3541 5.47112 19.7288C6.29774 20.0969 9.97339 21.7731 10.8911 22.1872C11.1852 21.7794 11.5658 21.4417 12.0057 21.1984C12.6837 20.8453 13.2327 20.2868 13.5742 19.6029L10.1181 19.6031Z" fill="#282828"/>
</svg>
