<svg width="15" height="24" viewBox="0 0 15 24" fill="none" xmlns="http://www.w3.org/2000/svg">
<g clip-path="url(#clip0_1102_14380)">
<path d="M8.50775 0.344301C8.50775 1.07544 8.12282 1.56287 7.38641 1.78917L6.66675 2.01548L7.38641 2.20697C8.12282 2.41586 8.50775 2.90329 8.50775 3.65184C8.50775 3.84333 8.59143 4 8.67512 4C8.77553 4 8.84248 3.84333 8.84248 3.65184C8.84248 2.9207 9.22742 2.41586 9.94708 2.22438L10.6667 2.01548L9.88014 1.75436C9.16047 1.49324 9.07679 1.4236 8.9429 0.727279C8.77553 -0.0212684 8.50775 -0.264982 8.50775 0.344301Z" fill="white"/>
<path d="M1.88462 5.55795C1.74286 6.00521 1.56566 6.20201 1.10495 6.34513C0.467045 6.55982 0.520204 6.64927 1.29987 6.84607C1.63654 6.91763 1.79602 7.09653 1.88462 7.49012C2.02638 8.16996 2.25673 8.16996 2.39849 7.49012C2.46937 7.06075 2.61113 6.91763 3.0364 6.84607C3.70975 6.70294 3.90466 6.41669 3.31991 6.41669C2.7706 6.41669 2.32761 5.98732 2.32761 5.41483C2.32761 4.80655 2.07954 4.87812 1.88462 5.55795Z" fill="white"/>
<path d="M6.38702 7.11262C5.70095 7.31331 4.86429 8.26658 4.73042 8.96899C4.68022 9.27003 4.64675 11.0762 4.68022 12.9828C4.73042 16.1604 4.76389 16.4781 5.08182 16.8962C5.70095 17.7324 6.21968 18 7.15675 18C8.14402 18 8.67948 17.699 9.29861 16.7959C9.65001 16.2607 9.66675 16.1102 9.66675 12.5312C9.66675 8.95227 9.65001 8.80175 9.29861 8.26658C8.56235 7.19624 7.49142 6.77814 6.38702 7.11262Z" fill="white"/>
<path d="M13.0425 7.525C12.947 7.8625 12.6986 8.125 12.2782 8.275L11.6667 8.5375L12.2018 8.66875C12.5648 8.74375 12.8324 8.9875 13.0043 9.4L13.2527 10L13.4056 9.45625C13.482 9.11875 13.7304 8.85625 14.0935 8.70625L14.6667 8.4625L14.1126 8.2375C13.7878 8.10625 13.4629 7.7875 13.3674 7.50625L13.1763 7L13.0425 7.525Z" fill="white"/>
<path d="M1.78381 14.1278C1.59507 14.2929 1.64655 16.2244 1.85244 17.1489C2.24707 18.9318 3.79127 20.3681 5.76441 20.7808L6.81104 20.9954V22.2831V23.5708L4.97516 23.6203C3.84274 23.6533 3.13927 23.7359 3.17359 23.8349C3.19075 23.934 4.66632 24 7.1542 24C9.64207 24 11.1176 23.934 11.152 23.8349C11.1691 23.7359 10.4656 23.6533 9.35039 23.6203L7.49735 23.5708V22.2666C7.49735 20.9624 7.49735 20.9459 7.97777 20.8634C10.4485 20.3681 11.5637 19.5427 12.3187 17.6442C12.7305 16.6206 12.7991 14.0123 12.4045 14.0123C12.2501 14.0123 12.1471 14.4085 12.0785 15.5311C11.9927 16.7527 11.8726 17.2314 11.4951 17.9578C10.6544 19.5262 9.21313 20.3186 7.1542 20.3186C5.23252 20.3186 3.77411 19.5757 2.91622 18.189C2.55591 17.5781 2.45296 17.1819 2.40149 16.0924C2.29854 14.1608 2.17844 13.7481 1.78381 14.1278Z" fill="white"/>
</g>
<defs>
<clipPath id="clip0_1102_14380">
<rect width="14" height="24" fill="white" transform="translate(0.666748)"/>
</clipPath>
</defs>
</svg>
