<svg width="28" height="28" viewBox="0 0 28 28" fill="none" xmlns="http://www.w3.org/2000/svg">
<path d="M23.5582 17.8426C23.5366 17.7692 23.4964 17.7026 23.4415 17.6493C23.3867 17.596 23.319 17.5577 23.245 17.5382C22.978 17.5023 19.6775 16.5273 19.5307 16.6251C19.5474 16.6124 16.1489 17.5168 16.0457 17.5382C15.9711 17.5563 15.9026 17.5941 15.8475 17.6476C15.7924 17.7012 15.7527 17.7685 15.7325 17.8426C15.5552 18.2089 14.7812 22.6659 17.1177 24.8125C17.7873 25.4724 18.6081 25.9585 19.5086 26.2285C19.596 26.2572 19.6902 26.2572 19.7776 26.2285C25.3271 24.4464 23.5759 17.9088 23.5582 17.8426ZM19.8306 24.4508C19.773 24.4792 19.7096 24.4939 19.6453 24.4939C19.5811 24.4939 19.5177 24.4792 19.4601 24.4508C16.9897 23.3127 16.9368 20.6923 17.1309 19.2322C17.1422 19.1456 17.1788 19.0643 17.2361 18.9984C17.2934 18.9325 17.3688 18.8849 17.4529 18.8616L19.5306 18.319C19.5463 18.2086 21.7403 18.858 21.8334 18.8616C21.9184 18.884 21.9949 18.9312 22.053 18.9972C22.1111 19.0632 22.1483 19.145 22.1598 19.2322C22.3495 20.6923 22.301 23.3127 19.8306 24.4508Z" fill="#282828"/>
<path d="M19.6453 19.2012L17.9734 19.6423C17.8632 20.8466 18.0087 22.6817 19.6453 23.5596C21.2819 22.6817 21.4231 20.8466 21.3172 19.6423L19.6453 19.2012Z" fill="#282828"/>
<path d="M9.90951 6.71734H14.3032C14.4973 6.71707 14.6834 6.63983 14.8207 6.50256C14.958 6.36528 15.0352 6.17918 15.0355 5.98505C15.0289 4.51782 15.2759 4.14258 13.5709 3.9603L13.5709 3.21032C13.5702 2.82292 13.4159 2.45161 13.1417 2.17791C12.8675 1.90421 12.496 1.75049 12.1086 1.75049C11.7211 1.75049 11.3496 1.90421 11.0754 2.17791C10.8012 2.45161 10.6469 2.82292 10.6462 3.21032V3.96026C10.0491 4.0572 9.18888 4.07423 9.17725 4.83814V5.98505C9.17826 6.17894 9.25573 6.36461 9.39284 6.50173C9.52994 6.63884 9.71561 6.71632 9.90951 6.71734ZM12.1064 2.41628C12.3269 2.41803 12.5379 2.50688 12.6932 2.66346C12.8485 2.82004 12.9357 3.03167 12.9357 3.25224C12.9357 3.47281 12.8485 3.68444 12.6932 3.84101C12.5378 3.99759 12.3269 4.08643 12.1063 4.08818C11.8859 4.08622 11.6752 3.99728 11.52 3.84072C11.3648 3.68417 11.2778 3.47265 11.2778 3.25222C11.2778 3.03179 11.3649 2.82028 11.52 2.66373C11.6752 2.50717 11.8859 2.41823 12.1064 2.41628Z" fill="#282828"/>
<path d="M14.8812 17.6042C14.9436 17.3818 15.0632 17.1797 15.2281 17.018C15.3929 16.8562 15.5973 16.7404 15.8208 16.6822L19.1646 15.8088C19.449 15.7087 19.7578 15.7009 20.0469 15.7867V6.74347C20.0467 6.17919 19.8228 5.63799 19.4242 5.23857C19.0256 4.83914 18.4849 4.6141 17.9206 4.61279H15.9046C15.9343 4.99623 15.9104 5.60174 15.9178 5.98472C15.9176 6.41286 15.7475 6.82341 15.4447 7.12615C15.142 7.4289 14.7314 7.59907 14.3033 7.59927H9.90956C9.48142 7.59906 9.07087 7.42889 8.76814 7.12615C8.4654 6.8234 8.29523 6.41286 8.29503 5.98472C8.30324 5.6117 8.27847 4.98897 8.30824 4.61283L6.29227 4.6128C5.72821 4.61485 5.18791 4.84013 4.78948 5.23939C4.39104 5.63866 4.16689 6.17943 4.16602 6.74348V22.6861C4.16707 23.2496 4.39142 23.7899 4.78994 24.1884C5.18846 24.5869 5.72867 24.8113 6.29227 24.8123H15.9266C15.716 24.5358 15.5315 24.2405 15.3752 23.93C13.9327 21.098 14.8679 17.6571 14.8812 17.6042ZM13.4122 10.352H17.6294C17.7453 10.3536 17.8559 10.4009 17.9372 10.4834C18.0186 10.566 18.0642 10.6772 18.0642 10.7931C18.0642 10.909 18.0186 11.0203 17.9372 11.1028C17.8559 11.1854 17.7453 11.2326 17.6294 11.2342H13.4122C13.2961 11.2327 13.1854 11.1856 13.1039 11.103C13.0224 11.0205 12.9767 10.9091 12.9767 10.7931C12.9767 10.6771 13.0224 10.5658 13.1039 10.4832C13.1854 10.4006 13.2961 10.3535 13.4122 10.352ZM10.2448 10.352H11.5153C11.6313 10.3535 11.742 10.4006 11.8235 10.4832C11.905 10.5658 11.9507 10.6771 11.9507 10.7931C11.9507 10.9091 11.905 11.0205 11.8235 11.103C11.742 11.1856 11.6313 11.2327 11.5153 11.2342H10.2448C10.1289 11.2326 10.0183 11.1854 9.93698 11.1028C9.85562 11.0203 9.81001 10.909 9.81001 10.7931C9.81001 10.6772 9.85562 10.566 9.93698 10.4834C10.0183 10.4009 10.1289 10.3536 10.2448 10.352ZM10.2448 15.125H15.9398C16.0557 15.1268 16.1662 15.174 16.2475 15.2566C16.3288 15.3391 16.3744 15.4503 16.3744 15.5662C16.3743 15.682 16.3288 15.7932 16.2475 15.8758C16.1662 15.9583 16.0557 16.0056 15.9398 16.0073H10.2448C10.1288 16.0058 10.0181 15.9586 9.93667 15.876C9.85521 15.7935 9.80953 15.6821 9.80953 15.5662C9.80953 15.4502 9.85521 15.3389 9.93667 15.2563C10.0181 15.1737 10.1288 15.1266 10.2448 15.125ZM9.09346 18.8879L7.9024 20.5951C7.86563 20.6477 7.81772 20.6916 7.76206 20.7236C7.70641 20.7557 7.64438 20.775 7.5804 20.7804C7.51587 20.7852 7.45105 20.7763 7.39022 20.7542C7.32938 20.7322 7.27391 20.6975 7.22747 20.6524L6.41579 19.8407C6.33615 19.7571 6.29246 19.6456 6.29408 19.5301C6.2957 19.4146 6.34251 19.3044 6.42445 19.223C6.5064 19.1417 6.61697 19.0956 6.73246 19.0948C6.84794 19.094 6.95914 19.1385 7.04221 19.2187L7.47891 19.6555L8.37 18.385C8.4375 18.2911 8.53921 18.2275 8.65318 18.2079C8.76716 18.1884 8.88426 18.2144 8.97921 18.2804C9.07417 18.3464 9.13937 18.4471 9.16074 18.5607C9.18212 18.6744 9.15795 18.7919 9.09346 18.8879ZM9.09346 14.1148L7.9024 15.8176C7.86586 15.871 7.81797 15.9158 7.76215 15.9486C7.70633 15.9814 7.64394 16.0015 7.57946 16.0074C7.51498 16.0133 7.45 16.0048 7.38915 15.9827C7.32829 15.9606 7.27308 15.9253 7.22745 15.8793L6.41578 15.0677C6.33559 14.9841 6.29144 14.8724 6.29282 14.7567C6.29421 14.6409 6.34104 14.5303 6.4232 14.4487C6.50537 14.3671 6.6163 14.3211 6.73209 14.3205C6.84787 14.32 6.95925 14.3649 7.0422 14.4457L7.4789 14.8824L8.37 13.6075C8.43858 13.5149 8.54061 13.4528 8.65436 13.4343C8.7681 13.4158 8.88456 13.4425 8.97891 13.5087C9.07325 13.5748 9.13803 13.6752 9.15943 13.7885C9.18083 13.9017 9.15716 14.0188 9.09346 14.1148ZM9.09346 9.33733L7.9024 11.0445C7.86564 11.0972 7.81773 11.1411 7.76207 11.1731C7.70642 11.2051 7.64439 11.2245 7.5804 11.2298C7.51573 11.2366 7.45034 11.2287 7.38919 11.2065C7.32805 11.1844 7.27275 11.1486 7.22747 11.1019L6.4158 10.2902C6.33612 10.2066 6.29238 10.095 6.29398 9.97953C6.29558 9.86403 6.34239 9.75376 6.42436 9.67237C6.50633 9.59098 6.61693 9.54496 6.73244 9.54419C6.84795 9.54341 6.95917 9.58794 7.04222 9.66822L7.47892 10.1049L8.37002 8.83446C8.43765 8.74088 8.5393 8.67758 8.65312 8.65818C8.76694 8.63879 8.88382 8.66484 8.97863 8.73075C9.07343 8.79665 9.13858 8.89713 9.16005 9.01057C9.18153 9.12402 9.15762 9.24134 9.09346 9.33733ZM13.6151 20.7848H10.2448C10.129 20.7831 10.0184 20.7358 9.93708 20.6533C9.85575 20.5707 9.81017 20.4595 9.81017 20.3436C9.81017 20.2277 9.85576 20.1165 9.9371 20.034C10.0184 19.9514 10.129 19.9042 10.2448 19.9025H13.6151C13.7309 19.9043 13.8414 19.9516 13.9226 20.0341C14.0039 20.1166 14.0495 20.2278 14.0495 20.3436C14.0495 20.4595 14.0039 20.5707 13.9226 20.6532C13.8414 20.7357 13.7309 20.783 13.6151 20.7848Z" fill="#282828"/>
</svg>
