<svg width="24" height="26" viewBox="0 0 24 26" fill="none" xmlns="http://www.w3.org/2000/svg">
<mask id="mask0_2808_526" style="mask-type:luminance" maskUnits="userSpaceOnUse" x="0" y="0" width="24" height="26">
<path d="M0.3125 0.489746H23.3125V25.4897H0.3125V0.489746Z" fill="white"/>
</mask>
<g mask="url(#mask0_2808_526)">
<path d="M22.7917 17.1408C22.5522 17.1408 22.3595 17.3335 22.3595 17.5731V21.9897C22.3595 23.4429 21.1667 24.6304 19.7032 24.6304H12.3959C10.9324 24.6304 9.73967 23.4429 9.73967 21.9897V21.5835C10.349 21.5106 10.823 21.0002 10.823 20.3752V19.8022C14.9897 19.0835 18.172 15.4741 18.172 11.1304V7.8335C18.172 7.21891 17.6667 6.71891 17.0522 6.71891H14.8647V1.78662C14.8647 1.07308 14.2813 0.489746 13.5626 0.489746C12.8438 0.489746 12.2605 1.07308 12.2605 1.78662V6.71891H6.35946V1.78662C6.35425 1.07308 5.77092 0.489746 5.05217 0.489746C4.33342 0.489746 3.75008 1.07308 3.75008 1.78662V6.71891H1.56258C0.947999 6.71891 0.447998 7.21891 0.447998 7.8335V11.1304C0.447998 15.4741 3.62508 19.0835 7.79696 19.8022V20.3752C7.79696 21.0002 8.26571 21.5106 8.87508 21.5835V21.9845C8.87508 23.9168 10.4532 25.4897 12.3959 25.4897H19.7032C21.6459 25.4897 23.2292 23.9168 23.2292 21.9845V17.5731C23.2292 17.3335 23.0313 17.1408 22.7917 17.1408ZM13.1251 1.78662C13.1251 1.54704 13.323 1.35433 13.5626 1.35433C13.8022 1.35433 13.9949 1.54704 13.9949 1.78662V6.71891H13.1251V1.78662ZM4.61987 1.78662C4.61987 1.54704 4.81258 1.35433 5.05217 1.35433C5.29175 1.35433 5.48967 1.54704 5.48967 1.78662V6.71891H4.61987V1.78662ZM1.31258 11.1304V7.8335C1.31258 7.69287 1.42716 7.5835 1.56258 7.5835H17.0522C17.1876 7.5835 17.3022 7.69287 17.3022 7.8335V11.1304C17.3022 15.5106 13.7136 19.0783 9.30737 19.0783C4.90112 19.0783 1.31258 15.5106 1.31258 11.1304ZM8.66154 20.3752V19.9064C8.87508 19.922 9.08862 19.9377 9.30737 19.9377C9.52612 19.9377 9.73967 19.922 9.95321 19.9064V20.3752C9.95321 20.5731 9.79175 20.7345 9.59383 20.7345H9.02092C8.823 20.7345 8.66154 20.5731 8.66154 20.3752Z" fill="black"/>
</g>
</svg>
