<svg width="24" height="24" viewBox="0 0 24 24" fill="none" xmlns="http://www.w3.org/2000/svg">
<g clip-path="url(#clip0_1287_11321)">
<path d="M21.707 20.293L16.314 14.9C17.409 13.5016 18.0028 11.7761 18 10C18.0028 8.94907 17.7971 7.90802 17.3947 6.93715C16.9924 5.96628 16.4014 5.08488 15.656 4.344C14.9153 3.59841 14.0339 3.00729 13.063 2.60492C12.0921 2.20255 11.051 1.99694 10 2C8.94905 1.99694 7.90792 2.20255 6.93701 2.60492C5.96611 3.00729 5.08474 3.59841 4.34403 4.344C3.59866 5.08488 3.00769 5.96628 2.60533 6.93715C2.20298 7.90802 1.99724 8.94907 2.00003 10C2.00003 12.137 2.83303 14.146 4.34403 15.656C5.08474 16.4016 5.96611 16.9927 6.93701 17.3951C7.90792 17.7975 8.94905 18.0031 10 18C11.7762 18.0032 13.5019 17.4094 14.9 16.314L20.293 21.706L21.707 20.293ZM10 16C9.2119 16.0022 8.43116 15.8481 7.70301 15.5465C6.97487 15.2449 6.31378 14.8018 5.75803 14.243C5.19885 13.6873 4.75553 13.026 4.45375 12.2977C4.15198 11.5694 3.99776 10.7884 4.00003 10C4.00003 8.398 4.62403 6.891 5.75803 5.758C6.3136 5.19885 6.97463 4.75554 7.7028 4.45377C8.43097 4.15199 9.2118 3.99776 10 4C11.603 4 13.109 4.624 14.242 5.758C14.8011 6.3136 15.2444 6.97464 15.5462 7.70281C15.848 8.43097 16.0022 9.21179 16 10C16 11.603 15.376 13.11 14.242 14.243C13.6863 14.8018 13.0252 15.2449 12.297 15.5465C11.5689 15.8481 10.7882 16.0022 10 16Z" fill="#282828"/>
</g>
<defs>
<clipPath id="clip0_1287_11321">
<rect width="24" height="24" fill="white"/>
</clipPath>
</defs>
</svg>
