<svg width="16" height="16" viewBox="0 0 16 16" fill="none" xmlns="http://www.w3.org/2000/svg">
<g clip-path="url(#clip0_2162_455)">
<path d="M7.99999 0.0666504C6.51082 0.0666504 5.05508 0.508243 3.81688 1.33558C2.57868 2.16292 1.61361 3.33886 1.04373 4.71468C0.473843 6.0905 0.324736 7.60441 0.61526 9.06497C0.905784 10.5256 1.62289 11.8671 2.6759 12.9202C3.72891 13.9732 5.07052 14.6903 6.53108 14.9808C7.99164 15.2714 9.50556 15.1222 10.8814 14.5523C12.2572 13.9824 13.4331 13.0174 14.2605 11.7792C15.0878 10.541 15.5294 9.08524 15.5294 7.59606C15.5294 5.59914 14.7361 3.68401 13.3241 2.27197C11.9121 0.859925 9.99689 0.0666504 7.99999 0.0666504ZM6.92437 10.6025L4.23529 7.91337L5.09041 7.05825L6.92437 8.89219L10.9095 4.90699L11.7679 5.75996L6.92437 10.6025Z" fill="#73CA55"/>
</g>
<defs>
<clipPath id="clip0_2162_455">
<rect width="15.0588" height="16" fill="white" transform="translate(0.470581)"/>
</clipPath>
</defs>
</svg>
