<svg width="121" height="25" viewBox="0 0 121 25" fill="none" xmlns="http://www.w3.org/2000/svg">
<path d="M11.0807 3.05076C11.3733 2.11552 12.6969 2.11552 12.9895 3.05076L14.5177 7.93585C14.6483 8.35318 15.0349 8.63729 15.4721 8.63729H20.4959C21.4554 8.63729 21.8641 9.85755 21.0982 10.4355L16.9695 13.551C16.6323 13.8056 16.4913 14.2446 16.6175 14.6478L18.179 19.6392C18.4693 20.5673 17.3984 21.3218 16.6222 20.736L12.6375 17.7291C12.281 17.4601 11.7893 17.4601 11.4328 17.7291L7.448 20.736C6.67182 21.3218 5.60094 20.5673 5.89126 19.6392L7.45275 14.6478C7.57891 14.2446 7.43799 13.8056 7.10072 13.551L2.97204 10.4355C2.20612 9.85755 2.61487 8.63729 3.5744 8.63729H8.59811C9.03539 8.63729 9.42195 8.35318 9.5525 7.93585L11.0807 3.05076Z" fill="#F0C862"/>
<path d="M35.1509 3.05076C35.4435 2.11552 36.7671 2.11552 37.0597 3.05076L38.5879 7.93585C38.7185 8.35318 39.1051 8.63729 39.5423 8.63729H44.566C45.5256 8.63729 45.9343 9.85755 45.1684 10.4355L41.0397 13.551C40.7024 13.8056 40.5615 14.2446 40.6877 14.6478L42.2492 19.6392C42.5395 20.5673 41.4686 21.3218 40.6924 20.736L36.7077 17.7291C36.3512 17.4601 35.8595 17.4601 35.503 17.7291L31.5182 20.736C30.742 21.3218 29.6711 20.5673 29.9615 19.6392L31.5229 14.6478C31.6491 14.2446 31.5082 13.8056 31.1709 13.551L27.0422 10.4355C26.2763 9.85755 26.6851 8.63729 27.6446 8.63729H32.6683C33.1056 8.63729 33.4921 8.35318 33.6227 7.93585L35.1509 3.05076Z" fill="#F0C862"/>
<path d="M59.2212 3.05076C59.5138 2.11552 60.8374 2.11552 61.13 3.05076L62.6582 7.93585C62.7888 8.35318 63.1754 8.63729 63.6126 8.63729H68.6364C69.5959 8.63729 70.0046 9.85755 69.2387 10.4355L65.11 13.551C64.7728 13.8056 64.6318 14.2446 64.758 14.6478L66.3195 19.6392C66.6098 20.5673 65.5389 21.3218 64.7627 20.736L60.778 17.7291C60.4215 17.4601 59.9298 17.4601 59.5733 17.7291L55.5885 20.736C54.8123 21.3218 53.7414 20.5673 54.0318 19.6392L55.5933 14.6478C55.7194 14.2446 55.5785 13.8056 55.2412 13.551L51.1125 10.4355C50.3466 9.85755 50.7554 8.63729 51.7149 8.63729H56.7386C57.1759 8.63729 57.5625 8.35318 57.693 7.93585L59.2212 3.05076Z" fill="#F0C862"/>
<path d="M83.2914 3.05076C83.584 2.11552 84.9076 2.11552 85.2002 3.05076L86.7284 7.93585C86.859 8.35318 87.2456 8.63729 87.6828 8.63729H92.7065C93.6661 8.63729 94.0748 9.85755 93.3089 10.4355L89.1802 13.551C88.8429 13.8056 88.702 14.2446 88.8282 14.6478L90.3897 19.6392C90.68 20.5673 89.6091 21.3218 88.8329 20.736L84.8482 17.7291C84.4917 17.4601 84 17.4601 83.6435 17.7291L79.6587 20.736C78.8825 21.3218 77.8116 20.5673 78.102 19.6392L79.6634 14.6478C79.7896 14.2446 79.6487 13.8056 79.3114 13.551L75.1827 10.4355C74.4168 9.85755 74.8256 8.63729 75.7851 8.63729H80.8088C81.2461 8.63729 81.6326 8.35318 81.7632 7.93585L83.2914 3.05076Z" fill="#F0C862"/>
<path d="M107.362 3.05076C107.654 2.11552 108.978 2.11552 109.271 3.05076L110.799 7.93585C110.929 8.35318 111.316 8.63729 111.753 8.63729H116.777C117.736 8.63729 118.145 9.85755 117.379 10.4355L113.251 13.551C112.913 13.8056 112.772 14.2446 112.899 14.6478L114.46 19.6392C114.75 20.5673 113.679 21.3218 112.903 20.736L108.918 17.7291C108.562 17.4601 108.07 17.4601 107.714 17.7291L103.729 20.736C102.953 21.3218 101.882 20.5673 102.172 19.6392L103.734 14.6478C103.86 14.2446 103.719 13.8056 103.382 13.551L99.2531 10.4355C98.4871 9.85755 98.8959 8.63729 99.8554 8.63729H104.879C105.316 8.63729 105.703 8.35318 105.834 7.93585L107.362 3.05076Z" fill="#F0C862"/>
</svg>
