<svg width="28" height="28" viewBox="0 0 28 28" fill="none" xmlns="http://www.w3.org/2000/svg">
<path d="M8.07508 4.56027V3.06981C8.07442 2.84085 7.98317 2.62146 7.82127 2.45956C7.65937 2.29766 7.43998 2.20641 7.21102 2.20575H3.90605C3.79258 2.20572 3.6802 2.22804 3.57535 2.27145C3.4705 2.31486 3.37524 2.37851 3.29499 2.45875C3.21475 2.53899 3.15111 2.63426 3.1077 2.73911C3.06428 2.84396 3.04196 2.95633 3.04199 3.06981V4.56027C3.59751 4.55993 8.07508 4.56027 8.07508 4.56027ZM5.79399 3.1735C5.79575 3.06904 5.83523 2.96874 5.90515 2.89111C5.97507 2.81349 6.07071 2.76377 6.17442 2.75114C6.27812 2.73851 6.3829 2.76382 6.46941 2.82239C6.55591 2.88097 6.61832 2.96886 6.64509 3.06984C6.65998 3.24365 6.6643 3.41821 6.65805 3.59254C6.65669 3.70623 6.61058 3.81481 6.52971 3.89472C6.44883 3.97464 6.33972 4.01946 6.22602 4.01946C6.11232 4.01946 6.0032 3.97464 5.92233 3.89472C5.84145 3.81481 5.79534 3.70623 5.79399 3.59254L5.79399 3.1735ZM4.45906 3.1735C4.46089 3.06909 4.50041 2.96886 4.57032 2.89129C4.64024 2.81372 4.73584 2.76405 4.8395 2.75142C4.94316 2.7388 5.04789 2.76407 5.13438 2.82259C5.22087 2.88111 5.28329 2.96892 5.31013 3.06984C5.32505 3.24365 5.32938 3.41821 5.32311 3.59254C5.32167 3.70617 5.27551 3.81466 5.19465 3.8945C5.11378 3.97434 5.00472 4.01911 4.89108 4.01911C4.77744 4.01911 4.66838 3.97434 4.58752 3.8945C4.50665 3.81466 4.4605 3.70617 4.45905 3.59254L4.45906 3.1735Z" fill="#182028"/>
<path d="M22.7679 11.6239H19.4024C18.8453 11.6255 18.3115 11.8478 17.918 12.2421C17.5245 12.6365 17.3032 13.1707 17.3028 13.7278V13.9093H16.4387C15.1866 13.91 13.986 14.4077 13.1006 15.2931C12.2152 16.1785 11.7175 17.3791 11.7168 18.6313V22.0658C11.5723 25.8545 6.1364 25.8634 5.98814 22.0658V11.6109H6.77442C7.46106 11.6106 8.11955 11.338 8.60548 10.8529C9.09141 10.3678 9.36511 9.70972 9.36655 9.02309V6.28838C9.36659 6.1749 9.34426 6.06253 9.30085 5.95768C9.25744 5.85283 9.19379 5.75756 9.11355 5.67732C9.03331 5.59708 8.93804 5.53343 8.83319 5.49002C8.72835 5.44661 8.61597 5.42428 8.50249 5.42432H2.61406C2.50058 5.42428 2.38821 5.44661 2.28336 5.49002C2.17851 5.53344 2.08325 5.59708 2.00301 5.67732C1.92276 5.75756 1.85912 5.85283 1.81571 5.95768C1.7723 6.06253 1.74997 6.1749 1.75 6.28838V9.02309C1.7512 9.70905 2.02423 10.3666 2.50928 10.8516C2.99433 11.3367 3.65185 11.6097 4.33781 11.6109H5.1241V22.0658C5.12712 23.0527 5.52126 23.9981 6.22014 24.6948C6.91901 25.3915 7.86561 25.7828 8.85245 25.7828C9.8393 25.7828 10.7859 25.3915 11.4848 24.6948C12.1836 23.9981 12.5778 23.0527 12.5808 22.0658V18.6313C12.5816 17.6083 12.9883 16.6275 13.7117 15.9041C14.435 15.1808 15.4158 14.7741 16.4388 14.7733H17.3028C17.28 15.0636 17.3172 15.3555 17.4122 15.6308C17.5072 15.9061 17.6579 16.1588 17.8549 16.3733C18.0519 16.5877 18.291 16.7593 18.5573 16.8772C18.8235 16.9951 19.1113 17.0569 19.4025 17.0587H22.7679C22.8957 17.0557 23.0214 17.0254 23.1365 16.9698C23.2517 16.9143 23.3536 16.8347 23.4354 16.7365C23.5173 16.6383 23.5771 16.5237 23.611 16.4004C23.6449 16.2772 23.6521 16.1481 23.6319 16.0218L23.632 12.665C23.6525 12.5385 23.6458 12.409 23.6121 12.2853C23.5784 12.1616 23.5187 12.0465 23.4368 11.9479C23.3549 11.8492 23.2528 11.7693 23.1375 11.7134C23.0221 11.6575 22.8961 11.627 22.7679 11.6239ZM4.21253 7.15242C4.29434 7.07519 4.40245 7.03195 4.51495 7.03147H6.59728C6.71053 7.03348 6.81847 7.07988 6.89785 7.16068C6.97723 7.24148 7.02171 7.35022 7.02171 7.46349C7.02171 7.57676 6.97723 7.68551 6.89785 7.76631C6.81847 7.84711 6.71053 7.89351 6.59728 7.89551H4.51495C4.42961 7.89384 4.34662 7.86718 4.27627 7.81884C4.20591 7.7705 4.15126 7.7026 4.11909 7.62354C4.08691 7.54447 4.07861 7.45771 4.09522 7.37398C4.11183 7.29025 4.15261 7.21322 4.21253 7.15242ZM4.51495 9.20453C4.40132 9.20308 4.29284 9.15692 4.213 9.07606C4.13316 8.99519 4.08839 8.88613 4.0884 8.77249C4.0884 8.65885 4.13317 8.54979 4.21301 8.46893C4.29286 8.38806 4.40134 8.34191 4.51497 8.34047H6.59728C6.71103 8.34172 6.81971 8.38779 6.8997 8.46868C6.9797 8.54956 7.02457 8.65874 7.02457 8.7725C7.02457 8.88626 6.9797 8.99544 6.8997 9.07632C6.81971 9.15721 6.71103 9.20328 6.59728 9.20453H4.51495ZM22.7679 14.8036C22.7664 14.9171 22.7202 15.0255 22.6393 15.1053C22.5584 15.1851 22.4494 15.2298 22.3358 15.2298C22.2223 15.2298 22.1133 15.185 22.0324 15.1053C21.9515 15.0255 21.9054 14.9171 21.9038 14.8035V13.8833C21.9053 13.7697 21.9515 13.6613 22.0323 13.5815C22.1132 13.5017 22.2222 13.457 22.3358 13.457C22.4495 13.457 22.5585 13.5017 22.6393 13.5815C22.7202 13.6613 22.7664 13.7697 22.7679 13.8833L22.7679 14.8036Z" fill="#182028"/>
<path d="M25.3857 12.665H24.4958C24.4958 12.665 24.4943 15.4768 24.4958 16.0219H25.3295C25.5735 16.0217 25.8075 15.9246 25.98 15.7521C26.1525 15.5796 26.2496 15.3456 26.2498 15.1017V13.5291C26.2502 13.4155 26.2281 13.303 26.1848 13.198C26.1415 13.093 26.0779 12.9975 25.9976 12.9172C25.9172 12.8369 25.8218 12.7733 25.7168 12.73C25.6118 12.6867 25.4993 12.6646 25.3857 12.665Z" fill="#182028"/>
</svg>
