<svg width="23" height="23" viewBox="0 0 23 23" fill="none" xmlns="http://www.w3.org/2000/svg">
<rect x="0.5" y="0.5" width="22" height="22" rx="11" fill="white"/>
<g clip-path="url(#clip0_1084_266)">
<path d="M18.8988 11.7729C18.8988 11.2438 18.8449 10.7147 18.791 10.1855H12.0527V13.184H15.8801C15.7184 14.1247 15.2332 15.0065 14.4785 15.5357V17.4758H16.7965C18.1441 16.1236 18.8988 14.1247 18.8988 11.7729Z" fill="#4285F4"/>
<path d="M12.0533 19.3572C13.9939 19.3572 15.6111 18.6517 16.7971 17.4759L14.4791 15.5357C13.8322 16.006 13.0236 16.3 12.0533 16.3C10.2205 16.3 8.60332 14.9478 8.06426 13.0664H5.69238V15.0654C6.93223 17.711 9.35801 19.3572 12.0533 19.3572Z" fill="#34A853"/>
<path d="M8.06387 13.0664C7.74043 12.1257 7.74043 11.0675 8.06387 10.068V8.06903H5.69199C4.66777 10.2444 4.66777 12.8312 5.69199 15.0654L8.06387 13.0664Z" fill="#FBBC04"/>
<path d="M12.0531 6.89321C13.0773 6.89321 14.0477 7.30475 14.8023 8.06906L16.8508 5.83494C15.557 4.5415 13.832 3.7772 12.107 3.83599C9.41172 3.83599 6.93203 5.48218 5.74609 8.12785L8.11797 10.1268C8.60313 8.24544 10.2203 6.89321 12.0531 6.89321Z" fill="#EA4335"/>
</g>
<defs>
<clipPath id="clip0_1084_266">
<rect width="15" height="16" fill="white" transform="translate(4 3.5)"/>
</clipPath>
</defs>
</svg>
