<svg width="24" height="20" viewBox="0 0 24 20" fill="none" xmlns="http://www.w3.org/2000/svg">
<g clip-path="url(#clip0_795_7839)">
<path d="M0.660674 0.256985C0.445342 0.402235 0.218676 0.681564 0.139343 0.893856C0.0373437 1.18436 0.0033439 3.56425 0.0033439 10.0335C-0.00798938 19.676 -0.0306559 19.3408 0.694674 19.7765C1.05734 19.9888 1.25 20 5.40932 20C10.2146 20 10.2373 20 10.5773 19.2849C10.736 18.9385 10.7586 18.0112 10.7586 9.92179C10.7586 1.24022 10.7473 0.938547 10.5433 0.625698C10.124 0 10.1466 0.0111732 5.42065 0C1.04601 0 1.04601 0 0.660674 0.256985ZM9.93129 0.715084L10.2486 0.98324L10.2826 9.91061C10.3053 16.4134 10.2713 18.8939 10.1806 19.0615C9.93129 19.5307 9.68196 19.5531 5.32998 19.5531C1.30667 19.5531 1.15934 19.5419 0.921339 19.3296C0.78534 19.2067 0.649341 18.9832 0.626674 18.8492C0.592674 18.7151 0.547341 14.7039 0.513341 9.94413C0.468008 2.89386 0.479341 1.24022 0.604007 1.01676C0.910006 0.469275 1.01201 0.458101 5.45465 0.446928H9.61396L9.93129 0.715084Z" fill="#282828"/>
<path d="M3.3887 1.73958C3.24483 1.875 3.31123 2.375 3.4883 2.4375C3.58791 2.46875 4.27406 2.5 5.02661 2.5C6.50959 2.5 6.71986 2.42708 6.58706 1.92708L6.52066 1.66667H4.98235C4.14126 1.66667 3.4219 1.69792 3.3887 1.73958Z" fill="#282828"/>
<path d="M13.6831 0.435511L13.2413 0.871021V9.99442V19.1178L13.6831 19.5645L14.1248 20L18.6554 19.9665L23.186 19.933L23.4805 19.665C23.6391 19.5087 23.8203 19.2071 23.8883 18.995C24.0582 18.3808 24.0242 1.39587 23.8543 0.893354C23.775 0.681183 23.5485 0.40201 23.3333 0.25684C22.9482 0 22.9482 0 18.5308 0H14.1248L13.6831 0.435511ZM22.8575 0.569513C23.0501 0.636515 23.2653 0.781687 23.3219 0.893354C23.3899 1.02736 23.4352 4.42211 23.4352 10.0391C23.4352 18.794 23.4352 18.9838 23.2087 19.2071C23.0841 19.33 22.8689 19.4528 22.7329 19.4863C22.5857 19.5198 20.6262 19.5422 18.3722 19.5198C14.272 19.4863 14.272 19.4863 14.0115 19.2295L13.751 18.9726L13.7284 10.1284C13.6944 0.647682 13.6831 0.882189 14.2607 0.591848C14.6345 0.40201 22.3139 0.390842 22.8575 0.569513Z" fill="#282828"/>
<path d="M18.259 1.87094C18.0893 2.20671 18.3559 2.55492 18.7437 2.49274C18.9739 2.46787 19.0345 2.38081 19.0345 2.08235C19.0345 1.77145 18.986 1.69683 18.7073 1.67196C18.4892 1.64709 18.3438 1.70927 18.259 1.87094Z" fill="#282828"/>
</g>
<defs>
<clipPath id="clip0_795_7839">
<rect width="24" height="20" fill="white"/>
</clipPath>
</defs>
</svg>
