<svg width="25" height="24" viewBox="0 0 25 24" fill="none" xmlns="http://www.w3.org/2000/svg">
<path d="M21.644 9.00005H19.388L18.788 7.44005C18.164 5.83205 16.604 4.80005 14.876 4.80005H10.124C8.39601 4.80005 6.86001 5.83205 6.21201 7.44005L5.58801 9.00005H3.33201C3.09201 9.00005 2.87601 9.19205 2.87601 9.45605C2.87601 9.48005 2.87601 9.52805 2.90001 9.55205L3.11601 10.464C3.16401 10.656 3.35601 10.8 3.54801 10.8H4.34001C3.81201 11.256 3.50001 11.904 3.50001 12.6V14.4C3.50001 14.976 3.71601 15.528 4.10001 15.984V18C4.10001 18.672 4.62801 19.2 5.30001 19.2H6.50001C7.17201 19.2 7.70001 18.672 7.70001 18V16.8H17.3V18C17.3 18.672 17.828 19.2 18.5 19.2H19.7C20.372 19.2 20.9 18.672 20.9 18V15.96C21.284 15.528 21.5 14.976 21.5 14.376V12.576C21.5 11.88 21.188 11.232 20.66 10.776H21.404C21.62 10.776 21.788 10.632 21.836 10.44L22.052 9.52805C22.1 9.28805 21.956 9.04805 21.716 8.97605C21.716 9.00005 21.692 9.00005 21.644 9.00005ZM8.44401 8.32805C8.70801 7.63205 9.38001 7.20005 10.124 7.20005H14.876C15.62 7.20005 16.292 7.65605 16.556 8.32805L17.3 10.2H7.70001L8.44401 8.32805ZM6.50001 14.4C5.87601 14.448 5.34801 13.968 5.30001 13.344C5.30001 13.296 5.30001 13.248 5.30001 13.2C5.25201 12.576 5.73201 12.048 6.35601 12H6.50001C7.22001 12 8.30001 13.08 8.30001 13.8C8.30001 14.52 7.22001 14.4 6.50001 14.4ZM18.5 14.4C17.78 14.4 16.7 14.52 16.7 13.8C16.7 13.08 17.78 12 18.5 12C19.124 11.952 19.652 12.432 19.7 13.056V13.2C19.748 13.824 19.268 14.352 18.644 14.4C18.596 14.4 18.548 14.4 18.5 14.4Z" fill="#0B0B0B"/>
</svg>
