<svg width="30" height="16" viewBox="0 0 30 16" fill="none" xmlns="http://www.w3.org/2000/svg">
<g clip-path="url(#clip0_795_7809)">
<path d="M3.41689 0.187543C1.79218 0.913177 0.811989 2.86093 0.261468 6.39999C-0.047361 8.47504 -0.087643 9.55713 0.167476 9.48075C0.261468 9.44256 0.422596 8.88242 0.556869 8.10586C0.852271 6.37453 1.22824 5.26698 1.88618 4.05759C2.8798 2.28806 3.75258 1.51151 4.57164 1.677C5.13559 1.79158 5.86067 2.4281 6.23663 3.12827L6.54546 3.71387L6.23663 4.98691C5.83381 6.68006 5.56527 9.23887 5.75325 9.4171C6.00837 9.65897 6.11579 9.36617 6.27691 8.15678C6.4649 6.83282 6.96171 5.11421 7.13626 5.27971C7.2034 5.34336 7.55251 6.54002 7.91505 7.9531C8.90867 11.7213 9.55318 13.0453 11.0973 14.5475C12.9234 16.317 14.6556 16.4697 16.2669 15.0057L16.7637 14.5602L17.3276 15.0312C18.8315 16.3297 20.6039 16.317 21.9332 15.0057L22.4569 14.4838L23.0745 14.9803C23.9876 15.6932 24.7126 15.9987 25.5183 15.9987C26.8207 15.9987 28.0292 15.1331 28.7946 13.6563C29.5868 12.1159 30.3656 7.40569 29.815 7.40569C29.6942 7.40569 29.5196 7.7876 29.3182 8.48777C28.5797 11.1612 27.4384 13.2362 26.4045 13.8346C25.7063 14.2419 25.102 14.1655 24.5381 13.6181C23.9876 13.0707 23.625 12.4469 23.625 12.0396C23.625 11.8995 23.7459 11.1866 23.8802 10.4737C24.2695 8.5387 24.3233 7.81306 24.1084 7.52026C23.9204 7.29112 23.907 7.29112 23.7727 7.59665C23.7056 7.77487 23.5042 8.3732 23.3565 8.93334C23.0611 9.98996 22.8865 10.3846 22.7523 10.2573C22.712 10.2191 22.4703 9.39163 22.2017 8.41139C21.1678 4.57954 20.389 2.87366 19.1 1.65154C18.2675 0.849524 17.0993 0.187543 16.2534 0.0347776C15.4612 -0.105257 14.763 0.174812 13.9842 0.925907L13.2726 1.62608L12.7489 1.18052C11.057 -0.270752 9.13694 -0.321674 7.9419 1.05321L7.53908 1.51151L6.89457 1.06594C5.36386 0.0347776 4.32995 -0.219831 3.41689 0.187543ZM10.9496 1.95707C11.9164 2.5554 13.0309 5.10148 13.7694 8.41139C14.1453 10.0918 14.2796 10.4737 15.0718 12.0778C15.6089 13.1853 15.6089 13.198 15.3538 13.4654C14.9778 13.86 14.4407 14.0892 13.8902 14.0892C13.5008 14.0892 13.2994 14 12.9906 13.6818C12.1178 12.7907 11.2047 10.6138 10.332 7.32931C9.88887 5.68708 9.48605 4.59227 8.84154 3.38288L8.46557 2.66997L8.82811 2.33898C9.63375 1.61335 10.2246 1.49878 10.9496 1.95707ZM17.0859 2.22441C17.9453 3.0137 18.8046 5.0251 19.4088 7.71122C19.7848 9.3789 20.3353 10.9957 20.9396 12.2687L21.3558 13.1344L20.8187 13.6054C20.389 14 20.1742 14.0892 19.7445 14.0892C18.4421 14.0892 17.529 12.4469 16.1729 7.76214C15.4746 5.34336 15.2061 4.605 14.6287 3.53564L14.2393 2.78455L14.6153 2.3899C15.0987 1.89342 15.7969 1.60062 16.24 1.68973C16.428 1.72792 16.8039 1.9698 17.0859 2.22441Z" fill="#282828"/>
</g>
<defs>
<clipPath id="clip0_795_7809">
<rect width="30" height="16" fill="white"/>
</clipPath>
</defs>
</svg>
