<svg width="28" height="28" viewBox="0 0 28 28" fill="none" xmlns="http://www.w3.org/2000/svg">
<g clip-path="url(#clip0_1036_422)">
<path d="M22.658 0.331791H20.6758C20.6758 0.679275 20.7363 1.01276 20.8462 1.32289C20.9772 1.69203 21.1789 2.02798 21.4353 2.31399C21.5082 2.39531 21.5855 2.47264 21.6669 2.5456C21.953 2.80203 22.2888 3.00366 22.658 3.13463C22.9682 3.24467 23.3017 3.3051 23.6491 3.3051V1.32284C23.6491 0.775525 23.2054 0.331791 22.658 0.331791Z" fill="#96C140"/>
<path d="M8.43175 11.1236C8.30072 10.7544 8.09914 10.4186 7.84271 10.1325C7.76976 10.0512 7.69254 9.97385 7.61111 9.9009C7.32504 9.64447 6.9892 9.44284 6.62001 9.31186C6.30982 9.20183 5.97634 9.1414 5.62891 9.1414V11.1236C5.62891 11.671 6.07264 12.1147 6.62001 12.1147H8.60221C8.60221 11.7673 8.54173 11.4338 8.43175 11.1236Z" fill="#96C140"/>
<path d="M22.6576 5.18749C22.3127 5.11728 21.9814 5.0102 21.6665 4.87228C20.5256 4.37221 19.6083 3.45494 19.1082 2.31399C18.9702 1.9991 18.8632 1.66764 18.7929 1.32289C18.7276 1.00248 18.6931 0.671127 18.6931 0.331791H10.5844C10.5844 0.671127 10.55 1.00248 10.4846 1.32289C10.4144 1.66764 10.3073 1.9991 10.1694 2.31399C9.66933 3.45494 8.75205 4.37216 7.61111 4.87228C7.29622 5.01031 6.96487 5.11733 6.62001 5.18749C6.2997 5.25279 5.96824 5.28724 5.62891 5.28724V7.1592C5.96824 7.1592 6.2997 7.19365 6.62001 7.25895C6.96487 7.32911 7.29627 7.43613 7.61111 7.57417C8.75205 8.07423 9.66927 8.9915 10.1694 10.1324C10.3074 10.4473 10.4144 10.7787 10.4846 11.1235C10.5499 11.4439 10.5844 11.7753 10.5844 12.1146H18.6931C18.6931 11.7753 18.7276 11.4439 18.7929 11.1235C18.8631 10.7787 18.9702 10.4473 19.1082 10.1324C19.6083 8.9915 20.5256 8.07428 21.6665 7.57417C21.9814 7.43613 22.3127 7.32911 22.6576 7.25895C22.9779 7.19365 23.3094 7.1592 23.6487 7.1592V5.28724C23.3094 5.28724 22.978 5.25274 22.6576 5.18749ZM15.0842 7.21432H14.1932C13.6459 7.21432 13.2021 6.77059 13.2021 6.22322C13.2021 5.67585 13.6459 5.23212 14.1932 5.23212H15.0842C15.6315 5.23212 16.0753 5.67585 16.0753 6.22322C16.0753 6.77059 15.6315 7.21432 15.0842 7.21432Z" fill="#96C140"/>
<path d="M6.62001 0.331791C6.07264 0.331791 5.62891 0.775525 5.62891 1.32289V3.3051C5.97634 3.3051 6.30977 3.24467 6.62001 3.13463C6.9892 3.0036 7.32498 2.80203 7.61111 2.5456C7.69243 2.47264 7.76976 2.39537 7.84271 2.31399C8.09914 2.02798 8.30077 1.69203 8.43175 1.32289C8.54178 1.01276 8.60221 0.679275 8.60221 0.331791H6.62001Z" fill="#96C140"/>
<path d="M22.658 9.31186C22.2888 9.44284 21.953 9.64447 21.6669 9.9009C21.5855 9.97385 21.5082 10.0511 21.4353 10.1325C21.1789 10.4186 20.9772 10.7544 20.8462 11.1236C20.7362 11.4338 20.6758 11.7673 20.6758 12.1147H22.658C23.2054 12.1147 23.6491 11.671 23.6491 11.1236V9.1414C23.3017 9.1414 22.9682 9.20188 22.658 9.31186Z" fill="#96C140"/>
<path d="M22.0619 17.4615L13.329 17.4793H13.3289C12.8776 17.4793 12.4554 17.6541 12.1378 17.9718C11.8201 18.2895 11.6453 18.7118 11.6453 19.161C11.6453 20.0809 12.3926 20.8346 13.3118 20.8428L16.4957 20.8428C17.043 20.8428 17.4868 21.2865 17.4868 21.8339C17.4868 22.3812 17.0431 22.825 16.4957 22.825L13.327 22.8251L13.3073 22.825L10.1956 22.8251C9.93272 22.8251 9.68072 22.7207 9.49478 22.5347L3.58908 16.6289L2.87032 15.9102C2.6192 15.6591 2.3025 15.4977 1.95895 15.4408C1.8679 15.4258 1.77515 15.4177 1.68103 15.4177C1.23167 15.4177 0.809478 15.5926 0.491798 15.9102C-0.163905 16.566 -0.16396 17.6331 0.491798 18.2888L8.39163 26.1887H21.8415C22.1044 26.1887 22.3564 26.2931 22.5423 26.479L23.7315 27.6683L28 23.3996L22.0619 17.4615Z" fill="#96C140"/>
</g>
<defs>
<clipPath id="clip0_1036_422">
<rect width="28" height="28" fill="white"/>
</clipPath>
</defs>
</svg>
