<svg width="25" height="24" viewBox="0 0 25 24" fill="none" xmlns="http://www.w3.org/2000/svg">
<g clip-path="url(#clip0_670_4935)">
<path d="M12.9353 2.76953C12.9559 3.28008 12.9763 3.79063 12.9969 4.30118C12.5994 4.30118 12.4007 4.30118 12.0033 4.30118C12.0238 3.79063 12.0443 3.28008 12.0648 2.76953C11.2587 2.76953 10.4528 2.76953 9.64672 2.76953C8.02638 8.92325 6.40578 15.0768 4.78549 21.2306C6.9647 21.2306 9.14392 21.2306 11.3231 21.2306C11.3436 20.72 11.3641 20.2095 11.3846 19.699C12.1283 19.699 12.8719 19.699 13.6155 19.699C13.6361 20.2096 13.6566 20.72 13.677 21.2306C15.8562 21.2306 18.0354 21.2306 20.2146 21.2306C18.5943 15.0769 16.9737 8.92331 15.3534 2.76953C14.5474 2.76953 13.7414 2.76953 12.9353 2.76953ZM11.911 6.59448C12.3036 6.59448 12.6963 6.59427 13.089 6.59438C13.146 8.01404 13.203 9.4338 13.2601 10.8534C12.7534 10.8534 12.2467 10.8534 11.7399 10.8534C11.7971 9.43386 11.854 8.01414 11.911 6.59448ZM11.4767 17.4056C11.5337 15.986 11.5908 14.5664 11.6478 13.1468C12.216 13.1468 12.7841 13.1467 13.3522 13.1467C13.4093 14.5663 13.4663 15.986 13.5233 17.4056C12.8412 17.4056 12.1589 17.4056 11.4767 17.4056Z" fill="#0B0B0B"/>
<path d="M16.9384 2.76953C16.6091 2.76953 16.4444 2.76953 16.1152 2.76953C18.1684 8.92325 20.2211 15.0769 22.2744 21.2306C23.0163 21.2306 23.7582 21.2306 24.5 21.2306C21.9796 15.0768 19.459 8.92325 16.9384 2.76953Z" fill="#0B0B0B"/>
<path d="M8.06163 2.76953C5.54103 8.92331 3.02039 15.0768 0.5 21.2306C1.2419 21.2306 1.98374 21.2306 2.72564 21.2306C4.77869 15.0769 6.83169 8.92331 8.88484 2.76953C8.55558 2.76953 8.3909 2.76953 8.06163 2.76953Z" fill="#0B0B0B"/>
</g>
<defs>
<clipPath id="clip0_670_4935">
<rect width="24" height="24" fill="white" transform="translate(0.5)"/>
</clipPath>
</defs>
</svg>
