<svg width="28" height="28" viewBox="0 0 28 28" fill="none" xmlns="http://www.w3.org/2000/svg">
<g clip-path="url(#clip0_728_24)">
<path d="M22.6577 0.331787H20.6755C20.6755 0.679271 20.736 1.01276 20.8459 1.32289C20.9769 1.69203 21.1785 2.02797 21.435 2.31399C21.5079 2.39531 21.5851 2.47264 21.6666 2.54559C21.9526 2.80202 22.2885 3.00365 22.6577 3.13463C22.9679 3.24466 23.3014 3.30509 23.6488 3.30509V1.32283C23.6488 0.775521 23.205 0.331787 22.6577 0.331787Z" fill="#F0A64D"/>
<path d="M8.43187 11.1236C8.30084 10.7544 8.09926 10.4186 7.84283 10.1325C7.76988 10.0511 7.69266 9.97381 7.61123 9.90086C7.32516 9.64443 6.98933 9.4428 6.62013 9.31182C6.30994 9.20179 5.97646 9.14136 5.62903 9.14136V11.1236C5.62903 11.6709 6.07276 12.1147 6.62013 12.1147H8.60233C8.60233 11.7672 8.54185 11.4337 8.43187 11.1236Z" fill="#F0A64D"/>
<path d="M22.6577 5.18749C22.3129 5.11727 21.9815 5.01019 21.6666 4.87227C20.5257 4.37221 19.6085 3.45494 19.1083 2.31399C18.9703 1.9991 18.8633 1.66764 18.793 1.32289C18.7277 1.00247 18.6933 0.671123 18.6933 0.331787H10.5845C10.5845 0.671123 10.5501 1.00247 10.4847 1.32289C10.4145 1.66764 10.3074 1.9991 10.1695 2.31399C9.66945 3.45494 8.75218 4.37215 7.61123 4.87227C7.29634 5.0103 6.96499 5.11733 6.62013 5.18749C6.29983 5.25279 5.96836 5.28724 5.62903 5.28724V7.15919C5.96836 7.15919 6.29983 7.19365 6.62013 7.25894C6.96499 7.32911 7.2964 7.43613 7.61123 7.57416C8.75218 8.07422 9.6694 8.9915 10.1695 10.1324C10.3075 10.4473 10.4146 10.7787 10.4847 11.1235C10.55 11.4438 10.5845 11.7753 10.5845 12.1146H18.6933C18.6933 11.7753 18.7277 11.4438 18.793 11.1235C18.8632 10.7787 18.9703 10.4473 19.1083 10.1324C19.6084 8.9915 20.5257 8.07428 21.6666 7.57416C21.9815 7.43613 22.3129 7.32911 22.6577 7.25894C22.978 7.19365 23.3095 7.15919 23.6488 7.15919V5.28724C23.3095 5.28724 22.9781 5.25273 22.6577 5.18749ZM15.0843 7.21432H14.1934C13.646 7.21432 13.2023 6.77058 13.2023 6.22322C13.2023 5.67585 13.646 5.23211 14.1934 5.23211H15.0843C15.6316 5.23211 16.0754 5.67585 16.0754 6.22322C16.0754 6.77058 15.6316 7.21432 15.0843 7.21432Z" fill="#F0A64D"/>
<path d="M6.62013 0.331787C6.07276 0.331787 5.62903 0.775522 5.62903 1.32289V3.30509C5.97646 3.30509 6.30989 3.24466 6.62013 3.13463C6.98933 3.0036 7.32511 2.80202 7.61123 2.54559C7.69255 2.47264 7.76988 2.39537 7.84283 2.31399C8.09926 2.02797 8.3009 1.69203 8.43187 1.32289C8.5419 1.01276 8.60233 0.679271 8.60233 0.331787H6.62013Z" fill="#F0A64D"/>
<path d="M22.6577 9.31182C22.2885 9.4428 21.9527 9.64443 21.6666 9.90086C21.5852 9.97381 21.5079 10.051 21.435 10.1325C21.1785 10.4185 20.9769 10.7543 20.8459 11.1236C20.7359 11.4337 20.6755 11.7672 20.6755 12.1147H22.6577C23.205 12.1147 23.6488 11.6709 23.6488 11.1236V9.14136C23.3014 9.14136 22.9679 9.20184 22.6577 9.31182Z" fill="#F0A64D"/>
<path d="M22.0619 17.4616L13.3289 17.4793H13.3288C12.8776 17.4793 12.4553 17.6542 12.1378 17.9719C11.8201 18.2895 11.6452 18.7118 11.6452 19.1611C11.6452 20.0809 12.3926 20.8347 13.3117 20.8429L16.4956 20.8428C17.0429 20.8428 17.4867 21.2866 17.4867 21.8339C17.4867 22.3813 17.043 22.825 16.4956 22.825L13.3269 22.8251L13.3072 22.8251L10.1955 22.8251C9.93266 22.8251 9.68066 22.7207 9.49472 22.5348L3.58902 16.629L2.87026 15.9102C2.61914 15.6592 2.30244 15.4977 1.95889 15.4409C1.86784 15.4259 1.77509 15.4177 1.68097 15.4177C1.2316 15.4177 0.809417 15.5926 0.491737 15.9102C-0.163966 16.5661 -0.164021 17.6331 0.491737 18.2889L8.39156 26.1888H21.8415C22.1043 26.1888 22.3563 26.2932 22.5422 26.4791L23.7315 27.6683L28 23.3997L22.0619 17.4616Z" fill="#F0A64D"/>
</g>
<defs>
<clipPath id="clip0_728_24">
<rect width="28" height="28" fill="white"/>
</clipPath>
</defs>
</svg>
