<svg width="28" height="28" viewBox="0 0 28 28" fill="none" xmlns="http://www.w3.org/2000/svg">
<g clip-path="url(#clip0_1036_315)">
<path d="M22.2393 17.478V19.6486H27.6986L26.4374 16.9166H23.0598C22.6227 16.9166 22.2393 17.1789 22.2393 17.478Z" fill="#96C140"/>
<path d="M24.9924 26.011C24.9924 24.9691 24.1353 24.1245 23.0783 24.1245C22.0211 24.1245 21.1641 24.9691 21.1641 26.011C21.1641 27.053 22.0211 27.8977 23.0783 27.8977C24.1353 27.8977 24.9924 27.053 24.9924 26.011Z" fill="#96C140"/>
<path d="M10.4609 26.011C10.4609 24.9691 9.6041 24.1245 8.54688 24.1245C7.48965 24.1245 6.63281 24.9691 6.63281 26.011C6.63281 27.053 7.48965 27.8977 8.54688 27.8977C9.6041 27.8977 10.4609 27.053 10.4609 26.011Z" fill="#96C140"/>
<path d="M15.8767 13.7644C15.408 14.3168 14.7238 14.6336 13.9998 14.6336C13.2756 14.6336 12.5916 14.3168 12.1229 13.7644C11.3633 12.8693 10.3648 11.5833 9.51285 10.1247H3.48547C3.03238 10.1247 2.66516 10.4865 2.66516 10.933V11.7418H5.64542C6.09851 11.7418 6.46573 12.1037 6.46573 12.5504C6.46573 12.9968 6.09851 13.3589 5.64542 13.3589H2.66516V11.7418H0.820312C0.367218 11.7418 0 12.1037 0 12.5504C0 12.9968 0.367218 13.3589 0.820312 13.3589H2.66516V14.976H9.3223C9.77518 14.976 10.1426 15.3379 10.1426 15.7844C10.1426 16.2311 9.77518 16.593 9.3223 16.593H2.66516V18.1411H6.63278C7.08588 18.1411 7.45309 18.503 7.45309 18.9496C7.45309 19.3961 7.08588 19.7582 6.63278 19.7582H2.66516V24.5288C2.66516 24.9753 3.03238 25.3374 3.48547 25.3374H5.05881C5.37839 23.7267 6.82056 22.5073 8.54684 22.5073C10.2731 22.5073 11.7153 23.7267 12.0349 25.3374H17.9191V11.4722C17.9191 11.3489 17.9018 11.2297 17.8704 11.1163C17.1813 12.1631 16.4586 13.0784 15.8767 13.7644Z" fill="#96C140"/>
<path d="M1.96875 14.9758C1.51566 14.9758 1.14844 15.3379 1.14844 15.7844C1.14844 16.2309 1.51566 16.593 1.96875 16.593H2.66516V14.9758H1.96875Z" fill="#96C140"/>
<path d="M0.820313 18.1409C0.367218 18.1409 0 18.503 0 18.9494C0 19.3961 0.367218 19.7582 0.820313 19.7582H2.66516V18.1409H0.820313Z" fill="#96C140"/>
<path d="M21.4189 21.2657C20.9659 21.2657 20.5986 20.9039 20.5986 20.4572V17.478C20.5986 16.2768 21.7026 15.2995 23.0596 15.2995H25.6891C24.8803 13.6326 23.0096 12.5598 20.8958 12.5598H19.5596V25.3643H19.5848C19.8937 23.7404 21.342 22.5073 23.0779 22.5073C24.8136 22.5073 26.262 23.7404 26.5709 25.3643H27.1795C27.6326 25.3643 27.9998 25.0022 27.9998 24.5558V21.2657H21.4189Z" fill="#96C140"/>
<path d="M13.9995 0.109375C11.4507 0.109375 9.38477 2.17554 9.38477 4.72406C9.38477 7.66223 12.1123 11.2167 13.3735 12.7029C13.7017 13.0895 14.2972 13.0895 14.6254 12.7029C15.8864 11.2165 18.6141 7.66223 18.6141 4.72406C18.6141 2.17554 16.548 0.109375 13.9995 0.109375ZM13.9995 6.33286C13.0948 6.33286 12.3588 5.59692 12.3588 4.69223C12.3588 3.78754 13.0948 3.05161 13.9995 3.05161C14.9041 3.05161 15.6401 3.78754 15.6401 4.69223C15.6401 5.59692 14.9041 6.33286 13.9995 6.33286Z" fill="#96C140"/>
</g>
<defs>
<clipPath id="clip0_1036_315">
<rect width="28" height="28" fill="white"/>
</clipPath>
</defs>
</svg>
