<svg width="20" height="24" viewBox="0 0 20 24" fill="none" xmlns="http://www.w3.org/2000/svg">
<path d="M9.76308 0.273256C9.3788 0.672532 9.42492 1.51386 9.83993 1.7848C10.6085 2.29816 11.5 1.84184 11.5 0.95773C11.5 0.130657 10.3472 -0.325659 9.76308 0.273256Z" fill="#282828"/>
<path d="M5.75257 1.25859C4.91804 2.19237 6.34665 3.60023 7.20947 2.72391C7.84597 2.07744 7.36506 1 6.4598 1C6.17691 1 5.87988 1.11493 5.75257 1.25859Z" fill="#282828"/>
<path d="M14.0511 1.15168C13.8874 1.2336 13.6829 1.47937 13.5874 1.69782C13.451 2.03917 13.4647 2.1484 13.6965 2.46243C14.4602 3.48645 15.7558 2.94031 15.4557 1.72513C15.4012 1.50667 15.1966 1.31552 14.8966 1.17899C14.6375 1.06976 14.4056 0.987835 14.392 1.00149C14.3647 1.00149 14.2147 1.06976 14.0511 1.15168Z" fill="#282828"/>
<path d="M8.68978 3.16179C7.53649 3.61663 6.36995 4.71927 5.91924 5.79434C5.36248 7.07615 5.36248 8.95063 5.90599 10.2324C6.27716 11.1008 7.39068 12.2723 8.21256 12.6445C9.2598 13.1406 10.8903 13.1131 11.8978 12.5893C12.7197 12.1758 13.5681 11.3075 13.979 10.4668C14.5888 9.25386 14.6683 7.40694 14.1911 5.97352C13.8995 5.09141 12.8522 3.91986 11.9243 3.45124C11.0494 2.9964 9.4719 2.85857 8.68978 3.16179Z" fill="#282828"/>
<path d="M2.83846 4.23006C2.59231 4.38823 2.5 4.58954 2.5 5.00653C2.5 5.42353 2.59231 5.62483 2.83846 5.783C3.60769 6.30065 4.5 5.84052 4.5 4.94902C4.5 4.40261 4.06923 4 3.5 4C3.33077 4 3.02308 4.10065 2.83846 4.23006Z" fill="#282828"/>
<path d="M15.7092 4.3875C15.1912 5.05474 15.6952 6 16.5633 6C17.4174 6 17.7954 5.08255 17.2353 4.3736C16.8293 3.87317 16.1152 3.87317 15.7092 4.3875Z" fill="#282828"/>
<path d="M2.78366 8.29577C1.93471 9.16828 3.17216 10.5436 4.12184 9.77461C4.85568 9.16828 4.45278 8 3.50311 8C3.2585 8 2.94194 8.1331 2.78366 8.29577Z" fill="#282828"/>
<path d="M16.801 9.36913C16.3616 9.79031 16.4055 10.3422 16.9182 10.7634C17.548 11.3007 18.5 10.865 18.5 10.0372C18.5 9.55793 18.3828 9.38365 17.9581 9.15128C17.4747 8.90438 17.2111 8.94795 16.801 9.36913Z" fill="#282828"/>
<path d="M3.75988 12.2812C3.16528 12.9538 3.65836 14 4.55752 14C5.29714 14 5.76122 13.0584 5.34065 12.3859C5.0361 11.9225 4.12244 11.8627 3.75988 12.2812Z" fill="#282828"/>
<path d="M14.6513 12.3663C14.1965 13.0697 14.8421 14.1687 15.5903 13.9782C16.1772 13.8316 16.5 13.48 16.5 12.9524C16.5 12.3517 16.1039 12 15.429 12C15.0181 12 14.8421 12.0879 14.6513 12.3663Z" fill="#282828"/>
<path d="M7.23125 15.26C6.12282 15.5098 4.82742 15.9955 4.42678 16.3147C4.31994 16.398 3.94601 16.6339 3.61215 16.8421C2.7441 17.3556 1.46205 18.8406 0.941224 19.937C0.58065 20.7003 0.500522 21.0195 0.500522 21.7967C0.487168 22.8931 0.727551 23.365 1.50212 23.7813C1.92947 24.0034 2.54378 24.0172 10.1025 23.9895L18.2488 23.9478L18.7296 23.6286C19.3839 23.2123 19.5709 22.6988 19.4774 21.5746C19.3038 19.257 17.2205 16.8699 14.416 15.7735C12.4128 14.9824 9.44811 14.7742 7.23125 15.26Z" fill="#282828"/>
</svg>
