<svg width="74" height="15" viewBox="0 0 74 15" fill="none" xmlns="http://www.w3.org/2000/svg">
<g clip-path="url(#clip0_1045_153)">
<path d="M18.0069 2.5005H25.5583V3.8108H22.5896V11.1781H20.956V3.8108H18V2.5H18.0064L18.0069 2.5005ZM25.236 4.89455H26.6319V6.10747H26.658C26.7044 5.93592 26.7896 5.77043 26.9148 5.611C27.1826 5.26928 27.5449 5.00438 27.9618 4.84561C28.1735 4.76615 28.399 4.72458 28.6267 4.72301C28.7972 4.72301 28.923 4.72906 28.989 4.73562C29.0546 4.74167 29.1201 4.75378 29.1926 4.75984V6.09485C29.0856 6.07714 28.9781 6.06284 28.8702 6.05197C28.7631 6.03996 28.6552 6.0339 28.5473 6.0338C28.2969 6.0338 28.0604 6.08274 27.8366 6.17508C27.6128 6.2664 27.4215 6.40716 27.2574 6.58527C27.0823 6.78441 26.9482 7.01288 26.8621 7.25883C26.7635 7.52825 26.7172 7.83401 26.7172 8.18365V11.172H25.2296V4.89455H25.236ZM36.0332 11.1786H34.5717V10.3027H34.5451C34.3607 10.6216 34.0911 10.8729 33.7288 11.0626C33.3665 11.2523 32.9978 11.3502 32.6227 11.3502C31.734 11.3502 31.0883 11.1483 30.694 10.7376C30.2987 10.3274 30.101 9.70888 30.101 8.88194V4.89506H31.5891V8.74722C31.5891 9.29869 31.701 9.69072 31.9317 9.91726C32.1555 10.1438 32.4778 10.2603 32.8859 10.2603C33.2019 10.2603 33.4587 10.2175 33.6692 10.1251C33.8801 10.0333 34.0512 9.91725 34.1764 9.76387C34.308 9.61705 34.4002 9.4334 34.4598 9.22503C34.5184 9.01665 34.5451 8.79011 34.5451 8.54541V4.90111H36.0332V11.1786ZM38.5677 9.16398C38.6141 9.56761 38.7782 9.85015 39.0616 10.0151C39.3509 10.1746 39.6935 10.2603 40.0953 10.2603C40.2338 10.2603 40.3915 10.2477 40.5695 10.2296C40.7469 10.2109 40.9179 10.168 41.0698 10.1135C41.2275 10.058 41.3521 9.97225 41.4576 9.86226C41.5567 9.75126 41.6026 9.611 41.5962 9.4334C41.5953 9.35098 41.5761 9.26965 41.5399 9.19471C41.5036 9.11978 41.4511 9.05292 41.3857 8.99849C41.2536 8.88244 41.0895 8.79667 40.8849 8.72301C40.657 8.64823 40.4237 8.58888 40.1869 8.54541C39.9237 8.49647 39.6605 8.44097 39.3909 8.38597C39.1193 8.33033 38.8511 8.26077 38.5874 8.1776C38.3402 8.10255 38.1069 7.99102 37.8964 7.84712C37.6912 7.71154 37.5239 7.53077 37.4089 7.32038C37.2842 7.10595 37.2245 6.84258 37.2245 6.52422C37.2245 6.18113 37.3167 5.8996 37.4947 5.6665C37.6742 5.43535 37.9059 5.24505 38.1729 5.10949C38.4599 4.96582 38.7684 4.86458 39.0877 4.80928C39.4234 4.75429 39.7463 4.72351 40.0489 4.72351C40.3979 4.72351 40.7336 4.76034 41.05 4.82795C41.3565 4.89007 41.6485 5.00408 41.9121 5.16448C42.1689 5.31786 42.3794 5.51968 42.5509 5.76488C42.722 6.00959 42.8275 6.30979 42.8733 6.65893H41.3196C41.2472 6.32846 41.0889 6.10192 40.8327 5.99142C40.5759 5.87538 40.2796 5.81988 39.9503 5.81988C39.8449 5.81988 39.7196 5.82593 39.5753 5.8446C39.4361 5.86212 39.2992 5.89289 39.1666 5.93643C39.0454 5.9787 38.9354 6.0455 38.8442 6.13219C38.8 6.17742 38.7656 6.23047 38.743 6.2883C38.7204 6.34613 38.7101 6.40761 38.7126 6.46922C38.7126 6.64077 38.7782 6.77548 38.9034 6.87942C39.0286 6.98335 39.1932 7.06912 39.3973 7.14278C39.6014 7.21039 39.8321 7.27144 40.0953 7.32038C40.3585 7.36932 40.6281 7.42432 40.9051 7.47982C41.1747 7.53481 41.4379 7.60848 41.7017 7.68769C41.9649 7.76741 42.195 7.8779 42.3996 8.01867C42.6037 8.15943 42.7683 8.33098 42.893 8.53935C43.0182 8.74722 43.0843 9.0106 43.0843 9.31685C43.0843 9.69021 42.9921 10.003 42.8072 10.2664C42.6234 10.5237 42.3863 10.7376 42.0965 10.8971C41.793 11.0626 41.4643 11.1824 41.122 11.2523C40.7737 11.3248 40.4183 11.3617 40.0617 11.3623C39.6624 11.3665 39.2642 11.3212 38.8773 11.2275C38.515 11.1357 38.199 11.001 37.9358 10.8239C37.6757 10.6449 37.4618 10.4124 37.3103 10.1438C37.159 9.87437 37.0796 9.54945 37.0668 9.17608H38.5677V9.16398ZM43.4791 4.89556H44.6049V3.00858H46.093V4.89556H47.4357V5.92987H46.0935V9.28658C46.0935 9.4329 46.0999 9.556 46.1133 9.66599C46.126 9.77043 46.1591 9.86226 46.2054 9.93542C46.2558 10.0123 46.3323 10.0706 46.4223 10.1009C46.5214 10.1377 46.6461 10.1564 46.8176 10.1564C46.9226 10.1564 47.0281 10.1564 47.1336 10.1498C47.2391 10.1438 47.344 10.1317 47.4495 10.107V11.1786C47.2849 11.1973 47.1202 11.2094 46.9689 11.2275C46.8094 11.2451 46.6489 11.2534 46.4883 11.2523C46.0935 11.2523 45.7776 11.2154 45.54 11.1483C45.3034 11.0807 45.1121 10.9768 44.9805 10.8421C44.842 10.7074 44.7567 10.5419 44.704 10.3396C44.6527 10.112 44.6242 9.88043 44.6187 9.64783V5.94147H43.4929V4.89405H43.4796L43.4791 4.89556ZM48.489 4.89556H49.8983V5.74622H49.9249C50.1348 5.37891 50.4247 5.12159 50.7998 4.96266C51.1832 4.80124 51.5987 4.71968 52.0183 4.72351C52.5511 4.72351 53.012 4.80928 53.4073 4.98688C53.8021 5.15843 54.1314 5.39758 54.3946 5.70333C54.6578 6.00959 54.8491 6.36478 54.9807 6.76942C55.1148 7.19035 55.1814 7.62795 55.1783 8.06761C55.1783 8.48991 55.1192 8.9001 55.0004 9.29263C54.8913 9.67126 54.7106 10.028 54.467 10.3456C54.2277 10.6518 53.9168 10.9013 53.5586 11.0747C53.1899 11.2583 52.7621 11.3502 52.2618 11.3502C52.0431 11.3499 51.8249 11.3314 51.6096 11.2947C51.3949 11.258 51.1853 11.1986 50.9847 11.1176C50.7853 11.0388 50.5989 10.9335 50.4311 10.8047C50.2654 10.6796 50.1211 10.531 50.0032 10.3643H49.9766V13.5H48.489V4.89455V4.89556ZM53.6902 8.04289C53.6905 7.7636 53.6507 7.48558 53.5719 7.21645C53.499 6.96145 53.3784 6.72086 53.216 6.50605C53.0619 6.30169 52.8619 6.13215 52.6305 6.00959C52.3819 5.88238 52.1032 5.8171 51.8206 5.81988C51.1951 5.81988 50.7209 6.02169 50.405 6.42634C50.089 6.83047 49.9308 7.36983 49.9308 8.04289C49.9308 8.36125 49.9707 8.6554 50.056 8.92482C50.1412 9.19425 50.26 9.42735 50.4311 9.62311C50.5962 9.81937 50.7934 9.97225 51.0241 10.0822C51.2543 10.1988 51.5244 10.2538 51.827 10.2538C52.1696 10.2538 52.4525 10.1867 52.6896 10.058C52.9192 9.93294 53.117 9.76155 53.2688 9.556C53.4201 9.34763 53.5325 9.11453 53.598 8.85167C53.6586 8.58588 53.6895 8.31479 53.6902 8.04289ZM56.3169 2.5005H57.805V3.8113H56.3169V2.5005ZM56.3169 4.89506H57.805V11.1786H56.3169V4.89506ZM59.1349 2.5005H60.623V11.1786H59.1349V2.5005ZM65.1854 11.3502C64.6451 11.3502 64.1646 11.2644 63.7436 11.0994C63.3401 10.9427 62.9749 10.7091 62.6706 10.4132C62.3747 10.1114 62.1481 9.75472 62.0051 9.36579C61.8485 8.93648 61.7707 8.48496 61.7749 8.03078C61.7749 7.55298 61.8538 7.11251 62.0051 6.70787C62.1482 6.31914 62.3748 5.96268 62.6706 5.66095C62.9599 5.3668 63.3222 5.14026 63.7436 4.97477C64.1646 4.80928 64.6451 4.72351 65.1854 4.72351C65.7251 4.72351 66.2057 4.80928 66.6272 4.97477C67.0486 5.14026 67.404 5.37336 67.7002 5.66095C67.996 5.96257 68.2224 6.31907 68.3652 6.70787C68.5165 7.11201 68.5953 7.55298 68.5953 8.03078C68.5953 8.51514 68.5165 8.96165 68.3652 9.36579C68.2225 9.75478 67.9961 10.1115 67.7002 10.4132C67.4104 10.7074 67.0486 10.9339 66.6272 11.0994C66.2057 11.2644 65.7251 11.3502 65.1854 11.3502ZM65.1854 10.2538C65.5147 10.2538 65.804 10.1867 66.0475 10.058C66.2848 9.93292 66.4896 9.75916 66.6469 9.54945C66.8046 9.34157 66.9165 9.10242 66.9959 8.83905C67.0683 8.57568 67.1077 8.30626 67.1077 8.03078C67.1077 7.76135 67.0683 7.49798 66.9959 7.22856C66.928 6.97299 66.8096 6.73194 66.6469 6.51816C66.4893 6.31044 66.2844 6.13888 66.0475 6.01615C65.804 5.88749 65.5147 5.81988 65.1854 5.81988C64.8561 5.81988 64.5663 5.88749 64.3228 6.01615C64.0874 6.14076 63.8831 6.31199 63.7239 6.51816C63.5635 6.73321 63.4453 6.97384 63.3749 7.22856C63.302 7.49043 63.2643 7.75996 63.2625 8.03078C63.2625 8.30626 63.3025 8.57568 63.3749 8.83905C63.4474 9.10242 63.5657 9.34157 63.7239 9.54945C63.8816 9.75782 64.0793 9.92936 64.3228 10.058C64.5663 10.1927 64.8561 10.2538 65.1854 10.2538ZM69.0301 4.89556H70.1559V3.00858H71.644V4.89556H72.9867V5.92987H71.644V9.28658C71.644 9.4329 71.6504 9.556 71.6632 9.66599C71.6765 9.77043 71.7096 9.86226 71.7559 9.93542C71.8062 10.0124 71.8827 10.0708 71.9728 10.1009C72.0719 10.1377 72.1965 10.1564 72.3681 10.1564C72.4731 10.1564 72.5786 10.1564 72.684 10.1498C72.7895 10.1438 72.8945 10.1317 73 10.107V11.1786C72.8354 11.1973 72.6707 11.2094 72.5194 11.2275C72.3599 11.2451 72.1994 11.2534 72.0388 11.2523C71.644 11.2523 71.3275 11.2154 71.0904 11.1483C70.8539 11.0807 70.6626 10.9768 70.531 10.8421C70.393 10.7074 70.3072 10.5419 70.2545 10.3396C70.2033 10.112 70.1747 9.88042 70.1692 9.64783V5.94147H69.0434V4.89405H69.0301V4.89556Z" fill="#0B0B0B"/>
<path d="M14 5.46845H8.654L7.00272 0.5L5.34558 5.46887L0 5.46347L4.3295 8.53695L2.67321 13.5L7.00272 10.4315L11.3272 13.5L9.67592 8.53695L14 5.46845Z" fill="#04DA8D"/>
<path d="M10.0472 9.66106L9.67592 8.53695L7.00272 10.4315L10.0472 9.66106Z" fill="#126849"/>
</g>
<defs>
<clipPath id="clip0_1045_153">
<rect width="74" height="14" fill="white" transform="translate(0 0.5)"/>
</clipPath>
</defs>
</svg>
