<svg width="370" height="40" viewBox="0 0 370 40" fill="none" xmlns="http://www.w3.org/2000/svg">
<rect x="0.5" y="0.5" width="66.6" height="39" rx="11.5" fill="black"/>
<rect x="0.5" y="0.5" width="66.6" height="39" rx="11.5" stroke="#626262"/>
<path d="M41.2256 12C37.751 12 34.6313 13.8259 34.6313 17.1765C34.6313 21.0353 40.1422 21.2988 40.1422 23.2188C40.1422 24.0282 39.2081 24.7624 37.6389 24.7624C35.3972 24.7624 33.7159 23.7459 33.7159 23.7459L33.0061 27.1341C33.0061 27.1341 34.9302 28 37.5081 28C41.319 28 44.308 26.0988 44.308 22.6729C44.308 18.6071 38.7784 18.3435 38.7784 16.5553C38.7784 15.9153 39.5444 15.2188 41.1136 15.2188C42.8882 15.2188 44.3454 15.9529 44.3454 15.9529L45.0552 12.6776C45.0365 12.6776 43.4487 12 41.2256 12ZM9.39339 12.2447L9.29999 12.7341C9.29999 12.7341 10.7571 12.9976 12.0834 13.5435C13.7834 14.1647 13.8955 14.5224 14.1944 15.6329L17.3141 27.7365H21.4986L27.9062 12.2447H23.7403L19.6118 22.7859L17.9306 13.8447C17.7811 12.8282 16.9965 12.2447 16.0251 12.2447H9.39339ZM29.5874 12.2447L26.3183 27.7365H30.2973L33.5478 12.2447H29.5874ZM51.743 12.2447C50.7903 12.2447 50.2859 12.7529 49.9123 13.6565L44.0838 27.7365H48.2497L49.0529 25.3835H54.1341L54.6199 27.7365H58.3L55.1056 12.2447H51.743ZM52.2847 16.4424L53.5177 22.2588H50.2112L52.2847 16.4424Z" fill="#1434CB"/>
<rect x="76.1" y="0.5" width="66.6" height="39" rx="11.5" fill="black"/>
<rect x="76.1" y="0.5" width="66.6" height="39" rx="11.5" stroke="#626262"/>
<path d="M113.9 11H103.9V28H113.9V11Z" fill="#FF5F00"/>
<path d="M105.403 19.9975C105.403 16.6379 107.065 13.431 109.867 11.3542C104.784 7.59764 97.4198 8.42226 93.4118 13.2173C89.4038 17.9817 90.2836 24.8841 95.3995 28.6407C99.6682 31.7864 105.631 31.7864 109.9 28.6407C107.065 26.5639 105.403 23.357 105.403 19.9975Z" fill="#EB001B"/>
<path d="M127.9 20.0013C127.9 26.0811 122.921 31 116.766 31C114.261 31 111.848 30.1751 109.9 28.6475C114.725 24.8896 115.56 17.9848 111.756 13.1882C111.199 12.516 110.58 11.8744 109.9 11.355C114.725 7.59715 121.745 8.42205 125.519 13.2187C127.065 15.1435 127.9 17.5266 127.9 20.0013Z" fill="#F79E1B"/>
<path d="M127.133 26.4276V26.0611H127.3V26H126.9V26.0611H127.067V26.4276H127.133ZM127.9 26.4276V26H127.767L127.633 26.3054L127.5 26H127.367V26.4276H127.467V26.0916L127.6 26.3665H127.7L127.833 26.0916V26.4276H127.9Z" fill="#F79E1B"/>
<rect x="151.7" y="0.5" width="66.6" height="39" rx="11.5" fill="black"/>
<rect x="151.7" y="0.5" width="66.6" height="39" rx="11.5" stroke="#626262"/>
<path d="M199.266 15.6647C198.922 12.9809 197.959 10.538 196.273 8.74882C194.485 7.06285 192.042 6.09944 189.359 5.75537C186.779 5.41129 185.024 5.51452 185.024 5.51452C185.024 5.51452 183.27 5.4457 180.689 5.75537C178.006 6.09944 175.564 7.06285 173.775 8.74882C172.089 10.538 171.126 12.9809 170.782 15.6647C170.438 18.2453 170.507 20.0001 170.507 20.0001C170.507 20.0001 170.438 21.7548 170.747 24.3354C171.091 27.0188 172.055 29.4621 173.74 31.2513C175.529 32.9373 177.972 33.9003 180.655 34.2444C183.235 34.5885 184.99 34.4856 184.99 34.4856C184.99 34.4856 186.744 34.5541 189.324 34.2444C192.008 33.9003 194.45 32.9373 196.239 31.2513C197.925 29.4624 198.888 27.0188 199.232 24.3354C199.576 21.7548 199.473 20.0001 199.473 20.0001C199.473 20.0001 199.61 18.2453 199.266 15.6647Z" fill="#1E4BC6"/>
<path d="M175.5 15.5H178.15C178.568 15.5 178.917 15.5662 179.265 15.6987C179.614 15.8311 179.893 16.0298 180.137 16.2616C180.381 16.4934 180.59 16.7583 180.729 17.0894C180.869 17.4205 180.939 17.7517 180.939 18.1159C180.939 18.4801 180.869 18.8113 180.729 19.1424C180.59 19.4735 180.381 19.7387 180.137 19.9702C179.893 20.2017 179.579 20.401 179.265 20.5328C178.951 20.6652 178.568 20.7321 178.15 20.7321H176.964V22.8179H175.535V15.5H175.5ZM176.929 16.7586V19.4407H178.045C178.254 19.4407 178.463 19.4076 178.638 19.3414C178.812 19.2752 178.951 19.1758 179.091 19.0434C179.23 18.9109 179.3 18.7785 179.37 18.6129C179.439 18.4474 179.474 18.2818 179.474 18.0831C179.474 17.8844 179.439 17.7189 179.37 17.5533C179.3 17.3877 179.195 17.2553 179.091 17.1228C178.951 16.9904 178.812 16.8911 178.638 16.8248C178.463 16.7586 178.254 16.7255 178.045 16.7255H176.929V16.7586ZM184.25 22.8179C183.867 22.8179 183.518 22.752 183.135 22.6192C182.786 22.4868 182.438 22.2881 182.159 22.0566C181.88 21.7914 181.636 21.4934 181.461 21.1291C181.287 20.7649 181.183 20.3344 181.183 19.8709C181.183 19.4073 181.252 18.9768 181.427 18.6126C181.601 18.2483 181.845 17.9503 182.124 17.6854C182.403 17.4205 182.751 17.255 183.1 17.1225C183.483 16.9901 183.832 16.9238 184.25 16.9238C184.669 16.9238 185.052 16.9901 185.366 17.1225C185.715 17.255 185.994 17.4536 186.238 17.6854V16.9238H187.667V22.8175H186.238V21.9897C186.028 22.255 185.715 22.4533 185.366 22.6189C185.017 22.752 184.669 22.8179 184.25 22.8179ZM184.494 21.593C184.773 21.593 185.017 21.5599 185.227 21.4606C185.436 21.3613 185.645 21.2619 185.819 21.0964C185.994 20.9308 186.098 20.7652 186.203 20.5666C186.307 20.3672 186.342 20.1358 186.342 19.9043C186.342 19.6722 186.307 19.4404 186.203 19.2421C186.098 19.0434 185.994 18.8447 185.819 18.7123C185.645 18.5467 185.471 18.4474 185.227 18.348C184.983 18.2156 184.739 18.1825 184.494 18.1825C184.25 18.1825 184.006 18.2156 183.762 18.3149C183.518 18.4142 183.344 18.5136 183.17 18.6791C182.995 18.8447 182.856 19.0103 182.786 19.2089C182.682 19.4076 182.647 19.6394 182.647 19.8712C182.647 20.103 182.682 20.3344 182.786 20.5331C182.891 20.7325 183.03 20.9308 183.17 21.0964C183.344 21.2619 183.553 21.3609 183.762 21.4606C183.972 21.5265 184.216 21.593 184.494 21.593ZM189.654 16.957L191.397 20.9636L193.001 16.957H194.5L190.839 25.5H189.375L190.665 22.5533L188.155 16.957H189.654Z" fill="white"/>
<rect x="227.3" y="0.5" width="66.6" height="39" rx="11.5" fill="black"/>
<rect x="227.3" y="0.5" width="66.6" height="39" rx="11.5" stroke="#626262"/>
<path d="M245.761 12.9496C245.213 13.5913 244.336 14.0975 243.459 14.0252C243.349 13.1575 243.779 12.2355 244.281 11.666C244.829 11.0062 245.788 10.5362 246.565 10.5C246.656 11.4039 246.3 12.2897 245.761 12.9496ZM246.556 14.197C245.286 14.1246 244.199 14.911 243.596 14.911C242.984 14.911 242.061 14.2331 241.056 14.2512C239.75 14.2693 238.535 15.0014 237.868 16.1675C236.497 18.4995 237.511 21.9524 238.836 23.8506C239.485 24.7907 240.261 25.8211 241.285 25.785C242.253 25.7488 242.637 25.1613 243.806 25.1613C244.984 25.1613 245.322 25.785 246.346 25.7669C247.405 25.7488 248.072 24.8268 248.721 23.8868C249.461 22.8202 249.762 21.7807 249.781 21.7265C249.762 21.7084 247.734 20.9401 247.716 18.6261C247.698 16.6917 249.315 15.7697 249.388 15.7155C248.474 14.3777 247.049 14.2331 246.556 14.197ZM253.892 11.5756V25.6675H256.103V20.8497H259.163C261.959 20.8497 263.923 18.9515 263.923 16.2036C263.923 13.4558 261.995 11.5756 259.236 11.5756H253.892ZM256.103 13.4196H258.651C260.57 13.4196 261.666 14.432 261.666 16.2127C261.666 17.9933 260.57 19.0147 258.642 19.0147H256.103V13.4196ZM267.961 25.7759C269.349 25.7759 270.637 25.0799 271.222 23.9772H271.268V25.6675H273.314V18.6532C273.314 16.6194 271.67 15.3088 269.139 15.3088C266.791 15.3088 265.056 16.6375 264.992 18.4634H266.983C267.148 17.5956 267.961 17.0262 269.075 17.0262C270.427 17.0262 271.186 17.6499 271.186 18.7978V19.5752L268.427 19.7379C265.859 19.8915 264.471 20.931 264.471 22.7388C264.471 24.5647 265.905 25.7759 267.961 25.7759ZM268.554 24.1037C267.376 24.1037 266.627 23.5433 266.627 22.6846C266.627 21.7988 267.349 21.2835 268.728 21.2022L271.186 21.0485V21.844C271.186 23.1637 270.053 24.1037 268.554 24.1037ZM276.046 29.5C278.202 29.5 279.216 28.6865 280.102 26.2188L283.985 15.4443H281.737L279.134 23.7693H279.088L276.484 15.4443H274.173L277.919 25.7036L277.718 26.3273C277.38 27.3849 276.831 27.7916 275.854 27.7916C275.68 27.7916 275.342 27.7735 275.205 27.7555V29.4458C275.333 29.4819 275.881 29.5 276.046 29.5Z" fill="white"/>
<rect x="302.9" y="0.5" width="66.6" height="39" rx="11.5" fill="black"/>
<rect x="302.9" y="0.5" width="66.6" height="39" rx="11.5" stroke="#626262"/>
<g clip-path="url(#clip0_670_4950)">
<path d="M334.935 20.3583V25.4843H333.21V12.8071H337.695C338.787 12.8071 339.822 13.193 340.627 13.9095C341.432 14.5709 341.835 15.563 341.835 16.6103C341.835 17.6575 341.432 18.5945 340.627 19.3111C339.822 20.0276 338.845 20.4134 337.695 20.4134L334.935 20.3583ZM334.935 14.3504V18.7599H337.81C338.442 18.7599 339.075 18.5394 339.477 18.0985C340.397 17.2717 340.397 15.8937 339.535 15.067L339.477 15.0119C339.017 14.5709 338.442 14.2953 337.81 14.3504H334.935Z" fill="white"/>
<path d="M345.802 16.5552C347.067 16.5552 348.045 16.8859 348.792 17.5473C349.54 18.2087 349.885 19.0906 349.885 20.193V25.4843H348.275V24.2717H348.217C347.527 25.2638 346.55 25.7599 345.4 25.7599C344.422 25.7599 343.56 25.4843 342.87 24.9331C342.237 24.3819 341.835 23.6103 341.835 22.7835C341.835 21.9016 342.18 21.1851 342.87 20.6339C343.56 20.0827 344.537 19.8623 345.687 19.8623C346.722 19.8623 347.527 20.0276 348.16 20.4134V20.0276C348.16 19.4764 347.93 18.9253 347.47 18.5945C347.01 18.2087 346.435 17.9882 345.802 17.9882C344.825 17.9882 344.077 18.3741 343.56 19.1457L342.065 18.2638C342.985 17.1064 344.192 16.5552 345.802 16.5552ZM343.617 22.8386C343.617 23.2796 343.847 23.6654 344.192 23.8859C344.595 24.1615 345.055 24.3268 345.515 24.3268C346.205 24.3268 346.895 24.0512 347.412 23.5552C347.987 23.0591 348.275 22.4528 348.275 21.7914C347.757 21.4056 347.01 21.1851 346.032 21.1851C345.342 21.1851 344.767 21.3505 344.307 21.6812C343.847 21.9568 343.617 22.3426 343.617 22.8386Z" fill="white"/>
<path d="M359.2 16.8308L353.507 29.3426H351.782L353.91 24.9883L350.172 16.8859H352.012L354.715 23.1143H354.772L357.417 16.8859H359.2V16.8308Z" fill="white"/>
<path d="M328.092 19.256C328.092 18.7599 328.035 18.2639 327.977 17.7678H320.79V20.5788H324.872C324.7 21.4607 324.182 22.2875 323.377 22.7836V24.6025H325.85C327.287 23.3348 328.092 21.4607 328.092 19.256Z" fill="#4285F4"/>
<path d="M320.79 26.3661C322.86 26.3661 324.585 25.7047 325.85 24.6024L323.377 22.7835C322.687 23.2244 321.825 23.5 320.79 23.5C318.835 23.5 317.11 22.2323 316.535 20.4685H314.005V22.3425C315.327 24.8228 317.915 26.3661 320.79 26.3661Z" fill="#34A853"/>
<path d="M316.535 20.4685C316.19 19.5866 316.19 18.5945 316.535 17.6575V15.7834H314.005C312.913 17.8228 312.913 20.248 314.005 22.3425L316.535 20.4685Z" fill="#FBBC04"/>
<path d="M320.79 14.6811C321.882 14.6811 322.917 15.0669 323.722 15.7835L325.907 13.689C324.527 12.4764 322.687 11.7599 320.847 11.815C317.972 11.815 315.327 13.3583 314.062 15.8386L316.592 17.7126C317.11 15.9488 318.835 14.6811 320.79 14.6811Z" fill="#EA4335"/>
</g>
<defs>
<clipPath id="clip0_670_4950">
<rect width="46" height="21" fill="white" transform="translate(313.2 9.5)"/>
</clipPath>
</defs>
</svg>
