<svg width="370" height="32" viewBox="0 0 370 32" fill="none" xmlns="http://www.w3.org/2000/svg">
<path d="M200.928 11.7528C200.578 9.02887 199.6 6.5494 197.888 4.73345C196.071 3.02226 193.59 2.04444 190.864 1.69522C188.243 1.346 186.461 1.45077 186.461 1.45077C186.461 1.45077 184.679 1.38092 182.059 1.69522C179.333 2.04444 176.852 3.02226 175.035 4.73345C173.323 6.5494 172.344 9.02887 171.995 11.7528C171.645 14.3719 171.715 16.153 171.715 16.153C171.715 16.153 171.645 17.934 171.96 20.5532C172.309 23.2767 173.288 25.7566 175 27.5725C176.817 29.2837 179.298 30.2612 182.024 30.6104C184.644 30.9596 186.426 30.8552 186.426 30.8552C186.426 30.8552 188.208 30.9247 190.829 30.6104C193.555 30.2612 196.036 29.2837 197.853 27.5725C199.565 25.7569 200.543 23.2767 200.893 20.5532C201.242 17.934 201.137 16.153 201.137 16.153C201.137 16.153 201.277 14.3719 200.928 11.7528Z" fill="#1E4BC6"/>
<path d="M177.132 11.8577H179.787C180.207 11.8577 180.556 11.9275 180.905 12.0672C181.255 12.2069 181.534 12.4164 181.779 12.6609C182.024 12.9053 182.233 13.1847 182.373 13.5339C182.513 13.8831 182.583 14.2324 182.583 14.6165C182.583 15.0007 182.513 15.3499 182.373 15.6991C182.233 16.0483 182.024 16.328 181.779 16.5722C181.534 16.8163 181.22 17.0265 180.905 17.1655C180.591 17.3052 180.207 17.3757 179.787 17.3757H178.599V19.5755H177.167V11.8577H177.132ZM178.564 13.1851V16.0137H179.682C179.892 16.0137 180.102 15.9788 180.276 15.909C180.451 15.8391 180.591 15.7344 180.731 15.5947C180.871 15.455 180.94 15.3153 181.01 15.1407C181.08 14.9661 181.115 14.7915 181.115 14.5819C181.115 14.3724 181.08 14.1978 181.01 14.0232C180.94 13.8486 180.836 13.7089 180.731 13.5692C180.591 13.4295 180.451 13.3247 180.276 13.2549C180.102 13.1851 179.892 13.1501 179.682 13.1501H178.564V13.1851ZM185.902 19.5755C185.518 19.5755 185.168 19.506 184.784 19.3659C184.435 19.2262 184.085 19.0167 183.806 18.7726C183.526 18.4929 183.282 18.1786 183.107 17.7944C182.932 17.4103 182.827 16.9563 182.827 16.4674C182.827 15.9785 182.897 15.5245 183.072 15.1403C183.247 14.7562 183.491 14.4419 183.771 14.1625C184.05 13.8831 184.4 13.7085 184.749 13.5688C185.134 13.4292 185.483 13.3593 185.902 13.3593C186.322 13.3593 186.706 13.4292 187.02 13.5688C187.37 13.7085 187.649 13.9181 187.894 14.1625V13.3593H189.327V19.5751H187.894V18.7021C187.684 18.9818 187.37 19.191 187.02 19.3656C186.671 19.506 186.322 19.5755 185.902 19.5755ZM186.147 18.2837C186.426 18.2837 186.671 18.2488 186.881 18.144C187.09 18.0392 187.3 17.9345 187.475 17.7599C187.649 17.5852 187.754 17.4106 187.859 17.2011C187.964 16.9909 187.999 16.7468 187.999 16.5027C187.999 16.2579 187.964 16.0134 187.859 15.8042C187.754 15.5947 187.649 15.3851 187.475 15.2455C187.3 15.0708 187.125 14.9661 186.881 14.8613C186.636 14.7216 186.392 14.6867 186.147 14.6867C185.902 14.6867 185.658 14.7216 185.413 14.8264C185.168 14.9312 184.994 15.0359 184.819 15.2105C184.644 15.3851 184.505 15.5598 184.435 15.7693C184.33 15.9788 184.295 16.2233 184.295 16.4677C184.295 16.7122 184.33 16.9563 184.435 17.1658C184.54 17.3761 184.679 17.5852 184.819 17.7599C184.994 17.9345 185.203 18.0389 185.413 18.144C185.623 18.2135 185.867 18.2837 186.147 18.2837ZM191.318 13.3942L193.066 17.6198L194.673 13.3942H196.176L192.507 22.4041H191.039L192.332 19.2964L189.816 13.3942H191.318Z" fill="white"/>
<path d="M333.629 15.5111V23.5214H331.043V3.71094H337.767C339.403 3.71094 340.954 4.31273 342.162 5.43283C343.369 6.46543 343.973 8.01634 343.973 9.65341C343.973 11.2905 343.371 12.7539 342.162 13.874C340.955 14.9941 339.491 15.5959 337.767 15.5959L333.629 15.5111ZM333.629 6.12212V13.0137H337.939C338.888 13.0137 339.836 12.6677 340.439 11.9811C341.819 10.69 341.819 8.536 340.524 7.24357L340.439 7.15606C339.75 6.46677 338.888 6.03596 337.939 6.12347H333.629V6.12212Z" fill="white"/>
<path d="M349.919 9.5686C351.816 9.5686 353.28 10.0842 354.401 11.1195C355.521 12.1521 356.037 13.5307 356.037 15.2539V23.5241H353.625V21.6286H353.54C352.507 23.1795 351.04 23.9549 349.317 23.9549C347.853 23.9549 346.558 23.5241 345.525 22.6639C344.576 21.8022 343.973 20.596 343.973 19.3049C343.973 17.9263 344.49 16.8089 345.525 15.9459C346.558 15.0843 348.022 14.7397 349.748 14.7397C351.3 14.7397 352.507 14.9981 353.454 15.6013V14.9995C353.454 14.1379 353.11 13.2776 352.42 12.7593C351.731 12.1575 350.869 11.8115 349.92 11.8115C348.456 11.8115 347.335 12.4133 346.559 13.6209L344.318 12.2423C345.696 10.4289 347.506 9.5686 349.919 9.5686ZM346.644 19.387C346.644 20.0763 346.988 20.6781 347.506 21.0227C348.108 21.4535 348.798 21.712 349.488 21.712C350.521 21.712 351.557 21.2812 352.332 20.5071C353.194 19.7303 353.623 18.7852 353.623 17.7499C352.849 17.1481 351.727 16.8022 350.262 16.8022C349.229 16.8022 348.366 17.0606 347.677 17.5763C346.988 18.0084 346.644 18.6116 346.644 19.387Z" fill="white"/>
<path d="M370 9.99951L361.469 29.5502H358.881L362.071 22.7461L356.469 10.0843H359.227L363.277 19.8166H363.363L367.327 10.0843H370V9.99951Z" fill="white"/>
<path d="M323.375 13.7893C323.375 13.0125 323.287 12.2383 323.202 11.4629H312.429V15.8558H318.548C318.289 17.2344 317.515 18.5255 316.306 19.3009V22.1429H320.012C322.166 20.1625 323.375 17.233 323.375 13.7893Z" fill="#4285F4"/>
<path d="M312.427 24.8988C315.529 24.8988 318.114 23.8662 320.012 22.1416L316.306 19.2996C315.273 19.9889 313.979 20.4197 312.429 20.4197C309.498 20.4197 306.913 18.4393 306.052 15.6821H302.258V18.6116C304.239 22.4876 308.119 24.8988 312.427 24.8988Z" fill="#34A853"/>
<path d="M306.05 15.6835C305.532 14.3049 305.532 12.754 306.05 11.2906V8.36108H302.258C300.62 11.5491 300.62 15.3388 302.258 18.6116L306.05 15.6835Z" fill="#FBBC04"/>
<path d="M312.427 6.63921C314.065 6.63921 315.617 7.241 316.822 8.3611L320.098 5.0883C318.029 3.19408 315.272 2.07398 312.513 2.15879C308.202 2.15879 304.24 4.56998 302.344 8.44726L306.136 11.3741C306.912 8.62093 309.497 6.63921 312.427 6.63921Z" fill="#EA4335"/>
<path d="M230.81 6.25484C230.06 7.1411 228.861 7.84013 227.662 7.74027C227.512 6.54194 228.099 5.26872 228.786 4.48232C229.536 3.57109 230.847 2.922 231.909 2.87207C232.034 4.12033 231.547 5.34362 230.81 6.25484ZM231.896 7.97743C230.16 7.87757 228.674 8.96356 227.849 8.96356C227.013 8.96356 225.751 8.02736 224.377 8.05233C222.591 8.0773 220.93 9.08838 220.018 10.6986C218.145 13.9191 219.531 18.6875 221.342 21.3088C222.229 22.607 223.291 24.03 224.689 23.9801C226.013 23.9301 226.538 23.1188 228.137 23.1188C229.748 23.1188 230.21 23.9801 231.609 23.9551C233.058 23.9301 233.97 22.6569 234.856 21.3587C235.868 19.8858 236.28 18.4503 236.305 18.3754C236.28 18.3504 233.507 17.2894 233.482 14.0939C233.457 11.4226 235.668 10.1494 235.768 10.0745C234.519 8.22709 232.571 8.02737 231.896 7.97743ZM241.926 4.35749V23.8178H244.948V17.1646H249.132C252.954 17.1646 255.64 14.5433 255.64 10.7486C255.64 6.95387 253.004 4.35749 249.232 4.35749H241.926ZM244.948 6.90393H248.433C251.056 6.90393 252.555 8.30198 252.555 10.761C252.555 13.2201 251.056 14.6306 248.421 14.6306H244.948V6.90393ZM261.16 23.9676C263.059 23.9676 264.82 23.0064 265.619 21.4836H265.682V23.8178H268.48V14.1313C268.48 11.3228 266.231 9.51279 262.772 9.51279C259.562 9.51279 257.189 11.3477 257.101 13.8692H259.824C260.049 12.6709 261.16 11.8845 262.684 11.8845C264.533 11.8845 265.569 12.7458 265.569 14.3311V15.4046L261.797 15.6292C258.288 15.8414 256.389 17.2769 256.389 19.7734C256.389 22.2949 258.35 23.9676 261.16 23.9676ZM261.972 21.6583C260.361 21.6583 259.337 20.8844 259.337 19.6986C259.337 18.4753 260.324 17.7638 262.21 17.6514L265.569 17.4392V18.5377C265.569 20.3601 264.021 21.6583 261.972 21.6583ZM272.214 29.1104C275.162 29.1104 276.548 27.987 277.76 24.5792L283.068 9.70003H279.995L276.436 21.1965H276.373L272.814 9.70003H269.654L274.775 23.8677L274.5 24.729C274.038 26.1895 273.288 26.7512 271.952 26.7512C271.715 26.7512 271.252 26.7262 271.065 26.7013V29.0355C271.24 29.0854 271.989 29.1104 272.214 29.1104Z" fill="white"/>
<path d="M90.0905 7.41235H80.1841V24.9333H90.0905V7.41235Z" fill="#FF5F00"/>
<path d="M80.8129 16.1727C80.8129 12.7676 82.4168 9.51728 85.1214 7.41229C80.2154 3.60474 73.1079 4.44054 69.2396 9.30059C65.3714 14.1297 66.2205 21.1257 71.158 24.9332C75.2778 28.1216 81.033 28.1216 85.1529 24.9332C82.4168 22.8282 80.8129 19.5779 80.8129 16.1727Z" fill="#EB001B"/>
<path d="M103.456 16.1727C103.456 22.3329 98.3931 27.3168 92.1348 27.3168C89.5874 27.3168 87.1344 26.481 85.1531 24.9332C90.0591 21.1257 90.9083 14.1297 87.04 9.26963C86.4739 8.5886 85.845 7.93853 85.1531 7.41229C90.0591 3.60474 97.1981 4.44054 101.035 9.30059C102.607 11.2508 103.456 13.6653 103.456 16.1727Z" fill="#F79E1B"/>
<path d="M102.387 23.0757V22.7042H102.544V22.6423H102.167V22.7042H102.324V23.0757H102.387ZM103.11 23.0757V22.6423H102.985L102.859 22.9519L102.733 22.6423H102.607V23.0757H102.702V22.7352L102.827 23.0138H102.922L103.048 22.7352V23.0757H103.11Z" fill="#F79E1B"/>
<path d="M121.417 0H153.667V17.2746L152.071 19.7494L153.667 21.9521V32H121.417V15.7154L122.415 14.577L121.417 13.488V0Z" fill="#016FD0"/>
<path d="M127.678 22.2984V17.2744H133.039L133.614 18.0184L134.208 17.2744H153.667V21.9519C153.667 21.9519 153.159 22.2934 152.57 22.2984H141.795L141.147 21.5064V22.2984H139.022V20.9465C139.022 20.9465 138.731 21.1352 138.104 21.1352H137.38V22.2984H134.163L133.589 21.5384L133.005 22.2984H127.678Z" fill="white"/>
<path d="M121.417 13.488L122.626 10.6914H124.717L125.403 12.2579V10.6914H128.002L128.411 11.8237L128.807 10.6914H140.473V11.2606C140.473 11.2606 141.086 10.6914 142.094 10.6914L145.88 10.7045L146.554 12.2506V10.6914H148.729L149.327 11.5795V10.6914H151.522V15.7154H149.327L148.754 14.8244V15.7154H145.558L145.237 14.9234H144.378L144.062 15.7154H141.895C141.027 15.7154 140.473 15.1578 140.473 15.1578V15.7154H137.206L136.557 14.9234V15.7154H124.407L124.086 14.9234H123.23L122.911 15.7154H121.417V13.488Z" fill="white"/>
<path d="M123.054 11.3108L121.424 15.0726H122.485L122.786 14.3193H124.535L124.835 15.0726H125.92L124.291 11.3108H123.054ZM123.658 12.1863L124.191 13.5026H123.123L123.658 12.1863Z" fill="#016FD0"/>
<path d="M126.032 15.0719V11.3101L127.54 11.3156L128.418 13.741L129.274 11.3101H130.771V15.0719H129.823V12.3L128.818 15.0719H127.987L126.98 12.3V15.0719H126.032Z" fill="#016FD0"/>
<path d="M131.419 15.0719V11.3101H134.512V12.1515H132.377V12.795H134.462V13.5869H132.377V14.2551H134.512V15.0719H131.419Z" fill="#016FD0"/>
<path d="M135.061 11.3108V15.0726H136.009V13.7362H136.408L137.544 15.0726H138.702L137.455 13.6867C137.967 13.6438 138.495 13.2079 138.495 12.5312C138.495 11.7396 137.869 11.3108 137.17 11.3108H135.061ZM136.009 12.1522H137.092C137.352 12.1522 137.541 12.354 137.541 12.5482C137.541 12.7981 137.296 12.9442 137.106 12.9442H136.009V12.1522Z" fill="#016FD0"/>
<path d="M139.85 15.0719H138.882V11.3101H139.85V15.0719Z" fill="#016FD0"/>
<path d="M142.144 15.0719H141.935C140.925 15.0719 140.311 14.2818 140.311 13.2064C140.311 12.1045 140.918 11.3101 142.194 11.3101H143.242V12.201H142.156C141.638 12.201 141.271 12.6022 141.271 13.2157C141.271 13.9442 141.69 14.2502 142.294 14.2502H142.543L142.144 15.0719Z" fill="#016FD0"/>
<path d="M144.206 11.3108L142.576 15.0726H143.638L143.938 14.3193H145.687L145.987 15.0726H147.072L145.443 11.3108H144.206ZM144.81 12.1863L145.343 13.5026H144.275L144.81 12.1863Z" fill="#016FD0"/>
<path d="M147.182 15.0719V11.3101H148.387L149.926 13.6736V11.3101H150.874V15.0719H149.708L148.13 12.6465V15.0719H147.182Z" fill="#016FD0"/>
<path d="M128.326 21.6551V17.8933H131.419V18.7348H129.284V19.3782H131.369V20.1702H129.284V20.8384H131.419V21.6551H128.326Z" fill="#016FD0"/>
<path d="M143.481 21.6551V17.8933H146.574V18.7348H144.439V19.3782H146.514V20.1702H144.439V20.8384H146.574V21.6551H143.481Z" fill="#016FD0"/>
<path d="M131.539 21.6551L133.045 19.7974L131.503 17.8933H132.698L133.616 19.0704L134.537 17.8933H135.684L134.163 19.7742L135.671 21.6551H134.478L133.586 20.4966L132.716 21.6551H131.539Z" fill="#016FD0"/>
<path d="M135.784 17.894V21.6558H136.757V20.4679H137.754C138.599 20.4679 139.238 20.0235 139.238 19.1593C139.238 18.4434 138.737 17.894 137.877 17.894H135.784ZM136.757 18.7448H137.807C138.08 18.7448 138.275 18.9106 138.275 19.1779C138.275 19.4289 138.081 19.611 137.804 19.611H136.757V18.7448Z" fill="#016FD0"/>
<path d="M139.65 17.8933V21.6551H140.598V20.3187H140.997L142.133 21.6551H143.291L142.044 20.2692C142.556 20.2263 143.084 19.7904 143.084 19.1137C143.084 18.3221 142.458 17.8933 141.759 17.8933H139.65ZM140.598 18.7348H141.681C141.941 18.7348 142.13 18.9365 142.13 19.1307C142.13 19.3807 141.885 19.5267 141.695 19.5267H140.598V18.7348Z" fill="#016FD0"/>
<path d="M147.013 21.6551V20.8384H148.91C149.19 20.8384 149.312 20.6879 149.312 20.5229C149.312 20.3647 149.191 20.2048 148.91 20.2048H148.053C147.308 20.2048 146.893 19.7544 146.893 19.0782C146.893 18.475 147.273 17.8933 148.38 17.8933H150.225L149.826 18.7397H148.23C147.925 18.7397 147.831 18.8986 147.831 19.0503C147.831 19.2063 147.947 19.3782 148.18 19.3782H149.078C149.909 19.3782 150.269 19.8457 150.269 20.4579C150.269 21.116 149.867 21.6551 149.033 21.6551H147.013Z" fill="#016FD0"/>
<path d="M150.491 21.6551V20.8384H152.388C152.669 20.8384 152.79 20.6879 152.79 20.5229C152.79 20.3647 152.669 20.2048 152.388 20.2048H151.531C150.786 20.2048 150.371 19.7544 150.371 19.0782C150.371 18.475 150.751 17.8933 151.858 17.8933H153.704L153.305 18.7397H151.709C151.403 18.7397 151.31 18.8986 151.31 19.0503C151.31 19.2063 151.426 19.3782 151.659 19.3782H152.557C153.387 19.3782 153.748 19.8457 153.748 20.4579C153.748 21.116 153.346 21.6551 152.511 21.6551H150.491Z" fill="#016FD0"/>
<path d="M31.8308 7.89819C28.3665 7.89819 25.256 9.70083 25.256 13.0088C25.256 16.8185 30.7505 17.0787 30.7505 18.9742C30.7505 19.7733 29.8192 20.4981 28.2547 20.4981C26.0197 20.4981 24.3434 19.4946 24.3434 19.4946L23.6356 22.8397C23.6356 22.8397 25.554 23.6945 28.1243 23.6945C31.9239 23.6945 34.904 21.8176 34.904 18.4353C34.904 14.4212 29.3909 14.161 29.3909 12.3955C29.3909 11.7636 30.1545 11.076 31.719 11.076C33.4884 11.076 34.9412 11.8008 34.9412 11.8008L35.649 8.56721C35.6304 8.56721 34.0472 7.89819 31.8308 7.89819ZM0.0931269 8.13978L0 8.62297C0 8.62297 1.45278 8.88314 2.77518 9.42208C4.47009 10.0353 4.58184 10.3884 4.87985 11.4849L7.99029 23.4344H12.1624L18.5509 8.13978H14.3974L10.2812 18.5468L8.60493 9.71942C8.45592 8.71589 7.67366 8.13978 6.70514 8.13978H0.0931269ZM20.2272 8.13978L16.9677 23.4344H20.9349L24.1757 8.13978H20.2272ZM42.3169 8.13978C41.367 8.13978 40.8641 8.64155 40.4916 9.53358L34.6805 23.4344H38.8339L39.6348 21.1114H44.7009L45.1852 23.4344H48.8544L45.6694 8.13978H42.3169ZM42.857 12.284L44.0863 18.0264H40.7896L42.857 12.284Z" fill="#1434CB"/>
</svg>
