<svg width="23" height="23" viewBox="0 0 23 23" fill="none" xmlns="http://www.w3.org/2000/svg">
<rect x="0.5" y="0.5" width="22" height="22" rx="11" fill="white"/>
<path d="M19.3711 9.10812C19.1813 7.62741 18.6499 6.27959 17.7198 5.29245C16.7329 4.36226 15.3853 3.83073 13.9048 3.64089C12.4813 3.45106 11.5133 3.50801 11.5133 3.50801C11.5133 3.50801 10.5453 3.47004 9.12176 3.64089C7.6413 3.83073 6.2937 4.36226 5.30672 5.29245C4.37669 6.27959 3.84524 7.62741 3.65544 9.10812C3.46563 10.5319 3.50359 11.5 3.50359 11.5C3.50359 11.5 3.46563 12.4682 3.63646 13.8919C3.82626 15.3725 4.35771 16.7205 5.28774 17.7076C6.27472 18.6378 7.62232 19.1691 9.10278 19.359C10.5263 19.5488 11.4943 19.4921 11.4943 19.4921C11.4943 19.4921 12.4623 19.5298 13.8858 19.359C15.3663 19.1691 16.7139 18.6378 17.7009 17.7076C18.6309 16.7207 19.1623 15.3725 19.3521 13.8919C19.5419 12.4682 19.485 11.5 19.485 11.5C19.485 11.5 19.5609 10.5319 19.3711 9.10812Z" fill="#1E4BC6"/>
<path d="M6.25879 9.01721H7.7206C7.95142 9.01721 8.14376 9.05375 8.33611 9.12683C8.52845 9.1999 8.68233 9.30952 8.81697 9.4374C8.95161 9.56528 9.06701 9.71143 9.14395 9.89412C9.22089 10.0768 9.25936 10.2595 9.25936 10.4605C9.25936 10.6614 9.22089 10.8441 9.14395 11.0268C9.06701 11.2095 8.95161 11.3558 8.81697 11.4835C8.68233 11.6112 8.50922 11.7212 8.33611 11.7939C8.163 11.867 7.95142 11.9039 7.7206 11.9039H7.06663V13.0547H6.27802V9.01721H6.25879ZM7.0474 9.71162V11.1914H7.6629C7.77831 11.1914 7.89371 11.1731 7.98989 11.1366C8.08606 11.1001 8.163 11.0453 8.23993 10.9722C8.31687 10.8991 8.35534 10.826 8.39381 10.7347C8.43228 10.6433 8.45151 10.552 8.45151 10.4424C8.45151 10.3328 8.43228 10.2414 8.39381 10.1501C8.35534 10.0587 8.29764 9.98565 8.23993 9.91258C8.163 9.8395 8.08606 9.78469 7.98989 9.74816C7.89371 9.71162 7.77831 9.69335 7.6629 9.69335H7.0474V9.71162ZM11.0866 13.0547C10.875 13.0547 10.6827 13.0183 10.4711 12.9451C10.2788 12.872 10.0864 12.7624 9.93256 12.6347C9.77869 12.4883 9.64405 12.3239 9.54787 12.1229C9.4517 11.922 9.394 11.6845 9.394 11.4287C9.394 11.173 9.43247 10.9355 9.52864 10.7345C9.62481 10.5335 9.75945 10.3691 9.91333 10.223C10.0672 10.0768 10.2595 9.98547 10.4519 9.91239C10.6635 9.83932 10.8558 9.80278 11.0866 9.80278C11.3174 9.80278 11.529 9.83932 11.7021 9.91239C11.8945 9.98547 12.0483 10.0951 12.183 10.223V9.80278H12.9716V13.0545H12.183V12.5978C12.0676 12.7441 11.8945 12.8535 11.7021 12.9449C11.5098 13.0183 11.3174 13.0547 11.0866 13.0547ZM11.2213 12.3789C11.3751 12.3789 11.5098 12.3606 11.6252 12.3058C11.7406 12.251 11.856 12.1962 11.9522 12.1049C12.0483 12.0135 12.1061 11.9222 12.1638 11.8126C12.2215 11.7026 12.2407 11.5749 12.2407 11.4472C12.2407 11.3191 12.2215 11.1912 12.1638 11.0818C12.1061 10.9722 12.0483 10.8626 11.9522 10.7895C11.856 10.6981 11.7598 10.6433 11.6252 10.5885C11.4906 10.5155 11.3559 10.4972 11.2213 10.4972C11.0866 10.4972 10.952 10.5155 10.8173 10.5703C10.6827 10.6251 10.5865 10.6799 10.4904 10.7712C10.3942 10.8626 10.3173 10.9539 10.2788 11.0635C10.2211 11.1731 10.2018 11.301 10.2018 11.4289C10.2018 11.5568 10.2211 11.6845 10.2788 11.7941C10.3365 11.9041 10.4134 12.0135 10.4904 12.1049C10.5865 12.1962 10.7019 12.2508 10.8173 12.3058C10.9328 12.3422 11.0674 12.3789 11.2213 12.3789ZM14.068 9.82105L15.0297 12.0316L15.9145 9.82105H16.7415L14.7219 14.5345H13.9141L14.6258 12.9087L13.2409 9.82105H14.068Z" fill="white"/>
</svg>
