<svg width="118" height="21" viewBox="0 0 118 21" fill="none" xmlns="http://www.w3.org/2000/svg">
<rect width="22" height="21" fill="#00B67A"/>
<path d="M18 8.96845H12.654L11.0027 4L9.34558 8.96887L4 8.96347L8.3295 12.0369L6.67321 17L11.0027 13.9315L15.3272 17L13.6759 12.0369L18 8.96845Z" fill="white"/>
<path d="M14.0472 13.1611L13.6759 12.0369L11.0027 13.9315L14.0472 13.1611Z" fill="#00B67A"/>
<rect width="22" height="21" transform="translate(24)" fill="#00B67A"/>
<path d="M42 8.96845H36.654L35.0027 4L33.3456 8.96887L28 8.96347L32.3295 12.0369L30.6732 17L35.0027 13.9315L39.3272 17L37.6759 12.0369L42 8.96845Z" fill="white"/>
<path d="M38.0472 13.1611L37.6759 12.0369L35.0027 13.9315L38.0472 13.1611Z" fill="#00B67A"/>
<rect width="22" height="21" transform="translate(48)" fill="#00B67A"/>
<path d="M66 8.96845H60.654L59.0027 4L57.3456 8.96887L52 8.96347L56.3295 12.0369L54.6732 17L59.0027 13.9315L63.3272 17L61.6759 12.0369L66 8.96845Z" fill="white"/>
<path d="M62.0472 13.1611L61.6759 12.0369L59.0027 13.9315L62.0472 13.1611Z" fill="#00B67A"/>
<rect width="22" height="21" transform="translate(72)" fill="#00B67A"/>
<path d="M90 8.96845H84.654L83.0027 4L81.3456 8.96887L76 8.96347L80.3295 12.0369L78.6732 17L83.0027 13.9315L87.3272 17L85.6759 12.0369L90 8.96845Z" fill="white"/>
<path d="M86.0472 13.1611L85.6759 12.0369L83.0027 13.9315L86.0472 13.1611Z" fill="#00B67A"/>
<rect width="22" height="21" transform="translate(96)" fill="#00B67A"/>
<path d="M114 8.96845H108.654L107.003 4L105.346 8.96887L100 8.96347L104.33 12.0369L102.673 17L107.003 13.9315L111.327 17L109.676 12.0369L114 8.96845Z" fill="white"/>
<path d="M110.047 13.1611L109.676 12.0369L107.003 13.9315L110.047 13.1611Z" fill="#00B67A"/>
</svg>
