<svg width="305" height="28" viewBox="0 0 305 28" fill="none" xmlns="http://www.w3.org/2000/svg">
<path d="M9.58387 8.12106C9.03761 7.43965 8.44296 6.92549 7.79994 6.58602C7.14789 6.24066 6.44479 6.06477 5.7348 6.06938C4.14135 6.06938 2.78879 6.81894 1.67307 8.31186C0.558362 9.80478 0.00201575 11.7214 0 14.0593C0 16.3142 0.574488 18.2035 1.72548 19.7188C2.87647 21.2389 4.24113 21.9984 5.81745 21.9984C6.48924 22.0073 7.15559 21.8497 7.77676 21.535C8.38047 21.2241 8.98117 20.7173 9.57984 20.0087V21.6131H12.6609V6.46708H9.58488L9.58387 8.12106ZM8.7675 17.2694C8.13455 18.1032 7.33631 18.5145 6.3748 18.517C5.44252 18.517 4.65739 18.0933 4.02142 17.2446C3.38444 16.3984 3.06494 15.3181 3.06494 14.0085C3.06494 12.7027 3.38041 11.6372 4.00529 10.8034C4.63219 9.9708 5.41833 9.55823 6.36573 9.55823C7.33632 9.55823 8.13858 9.96708 8.77153 10.7848C9.40548 11.605 9.61008 12.5379 9.60806 13.8573C9.60806 15.2078 9.40347 16.4381 8.7675 17.2694ZM30.333 8.12106C29.8251 7.47235 29.2196 6.95103 28.55 6.58602C27.8969 6.24085 27.1928 6.06497 26.4819 6.06938C24.8925 6.06938 23.5359 6.81894 22.4222 8.31186C21.3075 9.80602 20.7511 11.7227 20.7491 14.0605C20.7471 16.3154 21.3216 18.2048 22.4746 19.72C23.6256 21.2402 24.9902 21.9996 26.5696 21.9996C27.2401 22.0085 27.9051 21.8509 28.5249 21.5363C29.1276 21.2253 29.7283 20.7186 30.3269 20.0099V21.6143H33.408V6.46708H30.333V8.12106ZM29.5166 17.2694C28.8837 18.1032 28.0834 18.5145 27.1259 18.517C26.1916 18.517 25.4065 18.0933 24.7685 17.2446C24.1315 16.3984 23.812 15.3181 23.814 14.0085C23.8161 12.7027 24.1265 11.6372 24.7544 10.8034C25.3813 9.9708 26.1674 9.55823 27.1148 9.55823C28.0834 9.55823 28.8857 9.96708 29.5206 10.7848C30.1546 11.605 30.3572 12.5379 30.3552 13.8573C30.3552 15.2078 30.1526 16.4381 29.5166 17.2694ZM51.9509 6.83628C51.2887 6.33451 50.5237 6.08425 49.6509 6.08425C48.8386 6.07369 48.0372 6.31485 47.3207 6.78549C46.6101 7.25257 46.0105 7.93398 45.5196 8.83469C45.1467 7.93398 44.6508 7.25009 44.036 6.78301C43.4118 6.31219 42.6922 6.06742 41.9598 6.07681C41.1999 6.07681 40.4994 6.25398 39.8554 6.6108C39.2123 6.96513 38.6278 7.50283 38.1017 8.22389V6.46708H35.0176L35.0146 21.6143H38.0956L38.0976 14.8943C38.0997 13.4411 38.2035 12.3756 38.4101 11.6991C38.6197 11.0239 38.9322 10.4998 39.3504 10.1219C39.7707 9.75027 40.2353 9.56071 40.7494 9.56071C41.2079 9.56195 41.602 9.71062 41.9266 10.0067C42.2511 10.3041 42.493 10.7563 42.6552 11.3621C42.8175 11.9692 42.8991 12.948 42.8991 14.3021L42.8931 21.6143H45.9782V14.8014C45.9822 13.3568 46.084 12.3087 46.2866 11.657C46.4922 11.0028 46.8047 10.4949 47.2229 10.1219C47.6366 9.75417 48.1356 9.55998 48.646 9.56814C49.3405 9.56814 49.8575 9.87292 50.2072 10.4763C50.556 11.0858 50.7283 12.2455 50.7283 13.9552L50.7243 21.6143H53.8064L53.8104 12.7435C53.8104 10.9235 53.6663 9.60903 53.377 8.80248C53.0898 7.99345 52.614 7.33805 51.9509 6.83628ZM64.5674 17.1492C63.743 18.1577 62.7563 18.6619 61.6093 18.6619C60.6478 18.6607 59.8617 18.3349 59.2408 17.6906C58.621 17.0464 58.242 16.1791 58.0979 15.0864L67.9841 15.0938L67.9962 14.3727C67.9962 11.8763 67.3935 9.87044 66.1831 8.34531C64.9756 6.82637 63.4054 6.06566 61.4712 6.06195C59.653 6.06195 58.1382 6.82389 56.9348 8.35398C55.7264 9.87788 55.1237 11.797 55.1237 14.1076C55.1216 16.3662 55.7264 18.2407 56.9328 19.7398C58.1382 21.2427 59.7054 21.991 61.6255 21.991C62.8651 21.991 63.9325 21.7209 64.8355 21.177C65.7346 20.6356 66.5086 19.7943 67.1536 18.6619L64.5674 17.1492ZM59.3708 10.1864C60.0179 9.60035 60.7718 9.3092 61.6285 9.31168C62.4217 9.31168 63.1161 9.57186 63.7107 10.0922C64.3114 10.6163 64.7116 11.294 64.9141 12.1265L58.242 12.1216C58.5867 11.1986 58.9647 10.5519 59.3708 10.1876M75.2983 13.5984L79.4638 6.4646H75.9504L73.5385 10.594L71.1186 6.4646H67.5497L71.7576 13.6405L67.1053 21.6143H70.6187L73.5163 16.6487L76.4291 21.6143H80L75.2983 13.5984ZM20.0789 6C19.5084 6 19.0105 6.13257 18.5953 6.38903C18.1851 6.64177 17.7144 7.10265 17.1843 7.77912V6.46584H14.2413V21.6143H17.3233L17.3213 13.7359C17.3213 10.8492 17.9704 9.40088 19.5417 9.40088C19.8138 9.40088 20.092 9.47398 20.3722 9.60283C20.8781 8.56212 21.4627 7.5846 22.1158 6.68389C21.4123 6.23912 20.733 6 20.0789 6Z" fill="#E12626"/>
<path fill-rule="evenodd" clip-rule="evenodd" d="M162.896 23.764L160.069 20.614L157.268 23.764H151.376L157.135 17.3326L151.376 10.9011H157.453L160.307 14.0252L163.055 10.9011H168.92L163.187 17.3058L169 23.764H162.896ZM140.053 23.764V3.5H151.376V8.01719H144.848V10.9011H151.376V15.246H144.848V19.235H151.376V23.764H140.053Z" fill="#FF7A08"/>
<path fill-rule="evenodd" clip-rule="evenodd" d="M135.279 3.5V11.7931H135.225C134.168 10.5855 132.847 10.166 131.315 10.166C128.149 10.166 125.797 12.3323 124.986 15.171C124.054 12.0408 121.618 10.1077 117.97 10.1077C115.008 10.1077 112.701 11.4565 111.496 13.6219V10.9006H105.419V8.01675H112.051V3.5H100V23.764H105.419V15.246H110.85C110.686 15.8764 110.572 16.5352 110.572 17.2493C110.572 21.4763 113.821 24.443 117.97 24.443C121.459 24.443 123.757 22.8154 124.974 19.8491H120.331C119.703 20.742 119.225 21.005 117.969 21.005C116.514 21.005 115.259 19.7439 115.259 18.2469H124.739C125.152 21.6016 127.756 24.5 131.367 24.5C132.926 24.5 134.353 23.7399 135.225 22.4529H135.279V23.7644H140.054V3.5H135.279ZM115.41 15.3065C115.71 14.0191 116.715 13.1787 117.969 13.1787C119.351 13.1787 120.305 13.9945 120.555 15.3065H115.41ZM132.379 20.6793C130.619 20.6793 129.525 19.0487 129.525 17.3483C129.525 15.5292 130.476 13.7802 132.379 13.7802C134.353 13.7802 135.138 15.5292 135.138 17.3483C135.138 19.0728 134.305 20.6793 132.379 20.6793Z" fill="#462895"/>
<path d="M262 3V18.7072H189V3H262Z" fill="#FFCC00"/>
<path d="M201.837 5.82043L199.505 8.90987H212.216C212.859 8.90987 212.85 9.1479 212.536 9.56271C212.217 9.98379 211.683 10.7161 211.359 11.1438C211.194 11.3609 210.896 11.7564 211.883 11.7564H217.081C217.081 11.7564 217.919 10.6448 218.621 9.71537C219.577 8.45125 218.704 5.82056 215.289 5.82056L201.837 5.82043Z" fill="#D2002E"/>
<path d="M198.562 15.8855L203.246 9.67937H209.059C209.702 9.67937 209.694 9.91741 209.38 10.3322C209.061 10.7533 208.518 11.4778 208.193 11.9056C208.028 12.1226 207.73 12.5187 208.718 12.5187H216.506C215.858 13.3839 213.757 15.8854 209.985 15.8854L198.562 15.8855ZM225.39 12.518L222.85 15.8852H216.149C216.149 15.8852 218.688 12.5187 218.69 12.5187L225.39 12.518ZM235.656 11.7564H219.266L223.748 5.82047H230.447L227.878 9.22414H230.868L233.438 5.82047H240.137L235.656 11.7564ZM235.081 12.5188L232.539 15.8855H225.841C225.841 15.8855 228.38 12.5188 228.382 12.5188H235.081ZM189 13.8464H198.872L198.333 14.5616H189V13.8464ZM189 12.5188H199.875L199.335 13.2331H189V12.5188ZM189 15.1746H197.87L197.333 15.8855H189V15.1746ZM262 14.5616H252.166L252.706 13.8465H262V14.5616ZM262 15.8855L251.166 15.8865L251.703 15.1746H262V15.8855ZM253.707 12.5188H262V13.2334L253.168 13.2341L253.707 12.5188ZM249.414 5.82047L244.933 11.7563H237.834C237.834 11.7563 242.317 5.82047 242.319 5.82047H249.414ZM237.26 12.5188C237.26 12.5188 236.77 13.1713 236.533 13.4849C235.691 14.5937 236.435 15.8855 239.181 15.8855H249.939L252.481 12.5188H237.26Z" fill="#D2002E"/>
<path d="M189 21.2608H262V21.6166H189V21.2608ZM189 22.9211H262V23.2769H189V22.9211ZM189 24.5811H262V24.9369H189V24.5811Z" fill="#FFCC00"/>
<path d="M213.514 24.9367H215.711L216.061 24.4733H214.426L215.343 23.262H216.832L217.183 22.7985H215.694L216.507 21.7244H218.142L218.493 21.2608H216.296L213.514 24.9367ZM216.21 24.9367H216.884L219.182 23.3779L219.16 24.9367H219.868L219.873 23.0146L222.52 21.2608H221.88L219.772 22.6722L219.795 21.2608H219.121L219.101 23.0251L216.21 24.9367ZM223.371 21.7244H223.849C224.197 21.7244 224.586 21.8928 224.235 22.3562C223.869 22.8406 223.307 23.0039 222.959 23.0039H222.402L223.371 21.7244ZM220.378 24.9367H220.939L222.051 23.4674H222.602C223.31 23.4674 224.209 23.1778 224.827 22.3614C225.461 21.524 224.991 21.2606 224.188 21.2606H223.16L220.378 24.9367ZM223.613 24.9367H224.175L225.411 23.3041H225.748C226.045 23.3041 226.231 23.3041 226.134 23.6622L225.771 24.9367H226.411L226.778 23.4726C226.826 23.2462 226.801 23.1673 226.675 23.1039L226.683 23.0933C227.194 23.0195 227.787 22.7036 228.126 22.2559C228.791 21.3766 228.132 21.2606 227.356 21.2606H226.395L223.613 24.9367ZM226.607 21.7244H227.146C227.663 21.7244 227.773 21.935 227.522 22.2666C227.255 22.6196 226.773 22.8406 226.239 22.8406H225.761L226.607 21.7244ZM226.993 24.9367H229.19L229.541 24.4733H227.906L228.823 23.262H230.312L230.662 22.7985H229.173L229.986 21.7244H231.621L231.972 21.2608H229.775L226.993 24.9367ZM234.678 21.3293C234.477 21.2398 234.199 21.1976 233.941 21.1976C233.233 21.1976 232.419 21.5453 231.925 22.1983C231.06 23.3411 232.917 23.1147 232.295 23.9362C231.968 24.3679 231.391 24.5366 231.071 24.5366C230.784 24.5366 230.527 24.4311 230.392 24.3573L229.965 24.8472C230.164 24.9262 230.378 25 230.653 25C231.44 25 232.321 24.6889 232.915 23.9042C233.831 22.6932 232.022 22.8562 232.556 22.1507C232.848 21.7663 233.298 21.661 233.613 21.661C233.905 21.661 234.026 21.7085 234.233 21.8137L234.678 21.3293ZM237.488 21.3293C237.286 21.2398 237.009 21.1976 236.75 21.1976C236.042 21.1976 235.229 21.5453 234.734 22.1983C233.869 23.3411 235.726 23.1147 235.104 23.9362C234.778 24.3679 234.2 24.5366 233.88 24.5366C233.594 24.5366 233.336 24.4311 233.201 24.3573L232.774 24.8472C232.973 24.9262 233.187 25 233.462 25C234.249 25 235.13 24.6889 235.724 23.9042C236.641 22.6932 234.832 22.8562 235.366 22.1507C235.657 21.7663 236.107 21.661 236.422 21.661C236.714 21.661 236.836 21.7085 237.042 21.8137L237.488 21.3293Z" fill="#D2002E"/>
<path d="M293.5 27.7022C293.733 27.5831 299.804 24.9027 301.731 23.2945C303.716 21.6267 304.766 19.2442 304.766 16.3851V2.98327L304.591 2.92371C299.746 0.243338 293.733 0.422029 293.442 0.422029C293.208 0.422029 287.195 0.243338 282.35 2.92371L282.233 2.98327V16.4447C282.233 19.3037 283.284 21.6863 285.269 23.3541C287.195 24.9623 293.266 27.6427 293.5 27.7022Z" fill="#341B14"/>
<path d="M293.5 28C293.5 28 287.079 25.1409 285.094 23.5327C282.992 21.7458 282 19.3037 282 16.5042V2.56628C287.079 -0.233214 293.5 0.00504075 293.5 0.00504075C293.5 0.00504075 299.921 -0.233214 305 2.56628V16.4446C305 19.2441 304.008 21.6862 301.906 23.4732C299.921 25.1409 293.5 28 293.5 28ZM282.934 16.5042C282.934 19.125 283.868 21.2693 285.678 22.7584C287.312 24.1284 292.157 26.3322 293.5 26.9279C294.843 26.3322 299.746 24.0688 301.322 22.7584C303.132 21.2693 304.066 19.0654 304.066 16.5042V2.80454C297.294 2.14934 289.239 2.50672 282.934 8.46309V16.5042Z" fill="#FFB406"/>
<path d="M299.98 14.5383C300.856 15.0744 301.206 15.4318 301.264 16.087C301.264 16.8017 300.797 17.2187 300.038 17.2187C299.396 17.2187 298.637 16.8613 298.112 16.3848V18.2908C298.754 18.6482 299.513 18.946 300.33 18.946C302.315 18.946 303.249 17.5165 303.249 16.2061C303.307 15.0148 302.957 14.0618 301.264 13.0492C300.505 12.5727 299.922 12.2749 299.922 11.5601C299.922 10.8454 300.564 10.5476 301.089 10.5476C301.79 10.5476 302.49 10.9645 302.899 11.3814V9.59453C302.549 9.29672 301.79 8.87977 300.681 8.93933C299.338 8.9989 297.937 9.95192 297.937 11.6197C297.995 12.7514 298.346 13.5853 299.98 14.5383ZM293.092 18.8269C293.267 18.8865 293.559 18.946 294.026 18.946C296.302 18.946 297.587 16.8613 297.587 13.8831C297.587 10.8454 296.244 8.9989 293.851 8.9989C292.741 8.9989 291.866 9.23715 291.107 9.71366V23.1751H293.092V18.8269ZM293.092 10.7262C293.267 10.6667 293.559 10.5476 293.792 10.5476C294.96 10.5476 295.427 11.5006 295.427 13.8236C295.427 16.087 294.843 17.1591 293.675 17.1591C293.384 17.1591 293.15 17.0996 293.033 17.04V10.7262H293.092ZM286.962 18.946C288.188 18.946 289.239 18.6482 289.998 18.1121V9.11802H287.955V16.9209C287.721 17.0996 287.429 17.1591 287.021 17.1591C286.087 17.1591 285.97 16.2657 285.97 15.7296V9.11802H283.927V15.6105C283.927 17.8143 284.978 18.946 286.962 18.946Z" fill="#FFB406"/>
</svg>
