<svg width="95" height="15" viewBox="0 0 95 15" fill="none" xmlns="http://www.w3.org/2000/svg">
<g clip-path="url(#clip0_3153_659)">
<path d="M7.5 11.8578L10.8949 13.8528C11.5166 14.2184 12.2774 13.678 12.1138 12.9944L11.2139 9.24284L14.2162 6.7153C14.7643 6.2543 14.4698 5.37999 13.7499 5.32435L9.79871 4.99848L8.2526 1.45356C7.97447 0.809751 7.02553 0.809751 6.7474 1.45356L5.20129 4.99053L1.25011 5.31641C0.530233 5.37204 0.235736 6.24635 0.783828 6.70735L3.78606 9.23489L2.88621 12.9865C2.7226 13.67 3.48339 14.2105 4.1051 13.8449L7.5 11.8578Z" fill="#F3D869"/>
</g>
<g clip-path="url(#clip1_3153_659)">
<path d="M27.5 11.8578L30.8949 13.8528C31.5166 14.2184 32.2774 13.678 32.1138 12.9944L31.2139 9.24284L34.2162 6.7153C34.7643 6.2543 34.4698 5.37999 33.7499 5.32435L29.7987 4.99848L28.2526 1.45356C27.9745 0.809751 27.0255 0.809751 26.7474 1.45356L25.2013 4.99053L21.2501 5.31641C20.5302 5.37204 20.2357 6.24635 20.7838 6.70735L23.7861 9.23489L22.8862 12.9865C22.7226 13.67 23.4834 14.2105 24.1051 13.8449L27.5 11.8578Z" fill="#F3D869"/>
</g>
<g clip-path="url(#clip2_3153_659)">
<path d="M47.5 11.8578L50.8949 13.8528C51.5166 14.2184 52.2774 13.678 52.1138 12.9944L51.2139 9.24284L54.2162 6.7153C54.7643 6.2543 54.4698 5.37999 53.7499 5.32435L49.7987 4.99848L48.2526 1.45356C47.9745 0.809751 47.0255 0.809751 46.7474 1.45356L45.2013 4.99053L41.2501 5.31641C40.5302 5.37204 40.2357 6.24635 40.7838 6.70735L43.7861 9.23489L42.8862 12.9865C42.7226 13.67 43.4834 14.2105 44.1051 13.8449L47.5 11.8578Z" fill="#F3D869"/>
</g>
<g clip-path="url(#clip3_3153_659)">
<path d="M67.5 11.8578L70.8949 13.8528C71.5166 14.2184 72.2774 13.678 72.1138 12.9944L71.2139 9.24284L74.2162 6.7153C74.7643 6.2543 74.4698 5.37999 73.7499 5.32435L69.7987 4.99848L68.2526 1.45356C67.9745 0.809751 67.0255 0.809751 66.7474 1.45356L65.2013 4.99053L61.2501 5.31641C60.5302 5.37204 60.2357 6.24635 60.7838 6.70735L63.7861 9.23489L62.8862 12.9865C62.7226 13.67 63.4834 14.2105 64.1051 13.8449L67.5 11.8578Z" fill="#F3D869"/>
</g>
<g clip-path="url(#clip4_3153_659)">
<path d="M87.5 11.8578L90.8949 13.8528C91.5166 14.2184 92.2774 13.678 92.1138 12.9944L91.2139 9.24284L94.2162 6.7153C94.7643 6.2543 94.4698 5.37999 93.7499 5.32435L89.7987 4.99848L88.2526 1.45356C87.9745 0.809751 87.0255 0.809751 86.7474 1.45356L85.2013 4.99053L81.2501 5.31641C80.5302 5.37204 80.2357 6.24635 80.7838 6.70735L83.7861 9.23489L82.8862 12.9865C82.7226 13.67 83.4834 14.2105 84.1051 13.8449L87.5 11.8578Z" fill="#F3D869"/>
</g>
<defs>
<clipPath id="clip0_3153_659">
<rect width="14" height="14" fill="white" transform="translate(0.5 0.5)"/>
</clipPath>
<clipPath id="clip1_3153_659">
<rect width="14" height="14" fill="white" transform="translate(20.5 0.5)"/>
</clipPath>
<clipPath id="clip2_3153_659">
<rect width="14" height="14" fill="white" transform="translate(40.5 0.5)"/>
</clipPath>
<clipPath id="clip3_3153_659">
<rect width="14" height="14" fill="white" transform="translate(60.5 0.5)"/>
</clipPath>
<clipPath id="clip4_3153_659">
<rect width="14" height="14" fill="white" transform="translate(80.5 0.5)"/>
</clipPath>
</defs>
</svg>
