<svg width="87" height="26" viewBox="0 0 87 26" fill="none" xmlns="http://www.w3.org/2000/svg">
<g clip-path="url(#clip0_1326_1151)">
<path d="M53.9611 20.3119C48.9114 23.9972 41.5922 25.9635 35.2906 25.9635C26.4546 25.9635 18.4999 22.7275 12.4819 17.3456C12.0091 16.9224 12.4327 16.3456 13.0001 16.6752C19.4947 20.4167 27.525 22.6676 35.8201 22.6676C41.4145 22.6676 47.5686 21.5216 53.2273 19.1433C54.0822 18.7838 54.7971 19.6976 53.9611 20.3119Z" fill="#FF9900"/>
<path d="M56.0604 17.934C55.4174 17.1175 51.7937 17.5482 50.1672 17.7392C49.6717 17.7992 49.5961 17.3722 50.0424 17.0651C52.9285 15.0539 57.6642 15.6344 58.2165 16.3085C58.7687 16.9864 58.0727 21.6867 55.3607 23.9302C54.9446 24.2747 54.5474 24.0912 54.7328 23.6343C55.3417 22.1287 56.7072 18.7542 56.0604 17.934Z" fill="#FF9900"/>
<path d="M50.2807 2.86639V0.911367C50.2807 0.615491 50.5077 0.416992 50.78 0.416992H59.6198C59.9035 0.416992 60.1304 0.619237 60.1304 0.911367V2.5855C60.1267 2.86639 59.8884 3.23343 59.4647 3.81395L54.8841 10.2895C56.5862 10.2483 58.3829 10.4992 59.9262 11.3607C60.2742 11.5554 60.3687 11.84 60.3952 12.1209V14.2071C60.3952 14.4917 60.0775 14.825 59.7446 14.6527C57.025 13.2408 53.4127 13.0872 50.4055 14.6677C50.0992 14.8325 49.7776 14.5029 49.7776 14.2183V12.237C49.7776 11.9187 49.7814 11.3756 50.1029 10.8925L55.4098 3.35702H50.7914C50.5077 3.35702 50.2807 3.15853 50.2807 2.86639Z" fill="white"/>
<path d="M18.0347 15.0647H15.3453C15.0881 15.0459 14.8838 14.8549 14.8649 14.6115V0.945033C14.8649 0.671628 15.0956 0.454401 15.3831 0.454401H17.8909C18.1519 0.46563 18.36 0.664136 18.3789 0.911323V2.69782H18.428C19.0824 0.971247 20.3117 0.166016 21.9685 0.166016C23.6517 0.166016 24.7033 0.971247 25.4598 2.69782C26.1104 0.971247 27.5893 0.166016 29.1742 0.166016C30.3014 0.166016 31.5345 0.626683 32.2872 1.66038C33.1383 2.81017 32.9643 4.48056 32.9643 5.94496L32.9605 14.5703C32.9605 14.8437 32.7298 15.0647 32.4423 15.0647H29.7567C29.4882 15.0459 29.2726 14.8325 29.2726 14.5703V7.32696C29.2726 6.75019 29.3255 5.31201 29.1969 4.7652C28.9964 3.84761 28.395 3.58919 27.6158 3.58919C26.9652 3.58919 26.2844 4.01989 26.0082 4.70902C25.7321 5.39815 25.7586 6.55169 25.7586 7.32696V14.5703C25.7586 14.8437 25.5278 15.0647 25.2404 15.0647H22.5548C22.2824 15.0459 22.0706 14.8325 22.0706 14.5703L22.0668 7.32696C22.0668 5.80264 22.3203 3.55922 20.4101 3.55922C18.4772 3.55922 18.5529 5.74646 18.5529 7.32696V14.5703C18.5529 14.8437 18.3221 15.0647 18.0347 15.0647Z" fill="white"/>
<path d="M67.7409 0.166016C71.7315 0.166016 73.8913 3.55922 73.8913 7.87377C73.8913 12.0422 71.5045 15.3493 67.7409 15.3493C63.8222 15.3493 61.6888 11.9561 61.6888 7.7277C61.6888 3.47308 63.8487 0.166016 67.7409 0.166016ZM67.7636 2.95624C65.7815 2.95624 65.6567 5.63035 65.6567 7.297C65.6567 8.96739 65.6302 12.5329 67.7409 12.5329C69.8251 12.5329 69.9234 9.65652 69.9234 7.90373C69.9234 6.75019 69.8742 5.37193 69.5225 4.27831C69.2199 3.32702 68.6184 2.95624 67.7636 2.95624Z" fill="white"/>
<path d="M79.0658 15.0647H76.3878C76.1192 15.0459 75.9036 14.8325 75.9036 14.5703L75.8998 0.900087C75.9225 0.649154 76.1457 0.454401 76.418 0.454401H78.9107C79.1452 0.46563 79.3381 0.622938 79.3911 0.836418V2.92627H79.4403C80.193 1.05739 81.2483 0.166016 83.1055 0.166016C84.3122 0.166016 85.4885 0.596721 86.245 1.77648C86.9486 2.8701 86.9486 4.70902 86.9486 6.0311V14.634C86.9183 14.8737 86.6951 15.0647 86.4304 15.0647H83.7334C83.4876 15.0459 83.2833 14.8662 83.2568 14.634V7.21086C83.2568 5.7165 83.4308 3.52926 81.5736 3.52926C80.9192 3.52926 80.3178 3.96371 80.019 4.62288C79.6407 5.45807 79.5916 6.28952 79.5916 7.21086V14.5703C79.5878 14.8437 79.3533 15.0647 79.0658 15.0647Z" fill="white"/>
<path d="M43.2339 8.53691V7.96013C41.2897 7.96013 39.2357 8.37211 39.2357 10.6417C39.2357 11.7915 39.8372 12.5706 40.8698 12.5706C41.6263 12.5706 42.3034 12.1099 42.7308 11.3608C43.2604 10.4395 43.2339 9.57434 43.2339 8.53691ZM45.946 15.0274C45.7682 15.1847 45.511 15.196 45.3105 15.0911C44.4178 14.357 44.2589 14.0162 43.7672 13.3159C42.292 14.8065 41.2481 15.2522 39.3341 15.2522C37.0721 15.2522 35.3095 13.8702 35.3095 11.1024C35.3095 8.94139 36.4934 7.4695 38.1766 6.75041C39.6367 6.11372 41.6755 6.00136 43.2339 5.82534V5.48077C43.2339 4.84782 43.2831 4.09877 42.9086 3.55196C42.5795 3.06133 41.9516 2.85908 41.3994 2.85908C40.3743 2.85908 39.4589 3.37968 39.2357 4.45831C39.1904 4.69801 39.0126 4.93396 38.7705 4.9452L36.1605 4.66805C35.9412 4.61936 35.6991 4.44333 35.7596 4.11001C36.361 0.978965 39.2168 0.0351562 41.7738 0.0351562C43.0826 0.0351562 44.7923 0.379721 45.8249 1.36098C47.1337 2.5707 47.0088 4.18491 47.0088 5.94144V10.0912C47.0088 11.3384 47.5308 11.8852 48.0226 12.5593C48.1966 12.799 48.2344 13.0874 48.015 13.2672C47.4665 13.7204 46.4906 14.563 45.9535 15.0349L45.946 15.0274Z" fill="white"/>
<path d="M7.97691 8.53691V7.96013C6.03268 7.96013 3.97877 8.37211 3.97877 10.6417C3.97877 11.7915 4.58019 12.5706 5.61282 12.5706C6.36933 12.5706 7.0464 12.1099 7.47383 11.3608C8.00338 10.4395 7.97691 9.57434 7.97691 8.53691ZM10.689 15.0274C10.5112 15.1847 10.254 15.196 10.0535 15.0911C9.16084 14.357 9.00197 14.0162 8.51024 13.3159C7.03505 14.8065 5.99108 15.2522 4.07712 15.2522C1.81516 15.2522 0.0525055 13.8702 0.0525055 11.1024C0.0525055 8.94139 1.23644 7.4695 2.91966 6.75041C4.37972 6.11372 6.4185 6.00136 7.97691 5.82534V5.48077C7.97691 4.84782 8.02608 4.09877 7.65161 3.55196C7.32253 3.06133 6.69463 2.85908 6.14238 2.85908C5.11731 2.85908 4.20194 3.37968 3.97877 4.45831C3.93338 4.69801 3.7556 4.93396 3.51352 4.9452L0.903575 4.66805C0.684188 4.61936 0.442105 4.44333 0.502626 4.11001C1.10405 0.978965 3.95986 0.0351562 6.51685 0.0351562C7.8256 0.0351562 9.53531 0.379721 10.5679 1.36098C11.8767 2.5707 11.7519 4.18491 11.7519 5.94144V10.0912C11.7519 11.3384 12.2739 11.8852 12.7656 12.5593C12.9396 12.799 12.9774 13.0874 12.758 13.2672C12.2096 13.7204 11.2337 14.563 10.6965 15.0349L10.689 15.0274Z" fill="white"/>
</g>
<defs>
<clipPath id="clip0_1326_1151">
<rect width="87" height="26" fill="white"/>
</clipPath>
</defs>
</svg>
