<svg width="87" height="26" viewBox="0 0 87 26" fill="none" xmlns="http://www.w3.org/2000/svg">
<g clip-path="url(#clip0_1443_9)">
<path d="M53.9611 20.3121C48.9114 23.9974 41.5922 25.9637 35.2906 25.9637C26.4546 25.9637 18.4999 22.7278 12.4819 17.3458C12.0091 16.9226 12.4327 16.3459 13.0001 16.6754C19.4947 20.417 27.525 22.6679 35.8201 22.6679C41.4145 22.6679 47.5686 21.5218 53.2273 19.1436C54.0822 18.784 54.7971 19.6979 53.9611 20.3121Z" fill="#FF9900"/>
<path d="M56.0604 17.9337C55.4174 17.1173 51.7937 17.548 50.1672 17.739C49.6717 17.7989 49.5961 17.372 50.0424 17.0648C52.9285 15.0536 57.6642 15.6341 58.2165 16.3083C58.7687 16.9862 58.0727 21.6865 55.3607 23.9299C54.9446 24.2745 54.5474 24.091 54.7328 23.634C55.3417 22.1284 56.7072 18.754 56.0604 17.9337Z" fill="#FF9900"/>
<path d="M50.2807 2.86664V0.911611C50.2807 0.615735 50.5077 0.417236 50.78 0.417236H59.6198C59.9035 0.417236 60.1304 0.619481 60.1304 0.911611V2.58574C60.1267 2.86664 59.8884 3.23367 59.4647 3.81419L54.8841 10.2898C56.5862 10.2486 58.3829 10.4995 59.9262 11.3609C60.2742 11.5556 60.3687 11.8403 60.3952 12.1212V14.2073C60.3952 14.4919 60.0775 14.8253 59.7446 14.653C57.025 13.241 53.4127 13.0875 50.4055 14.668C50.0992 14.8328 49.7776 14.5032 49.7776 14.2185V12.2373C49.7776 11.9189 49.7814 11.3759 50.1029 10.8927L55.4098 3.35727H50.7914C50.5077 3.35727 50.2807 3.15877 50.2807 2.86664Z" fill="white"/>
<path d="M18.0347 15.0649H15.3453C15.0881 15.0462 14.8838 14.8552 14.8649 14.6117V0.945277C14.8649 0.671873 15.0956 0.454645 15.3831 0.454645H17.8909C18.1519 0.465874 18.36 0.66438 18.3789 0.911567V2.69806H18.428C19.0824 0.971491 20.3117 0.16626 21.9685 0.16626C23.6517 0.16626 24.7033 0.971491 25.4598 2.69806C26.1104 0.971491 27.5893 0.16626 29.1742 0.16626C30.3014 0.16626 31.5345 0.626927 32.2872 1.66062C33.1383 2.81042 32.9643 4.4808 32.9643 5.9452L32.9605 14.5705C32.9605 14.8439 32.7298 15.0649 32.4423 15.0649H29.7567C29.4882 15.0462 29.2726 14.8327 29.2726 14.5705V7.3272C29.2726 6.75043 29.3255 5.31225 29.1969 4.76544C28.9964 3.84786 28.395 3.58943 27.6158 3.58943C26.9652 3.58943 26.2844 4.02014 26.0082 4.70927C25.7321 5.39839 25.7586 6.55193 25.7586 7.3272V14.5705C25.7586 14.8439 25.5278 15.0649 25.2404 15.0649H22.5548C22.2824 15.0462 22.0706 14.8327 22.0706 14.5705L22.0668 7.3272C22.0668 5.80288 22.3203 3.55947 20.4101 3.55947C18.4772 3.55947 18.5529 5.7467 18.5529 7.3272V14.5705C18.5529 14.8439 18.3221 15.0649 18.0347 15.0649Z" fill="white"/>
<path d="M67.7409 0.16626C71.7314 0.16626 73.8913 3.55947 73.8913 7.87401C73.8913 12.0425 71.5045 15.3496 67.7409 15.3496C63.8222 15.3496 61.6888 11.9563 61.6888 7.72795C61.6888 3.47333 63.8487 0.16626 67.7409 0.16626ZM67.7636 2.95648C65.7815 2.95648 65.6567 5.6306 65.6567 7.29724C65.6567 8.96763 65.6302 12.5331 67.7409 12.5331C69.8251 12.5331 69.9234 9.65676 69.9234 7.90397C69.9234 6.75043 69.8742 5.37218 69.5224 4.27856C69.2198 3.32726 68.6184 2.95648 67.7636 2.95648Z" fill="white"/>
<path d="M79.0658 15.0649H76.3878C76.1192 15.0462 75.9036 14.8327 75.9036 14.5705L75.8998 0.900331C75.9225 0.649398 76.1457 0.454645 76.418 0.454645H78.9107C79.1452 0.465874 79.3381 0.623183 79.3911 0.836663V2.92652H79.4403C80.193 1.05763 81.2483 0.16626 83.1055 0.16626C84.3122 0.16626 85.4885 0.596965 86.245 1.77672C86.9486 2.87034 86.9486 4.70927 86.9486 6.03134V14.6342C86.9183 14.8739 86.6951 15.0649 86.4304 15.0649H83.7334C83.4876 15.0462 83.2833 14.8664 83.2568 14.6342V7.2111C83.2568 5.71674 83.4308 3.52951 81.5736 3.52951C80.9192 3.52951 80.3178 3.96396 80.019 4.62312C79.6407 5.45832 79.5916 6.28977 79.5916 7.2111V14.5705C79.5878 14.8439 79.3533 15.0649 79.0658 15.0649Z" fill="white"/>
<path d="M43.2339 8.53691V7.96013C41.2897 7.96013 39.2357 8.37211 39.2357 10.6417C39.2357 11.7915 39.8372 12.5706 40.8698 12.5706C41.6263 12.5706 42.3034 12.1099 42.7308 11.3608C43.2604 10.4395 43.2339 9.57434 43.2339 8.53691ZM45.946 15.0274C45.7682 15.1847 45.511 15.196 45.3105 15.0911C44.4178 14.357 44.2589 14.0162 43.7672 13.3159C42.292 14.8065 41.2481 15.2522 39.3341 15.2522C37.0721 15.2522 35.3095 13.8702 35.3095 11.1024C35.3095 8.94139 36.4934 7.4695 38.1766 6.75041C39.6367 6.11372 41.6755 6.00136 43.2339 5.82534V5.48077C43.2339 4.84782 43.2831 4.09877 42.9086 3.55196C42.5795 3.06133 41.9516 2.85908 41.3994 2.85908C40.3743 2.85908 39.4589 3.37968 39.2357 4.45831C39.1904 4.69801 39.0126 4.93396 38.7705 4.9452L36.1605 4.66805C35.9412 4.61936 35.6991 4.44333 35.7596 4.11001C36.361 0.978965 39.2168 0.0351562 41.7738 0.0351562C43.0826 0.0351562 44.7923 0.379721 45.8249 1.36098C47.1337 2.5707 47.0088 4.18491 47.0088 5.94144V10.0912C47.0088 11.3384 47.5308 11.8852 48.0226 12.5593C48.1966 12.799 48.2344 13.0874 48.015 13.2672C47.4665 13.7204 46.4906 14.563 45.9535 15.0349L45.946 15.0274Z" fill="white"/>
<path d="M7.97691 8.53691V7.96013C6.03268 7.96013 3.97877 8.37211 3.97877 10.6417C3.97877 11.7915 4.58019 12.5706 5.61282 12.5706C6.36933 12.5706 7.0464 12.1099 7.47383 11.3608C8.00338 10.4395 7.97691 9.57434 7.97691 8.53691ZM10.689 15.0274C10.5112 15.1847 10.254 15.196 10.0535 15.0911C9.16084 14.357 9.00197 14.0162 8.51024 13.3159C7.03505 14.8065 5.99108 15.2522 4.07712 15.2522C1.81516 15.2522 0.0525055 13.8702 0.0525055 11.1024C0.0525055 8.94139 1.23644 7.4695 2.91966 6.75041C4.37972 6.11372 6.4185 6.00136 7.97691 5.82534V5.48077C7.97691 4.84782 8.02608 4.09877 7.65161 3.55196C7.32253 3.06133 6.69463 2.85908 6.14238 2.85908C5.11731 2.85908 4.20194 3.37968 3.97877 4.45831C3.93338 4.69801 3.7556 4.93396 3.51352 4.9452L0.903575 4.66805C0.684188 4.61936 0.442105 4.44333 0.502626 4.11001C1.10405 0.978965 3.95986 0.0351562 6.51685 0.0351562C7.8256 0.0351562 9.53531 0.379721 10.5679 1.36098C11.8767 2.5707 11.7519 4.18491 11.7519 5.94144V10.0912C11.7519 11.3384 12.2739 11.8852 12.7656 12.5593C12.9396 12.799 12.9774 13.0874 12.758 13.2672C12.2096 13.7204 11.2337 14.563 10.6965 15.0349L10.689 15.0274Z" fill="white"/>
</g>
<defs>
<clipPath id="clip0_1443_9">
<rect width="87" height="26" fill="white"/>
</clipPath>
</defs>
</svg>
