<svg width="27" height="24" viewBox="0 0 27 24" fill="none" xmlns="http://www.w3.org/2000/svg">
<g clip-path="url(#clip0_1326_1164)">
<path d="M21.2446 23.9998H1.37083C1.07801 23.9998 0.797178 23.8539 0.59012 23.5942C0.383061 23.3346 0.266737 22.9824 0.266737 22.6152C0.266737 20.0446 -0.0785769 17.0754 1.37083 15.2577C2.82024 13.44 5.94564 12.9229 7.99541 12.9229H14.62C16.6698 12.9229 19.7952 13.44 21.2446 15.2577C22.694 17.0753 22.3487 20.0446 22.3487 22.6152C22.3487 22.9824 22.2323 23.3346 22.0253 23.5942C21.8182 23.8539 21.5374 23.9998 21.2446 23.9998ZM2.58534 21.2305H20.0301C19.7755 19.6668 20.2576 17.7574 19.2717 16.7481C18.2858 15.7389 15.8926 15.2573 14.62 15.2577H7.99541C6.72277 15.2573 4.24015 15.7389 3.25429 16.7481C2.26842 17.7574 2.83987 19.6668 2.58534 21.2305Z" fill="white"/>
<path d="M11.3077 14.7693C10.0297 14.7693 8.78046 14.3903 7.71786 13.6803C6.65527 12.9703 5.82708 11.9611 5.33802 10.7805C4.84896 9.59976 4.721 8.30056 4.97032 7.04715C5.21964 5.79373 5.83504 4.6424 6.7387 3.73873C7.64237 2.83507 8.7937 2.21967 10.0471 1.97035C11.3005 1.72103 12.5997 1.84899 13.7804 2.33805C14.9611 2.82711 15.9703 3.6553 16.6803 4.71789C17.3903 5.78049 17.7692 7.02976 17.7692 8.30773C17.7661 10.0205 17.0844 11.6622 15.8733 12.8733C14.6622 14.0844 13.0205 14.7662 11.3077 14.7693ZM11.3077 4.19584C10.4944 4.19584 9.69945 4.437 9.02326 4.88882C8.34706 5.34064 7.82003 5.98283 7.50881 6.73418C7.19759 7.48553 7.11616 8.31229 7.27482 9.10992C7.43348 9.90755 7.8251 10.6402 8.40016 11.2153C8.97521 11.7903 9.70788 12.182 10.5055 12.3406C11.3031 12.4993 12.1299 12.4178 12.8813 12.1066C13.6326 11.7954 14.2748 11.2684 14.7266 10.5922C15.1784 9.91598 15.4196 9.12099 15.4196 8.30773C15.4196 7.21719 14.9864 6.17132 14.2152 5.40019C13.4441 4.62906 12.3982 4.19584 11.3077 4.19584Z" fill="white"/>
</g>
<defs>
<clipPath id="clip0_1326_1164">
<rect width="26.7692" height="24" fill="white" transform="translate(0.230774)"/>
</clipPath>
</defs>
</svg>
