<?xml version="1.0" encoding="UTF-8"?>
<svg id="_Слой_2" data-name="Слой 2" xmlns="http://www.w3.org/2000/svg" viewBox="0 0 127.22 38.72">
  <defs>
    <style>
      .cls-1 {
        fill: #ff7a08;
      }

      .cls-1, .cls-2 {
        fill-rule: evenodd;
      }

      .cls-2 {
        fill: #462895;
      }
    </style>
  </defs>
  <g id="_Слой_1-2" data-name="Слой 1">
    <g>
      <path class="cls-1" d="m115.96,37.36l-5.21-5.81-5.16,5.81h-10.86l10.62-11.86-10.62-11.86h11.2l5.26,5.76,5.07-5.76h10.81l-10.57,11.81,10.72,11.91h-11.25Zm-42.12,0V0h20.88v8.33h-12.03v5.32h12.03v8.01h-12.03v7.35h12.03v8.35h-20.88Z"/>
      <path class="cls-2" d="m65.04,0v15.29h-.1c-1.95-2.23-4.38-3-7.21-3-5.84,0-10.17,3.99-11.67,9.23-1.72-5.77-6.21-9.34-12.94-9.34-5.46,0-9.71,2.49-11.94,6.48v-5.02h-11.2v-5.32h12.23V0H0v37.36h9.99v-15.7h10.01c-.3,1.16-.51,2.38-.51,3.69,0,7.79,5.99,13.26,13.64,13.26,6.43,0,10.67-3,12.91-8.47h-8.56c-1.16,1.65-2.04,2.13-4.35,2.13-2.68,0-5-2.33-5-5.09h17.48c.76,6.18,5.56,11.53,12.22,11.53,2.87,0,5.51-1.4,7.11-3.77h.1v2.42h8.8V0h-8.8ZM28.41,21.77c.55-2.37,2.41-3.92,4.72-3.92,2.55,0,4.31,1.5,4.77,3.92h-9.49Zm31.29,9.91c-3.25,0-5.26-3.01-5.26-6.14,0-3.35,1.75-6.58,5.26-6.58s5.09,3.22,5.09,6.58c0,3.18-1.54,6.14-5.09,6.14Z"/>
    </g>
  </g>
</svg>