<?xml version="1.0" encoding="UTF-8"?>
<svg id="_Слой_2" data-name="Слой 2" xmlns="http://www.w3.org/2000/svg" viewBox="0 0 136.91 19.56">
  <defs>
    <style>
      .cls-1 {
        fill: #c4322e;
        fill-rule: evenodd;
      }
    </style>
  </defs>
  <g id="_Слой_1-2" data-name="Слой 1">
    <path class="cls-1" d="m24.24,14.18c0-.37.02-.76.06-1.17.04-.41.11-.84.19-1.28.21-1.14.51-2.25.89-3.34.36-1,.74-1.81,1.16-2.42.59-.86,1.21-1.55,1.86-2.06.64-.51,1.38-.89,2.17-1.11.76-.2,1.53-.35,2.31-.43.93-.1,1.87-.14,2.81-.14,1.55,0,2.85.1,3.89.31,1.04.21,1.94.54,2.7.99.62.37,1.07.9,1.37,1.61.29.7.44,1.6.44,2.69,0,.62-.05,1.26-.14,1.93-.09.66-.24,1.35-.44,2.06-.29,1.11-.66,2.11-1.1,2.99-.44.89-.96,1.67-1.55,2.36-.74.84-1.75,1.45-3.03,1.82-1.28.38-3.02.56-5.25.56-3.05,0-5.2-.41-6.46-1.22-1.26-.81-1.89-2.19-1.89-4.13Zm10.42-6.25c-.51,0-.96.1-1.34.3-.38.2-.7.49-.94.88-.34.56-.64,1.26-.89,2.11-.25.85-.37,1.59-.37,2.22,0,.47.19.83.57,1.08.38.25.94.37,1.67.37.46,0,.86-.07,1.2-.21.34-.14.64-.36.87-.64.2-.25.38-.52.52-.81.15-.31.29-.69.43-1.16.16-.53.28-1,.37-1.41.08-.41.13-.76.13-1.06,0-.56-.19-.97-.55-1.25-.37-.28-.92-.41-1.67-.41Zm9.39,6.57c1.36.2,2.56.35,3.58.43,1.02.09,1.93.13,2.74.13,1.28,0,2.15-.08,2.61-.22.46-.15.69-.42.69-.8,0-.26-.08-.45-.23-.57-.15-.12-.41-.18-.77-.18-.51,0-1.06,0-1.65.02h-.3c-2.02,0-3.43-.28-4.23-.84-.8-.56-1.2-1.51-1.2-2.85,0-1.03.2-2.04.59-3.05.39-1.01.91-1.84,1.57-2.49.62-.63,1.51-1.08,2.66-1.36,1.15-.28,2.78-.42,4.89-.42,1.36,0,2.77.06,4.23.18,1.46.12,2.96.3,4.5.53l-1.33,5.17c-.92-.19-1.86-.34-2.79-.45-.8-.1-1.61-.15-2.41-.15-1.69,0-2.84.08-3.46.25-.62.17-.93.46-.93.87,0,.26.09.44.26.54.18.1.64.14,1.41.14h2.59c1.52,0,2.63.26,3.32.78.69.52,1.04,1.35,1.04,2.49,0,1.06-.16,2.04-.49,2.94-.33.89-.79,1.62-1.37,2.18-.65.63-1.52,1.09-2.62,1.37-1.09.29-2.53.43-4.29.43-1.55,0-3.12-.07-4.74-.21-1.64-.15-3.27-.36-4.89-.64l1.07-4.21Zm30.91-6.39l-2.86,10.92h-6.87l2.87-10.92h-4.39l1.42-5.36h15.4l-1.4,5.36h-4.17Zm24.98,10.69l4.28-16.28h15.97l-1.38,5.21h-9.2l-.43,1.63h9.2l-.92,3.49h-9.17l-.43,1.63h9.19l-1.15,4.32h-15.97Zm31.4-10.92l-2.85,10.92h-6.87l2.87-10.92h-4.39l1.42-5.36h15.4l-1.4,5.36h-4.17ZM0,18.53L5.14,0h15.03c1.71,0,2.98.37,3.79,1.1.82.73,1.23,1.86,1.23,3.4,0,1.06-.12,2.15-.37,3.26-.25,1.11-.58,2.05-.99,2.83-.75,1.43-1.68,2.43-2.79,2.99-1.11.56-2.75.85-4.91.85h-6.78l-1.14,4.11H0Zm10.61-8.73h2.54c1.28,0,2.24-.23,2.87-.69.63-.46.94-1.15.94-2.07,0-.49-.16-.86-.49-1.09-.33-.24-.84-.35-1.53-.35h-3.16l-1.16,4.2Zm66.44,8.97L82.2.24h9.16l1.38,8.01c.02.16.08.5.15,1.03.08.52.18,1.23.3,2.11.15-.75.38-1.71.7-2.86.05-.19.09-.34.11-.43l2.2-7.87h8.02l-5.17,18.53h-9.07l-1.67-7.11c-.08-.37-.18-.81-.3-1.33-.11-.52-.23-1.08-.35-1.67-.15.89-.39,1.91-.72,3.08v.04l-2,7h-7.9Z"/>
  </g>
</svg>