<svg width="40" height="40" viewBox="0 0 40 40" fill="none" xmlns="http://www.w3.org/2000/svg">
<g clip-path="url(#clip0_1567_1206)">
<path d="M0.271729 0.267578V39.7334H39.7377L39.7375 0.267578H0.271729Z" fill="white"/>
<path fill-rule="evenodd" clip-rule="evenodd" d="M0.271729 39.7334V0.267578H39.7373L39.7375 39.7334H0.271729ZM36.3097 20.4571C36.6553 19.4336 37.0466 17.9016 37.1111 16.672C37.1602 15.7445 37.0353 14.4454 36.1604 13.5222C35.4624 12.7847 34.3959 12.4125 32.9906 12.4125C31.2153 12.4125 29.7848 13.0391 28.7382 14.2785L28.4619 14.6042L28.2784 14.2189C28.1286 13.9049 28.0215 13.7762 27.8584 13.5922C27.1431 12.7829 25.9435 12.3727 24.2931 12.3729C22.7811 12.3729 21.4153 12.826 20.4468 13.6489L20.2017 13.8571L20.0328 13.5822C19.5755 12.8389 18.4355 12.3578 17.1295 12.3578C15.2504 12.3582 13.3544 12.6134 12.2106 14.4571L11.7366 15.218L11.6995 14.3218C11.6706 13.6285 11.6073 13.3405 11.2848 12.9991C10.9302 12.6229 10.3333 12.44 9.46039 12.4407C8.17862 12.4407 7.21528 12.9996 6.51462 14.1505C5.43617 15.8731 2.82951 21.5394 2.88706 24.2325C2.92484 25.9802 4.09106 27.05 6.00773 27.0942C7.58728 27.1325 8.84284 26.7271 9.6404 25.9222L9.84395 25.7165L10.0395 25.928C10.7564 26.7062 11.8462 27.1351 13.1086 27.1351C14.7162 27.1351 16.0908 26.6356 16.8804 25.7638L17.0959 25.5262L17.2986 25.7754C18.0377 26.6834 19.18 27.1594 20.6015 27.1536C22.4555 27.1454 24.1871 26.2934 25.3517 24.8176L25.6571 24.4307L25.8275 24.8936C26.5453 26.8454 28.4906 27.1362 29.5877 27.1369C33.3133 27.1369 34.9222 24.5807 36.3097 20.4571Z" fill="#FFED00"/>
<path fill-rule="evenodd" clip-rule="evenodd" d="M0.271729 39.7334V0.267578H39.7373L39.7375 39.7334H0.271729ZM36.5568 23.3462C37.0726 22.2831 38.0431 19.6225 38.2224 18.1858L38.2244 18.17C38.4431 16.4162 38.6499 14.7567 37.4666 13.1076C36.6253 11.9356 35.1917 11.1491 33.0106 11.1489C31.3619 11.1489 29.8895 11.5956 28.7122 12.5747C27.7039 11.5769 26.2579 11.124 24.3117 11.1245C22.7888 11.1245 21.5106 11.4727 20.3975 12.1409C19.5895 11.4989 18.6411 11.0978 17.1299 11.0978C15.7602 11.0976 13.8371 11.1689 12.3862 12.4007C12.0508 11.7165 11.3691 11.1791 9.48839 11.1791C7.75595 11.1791 6.34262 11.9987 5.41573 13.5202C4.17817 15.4969 1.55128 21.2051 1.6184 24.3234C1.6684 26.6707 3.42862 28.2878 5.97839 28.3485C7.51062 28.3842 8.81551 28.0562 9.81128 27.3954C10.7117 28.0442 11.8624 28.3947 13.1411 28.3947C14.6713 28.3949 16.0517 27.9931 17.0753 27.2718C18.0026 28.0069 19.2193 28.4042 20.5957 28.4042C22.3815 28.4049 24.0408 27.7882 25.3813 26.6151C26.2955 27.7809 27.8617 28.3869 29.7637 28.3871C33.3244 28.3874 35.1739 26.1974 36.5568 23.3462Z" fill="#E3000B"/>
<path fill-rule="evenodd" clip-rule="evenodd" d="M0 40V0H40L39.9993 39.9993L0 40ZM39.4489 39.4491L39.4493 0.550667H0.550222L0.551111 39.4489L39.4489 39.4491Z" fill="black"/>
<path fill-rule="evenodd" clip-rule="evenodd" d="M37.2478 12.0668C37.2476 11.941 37.2722 11.8163 37.3202 11.7C37.3683 11.5837 37.4388 11.4779 37.5277 11.3889C37.6167 11.2999 37.7223 11.2293 37.8386 11.1811C37.9549 11.133 38.0795 11.1083 38.2054 11.1084C38.3313 11.1082 38.4561 11.1328 38.5725 11.1809C38.6889 11.2289 38.7947 11.2995 38.8838 11.3886C38.9729 11.4776 39.0435 11.5834 39.0916 11.6998C39.1398 11.8161 39.1644 11.9409 39.1643 12.0668C39.1645 12.1928 39.1399 12.3176 39.0917 12.434C39.0436 12.5504 38.973 12.6561 38.8839 12.7452C38.7948 12.8342 38.689 12.9048 38.5726 12.9528C38.4561 13.0008 38.3313 13.0254 38.2054 13.0251C38.0795 13.0253 37.9549 13.0006 37.8386 12.9525C37.7222 12.9044 37.6166 12.8339 37.5276 12.7448C37.4386 12.6558 37.3681 12.5501 37.3201 12.4337C37.2721 12.3174 37.2475 12.1927 37.2478 12.0668ZM38.2058 11.2986C38.632 11.2988 38.9785 11.642 38.9774 12.0682C38.9785 12.4944 38.6307 12.8386 38.2058 12.8386C38.1048 12.8385 38.0049 12.8184 37.9116 12.7796C37.8184 12.7408 37.7337 12.684 37.6625 12.6125C37.5912 12.5409 37.5347 12.456 37.4963 12.3626C37.4579 12.2692 37.4382 12.1692 37.4385 12.0682C37.4381 11.9672 37.4576 11.8671 37.496 11.7737C37.5343 11.6803 37.5908 11.5953 37.6621 11.5238C37.7334 11.4523 37.8182 11.3956 37.9115 11.3569C38.0048 11.3183 38.1048 11.2985 38.2058 11.2986ZM38.5789 12.3675L38.6934 12.5675L38.4452 12.5691L38.3658 12.4068C38.3305 12.3358 38.2849 12.2704 38.2305 12.2126C38.1914 12.172 38.1556 12.1617 38.0674 12.1617L38.0309 12.162L38.0305 12.5686H37.8258V11.576H38.3203C38.5334 11.576 38.6334 11.6948 38.6334 11.8522C38.6338 12.0022 38.5325 12.11 38.3649 12.13L38.3654 12.1355C38.4505 12.1651 38.4787 12.1928 38.5789 12.3675ZM38.0303 11.7302V12.0028H38.2376C38.3763 12.0028 38.4221 11.9353 38.4201 11.8651C38.4201 11.7775 38.3505 11.7295 38.2154 11.7295L38.0303 11.7302ZM28.5258 14.1C29.4921 12.9555 30.9218 12.1357 32.9894 12.1357C36.5683 12.1357 37.5045 14.4757 37.3872 16.6868C37.3176 18.0157 36.8912 19.5988 36.5725 20.5457C35.1569 24.7526 33.4569 27.4128 29.5881 27.4124C27.8225 27.4128 26.2067 26.724 25.5701 24.9884C24.4072 26.46 22.6298 27.4204 20.6034 27.4304C19.0545 27.438 17.85 26.8906 17.0845 25.9504C16.1756 26.9535 14.6376 27.4128 13.1089 27.4133C11.7356 27.4124 10.5889 26.934 9.83627 26.1166C8.99761 26.9624 7.67983 27.4113 6.00138 27.372C3.85138 27.3204 2.65027 26.0304 2.61072 24.2397C2.55161 21.4677 5.19161 15.7451 6.27983 14.0075C7.03094 12.7748 8.07427 12.1697 9.45983 12.1691C10.2205 12.1697 11.0016 12.302 11.4845 12.8135C11.8816 13.2335 11.9454 13.6068 11.9747 14.3135C13.1925 12.3513 15.2449 12.0846 17.128 12.0851C18.5689 12.0851 19.7649 12.6244 20.2667 13.4397C21.2325 12.6188 22.6234 12.098 24.2918 12.098C25.9996 12.0982 27.2718 12.5148 28.0638 13.4108C28.2385 13.6075 28.3627 13.7577 28.5258 14.1ZM9.68672 23.7588C9.75027 23.0886 9.24827 22.3648 7.24538 22.7124C7.44427 22.2668 7.74005 21.6562 8.07583 20.9628C9.15183 18.7411 10.6387 15.6708 10.6667 14.4697C10.6818 13.8775 10.4432 13.3837 9.48272 13.3842C8.46805 13.3837 7.83161 13.8082 7.31027 14.6646C6.17961 16.4702 3.7785 21.9168 3.82894 24.2711C3.85738 25.6168 4.90072 26.148 6.06005 26.1751C7.65783 26.2122 9.49827 25.7635 9.68694 23.7586L9.68672 23.7588ZM13.7645 20.8633C13.6312 21.222 13.3805 21.9731 13.1781 22.768C13.8354 22.604 14.3276 22.4904 15.1714 22.51C16.1334 22.5335 16.7489 22.9317 16.7485 23.7277C16.7485 25.6553 14.6167 26.2215 13.1396 26.222C11.5161 26.222 10.0898 25.2986 10.0898 23.5233C10.0898 21.442 11.2178 18.286 12.2765 16.1848C13.5761 13.6035 14.9047 13.2606 17.1921 13.2606C18.1978 13.2606 19.3556 13.69 19.3556 14.6393C19.3556 15.9553 18.2427 16.4571 17.1372 16.5206C16.6645 16.5477 15.9385 16.5737 15.5043 16.5426C15.5043 16.5426 15.1352 17.1037 14.7452 18.1015C16.7914 17.8135 17.6598 18.2782 17.3145 19.4615C16.8469 21.0613 15.4607 21.1668 13.7643 20.8631L13.7645 20.8633ZM22.6454 16.6157C22.9154 16.2373 23.2765 15.8868 23.8305 15.8868C24.5094 15.8868 24.4436 16.246 24.2825 16.7048C23.8249 18.0115 25.2067 18.046 25.5441 18.0193C26.7503 17.9253 27.4149 17.146 27.5785 15.8184C27.8025 14.0108 26.2796 13.3168 24.3492 13.3168C21.1314 13.3168 19.8683 15.2848 18.6634 18.0982C18.0974 19.4197 17.3845 21.6782 17.3847 23.1164C17.3845 25.1364 18.6136 26.2317 20.5945 26.2317C23.4872 26.2317 25.5312 23.9251 26.1152 21.0511C26.2949 20.1666 26.5165 18.5068 24.2698 18.5993C23.1294 18.6464 22.4414 18.898 22.0787 20.0633C21.7054 21.2637 23.0594 21.2964 23.0594 21.2964C22.7869 22.5375 21.9894 23.29 21.2787 23.2906C20.8352 23.2906 20.4316 23.0982 20.5667 22.1595C20.7674 20.7871 22.0527 17.4488 22.6454 16.6157ZM35.9825 18.2617C35.6412 19.9551 34.8767 21.9595 34.0461 23.4531C32.6905 25.8895 31.0463 26.2308 29.6087 26.2126C28.1721 26.1955 26.5523 25.6657 26.5401 23.4484C26.5314 21.8573 27.2174 19.6102 27.8003 18.1388C28.8169 15.47 29.8538 13.2933 33.1358 13.3322C36.9621 13.3768 36.2796 16.7802 35.9825 18.2617ZM31.1829 22.6033C31.7149 21.7022 33.2125 17.6148 33.2534 16.5928C33.2654 16.2951 33.2163 15.9484 32.7363 15.9428C32.4072 15.9382 32.1209 16.002 31.8636 16.3995C31.2854 17.1511 29.5927 21.774 29.6214 22.6962C29.6318 23.0277 29.8169 23.3173 30.2241 23.3173C30.6929 23.3177 30.9527 22.9951 31.1829 22.6033Z" fill="black"/>
</g>
<defs>
<clipPath id="clip0_1567_1206">
<rect width="40" height="40" fill="white"/>
</clipPath>
</defs>
</svg>
