<svg width="16" height="16" viewBox="0 0 16 16" fill="none" xmlns="http://www.w3.org/2000/svg">
<g clip-path="url(#clip0_1567_1898)">
<path d="M10.9248 9.37422C10.9248 6.64167 10.9248 3.90834 10.9248 1.17422C10.9248 0.522459 11.1436 0.301282 11.793 0.296576L14.8965 0.296577C15.5295 0.301283 15.7648 0.548341 15.7648 1.17658L15.7648 6.63069C15.7648 7.54364 15.7648 8.45971 15.7648 9.37893C15.7648 10.0189 15.5295 10.2566 14.8965 10.2566H11.7954C11.153 10.2566 10.9248 10.026 10.9248 9.37422Z" fill="#CACACA"/>
<path d="M0.235386 5.90599C0.262417 5.6632 0.355129 5.43238 0.503552 5.23835C0.651974 5.04433 0.850489 4.89444 1.07774 4.80481L1.00715 4.73187C0.881594 4.59335 0.786383 4.43012 0.727628 4.25264C0.668873 4.07516 0.647874 3.88736 0.665975 3.70128C0.701609 3.41093 0.829757 3.13975 1.03146 2.92787C1.23317 2.716 1.49772 2.57467 1.78598 2.52481C1.66334 2.38892 1.5703 2.22901 1.51279 2.05524C1.45527 1.88146 1.43452 1.69762 1.45186 1.5154C1.49041 1.17605 1.65395 0.863225 1.9106 0.637895C2.16725 0.412566 2.49861 0.290886 2.84009 0.296578L4.66598 0.296578C5.47303 0.296578 6.31303 0.296578 7.12715 0.296578L7.20715 0.296578C8.32173 0.328682 9.42313 0.546576 10.466 0.941284C10.457 1.01938 10.4531 1.09797 10.4542 1.17658C10.4542 3.91226 10.4542 6.6456 10.4542 9.37658C10.4534 9.49872 10.4629 9.62072 10.4824 9.74128L10.1742 10.0095C10.0754 10.0919 9.97656 10.1766 9.88009 10.2636C9.23303 10.8307 8.58362 11.4566 8.35774 12.3248C8.2776 12.6816 8.23657 13.0461 8.23539 13.4119C8.23539 13.6001 8.22127 13.7883 8.20715 13.9742C8.20715 14.0613 8.19303 14.146 8.18598 14.233C8.17627 14.4975 8.13841 14.7602 8.07303 15.0166C7.94127 15.4589 7.54597 15.7107 6.99068 15.7107C6.7471 15.7222 6.50607 15.6569 6.30169 15.5238C6.09731 15.3908 5.93994 15.1969 5.85186 14.9695C5.43371 13.9089 5.33475 12.7492 5.56715 11.633C5.66833 11.1625 5.80245 10.6919 5.95774 10.2448C6.02598 10.0236 6.09656 9.80011 6.16245 9.57658L2.18597 9.57658C1.84791 9.58024 1.52036 9.45914 1.26597 9.23645C1.01159 9.01376 0.848234 8.7051 0.807151 8.36952C0.789656 8.18329 0.811169 7.99547 0.870317 7.81802C0.929465 7.64058 1.02495 7.47741 1.15068 7.33893L1.17421 7.31305C0.94562 7.24196 0.740126 7.11119 0.578916 6.93422C0.452879 6.79642 0.357177 6.6337 0.298001 6.45657C0.238825 6.27945 0.217493 6.09188 0.235386 5.90599Z" fill="#CACACA"/>
</g>
<defs>
<clipPath id="clip0_1567_1898">
<rect width="16" height="16" fill="white" transform="translate(16 16) rotate(-180)"/>
</clipPath>
</defs>
</svg>
