<svg width="16" height="16" viewBox="0 0 16 16" fill="none" xmlns="http://www.w3.org/2000/svg">
<g clip-path="url(#clip0_1567_2106)">
<path d="M10.9248 9.3741C10.9248 6.64155 10.9248 3.90822 10.9248 1.1741C10.9248 0.522337 11.1436 0.30116 11.793 0.296454L14.8965 0.296455C15.5295 0.301161 15.7648 0.548219 15.7648 1.17645L15.7648 6.63057C15.7648 7.54351 15.7648 8.45959 15.7648 9.37881C15.7648 10.0188 15.5295 10.2565 14.8965 10.2565H11.7954C11.153 10.2565 10.9248 10.0259 10.9248 9.3741Z" fill="#CACACA"/>
<path d="M0.235386 5.90587C0.262417 5.66308 0.355129 5.43226 0.503552 5.23823C0.651974 5.0442 0.850489 4.89432 1.07774 4.80469L1.00715 4.73175C0.881594 4.59323 0.786383 4.43 0.727628 4.25252C0.668873 4.07504 0.647874 3.88723 0.665975 3.70116C0.701609 3.4108 0.829757 3.13963 1.03146 2.92775C1.23317 2.71587 1.49772 2.57455 1.78598 2.52469C1.66334 2.3888 1.5703 2.22889 1.51279 2.05511C1.45527 1.88134 1.43452 1.6975 1.45186 1.51528C1.49041 1.17593 1.65395 0.863103 1.9106 0.637773C2.16725 0.412444 2.49861 0.290764 2.84009 0.296456L4.66598 0.296456C5.47303 0.296456 6.31303 0.296456 7.12715 0.296456L7.20715 0.296456C8.32173 0.32856 9.42313 0.546454 10.466 0.941162C10.457 1.01926 10.4531 1.09785 10.4542 1.17646C10.4542 3.91214 10.4542 6.64548 10.4542 9.37646C10.4534 9.4986 10.4629 9.62059 10.4824 9.74116L10.1742 10.0094C10.0754 10.0917 9.97656 10.1765 9.88009 10.2635C9.23303 10.8306 8.58362 11.4565 8.35774 12.3247C8.2776 12.6815 8.23657 13.046 8.23539 13.4117C8.23539 13.6 8.22127 13.7882 8.20715 13.9741C8.20715 14.0612 8.19303 14.1459 8.18598 14.2329C8.17627 14.4974 8.13841 14.76 8.07303 15.0165C7.94127 15.4588 7.54597 15.7106 6.99068 15.7106C6.7471 15.7221 6.50607 15.6567 6.30169 15.5237C6.09731 15.3907 5.93994 15.1968 5.85186 14.9694C5.43371 13.9088 5.33475 12.7491 5.56715 11.6329C5.66833 11.1623 5.80245 10.6917 5.95774 10.2447C6.02598 10.0235 6.09656 9.79998 6.16245 9.57646L2.18597 9.57645C1.84791 9.58012 1.52036 9.45902 1.26597 9.23633C1.01159 9.01363 0.848234 8.70498 0.807151 8.3694C0.789656 8.18317 0.811169 7.99535 0.870317 7.8179C0.929465 7.64046 1.02495 7.47729 1.15068 7.33881L1.17421 7.31293C0.94562 7.24184 0.740126 7.11107 0.578916 6.9341C0.452879 6.7963 0.357177 6.63357 0.298001 6.45645C0.238825 6.27933 0.217493 6.09175 0.235386 5.90587Z" fill="#CACACA"/>
</g>
<defs>
<clipPath id="clip0_1567_2106">
<rect width="16" height="16" fill="white" transform="translate(16 16) rotate(-180)"/>
</clipPath>
</defs>
</svg>
