<svg width="16" height="16" viewBox="0 0 16 16" fill="none" xmlns="http://www.w3.org/2000/svg">
<g clip-path="url(#clip0_1567_2002)">
<path d="M10.9248 9.37398C10.9248 6.64143 10.9248 3.9081 10.9248 1.17398C10.9248 0.522215 11.1436 0.301038 11.793 0.296332L14.8965 0.296333C15.5295 0.301039 15.7648 0.548097 15.7648 1.17633L15.7648 6.63045C15.7648 7.54339 15.7648 8.45947 15.7648 9.37869C15.7648 10.0187 15.5295 10.2563 14.8965 10.2563H11.7954C11.153 10.2563 10.9248 10.0257 10.9248 9.37398Z" fill="#CACACA"/>
<path d="M0.235386 5.90574C0.262417 5.66296 0.355129 5.43214 0.503552 5.23811C0.651974 5.04408 0.850489 4.89419 1.07774 4.80457L1.00715 4.73163C0.881594 4.59311 0.786383 4.42987 0.727628 4.25239C0.668873 4.07491 0.647874 3.88711 0.665975 3.70104C0.701609 3.41068 0.829757 3.13951 1.03146 2.92763C1.23317 2.71575 1.49772 2.57443 1.78598 2.52457C1.66334 2.38868 1.5703 2.22877 1.51279 2.05499C1.45527 1.88122 1.43452 1.69738 1.45186 1.51516C1.49041 1.17581 1.65395 0.862981 1.9106 0.637651C2.16725 0.412322 2.49861 0.290642 2.84009 0.296334L4.66598 0.296334C5.47303 0.296334 6.31303 0.296334 7.12715 0.296334L7.20715 0.296334C8.32173 0.328438 9.42313 0.546332 10.466 0.94104C10.457 1.01913 10.4531 1.09773 10.4542 1.17633C10.4542 3.91202 10.4542 6.64535 10.4542 9.37633C10.4534 9.49848 10.4629 9.62047 10.4824 9.74104L10.1742 10.0093C10.0754 10.0916 9.97656 10.1763 9.88009 10.2634C9.23303 10.8305 8.58362 11.4563 8.35774 12.3246C8.2776 12.6814 8.23657 13.0459 8.23539 13.4116C8.23539 13.5999 8.22127 13.7881 8.20715 13.974C8.20715 14.061 8.19303 14.1457 8.18598 14.2328C8.17627 14.4972 8.13841 14.7599 8.07303 15.0163C7.94127 15.4587 7.54597 15.7104 6.99068 15.7104C6.7471 15.722 6.50607 15.6566 6.30169 15.5236C6.09731 15.3906 5.93994 15.1967 5.85186 14.9693C5.43371 13.9087 5.33475 12.7489 5.56715 11.6328C5.66833 11.1622 5.80245 10.6916 5.95774 10.2446C6.02598 10.0234 6.09656 9.79986 6.16245 9.57633L2.18597 9.57633C1.84791 9.58 1.52036 9.4589 1.26597 9.23621C1.01159 9.01351 0.848234 8.70485 0.807151 8.36927C0.789656 8.18305 0.811169 7.99522 0.870317 7.81778C0.929465 7.64033 1.02495 7.47717 1.15068 7.33868L1.17421 7.3128C0.94562 7.24172 0.740126 7.11095 0.578916 6.93398C0.452879 6.79618 0.357177 6.63345 0.298001 6.45633C0.238825 6.27921 0.217493 6.09163 0.235386 5.90574Z" fill="#CACACA"/>
</g>
<defs>
<clipPath id="clip0_1567_2002">
<rect width="16" height="16" fill="white" transform="translate(16 16) rotate(-180)"/>
</clipPath>
</defs>
</svg>
