<svg width="16" height="20" viewBox="0 0 16 20" fill="none" xmlns="http://www.w3.org/2000/svg">
<g clip-path="url(#clip0_1469_1989)">
<path fill-rule="evenodd" clip-rule="evenodd" d="M4 3.512V9.316C4 9.693 4.349 10 4.779 10C5.209 10 5.558 9.693 5.558 9.316V3.512C5.558 2.33 6.653 1.368 8 1.368C9.347 1.368 10.442 2.33 10.442 3.512V9.316C10.442 9.693 10.792 10 11.222 10C11.652 10 12 9.693 12 9.316V3.512C12 1.575 10.206 0 8 0C5.794 0 4 1.575 4 3.512Z" fill="#282828"/>
<path fill-rule="evenodd" clip-rule="evenodd" d="M2.46001 6.33C2.19101 6.33 1.97101 6.524 1.96001 6.771L1.43501 18.19C1.43219 18.2514 1.4424 18.3128 1.46498 18.37C1.48756 18.4272 1.52199 18.479 1.56601 18.522C1.65917 18.6136 1.78341 18.6668 1.91401 18.671H14.065C14.341 18.671 14.566 18.464 14.566 18.209L14.041 6.773C14.03 6.525 13.811 6.331 13.541 6.331L2.46001 6.33ZM14.448 20L1.47401 19.999C1.07384 19.9844 0.693895 19.8194 0.410006 19.537C0.273375 19.4037 0.166412 19.243 0.0961072 19.0655C0.0258021 18.888 -0.00626325 18.6977 0.00200626 18.507L0.560006 6.372C0.595006 5.602 1.27701 5 2.11001 5H13.89C14.725 5 15.406 5.602 15.441 6.372L16.001 18.569C16.001 19.358 15.304 20 14.448 20Z" fill="#282828"/>
</g>
<defs>
<clipPath id="clip0_1469_1989">
<rect width="16" height="20" fill="white"/>
</clipPath>
</defs>
</svg>
