<svg width="20" height="18" viewBox="0 0 20 18" fill="none" xmlns="http://www.w3.org/2000/svg">
<g clip-path="url(#clip0_1469_1987)">
<path fill-rule="evenodd" clip-rule="evenodd" d="M16.84 8.41701L10 15.204L3.16 8.41701C2.79378 8.07369 2.50188 7.6589 2.30236 7.19827C2.10283 6.73765 1.99993 6.24099 2 5.73901C2 3.67701 3.71 2.00001 5.815 2.00001C6.32837 1.99823 6.83684 2.09994 7.31002 2.29908C7.7832 2.49821 8.21139 2.79068 8.569 3.15901L9.999 4.62601L11.432 3.15901C11.7895 2.79059 12.2177 2.49806 12.6909 2.29892C13.1641 2.09978 13.6726 1.99811 14.186 2.00001C16.289 2.00001 18 3.67701 18 5.73901C17.9999 6.24096 17.8969 6.73757 17.6974 7.19817C17.4979 7.65877 17.2061 8.07358 16.84 8.41701ZM9.986 18L10 17.986L10.014 18L18.237 9.88401L18.219 9.86501C18.7808 9.33457 19.2285 8.69505 19.5345 7.98559C19.8406 7.27613 19.9986 6.51167 19.999 5.73901C20 2.56901 17.398 1.08684e-05 14.187 1.08684e-05C13.4067 -0.00149591 12.634 0.153685 11.9148 0.456353C11.1956 0.759021 10.5444 1.20301 10 1.76201C9.45587 1.20316 8.80507 0.759251 8.08619 0.456584C7.36732 0.153918 6.59499 -0.00134134 5.815 1.08684e-05C2.604 1.08684e-05 0 2.56901 0 5.73901C0.000727278 6.5118 0.159142 7.27631 0.46555 7.98576C0.771957 8.69521 1.21991 9.33467 1.782 9.86501" fill="#282828"/>
</g>
<defs>
<clipPath id="clip0_1469_1987">
<rect width="20" height="18" fill="white"/>
</clipPath>
</defs>
</svg>
