<svg width="18" height="18" viewBox="0 0 18 18" fill="none" xmlns="http://www.w3.org/2000/svg">
<g clip-path="url(#clip0_1469_1979)">
<path fill-rule="evenodd" clip-rule="evenodd" d="M18 16.615C18 16.99 17.863 17.315 17.588 17.588C17.4626 17.7195 17.3115 17.8239 17.1442 17.8947C16.9768 17.9656 16.7968 18.0014 16.615 18C16.4329 18.0046 16.2518 17.9702 16.084 17.8991C15.9162 17.8281 15.7655 17.722 15.642 17.588L11.932 13.888C10.668 14.7741 9.15869 15.2433 7.61503 15.23C6.58503 15.23 5.59803 15.03 4.65703 14.63C3.74844 14.2514 2.92186 13.7002 2.22303 13.007C1.53007 12.3086 0.979227 11.4823 0.601032 10.574C0.201556 9.63917 -0.0029498 8.63264 3.21463e-05 7.61602C3.21463e-05 6.58402 0.200032 5.59802 0.600032 4.65602C0.979529 3.74819 1.5306 2.9221 2.22303 2.22302C2.92195 1.53017 3.74852 0.979351 4.65703 0.601022C5.59203 0.202029 6.59846 -0.00245573 7.61503 2.22545e-05C8.64703 2.22545e-05 9.63303 0.200022 10.574 0.601022C11.514 1.00102 12.326 1.54202 13.008 2.22302C13.7007 2.92207 14.2515 3.74861 14.63 4.65702C15.03 5.59802 15.231 6.58402 15.231 7.61602C15.2446 9.15941 14.7753 10.6684 13.889 11.932L17.599 15.642C17.866 15.908 18 16.234 18 16.615ZM12.461 7.61502C12.461 6.28102 11.987 5.14002 11.038 4.19202C10.09 3.24402 8.95003 2.77002 7.61503 2.77002C6.28203 2.77002 5.14003 3.24402 4.19203 4.19202C3.24303 5.14002 2.77003 6.28002 2.77003 7.61602C2.77003 8.95002 3.24403 10.091 4.19303 11.039C5.14103 11.988 6.28303 12.461 7.61603 12.461C8.95103 12.461 10.091 11.988 11.039 11.039C11.989 10.091 12.462 8.94902 12.462 7.61602" fill="#282828"/>
</g>
<defs>
<clipPath id="clip0_1469_1979">
<rect width="18" height="18" fill="white"/>
</clipPath>
</defs>
</svg>
