<svg width="16" height="16" viewBox="0 0 16 16" fill="none" xmlns="http://www.w3.org/2000/svg">
<g clip-path="url(#clip0_1567_2067)">
<path d="M5.07511 6.62586C5.07511 9.35841 5.07511 12.0917 5.07511 14.8259C5.07511 15.4776 4.85628 15.6988 4.20687 15.7035H1.10334C0.470402 15.6988 0.235107 15.4517 0.235107 14.8235V9.36939C0.235107 8.45644 0.235107 7.54037 0.235107 6.62115C0.235107 5.98115 0.470402 5.7435 1.10334 5.7435H4.20452C4.84687 5.7435 5.07511 5.97409 5.07511 6.62586Z" fill="#CACACA"/>
<path d="M15.7645 10.0941C15.7375 10.3369 15.6448 10.5677 15.4963 10.7617C15.3479 10.9558 15.1494 11.1056 14.9221 11.1953L14.9927 11.2682C15.1183 11.4067 15.2135 11.57 15.2723 11.7474C15.331 11.9249 15.352 12.1127 15.3339 12.2988C15.2983 12.5892 15.1701 12.8603 14.9684 13.0722C14.7667 13.2841 14.5022 13.4254 14.2139 13.4753C14.3366 13.6112 14.4296 13.7711 14.4871 13.9448C14.5446 14.1186 14.5654 14.3025 14.548 14.4847C14.5095 14.824 14.3459 15.1369 14.0893 15.3622C13.8326 15.5875 13.5013 15.7092 13.1598 15.7035H11.3339C10.5269 15.7035 9.68685 15.7035 8.87274 15.7035H8.79274C7.67816 15.6714 6.57675 15.4535 5.53391 15.0588C5.54291 14.9807 5.54684 14.9021 5.54568 14.8235C5.54568 12.0878 5.54568 9.35448 5.54568 6.6235C5.54647 6.50136 5.53703 6.37936 5.51744 6.2588L5.82568 5.99056C5.9245 5.90821 6.02332 5.8235 6.1198 5.73644C6.76685 5.16938 7.41627 4.5435 7.64215 3.67527C7.72229 3.31843 7.76332 2.95393 7.7645 2.58821C7.7645 2.39997 7.77862 2.21174 7.79274 2.02586C7.79274 1.9388 7.80685 1.85409 7.81391 1.76703C7.82362 1.50259 7.86148 1.23993 7.92685 0.983504C8.05862 0.541151 8.45391 0.289386 9.00921 0.289386C9.25279 0.277857 9.49382 0.343225 9.6982 0.47624C9.90258 0.609254 10.0599 0.803178 10.148 1.03056C10.5662 2.09118 10.6651 3.2509 10.4327 4.36703C10.3316 4.83762 10.1974 5.30821 10.0421 5.75527C9.97391 5.97644 9.90333 6.19997 9.83744 6.4235H13.8139C14.152 6.41984 14.4795 6.54094 14.7339 6.76363C14.9883 6.98632 15.1517 7.29498 15.1927 7.63056C15.2102 7.81679 15.1887 8.00461 15.1296 8.18206C15.0704 8.3595 14.9749 8.52267 14.8492 8.66115L14.8257 8.68703C15.0543 8.75812 15.2598 8.88889 15.421 9.06586C15.547 9.20366 15.6427 9.36638 15.7019 9.54351C15.7611 9.72063 15.7824 9.9082 15.7645 10.0941Z" fill="#CACACA"/>
</g>
<defs>
<clipPath id="clip0_1567_2067">
<rect width="16" height="16" fill="white"/>
</clipPath>
</defs>
</svg>
