<svg width="94" height="14" viewBox="0 0 94 14" fill="none" xmlns="http://www.w3.org/2000/svg">
<g clip-path="url(#clip0_1567_1871)">
<path d="M7 11.3578L10.3949 13.3528C11.0166 13.7184 11.7774 13.178 11.6138 12.4944L10.7139 8.74284L13.7162 6.2153C14.2643 5.7543 13.9698 4.87999 13.2499 4.82435L9.29871 4.49848L7.7526 0.953559C7.47447 0.309751 6.52553 0.309751 6.2474 0.953559L4.70129 4.49053L0.750115 4.81641C0.0302327 4.87204 -0.264264 5.74635 0.283828 6.20735L3.28606 8.73489L2.38621 12.4865C2.2226 13.17 2.98339 13.7105 3.6051 13.3449L7 11.3578Z" fill="#FFCF00"/>
</g>
<g clip-path="url(#clip1_1567_1871)">
<path d="M27 11.3578L30.3949 13.3528C31.0166 13.7184 31.7774 13.178 31.6138 12.4944L30.7139 8.74284L33.7162 6.2153C34.2643 5.7543 33.9698 4.87999 33.2499 4.82435L29.2987 4.49848L27.7526 0.953559C27.4745 0.309751 26.5255 0.309751 26.2474 0.953559L24.7013 4.49053L20.7501 4.81641C20.0302 4.87204 19.7357 5.74635 20.2838 6.20735L23.2861 8.73489L22.3862 12.4865C22.2226 13.17 22.9834 13.7105 23.6051 13.3449L27 11.3578Z" fill="#FFCF00"/>
</g>
<g clip-path="url(#clip2_1567_1871)">
<path d="M47 11.3578L50.3949 13.3528C51.0166 13.7184 51.7774 13.178 51.6138 12.4944L50.7139 8.74284L53.7162 6.2153C54.2643 5.7543 53.9698 4.87999 53.2499 4.82435L49.2987 4.49848L47.7526 0.953559C47.4745 0.309751 46.5255 0.309751 46.2474 0.953559L44.7013 4.49053L40.7501 4.81641C40.0302 4.87204 39.7357 5.74635 40.2838 6.20735L43.2861 8.73489L42.3862 12.4865C42.2226 13.17 42.9834 13.7105 43.6051 13.3449L47 11.3578Z" fill="#FFCF00"/>
</g>
<g clip-path="url(#clip3_1567_1871)">
<path d="M67 11.3578L70.3949 13.3528C71.0166 13.7184 71.7774 13.178 71.6138 12.4944L70.7139 8.74284L73.7162 6.2153C74.2643 5.7543 73.9698 4.87999 73.2499 4.82435L69.2987 4.49848L67.7526 0.953559C67.4745 0.309751 66.5255 0.309751 66.2474 0.953559L64.7013 4.49053L60.7501 4.81641C60.0302 4.87204 59.7357 5.74635 60.2838 6.20735L63.2861 8.73489L62.3862 12.4865C62.2226 13.17 62.9834 13.7105 63.6051 13.3449L67 11.3578Z" fill="#FFCF00"/>
</g>
<g clip-path="url(#clip4_1567_1871)">
<path d="M87 11.3578L90.3949 13.3528C91.0166 13.7184 91.7774 13.178 91.6138 12.4944L90.7139 8.74284L93.7162 6.2153C94.2643 5.7543 93.9698 4.87999 93.2499 4.82435L89.2987 4.49848L87.7526 0.953559C87.4745 0.309751 86.5255 0.309751 86.2474 0.953559L84.7013 4.49053L80.7501 4.81641C80.0302 4.87204 79.7357 5.74635 80.2838 6.20735L83.2861 8.73489L82.3862 12.4865C82.2226 13.17 82.9834 13.7105 83.6051 13.3449L87 11.3578Z" fill="#FFCF00"/>
</g>
<defs>
<clipPath id="clip0_1567_1871">
<rect width="14" height="14" fill="white"/>
</clipPath>
<clipPath id="clip1_1567_1871">
<rect width="14" height="14" fill="white" transform="translate(20)"/>
</clipPath>
<clipPath id="clip2_1567_1871">
<rect width="14" height="14" fill="white" transform="translate(40)"/>
</clipPath>
<clipPath id="clip3_1567_1871">
<rect width="14" height="14" fill="white" transform="translate(60)"/>
</clipPath>
<clipPath id="clip4_1567_1871">
<rect width="14" height="14" fill="white" transform="translate(80)"/>
</clipPath>
</defs>
</svg>
