<svg width="64" height="64" viewBox="0 0 64 64" fill="none" xmlns="http://www.w3.org/2000/svg">
<g clip-path="url(#clip0_1469_1242)">
<path d="M0.434814 0.428101V63.5733H63.5804L63.5801 0.428101H0.434814Z" fill="white"/>
<path fill-rule="evenodd" clip-rule="evenodd" d="M0.434814 63.5733V0.428101H63.5797L63.5801 63.5733H0.434814ZM58.0956 32.7314C58.6485 31.0937 59.2746 28.6425 59.3777 26.6752C59.4563 25.1911 59.2565 23.1125 57.8567 21.6356C56.7399 20.4555 55.0336 19.8599 52.785 19.8599C49.9445 19.8599 47.6558 20.8626 45.9811 22.8455L45.5392 23.3668L45.2455 22.7502C45.0058 22.2478 44.8345 22.042 44.5735 21.7476C43.4289 20.4526 41.5097 19.7963 38.8689 19.7966C36.4497 19.7966 34.2645 20.5216 32.715 21.8382L32.3228 22.1714L32.0526 21.7316C31.3209 20.5422 29.4969 19.7725 27.4073 19.7725C24.4007 19.7732 21.3671 20.1813 19.537 23.1314L18.7786 24.3488L18.7193 22.9149C18.673 21.8055 18.5717 21.3447 18.0558 20.7986C17.4883 20.1966 16.5333 19.904 15.1367 19.9051C13.0858 19.9051 11.5445 20.7993 10.4234 22.6407C8.69793 25.397 4.52726 34.4629 4.61935 38.7719C4.67979 41.5684 6.54575 43.28 9.61241 43.3508C12.1397 43.4119 14.1486 42.7634 15.4247 41.4756L15.7504 41.1463L16.0633 41.4848C17.2103 42.73 18.9539 43.4162 20.9738 43.4162C23.5459 43.4162 25.7454 42.6169 27.0087 41.222L27.3536 40.842L27.6778 41.2405C28.8604 42.6933 30.688 43.4549 32.9625 43.4457C35.9289 43.4325 38.6993 42.0693 40.5628 39.7081L41.0513 39.0891L41.3241 39.8297C42.4725 42.9525 45.585 43.418 47.3404 43.419C53.3013 43.419 55.8755 39.3291 58.0956 32.7314Z" fill="#FFED00"/>
<path fill-rule="evenodd" clip-rule="evenodd" d="M0.434814 63.5733V0.428101H63.5797L63.5801 63.5733H0.434814ZM58.491 37.354C59.3162 35.653 60.8689 31.3959 61.1559 29.0973L61.1591 29.072C61.5089 26.266 61.84 23.6107 59.9466 20.9721C58.6005 19.0969 56.3068 17.8386 52.817 17.8382C50.1792 17.8382 47.8233 18.5529 45.9395 20.1195C44.3264 18.523 42.0128 17.7984 38.8988 17.7991C36.4622 17.7991 34.417 18.3563 32.6361 19.4254C31.3433 18.3982 29.8257 17.7565 27.408 17.7565C25.2163 17.7561 22.1393 17.8702 19.8179 19.8411C19.2814 18.7463 18.1905 17.8866 15.1815 17.8866C12.4096 17.8866 10.1482 19.1979 8.66521 21.6324C6.68513 24.795 2.4821 33.9282 2.58948 38.9173C2.66948 42.6731 5.48584 45.2605 9.56548 45.3575C12.017 45.4148 14.1049 44.89 15.6981 43.8325C17.1388 44.8708 18.9799 45.4315 21.0257 45.4315C23.4741 45.4318 25.6828 44.789 27.3205 43.6349C28.8042 44.811 30.7509 45.4468 32.9532 45.4468C35.8105 45.4478 38.4654 44.4612 40.6101 42.5842C42.0729 44.4494 44.5788 45.419 47.622 45.4194C53.3191 45.4197 56.2784 41.9157 58.491 37.354Z" fill="#E3000B"/>
<path fill-rule="evenodd" clip-rule="evenodd" d="M0 64V0H64L63.9989 63.9989L0 64ZM63.1182 63.1186L63.1189 0.881067H0.880356L0.881778 63.1182L63.1182 63.1186Z" fill="black"/>
<path fill-rule="evenodd" clip-rule="evenodd" d="M59.5964 19.3071C59.596 19.1057 59.6354 18.9062 59.7122 18.7201C59.7891 18.534 59.9019 18.3648 60.0442 18.2224C60.1866 18.0799 60.3556 17.967 60.5416 17.8899C60.7277 17.8129 60.9271 17.7734 61.1285 17.7736C61.33 17.7732 61.5296 17.8126 61.7159 17.8895C61.9022 17.9664 62.0714 18.0794 62.2139 18.2218C62.3565 18.3643 62.4695 18.5335 62.5465 18.7197C62.6235 18.906 62.663 19.1056 62.6627 19.3071C62.6631 19.5086 62.6237 19.7082 62.5467 19.8945C62.4697 20.0807 62.3567 20.2499 62.2141 20.3924C62.0716 20.5348 61.9023 20.6477 61.716 20.7246C61.5297 20.8014 61.33 20.8407 61.1285 20.8402C60.9271 20.8406 60.7277 20.8011 60.5416 20.7242C60.3555 20.6472 60.1864 20.5343 60.044 20.3918C59.9017 20.2494 59.7889 20.0802 59.7121 19.8941C59.6353 19.7079 59.596 19.5085 59.5964 19.3071ZM61.1292 18.0779C61.8112 18.0783 62.3655 18.6273 62.3637 19.3092C62.3655 19.9912 61.809 20.5419 61.1292 20.5419C60.9676 20.5417 60.8077 20.5096 60.6585 20.4475C60.5093 20.3854 60.3739 20.2945 60.2598 20.18C60.1458 20.0656 60.0555 19.9297 59.994 19.7803C59.9325 19.6309 59.9011 19.4708 59.9015 19.3092C59.9008 19.1476 59.932 18.9875 59.9934 18.838C60.0548 18.6885 60.1452 18.5527 60.2593 18.4382C60.3734 18.3238 60.509 18.2331 60.6583 18.1712C60.8076 18.1094 60.9676 18.0777 61.1292 18.0779ZM61.7262 19.7881L61.9093 20.1081L61.5122 20.1106L61.3852 19.8511C61.3287 19.7374 61.2557 19.6327 61.1687 19.5403C61.1061 19.4753 61.0489 19.4589 60.9077 19.4589L60.8494 19.4593L60.8487 20.1099H60.5212V18.5217H61.3123C61.6533 18.5217 61.8133 18.7119 61.8133 18.9636C61.814 19.2036 61.6519 19.3761 61.3838 19.4081L61.3845 19.4169C61.5207 19.4642 61.5658 19.5087 61.7262 19.7881ZM60.8483 18.7684V19.2047H61.1801C61.4019 19.2047 61.4752 19.0966 61.472 18.9842C61.472 18.8441 61.3607 18.7673 61.1445 18.7673L60.8483 18.7684ZM45.6412 22.5601C47.1872 20.7289 49.4748 19.4173 52.7829 19.4173C58.5091 19.4173 60.0071 23.1613 59.8194 26.6991C59.7081 28.8253 59.0258 31.3583 58.5159 32.8733C56.251 39.6043 53.531 43.8607 47.3408 43.86C44.5159 43.8607 41.9306 42.7584 40.912 39.9816C39.0513 42.3361 36.2076 43.8728 32.9653 43.8888C30.4871 43.9008 28.56 43.0251 27.3351 41.5208C25.8809 43.1257 23.4201 43.8607 20.9742 43.8614C18.7769 43.86 16.9422 43.0944 15.7379 41.7867C14.3961 43.14 12.2876 43.8582 9.60211 43.7953C6.16211 43.7128 4.24033 41.6488 4.17704 38.7837C4.08246 34.3485 8.30646 25.1922 10.0476 22.4121C11.2494 20.4399 12.9187 19.4717 15.1356 19.4706C16.3527 19.4717 17.6025 19.6833 18.3751 20.5017C19.0105 21.1737 19.1125 21.7711 19.1594 22.9017C21.1079 19.7622 24.3918 19.3355 27.4048 19.3362C29.7102 19.3362 31.6238 20.1992 32.4266 21.5037C33.9719 20.1903 36.1973 19.3569 38.8668 19.3569C41.5993 19.3572 43.6348 20.0239 44.902 21.4575C45.1815 21.7721 45.3802 22.0125 45.6412 22.5601ZM15.4986 38.0143C15.6003 36.9419 14.7971 35.7839 11.5925 36.34C11.9107 35.6271 12.384 34.65 12.9212 33.5407C14.6428 29.9858 17.0218 25.0735 17.0666 23.1517C17.0908 22.2041 16.709 21.4141 15.1722 21.4148C13.5488 21.4141 12.5305 22.0932 11.6963 23.4635C9.88726 26.3524 6.04548 35.0671 6.12619 38.8338C6.17171 40.9871 7.84104 41.8369 9.69597 41.8802C12.2524 41.9396 15.1971 41.2217 15.499 38.0139L15.4986 38.0143ZM22.0231 33.3814C21.8097 33.9553 21.4087 35.157 21.0848 36.4289C22.1365 36.1665 22.9241 35.9848 24.2741 36.0161C25.8133 36.0537 26.7982 36.6909 26.7975 37.9645C26.7975 41.0486 23.3866 41.9545 21.0233 41.9552C18.4256 41.9552 16.1436 40.4779 16.1436 37.6374C16.1436 34.3073 17.9484 29.2577 19.6423 25.8959C21.7216 21.7657 23.8474 21.2171 27.5072 21.2171C29.1164 21.2171 30.9689 21.9041 30.9689 23.423C30.9689 25.5286 29.1882 26.3314 27.4193 26.4331C26.6631 26.4765 25.5015 26.5181 24.8067 26.4683C24.8067 26.4683 24.2161 27.3661 23.5921 28.9625C26.8661 28.5017 28.2556 29.2452 27.7031 31.1385C26.955 33.6982 24.737 33.8671 22.0227 33.381L22.0231 33.3814ZM36.2325 26.5853C36.6645 25.9798 37.2423 25.4191 38.1287 25.4191C39.2149 25.4191 39.1097 25.9937 38.8519 26.7279C38.1198 28.8185 40.3306 28.8737 40.8704 28.831C42.8003 28.6806 43.8638 27.4337 44.1255 25.3096C44.4839 22.4175 42.0473 21.3071 38.9585 21.3071C33.8101 21.3071 31.7891 24.4559 29.8613 28.9572C28.9557 31.0717 27.8151 34.6852 27.8154 36.9864C27.8151 40.2184 29.7817 41.9709 32.9511 41.9709C37.5793 41.9709 40.8498 38.2802 41.7841 33.6818C42.0718 32.2667 42.4263 29.6111 38.8316 29.759C37.0069 29.8344 35.9061 30.2369 35.3258 32.1014C34.7285 34.0221 36.8949 34.0744 36.8949 34.0744C36.459 36.0601 35.1829 37.264 34.0458 37.2651C33.3361 37.2651 32.6905 36.9572 32.9066 35.4553C33.2277 33.2594 35.2842 27.9183 36.2325 26.5853ZM57.5719 29.2189C57.0258 31.9282 55.8026 35.1353 54.4736 37.525C52.3047 41.4233 49.6739 41.9695 47.3738 41.9403C45.0752 41.9129 42.4835 41.0653 42.464 37.5176C42.4501 34.9718 43.5477 31.3764 44.4803 29.0223C46.107 24.7521 47.766 21.2694 53.0172 21.3316C59.1392 21.4031 58.0473 26.8484 57.5719 29.2189ZM49.8926 36.1654C50.7438 34.7236 53.1399 28.1839 53.2053 26.5487C53.2245 26.0722 53.1459 25.5176 52.3779 25.5087C51.8514 25.5012 51.3934 25.6033 50.9817 26.2393C50.0565 27.4418 47.3482 34.8385 47.3941 36.314C47.4108 36.8445 47.707 37.3078 48.3584 37.3078C49.1086 37.3085 49.5242 36.7922 49.8926 36.1654Z" fill="black"/>
</g>
<defs>
<clipPath id="clip0_1469_1242">
<rect width="64" height="64" fill="white"/>
</clipPath>
</defs>
</svg>
