<svg width="40" height="40" viewBox="0 0 40 40" fill="none" xmlns="http://www.w3.org/2000/svg">
<g clip-path="url(#clip0_1469_1972)">
<path d="M0.27179 0.267578V39.7334H39.7378L39.7376 0.267578H0.27179Z" fill="white"/>
<path fill-rule="evenodd" clip-rule="evenodd" d="M0.27179 39.7334V0.267578H39.7373L39.7376 39.7334H0.27179ZM36.3098 20.4571C36.6553 19.4336 37.0467 17.9016 37.1111 16.672C37.1602 15.7445 37.0353 14.4454 36.1605 13.5222C35.4625 12.7847 34.396 12.4125 32.9907 12.4125C31.2153 12.4125 29.7849 13.0391 28.7382 14.2785L28.462 14.6042L28.2785 14.2189C28.1287 13.9049 28.0216 13.7762 27.8585 13.5922C27.1431 12.7829 25.9436 12.3727 24.2931 12.3729C22.7811 12.3729 21.4153 12.826 20.4469 13.6489L20.2018 13.8571L20.0329 13.5822C19.5756 12.8389 18.4356 12.3578 17.1296 12.3578C15.2505 12.3582 13.3545 12.6134 12.2107 14.4571L11.7367 15.218L11.6996 14.3218C11.6707 13.6285 11.6073 13.3405 11.2849 12.9991C10.9302 12.6229 10.3333 12.44 9.46046 12.4407C8.17868 12.4407 7.21534 12.9996 6.51468 14.1505C5.43623 15.8731 2.82957 21.5394 2.88712 24.2325C2.9249 25.9802 4.09112 27.05 6.00779 27.0942C7.58734 27.1325 8.8429 26.7271 9.64046 25.9222L9.84401 25.7165L10.0396 25.928C10.7565 26.7062 11.8462 27.1351 13.1087 27.1351C14.7162 27.1351 16.0909 26.6356 16.8805 25.7638L17.096 25.5262L17.2987 25.7754C18.0378 26.6834 19.18 27.1594 20.6016 27.1536C22.4556 27.1454 24.1871 26.2934 25.3518 24.8176L25.6571 24.4307L25.8276 24.8936C26.5453 26.8454 28.4907 27.1362 29.5878 27.1369C33.3133 27.1369 34.9222 24.5807 36.3098 20.4571Z" fill="#FFED00"/>
<path fill-rule="evenodd" clip-rule="evenodd" d="M0.27179 39.7334V0.267578H39.7373L39.7376 39.7334H0.27179ZM36.5569 23.3462C37.0727 22.2831 38.0431 19.6225 38.2225 18.1858L38.2245 18.17C38.4431 16.4162 38.65 14.7567 37.4667 13.1076C36.6253 11.9356 35.1918 11.1491 33.0107 11.1489C31.362 11.1489 29.8896 11.5956 28.7122 12.5747C27.704 11.5769 26.258 11.124 24.3118 11.1245C22.7889 11.1245 21.5107 11.4727 20.3976 12.1409C19.5896 11.4989 18.6411 11.0978 17.13 11.0978C15.7602 11.0976 13.8371 11.1689 12.3862 12.4007C12.0509 11.7165 11.3691 11.1791 9.48846 11.1791C7.75601 11.1791 6.34268 11.9987 5.41579 13.5202C4.17823 15.4969 1.55134 21.2051 1.61846 24.3234C1.66846 26.6707 3.42868 28.2878 5.97846 28.3485C7.51068 28.3842 8.81557 28.0562 9.81135 27.3954C10.7118 28.0442 11.8625 28.3947 13.1411 28.3947C14.6713 28.3949 16.0518 27.9931 17.0753 27.2718C18.0027 28.0069 19.2193 28.4042 20.5958 28.4042C22.3816 28.4049 24.0409 27.7882 25.3813 26.6151C26.2956 27.7809 27.8618 28.3869 29.7638 28.3871C33.3245 28.3874 35.174 26.1974 36.5569 23.3462Z" fill="#E3000B"/>
<path fill-rule="evenodd" clip-rule="evenodd" d="M0 40V0H40L39.9993 39.9993L0 40ZM39.4489 39.4491L39.4493 0.550667H0.550222L0.551111 39.4489L39.4489 39.4491Z" fill="black"/>
<path fill-rule="evenodd" clip-rule="evenodd" d="M37.2478 12.0668C37.2475 11.941 37.2721 11.8163 37.3202 11.7C37.3682 11.5837 37.4387 11.4779 37.5277 11.3889C37.6166 11.2999 37.7223 11.2293 37.8385 11.1811C37.9548 11.133 38.0795 11.1083 38.2053 11.1084C38.3313 11.1082 38.456 11.1328 38.5724 11.1809C38.6889 11.2289 38.7946 11.2995 38.8837 11.3886C38.9728 11.4776 39.0434 11.5834 39.0916 11.6998C39.1397 11.8161 39.1644 11.9409 39.1642 12.0668C39.1644 12.1928 39.1398 12.3176 39.0917 12.434C39.0436 12.5504 38.9729 12.6561 38.8838 12.7452C38.7947 12.8342 38.6889 12.9048 38.5725 12.9528C38.4561 13.0008 38.3313 13.0254 38.2053 13.0251C38.0795 13.0253 37.9548 13.0006 37.8385 12.9525C37.7222 12.9044 37.6165 12.8339 37.5275 12.7448C37.4386 12.6558 37.3681 12.5501 37.32 12.4337C37.272 12.3174 37.2475 12.1927 37.2478 12.0668ZM38.2058 11.2986C38.632 11.2988 38.9784 11.642 38.9773 12.0682C38.9784 12.4944 38.6307 12.8386 38.2058 12.8386C38.1048 12.8385 38.0048 12.8184 37.9116 12.7796C37.8183 12.7408 37.7337 12.684 37.6624 12.6125C37.5911 12.5409 37.5347 12.456 37.4962 12.3626C37.4578 12.2692 37.4382 12.1692 37.4384 12.0682C37.438 11.9672 37.4575 11.8671 37.4959 11.7737C37.5343 11.6803 37.5908 11.5953 37.6621 11.5238C37.7334 11.4523 37.8181 11.3956 37.9114 11.3569C38.0047 11.3183 38.1048 11.2985 38.2058 11.2986ZM38.5789 12.3675L38.6933 12.5675L38.4451 12.5691L38.3658 12.4068C38.3304 12.3358 38.2848 12.2704 38.2304 12.2126C38.1913 12.172 38.1555 12.1617 38.0673 12.1617L38.0309 12.162L38.0304 12.5686H37.8258V11.576H38.3202C38.5333 11.576 38.6333 11.6948 38.6333 11.8522C38.6338 12.0022 38.5324 12.11 38.3649 12.13L38.3653 12.1355C38.4504 12.1651 38.4787 12.1928 38.5789 12.3675ZM38.0302 11.7302V12.0028H38.2375C38.3762 12.0028 38.422 11.9353 38.42 11.8651C38.42 11.7775 38.3504 11.7295 38.2153 11.7295L38.0302 11.7302ZM28.5258 14.1C29.492 12.9555 30.9218 12.1357 32.9893 12.1357C36.5682 12.1357 37.5044 14.4757 37.3871 16.6868C37.3175 18.0157 36.8911 19.5988 36.5724 20.5457C35.1569 24.7526 33.4569 27.4128 29.588 27.4124C27.8224 27.4128 26.2067 26.724 25.57 24.9884C24.4071 26.46 22.6298 27.4204 20.6033 27.4304C19.0544 27.438 17.85 26.8906 17.0844 25.9504C16.1755 26.9535 14.6375 27.4128 13.1089 27.4133C11.7355 27.4124 10.5889 26.934 9.83621 26.1166C8.99755 26.9624 7.67977 27.4113 6.00132 27.372C3.85132 27.3204 2.65021 26.0304 2.61066 24.2397C2.55155 21.4677 5.19155 15.7451 6.27977 14.0075C7.03088 12.7748 8.07421 12.1697 9.45977 12.1691C10.2204 12.1697 11.0015 12.302 11.4844 12.8135C11.8815 13.2335 11.9453 13.6068 11.9747 14.3135C13.1924 12.3513 15.2449 12.0846 17.128 12.0851C18.5689 12.0851 19.7649 12.6244 20.2667 13.4397C21.2324 12.6188 22.6233 12.098 24.2918 12.098C25.9995 12.0982 27.2718 12.5148 28.0638 13.4108C28.2384 13.6075 28.3627 13.7577 28.5258 14.1ZM9.68666 23.7588C9.75021 23.0886 9.24821 22.3648 7.24532 22.7124C7.44421 22.2668 7.73999 21.6562 8.07577 20.9628C9.15177 18.7411 10.6387 15.6708 10.6667 14.4697C10.6818 13.8775 10.4431 13.3837 9.48266 13.3842C8.46799 13.3837 7.83155 13.8082 7.31021 14.6646C6.17955 16.4702 3.77843 21.9168 3.82888 24.2711C3.85732 25.6168 4.90066 26.148 6.05999 26.1751C7.65777 26.2122 9.49821 25.7635 9.68688 23.7586L9.68666 23.7588ZM13.7644 20.8633C13.6311 21.222 13.3804 21.9731 13.178 22.768C13.8353 22.604 14.3275 22.4904 15.1713 22.51C16.1333 22.5335 16.7489 22.9317 16.7484 23.7277C16.7484 25.6553 14.6167 26.2215 13.1395 26.222C11.516 26.222 10.0898 25.2986 10.0898 23.5233C10.0898 21.442 11.2178 18.286 12.2764 16.1848C13.576 13.6035 14.9047 13.2606 17.192 13.2606C18.1978 13.2606 19.3555 13.69 19.3555 14.6393C19.3555 15.9553 18.2427 16.4571 17.1371 16.5206C16.6644 16.5477 15.9384 16.5737 15.5042 16.5426C15.5042 16.5426 15.1351 17.1037 14.7451 18.1015C16.7913 17.8135 17.6598 18.2782 17.3144 19.4615C16.8469 21.0613 15.4607 21.1668 13.7642 20.8631L13.7644 20.8633ZM22.6453 16.6157C22.9153 16.2373 23.2764 15.8868 23.8304 15.8868C24.5093 15.8868 24.4435 16.246 24.2824 16.7048C23.8249 18.0115 25.2067 18.046 25.544 18.0193C26.7502 17.9253 27.4149 17.146 27.5784 15.8184C27.8024 14.0108 26.2795 13.3168 24.3491 13.3168C21.1313 13.3168 19.8682 15.2848 18.6633 18.0982C18.0973 19.4197 17.3844 21.6782 17.3847 23.1164C17.3844 25.1364 18.6135 26.2317 20.5944 26.2317C23.4871 26.2317 25.5311 23.9251 26.1151 21.0511C26.2949 20.1666 26.5164 18.5068 24.2698 18.5993C23.1293 18.6464 22.4413 18.898 22.0787 20.0633C21.7053 21.2637 23.0593 21.2964 23.0593 21.2964C22.7869 22.5375 21.9893 23.29 21.2787 23.2906C20.8351 23.2906 20.4315 23.0982 20.5667 22.1595C20.7673 20.7871 22.0527 17.4488 22.6453 16.6157ZM35.9824 18.2617C35.6411 19.9551 34.8767 21.9595 34.046 23.4531C32.6904 25.8895 31.0462 26.2308 29.6087 26.2126C28.172 26.1955 26.5522 25.6657 26.54 23.4484C26.5313 21.8573 27.2173 19.6102 27.8002 18.1388C28.8169 15.47 29.8538 13.2933 33.1358 13.3322C36.962 13.3768 36.2795 16.7802 35.9824 18.2617ZM31.1829 22.6033C31.7149 21.7022 33.2124 17.6148 33.2533 16.5928C33.2653 16.2951 33.2162 15.9484 32.7362 15.9428C32.4071 15.9382 32.1209 16.002 31.8635 16.3995C31.2853 17.1511 29.5927 21.774 29.6213 22.6962C29.6318 23.0277 29.8169 23.3173 30.224 23.3173C30.6929 23.3177 30.9527 22.9951 31.1829 22.6033Z" fill="black"/>
</g>
<defs>
<clipPath id="clip0_1469_1972">
<rect width="40" height="40" fill="white"/>
</clipPath>
</defs>
</svg>
