<svg width="16" height="16" viewBox="0 0 16 16" fill="none" xmlns="http://www.w3.org/2000/svg">
<g clip-path="url(#clip0_1469_2576)">
<path d="M10.9247 9.37398C10.9247 6.64143 10.9247 3.9081 10.9247 1.17398C10.9247 0.522215 11.1435 0.301038 11.793 0.296332L14.8965 0.296333C15.5294 0.301039 15.7647 0.548097 15.7647 1.17633L15.7647 6.63045C15.7647 7.54339 15.7647 8.45947 15.7647 9.37869C15.7647 10.0187 15.5294 10.2563 14.8965 10.2563H11.7953C11.153 10.2563 10.9247 10.0257 10.9247 9.37398Z" fill="#CACACA"/>
<path d="M0.235325 5.90574C0.262356 5.66296 0.355068 5.43214 0.503491 5.23811C0.651913 5.04408 0.850428 4.89419 1.07768 4.80457L1.00709 4.73163C0.881533 4.59311 0.786322 4.42987 0.727567 4.25239C0.668812 4.07491 0.647813 3.88711 0.665914 3.70104C0.701548 3.41068 0.829696 3.13951 1.0314 2.92763C1.23311 2.71575 1.49766 2.57443 1.78591 2.52457C1.66328 2.38868 1.57024 2.22877 1.51272 2.05499C1.4552 1.88122 1.43446 1.69738 1.4518 1.51516C1.49035 1.17581 1.65389 0.862981 1.91054 0.637651C2.16719 0.412322 2.49855 0.290642 2.84003 0.296334L4.66592 0.296334C5.47297 0.296334 6.31297 0.296334 7.12709 0.296334L7.20709 0.296334C8.32167 0.328438 9.42307 0.546332 10.4659 0.94104C10.4569 1.01913 10.453 1.09773 10.4542 1.17633C10.4542 3.91202 10.4542 6.64535 10.4542 9.37633C10.4534 9.49848 10.4628 9.62047 10.4824 9.74104L10.1741 10.0093C10.0753 10.0916 9.9765 10.1763 9.88003 10.2634C9.23297 10.8305 8.58356 11.4563 8.35768 12.3246C8.27754 12.6814 8.23651 13.0459 8.23533 13.4116C8.23533 13.5999 8.22121 13.7881 8.20709 13.974C8.20709 14.061 8.19297 14.1457 8.18591 14.2328C8.17621 14.4972 8.13835 14.7599 8.07297 15.0163C7.94121 15.4587 7.54591 15.7104 6.99062 15.7104C6.74704 15.722 6.50601 15.6566 6.30163 15.5236C6.09725 15.3906 5.93988 15.1967 5.8518 14.9693C5.43365 13.9087 5.33469 12.7489 5.56709 11.6328C5.66827 11.1622 5.80238 10.6916 5.95768 10.2446C6.02591 10.0234 6.0965 9.79986 6.16238 9.57633L2.18591 9.57633C1.84785 9.58 1.52029 9.4589 1.26591 9.23621C1.01153 9.01351 0.848173 8.70485 0.80709 8.36927C0.789595 8.18305 0.811108 7.99522 0.870256 7.81778C0.929404 7.64033 1.02489 7.47717 1.15062 7.33868L1.17415 7.3128C0.945559 7.24172 0.740065 7.11095 0.578854 6.93398C0.452818 6.79618 0.357116 6.63345 0.29794 6.45633C0.238764 6.27921 0.217432 6.09163 0.235325 5.90574Z" fill="#CACACA"/>
</g>
<defs>
<clipPath id="clip0_1469_2576">
<rect width="16" height="16" fill="white" transform="translate(16 16) rotate(-180)"/>
</clipPath>
</defs>
</svg>
