<svg width="16" height="16" viewBox="0 0 16 16" fill="none" xmlns="http://www.w3.org/2000/svg">
<g clip-path="url(#clip0_1469_2472)">
<path d="M10.9247 9.37422C10.9247 6.64167 10.9247 3.90834 10.9247 1.17422C10.9247 0.522459 11.1435 0.301282 11.793 0.296576L14.8965 0.296577C15.5294 0.301283 15.7647 0.548341 15.7647 1.17658L15.7647 6.63069C15.7647 7.54364 15.7647 8.45971 15.7647 9.37893C15.7647 10.0189 15.5294 10.2566 14.8965 10.2566H11.7953C11.153 10.2566 10.9247 10.026 10.9247 9.37422Z" fill="#CACACA"/>
<path d="M0.235325 5.90599C0.262356 5.6632 0.355068 5.43238 0.503491 5.23835C0.651913 5.04433 0.850428 4.89444 1.07768 4.80481L1.00709 4.73187C0.881533 4.59335 0.786322 4.43012 0.727567 4.25264C0.668812 4.07516 0.647813 3.88736 0.665914 3.70128C0.701548 3.41093 0.829696 3.13975 1.0314 2.92787C1.23311 2.716 1.49766 2.57467 1.78591 2.52481C1.66328 2.38892 1.57024 2.22901 1.51272 2.05524C1.4552 1.88146 1.43446 1.69762 1.4518 1.5154C1.49035 1.17605 1.65389 0.863225 1.91054 0.637895C2.16719 0.412566 2.49855 0.290886 2.84003 0.296578L4.66592 0.296578C5.47297 0.296578 6.31297 0.296578 7.12709 0.296578L7.20709 0.296578C8.32167 0.328682 9.42307 0.546576 10.4659 0.941284C10.4569 1.01938 10.453 1.09797 10.4542 1.17658C10.4542 3.91226 10.4542 6.6456 10.4542 9.37658C10.4534 9.49872 10.4628 9.62072 10.4824 9.74128L10.1741 10.0095C10.0753 10.0919 9.9765 10.1766 9.88003 10.2636C9.23297 10.8307 8.58356 11.4566 8.35768 12.3248C8.27754 12.6816 8.23651 13.0461 8.23533 13.4119C8.23533 13.6001 8.22121 13.7883 8.20709 13.9742C8.20709 14.0613 8.19297 14.146 8.18591 14.233C8.17621 14.4975 8.13835 14.7602 8.07297 15.0166C7.94121 15.4589 7.54591 15.7107 6.99062 15.7107C6.74704 15.7222 6.50601 15.6569 6.30163 15.5238C6.09725 15.3908 5.93988 15.1969 5.8518 14.9695C5.43365 13.9089 5.33469 12.7492 5.56709 11.633C5.66827 11.1625 5.80238 10.6919 5.95768 10.2448C6.02591 10.0236 6.0965 9.80011 6.16238 9.57658L2.18591 9.57658C1.84785 9.58024 1.52029 9.45914 1.26591 9.23645C1.01153 9.01376 0.848173 8.7051 0.80709 8.36952C0.789595 8.18329 0.811108 7.99547 0.870256 7.81802C0.929404 7.64058 1.02489 7.47741 1.15062 7.33893L1.17415 7.31305C0.945559 7.24196 0.740065 7.11119 0.578854 6.93422C0.452818 6.79642 0.357116 6.6337 0.29794 6.45657C0.238764 6.27945 0.217432 6.09188 0.235325 5.90599Z" fill="#CACACA"/>
</g>
<defs>
<clipPath id="clip0_1469_2472">
<rect width="16" height="16" fill="white" transform="translate(16 16) rotate(-180)"/>
</clipPath>
</defs>
</svg>
