<svg width="16" height="16" viewBox="0 0 16 16" fill="none" xmlns="http://www.w3.org/2000/svg">
<g clip-path="url(#clip0_1469_2749)">
<path d="M10.9247 9.3741C10.9247 6.64155 10.9247 3.90822 10.9247 1.1741C10.9247 0.522337 11.1435 0.30116 11.793 0.296454L14.8965 0.296455C15.5294 0.301161 15.7647 0.548219 15.7647 1.17645L15.7647 6.63057C15.7647 7.54351 15.7647 8.45959 15.7647 9.37881C15.7647 10.0188 15.5294 10.2565 14.8965 10.2565H11.7953C11.153 10.2565 10.9247 10.0259 10.9247 9.3741Z" fill="#CACACA"/>
<path d="M0.235325 5.90587C0.262356 5.66308 0.355068 5.43226 0.503491 5.23823C0.651913 5.0442 0.850428 4.89432 1.07768 4.80469L1.00709 4.73175C0.881533 4.59323 0.786322 4.43 0.727567 4.25252C0.668812 4.07504 0.647813 3.88723 0.665914 3.70116C0.701548 3.4108 0.829696 3.13963 1.0314 2.92775C1.23311 2.71587 1.49766 2.57455 1.78591 2.52469C1.66328 2.3888 1.57024 2.22889 1.51272 2.05511C1.4552 1.88134 1.43446 1.6975 1.4518 1.51528C1.49035 1.17593 1.65389 0.863103 1.91054 0.637773C2.16719 0.412444 2.49855 0.290764 2.84003 0.296456L4.66592 0.296456C5.47297 0.296456 6.31297 0.296456 7.12709 0.296456L7.20709 0.296456C8.32167 0.32856 9.42307 0.546454 10.4659 0.941162C10.4569 1.01926 10.453 1.09785 10.4542 1.17646C10.4542 3.91214 10.4542 6.64548 10.4542 9.37646C10.4534 9.4986 10.4628 9.62059 10.4824 9.74116L10.1741 10.0094C10.0753 10.0917 9.9765 10.1765 9.88003 10.2635C9.23297 10.8306 8.58356 11.4565 8.35768 12.3247C8.27754 12.6815 8.23651 13.046 8.23533 13.4117C8.23533 13.6 8.22121 13.7882 8.20709 13.9741C8.20709 14.0612 8.19297 14.1459 8.18591 14.2329C8.17621 14.4974 8.13835 14.76 8.07297 15.0165C7.94121 15.4588 7.54591 15.7106 6.99062 15.7106C6.74704 15.7221 6.50601 15.6567 6.30163 15.5237C6.09725 15.3907 5.93988 15.1968 5.8518 14.9694C5.43365 13.9088 5.33469 12.7491 5.56709 11.6329C5.66827 11.1623 5.80238 10.6917 5.95768 10.2447C6.02591 10.0235 6.0965 9.79998 6.16238 9.57646L2.18591 9.57645C1.84785 9.58012 1.52029 9.45902 1.26591 9.23633C1.01153 9.01363 0.848173 8.70498 0.80709 8.3694C0.789595 8.18317 0.811108 7.99535 0.870256 7.8179C0.929404 7.64046 1.02489 7.47729 1.15062 7.33881L1.17415 7.31293C0.945559 7.24184 0.740065 7.11107 0.578854 6.9341C0.452818 6.7963 0.357116 6.63357 0.29794 6.45645C0.238764 6.27933 0.217432 6.09175 0.235325 5.90587Z" fill="#CACACA"/>
</g>
<defs>
<clipPath id="clip0_1469_2749">
<rect width="16" height="16" fill="white" transform="translate(16 16) rotate(-180)"/>
</clipPath>
</defs>
</svg>
