<svg width="20" height="22" viewBox="0 0 20 22" fill="none" xmlns="http://www.w3.org/2000/svg">
<g clip-path="url(#clip0_1469_1981)">
<path d="M13.396 1H6.604C6.20138 1 5.875 1.32638 5.875 1.729V6.309C5.875 6.71162 6.20138 7.038 6.604 7.038H13.396C13.7986 7.038 14.125 6.71162 14.125 6.309V1.729C14.125 1.32638 13.7986 1 13.396 1Z" fill="#FFCF00" stroke="#2C2C2C" stroke-width="1.5"/>
<path d="M14.521 15.3398H5.479C5.07638 15.3398 4.75 15.6662 4.75 16.0688V20.2708C4.75 20.6735 5.07638 20.9998 5.479 20.9998H14.521C14.9236 20.9998 15.25 20.6735 15.25 20.2708V16.0688C15.25 15.6662 14.9236 15.3398 14.521 15.3398Z" fill="#FFCF00" stroke="#2C2C2C" stroke-width="1.2"/>
<path d="M15.25 18.736H4.75C1 18.736 1 15.717 1 15.717V7.03702C1 7.03702 1 4.02002 4.75 4.02002H15.25C19 4.01902 19 7.03802 19 7.03802V15.717C19 15.717 19 18.736 15.25 18.736Z" fill="#FFCF00" stroke="#2C2C2C" stroke-width="1.5"/>
<path d="M8.125 9.8678C8.1254 9.74428 8.10144 9.62188 8.05451 9.50762C8.00757 9.39336 7.93857 9.28947 7.85145 9.20189C7.76434 9.11431 7.66082 9.04476 7.54681 8.99722C7.4328 8.94967 7.31053 8.92507 7.187 8.9248C7.06356 8.9252 6.94141 8.9499 6.82751 8.9975C6.71361 9.04511 6.61021 9.11468 6.5232 9.20224C6.43619 9.28981 6.36728 9.39366 6.32041 9.50785C6.27353 9.62205 6.24961 9.74436 6.25 9.8678C6.25 10.3878 6.67001 10.8108 7.18801 10.8108C7.31145 10.8104 7.4336 10.7857 7.5475 10.7381C7.6614 10.6905 7.7648 10.6209 7.85181 10.5334C7.93882 10.4458 8.00773 10.342 8.0546 10.2278C8.10148 10.1136 8.1254 9.99125 8.125 9.8678ZM12.813 8.9248C12.6895 8.92507 12.5672 8.94967 12.4532 8.99722C12.3392 9.04476 12.2357 9.11431 12.1486 9.20189C12.0614 9.28947 11.9924 9.39336 11.9455 9.50762C11.8986 9.62188 11.8746 9.74428 11.875 9.8678C11.875 10.3878 12.295 10.8108 12.813 10.8108C12.9364 10.8104 13.0586 10.7857 13.1725 10.7381C13.2864 10.6905 13.3898 10.6209 13.4768 10.5334C13.5638 10.4458 13.6327 10.342 13.6796 10.2278C13.7265 10.1136 13.7504 9.99125 13.75 9.8678C13.7504 9.74428 13.7264 9.62188 13.6795 9.50762C13.6326 9.39336 13.5636 9.28947 13.4765 9.20189C13.3893 9.11431 13.2858 9.04476 13.1718 8.99722C13.0578 8.94967 12.9365 8.92507 12.813 8.9248ZM13.106 12.7848C13.0506 12.7514 12.9887 12.7304 12.9245 12.723C12.8603 12.7156 12.7952 12.7221 12.7337 12.742C12.6722 12.7619 12.6156 12.7947 12.5679 12.8384C12.5202 12.882 12.4824 12.9353 12.457 12.9948C12.452 13.0028 11.996 13.8348 9.99401 13.8348C8.04101 13.8348 7.557 13.0418 7.532 12.9948C7.50965 12.9342 7.47438 12.8791 7.42864 12.8334C7.3829 12.7878 7.32778 12.7526 7.2671 12.7303C7.20642 12.7081 7.14162 12.6993 7.0772 12.7045C7.01278 12.7098 6.95027 12.729 6.894 12.7608C6.77487 12.8425 6.68813 12.9634 6.64885 13.1024C6.60958 13.2414 6.62024 13.3898 6.679 13.5218C6.742 13.6688 7.36901 14.9678 9.99401 14.9678C12.619 14.9678 13.244 13.6688 13.307 13.5218C13.3629 13.3943 13.3734 13.2516 13.3368 13.1173C13.3002 12.983 13.2188 12.8663 13.106 12.7848Z" fill="#2C2C2C"/>
</g>
<defs>
<clipPath id="clip0_1469_1981">
<rect width="20" height="22" fill="white"/>
</clipPath>
</defs>
</svg>
