<svg width="28" height="28" viewBox="0 0 28 28" fill="none" xmlns="http://www.w3.org/2000/svg">
<path fill-rule="evenodd" clip-rule="evenodd" d="M17.1244 1.07886L22.7827 3.50381C22.9677 3.58305 23.0811 3.75499 23.0811 3.95619V8.6049C23.0811 12.2553 20.4674 15.0731 16.9306 15.6896C13.3938 15.073 10.7802 12.2552 10.7802 8.6049V3.95619C10.7802 3.75499 10.8936 3.58305 11.0785 3.50381L16.7368 1.07886C16.8652 1.02384 16.996 1.02384 17.1244 1.07886ZM2.50051 18.8205C2.22975 18.8601 2.04239 19.1116 2.08193 19.3824C2.12152 19.6531 2.37309 19.8405 2.64384 19.8009C2.9146 19.7613 3.10196 19.5098 3.06237 19.239C3.02283 18.9683 2.77127 18.7809 2.50051 18.8205ZM3.51753 17.8841L7.59717 25.0924C7.79442 25.4409 7.67061 25.8875 7.32209 26.0848L5.93445 26.8701C5.58592 27.0674 5.13934 26.9436 4.94209 26.5951L0.862454 19.3867C0.665196 19.0381 0.789009 18.5916 1.13753 18.3943L2.52517 17.609C2.8737 17.4117 3.32027 17.5355 3.51753 17.8841ZM12.0703 19.8469C11.8371 19.7846 11.6987 19.5451 11.761 19.312C11.8233 19.0789 12.0627 18.9404 12.2959 19.0027C13.4193 19.3037 14.527 19.6578 15.6685 19.8885C16.2527 19.9599 16.7406 19.7813 16.9034 19.1738C17.0518 18.6197 16.7027 18.0967 16.1789 17.916C14.2698 17.5668 12.6385 16.8578 10.8297 16.2714C9.83339 15.9482 8.88423 16.38 8.03045 16.8746L4.95882 18.6542L7.54614 23.2257L7.76325 23.1004C7.86475 23.0309 7.99485 23.0044 8.12298 23.0387L14.9428 24.8661C15.8052 25.0972 16.6308 24.9929 17.3938 24.5232L26.7954 18.7341C27.2826 18.434 27.3474 17.6187 27.0585 17.1533C26.4268 16.1354 24.6931 16.9702 23.9632 17.3953L18.7821 20.413C17.6925 21.0475 16.7577 20.9931 15.5582 20.7561L12.0703 19.8469ZM14.5209 8.75469L15.8609 10.0946C16.0946 10.3283 16.4735 10.3283 16.7072 10.0946C17.8553 8.94653 18.1992 8.58718 19.342 7.43306C19.5744 7.19938 19.5733 6.82148 19.3396 6.58906C19.1059 6.35664 18.728 6.35768 18.4956 6.59141L16.2831 8.8242L15.3672 7.90834C15.1335 7.67466 14.7546 7.67466 14.5208 7.90834C14.2871 8.14202 14.2871 8.52095 14.5209 8.75469ZM16.9306 4.00896C14.5372 4.00896 12.5969 5.94927 12.5969 8.34267C12.5969 10.736 14.5372 12.6764 16.9306 12.6764C19.3239 12.6764 21.2643 10.7361 21.2643 8.34267C21.2643 5.94933 19.324 4.00896 16.9306 4.00896Z" fill="#282828"/>
</svg>
