<svg width="28" height="28" viewBox="0 0 28 28" fill="none" xmlns="http://www.w3.org/2000/svg">
<path fill-rule="evenodd" clip-rule="evenodd" d="M17.2278 2.92283L16.5484 3.31511H12.1224C11.8807 3.31511 11.6849 3.511 11.6849 3.75261C11.6849 3.99422 11.8807 4.19011 12.1224 4.19011H15.0328L14.198 4.67207L24.0207 10.3432V14.5455C24.0207 14.7135 23.9374 14.8576 23.792 14.9416L21.515 16.2561C21.4424 16.2981 21.3591 16.2981 21.2864 16.2561C21.2137 16.2141 21.172 16.1421 21.172 16.0581V11.9878L11.3495 6.31663L8.56849 7.92226C8.51916 7.90295 8.46552 7.8924 8.40935 7.8924H0.929742C0.688133 7.8924 0.492242 8.08829 0.492242 8.3299C0.492242 8.57151 0.688133 8.7674 0.929742 8.7674H7.86658C7.86384 8.79715 7.86242 8.82739 7.86242 8.85801V13.5635H3.53385C3.29224 13.5635 3.09635 13.7594 3.09635 14.001C3.09635 14.2427 3.29224 14.4385 3.53385 14.4385H7.86242V18.6878H0.929688C0.688078 18.6878 0.492188 18.8837 0.492188 19.1253C0.492188 19.3669 0.688078 19.5628 0.929688 19.5628H7.96009C8.0378 19.7155 8.16003 19.844 8.31977 19.9363L17.2278 25.0793C17.5186 25.2473 17.8516 25.2473 18.1425 25.0793L27.0505 19.9363C27.3413 19.7684 27.5078 19.48 27.5078 19.1441V8.85801C27.5078 8.52218 27.3413 8.23381 27.0505 8.06587L18.1424 2.92283C17.8516 2.75489 17.5186 2.75489 17.2278 2.92283ZM8.83537 3.31505C9.07698 3.31505 9.27287 3.51094 9.27287 3.75255C9.27287 3.99416 9.07698 4.19005 8.83537 4.19005H2.98703C2.74542 4.19005 2.54953 3.99416 2.54953 3.75255C2.54953 3.51094 2.74542 3.31505 2.98703 3.31505H8.83537Z" fill="#282828"/>
</svg>
