<svg width="16" height="16" viewBox="0 0 16 16" fill="none" xmlns="http://www.w3.org/2000/svg">
<path fill-rule="evenodd" clip-rule="evenodd" d="M4.83944 4.50033H3.95377C3.34177 4.50033 2.83377 4.97333 2.79011 5.58399L2.21878 13.584C2.19578 13.907 2.30777 14.225 2.52844 14.462C2.74944 14.699 3.05844 14.8337 3.38244 14.8337H12.6171C12.9411 14.8337 13.2501 14.699 13.4711 14.462C13.6918 14.225 13.8038 13.907 13.7808 13.584L13.2094 5.58399C13.1658 4.97333 12.6578 4.50033 12.0458 4.50033H11.1664V4.33366C11.1664 2.58466 9.74877 1.16699 7.99977 1.16699C6.31477 1.16699 4.75744 2.50899 4.8331 4.33366C4.83544 4.38899 4.83744 4.44466 4.83944 4.50033ZM10.1664 4.50033V4.33366C10.1664 3.13699 9.19644 2.16699 7.99977 2.16699C6.80311 2.16699 5.8331 3.13699 5.8331 4.33366V4.50033H10.1664Z" fill="#626262"/>
</svg>
