<svg width="28" height="28" viewBox="0 0 28 28" fill="none" xmlns="http://www.w3.org/2000/svg">
<path d="M27.7597 5.51214L22.4878 0.240269C22.1675 -0.0800898 21.6481 -0.0800898 21.3277 0.240269L19.2718 2.29624L21.0289 4.05341C21.3494 4.37387 21.3494 4.89341 21.0289 5.21333C20.709 5.5338 20.1895 5.5338 19.869 5.21333L18.1119 3.45616L16.6358 4.93218L16.6359 4.93223L17.5147 5.81051C17.8346 6.13098 17.8346 6.65051 17.5147 6.97098C17.1943 7.29145 16.6747 7.2909 16.3543 6.97098L15.4758 6.09221L13.9999 7.56811L15.757 9.32528C16.0775 9.64574 16.0775 10.1653 15.757 10.4852C15.4371 10.8057 14.9176 10.8057 14.5971 10.4852L12.8399 8.72803L11.3641 10.2039L12.2429 11.0824C12.5628 11.4029 12.5628 11.9224 12.2429 12.2429C11.9224 12.5633 11.4029 12.5628 11.0824 12.2429L10.2039 11.3641L8.72803 12.8399L10.4852 14.5971C10.8057 14.9176 10.8057 15.4371 10.4852 15.757C10.1653 16.0775 9.64574 16.0775 9.32528 15.757L7.56811 13.9999L6.09232 15.4756L6.97104 16.3542C7.29096 16.6747 7.29096 17.1942 6.97104 17.5147C6.65057 17.8351 6.13104 17.8346 5.81057 17.5147L4.93201 16.6359L3.45606 18.1119L5.21333 19.869C5.5338 20.1895 5.5338 20.709 5.21333 21.0289C4.89341 21.3494 4.37387 21.3494 4.05341 21.0289L2.29635 19.2716L0.240269 21.3277C-0.0800898 21.6481 -0.0800898 22.1675 0.240269 22.4878L5.51214 27.7597C5.67232 27.9199 5.88226 28 6.09215 28C6.30204 28 6.51204 27.9199 6.67217 27.7597L27.7596 6.67222C28.08 6.35187 28.08 5.8325 27.7597 5.51214Z" fill="#5B708E"/>
</svg>
