<svg width="30" height="28" viewBox="0 0 30 28" fill="none" xmlns="http://www.w3.org/2000/svg">
<g clip-path="url(#clip0_1172_7518)">
<path d="M23.1217 13.2167C22.8204 13.518 22.8181 14.0059 23.1217 14.3094C24.0703 15.2591 24.0699 16.7922 23.1217 17.7414C22.8193 18.0438 22.8194 18.5318 23.1217 18.8342C24.0704 19.7828 24.0699 21.317 23.1217 22.2662L23.0991 22.2888C22.1524 23.2348 20.613 23.2348 19.6669 22.2888C19.3645 21.9864 18.8764 21.9864 18.5741 22.2888C17.6244 23.2372 16.0912 23.2369 15.1419 22.2888C14.8381 21.985 14.3502 21.9877 14.0491 22.2888C13.1006 23.2373 11.5656 23.2369 10.6174 22.2888C10.3143 21.9857 9.82522 21.9871 9.52466 22.2888C8.56497 23.2473 7.0303 23.2261 6.093 22.2888C5.78935 21.9863 5.30198 21.9865 4.99966 22.2888C4.05188 23.2365 2.51727 23.2374 1.568 22.2893L1.54485 22.2662C0.598174 21.3196 0.598174 19.7802 1.5443 18.8342C1.84667 18.5318 1.84667 18.0438 1.5443 17.7414C0.595748 16.7918 0.596133 15.2586 1.5443 14.3094C1.84667 14.0071 1.84667 13.519 1.5443 13.2167C0.597622 12.2701 0.594204 10.7353 1.5443 9.78527C1.84739 9.48218 1.84596 8.99305 1.5443 8.69255C0.596244 7.74341 0.595582 6.2092 1.5443 5.26056C1.84667 4.95818 1.84667 4.47016 1.5443 4.16784C1.08598 3.70909 0.83345 3.09982 0.83345 2.45206C0.83345 0.322856 3.44916 -0.837684 4.99955 0.712626C5.30193 1.015 5.79001 1.01495 6.09234 0.712626C7.041 -0.235965 8.57528 -0.235469 9.52454 0.712626C9.82455 1.01379 10.3137 1.01621 10.6173 0.712626C11.5659 -0.235855 13.1009 -0.235469 14.049 0.712626C14.3514 1.015 14.8395 1.01495 15.1418 0.712626C16.0915 -0.23591 17.6247 -0.235469 18.574 0.712626C18.8764 1.015 19.3645 1.01495 19.6668 0.712626C20.6153 -0.235855 22.1503 -0.235469 23.0984 0.712626L23.1221 0.736335C24.0677 1.68239 24.0672 3.22173 23.1216 4.16778C22.9755 4.3139 22.895 4.50793 22.895 4.71414C22.895 5.06675 23.1118 5.2455 23.1784 5.32005C24.0597 6.26125 24.0601 7.75295 23.1216 8.69255C22.8204 8.99256 22.818 9.48174 23.1216 9.78527C24.0702 10.7338 24.0699 12.2686 23.1217 13.2167Z" fill="#5B708E"/>
<path d="M28.1203 13.6965C27.821 13.9957 27.8201 14.4811 28.1203 14.7812C29.0703 15.7313 29.0704 17.2692 28.1203 18.2194C27.8198 18.5199 27.8213 19.0052 28.1203 19.3041C29.0685 20.2523 29.0723 21.7896 28.1203 22.7417C27.8197 23.0434 27.8214 23.5281 28.1203 23.827C28.5794 24.2861 28.8322 24.8967 28.8322 25.5461C28.8322 26.8926 27.7216 27.9994 26.379 27.9994C25.7296 27.9994 25.1191 27.7465 24.66 27.2873C24.3614 26.9888 23.8767 26.9866 23.5748 27.2873C22.6227 28.2395 21.0855 28.2356 20.1373 27.2873C19.8381 26.9881 19.3528 26.9872 19.0526 27.2873C18.1026 28.2374 16.5647 28.2375 15.6146 27.2873C15.3141 26.9869 14.8289 26.9885 14.53 27.2873C13.5817 28.2356 12.0445 28.2394 11.0925 27.2873C10.7908 26.9868 10.3061 26.9885 10.0073 27.2873C10.0001 27.2946 9.99285 27.3018 9.98564 27.3084C9.52925 27.7543 8.92762 27.9994 8.28822 27.9994C6.37481 27.9994 5.16472 25.8454 6.2304 24.2157C7.371 24.5722 8.6697 24.4243 9.73111 23.7149C11.1013 24.6315 12.9107 24.6319 14.2816 23.7149C15.6549 24.6328 17.4637 24.6306 18.8326 23.7149C20.4035 24.7654 22.5859 24.6237 24.0102 23.2003L24.0335 23.177C25.4547 21.7537 25.6026 19.5759 24.5481 17.9992C25.4646 16.6277 25.4651 14.82 24.5481 13.4479C25.4646 12.0777 25.4651 10.2682 24.5481 8.89725C25.2538 7.84134 25.4073 6.54263 25.0489 5.39582C25.9826 4.78304 27.2618 4.8766 28.0977 5.71245L28.1049 5.71965L28.1243 5.73962C29.0707 6.69071 29.069 8.22474 28.1204 9.17338C27.8224 9.47143 27.8191 9.95615 28.1204 10.2586C29.0723 11.2109 29.0685 12.7482 28.1203 13.6965Z" fill="#5B708E"/>
</g>
<defs>
<clipPath id="clip0_1172_7518">
<rect width="29" height="28.001" fill="white" transform="translate(0.833008)"/>
</clipPath>
</defs>
</svg>
