<svg width="28" height="28" viewBox="0 0 28 28" fill="none" xmlns="http://www.w3.org/2000/svg">
<g clip-path="url(#clip0_1336_93)">
<path fill-rule="evenodd" clip-rule="evenodd" d="M7.37816 0.771973C11.2114 0.771973 14.3188 3.87943 14.3188 7.71264C14.3188 11.5458 11.2114 14.6533 7.37816 14.6533C3.54495 14.6533 0.4375 11.5458 0.4375 7.71264C0.4375 3.87943 3.54495 0.771973 7.37816 0.771973ZM20.8016 20.2327C23.9444 20.2327 26.6032 22.3047 27.4865 25.1572C27.6417 25.6583 27.5574 26.157 27.246 26.5792C26.9347 27.0015 26.4834 27.2295 25.9587 27.2295H15.6445C15.1198 27.2295 14.6685 27.0015 14.3572 26.5792C14.0459 26.1569 13.9615 25.6583 14.1167 25.1572C15 22.3047 17.6589 20.2327 20.8016 20.2327ZM20.8016 12.2126C22.7554 12.2126 24.3393 13.7965 24.3393 15.7502C24.3393 17.704 22.7554 19.2878 20.8016 19.2878C18.8479 19.2878 17.2641 17.704 17.2641 15.7502C17.2641 13.7965 18.8479 12.2126 20.8016 12.2126ZM20.1986 7.98263V9.05078C20.1986 9.10569 20.1697 9.15272 20.1207 9.17755C20.0717 9.20238 20.0167 9.19784 19.9725 9.16535L16.7919 6.83184C16.7554 6.80515 16.7353 6.76693 16.7339 6.72181C16.7325 6.67669 16.7501 6.63726 16.7847 6.60828L19.9654 3.9462C20.0087 3.90994 20.0655 3.9025 20.1167 3.9264C20.1679 3.9503 20.1987 3.99864 20.1987 4.05514V5.04744C25.1576 5.04744 26.784 8.69313 25.3433 11.2858C24.5463 8.18251 21.9441 7.98263 20.1986 7.98263ZM8.88316 21.811V20.7622C8.88316 20.7033 8.91417 20.6528 8.96667 20.6263C9.01923 20.5997 9.07823 20.6045 9.1257 20.6393L12.2818 22.9548C12.3209 22.9834 12.3424 23.0244 12.344 23.0728C12.3455 23.1212 12.3266 23.1635 12.2895 23.1946L9.13336 25.8361C9.08693 25.875 9.02595 25.8829 8.97105 25.8573C8.91614 25.8316 8.88316 25.7798 8.88316 25.7192V24.7481C3.92082 24.7481 2.29327 21.0999 3.73494 18.5054C4.5325 21.611 7.1365 21.811 8.88316 21.811ZM7.37822 1.97521C5.79392 1.97521 4.35958 2.6174 3.32128 3.6557C2.28298 4.694 1.64079 6.12834 1.64079 7.71264C1.64079 9.29693 2.28298 10.7313 3.32128 11.7696C4.35958 12.8079 5.79392 13.4501 7.37822 13.4501C8.96252 13.4501 10.3969 12.8079 11.4352 11.7696C12.4735 10.7313 13.1156 9.29693 13.1156 7.71264C13.1156 6.12834 12.4734 4.694 11.4351 3.6557C10.3969 2.6174 8.96246 1.97521 7.37822 1.97521ZM10.8165 4.27432C9.93661 3.3944 8.72096 2.85021 7.37822 2.85021C6.03548 2.85021 4.81983 3.39446 3.93991 4.27432C3.06004 5.15425 2.51579 6.36984 2.51579 7.71264C2.51579 9.05538 3.06004 10.271 3.93991 11.1509C4.81983 12.0308 6.03542 12.5751 7.37822 12.5751C8.72096 12.5751 9.93661 12.0308 10.8165 11.1509C11.6964 10.271 12.2406 9.05543 12.2406 7.71264C12.2406 6.36984 11.6963 5.15425 10.8165 4.27432ZM9.34834 5.93086C9.0691 5.26581 8.53743 4.88152 7.95304 4.73343C7.90989 4.72249 7.86641 4.71292 7.82272 4.70461V4.35887C7.82272 4.11354 7.62382 3.9147 7.37849 3.9147C7.13316 3.9147 6.93432 4.1136 6.93432 4.35887V4.71122L6.93405 4.71128C6.59673 4.7792 6.27998 4.9215 6.02487 5.12898C5.63303 5.44754 5.38459 5.91008 5.41259 6.48682C5.4407 7.06629 5.72983 7.45495 6.13244 7.71778C6.48348 7.94692 6.91463 8.06548 7.31221 8.13078C7.63175 8.18322 7.97289 8.26618 8.23205 8.42264C8.43954 8.54788 8.5954 8.73097 8.62865 9.00529C8.63308 9.04182 8.63548 9.06834 8.63587 9.08535C8.64106 9.30355 8.53666 9.46986 8.37993 9.5888C8.18382 9.73761 7.90852 9.82532 7.63317 9.85874C7.55825 9.86782 7.49284 9.87296 7.43734 9.87427C7.11134 9.88209 6.78967 9.80225 6.53838 9.6349C6.33205 9.49747 6.17438 9.2965 6.10854 9.03241C6.05008 8.79474 5.81005 8.64949 5.57238 8.70795C5.33471 8.76641 5.18946 9.00643 5.24792 9.24411C5.37212 9.7422 5.66573 10.1188 6.04909 10.3741C6.31116 10.5487 6.61555 10.664 6.93432 10.7201V11.0664C6.93432 11.3117 7.13322 11.5106 7.37849 11.5106C7.62382 11.5106 7.82272 11.3117 7.82272 11.0664V10.7285C8.20996 10.6696 8.60459 10.5284 8.91439 10.2933C9.28632 10.0112 9.53378 9.60696 9.52087 9.06462C9.5194 9.00261 9.51584 8.94792 9.51021 8.90127C9.43808 8.30698 9.11652 7.92012 8.69023 7.66271C8.31567 7.43657 7.86641 7.32392 7.45456 7.25632C7.15734 7.20749 6.84425 7.12491 6.61489 6.97518C6.43705 6.85907 6.30952 6.69102 6.29759 6.4452C6.28469 6.17931 6.40073 5.96482 6.58366 5.81613C6.72689 5.6997 6.9096 5.61876 7.10762 5.57889C7.31095 5.53793 7.52932 5.54116 7.73795 5.59404C8.06914 5.67799 8.37069 5.8963 8.52944 6.27441C8.62433 6.50054 8.88459 6.60702 9.11072 6.51214C9.33674 6.41725 9.44322 6.157 9.34834 5.93086Z" fill="#282828"/>
</g>
<defs>
<clipPath id="clip0_1336_93">
<rect width="28" height="28" fill="white" transform="translate(0 0.000976562)"/>
</clipPath>
</defs>
</svg>
