<svg width="29" height="28" viewBox="0 0 29 28" fill="none" xmlns="http://www.w3.org/2000/svg">
<g clip-path="url(#clip0_1172_7530)">
<path d="M28.2533 13.6938C25.2657 11.958 22.5611 11.5613 19.9856 12.4808C13.3868 14.8364 10.6232 24.311 1.89386 19.2415C1.34923 18.9251 0.666016 19.3233 0.666016 19.9637V27.1678C0.666016 27.6274 1.0333 28 1.48633 28H27.8457C28.2987 28 28.666 27.6274 28.666 27.1678V14.4159C28.666 14.1176 28.5086 13.842 28.2533 13.6938ZM4.81953 24.6158C4.3665 24.6158 3.99922 24.2432 3.99922 23.7837C3.99922 23.3241 4.3665 22.9515 4.81953 22.9515C5.27256 22.9515 5.63984 23.3241 5.63984 23.7837C5.63984 24.2433 5.27256 24.6158 4.81953 24.6158ZM9.74141 24.6158C9.28838 24.6158 8.92109 24.2432 8.92109 23.7837C8.92109 23.3241 9.28838 22.9515 9.74141 22.9515C10.1944 22.9515 10.5617 23.3241 10.5617 23.7837C10.5617 24.2433 10.1944 24.6158 9.74141 24.6158ZM15.4863 23.7837C15.4863 24.2432 15.119 24.6158 14.666 24.6158C14.213 24.6158 13.8457 24.2432 13.8457 23.7837V21.2899C13.8457 20.8303 14.213 20.4577 14.666 20.4577C15.119 20.4577 15.4863 20.8303 15.4863 21.2899V23.7837ZM20.4109 23.7837C20.4109 24.2432 20.0437 24.6158 19.5906 24.6158C19.1376 24.6158 18.7703 24.2432 18.7703 23.7837V17.1263C18.7703 16.6667 19.1376 16.2941 19.5906 16.2941C20.0437 16.2941 20.4109 16.6667 20.4109 17.1263V23.7837ZM25.3301 23.7837C25.3301 24.2432 24.9628 24.6158 24.5098 24.6158C24.0567 24.6158 23.6895 24.2432 23.6895 23.7837V17.1263C23.6895 16.6667 24.0567 16.2941 24.5098 16.2941C24.9628 16.2941 25.3301 16.6667 25.3301 17.1263V23.7837Z" fill="#5B708E"/>
<path d="M10.666 10.2635L4.39201 10L3.51713 10.7035C1.57659 12.264 1.15266 14.9547 2.28836 17L10.666 10.2635Z" fill="#5B708E"/>
<path d="M14.666 7.22431L8.2572 7L6.66602 8.65746L12.9614 9L14.666 7.22431Z" fill="#5B708E"/>
<path d="M9.71467 17.9155L10.4936 17.2583L11.666 11L3.66602 17.7401C5.33885 19.3232 7.89463 19.4509 9.71467 17.9155Z" fill="#5B708E"/>
<path d="M20.666 2.10867L16.7908 2.00236C15.21 1.9594 13.6566 2.50385 12.4166 3.53533H12.4166L9.66602 5.8233L15.988 6L20.666 2.10867Z" fill="#5B708E"/>
<path d="M12.666 16L14.3644 14.5971L15.666 8L13.9212 9.43933L12.666 16Z" fill="#5B708E"/>
<path d="M15.666 13L18.4186 10.8C19.6579 9.81076 20.5212 8.41147 20.8496 6.85985L21.666 3L16.9351 6.77642L15.666 13Z" fill="#5B708E"/>
<path d="M24.3355 1.65714C24.7136 1.338 24.7767 0.753009 24.4761 0.351451C24.175 -0.0507265 23.624 -0.117653 23.2459 0.202106L21.666 1.53568L22.7451 3L24.3355 1.65714Z" fill="#5B708E"/>
</g>
<defs>
<clipPath id="clip0_1172_7530">
<rect width="28.0009" height="28" fill="white" transform="translate(0.666016)"/>
</clipPath>
</defs>
</svg>
