<svg width="358" height="32" viewBox="0 0 358 32" fill="none" xmlns="http://www.w3.org/2000/svg">
<path d="M31.9257 8.00098C28.451 8.00098 25.3313 9.82686 25.3313 13.1774C25.3313 17.0363 30.8422 17.2998 30.8422 19.2198C30.8422 20.0292 29.9081 20.7633 28.3389 20.7633C26.0972 20.7633 24.4159 19.7469 24.4159 19.7469L23.7061 23.1351C23.7061 23.1351 25.6302 24.001 28.2082 24.001C32.0191 24.001 35.008 22.0998 35.008 18.6739C35.008 14.608 29.4785 14.3445 29.4785 12.5563C29.4785 11.9163 30.2444 11.2198 31.8136 11.2198C33.5883 11.2198 35.0454 11.9539 35.0454 11.9539L35.7552 8.67862C35.7366 8.67862 34.1487 8.00098 31.9257 8.00098ZM0.0934045 8.24568L0 8.73509C0 8.73509 1.45711 8.99862 2.78345 9.54451C4.48342 10.1657 4.5955 10.5233 4.8944 11.6339L8.01411 23.7374H12.1986L18.6062 8.24568H14.4403L10.3119 18.7869L8.63058 9.84568C8.48113 8.82921 7.69653 8.24568 6.72512 8.24568H0.0934045ZM20.2875 8.24568L17.0183 23.7374H20.9973L24.2478 8.24568H20.2875ZM42.443 8.24568C41.4903 8.24568 40.9859 8.75392 40.6123 9.65745L34.7838 23.7374H38.9497L39.753 21.3845H44.8342L45.3199 23.7374H49L45.8056 8.24568H42.443ZM42.9848 12.4433L44.2177 18.2598H40.9112L42.9848 12.4433Z" fill="#1434CB"/>
<path d="M90 7.00098H80V24.001H90V7.00098Z" fill="#FF5F00"/>
<path d="M81.5032 15.9984C81.5032 12.6389 83.1651 9.43202 85.9674 7.35521C80.8841 3.59861 73.5198 4.42323 69.5118 9.21823C65.5038 13.9827 66.3836 20.8851 71.4995 24.6417C75.7682 27.7874 81.7313 27.7874 86 24.6417C83.1651 22.5648 81.5032 19.358 81.5032 15.9984Z" fill="#EB001B"/>
<path d="M104 16.0022C104 22.0821 99.0206 27.001 92.866 27.001C90.3608 27.001 87.9485 26.1761 86 24.6485C90.8247 20.8906 91.6598 13.9858 87.8557 9.18915C87.299 8.517 86.6804 7.87541 86 7.35603C90.8247 3.59813 97.8454 4.42303 101.619 9.2197C103.165 11.1445 104 13.5275 104 16.0022Z" fill="#F79E1B"/>
<path d="M103.233 22.4286V22.0621H103.4V22.001H103V22.0621H103.167V22.4286H103.233ZM104 22.4286V22.001H103.867L103.733 22.3064L103.6 22.001H103.467V22.4286H103.567V22.0926L103.7 22.3675H103.8L103.933 22.0926V22.4286H104Z" fill="#F79E1B"/>
<path d="M122 0.000976562H154V17.2755L152.416 19.7504L154 21.953V32.001H122V15.7164L122.99 14.5779L122 13.489V0.000976562Z" fill="#016FD0"/>
<path d="M128 22.001V17.001H133.363L133.939 17.7414L134.533 17.001H154V21.6562C154 21.6562 153.491 21.996 152.902 22.001H142.123L141.474 21.2128V22.001H139.348V20.6555C139.348 20.6555 139.058 20.8433 138.43 20.8433H137.706V22.001H134.488L133.913 21.2446L133.33 22.001H128Z" fill="white"/>
<path d="M122 13.7842L123.205 11.001H125.288L125.972 12.56V11.001H128.562L128.969 12.1278L129.363 11.001H140.989V11.5675C140.989 11.5675 141.6 11.001 142.605 11.001L146.377 11.014L147.049 12.5527V11.001H149.216L149.813 11.8848V11.001H152V16.001H149.813L149.241 15.1143V16.001H146.057L145.737 15.2128H144.88L144.565 16.001H142.406C141.542 16.001 140.989 15.446 140.989 15.446V16.001H137.733L137.087 15.2128V16.001H124.979L124.659 15.2128H123.806L123.488 16.001H122V13.7842Z" fill="white"/>
<path d="M123.451 11.001L122 15.001H122.945L123.212 14.2H124.768L125.035 15.001H126L124.551 11.001H123.451ZM123.988 11.9319L124.462 13.3316H123.512L123.988 11.9319Z" fill="#016FD0"/>
<path d="M127 15.001V11.001L128.592 11.0069L129.517 13.5858L130.421 11.001H132V15.001H131V12.0536L129.94 15.001H129.063L128 12.0536V15.001H127Z" fill="#016FD0"/>
<path d="M132 15.001V11.001H135V11.8957H132.929V12.5799H134.952V13.422H132.929V14.1326H135V15.001H132Z" fill="#016FD0"/>
<path d="M136 11.001V15.001H137.041V13.5799H137.479L138.728 15.001H140L138.63 13.5273C139.192 13.4817 139.772 13.0182 139.772 12.2987C139.772 11.4569 139.084 11.001 138.317 11.001H136ZM137.041 11.8957H138.231C138.517 11.8957 138.724 12.1102 138.724 12.3168C138.724 12.5825 138.455 12.7378 138.247 12.7378H137.041V11.8957Z" fill="#016FD0"/>
<path d="M140 15.001H139V11.001H140V15.001Z" fill="#016FD0"/>
<path d="M142.877 15.001H142.663C141.628 15.001 141 14.1608 141 13.0174C141 11.8458 141.621 11.001 142.928 11.001H144V11.9483H142.888C142.358 11.9483 141.983 12.375 141.983 13.0273C141.983 13.8019 142.412 14.1273 143.03 14.1273H143.285L142.877 15.001Z" fill="#016FD0"/>
<path d="M144.451 11.001L143 15.001H143.945L144.212 14.2H145.768L146.035 15.001H147L145.551 11.001H144.451ZM144.988 11.9319L145.462 13.3316H144.512L144.988 11.9319Z" fill="#016FD0"/>
<path d="M148 15.001V11.001H149.306L150.973 13.5141V11.001H152V15.001H150.736L149.027 12.422V15.001H148Z" fill="#016FD0"/>
<path d="M129 22.001V18.001H132V18.8957H129.929V19.5799H131.952V20.422H129.929V21.1326H132V22.001H129Z" fill="#016FD0"/>
<path d="M144 22.001V18.001H147V18.8957H144.929V19.5799H146.942V20.422H144.929V21.1326H147V22.001H144Z" fill="#016FD0"/>
<path d="M132.034 22.001L133.475 20.0256L132 18.001H133.142L134.021 19.2526L134.902 18.001H136L134.544 20.001L135.988 22.001H134.845L133.993 20.7691L133.16 22.001H132.034Z" fill="#016FD0"/>
<path d="M136 18.001V22.001H136.845V20.7378H137.711C138.444 20.7378 139 20.2653 139 19.3464C139 18.5851 138.564 18.001 137.818 18.001H136ZM136.845 18.9056H137.757C137.994 18.9056 138.163 19.0819 138.163 19.3661C138.163 19.6331 137.995 19.8266 137.755 19.8266H136.845V18.9056Z" fill="#016FD0"/>
<path d="M140 18.001V22.001H141.041V20.5799H141.479L142.728 22.001H144L142.63 20.5273C143.192 20.4817 143.772 20.0182 143.772 19.2987C143.772 18.4569 143.084 18.001 142.317 18.001H140ZM141.041 18.8957H142.231C142.517 18.8957 142.724 19.1102 142.724 19.3168C142.724 19.5825 142.455 19.7378 142.247 19.7378H141.041V18.8957Z" fill="#016FD0"/>
<path d="M147.107 22.001V21.1326H148.792C149.042 21.1326 149.15 20.9725 149.15 20.797C149.15 20.6289 149.042 20.4589 148.792 20.4589H148.031C147.369 20.4589 147 19.9799 147 19.2608C147 18.6195 147.338 18.001 148.321 18.001H149.961L149.607 18.901H148.188C147.917 18.901 147.834 19.0699 147.834 19.2312C147.834 19.3971 147.937 19.5799 148.144 19.5799H148.942C149.68 19.5799 150 20.077 150 20.728C150 21.4278 149.643 22.001 148.902 22.001H147.107Z" fill="#016FD0"/>
<path d="M151.107 22.001V21.1326H152.792C153.042 21.1326 153.15 20.9725 153.15 20.797C153.15 20.6289 153.042 20.4589 152.792 20.4589H152.031C151.369 20.4589 151 19.9799 151 19.2608C151 18.6195 151.338 18.001 152.321 18.001H153.961L153.607 18.901H152.188C151.917 18.901 151.834 19.0699 151.834 19.2312C151.834 19.3971 151.937 19.5799 152.144 19.5799H152.942C153.68 19.5799 154 20.077 154 20.728C154 21.4278 153.643 22.001 152.902 22.001H151.107Z" fill="#016FD0"/>
<path d="M200.766 11.6657C200.422 8.98191 199.459 6.53898 197.773 4.74979C195.985 3.06383 193.542 2.10042 190.859 1.75634C188.279 1.41227 186.524 1.51549 186.524 1.51549C186.524 1.51549 184.77 1.44668 182.189 1.75634C179.506 2.10042 177.064 3.06383 175.275 4.74979C173.589 6.53898 172.626 8.98191 172.282 11.6657C171.938 14.2463 172.007 16.001 172.007 16.001C172.007 16.001 171.938 17.7558 172.247 20.3364C172.591 23.0198 173.555 25.4631 175.24 27.2523C177.029 28.9382 179.472 29.9013 182.155 30.2454C184.735 30.5894 186.49 30.4866 186.49 30.4866C186.49 30.4866 188.244 30.555 190.824 30.2454C193.508 29.9013 195.95 28.9382 197.739 27.2523C199.425 25.4634 200.388 23.0198 200.732 20.3364C201.076 17.7558 200.973 16.001 200.973 16.001C200.973 16.001 201.11 14.2463 200.766 11.6657Z" fill="#1E4BC6"/>
<path d="M177 11.501H179.65C180.068 11.501 180.417 11.5672 180.765 11.6997C181.114 11.8321 181.393 12.0308 181.637 12.2626C181.881 12.4944 182.09 12.7593 182.229 13.0904C182.369 13.4215 182.439 13.7526 182.439 14.1169C182.439 14.4811 182.369 14.8122 182.229 15.1434C182.09 15.4745 181.881 15.7397 181.637 15.9712C181.393 16.2026 181.079 16.402 180.765 16.5338C180.451 16.6662 180.068 16.7331 179.65 16.7331H178.464V18.8189H177.035V11.501H177ZM178.429 12.7596V15.4417H179.545C179.754 15.4417 179.963 15.4086 180.138 15.3424C180.312 15.2761 180.451 15.1768 180.591 15.0444C180.73 14.9119 180.8 14.7795 180.87 14.6139C180.939 14.4483 180.974 14.2828 180.974 14.0841C180.974 13.8854 180.939 13.7199 180.87 13.5543C180.8 13.3887 180.695 13.2563 180.591 13.1238C180.451 12.9914 180.312 12.892 180.138 12.8258C179.963 12.7596 179.754 12.7265 179.545 12.7265H178.429V12.7596ZM185.75 18.8189C185.367 18.8189 185.018 18.753 184.635 18.6202C184.286 18.4877 183.938 18.2891 183.659 18.0576C183.38 17.7924 183.136 17.4944 182.961 17.1301C182.787 16.7659 182.683 16.3354 182.683 15.8718C182.683 15.4083 182.752 14.9778 182.927 14.6136C183.101 14.2493 183.345 13.9513 183.624 13.6864C183.903 13.4215 184.251 13.2559 184.6 13.1235C184.983 12.991 185.332 12.9248 185.75 12.9248C186.169 12.9248 186.552 12.991 186.866 13.1235C187.215 13.2559 187.494 13.4546 187.738 13.6864V12.9248H189.167V18.8185H187.738V17.9907C187.528 18.2559 187.215 18.4543 186.866 18.6199C186.517 18.753 186.169 18.8189 185.75 18.8189ZM185.994 17.594C186.273 17.594 186.517 17.5609 186.727 17.4616C186.936 17.3622 187.145 17.2629 187.319 17.0973C187.494 16.9318 187.598 16.7662 187.703 16.5675C187.807 16.3682 187.842 16.1367 187.842 15.9053C187.842 15.6732 187.807 15.4414 187.703 15.243C187.598 15.0444 187.494 14.8457 187.319 14.7132C187.145 14.5477 186.971 14.4483 186.727 14.349C186.483 14.2165 186.239 14.1834 185.994 14.1834C185.75 14.1834 185.506 14.2165 185.262 14.3159C185.018 14.4152 184.844 14.5146 184.67 14.6801C184.495 14.8457 184.356 15.0112 184.286 15.2099C184.182 15.4086 184.147 15.6404 184.147 15.8722C184.147 16.104 184.182 16.3354 184.286 16.5341C184.391 16.7334 184.53 16.9318 184.67 17.0973C184.844 17.2629 185.053 17.3619 185.262 17.4616C185.472 17.5275 185.716 17.594 185.994 17.594ZM191.154 12.9579L192.897 16.9646L194.501 12.9579H196L192.339 21.501H190.875L192.165 18.5543L189.655 12.9579H191.154Z" fill="white"/>
<path d="M230.694 6.35302C229.944 7.23123 228.744 7.92391 227.544 7.82495C227.394 6.63751 227.981 5.37586 228.669 4.5966C229.419 3.69365 230.732 3.05045 231.794 3.00098C231.919 4.23789 231.432 5.45007 230.694 6.35302ZM231.782 8.05997C230.044 7.96101 228.556 9.03713 227.731 9.03713C226.894 9.03713 225.631 8.10944 224.256 8.13418C222.468 8.15892 220.805 9.16082 219.893 10.7564C218.018 13.9477 219.405 18.6727 221.218 21.2702C222.106 22.5566 223.168 23.9667 224.568 23.9172C225.893 23.8678 226.419 23.0638 228.019 23.0638C229.631 23.0638 230.094 23.9172 231.494 23.8925C232.944 23.8678 233.857 22.6061 234.744 21.3197C235.757 19.8602 236.17 18.4377 236.195 18.3635C236.17 18.3387 233.394 17.2874 233.369 14.1209C233.344 11.4739 235.557 10.2122 235.657 10.138C234.407 8.30735 232.457 8.10944 231.782 8.05997ZM241.82 4.47291V23.7564H244.846V17.1637H249.034C252.859 17.1637 255.547 14.5662 255.547 10.8059C255.547 7.0457 252.909 4.47291 249.134 4.47291H241.82ZM244.846 6.99622H248.334C250.959 6.99622 252.459 8.38157 252.459 10.8183C252.459 13.255 250.959 14.6527 248.321 14.6527H244.846V6.99622ZM261.072 23.9049C262.973 23.9049 264.735 22.9524 265.535 21.4434H265.598V23.7564H268.398V14.158C268.398 11.3749 266.148 9.58138 262.685 9.58138C259.472 9.58138 257.097 11.3996 257.01 13.8982H259.735C259.96 12.7108 261.072 11.9315 262.598 11.9315C264.448 11.9315 265.485 12.785 265.485 14.3559V15.4196L261.71 15.6423C258.197 15.8525 256.297 17.275 256.297 19.7488C256.297 22.2474 258.26 23.9049 261.072 23.9049ZM261.885 21.6166C260.272 21.6166 259.247 20.8497 259.247 19.6746C259.247 18.4624 260.235 17.7574 262.123 17.6461L265.485 17.4358V18.5243C265.485 20.3302 263.935 21.6166 261.885 21.6166ZM272.136 29.001C275.087 29.001 276.474 27.8877 277.687 24.511L283 9.76691H279.925L276.362 21.1589H276.299L272.736 9.76691H269.573L274.699 23.8059L274.424 24.6594C273.961 26.1066 273.211 26.6632 271.874 26.6632C271.636 26.6632 271.174 26.6385 270.986 26.6137V28.9268C271.161 28.9762 271.911 29.001 272.136 29.001Z" fill="#282828"/>
<g clip-path="url(#clip0_1168_3720)">
<path d="M327.932 16.4616V23.0521H325.795V6.75293H331.352C332.706 6.75293 333.989 7.24899 334.986 8.17025C335.984 9.02065 336.482 10.2962 336.482 11.6427C336.482 12.9892 335.984 14.1939 334.986 15.1151C333.989 16.0364 332.777 16.5325 331.352 16.5325L327.932 16.4616ZM327.932 8.73718V14.4065H331.495C332.279 14.4065 333.062 14.123 333.561 13.5561C334.701 12.4931 334.701 10.7214 333.632 9.65844L333.561 9.58758C332.991 9.02065 332.279 8.66632 331.495 8.73718H327.932Z" fill="#282828"/>
<path d="M341.399 11.5718C342.966 11.5718 344.177 11.997 345.104 12.8474C346.03 13.6978 346.457 14.8316 346.457 16.2489V23.0521H344.462V21.493H344.391C343.536 22.7686 342.325 23.4064 340.9 23.4064C339.689 23.4064 338.62 23.0521 337.765 22.3434C336.981 21.6348 336.482 20.6426 336.482 19.5797C336.482 18.4458 336.91 17.5245 337.765 16.8159C338.62 16.1072 339.831 15.8237 341.256 15.8237C342.539 15.8237 343.536 16.0363 344.32 16.5324V16.0363C344.32 15.3277 344.035 14.619 343.465 14.1938C342.895 13.6978 342.182 13.4143 341.399 13.4143C340.187 13.4143 339.261 13.9104 338.62 14.9025L336.767 13.7686C337.907 12.2804 339.404 11.5718 341.399 11.5718ZM338.691 19.6505C338.691 20.2174 338.976 20.7135 339.404 20.997C339.902 21.3513 340.472 21.5639 341.042 21.5639C341.897 21.5639 342.752 21.2096 343.394 20.5718C344.106 19.934 344.462 19.1545 344.462 18.3041C343.821 17.808 342.895 17.5245 341.684 17.5245C340.829 17.5245 340.116 17.7371 339.546 18.1623C338.976 18.5167 338.691 19.0127 338.691 19.6505Z" fill="#282828"/>
<path d="M358 11.9263L350.946 28.0129H348.808L351.445 22.4145L346.813 11.9971H349.093L352.442 20.005H352.513L355.791 11.9971H358V11.9263Z" fill="#282828"/>
<path d="M319.454 15.0442C319.454 14.4065 319.383 13.7687 319.312 13.1309H310.405V16.745H315.464C315.25 17.8789 314.609 18.9419 313.612 19.5797V21.9183H316.675C318.457 20.2883 319.454 17.8789 319.454 15.0442Z" fill="#4285F4"/>
<path d="M310.405 24.1862C312.97 24.1862 315.107 23.3358 316.675 21.9185L313.611 19.5799C312.756 20.1468 311.687 20.5012 310.405 20.5012C307.982 20.5012 305.845 18.8712 305.132 16.6035H301.997V19.013C303.636 22.2019 306.842 24.1862 310.405 24.1862Z" fill="#34A853"/>
<path d="M305.133 16.6032C304.705 15.4694 304.705 14.1938 305.133 12.989V10.5796H301.998C300.644 13.2016 300.644 16.3197 301.998 19.0127L305.133 16.6032Z" fill="#FBBC04"/>
<path d="M310.405 9.16248C311.758 9.16248 313.041 9.65855 314.038 10.5798L316.746 7.88689C315.036 6.32784 312.756 5.40658 310.476 5.47745C306.913 5.47745 303.636 7.4617 302.068 10.6507L305.203 13.0601C305.845 10.7924 307.982 9.16248 310.405 9.16248Z" fill="#EA4335"/>
</g>
<defs>
<clipPath id="clip0_1168_3720">
<rect width="57" height="27" fill="white" transform="translate(301 2.50098)"/>
</clipPath>
</defs>
</svg>
