<svg width="94" height="14" viewBox="0 0 94 14" fill="none" xmlns="http://www.w3.org/2000/svg">
<g clip-path="url(#clip0_1172_8451)">
<path d="M7 11.3588L10.3949 13.3538C11.0166 13.7194 11.7774 13.179 11.6138 12.4954L10.7139 8.74382L13.7162 6.21628C14.2643 5.75528 13.9698 4.88097 13.2499 4.82533L9.29871 4.49946L7.7526 0.954536C7.47447 0.310728 6.52553 0.310728 6.2474 0.954536L4.70129 4.49151L0.750115 4.81739C0.0302327 4.87302 -0.264264 5.74733 0.283828 6.20833L3.28606 8.73587L2.38621 12.4875C2.2226 13.171 2.98339 13.7115 3.6051 13.3459L7 11.3588Z" fill="#5B708E"/>
</g>
<g clip-path="url(#clip1_1172_8451)">
<path d="M27 11.3588L30.3949 13.3538C31.0166 13.7194 31.7774 13.179 31.6138 12.4954L30.7139 8.74382L33.7162 6.21628C34.2643 5.75528 33.9698 4.88097 33.2499 4.82533L29.2987 4.49946L27.7526 0.954536C27.4745 0.310728 26.5255 0.310728 26.2474 0.954536L24.7013 4.49151L20.7501 4.81739C20.0302 4.87302 19.7357 5.74733 20.2838 6.20833L23.2861 8.73587L22.3862 12.4875C22.2226 13.171 22.9834 13.7115 23.6051 13.3459L27 11.3588Z" fill="#5B708E"/>
</g>
<g clip-path="url(#clip2_1172_8451)">
<path d="M47 11.3588L50.3949 13.3538C51.0166 13.7194 51.7774 13.179 51.6138 12.4954L50.7139 8.74382L53.7162 6.21628C54.2643 5.75528 53.9698 4.88097 53.2499 4.82533L49.2987 4.49946L47.7526 0.954536C47.4745 0.310728 46.5255 0.310728 46.2474 0.954536L44.7013 4.49151L40.7501 4.81739C40.0302 4.87302 39.7357 5.74733 40.2838 6.20833L43.2861 8.73587L42.3862 12.4875C42.2226 13.171 42.9834 13.7115 43.6051 13.3459L47 11.3588Z" fill="#5B708E"/>
</g>
<g clip-path="url(#clip3_1172_8451)">
<path d="M67 11.3588L70.3949 13.3538C71.0166 13.7194 71.7774 13.179 71.6138 12.4954L70.7139 8.74382L73.7162 6.21628C74.2643 5.75528 73.9698 4.88097 73.2499 4.82533L69.2987 4.49946L67.7526 0.954536C67.4745 0.310728 66.5255 0.310728 66.2474 0.954536L64.7013 4.49151L60.7501 4.81739C60.0302 4.87302 59.7357 5.74733 60.2838 6.20833L63.2861 8.73587L62.3862 12.4875C62.2226 13.171 62.9834 13.7115 63.6051 13.3459L67 11.3588Z" fill="#5B708E"/>
</g>
<g clip-path="url(#clip4_1172_8451)">
<path d="M87.0005 10.7791L87.2533 10.9277L90.6482 12.9227L90.6484 12.9228C90.7752 12.9974 90.909 12.9812 91.0103 12.9097C91.1107 12.8387 91.1562 12.732 91.1276 12.612L87.0005 10.7791ZM87.0005 10.7791L86.7474 10.9273L83.3525 12.9144L83.3516 12.9149C83.2248 12.9894 83.091 12.9733 82.9897 12.9017C82.8892 12.8307 82.8438 12.724 82.8724 12.6041C82.8724 12.6041 82.8724 12.604 82.8724 12.604C82.8724 12.604 82.8725 12.6039 82.8725 12.6039L83.7723 8.85249L83.8443 8.55223L83.6081 8.35337L80.6058 5.82583L80.6057 5.82568C80.4175 5.66742 80.4923 5.3388 80.7886 5.3159L80.7886 5.31591L80.7912 5.31569L84.7424 4.98981L85.0399 4.96528L85.1594 4.69177L86.7055 1.1548L86.7055 1.1548L86.7064 1.15283C86.7554 1.03929 86.8637 0.97168 87 0.97168C87.1363 0.97168 87.2446 1.03929 87.2936 1.15283L87.2943 1.15442L88.8404 4.69935L88.9598 4.97321L89.2576 4.99776L93.2088 5.32364L93.2114 5.32384C93.5078 5.34675 93.5825 5.67538 93.3944 5.83363L93.3942 5.83378L90.3919 8.36132L90.1557 8.56018L90.2277 8.86045L91.1275 12.6118L87.0005 10.7791Z" stroke="#5B708E"/>
</g>
<defs>
<clipPath id="clip0_1172_8451">
<rect width="14" height="14" fill="white" transform="translate(0 0.000976562)"/>
</clipPath>
<clipPath id="clip1_1172_8451">
<rect width="14" height="14" fill="white" transform="translate(20 0.000976562)"/>
</clipPath>
<clipPath id="clip2_1172_8451">
<rect width="14" height="14" fill="white" transform="translate(40 0.000976562)"/>
</clipPath>
<clipPath id="clip3_1172_8451">
<rect width="14" height="14" fill="white" transform="translate(60 0.000976562)"/>
</clipPath>
<clipPath id="clip4_1172_8451">
<rect width="14" height="14" fill="white" transform="translate(80 0.000976562)"/>
</clipPath>
</defs>
</svg>
