<svg width="94" height="15" viewBox="0 0 94 15" fill="none" xmlns="http://www.w3.org/2000/svg">
<g clip-path="url(#clip0_1336_136)">
<path d="M7 11.8588L10.3949 13.8538C11.0166 14.2194 11.7774 13.679 11.6138 12.9954L10.7139 9.24382L13.7162 6.71628C14.2643 6.25528 13.9698 5.38097 13.2499 5.32533L9.29871 4.99946L7.7526 1.45454C7.47447 0.810728 6.52553 0.810728 6.2474 1.45454L4.70129 4.99151L0.750115 5.31739C0.0302327 5.37302 -0.264264 6.24733 0.283828 6.70833L3.28606 9.23587L2.38621 12.9875C2.2226 13.671 2.98339 14.2115 3.6051 13.8459L7 11.8588Z" fill="#5B708E"/>
</g>
<g clip-path="url(#clip1_1336_136)">
<path d="M27 11.8588L30.3949 13.8538C31.0166 14.2194 31.7774 13.679 31.6138 12.9954L30.7139 9.24382L33.7162 6.71628C34.2643 6.25528 33.9698 5.38097 33.2499 5.32533L29.2987 4.99946L27.7526 1.45454C27.4745 0.810728 26.5255 0.810728 26.2474 1.45454L24.7013 4.99151L20.7501 5.31739C20.0302 5.37302 19.7357 6.24733 20.2838 6.70833L23.2861 9.23587L22.3862 12.9875C22.2226 13.671 22.9834 14.2115 23.6051 13.8459L27 11.8588Z" fill="#5B708E"/>
</g>
<g clip-path="url(#clip2_1336_136)">
<path d="M47 11.8588L50.3949 13.8538C51.0166 14.2194 51.7774 13.679 51.6138 12.9954L50.7139 9.24382L53.7162 6.71628C54.2643 6.25528 53.9698 5.38097 53.2499 5.32533L49.2987 4.99946L47.7526 1.45454C47.4745 0.810728 46.5255 0.810728 46.2474 1.45454L44.7013 4.99151L40.7501 5.31739C40.0302 5.37302 39.7357 6.24733 40.2838 6.70833L43.2861 9.23587L42.3862 12.9875C42.2226 13.671 42.9834 14.2115 43.6051 13.8459L47 11.8588Z" fill="#5B708E"/>
</g>
<g clip-path="url(#clip3_1336_136)">
<path d="M67 11.8588L70.3949 13.8538C71.0166 14.2194 71.7774 13.679 71.6138 12.9954L70.7139 9.24382L73.7162 6.71628C74.2643 6.25528 73.9698 5.38097 73.2499 5.32533L69.2987 4.99946L67.7526 1.45454C67.4745 0.810728 66.5255 0.810728 66.2474 1.45454L64.7013 4.99151L60.7501 5.31739C60.0302 5.37302 59.7357 6.24733 60.2838 6.70833L63.2861 9.23587L62.3862 12.9875C62.2226 13.671 62.9834 14.2115 63.6051 13.8459L67 11.8588Z" fill="#5B708E"/>
</g>
<g clip-path="url(#clip4_1336_136)">
<path d="M87 11.8588L90.3949 13.8538C91.0166 14.2194 91.7774 13.679 91.6138 12.9954L90.7139 9.24382L93.7162 6.71628C94.2643 6.25528 93.9698 5.38097 93.2499 5.32533L89.2987 4.99946L87.7526 1.45454C87.4745 0.810728 86.5255 0.810728 86.2474 1.45454L84.7013 4.99151L80.7501 5.31739C80.0302 5.37302 79.7357 6.24733 80.2838 6.70833L83.2861 9.23587L82.3862 12.9875C82.2226 13.671 82.9834 14.2115 83.6051 13.8459L87 11.8588Z" fill="#5B708E"/>
</g>
<defs>
<clipPath id="clip0_1336_136">
<rect width="14" height="14" fill="white" transform="translate(0 0.500977)"/>
</clipPath>
<clipPath id="clip1_1336_136">
<rect width="14" height="14" fill="white" transform="translate(20 0.500977)"/>
</clipPath>
<clipPath id="clip2_1336_136">
<rect width="14" height="14" fill="white" transform="translate(40 0.500977)"/>
</clipPath>
<clipPath id="clip3_1336_136">
<rect width="14" height="14" fill="white" transform="translate(60 0.500977)"/>
</clipPath>
<clipPath id="clip4_1336_136">
<rect width="14" height="14" fill="white" transform="translate(80 0.500977)"/>
</clipPath>
</defs>
</svg>
