<svg width="94" height="14" viewBox="0 0 94 14" fill="none" xmlns="http://www.w3.org/2000/svg">
<g clip-path="url(#clip0_1172_8443)">
<path d="M7 11.3588L10.3949 13.3538C11.0166 13.7194 11.7774 13.179 11.6138 12.4954L10.7139 8.74382L13.7162 6.21628C14.2643 5.75528 13.9698 4.88097 13.2499 4.82533L9.29871 4.49946L7.7526 0.954536C7.47447 0.310728 6.52553 0.310728 6.2474 0.954536L4.70129 4.49151L0.750115 4.81739C0.0302327 4.87302 -0.264264 5.74733 0.283828 6.20833L3.28606 8.73587L2.38621 12.4875C2.2226 13.171 2.98339 13.7115 3.6051 13.3459L7 11.3588Z" fill="#5B708E"/>
</g>
<g clip-path="url(#clip1_1172_8443)">
<path d="M27 11.3588L30.3949 13.3538C31.0166 13.7194 31.7774 13.179 31.6138 12.4954L30.7139 8.74382L33.7162 6.21628C34.2643 5.75528 33.9698 4.88097 33.2499 4.82533L29.2987 4.49946L27.7526 0.954536C27.4745 0.310728 26.5255 0.310728 26.2474 0.954536L24.7013 4.49151L20.7501 4.81739C20.0302 4.87302 19.7357 5.74733 20.2838 6.20833L23.2861 8.73587L22.3862 12.4875C22.2226 13.171 22.9834 13.7115 23.6051 13.3459L27 11.3588Z" fill="#5B708E"/>
</g>
<g clip-path="url(#clip2_1172_8443)">
<path d="M47 11.3588L50.3949 13.3538C51.0166 13.7194 51.7774 13.179 51.6138 12.4954L50.7139 8.74382L53.7162 6.21628C54.2643 5.75528 53.9698 4.88097 53.2499 4.82533L49.2987 4.49946L47.7526 0.954536C47.4745 0.310728 46.5255 0.310728 46.2474 0.954536L44.7013 4.49151L40.7501 4.81739C40.0302 4.87302 39.7357 5.74733 40.2838 6.20833L43.2861 8.73587L42.3862 12.4875C42.2226 13.171 42.9834 13.7115 43.6051 13.3459L47 11.3588Z" fill="#5B708E"/>
</g>
<g clip-path="url(#clip3_1172_8443)">
<path d="M67 11.3588L70.3949 13.3538C71.0166 13.7194 71.7774 13.179 71.6138 12.4954L70.7139 8.74382L73.7162 6.21628C74.2643 5.75528 73.9698 4.88097 73.2499 4.82533L69.2987 4.49946L67.7526 0.954536C67.4745 0.310728 66.5255 0.310728 66.2474 0.954536L64.7013 4.49151L60.7501 4.81739C60.0302 4.87302 59.7357 5.74733 60.2838 6.20833L63.2861 8.73587L62.3862 12.4875C62.2226 13.171 62.9834 13.7115 63.6051 13.3459L67 11.3588Z" fill="#5B708E"/>
</g>
<g clip-path="url(#clip4_1172_8443)">
<path d="M87 11.3588L90.3949 13.3538C91.0166 13.7194 91.7774 13.179 91.6138 12.4954L90.7139 8.74382L93.7162 6.21628C94.2643 5.75528 93.9698 4.88097 93.2499 4.82533L89.2987 4.49946L87.7526 0.954536C87.4745 0.310728 86.5255 0.310728 86.2474 0.954536L84.7013 4.49151L80.7501 4.81739C80.0302 4.87302 79.7357 5.74733 80.2838 6.20833L83.2861 8.73587L82.3862 12.4875C82.2226 13.171 82.9834 13.7115 83.6051 13.3459L87 11.3588Z" fill="#5B708E"/>
</g>
<defs>
<clipPath id="clip0_1172_8443">
<rect width="14" height="14" fill="white" transform="translate(0 0.000976562)"/>
</clipPath>
<clipPath id="clip1_1172_8443">
<rect width="14" height="14" fill="white" transform="translate(20 0.000976562)"/>
</clipPath>
<clipPath id="clip2_1172_8443">
<rect width="14" height="14" fill="white" transform="translate(40 0.000976562)"/>
</clipPath>
<clipPath id="clip3_1172_8443">
<rect width="14" height="14" fill="white" transform="translate(60 0.000976562)"/>
</clipPath>
<clipPath id="clip4_1172_8443">
<rect width="14" height="14" fill="white" transform="translate(80 0.000976562)"/>
</clipPath>
</defs>
</svg>
