<svg width="76" height="13" viewBox="0 0 76 13" fill="none" xmlns="http://www.w3.org/2000/svg">
<g clip-path="url(#clip0_1130_20082)">
<path d="M6 10.2351L8.90991 11.9451C9.4428 12.2585 10.0949 11.7953 9.95469 11.2093L9.18334 7.99372L11.7567 5.82726C12.2265 5.43212 11.9741 4.68271 11.3571 4.63502L7.97032 4.3557L6.64509 1.3172C6.40669 0.765361 5.59331 0.765361 5.35491 1.3172L4.02968 4.34889L0.642955 4.62821C0.0259138 4.67589 -0.226512 5.4253 0.243281 5.82045L2.81662 7.98691L2.04532 11.2026C1.90509 11.7884 2.55719 12.2517 3.09009 11.9383L6 10.2351Z" fill="#5B708E"/>
</g>
<g clip-path="url(#clip1_1130_20082)">
<path d="M22 10.2351L24.9099 11.9451C25.4428 12.2585 26.0949 11.7953 25.9547 11.2093L25.1833 7.99372L27.7567 5.82726C28.2265 5.43212 27.9741 4.68271 27.3571 4.63502L23.9703 4.3557L22.6451 1.3172C22.4067 0.765361 21.5933 0.765361 21.3549 1.3172L20.0297 4.34889L16.643 4.62821C16.0259 4.67589 15.7735 5.4253 16.2433 5.82045L18.8166 7.98691L18.0453 11.2026C17.9051 11.7884 18.5572 12.2517 19.0901 11.9383L22 10.2351Z" fill="#5B708E"/>
</g>
<g clip-path="url(#clip2_1130_20082)">
<path d="M38 10.2351L40.9099 11.9451C41.4428 12.2585 42.0949 11.7953 41.9547 11.2093L41.1833 7.99372L43.7567 5.82726C44.2265 5.43212 43.9741 4.68271 43.3571 4.63502L39.9703 4.3557L38.6451 1.3172C38.4067 0.765361 37.5933 0.765361 37.3549 1.3172L36.0297 4.34889L32.643 4.62821C32.0259 4.67589 31.7735 5.4253 32.2433 5.82045L34.8166 7.98691L34.0453 11.2026C33.9051 11.7884 34.5572 12.2517 35.0901 11.9383L38 10.2351Z" fill="#5B708E"/>
</g>
<g clip-path="url(#clip3_1130_20082)">
<path d="M54 10.2351L56.9099 11.9451C57.4428 12.2585 58.0949 11.7953 57.9547 11.2093L57.1833 7.99372L59.7567 5.82726C60.2265 5.43212 59.9741 4.68271 59.3571 4.63502L55.9703 4.3557L54.6451 1.3172C54.4067 0.765361 53.5933 0.765361 53.3549 1.3172L52.0297 4.34889L48.643 4.62821C48.0259 4.67589 47.7735 5.4253 48.2433 5.82045L50.8166 7.98691L50.0453 11.2026C49.9051 11.7884 50.5572 12.2517 51.0901 11.9383L54 10.2351Z" fill="#5B708E"/>
</g>
<g clip-path="url(#clip4_1130_20082)">
<path d="M70 10.2351L72.9099 11.9451C73.4428 12.2585 74.0949 11.7953 73.9547 11.2093L73.1833 7.99372L75.7567 5.82726C76.2265 5.43212 75.9741 4.68271 75.3571 4.63502L71.9703 4.3557L70.6451 1.3172C70.4067 0.765361 69.5933 0.765361 69.3549 1.3172L68.0297 4.34889L64.643 4.62821C64.0259 4.67589 63.7735 5.4253 64.2433 5.82045L66.8166 7.98691L66.0453 11.2026C65.9051 11.7884 66.5572 12.2517 67.0901 11.9383L70 10.2351Z" fill="#5B708E"/>
</g>
<defs>
<clipPath id="clip0_1130_20082">
<rect width="12" height="12" fill="white" transform="translate(0 0.5)"/>
</clipPath>
<clipPath id="clip1_1130_20082">
<rect width="12" height="12" fill="white" transform="translate(16 0.5)"/>
</clipPath>
<clipPath id="clip2_1130_20082">
<rect width="12" height="12" fill="white" transform="translate(32 0.5)"/>
</clipPath>
<clipPath id="clip3_1130_20082">
<rect width="12" height="12" fill="white" transform="translate(48 0.5)"/>
</clipPath>
<clipPath id="clip4_1130_20082">
<rect width="12" height="12" fill="white" transform="translate(64 0.5)"/>
</clipPath>
</defs>
</svg>
