<svg width="27" height="24" viewBox="0 0 27 24" fill="none" xmlns="http://www.w3.org/2000/svg">
<path d="M18 3H1.125V16H18V3Z" stroke="#CE161C" stroke-width="2" stroke-linecap="round" stroke-linejoin="round"/>
<path d="M18 8H22.5L25.875 11V16H18V8Z" stroke="#CE161C" stroke-width="2" stroke-linecap="round" stroke-linejoin="round"/>
<path d="M6.1875 21C7.7408 21 9 19.8807 9 18.5C9 17.1193 7.7408 16 6.1875 16C4.6342 16 3.375 17.1193 3.375 18.5C3.375 19.8807 4.6342 21 6.1875 21Z" stroke="#CE161C" stroke-width="2" stroke-linecap="round" stroke-linejoin="round"/>
<path d="M20.8125 21C22.3658 21 23.625 19.8807 23.625 18.5C23.625 17.1193 22.3658 16 20.8125 16C19.2592 16 18 17.1193 18 18.5C18 19.8807 19.2592 21 20.8125 21Z" stroke="#CE161C" stroke-width="2" stroke-linecap="round" stroke-linejoin="round"/>
</svg>
